<svg width="434" height="416" viewBox="0 0 434 416" fill="none" xmlns="http://www.w3.org/2000/svg">
<path d="M73.9919 351.762C26.1079 316.056 -0.246057 254.178 5.05394 194.683C10.3539 135.188 46.3129 79.7123 97.3549 48.6883C148.397 17.6643 213.116 11.1003 270.063 29.1253C327.009 47.1503 375.59 88.9423 403.947 141.514C420.847 172.845 430.885 208.333 429.49 243.903C428.095 279.473 414.72 315.02 389.863 340.502C374.764 355.979 355.873 367.267 335.658 374.717C314.046 382.681 293.834 388.061 271.785 392.807C230.285 401.74 183.901 394.328 142.539 383.634C117.981 377.283 94.3859 366.969 73.9919 351.762Z" fill="#DFE6EE"/>
<path d="M266.659 75.2069C265.281 72.6659 262.538 70.2659 259.647 70.2569C178.537 70.0229 102.462 71.5639 15.9478 70.7469C12.3388 70.7129 8.56879 70.8809 5.74079 73.1239C2.91279 75.3669 1.53779 78.1489 1.40379 81.7559C1.37479 82.5429 1.34679 83.3299 1.31879 84.1169C-0.474211 135.335 0.579787 186.573 1.15579 237.803C1.18279 240.195 0.864787 242.737 2.49579 244.486C4.12679 246.235 6.67879 246.2 9.06879 246.29C57.5918 248.115 103.7 248.314 148.955 248.342C151.345 256.639 159.872 267.208 162.869 271.213C170.876 281.911 180.577 291.349 191.541 298.992C203.299 307.188 217.48 313.507 231.639 311.28C208.4 301.003 192.087 276.66 191.417 251.259C191.392 250.311 191.378 249.336 191.33 248.364C212.113 248.393 232.82 248.483 253.602 248.779C257.954 248.841 264.328 246.705 264.325 242.353C264.289 188.939 266.072 126.731 266.574 83.5119C266.607 80.6209 268.037 77.7479 266.659 75.2069Z" fill="#FFBB39"/>
<path d="M30.3567 161.363C27.5257 168.578 28.9547 176.737 31.1997 184.155C33.3847 191.37 36.3067 198.362 39.9077 204.986C41.4527 207.828 43.2547 210.735 46.0967 212.281C50.3127 214.575 55.4967 213.257 60.0977 211.889C63.8747 210.766 68.0877 209.278 69.7147 205.689C70.9217 203.026 70.3347 199.932 69.6917 197.08C67.3937 186.892 64.6517 176.804 61.4737 166.855C59.4487 160.516 56.1247 151.653 48.6097 150.69C40.9267 149.705 33.1887 154.148 30.3567 161.363Z" fill="white"/>
<path d="M61.4749 166.855C59.4499 160.516 56.1259 151.653 48.6109 150.69C47.1329 150.501 45.6539 150.516 44.2079 150.709C42.8089 155.333 43.0919 161.75 43.1369 165.299C43.3309 180.69 48.4519 195.673 54.7079 209.57C55.2119 210.689 55.7319 211.81 56.2869 212.91C57.5799 212.618 58.8609 212.256 60.0989 211.888C63.8759 210.765 68.0889 209.277 69.7159 205.688C70.9229 203.025 70.3359 199.931 69.6929 197.079C67.3949 186.891 64.6519 176.803 61.4749 166.855Z" fill="#7991D1"/>
<path d="M213.784 128.535C219.244 134.035 221.169 142.092 222.05 149.792C222.907 157.282 222.997 164.86 222.319 172.368C222.028 175.59 221.527 178.973 219.531 181.52C216.571 185.298 211.289 186.145 206.523 186.714C202.61 187.181 198.153 187.487 195.236 184.837C193.072 182.871 192.383 179.798 191.842 176.925C189.91 166.661 188.427 156.313 187.397 145.92C186.741 139.298 186.277 129.844 192.794 125.979C199.458 122.026 208.323 123.035 213.784 128.535Z" fill="white"/>
<path d="M187.398 145.92C186.742 139.298 186.278 129.844 192.795 125.979C194.076 125.219 195.44 124.647 196.844 124.25C199.962 127.94 202.248 133.942 203.614 137.219C209.541 151.425 210.783 167.209 210.553 182.448C210.535 183.676 210.501 184.91 210.428 186.141C209.126 186.386 207.806 186.562 206.523 186.715C202.61 187.182 198.153 187.487 195.236 184.838C193.072 182.872 192.383 179.799 191.842 176.926C189.91 166.661 188.427 156.313 187.398 145.92Z" fill="#7991D1"/>
<path d="M73.2879 97.0269C80.2539 100.536 85.5399 107.221 87.3479 114.808C87.5909 115.829 83.2569 116.45 82.8449 115.485C82.4329 114.52 81.8179 111.777 81.5699 110.757C80.5899 106.735 77.8989 103.16 74.3059 101.105C73.6879 100.751 73.0359 100.435 72.5139 99.9509C71.9919 99.4659 71.6089 98.7649 71.7109 98.0599C71.8129 97.3539 72.6519 96.7059 73.2879 97.0269Z" fill="#313B59"/>
<path d="M74.4718 95.2486C73.6758 92.8106 71.6578 90.7786 69.1888 90.0856C66.7198 89.3926 63.8768 90.1156 62.1248 91.9876C60.3738 93.8606 59.5408 97.0526 60.6608 99.3586C61.6148 101.324 63.4018 103.533 65.5458 103.95C70.4208 104.899 76.2858 100.807 74.4718 95.2486Z" fill="white"/>
<path d="M158.103 88.6698C151.964 93.4808 148.097 101.076 147.818 108.871C147.78 109.92 152.153 109.676 152.367 108.648C152.581 107.62 152.644 104.81 152.687 103.761C152.856 99.6248 154.791 95.5898 157.91 92.8678C158.447 92.3998 159.023 91.9608 159.44 91.3828C159.856 90.8048 160.094 90.0418 159.855 89.3708C159.614 88.7008 158.663 88.2308 158.103 88.6698Z" fill="#313B59"/>
<path d="M156.592 87.1598C156.892 84.6128 158.472 82.2228 160.755 81.0578C163.039 79.8918 165.969 80.0418 168.055 81.5328C170.141 83.0238 171.585 85.9898 170.941 88.4718C170.392 90.5868 169.076 93.1038 167.055 93.9348C162.463 95.8238 155.907 92.9658 156.592 87.1598Z" fill="white"/>
<path d="M62.2838 211.747C58.5678 204.666 53.3419 192.477 51.8299 186.809C47.5979 170.938 45.3859 157.314 51.7449 142.169C56.5259 130.784 66.4578 122.099 77.6308 116.841C88.8038 111.583 101.193 109.453 113.494 108.375C129.475 106.974 148.051 106.317 164.052 107.46C190.502 109.349 197.521 129.372 200.42 137.946C203.318 146.52 204.278 155.608 205.219 164.61C206.224 174.219 207.15 184.357 203.178 193.165C199.917 200.395 193.683 205.876 187.021 210.18C172.478 219.574 155.3 224.32 138.071 226.028C123.774 227.446 103.578 227.484 89.2379 227.365C77.2499 227.266 67.8868 222.423 62.2838 211.747Z" fill="white"/>
<path d="M83.0068 211.842C77.6508 207.065 74.5568 200.362 71.9198 193.747C68.0298 183.988 64.7798 173.768 64.8048 163.289C64.8298 152.81 68.5208 141.945 76.5938 135.088C86.0228 127.079 99.3948 125.811 111.83 124.91C126.876 123.819 141.922 122.728 156.967 121.637C162.907 121.206 169.132 120.821 174.569 123.209C182.572 126.723 186.861 135.334 189.242 143.617C192.127 153.651 195.514 164.29 194.644 174.681C194.051 181.762 193.588 189.298 188.891 194.703C183.828 200.53 175.632 203.568 168.233 205.998C156.751 209.769 142.115 212.883 130.225 215.226C119.721 217.295 109.817 216.845 99.2798 217.148C93.1168 217.323 87.7028 216.029 83.0068 211.842Z" fill="#313B59"/>
<path d="M159.536 155.323C154.1 154.163 148.663 153.002 143.227 151.842L153.461 138.508C153.943 137.88 153.558 136.869 152.936 136.505C152.181 136.064 151.416 136.401 150.933 137.03C147.221 141.867 143.508 146.704 139.796 151.54C139.673 151.7 139.608 151.885 139.587 152.078C139.114 152.844 139.258 153.984 140.383 154.225C146.508 155.532 152.634 156.84 158.759 158.147C160.595 158.539 161.381 155.717 159.536 155.323Z" fill="#FFD075"/>
<path d="M90.3505 155.43C91.6115 149.998 96.6835 145.606 102.257 145.405C107.83 145.204 114.319 149.204 115.309 154.691C116.141 159.304 114.661 166.049 110.775 168.671C107.491 170.887 100.006 172.072 95.2485 168.986C91.1235 166.312 89.3695 159.656 90.3505 155.43Z" fill="#FFD075"/>
<path d="M144.484 177.602C143.745 175.87 141.169 177.266 141.905 178.991C143.096 181.78 142.587 185.051 140.99 187.571C139.255 190.31 136.203 191.886 133.002 192.097C126.119 192.549 120.753 187.164 119.328 180.753C118.92 178.915 116.069 179.588 116.479 181.432C117.829 187.506 122.276 193.087 128.496 194.595C134.801 196.124 141.623 193.517 144.359 187.444C145.775 184.3 145.836 180.77 144.484 177.602Z" fill="#FFD075"/>
<path d="M207.496 200.673C202.553 205.87 197.353 210.523 191.318 214.437C185.283 218.351 178.672 221.472 171.934 223.966C156.879 229.538 140.753 231.783 124.782 232.567C115.204 233.037 105.571 232.658 96.0146 233.419C95.6026 233.452 95.6026 234.026 96.0146 234.06C104.693 234.769 113.498 234.469 122.192 234.142C130.797 233.818 139.431 233.251 147.944 231.921C162.7 229.615 177.316 225.283 190.138 217.475C196.993 213.3 203.716 208.254 208.822 202C209.571 201.084 208.345 199.781 207.496 200.673Z" fill="#FFD075"/>
<path d="M192.273 222.258C191.028 221.903 189.951 222.925 188.913 223.485C187.565 224.212 186.216 224.957 184.843 225.636C182.12 226.983 179.304 228.274 176.463 229.35C173.727 230.386 170.986 231.409 168.191 232.275C166.724 232.73 165.267 233.215 163.795 233.653C162.6 234.009 161.149 234.217 160.17 235.028C160.007 235.163 160.106 235.436 160.291 235.487C161.507 235.818 162.991 235.346 164.193 235.097C165.701 234.785 167.196 234.459 168.677 234.036C171.629 233.192 174.553 232.259 177.4 231.106C180.133 229.999 182.841 228.913 185.471 227.577C186.842 226.881 188.23 226.234 189.576 225.489C190.663 224.887 192.39 224.368 192.712 223.032C192.793 222.699 192.609 222.354 192.273 222.258Z" fill="#FFD075"/>
<path d="M63.1209 116.94C58.5879 119.583 54.5209 123.024 51.1369 127.033C47.8889 130.88 44.8409 135.561 43.8009 140.559C43.7389 140.855 44.1389 141.05 44.3029 140.771C45.5609 138.621 46.6269 136.379 47.9869 134.285C49.3729 132.151 50.8149 130.05 52.4649 128.11C55.7429 124.256 59.6539 121.027 64.0219 118.481C65.0129 117.903 64.1159 116.36 63.1209 116.94Z" fill="#FFD075"/>
<path d="M196.393 115.336C190.562 107.787 181.007 102.049 171.233 102.485C170.832 102.503 170.691 103.158 171.133 103.226C175.704 103.93 180.179 105.085 184.307 107.227C188.469 109.387 192.162 112.419 195.031 116.133C195.232 116.393 195.57 116.626 195.922 116.496C196.156 116.409 196.248 116.332 196.394 116.133C196.54 115.931 196.548 115.535 196.393 115.336Z" fill="#FFD075"/>
<path d="M134.824 99.4126C131.862 98.9586 128.751 98.9796 125.76 99.0076C122.647 99.0376 119.537 99.1946 116.439 99.4976C113.5 99.7846 110.594 100.223 107.7 100.812C106.177 101.122 104.661 101.465 103.153 101.843C101.764 102.191 100.082 102.477 98.9235 103.363C98.7755 103.477 98.8295 103.682 99.0155 103.704C100.32 103.861 101.752 103.395 103.021 103.124C104.468 102.814 105.923 102.535 107.382 102.29C110.458 101.773 113.565 101.377 116.67 101.086C119.613 100.81 122.569 100.655 125.525 100.64C128.561 100.625 131.589 100.908 134.619 100.919C135.455 100.921 135.7 99.5466 134.824 99.4126Z" fill="#FFD075"/>
<path d="M50.4767 220.776C47.0387 220.973 43.8867 220.893 40.6357 219.597C37.3417 218.284 34.3597 216.208 31.8957 213.667C26.4947 208.097 24.0117 200.804 22.4057 193.372C21.4597 188.995 21.1207 184.47 20.0367 180.131C19.9887 179.939 19.7057 179.986 19.6997 180.177C19.5657 184.327 20.1797 188.608 20.8347 192.699C21.4937 196.81 22.6127 200.893 24.2367 204.728C27.1337 211.567 32.2487 217.725 39.1587 220.771C42.6337 222.302 46.9237 223.306 50.6867 222.326C51.5307 222.107 51.3807 220.725 50.4767 220.776Z" fill="#FFD075"/>
<path d="M229.916 150.429C229.841 146.354 229.501 142.269 228.657 138.276C227.319 131.943 224.518 125.808 220.001 121.104C218.805 119.858 217.481 118.747 216.048 117.783C214.722 116.891 213.151 115.822 211.5 115.784C211.321 115.78 211.229 116.012 211.354 116.136C212.676 117.434 214.543 118.148 216.008 119.292C217.51 120.465 218.887 121.823 220.11 123.284C222.681 126.354 224.584 129.985 225.863 133.769C227.4 138.316 228.052 143.098 228.279 147.878C228.396 150.355 228.397 152.837 228.342 155.316C228.314 156.558 228.272 157.799 228.223 159.04C228.179 160.156 227.959 161.373 228.279 162.455C228.463 163.078 229.257 163.002 229.47 162.455C229.804 161.599 229.733 160.647 229.768 159.738C229.81 158.652 229.848 157.567 229.877 156.481C229.929 154.463 229.952 152.446 229.916 150.429Z" fill="#FFD075"/>
<path d="M360.155 14.6409C360.146 12.8499 360.112 10.9659 359.216 9.41591C358.32 7.86591 356.441 7.59891 354.65 7.58891C310.65 7.34091 275.796 8.66591 222.364 8.09291C219.531 8.06291 215.979 9.39091 215.934 12.2239C215.521 37.9559 215.108 63.6879 214.696 89.4189C214.43 89.8649 214.174 90.3169 213.927 90.7649C211.908 94.4149 209.888 98.0639 207.869 101.714C206.641 103.933 203.687 107.458 203.393 110.052C203.036 113.202 205.641 111.467 207.813 110.374C210.878 108.831 213.589 106.661 216.259 104.532C220.036 101.52 223.814 98.5089 227.591 95.4969C268.397 94.9859 310.031 96.5239 350.726 95.7259C353.505 96.4299 357.99 94.9679 358.262 92.4509C358.793 66.6509 360.289 40.4439 360.155 14.6409Z" fill="#D66EC0"/>
<path d="M332.818 39.6742H332.813C333.084 39.0372 332.915 38.3852 332.932 37.7472C332.949 37.0802 332.944 36.4132 332.955 35.7452C332.977 34.4112 333.019 33.0762 333.043 31.7422C333.056 30.9912 333.072 30.2412 333.065 29.4902C333.065 29.4472 332.898 29.4242 332.718 29.4192C332.649 29.4102 332.568 29.4032 332.461 29.4032C320.825 29.3472 274.382 29.2962 262.801 29.3142C256.241 29.3242 249.676 29.3232 243.119 29.3652C242.898 29.3662 242.759 29.3902 242.701 29.4192C242.536 29.4252 242.392 29.4462 242.391 29.4862C242.312 32.1552 242.385 34.8242 242.358 37.4942C242.354 37.8592 242.362 38.2242 242.365 38.5892C242.369 38.9732 242.287 39.3632 242.463 39.7472C242.483 39.7902 242.748 39.7972 242.859 39.7692C242.886 39.7712 242.911 39.7732 242.942 39.7742C245.823 39.8392 272.157 39.9332 277.967 39.9412C289.645 39.9572 301.324 39.9542 313 39.9152C319.606 39.8932 325.143 39.8462 331.749 39.8332C332.309 39.8322 332.745 39.8202 332.818 39.6742Z" fill="white"/>
<path d="M332.818 57.7699H332.813C333.084 57.1329 332.915 56.4809 332.932 55.8429C332.949 55.1759 332.944 54.5089 332.955 53.8409C332.977 52.5069 333.019 51.1719 333.043 49.8379C333.056 49.0869 333.072 48.3369 333.065 47.5859C333.065 47.5429 332.898 47.5199 332.718 47.5149C332.649 47.5059 332.568 47.4989 332.461 47.4989C320.825 47.4429 274.382 47.3919 262.801 47.4099C256.241 47.4199 249.676 47.4189 243.119 47.4609C242.898 47.4619 242.759 47.4859 242.701 47.5159C242.536 47.5219 242.392 47.5429 242.391 47.5829C242.312 50.2519 242.385 52.9219 242.358 55.5909C242.354 55.9559 242.362 56.3209 242.365 56.6859C242.369 57.0699 242.287 57.4599 242.463 57.8439C242.483 57.8869 242.748 57.8949 242.859 57.8659C242.886 57.8679 242.911 57.8699 242.942 57.8709C245.823 57.9359 257.576 57.9769 260.537 57.9879C266.346 58.0099 272.156 58.0299 277.966 58.0379C289.644 58.0539 301.323 58.0509 312.999 58.0119C319.605 57.9899 325.142 57.9439 331.748 57.9299C332.309 57.9279 332.745 57.9159 332.818 57.7699Z" fill="white"/>
<path d="M305.573 75.8666H305.569C305.758 75.2296 305.641 74.5776 305.652 73.9396C305.664 73.2726 305.661 72.6056 305.668 71.9376C305.683 70.6036 305.713 69.2686 305.729 67.9346C305.738 67.1836 305.75 66.4336 305.745 65.6826C305.745 65.6396 305.628 65.6166 305.502 65.6116C305.453 65.6026 305.397 65.5956 305.323 65.5956C297.191 65.5396 264.734 65.4886 256.641 65.5066C252.057 65.5166 247.468 65.5156 242.886 65.5576C242.732 65.5586 242.635 65.5826 242.594 65.6126C242.479 65.6186 242.378 65.6396 242.377 65.6796C242.322 68.3486 242.373 71.0186 242.354 73.6866C242.351 74.0516 242.357 74.4166 242.359 74.7816C242.362 75.1666 242.304 75.5556 242.428 75.9396C242.442 75.9826 242.627 75.9906 242.705 75.9616C242.724 75.9636 242.741 75.9656 242.763 75.9666C244.777 76.0316 252.99 76.0726 255.06 76.0836C259.12 76.1056 263.18 76.1256 267.241 76.1336C275.402 76.1496 283.564 76.1466 291.724 76.1076C296.34 76.0856 300.21 76.0396 304.827 76.0256C305.217 76.0246 305.523 76.0126 305.573 75.8666Z" fill="white"/>
<path d="M168.511 276.016C168.566 272.885 166.901 269.581 163.774 269.49C152.801 269.17 142.32 268.974 131.969 268.84C132.136 268.235 132.273 267.621 132.397 267.02C134.877 255.034 137.358 243.049 139.838 231.063C136.127 231.675 133.659 235.182 131.637 238.378C127.854 244.359 124.071 250.338 120.287 256.319C117.861 260.154 114.467 264.375 111.952 268.642C85.7698 268.439 58.9418 268.375 25.6288 267.434C23.8128 267.383 21.9278 266.997 20.4228 268.043C18.9178 269.089 17.9168 271.694 17.9038 273.512C17.7898 288.686 17.6348 303.861 17.4888 319.035C17.4418 323.98 17.3948 328.924 17.3508 333.869C17.3298 336.278 17.3088 338.687 17.2888 341.096C17.2738 342.893 17.0838 344.694 17.2148 346.49C17.3258 348.007 18.3098 347.86 19.6358 348.011C21.5538 348.23 23.4758 348.419 25.3988 348.589C29.9068 348.987 34.4238 349.283 38.9428 349.531C49.9778 350.137 61.0278 350.46 72.0758 350.688C84.5168 350.945 96.9608 351.062 109.404 351.112C121.7 351.161 133.995 351.141 146.291 351.087C150.603 351.068 154.915 351.046 159.228 351.02C162.688 351.388 166.897 349.454 166.996 345.967C167.659 322.672 168.146 296.891 168.511 276.016Z" fill="#D66EC0"/>
<path d="M149.259 306.896C147.934 310.148 146.609 313.4 145.284 316.652C144.112 312.736 142.941 308.821 141.77 304.905C141.53 304.102 140.155 303.826 139.849 304.905C138.56 309.445 136.926 313.885 134.992 318.24C134.029 313.956 133.064 309.672 132.109 305.386C131.916 304.521 130.581 304.417 130.248 305.386C127.135 314.444 124.469 323.595 122.23 332.817C121.888 330.495 121.523 328.177 121.101 325.876C120.913 324.853 120.703 323.873 120.387 322.907C120.117 322.079 120.18 321.06 119.864 320.265C119.384 317.218 119.124 314.01 118.445 311.039C117.713 307.836 116.948 304.643 116.201 301.444C114.722 295.112 113.247 288.778 111.781 282.441C111.563 281.498 110.067 281.811 109.844 282.655C106.781 294.207 103.742 305.762 100.709 317.318C98.3349 312.941 96.4079 308.403 94.9569 303.698C94.7489 303.022 93.3129 302.845 93.0699 303.698C91.6569 308.644 89.7949 313.502 87.4869 318.264C86.8329 314.716 86.1799 311.167 85.5259 307.619C85.3659 306.752 84.0309 306.946 83.6179 307.619C81.2569 311.469 79.2579 315.419 77.6199 319.459C76.7879 313.006 75.9549 306.554 75.1229 300.101C74.9979 299.133 73.3419 299.467 73.1549 300.318C71.0359 309.951 68.9169 319.584 66.7979 329.217C64.5419 314.989 62.1959 300.777 59.9769 286.543C59.8449 285.695 58.4699 286.013 58.2809 286.73C55.6699 296.599 53.0639 306.468 50.4769 316.34C48.6509 311.696 47.5559 306.865 47.1799 301.885C47.1269 301.187 45.7659 301.236 45.5259 301.885C44.0099 305.993 42.7729 310.14 41.7939 314.316C41.1289 311.09 40.4639 307.864 39.7989 304.637C39.6259 303.8 38.2839 304.087 38.0919 304.825C36.8859 309.463 35.6799 314.101 34.4949 318.741C34.2649 319.641 35.9729 319.628 36.2059 318.741C37.0939 315.352 37.9659 311.961 38.8409 308.57C39.5359 311.919 40.2309 315.268 40.9239 318.618C41.0899 319.42 42.4669 319.192 42.6159 318.431C43.4459 314.199 44.5599 310.002 45.9199 305.835C46.6279 310.46 47.9499 314.949 49.8769 319.276C50.1959 319.992 51.3369 319.513 51.4929 318.923C53.9809 309.565 56.4419 300.204 58.9039 290.844C61.1859 305.466 63.3549 320.108 65.6479 334.728C65.7989 335.69 67.4299 335.37 67.6189 334.511C69.7059 325.02 71.7929 315.529 73.8799 306.038C74.6389 311.917 75.3979 317.795 76.1559 323.674C76.2569 324.455 77.7979 324.449 78.0649 323.674C79.6139 319.179 81.6079 314.794 84.0309 310.524C84.7029 314.173 85.3759 317.823 86.0479 321.472C86.2009 322.303 87.5779 322.188 87.9549 321.472C90.4339 316.76 92.4619 311.946 94.0309 307.042C95.6549 311.594 97.6699 316.014 100.133 320.263C100.579 321.031 101.805 320.586 101.998 319.856C104.926 308.79 107.84 297.723 110.742 286.655C112.777 295.335 114.795 304.019 116.812 312.703C117.771 321.309 119.806 329.68 121.027 338.235C121.19 339.375 122.722 338.986 122.949 337.978C125.121 328.313 127.794 318.724 130.936 309.234C131.848 313.345 132.757 317.456 133.665 321.568C133.88 322.541 135.135 322.467 135.57 321.568C137.619 317.336 139.33 313.01 140.745 308.597C141.872 312.364 142.999 316.13 144.126 319.897C144.389 320.775 145.636 320.905 146.047 319.897C147.741 315.739 149.435 311.58 151.13 307.422C151.626 306.196 149.758 305.671 149.259 306.896Z" fill="white"/>
<path d="M433.453 153.51C433.388 151.242 433.086 148.068 430.829 147.846C406.952 145.493 382.869 145.237 358.948 147.083C357.744 147.176 356.501 147.287 355.441 147.864C354.381 148.442 353.792 149.833 353.783 151.04C353.681 165.902 353.579 180.764 353.478 195.626C353.537 198.386 360.337 198.066 364.914 198.023C364.207 198.733 363.548 199.576 362.792 200.439C361.739 201.64 352.549 215.113 352.556 215.115C354.898 215.603 357.156 214.138 359.097 212.739C363.843 209.318 368.563 205.86 373.256 202.366C374.897 201.144 376.583 199.842 377.79 198.224C394.993 198.527 412.197 198.83 429.4 199.133C430.578 199.154 431.844 199.149 432.808 198.473C433.773 197.798 433.856 167.549 433.453 153.51Z" fill="#FFBB39"/>
<path d="M373.202 169.117C372.923 172.635 372.885 176.171 373.089 179.694C374.412 179.713 375.71 179.729 377.033 179.749C377.247 177.695 377.714 175.594 377.928 173.54C382.211 172.496 385.442 167.597 384.786 163.238C384.13 158.879 379.824 155.391 375.424 155.653C371.023 155.916 367.164 159.891 367.031 164.298C368.635 164.211 370.42 164.292 372.024 164.205C372.15 162.691 372.833 161.164 374.183 160.467C375.533 159.77 377.263 159.853 378.519 160.708C379.775 161.564 380.486 163.169 380.238 164.668C379.999 166.107 378.947 167.323 377.67 168.028C376.392 168.732 374.659 169.057 373.202 169.117Z" fill="white"/>
<path d="M373.56 182.299C373.175 182.6 372.924 183.052 372.811 183.528C372.557 184.595 373.026 185.801 373.945 186.4C374.864 186.998 376.171 186.933 377.012 186.229C377.853 185.526 378.147 184.235 377.674 183.245C377.338 182.542 376.632 182.041 375.87 181.907C375.201 181.791 374.104 181.874 373.56 182.299Z" fill="white"/>
<path d="M419.056 161.705H419.054C419.139 161.415 419.086 161.118 419.092 160.827C419.097 160.523 419.096 160.219 419.099 159.915C419.106 159.307 419.119 158.699 419.127 158.091C419.131 157.749 419.136 157.407 419.134 157.065C419.134 157.045 419.081 157.035 419.025 157.033C419.003 157.029 418.977 157.026 418.944 157.026C415.274 157 400.629 156.977 396.977 156.986C394.908 156.991 392.838 156.99 390.77 157.009C390.7 157.01 390.657 157.02 390.638 157.034C390.586 157.037 390.541 157.046 390.54 157.065C390.515 158.281 390.538 159.498 390.529 160.714C390.528 160.88 390.53 161.047 390.531 161.213C390.532 161.388 390.506 161.566 390.562 161.741C390.568 161.761 390.652 161.764 390.687 161.751C390.695 161.752 390.703 161.753 390.713 161.753C391.622 161.783 399.926 161.825 401.758 161.829C405.44 161.836 409.123 161.835 412.806 161.817C414.889 161.807 416.635 161.786 418.718 161.779C418.895 161.777 419.033 161.771 419.056 161.705Z" fill="white"/>
<path d="M412.751 170.458H412.75C412.816 170.168 412.775 169.871 412.779 169.58C412.783 169.276 412.782 168.972 412.785 168.668C412.79 168.06 412.801 167.452 412.807 166.844C412.81 166.502 412.814 166.16 412.812 165.818C412.812 165.798 412.771 165.788 412.727 165.786C412.71 165.782 412.69 165.779 412.664 165.778C409.806 165.752 398.396 165.729 395.551 165.738C393.94 165.743 392.327 165.742 390.716 165.761C390.662 165.762 390.628 165.773 390.613 165.786C390.572 165.789 390.537 165.798 390.537 165.817C390.517 167.033 390.536 168.25 390.529 169.466C390.528 169.632 390.53 169.799 390.531 169.965C390.532 170.14 390.512 170.318 390.555 170.493C390.56 170.513 390.625 170.516 390.652 170.503C390.659 170.504 390.665 170.505 390.672 170.505C391.38 170.535 397.849 170.577 399.276 170.581C402.145 170.588 405.014 170.587 407.882 170.569C409.505 170.559 410.865 170.538 412.488 170.531C412.626 170.53 412.734 170.525 412.751 170.458Z" fill="white"/>
<path d="M419.056 179.212H419.054C419.139 178.922 419.086 178.625 419.092 178.334C419.097 178.03 419.096 177.726 419.099 177.422C419.106 176.814 419.119 176.206 419.127 175.598C419.131 175.256 419.136 174.914 419.134 174.572C419.134 174.552 419.081 174.542 419.025 174.54C419.003 174.536 418.977 174.533 418.944 174.533C415.274 174.507 400.629 174.484 396.977 174.493C394.908 174.498 392.838 174.497 390.77 174.516C390.7 174.517 390.657 174.528 390.638 174.541C390.586 174.544 390.541 174.553 390.54 174.571C390.515 175.787 390.538 177.004 390.529 178.22C390.528 178.386 390.53 178.552 390.531 178.719C390.532 178.894 390.506 179.072 390.562 179.246C390.568 179.266 390.652 179.269 390.687 179.256C390.695 179.257 390.703 179.258 390.713 179.258C391.622 179.288 399.926 179.33 401.758 179.334C405.44 179.341 409.123 179.34 412.806 179.322C414.889 179.312 416.635 179.291 418.718 179.284C418.895 179.284 419.033 179.279 419.056 179.212Z" fill="white"/>
<path d="M409.68 187.965H409.679C409.736 187.675 409.701 187.378 409.704 187.087C409.708 186.783 409.707 186.479 409.709 186.175C409.714 185.567 409.723 184.959 409.728 184.351C409.731 184.009 409.734 183.667 409.733 183.325C409.733 183.305 409.698 183.295 409.659 183.293C409.644 183.289 409.627 183.286 409.605 183.286C407.141 183.26 397.309 183.237 394.857 183.246C393.468 183.251 392.078 183.25 390.69 183.269C390.643 183.27 390.614 183.281 390.601 183.294C390.566 183.297 390.536 183.306 390.535 183.324C390.518 184.54 390.534 185.757 390.528 186.973C390.527 187.139 390.529 187.306 390.53 187.472C390.531 187.647 390.513 187.825 390.551 188C390.555 188.02 390.611 188.023 390.635 188.01C390.641 188.011 390.646 188.012 390.653 188.012C391.263 188.042 396.838 188.084 398.068 188.088C400.54 188.095 403.013 188.094 405.485 188.076C406.883 188.066 408.056 188.045 409.454 188.038C409.572 188.037 409.665 188.032 409.68 187.965Z" fill="white"/>
<path d="M318.421 118.17C314.986 110.769 306.773 106.548 298.724 107.628C292.55 108.456 287.306 112.712 284.624 118.232C284.581 118.293 284.547 118.359 284.529 118.431C283.802 119.97 283.263 121.599 282.97 123.283C281.985 128.956 283.976 135.229 287.935 139.515C287.845 139.631 289.945 141.556 291.033 142.188C292.42 143.106 295.899 144.223 296.004 144.131C301.778 145.464 308.224 144.138 312.935 140.52C319.626 135.381 321.989 125.858 318.421 118.17ZM315.246 116.395C315.461 116.713 315.661 117.041 315.852 117.374C315.221 117.243 314.576 117.154 313.976 117.028C312.983 116.819 311.968 116.646 310.956 116.495C310.582 114.734 310.085 112.998 309.455 111.308C311.76 112.514 313.782 114.231 315.246 116.395ZM300.821 134.892C298.285 134.876 295.756 134.76 293.228 134.566C292.537 132.273 292.093 129.912 291.963 127.442C294.991 127.478 298.023 127.446 301.037 127.462C301.037 129.939 300.998 132.415 300.908 134.892C300.88 134.891 300.85 134.892 300.821 134.892ZM302.347 126.074C302.41 123.109 302.432 120.123 302.33 117.16C304.711 117.181 307.11 117.303 309.462 117.633C309.613 117.654 309.763 117.677 309.914 117.698C310.434 120.439 310.643 123.236 310.523 126.042C307.799 126.088 305.072 126.061 302.347 126.074ZM310.449 127.383C310.442 127.466 310.442 127.55 310.435 127.633C310.231 129.993 309.788 132.325 309.137 134.6C306.791 134.77 304.439 134.857 302.084 134.873C302.176 132.403 302.247 129.931 302.306 127.46C305.019 127.471 307.737 127.405 310.449 127.383ZM307.762 110.532C308.554 112.409 309.174 114.342 309.629 116.311C307.195 116.009 304.747 115.838 302.296 115.79C302.269 114.649 302.248 113.509 302.2 112.368C302.162 111.471 302.27 110.304 302.11 109.299C304.041 109.401 305.962 109.821 307.762 110.532ZM301.044 126.071C298.001 126.079 294.954 125.998 291.908 125.945C291.908 125.932 291.907 125.919 291.907 125.905C291.906 123.096 292.367 120.344 293.152 117.652C295.738 117.338 298.327 117.176 300.931 117.155C300.993 120.127 301.025 123.098 301.044 126.071ZM300.602 109.285C300.535 110.23 300.727 111.272 300.754 112.146C300.79 113.357 300.847 114.566 300.889 115.776C298.468 115.781 296.035 115.935 293.631 116.223C294.401 114.079 295.424 112.042 296.394 109.981C297.756 109.56 299.172 109.335 300.602 109.285ZM294.957 110.496C293.69 112.263 292.75 114.292 292.055 116.418C290.328 116.651 288.608 116.927 286.932 117.381C288.839 114.354 291.633 111.885 294.957 110.496ZM286.107 118.813C287.945 118.525 289.771 118.163 291.609 117.874C290.913 120.475 290.57 123.174 290.495 125.711C290.493 125.782 290.499 125.855 290.497 125.926C288.406 125.899 286.316 125.888 284.23 125.949C284.318 123.454 284.984 121.018 286.107 118.813ZM290.511 127.421C290.58 129.745 290.937 132.117 291.551 134.419C290.676 134.339 289.802 134.263 288.929 134.167C287.991 134.064 286.959 133.845 285.982 133.885C284.95 131.82 284.318 129.55 284.227 127.122C286.313 127.291 288.41 127.378 290.511 127.421ZM291.945 140.917C289.804 139.292 287.964 137.306 286.615 135.04C287.218 135.163 287.842 135.223 288.42 135.3C289.585 135.455 290.754 135.578 291.924 135.688C292.603 137.848 293.511 139.926 294.668 141.807C293.749 141.551 292.84 141.254 291.945 140.917ZM300.591 142.696C299.232 142.687 297.885 142.526 296.556 142.259C296.552 142.251 296.552 142.243 296.548 142.234C295.368 140.136 294.393 138.007 293.638 135.822C296.028 136.003 298.427 136.115 300.822 136.131C300.835 136.131 300.849 136.13 300.862 136.13C300.811 137.382 300.755 138.635 300.703 139.887C300.667 140.756 300.524 141.762 300.591 142.696ZM306.129 141.876C304.925 142.244 303.684 142.505 302.417 142.627C302.158 142.652 301.899 142.658 301.641 142.671C301.792 141.819 301.776 140.886 301.831 140.109C301.924 138.78 301.985 137.448 302.039 136.116C304.275 136.106 306.512 136.04 308.743 135.887C308.692 136.043 308.652 136.201 308.599 136.356C308.128 137.745 307.571 139.103 306.927 140.42C306.741 140.8 306.39 141.331 306.129 141.876ZM313.971 137.076C312.207 138.932 310.077 140.342 307.753 141.295C307.834 141.12 307.911 140.955 307.976 140.824C308.645 139.478 309.228 138.086 309.726 136.668C309.829 136.376 309.91 136.077 310.005 135.783C311.836 135.634 313.661 135.425 315.48 135.166C315.032 135.838 314.536 136.481 313.971 137.076ZM316.244 133.887C314.303 134.129 312.359 134.329 310.411 134.49C311.039 132.25 311.451 129.947 311.653 127.634C311.661 127.544 311.661 127.453 311.668 127.363C312.763 127.346 313.859 127.327 314.954 127.305C315.882 127.287 317.08 127.455 318.078 127.265C317.925 129.578 317.319 131.85 316.244 133.887ZM315.179 125.977C314.034 126 312.889 126.01 311.744 126.026C311.865 123.302 311.682 120.57 311.218 117.887C312.024 118.007 312.828 118.134 313.631 118.283C314.607 118.464 315.63 118.822 316.639 118.952C317.589 121.124 318.093 123.512 318.116 125.906C317.171 125.759 316.072 125.959 315.179 125.977Z" fill="#7991D1"/>
<path d="M174.451 23.0949C174.028 22.2559 173.523 21.4709 172.973 20.7209C173.487 18.8809 174.189 16.3539 174.246 16.0849C174.336 15.6569 175.471 13.5069 175.297 13.1609C175.123 12.8149 168.352 8.23488 167.852 8.27588C167.461 8.30788 163.487 12.0009 161.773 13.6099C159.481 13.1439 157.139 13.1149 154.856 13.4699C153.535 11.9049 149.677 7.35988 149.295 7.21488C148.833 7.04088 141.825 10.7709 141.342 11.2199C140.859 11.6679 142.204 15.0159 142.452 16.2679C142.579 16.9079 142.867 18.3049 143.14 19.5999C142.784 19.9799 142.442 20.3739 142.116 20.7839C141.105 22.0539 140.291 23.4559 139.654 24.9359C137.249 25.4159 131.368 26.6019 131.145 26.7599C130.865 26.9589 131.091 27.2639 131.123 27.6309C131.155 27.9969 130.833 32.9769 130.773 33.6179C130.714 34.2599 130.655 35.2069 130.636 35.6499C130.622 35.9789 136.008 37.6279 138.788 38.4569C139.257 40.1479 139.934 41.7819 140.845 43.2959C141.089 43.7019 141.356 44.0989 141.639 44.4889C140.737 47.0469 139.058 51.8959 139.194 52.1639C139.378 52.5299 140.143 52.8329 140.143 52.8329C140.143 52.8329 146.049 56.9699 146.324 56.9079C146.599 56.8459 146.66 56.9679 146.934 56.7539C147.18 56.5609 151.347 52.9179 152.284 51.9099C154.691 52.6269 157.191 52.8559 159.586 52.4519C161.354 54.4449 164.8 58.2879 164.997 58.1979C165.263 58.0769 165.995 57.7079 165.995 57.7079C165.995 57.7079 172.952 54.4859 172.95 54.1929C172.947 53.9009 172.854 53.1069 172.854 53.1069L171.235 46.3689C172.855 44.6319 173.996 42.5999 174.778 40.3829C176.241 40.0709 178.011 39.7069 178.681 39.6219C179.699 39.4919 182.947 39.0419 183.149 38.6539C183.35 38.2649 183.38 37.8689 183.38 37.8689L183.658 29.7649L183.479 29.4089C183.479 29.4089 178.061 27.7509 175.816 27.1139C175.529 25.7349 175.102 24.3849 174.451 23.0949ZM164.404 38.2759C162.785 40.3509 160.028 41.6819 157.338 41.6909C155.544 41.9409 153.466 41.1249 152.077 40.1549C150.154 38.8129 148.85 36.7319 148.425 34.4289C147.668 30.3379 149.86 26.2669 153.628 24.5359C157.365 22.8189 161.897 24.0169 164.427 27.2379C166.908 30.3979 166.875 35.1089 164.404 38.2759Z" fill="#4C5980"/>
<path d="M124.202 10.1742C123.835 9.63925 123.416 9.14925 122.97 8.68625C123.151 7.37925 123.397 5.58425 123.411 5.39525C123.433 5.09425 124.01 3.51725 123.859 3.29625C123.708 3.07525 118.649 0.568251 118.311 0.643251C118.046 0.701251 115.669 3.59725 114.645 4.85725C113.033 4.75125 111.427 4.94825 109.898 5.40225C108.849 4.45325 105.787 1.70025 105.512 1.63725C105.18 1.56125 100.729 4.76425 100.44 5.11525C100.151 5.46725 101.382 7.63325 101.668 8.46725C101.814 8.89325 102.141 9.82325 102.448 10.6842C102.239 10.9772 102.042 11.2792 101.857 11.5902C101.283 12.5532 100.856 13.5882 100.557 14.6602C98.9548 15.2122 95.0398 16.5692 94.9018 16.6972C94.7288 16.8592 94.9118 17.0472 94.9678 17.2952C95.0228 17.5432 95.2647 20.9812 95.2837 21.4252C95.3027 21.8702 95.3507 22.5233 95.3787 22.8283C95.3997 23.0553 99.2388 23.6843 101.218 23.9943C101.696 25.1083 102.31 26.1642 103.075 27.1152C103.28 27.3702 103.499 27.6173 103.729 27.8583C103.349 29.6933 102.65 33.1672 102.767 33.3382C102.927 33.5712 103.478 33.7082 103.478 33.7082C103.478 33.7082 107.904 35.9923 108.086 35.9243C108.268 35.8563 108.322 35.9342 108.49 35.7622C108.641 35.6072 111.155 32.7272 111.703 31.9502C113.417 32.2172 115.149 32.1422 116.751 31.6442C118.146 32.8442 120.861 35.1552 120.987 35.0762C121.158 34.9682 121.625 34.6483 121.625 34.6483C121.625 34.6483 126.088 31.7972 126.06 31.5982C126.031 31.3982 125.893 30.8632 125.893 30.8632L124.16 26.4013C125.108 25.0623 125.7 23.5652 126.03 21.9752C127.003 21.6262 128.18 21.2132 128.63 21.0922C129.315 20.9092 131.496 20.2992 131.598 20.0152C131.7 19.7302 131.683 19.4563 131.683 19.4563L131.122 13.8832L130.966 13.6562C130.966 13.6562 127.104 13.0243 125.509 12.7963C125.185 11.8813 124.768 10.9972 124.202 10.1742ZM118.734 21.4962C117.818 23.0662 116.055 24.2332 114.214 24.4892C113.009 24.8262 111.511 24.4603 110.471 23.9263C109.03 23.1863 107.945 21.8823 107.44 20.3453C106.543 17.6153 107.665 14.6262 110.084 13.0922C112.482 11.5712 115.695 11.9702 117.726 13.9402C119.717 15.8712 120.132 19.0992 118.734 21.4962Z" fill="#7991D1"/>
<path d="M415.375 231.416C415.345 231.122 415.317 230.829 415.284 230.535C415.28 230.504 415.211 230.479 415.119 230.457C415.032 230.409 414.803 230.367 414.429 230.354C412.736 230.293 410.912 230.301 409.191 230.286C407.536 230.272 405.88 230.258 404.225 230.246C400.724 230.219 397.222 230.193 393.72 230.17C390.282 230.147 386.844 230.125 383.406 230.105C379.914 230.085 376.377 230.046 372.902 230.075C372.788 230.076 372.695 230.081 372.603 230.085C372.593 230.085 372.582 230.085 372.571 230.085C372.64 232.063 372.684 234.043 372.693 236.022C372.796 236.048 372.957 236.069 373.196 236.075C376.55 236.164 380.026 236.154 383.406 236.172C386.922 236.191 390.439 236.204 393.954 236.22C397.406 236.236 400.859 236.252 404.311 236.267C406.037 236.274 407.763 236.282 409.489 236.289C411.221 236.296 413.067 236.33 414.771 236.295C414.822 236.294 414.859 236.29 414.904 236.288C415.05 236.285 415.185 236.276 415.291 236.262C415.348 235.343 415.371 234.423 415.318 233.513C415.279 232.81 415.321 232.112 415.375 231.416Z" fill="#7991D1"/>
<path d="M396.241 242.958C396.225 242.665 396.21 242.371 396.193 242.078C396.191 242.047 396.153 242.022 396.102 242.001C396.054 241.953 395.928 241.912 395.72 241.899C394.784 241.842 393.775 241.854 392.823 241.843C391.908 241.832 390.992 241.823 390.077 241.814C388.141 241.795 386.204 241.777 384.268 241.761C382.367 241.745 380.465 241.731 378.564 241.719C376.632 241.707 374.677 241.675 372.754 241.712C372.691 241.713 372.64 241.718 372.588 241.723C372.582 241.723 372.576 241.723 372.571 241.723C372.605 243.701 372.625 245.68 372.625 247.659C372.682 247.685 372.771 247.705 372.903 247.711C374.758 247.793 376.68 247.775 378.55 247.785C380.495 247.796 382.439 247.801 384.384 247.809C386.293 247.817 388.203 247.825 390.112 247.832C391.067 247.836 392.021 247.839 392.976 247.843C393.934 247.847 394.955 247.876 395.897 247.837C395.925 247.836 395.945 247.832 395.971 247.83C396.052 247.826 396.127 247.817 396.185 247.803C396.218 246.884 396.233 245.964 396.206 245.054C396.184 244.352 396.209 243.654 396.241 242.958Z" fill="#7991D1"/>
<path d="M407.615 254.656C407.591 254.363 407.568 254.069 407.542 253.775C407.539 253.744 407.483 253.719 407.407 253.698C407.336 253.651 407.148 253.608 406.842 253.595C405.456 253.536 403.963 253.545 402.553 253.532C401.198 253.519 399.842 253.507 398.487 253.496C395.62 253.472 392.753 253.45 389.887 253.429C387.072 253.409 384.257 253.39 381.443 253.373C378.584 253.356 375.688 253.32 372.843 253.352C372.75 253.353 372.674 253.358 372.598 253.362C372.589 253.362 372.581 253.362 372.572 253.362C372.627 255.34 372.661 257.32 372.666 259.299C372.75 259.325 372.882 259.346 373.078 259.352C375.824 259.438 378.67 259.425 381.437 259.44C384.316 259.455 387.195 259.466 390.073 259.478C392.9 259.491 395.726 259.503 398.552 259.515C399.965 259.521 401.378 259.527 402.792 259.533C404.21 259.539 405.722 259.571 407.116 259.534C407.158 259.533 407.188 259.529 407.225 259.527C407.345 259.524 407.455 259.515 407.542 259.501C407.589 258.582 407.609 257.662 407.567 256.752C407.535 256.05 407.57 255.352 407.615 254.656Z" fill="#7991D1"/>
<path d="M153.912 370.419C153.928 370.126 153.943 369.832 153.96 369.539C153.962 369.508 154 369.483 154.051 369.462C154.099 369.414 154.225 369.373 154.433 369.36C155.369 369.303 156.378 369.315 157.33 369.304C158.245 369.293 159.161 369.284 160.076 369.275C162.012 369.256 163.949 369.238 165.885 369.222C167.786 369.206 169.688 369.192 171.589 369.18C173.521 369.168 175.476 369.137 177.398 369.173C177.461 369.174 177.512 369.179 177.564 369.184C177.57 369.184 177.576 369.184 177.582 369.184C177.548 371.162 177.528 373.142 177.528 375.121C177.471 375.147 177.382 375.167 177.25 375.173C175.395 375.255 173.473 375.237 171.603 375.247C169.658 375.258 167.714 375.263 165.769 375.271C163.86 375.279 161.951 375.287 160.041 375.294C159.086 375.298 158.132 375.301 157.177 375.305C156.219 375.309 155.198 375.338 154.256 375.299C154.228 375.298 154.208 375.294 154.182 375.292C154.101 375.288 154.026 375.279 153.968 375.265C153.935 374.346 153.92 373.426 153.947 372.516C153.968 371.814 153.943 371.116 153.912 370.419Z" fill="#7991D1"/>
<path d="M142.537 382.118C142.561 381.824 142.584 381.531 142.61 381.237C142.613 381.206 142.669 381.181 142.745 381.16C142.816 381.112 143.003 381.07 143.31 381.057C144.696 380.998 146.19 381.007 147.599 380.994C148.954 380.981 150.31 380.969 151.665 380.958C154.532 380.934 157.399 380.912 160.266 380.891C163.081 380.871 165.896 380.852 168.71 380.835C171.569 380.818 174.465 380.782 177.31 380.814C177.403 380.815 177.479 380.82 177.555 380.824C177.564 380.824 177.572 380.824 177.581 380.824C177.526 382.802 177.492 384.782 177.487 386.761C177.403 386.787 177.271 386.808 177.075 386.814C174.329 386.9 171.483 386.887 168.716 386.902C165.837 386.917 162.958 386.928 160.08 386.94C157.253 386.953 154.427 386.965 151.6 386.977C150.187 386.983 148.774 386.989 147.36 386.995C145.942 387.001 144.43 387.033 143.035 386.996C142.993 386.995 142.963 386.991 142.926 386.989C142.806 386.986 142.696 386.977 142.609 386.963C142.562 386.044 142.542 385.124 142.584 384.214C142.618 383.512 142.583 382.815 142.537 382.118Z" fill="#7991D1"/>
<path d="M237.085 307.361C236.88 308.76 236.678 310.205 237.041 311.571C237.618 313.743 239.56 315.34 241.674 316.102C243.788 316.865 246.079 316.928 248.326 316.983C251.119 317.051 254.485 316.808 255.817 314.353C256.475 313.14 256.43 311.682 256.367 310.303C256.029 302.881 255.691 295.459 255.354 288.036C255.239 285.517 255.097 282.895 253.878 280.687C252.201 277.65 248.924 276.131 245.76 275.12C244.486 274.713 242.839 273.859 241.855 274.974C240.947 276.004 241.102 279.917 240.896 281.325C239.625 290.004 238.355 298.683 237.085 307.361Z" fill="white"/>
<path d="M271.617 231.178C268.054 230.655 264.416 232.08 261.586 234.308C258.756 236.536 256.616 239.508 254.618 242.505C248.203 252.127 242.834 262.447 238.636 273.223C242.004 277.238 246.745 280.156 251.89 281.152C253.464 281.457 255.211 281.566 256.556 280.694C257.955 279.788 258.554 278.073 259.03 276.477C263.532 261.375 265.308 245.619 271.617 231.178Z" fill="#B345B5"/>
<path d="M269.315 378.92C279.375 383.342 289.887 387.854 300.865 387.362C309.088 386.994 316.91 383.826 324.382 380.372C334.05 375.902 343.451 370.881 352.845 365.863C360.776 361.626 368.849 357.285 375.092 350.814C376.717 349.13 378.298 347.032 378.061 344.703C377.789 342.024 375.238 340.194 372.775 339.107C363.679 335.091 353.243 336.306 343.369 337.479C322.694 339.934 299.567 352.3 280.82 343.245C262.169 334.237 241.387 330.321 220.701 329.257C216.392 329.035 211.87 328.976 208.015 330.915C204.345 332.761 201.71 336.252 200.114 340.037C198.638 343.538 197.951 347.369 198.119 351.165C203.782 352.673 209.547 354.974 215.209 356.482C223.004 358.558 230.81 360.638 238.394 363.388C249.054 367.254 258.934 374.357 269.315 378.92Z" fill="#313B59"/>
<path d="M333.178 240.472C332.635 263.302 331.949 286.395 332.047 309.231C332.071 314.856 332.091 320.529 330.963 326.039C329.835 331.55 327.459 336.958 323.344 340.793C319.352 344.513 313.995 346.501 308.599 347.317C303.204 348.132 297.711 347.861 292.261 347.589C287.409 347.346 282.523 347.098 277.803 345.951C273.083 344.804 268.485 342.687 265.113 339.19C261.32 335.255 259.793 329.555 258.209 324.324C254.589 312.371 251.916 300.575 249.278 288.367C247.957 282.253 249.912 275.959 251.846 270.01C255.418 259.018 257.876 247.457 263.216 237.207C264.504 234.736 266.063 232.032 268.739 231.254C270.659 230.696 272.701 231.282 274.631 231.802C280.839 233.474 287.226 234.476 293.648 234.785C305.426 235.353 317.354 234.432 328.719 237.576C330.508 238.071 333.222 238.617 333.178 240.472Z" fill="#B345B5"/>
<path d="M353.566 286.267C350.691 276.215 347.817 266.163 344.942 256.111C343.892 252.44 342.818 248.713 340.793 245.476C338.768 242.239 335.627 239.499 331.864 238.852C328.987 239.679 326.695 242.149 325.481 244.885C324.266 247.621 323.909 250.652 323.673 253.636C322.829 264.307 323.354 275.076 325.069 285.643C325.313 287.144 325.626 288.735 326.674 289.837C327.873 291.097 329.738 291.414 331.469 291.588C335.34 291.976 339.248 291.993 343.123 291.636C345.248 291.441 347.397 291.124 349.338 290.237C351.278 289.351 352.851 288.278 353.566 286.267Z" fill="#B345B5"/>
<path d="M293.649 234.785C290.093 234.614 286.55 234.222 283.04 233.63C281.627 236.306 280.304 239.064 279.884 242.048C279.407 245.436 280.325 249.232 283.036 251.319C285.254 253.027 288.253 253.32 291.046 253.128C296.801 252.733 302.417 250.517 306.891 246.875C310.597 243.858 313.487 239.866 315.259 235.429C308.108 234.926 300.851 235.132 293.649 234.785Z" fill="white"/>
<path d="M264.934 233.634C261.467 240.465 258.417 247.506 255.836 254.719C254.525 258.381 253.317 262.084 252.266 265.828C251.74 267.701 251.245 269.582 250.781 271.471C250.359 273.189 249.798 275.022 249.731 276.796C249.726 276.936 249.91 276.936 249.956 276.826C250.692 275.061 251.009 273.049 251.488 271.2C251.938 269.462 252.415 267.731 252.917 266.007C253.985 262.343 255.135 258.706 256.414 255.11C258.988 247.875 262.032 240.816 265.507 233.968C265.699 233.589 265.127 233.253 264.934 233.634Z" fill="#EBA7DC"/>
<path d="M237.885 306.949C236.566 309.154 236.541 311.943 237.238 314.416C237.935 316.889 239.284 319.119 240.618 321.314C242.739 324.805 244.86 328.296 246.981 331.786C249.612 336.117 252.257 340.466 255.515 344.347C258.773 348.228 262.694 351.654 267.33 353.7C269.381 354.606 271.877 352.392 272.679 350.298C273.481 348.204 273.115 345.812 272.219 343.756C271.322 341.701 269.936 339.905 268.626 338.086C265.582 333.86 262.88 329.389 260.553 324.73C258.98 321.581 257.574 318.338 255.713 315.35C253.852 312.362 251.482 309.601 248.417 307.87C245.352 306.14 241.14 305.608 237.885 306.949Z" fill="white"/>
<path d="M323.328 263.261C323.351 261.304 323.417 259.346 323.548 257.393C323.679 255.449 324.032 253.494 324.091 251.551C324.101 251.218 323.585 251.144 323.507 251.472C323.053 253.377 322.985 255.443 322.849 257.393C322.713 259.347 322.641 261.303 322.655 263.261C322.684 267.074 322.647 271.293 323.688 274.99C323.706 275.052 323.799 275.039 323.8 274.975C323.836 273.035 323.56 271.069 323.454 269.131C323.347 267.176 323.305 265.218 323.328 263.261Z" fill="#EBA7DC"/>
<path d="M388.092 323.686C388.169 323.95 388.237 324.242 388.122 324.492C388.021 324.712 387.796 324.85 387.567 324.927C386.716 325.209 385.737 324.743 385.253 323.989C384.769 323.235 384.716 322.267 384.913 321.393C385.011 320.96 385.235 319.89 385.599 319.599C386.171 319.14 386.183 319.474 386.595 320.174C387.239 321.27 387.738 322.464 388.092 323.686Z" fill="white"/>
<path d="M375.645 356.087C383.977 331.413 389.469 306.086 397.907 281.449C398.242 280.47 397.469 279.235 396.434 279.255C360.101 279.949 325.393 281.272 287.42 280.133C286.486 280.105 285.653 280.443 285.399 281.342C277.851 308.056 269.879 334.651 261.488 361.113C300.455 361.187 337.107 359.108 375.645 356.087Z" fill="#A1B0BA"/>
<path d="M286.533 283.23C286.787 282.331 287.62 281.993 288.554 282.021C326.527 283.16 361.235 281.836 397.568 281.143C397.703 281.141 397.833 281.161 397.957 281.198C398.101 280.271 397.383 279.236 396.434 279.254C360.101 279.948 325.393 281.271 287.42 280.132C286.486 280.104 285.653 280.442 285.399 281.341C277.851 308.055 269.879 334.65 261.488 361.111C262.068 361.112 262.636 361.102 263.215 361.103C271.387 335.267 279.165 309.307 286.533 283.23Z" fill="#BFCAD4"/>
<path d="M327.99 315.963C326.592 318.629 326.586 322.178 328.579 324.434C330.317 326.401 333.291 327.02 335.805 326.264C338.319 325.508 340.356 323.543 341.582 321.222C342.93 318.669 343.336 315.454 341.959 312.916C338.487 306.515 330.419 311.329 327.99 315.963Z" fill="white"/>
<path d="M378.293 332.873C378.337 330.455 378.618 328.041 379.13 325.677C379.37 324.57 380.221 323.479 381.148 322.828C382.075 322.177 383.188 321.833 384.309 321.666C385.336 321.513 386.482 321.532 387.285 322.191C387.894 322.69 388.199 323.486 388.269 324.27C388.339 325.054 388.201 325.841 388.064 326.616C387.823 327.973 387.562 329.381 386.756 330.498C385.878 331.715 384.466 332.428 383.052 332.93C381.638 333.432 380.158 333.775 378.83 334.474C378.448 333.845 378.28 333.61 378.293 332.873Z" fill="white"/>
<path d="M290.507 380.676C293.577 380.514 296.6 379.523 299.169 377.835C301.881 376.053 305.7 377.509 307.768 380.01C313.418 386.843 320.114 392.438 327.321 397.603C329.433 399.117 331.632 400.577 333.293 402.575C334.954 404.573 336.027 407.247 335.45 409.781C334.042 415.962 324.379 416.405 318.508 414.014C313.987 412.173 310.662 408.302 306.727 405.413C301.604 401.653 295.432 399.567 289.211 398.268C289.042 392.538 289.837 386.368 290.507 380.676Z" fill="#EB9921"/>
<path d="M327.321 397.603C320.115 392.437 313.418 386.843 307.768 380.01C305.722 377.536 301.965 376.09 299.259 377.784C301.69 378.596 303.762 379.79 305.651 381.857C308.123 384.562 309.923 387.822 312.369 390.551C315.182 393.689 318.756 396.025 322.251 398.379C323.671 399.335 325.091 400.312 326.455 401.352C322.763 403.575 319.982 407.315 319.03 411.527C318.841 412.363 318.74 413.249 318.775 414.112C324.667 416.386 334.062 415.872 335.449 409.782C336.026 407.249 334.953 404.574 333.292 402.576C331.632 400.578 329.432 399.117 327.321 397.603Z" fill="#FFD075"/>
<path d="M289.492 398.384C292.927 394.259 293.91 386.339 292.709 381.023C282.117 371.746 271.661 366.453 260.214 357.974C246.769 348.016 232.764 337.554 216.757 332.682C213.961 331.831 210.985 331.088 208.146 331.782C204.966 332.559 202.446 335.055 200.771 337.867C198.005 342.508 197.174 348.262 198.514 353.496C202.268 368.157 221.223 374.35 234.898 380.835C248.572 387.32 261.713 391.894 276.191 396.301C279.24 397.229 282.316 398.163 285.491 398.444C286.817 398.561 288.167 398.547 289.492 398.384Z" fill="#313B59"/>
<path d="M312.935 401.815C311.932 402.605 311.139 403.774 310.61 404.928C310.343 405.51 310.12 406.112 309.956 406.73C309.873 407.045 309.804 407.364 309.75 407.685C309.693 408.029 309.568 408.41 309.842 408.685C309.956 408.799 310.16 408.834 310.299 408.744C310.603 408.548 310.579 408.25 310.632 407.928C310.68 407.64 310.74 407.355 310.812 407.072C310.963 406.479 311.164 405.897 311.422 405.342C311.945 404.215 312.646 403.261 313.42 402.299C313.699 401.953 313.282 401.541 312.935 401.815Z" fill="white"/>
<path d="M308.819 399.187C308.797 399.087 308.687 399.039 308.594 399.059C308.359 399.109 308.215 399.34 308.092 399.532C307.938 399.771 307.797 400.02 307.661 400.269C307.382 400.78 307.136 401.308 306.916 401.848C306.701 402.377 306.518 402.916 306.374 403.469C306.303 403.745 306.239 404.022 306.184 404.302C306.128 404.583 306.028 404.913 306.065 405.198C306.105 405.509 306.592 405.771 306.757 405.385C306.869 405.124 306.887 404.844 306.938 404.565C306.989 404.285 307.049 404.006 307.117 403.729C307.248 403.194 307.404 402.663 307.586 402.143C307.77 401.617 307.985 401.103 308.231 400.602C308.357 400.346 308.496 400.098 308.63 399.846C308.741 399.639 308.873 399.426 308.819 399.187Z" fill="white"/>
<path d="M305.01 397.297C304.552 397.488 304.227 398.023 303.937 398.414C303.586 398.888 303.33 399.416 303.101 399.958C302.879 400.484 302.693 401.024 302.554 401.578C302.419 402.114 302.22 402.78 302.32 403.331C302.396 403.747 302.948 403.651 303.07 403.331C303.161 403.092 303.156 402.816 303.194 402.563C303.233 402.305 303.283 402.049 303.341 401.795C303.461 401.272 303.621 400.757 303.817 400.257C304.008 399.772 304.254 399.312 304.48 398.843C304.593 398.609 304.715 398.378 304.845 398.152C304.978 397.922 305.132 397.728 305.18 397.464C305.195 397.377 305.116 397.253 305.01 397.297Z" fill="white"/>
<path d="M259.366 357.116C246.798 346.963 232.61 338.171 217.472 332.417C217.208 332.317 217.017 332.762 217.278 332.877C224.633 336.133 231.866 339.588 238.795 343.687C245.811 347.838 252.513 352.505 258.849 357.634C259.212 357.928 259.733 357.412 259.366 357.116Z" fill="#7991D1"/>
<path d="M291.222 379.148C287.122 375.945 282.939 372.835 278.632 369.914C276.491 368.462 274.326 367.047 272.14 365.665C269.997 364.309 267.763 362.696 265.401 361.755C265.285 361.709 265.185 361.887 265.279 361.965C267.121 363.511 269.396 364.695 271.418 365.997C273.594 367.398 275.748 368.833 277.879 370.301C282.241 373.307 286.536 376.4 290.721 379.649C291.076 379.926 291.582 379.429 291.222 379.148Z" fill="#7991D1"/>
<path d="M303.478 386.665C299.601 386.667 295.725 386.03 292.053 384.79C289.979 384.089 287.553 383.97 285.536 384.821C283.519 385.672 281.823 387.133 280.263 388.668C278.702 390.204 277.231 391.845 275.491 393.173C273.287 394.857 270.72 395.987 268.197 397.14C265.675 398.293 263.135 399.508 261.038 401.324C258.941 403.14 257.306 405.654 257.128 408.422C257.078 409.195 257.443 409.935 257.87 410.581C259.91 413.671 264.713 413.377 268.399 413.023C272.084 412.669 275.596 411.277 278.894 409.594C282.192 407.911 285.329 405.925 288.636 404.261C293.322 401.903 298.338 400.203 303.492 399.226C303.304 395.196 303.666 390.694 303.478 386.665Z" fill="#EB9921"/>
<path d="M318.466 399.539C330.619 398.928 341.682 394.815 352.922 390.152C364.162 385.489 374.774 379.444 385.152 373.091C391.059 369.475 396.966 365.711 401.199 360.229C404.617 355.803 407.754 351.032 410.156 345.982C411.665 342.809 411.383 339.018 410.176 335.719C408.968 332.42 408.16 328.644 405.038 327.032C401.218 325.059 396.611 323.252 392.663 324.956C375.929 332.18 361.999 344.484 348.217 356.411C334.434 368.339 320.117 380.311 303.027 386.647C301.156 389.986 301.544 396.1 303.226 399.538C308.337 400.435 313.284 399.799 318.466 399.539Z" fill="#313B59"/>
<path d="M382.037 329.848C362.473 341.4 347.086 358.446 328.834 371.768C323.708 375.51 318.338 378.907 312.728 381.877C312.44 382.03 312.693 382.453 312.982 382.312C333.271 372.38 348.931 355.352 366.527 341.604C371.621 337.624 376.909 333.89 382.487 330.619C382.983 330.328 382.533 329.555 382.037 329.848Z" fill="#7991D1"/>
<path d="M275.746 396.135C279.435 393.704 282.47 390.454 285.905 387.703C286.475 387.246 289.002 385.779 290.352 384.366C288.728 384.096 287.022 384.193 285.536 384.819C283.519 385.67 281.823 387.131 280.263 388.666C278.702 390.202 277.231 391.843 275.491 393.171C273.287 394.854 270.72 395.985 268.197 397.138C265.675 398.291 263.135 399.506 261.038 401.322C258.941 403.138 257.306 405.652 257.128 408.42C257.078 409.193 257.443 409.933 257.87 410.579C259.91 413.669 264.713 413.375 268.399 413.021C268.439 413.017 268.478 413.009 268.518 413.005C268.869 409.633 268.243 406.11 266.042 403.585C265.637 403.12 265.187 402.701 264.704 402.323C265.569 401.732 266.469 401.188 267.382 400.684C270.161 399.15 273.094 397.883 275.746 396.135Z" fill="#FFD075"/>
<path d="M278.663 405.974C278.483 405.287 278.229 404.628 277.927 403.986C277.666 403.431 277.379 402.639 276.833 402.317C276.682 402.228 276.462 402.34 276.472 402.524C276.504 403.136 276.96 403.73 277.185 404.299C277.431 404.92 277.634 405.565 277.807 406.21C278.157 407.517 278.295 408.862 278.236 410.214C278.211 410.774 279.078 410.771 279.105 410.214C279.173 408.79 279.025 407.354 278.663 405.974Z" fill="white"/>
<path d="M283.411 404.176C283.077 403.016 282.581 401.862 281.757 400.968C281.6 400.798 281.359 401.014 281.452 401.204C281.963 402.249 282.486 403.277 282.769 404.413C283.049 405.537 283.143 406.694 283.045 407.848C283.005 408.317 283.742 408.317 283.777 407.848C283.871 406.614 283.754 405.365 283.411 404.176Z" fill="white"/>
<path d="M288.832 403.818C288.797 403.248 288.711 402.675 288.542 402.128C288.379 401.6 288.162 401.086 287.896 400.602C287.764 400.363 287.623 400.123 287.459 399.904C287.32 399.72 287.116 399.468 286.879 399.424C286.78 399.406 286.698 399.465 286.691 399.567C286.676 399.787 286.827 400.019 286.927 400.207C287.042 400.424 287.173 400.632 287.282 400.854C287.513 401.324 287.688 401.82 287.813 402.328C287.933 402.817 288.025 403.313 288.055 403.816C288.07 404.061 288.073 404.308 288.064 404.553C288.053 404.832 287.987 405.101 288.123 405.358C288.216 405.533 288.492 405.573 288.626 405.423C288.825 405.2 288.823 404.931 288.837 404.645C288.85 404.371 288.849 404.094 288.832 403.818Z" fill="white"/>
<path d="M288.766 226.956C288.656 230.627 287.936 234.279 286.645 237.717C291.076 240.17 296.44 240.519 301.466 239.898C303.085 239.698 304.714 239.429 306.217 238.796C307.72 238.163 309.103 237.13 309.888 235.701C308.583 231.778 308.064 227.511 308.093 223.377C301.904 225.554 295.318 226.609 288.766 226.956Z" fill="white"/>
<path d="M324.897 157.005C330.911 158.872 335.502 164.203 337.331 170.229C339.16 176.255 338.456 182.853 336.272 188.76C335.533 190.759 334.615 192.904 335.23 194.945C335.85 197.002 337.861 198.332 338.807 200.261C340.396 203.499 338.625 207.31 336.855 210.453C335.085 213.596 333.24 217.341 334.704 220.637C335.279 221.931 336.305 222.964 337.071 224.154C337.837 225.345 338.339 226.885 337.731 228.164C337.247 229.182 336.178 229.783 335.131 230.2C328.707 232.758 320.661 230.279 316.79 224.55C313.646 219.897 313.296 213.922 313.619 208.315C313.942 202.708 314.827 197.035 313.768 191.52C312.828 186.622 310.409 182.154 308.677 177.477C306.721 172.195 305.234 165.234 309.593 160.796C313.503 156.815 319.565 155.35 324.897 157.005Z" fill="#313B59"/>
<path d="M285.568 202.982C282.129 209.706 277.044 215.58 270.882 219.946C269.588 220.863 268.162 221.743 266.578 221.808C269.732 218.531 272.895 215.242 275.594 211.581C278.293 207.92 280.53 203.854 281.622 199.439C282.664 199.182 283.914 199.049 284.676 199.805C285.438 200.561 286.057 202.026 285.568 202.982Z" fill="#313B59"/>
<path d="M317.831 207.51C316.901 213.528 314.302 219.28 310.402 223.956C309.626 224.887 308.79 225.312 307.673 225.783C300.706 228.722 293.19 230.355 285.631 230.572C285.147 230.375 284.522 229.925 284.22 229.498C281.712 225.954 278.595 222.488 276.725 218.57C274.855 214.651 273.919 210.129 275.008 205.926C276.084 201.773 276.602 197.335 276.487 193.047C276.381 189.073 280.177 185.983 283.345 183.582C286.513 181.18 290.271 179.615 294.158 178.778C299.648 177.596 305.784 177.971 310.305 181.303C314.128 184.121 316.325 188.72 317.203 193.388C318.081 198.053 318.557 202.816 317.831 207.51Z" fill="white"/>
<path d="M305.264 226.252C302.298 226.536 299.31 227.852 296.386 228.509C293.146 229.238 289.885 229.877 286.633 230.547C286.59 230.556 286.601 230.622 286.643 230.622C289.881 230.61 293.047 230.269 296.207 229.573C299.172 228.92 302.802 228.338 305.387 226.706C305.576 226.587 305.519 226.228 305.264 226.252Z" fill="#BFCAD4"/>
<path d="M302.501 200.225C302.364 199.458 301.654 198.937 300.964 198.574C298.703 197.384 296.007 197.039 293.503 197.55C293.408 197.707 293.313 197.864 293.218 198.021C296.178 197.218 299.465 197.94 301.906 199.798C302.099 199.945 302.313 200.071 302.501 200.225Z" fill="#4C5980"/>
<path d="M286.974 196.527C286.378 195.406 285.398 194.493 284.237 193.977C283.076 193.461 281.742 193.346 280.51 193.655C280.67 193.488 280.799 193.343 281.023 193.289C283.222 192.762 285.702 193.737 286.953 195.621C287.12 195.869 287.029 196.234 286.974 196.527Z" fill="#4C5980"/>
<path d="M276.524 194.492C276.16 187.553 276.851 180.327 280.036 174.152C283.222 167.977 288.63 162.817 295.24 160.672C302.21 158.41 312.122 159.726 318.083 163.989C324.044 168.252 327.86 175.328 328.29 182.644C328.965 194.135 325.442 206.251 316.907 213.975C316.979 212.176 316.568 210.394 315.606 208.873C304.793 205.064 295.051 197.81 288.481 188.414C285.088 191.367 280.94 193.636 276.524 194.492Z" fill="#313B59"/>
<path d="M316.386 210.277C317.212 209.812 318.054 209.34 318.981 209.146C319.909 208.952 320.952 209.077 321.667 209.698C322.611 210.519 322.735 211.955 322.485 213.18C322.008 215.517 320.442 217.528 318.524 218.946C316.606 220.364 314.349 221.247 312.077 221.974C313.388 217.989 314.748 214.139 316.386 210.277Z" fill="white"/>
<path d="M318.616 208.921C316.634 216.208 312.866 223.003 307.734 228.543C306.656 229.707 305.442 230.861 303.905 231.25C306.317 227.394 308.737 223.525 310.625 219.388C312.513 215.251 313.866 210.811 314.027 206.266C314.994 205.8 316.19 205.412 317.091 205.996C317.991 206.58 318.898 207.886 318.616 208.921Z" fill="#313B59"/>
<path d="M321.89 167.536C320.516 165.985 318.953 164.602 317.247 163.424C315.557 162.258 313.604 161.131 311.563 160.744C311.429 160.719 311.335 160.9 311.466 160.974C313.206 161.95 315.022 162.749 316.682 163.875C318.384 165.03 319.935 166.403 321.304 167.937C324.116 171.089 325.81 174.727 326.925 178.762C327.048 179.208 327.691 179.017 327.609 178.573C326.861 174.512 324.601 170.597 321.89 167.536Z" fill="#4C5980"/>
<path d="M328.5 181.243C328.463 180.9 327.936 180.883 327.951 181.243C328.144 185.966 327.901 190.621 326.812 195.237C326.293 197.438 325.606 199.59 324.788 201.697C324.339 202.852 323.855 203.991 323.318 205.109C322.858 206.067 322.231 207.006 322.013 208.055C321.99 208.168 322.117 208.244 322.204 208.166C323.701 206.818 324.517 204.315 325.274 202.486C326.218 200.206 326.943 197.829 327.492 195.425C328.545 190.814 329.002 185.956 328.5 181.243Z" fill="#4C5980"/>
<path d="M310.422 200.891C309.796 200.372 309.021 200.078 308.298 199.718C307.546 199.343 306.806 198.946 306.079 198.527C304.585 197.667 303.144 196.716 301.766 195.68C300.375 194.634 299.064 193.493 297.805 192.292C297.165 191.681 296.53 191.069 295.92 190.428C295.372 189.852 294.885 189.163 294.228 188.71C294.112 188.63 294.013 188.78 294.056 188.882C294.371 189.623 294.994 190.23 295.516 190.832C296.095 191.499 296.69 192.158 297.319 192.778C298.566 194.008 299.914 195.142 301.309 196.201C302.718 197.27 304.193 198.251 305.723 199.135C307.083 199.921 308.698 201.02 310.283 201.224C310.449 201.244 310.546 200.994 310.422 200.891Z" fill="#4C5980"/>
<path d="M305.117 193.951C305.049 193.718 304.858 193.606 304.673 193.466C304.509 193.342 304.346 193.218 304.182 193.094C303.835 192.831 303.487 192.568 303.14 192.305C302.804 192.051 302.476 191.776 302.126 191.543C301.765 191.303 301.397 191.074 301.033 190.84C300.901 190.755 300.755 190.948 300.867 191.056C301.17 191.35 301.471 191.644 301.774 191.937C302.086 192.238 302.441 192.503 302.774 192.78C303.099 193.051 303.425 193.322 303.75 193.593C303.908 193.724 304.065 193.856 304.223 193.987C304.413 194.146 304.571 194.313 304.83 194.328C305.023 194.338 305.168 194.129 305.117 193.951Z" fill="#4C5980"/>
<path d="M292.036 220.162C292.027 219.96 291.845 219.651 291.657 219.726C289.125 220.739 286.135 220.53 283.769 219.174C283.503 219.219 283.329 219.504 283.439 219.75C283.976 220.951 284.739 222.066 285.875 222.73C287.011 223.394 288.417 223.572 289.671 223.175C291.954 222.453 292.08 221.13 292.036 220.162Z" fill="#4C5980"/>
<path d="M284.973 213.902C284.937 213.696 285.076 213.491 285.257 213.384C285.437 213.277 285.651 213.248 285.859 213.221C286.605 213.123 287.342 213.688 287.934 214.152C287.206 214.305 285.009 214.108 284.973 213.902Z" fill="#4C5980"/>
<path d="M293.263 205.899C293.135 205.412 293.254 204.899 293.372 204.409C293.482 203.954 293.593 203.499 293.703 203.043C293.842 202.468 294.051 201.811 294.602 201.596C295.168 201.376 295.828 201.788 296.07 202.345C296.312 202.902 296.234 203.544 296.092 204.135C295.939 204.77 295.715 205.388 295.427 205.975C295.318 206.196 295.196 206.419 295.008 206.579C294.4 207.101 293.446 206.593 293.263 205.899Z" fill="#313B59"/>
<path d="M281.999 203.089C281.871 202.602 281.99 202.089 282.108 201.599C282.218 201.144 282.329 200.689 282.439 200.234C282.579 199.659 282.787 199.002 283.338 198.787C283.904 198.567 284.564 198.979 284.807 199.536C285.049 200.093 284.971 200.735 284.829 201.326C284.675 201.961 284.452 202.58 284.163 203.166C284.054 203.387 283.932 203.61 283.744 203.77C283.135 204.291 282.181 203.783 281.999 203.089Z" fill="#313B59"/>
<path d="M298.42 202.543C298.387 202.5 298.339 202.462 298.284 202.449C298.22 202.434 298.137 202.434 298.082 202.476C298.02 202.522 297.962 202.573 297.903 202.623C297.862 202.658 297.815 202.691 297.778 202.73C297.755 202.753 297.736 202.781 297.716 202.808C297.381 202.133 296.765 201.587 296.048 201.362C295.631 201.231 295.185 201.206 294.753 201.268C294.529 201.3 294.307 201.355 294.098 201.441C293.894 201.525 293.746 201.713 293.613 201.884C293.593 201.91 293.61 201.95 293.646 201.941C293.83 201.895 294.028 201.894 294.207 201.839C294.384 201.785 294.554 201.726 294.738 201.697C295.125 201.635 295.526 201.667 295.899 201.788C296.602 202.015 297.12 202.513 297.464 203.154C297.484 203.191 297.518 203.208 297.551 203.222L297.552 203.224C297.554 203.227 297.557 203.226 297.56 203.229C297.567 203.232 297.571 203.239 297.579 203.24C297.634 203.289 297.705 203.3 297.774 203.268C297.827 203.243 297.881 203.219 297.934 203.194C297.983 203.171 298.037 203.152 298.083 203.124C298.129 203.096 298.172 203.058 298.215 203.026C298.277 202.98 298.341 202.936 298.4 202.886C298.447 202.847 298.48 202.76 298.477 202.7C298.473 202.643 298.456 202.59 298.42 202.543Z" fill="#313B59"/>
<path d="M286.197 200.323C286.122 200.147 286.018 199.98 285.903 199.827C285.677 199.526 285.393 199.268 285.066 199.079C284.703 198.87 284.301 198.761 283.886 198.722C283.683 198.703 283.481 198.707 283.279 198.732C283.111 198.753 282.966 198.806 282.821 198.872C282.799 198.83 282.775 198.787 282.756 198.744C282.753 198.737 282.75 198.73 282.747 198.723C282.74 198.705 282.733 198.687 282.726 198.669C282.713 198.636 282.702 198.603 282.691 198.569C282.68 198.535 282.669 198.501 282.657 198.468C282.637 198.415 282.607 198.37 282.579 198.322C282.537 198.251 282.505 198.17 282.451 198.107C282.37 198.011 282.2 198.065 282.173 198.181C282.153 198.265 282.168 198.36 282.177 198.446C282.183 198.501 282.185 198.557 282.201 198.61C282.216 198.659 282.245 198.709 282.269 198.755C282.349 198.908 282.446 199.049 282.553 199.184C282.576 199.214 282.627 199.232 282.669 199.236C282.705 199.258 282.747 199.269 282.796 199.257C283.139 199.17 283.504 199.088 283.859 199.092C284.228 199.095 284.601 199.199 284.924 199.375C285.212 199.532 285.466 199.747 285.671 200.004C285.773 200.132 285.859 200.27 285.937 200.413C286.019 200.565 286.129 200.699 286.212 200.851C286.228 200.881 286.277 200.868 286.276 200.834C286.27 200.668 286.263 200.479 286.197 200.323Z" fill="#313B59"/>
</svg>
