<svg width="472" height="438" viewBox="0 0 472 438" fill="none" xmlns="http://www.w3.org/2000/svg">
<path d="M388.417 385.114C329.155 436.077 225.617 446.435 162.956 396.719C132.6 367.846 133.289 323.775 130.277 284.924C124.407 257.544 117.687 230.514 97.827 209.714C51.769 171.114 19.703 132.856 53.94 72.3423C125.069 -25.8227 300.048 -17.7247 380.455 65.4463C450.208 149.684 469.851 302.53 388.417 385.114Z" fill="#EABBFA"/>
<path d="M158.302 135.743C158.14 135.743 157.991 135.656 157.91 135.517L153.64 128.125C153.559 127.985 153.559 127.812 153.64 127.672L157.91 120.281C157.99 120.141 158.14 120.055 158.302 120.055C158.464 120.055 158.613 120.141 158.694 120.28L162.974 127.671C163.055 127.812 163.055 127.985 162.974 128.125L158.694 135.517C158.613 135.657 158.463 135.743 158.302 135.743ZM154.554 127.898L158.303 134.386L162.059 127.898L158.303 121.411L154.554 127.898Z" fill="#25292B"/>
<path d="M146.427 126.886C145.005 126.886 143.848 125.729 143.848 124.307C143.848 122.885 145.005 121.729 146.427 121.729C147.849 121.729 149.005 122.885 149.005 124.307C149.005 125.729 147.849 126.886 146.427 126.886ZM146.427 122.634C145.504 122.634 144.753 123.385 144.753 124.307C144.753 125.23 145.504 125.981 146.427 125.981C147.349 125.981 148.1 125.23 148.1 124.307C148.1 123.385 147.349 122.634 146.427 122.634Z" fill="#25292B"/>
<path d="M154.031 117.401C152.789 117.401 151.778 116.39 151.778 115.148C151.778 113.907 152.789 112.896 154.031 112.896C155.273 112.896 156.284 113.907 156.284 115.148C156.284 116.391 155.274 117.401 154.031 117.401ZM154.031 113.802C153.288 113.802 152.684 114.406 152.684 115.149C152.684 115.892 153.289 116.496 154.031 116.496C154.774 116.496 155.378 115.891 155.378 115.149C155.379 114.406 154.774 113.802 154.031 113.802Z" fill="#25292B"/>
<path d="M144.301 118.439C143.382 118.439 142.634 117.691 142.634 116.772C142.634 115.853 143.382 115.104 144.301 115.104C145.22 115.104 145.968 115.853 145.968 116.772C145.968 117.691 145.22 118.439 144.301 118.439ZM144.301 116.009C143.881 116.009 143.539 116.351 143.539 116.772C143.539 117.192 143.881 117.534 144.301 117.534C144.721 117.534 145.063 117.192 145.063 116.772C145.063 116.351 144.721 116.009 144.301 116.009Z" fill="#25292B"/>
<path d="M323.508 103.287C323.346 103.287 323.197 103.201 323.116 103.061L319.849 97.4053C319.768 97.2653 319.768 97.0923 319.849 96.9523L323.116 91.2963C323.196 91.1563 323.346 91.0703 323.508 91.0703C323.67 91.0703 323.819 91.1563 323.9 91.2963L327.175 96.9523C327.256 97.0923 327.256 97.2653 327.175 97.4063L323.9 103.062C323.819 103.2 323.67 103.287 323.508 103.287ZM320.764 97.1783L323.509 101.93L326.259 97.1783L323.509 92.4263L320.764 97.1783Z" fill="#25292B"/>
<path d="M315.778 94.7967C314.356 94.7967 313.199 93.6397 313.199 92.2177C313.199 90.7957 314.356 89.6387 315.778 89.6387C317.2 89.6387 318.356 90.7957 318.356 92.2177C318.356 93.6397 317.2 94.7967 315.778 94.7967ZM315.778 90.5447C314.855 90.5447 314.104 91.2957 314.104 92.2187C314.104 93.1417 314.855 93.8917 315.778 93.8917C316.7 93.8917 317.451 93.1407 317.451 92.2187C317.451 91.2957 316.7 90.5447 315.778 90.5447Z" fill="#25292B"/>
<path d="M323.382 88.4181C322.14 88.4181 321.129 87.4071 321.129 86.1651C321.129 84.9231 322.14 83.9131 323.382 83.9131C324.624 83.9131 325.635 84.9241 325.635 86.1651C325.635 87.4081 324.625 88.4181 323.382 88.4181ZM323.382 84.8181C322.639 84.8181 322.035 85.4221 322.035 86.1651C322.035 86.9081 322.64 87.5121 323.382 87.5121C324.125 87.5121 324.729 86.9081 324.729 86.1651C324.73 85.4231 324.125 84.8181 323.382 84.8181Z" fill="#25292B"/>
<path d="M315.778 86.0332C314.859 86.0332 314.111 85.2852 314.111 84.3662C314.111 83.4472 314.859 82.6982 315.778 82.6982C316.697 82.6982 317.445 83.4462 317.445 84.3662C317.445 85.2862 316.698 86.0332 315.778 86.0332ZM315.778 83.6032C315.358 83.6032 315.016 83.9452 315.016 84.3662C315.016 84.7872 315.358 85.1282 315.778 85.1282C316.198 85.1282 316.54 84.7862 316.54 84.3662C316.54 83.9462 316.198 83.6032 315.778 83.6032Z" fill="#25292B"/>
<path d="M391.716 310.297C391.554 310.297 391.405 310.21 391.324 310.071L387.054 302.679C386.973 302.539 386.973 302.366 387.054 302.226L391.324 294.835C391.405 294.695 391.554 294.609 391.716 294.609C391.877 294.609 392.027 294.695 392.108 294.834L396.388 302.225C396.469 302.366 396.469 302.539 396.388 302.679L392.108 310.071C392.027 310.212 391.878 310.297 391.716 310.297ZM387.969 302.453L391.717 308.941L395.473 302.453L391.717 295.966L387.969 302.453Z" fill="#25292B"/>
<path d="M402.19 314.479C400.768 314.479 399.611 313.323 399.611 311.901C399.611 310.479 400.768 309.322 402.19 309.322C403.612 309.322 404.769 310.479 404.769 311.901C404.769 313.323 403.612 314.479 402.19 314.479ZM402.19 310.227C401.267 310.227 400.516 310.978 400.516 311.901C400.516 312.823 401.267 313.574 402.19 313.574C403.113 313.574 403.863 312.823 403.863 311.901C403.863 310.978 403.113 310.227 402.19 310.227Z" fill="#25292B"/>
<path d="M387.679 291.956C386.437 291.956 385.427 290.945 385.427 289.704C385.427 288.462 386.438 287.451 387.679 287.451C388.921 287.451 389.932 288.462 389.932 289.704C389.932 290.946 388.921 291.956 387.679 291.956ZM387.679 288.357C386.936 288.357 386.332 288.962 386.332 289.704C386.332 290.446 386.936 291.05 387.679 291.05C388.422 291.05 389.026 290.446 389.026 289.704C389.026 288.962 388.422 288.357 387.679 288.357Z" fill="#25292B"/>
<path d="M400.522 300.449C399.603 300.449 398.855 299.701 398.855 298.782C398.855 297.863 399.603 297.115 400.522 297.115C401.441 297.115 402.19 297.863 402.19 298.782C402.19 299.701 401.442 300.449 400.522 300.449ZM400.522 298.02C400.102 298.02 399.76 298.362 399.76 298.782C399.76 299.202 400.102 299.544 400.522 299.544C400.942 299.544 401.285 299.202 401.285 298.782C401.285 298.362 400.943 298.02 400.522 298.02Z" fill="#25292B"/>
<path d="M401.035 291.957C400.873 291.957 400.724 291.87 400.643 291.731L397.961 287.089C397.88 286.949 397.88 286.776 397.961 286.636L400.643 281.994C400.724 281.854 400.873 281.768 401.035 281.768C401.196 281.768 401.346 281.854 401.427 281.993L404.115 286.635C404.196 286.776 404.196 286.949 404.115 287.089L401.427 291.731C401.346 291.872 401.196 291.957 401.035 291.957ZM398.876 286.863L401.035 290.6L403.199 286.863L401.035 283.125L398.876 286.863Z" fill="#25292B"/>
<path d="M377.82 309.337C376.901 309.337 376.153 308.589 376.153 307.67C376.153 306.751 376.901 306.003 377.82 306.003C378.739 306.003 379.488 306.751 379.488 307.67C379.488 308.589 378.739 309.337 377.82 309.337ZM377.82 306.908C377.4 306.908 377.058 307.25 377.058 307.67C377.058 308.09 377.4 308.432 377.82 308.432C378.24 308.432 378.583 308.09 378.583 307.67C378.583 307.25 378.24 306.908 377.82 306.908Z" fill="#25292B"/>
<path d="M142.327 221.794C142.327 221.794 149.302 386.596 148.677 413.7H112.816L94.449 223.174L142.327 221.794Z" fill="#25292B"/>
<path d="M59.487 223.734L54.668 311.955L29.001 413.7H67.456L106.147 311.538L122.587 222.724L59.487 223.734Z" fill="#25292B"/>
<path d="M104.163 317.262L103.14 317.053C109.003 288.206 113.926 258.751 117.769 229.508L117.824 229.092L130.052 228.037L130.142 229.078L118.75 230.06C114.911 259.19 110.004 288.527 104.163 317.262Z" fill="#F2E9DA"/>
<path d="M31.952 413.804H62.507L70.576 420.93C70.576 420.93 94.487 420.255 94.487 437.741H31.952V413.804Z" fill="#C340F1"/>
<path d="M34.063 435.724H34.173L92.993 435.503C93.223 435.502 93.409 435.315 93.408 435.085C93.407 434.856 93.221 434.671 92.992 434.671L34.061 434.892C33.831 434.893 33.645 435.08 33.646 435.31C33.648 435.539 33.834 435.724 34.063 435.724Z" fill="#25292B"/>
<path d="M50.554 423.661C48.415 423.433 47.111 422.589 46.88 421.284C46.581 419.596 48.251 418.385 49.772 417.861C54.529 416.221 60.041 417.236 63.956 420.364C65.055 416.787 67.0019 413.496 69.6159 410.812C70.4329 409.972 71.441 409.081 72.731 408.833C74.043 408.581 75.6679 409.249 76.0009 410.646C76.3179 411.977 75.3669 413.159 74.5019 414.039C71.6189 416.978 68.439 419.667 65.053 422.029C64.933 422.114 64.782 422.124 64.652 422.071C64.61 422.11 64.5589 422.141 64.5009 422.16C61.1429 423.273 57.575 423.843 54.022 423.843C52.861 423.843 51.703 423.782 50.554 423.661ZM63.757 421.279C60.045 418.118 54.666 417.054 50.042 418.648C49.067 418.983 47.477 419.885 47.699 421.139C47.924 422.41 49.8309 422.746 50.6409 422.832C55.0719 423.303 59.6459 422.836 63.8919 421.483C63.8279 421.43 63.781 421.359 63.757 421.279ZM72.887 409.65C71.823 409.854 70.9369 410.645 70.2109 411.392C67.6059 414.068 65.687 417.369 64.647 420.955C64.718 421.019 64.788 421.085 64.858 421.151C68.097 418.866 71.1399 416.279 73.9079 413.458C74.6219 412.73 75.413 411.775 75.191 410.841C75.003 410.053 74.1179 409.613 73.2939 409.613C73.1549 409.613 73.018 409.624 72.887 409.65Z" fill="#25292B"/>
<path d="M115.602 413.554H146.157L154.226 420.68C154.226 420.68 178.137 420.005 178.137 437.491H115.602V413.554Z" fill="#C340F1"/>
<path d="M117.713 435.473H117.714H117.823L176.643 435.252C176.873 435.251 177.059 435.064 177.058 434.834C177.057 434.605 176.871 434.42 176.642 434.42L117.711 434.641C117.481 434.642 117.295 434.829 117.296 435.059C117.298 435.288 117.484 435.473 117.713 435.473Z" fill="#25292B"/>
<path d="M134.203 423.41C132.064 423.182 130.76 422.338 130.529 421.033C130.23 419.345 131.9 418.134 133.421 417.61C138.178 415.97 143.69 416.985 147.605 420.113C148.704 416.536 150.651 413.245 153.265 410.561C154.082 409.721 155.09 408.83 156.38 408.582C157.692 408.33 159.317 408.998 159.65 410.395C159.967 411.726 159.016 412.908 158.151 413.788C155.268 416.727 152.088 419.416 148.702 421.778C148.582 421.863 148.431 421.873 148.301 421.82C148.259 421.859 148.208 421.89 148.15 421.909C144.792 423.022 141.224 423.592 137.671 423.592C136.511 423.592 135.352 423.531 134.203 423.41ZM147.407 421.028C143.695 417.867 138.316 416.803 133.692 418.397C132.717 418.732 131.127 419.634 131.349 420.888C131.574 422.159 133.481 422.495 134.291 422.581C138.722 423.052 143.296 422.585 147.542 421.232C147.477 421.179 147.43 421.108 147.407 421.028ZM156.537 409.399C155.473 409.603 154.587 410.394 153.861 411.141C151.256 413.817 149.337 417.118 148.297 420.704C148.368 420.768 148.438 420.834 148.508 420.9C151.747 418.615 154.79 416.028 157.558 413.207C158.272 412.479 159.063 411.524 158.841 410.59C158.653 409.802 157.768 409.362 156.944 409.362C156.805 409.362 156.667 409.374 156.537 409.399Z" fill="#25292B"/>
<path d="M137.417 183.064L142.327 221.794L137.507 241.534L122.587 222.724L101.187 241.534L59.4869 223.734L59.9869 207.524C47.7569 210.024 36.4269 200.394 36.9169 187.924L42.0389 128.176C42.3689 119.836 48.4919 107.379 56.5219 105.129L84.0169 96.9941L107.967 101.374L124.247 106.374C131.427 108.584 136.667 114.764 137.657 122.204L142.417 157.804L164.847 163.604L165.677 183.064H137.417Z" fill="#C340F1"/>
<path d="M67.4559 176.609C67.4389 176.609 67.4219 176.608 67.4039 176.607C67.1299 176.579 66.9299 176.333 66.9579 176.058L71.0349 136.398C71.0639 136.124 71.3059 135.933 71.5839 135.952C71.8579 135.98 72.0579 136.226 72.0299 136.501L67.9529 176.161C67.9269 176.418 67.7099 176.609 67.4559 176.609Z" fill="#25292B"/>
<path d="M61.526 207.559C61.314 207.559 61.117 207.423 61.049 207.21C60.966 206.946 61.111 206.666 61.374 206.582L110.54 190.976L104.824 170.564L54.756 179.381C54.482 179.432 54.224 179.248 54.177 178.976C54.129 178.704 54.31 178.445 54.582 178.397L105.097 169.501C105.353 169.455 105.596 169.611 105.665 169.858L111.634 191.171C111.707 191.431 111.561 191.701 111.304 191.782L61.678 207.535C61.627 207.552 61.576 207.559 61.526 207.559Z" fill="#25292B"/>
<path d="M130.467 161.969C130.217 161.969 130.001 161.782 129.971 161.528L126.264 130.207C126.232 129.933 126.428 129.685 126.702 129.652C126.975 129.617 127.224 129.816 127.257 130.09L130.964 161.411C130.996 161.685 130.8 161.933 130.526 161.966C130.506 161.968 130.487 161.969 130.467 161.969Z" fill="#25292B"/>
<path d="M106.374 120.64C106.268 120.64 106.161 120.606 106.071 120.537L97.1659 113.723C96.3009 113.74 92.1519 114.093 91.2999 119.203C91.2689 119.388 91.1379 119.539 90.9609 119.597C90.7839 119.657 90.5879 119.609 90.4559 119.477C90.3629 119.385 81.1749 110.145 81.9689 98.3314C81.9879 98.0564 82.2249 97.8594 82.5019 97.8664C82.7769 97.8854 82.9859 98.1234 82.9669 98.3994C82.3259 107.939 88.4879 115.77 90.5219 118.076C91.9949 112.581 97.3039 112.729 97.3559 112.724C97.4589 112.728 97.5589 112.764 97.6399 112.827L106.678 119.744C106.897 119.912 106.939 120.225 106.771 120.445C106.674 120.573 106.525 120.64 106.374 120.64Z" fill="#25292B"/>
<path d="M108.785 120.641C108.761 120.641 108.737 120.64 108.712 120.636C108.439 120.596 108.25 120.342 108.29 120.069L109.351 112.841C109.37 112.71 109.441 112.591 109.548 112.512C109.655 112.433 109.791 112.402 109.92 112.419C110.033 112.436 112.051 112.752 113.366 113.779C113.248 111.065 112.557 105.218 108.879 102.766C108.649 102.613 108.587 102.302 108.74 102.073C108.892 101.843 109.202 101.781 109.433 101.934C114.749 105.478 114.398 114.855 114.381 115.252C114.37 115.491 114.193 115.689 113.956 115.724C113.722 115.757 113.491 115.623 113.411 115.399C113.032 114.341 111.308 113.742 110.265 113.503L109.28 120.213C109.242 120.462 109.029 120.641 108.785 120.641Z" fill="#25292B"/>
<path d="M159.167 165.524L144.897 167.274L148.857 170.364C150.307 171.494 150.567 173.594 149.437 175.044C148.777 175.884 147.797 176.324 146.807 176.324C146.707 176.324 146.597 176.324 146.497 176.314C146.857 177.344 146.717 178.554 145.987 179.484C145.327 180.324 144.337 180.764 143.347 180.764C142.997 180.764 142.637 180.704 142.297 180.594C142.707 181.654 142.557 182.884 141.817 183.834C141.157 184.674 140.177 185.114 139.177 185.114C138.467 185.114 137.747 184.894 137.137 184.424L134.137 182.084L133.737 182.684C126.787 191.344 118.097 187.834 118.097 187.834L111.287 189.804L106.147 171.914L119.937 168.924L131.567 161.254C132.977 160.324 134.637 159.824 136.327 159.824H159.167V165.524Z" fill="#F2E9DA"/>
<path d="M142.296 181.095C142.185 181.095 142.073 181.058 141.98 180.982L136.128 176.196C135.914 176.021 135.882 175.706 136.057 175.492C136.232 175.278 136.547 175.246 136.761 175.421L142.613 180.207C142.827 180.382 142.859 180.697 142.684 180.911C142.585 181.033 142.441 181.095 142.296 181.095Z" fill="#25292B"/>
<path d="M146.496 176.814C146.384 176.814 146.27 176.776 146.177 176.698L140.225 171.744C140.013 171.567 139.984 171.252 140.161 171.04C140.337 170.829 140.652 170.799 140.865 170.976L146.817 175.93C147.029 176.107 147.058 176.422 146.881 176.634C146.782 176.752 146.64 176.814 146.496 176.814Z" fill="#25292B"/>
<path d="M204.467 137.724L174.897 190.034C174.127 191.394 172.687 192.234 171.117 192.234H143.267C139.947 192.234 137.867 188.654 139.497 185.764L169.067 133.464C169.837 132.104 171.277 131.264 172.837 131.264H200.697C204.017 131.264 206.097 134.834 204.467 137.724Z" fill="#25292B"/>
<path d="M191.837 166.444C191.367 167.364 190.507 167.954 189.557 168.114C189.977 168.534 190.277 169.044 190.457 169.594C190.747 170.504 190.697 171.524 190.227 172.434C189.517 173.834 188.017 174.584 186.537 174.434C186.917 174.834 187.187 175.314 187.357 175.824C187.647 176.744 187.597 177.764 187.127 178.674C186.497 179.904 185.267 180.634 183.967 180.684C184.137 180.934 184.277 181.194 184.387 181.464C184.777 182.424 184.787 183.464 184.317 184.384C183.377 186.204 180.887 186.814 178.777 185.734L174.084 183.491C173.024 182.951 172.264 182.081 171.874 181.121C171.484 180.161 171.484 179.111 171.944 178.201C172.514 177.081 173.684 176.421 174.984 176.341C174.754 176.021 174.574 175.661 174.454 175.291C174.154 174.381 174.214 173.361 174.674 172.451C175.394 171.051 176.894 170.291 178.374 170.441C177.994 170.041 177.714 169.561 177.554 169.051C177.254 168.141 177.304 167.121 177.774 166.211C178.504 164.771 180.054 164.021 181.574 164.211C181.494 164.061 181.434 163.911 181.384 163.751C181.134 162.981 181.174 162.111 181.574 161.341C182.364 159.791 184.284 159.171 185.834 159.971L190.457 162.184C191.237 162.584 191.777 163.264 192.027 164.034C192.277 164.804 192.227 165.674 191.837 166.444Z" fill="#F2E9DA"/>
<path d="M183.966 181.184C183.893 181.184 183.819 181.168 183.749 181.134L174.766 176.791C174.517 176.671 174.413 176.372 174.534 176.123C174.655 175.876 174.953 175.771 175.202 175.891L184.185 180.234C184.434 180.354 184.538 180.653 184.417 180.902C184.33 181.08 184.152 181.184 183.966 181.184Z" fill="#25292B"/>
<path d="M186.536 174.934C186.462 174.934 186.388 174.918 186.317 174.883L178.154 170.89C177.906 170.768 177.803 170.469 177.925 170.221C178.047 169.973 178.346 169.871 178.594 169.992L186.757 173.985C187.005 174.107 187.108 174.406 186.986 174.654C186.899 174.831 186.721 174.934 186.536 174.934Z" fill="#25292B"/>
<path d="M189.556 168.614C189.482 168.614 189.408 168.598 189.337 168.563L181.354 164.66C181.106 164.539 181.003 164.239 181.125 163.991C181.247 163.743 181.546 163.641 181.794 163.762L189.777 167.665C190.025 167.786 190.128 168.086 190.006 168.334C189.919 168.511 189.741 168.614 189.556 168.614Z" fill="#25292B"/>
<path d="M80.237 74.1501C81.324 78.5651 84.047 81.3431 88.146 80.8321L83.546 97.7091L106.536 117.637L108.769 96.6031C108.769 96.6031 111.65 95.9711 115.052 93.0431C118.454 90.1251 124.16 82.9131 124.606 76.1101L125.498 62.6901C119.903 62.6531 112.682 61.1101 107.152 59.6791C102.282 58.4151 98.723 57.2441 98.723 57.2441C98.639 57.8671 98.444 58.5081 98.165 59.1491C96.659 62.6341 92.784 66.1101 92.784 66.1101L92.775 66.1751C92.766 66.1661 92.766 66.1561 92.756 66.1561C92.728 66.1281 92.7 66.1001 92.682 66.0721C91.372 64.6411 89.643 63.6741 87.793 63.3861C86.817 63.2371 85.804 63.2741 84.8 63.5161C80.423 64.6051 79.066 69.4201 80.237 74.1501Z" fill="#F2E9DA"/>
<path d="M123.515 73.8974C123.605 72.545 122.687 71.3831 121.464 71.3021C120.242 71.2212 119.179 72.2518 119.089 73.6041C118.999 74.9565 119.918 76.1184 121.14 76.1993C122.362 76.2803 123.426 75.2497 123.515 73.8974Z" fill="#25292B"/>
<path d="M109.266 71.4344C109.694 70.1486 109.1 68.7922 107.938 68.4047C106.776 68.0172 105.486 68.7455 105.057 70.0313C104.629 71.317 105.223 72.6735 106.385 73.0609C107.547 73.4484 108.837 72.7201 109.266 71.4344Z" fill="#25292B"/>
<path d="M119.842 67.9003C121.559 67.4773 123.432 67.9003 124.725 69.1373C124.982 69.3833 125.071 69.8113 124.812 70.0963C124.578 70.3543 124.128 70.4463 123.853 70.1833C123.726 70.0613 123.594 69.9463 123.453 69.8413C123.384 69.7893 123.314 69.7403 123.243 69.6923C123.235 69.6873 123.227 69.6823 123.218 69.6773C123.18 69.6553 123.142 69.6323 123.104 69.6113C122.951 69.5253 122.793 69.4483 122.631 69.3803C122.55 69.3463 122.468 69.3153 122.385 69.2853C122.37 69.2803 122.356 69.2753 122.345 69.2713C122.299 69.2573 122.253 69.2443 122.207 69.2323C122.037 69.1873 121.865 69.1513 121.691 69.1253C121.604 69.1123 121.517 69.1023 121.429 69.0943C121.385 69.0903 121.342 69.0873 121.298 69.0843C121.296 69.0843 121.297 69.0843 121.295 69.0843C121.29 69.0843 121.293 69.0843 121.283 69.0843C121.107 69.0833 120.932 69.0883 120.757 69.1063C120.67 69.1153 120.583 69.1263 120.496 69.1413C120.453 69.1483 120.41 69.1563 120.366 69.1643C120.354 69.1663 120.349 69.1673 120.344 69.1683C120.335 69.1703 120.331 69.1713 120.319 69.1743C119.975 69.2593 119.565 69.1543 119.442 68.7773C119.341 68.4613 119.472 67.9913 119.842 67.9003Z" fill="#25292B"/>
<path d="M111.008 66.9229C110.751 67.2259 110.332 67.1679 110.046 66.9589C110.037 66.9519 110.032 66.9489 110.025 66.9439C110.021 66.9419 110.016 66.9389 110.006 66.9319C109.969 66.9079 109.932 66.8839 109.895 66.8609C109.82 66.8149 109.744 66.7709 109.667 66.7299C109.512 66.6469 109.352 66.5759 109.189 66.5109C109.18 66.5069 109.183 66.5079 109.178 66.5059C109.176 66.5049 109.178 66.5059 109.175 66.5049C109.133 66.4909 109.092 66.4769 109.05 66.4649C108.966 66.4389 108.881 66.4159 108.796 66.3949C108.625 66.3529 108.452 66.3209 108.278 66.2989C108.23 66.2929 108.183 66.2879 108.135 66.2829C108.124 66.2819 108.109 66.2809 108.093 66.2809C108.005 66.2779 107.917 66.2749 107.83 66.2759C107.654 66.2769 107.479 66.2889 107.305 66.3109C107.261 66.3159 107.218 66.3229 107.175 66.3289C107.166 66.3299 107.156 66.3319 107.147 66.3339C107.063 66.3509 106.979 66.3699 106.896 66.3919C106.726 66.4369 106.56 66.4929 106.396 66.5579C106.042 66.6969 105.661 66.4409 105.542 66.1139C105.41 65.7519 105.655 65.3899 105.986 65.2599C107.651 64.6039 109.545 64.9209 110.974 65.9619C111.28 66.1849 111.223 66.6689 111.008 66.9229Z" fill="#25292B"/>
<path d="M105.908 86.4049C104.669 85.8509 103.845 85.0329 103.461 83.9749C102.814 82.1949 103.67 80.4029 103.707 80.3279C103.808 80.1209 104.055 80.0319 104.264 80.1219L111.971 83.4639C112.079 83.5109 112.162 83.5989 112.203 83.7089C112.243 83.8189 112.237 83.9409 112.186 84.0459C112.169 84.0799 110.765 86.8829 107.976 86.8829C107.356 86.8829 106.666 86.7449 105.908 86.4049ZM104.33 81.0869C104.147 81.6319 103.904 82.6759 104.269 83.6819C104.571 84.5129 105.24 85.1649 106.259 85.6209C108.992 86.8439 110.618 84.9299 111.186 84.0599L104.33 81.0869Z" fill="#25292B"/>
<path d="M87.187 78.7806C87.093 78.7806 86.999 78.7556 86.913 78.7036C85.331 77.7406 84.476 75.7296 84.881 73.9226C85.259 72.2296 86.714 70.8456 88.411 70.5156C88.68 69.5706 88.606 68.5856 88.2 67.8296C87.719 66.9336 86.745 66.3736 85.838 66.4726C84.92 66.5706 84.13 67.4336 84.181 68.2846C84.199 68.5766 83.977 68.8266 83.685 68.8436C83.393 68.8706 83.143 68.6396 83.126 68.3476C83.04 66.9206 84.23 65.5806 85.726 65.4216C87.063 65.2756 88.453 66.0656 89.131 67.3296C89.728 68.4406 89.793 69.8406 89.309 71.1696C89.24 71.3586 89.069 71.4926 88.869 71.5146C87.464 71.6656 86.221 72.7756 85.912 74.1536C85.603 75.5326 86.256 77.0666 87.463 77.8006C87.712 77.9526 87.791 78.2776 87.64 78.5276C87.539 78.6896 87.365 78.7796 87.187 78.7806Z" fill="#25292B"/>
<path d="M106.306 97.1846C105.886 97.1846 105.492 97.1426 105.141 97.0446C102.663 96.3556 99.293 92.3766 99.151 92.2076C98.963 91.9846 98.9919 91.6506 99.2149 91.4626C99.4399 91.2746 99.7729 91.3046 99.9599 91.5266C99.9929 91.5656 103.261 95.4246 105.425 96.0266C107.196 96.5206 110.881 95.1326 112.151 94.5556C112.418 94.4366 112.73 94.5536 112.85 94.8186C112.971 95.0846 112.853 95.3976 112.588 95.5176C112.414 95.5966 108.884 97.1846 106.306 97.1846Z" fill="#25292B"/>
<path d="M106.526 77.2875C105.446 77.2875 104.35 77.0835 103.288 76.6535C101.148 75.7855 99.474 74.1365 98.574 72.0105C97.674 69.8835 97.657 67.5335 98.524 65.3935C99.391 63.2535 101.041 61.5795 103.167 60.6795C105.292 59.7795 107.643 59.7615 109.784 60.6295C114.202 62.4205 116.339 67.4715 114.548 71.8895C113.188 75.2475 109.945 77.2875 106.526 77.2875ZM106.536 61.0485C105.533 61.0485 104.531 61.2505 103.58 61.6525C101.713 62.4425 100.266 63.9125 99.504 65.7905C98.742 67.6695 98.758 69.7315 99.547 71.5985C100.337 73.4655 101.807 74.9125 103.685 75.6745C107.561 77.2465 111.997 75.3705 113.569 71.4935C115.141 67.6155 113.265 63.1825 109.387 61.6105C108.467 61.2355 107.501 61.0485 106.536 61.0485Z" fill="#C340F1"/>
<path d="M125.486 82.697C124.406 82.697 123.31 82.494 122.249 82.064C117.831 80.273 115.694 75.221 117.485 70.803C118.353 68.663 120.002 66.989 122.128 66.089C124.253 65.188 126.604 65.171 128.745 66.039C133.163 67.83 135.3 72.881 133.509 77.299C132.149 80.657 128.904 82.697 125.486 82.697ZM125.496 66.458C124.493 66.458 123.491 66.66 122.54 67.062C120.673 67.852 119.226 69.322 118.464 71.2C116.892 75.078 118.767 79.511 122.646 81.084C126.521 82.656 130.958 80.781 132.53 76.902C134.102 73.024 132.226 68.591 128.348 67.019C127.427 66.645 126.462 66.458 125.496 66.458Z" fill="#C340F1"/>
<path d="M90.1631 60.4508L89.6312 61.3643L98.5653 66.5663L99.0972 65.6529L90.1631 60.4508Z" fill="#C340F1"/>
<path d="M114.274 71.2013L113.858 72.1729L117.23 73.6181L117.647 72.6465L114.274 71.2013Z" fill="#C340F1"/>
<path d="M84.8 63.5179C85.804 63.2759 86.817 63.2389 87.793 63.3879C89.642 63.6759 91.371 64.6429 92.682 66.0739L92.7839 66.1109C92.7839 66.1109 96.66 62.6349 98.165 59.1499C98.444 58.5089 98.639 57.8669 98.723 57.2449C98.723 57.2449 102.283 58.4159 107.152 59.6799C112.682 61.1109 119.903 62.6539 125.498 62.6909C129.048 62.7189 131.948 62.1429 133.342 60.5529C139.652 53.3409 135.052 45.9059 128.091 46.6029C121.418 47.2809 116.911 47.1609 109.624 42.5599C102.338 37.9499 94.67 38.7219 92.431 44.6229C92.431 44.6229 80.395 44.9959 84.8 63.5179Z" fill="#25292B"/>
<path d="M117.953 83.1884C117.897 83.1884 117.842 83.1794 117.787 83.1624L111.194 80.9864C110.917 80.8944 110.766 80.5954 110.858 80.3194C110.95 80.0424 111.25 79.8924 111.525 79.9834L117.364 81.9104L116.509 70.9034C116.487 70.6124 116.704 70.3584 116.995 70.3354C117.289 70.3144 117.54 70.5304 117.563 70.8214L118.48 82.6204C118.494 82.7964 118.418 82.9684 118.279 83.0774C118.185 83.1504 118.07 83.1884 117.953 83.1884Z" fill="#25292B"/>
<path d="M303.481 273.405H182.571C179.856 273.405 177.648 271.196 177.648 268.481V195.309C177.648 192.594 179.856 190.385 182.571 190.385H303.482C306.197 190.385 308.406 192.594 308.406 195.309V268.481C308.405 271.196 306.196 273.405 303.481 273.405ZM182.571 191.124C180.263 191.124 178.385 193.002 178.385 195.31V268.482C178.385 270.79 180.262 272.668 182.571 272.668H303.482C305.79 272.668 307.668 270.79 307.668 268.482V195.31C307.668 193.002 305.791 191.124 303.482 191.124H182.571Z" fill="#25292B"/>
<path d="M308.036 200.202H178.016V195.31C178.016 192.794 180.055 190.755 182.571 190.755H303.481C305.997 190.755 308.036 192.794 308.036 195.31V200.202Z" fill="#25292B"/>
<path d="M186.266 222.3L205.314 222.3L205.314 203.252L186.266 203.252L186.266 222.3Z" fill="#F2E9DA"/>
<path d="M186.266 245.299L205.314 245.299L205.314 226.251L186.266 226.251L186.266 245.299Z" fill="#F2E9DA"/>
<path d="M186.266 267.63L205.314 267.63L205.314 248.582L186.266 248.582L186.266 267.63Z" fill="#F2E9DA"/>
<path d="M193.945 219.04L187.136 212.23L190.603 208.762L193.945 212.104L200.975 205.074L204.443 208.542L193.945 219.04Z" fill="#C340F1"/>
<path d="M193.945 242.758L187.136 235.948L190.603 232.481L193.945 235.822L200.975 228.793L204.442 232.26L193.945 242.758Z" fill="#C340F1"/>
<path d="M193.945 264.474L187.136 257.664L190.603 254.197L193.945 257.538L200.975 250.508L204.443 253.976L193.945 264.474Z" fill="#C340F1"/>
<path d="M208.504 208.222L299.907 208.222L299.907 204.457L208.504 204.457L208.504 208.222Z" fill="#F2E9DA"/>
<path d="M208.504 215.362L299.907 215.362L299.907 211.597L208.504 211.597L208.504 215.362Z" fill="#F2E9DA"/>
<path d="M208.504 222.367L249.629 222.367L249.629 218.602L208.504 218.602L208.504 222.367Z" fill="#F2E9DA"/>
<path d="M208.504 230.585L299.907 230.585L299.907 226.82L208.504 226.82L208.504 230.585Z" fill="#F2E9DA"/>
<path d="M208.504 237.726L299.907 237.726L299.907 233.961L208.504 233.961L208.504 237.726Z" fill="#F2E9DA"/>
<path d="M208.504 244.73L249.629 244.73L249.629 240.965L208.504 240.965L208.504 244.73Z" fill="#F2E9DA"/>
<path d="M208.504 253.339L299.907 253.339L299.907 249.574L208.504 249.574L208.504 253.339Z" fill="#F2E9DA"/>
<path d="M208.504 260.479L299.907 260.479L299.907 256.715L208.504 256.715L208.504 260.479Z" fill="#F2E9DA"/>
<path d="M208.504 267.484L249.629 267.484L249.629 263.719L208.504 263.719L208.504 267.484Z" fill="#F2E9DA"/>
<path d="M414.789 229.977L408.238 249.579C399.27 276.388 369.637 283.623 349.324 263.963L334.477 249.586C309.692 225.592 317.154 181.253 347.219 173.913L368.618 168.688C398.672 161.35 425.728 197.261 414.789 229.977Z" fill="#BA68C8"/>
<path d="M362.524 191.914C378.136 188.102 389.58 180.047 388.085 173.921C386.589 167.796 372.721 165.921 357.108 169.733C341.496 173.545 330.052 181.6 331.547 187.725C333.043 193.851 346.912 195.726 362.524 191.914Z" fill="#25292B"/>
<path d="M401.774 151.521C401.774 173.287 380.417 180.472 354.071 180.472C327.725 180.472 306.368 173.287 306.368 151.521C306.368 129.755 327.725 109.331 354.071 109.331C380.417 109.332 401.774 129.756 401.774 151.521Z" fill="#87449A"/>
<path d="M333.666 164.384C333.666 164.384 312.472 164.125 306.396 152.713C306.377 152.324 306.368 151.926 306.368 151.518C306.368 140.69 311.666 130.185 320.235 122.367H373.581C373.581 122.367 392.375 164.384 333.666 164.384Z" fill="#C340F1"/>
<path d="M320.217 145.801C324.12 145.801 327.284 142.206 327.284 137.771C327.284 133.336 324.12 129.741 320.217 129.741C316.314 129.741 313.15 133.336 313.15 137.771C313.15 142.206 316.314 145.801 320.217 145.801Z" fill="#F2E9DA"/>
<path d="M344.966 145.801C348.869 145.801 352.033 142.206 352.033 137.771C352.033 133.336 348.869 129.741 344.966 129.741C341.063 129.741 337.899 133.336 337.899 137.771C337.899 142.206 341.063 145.801 344.966 145.801Z" fill="#F2E9DA"/>
<path d="M330.152 154.023C323.576 154.023 323.469 148.094 323.468 148.034C323.467 147.854 323.612 147.708 323.791 147.707H323.793C323.971 147.707 324.117 147.851 324.118 148.029C324.12 148.247 324.231 153.372 330.151 153.372C336.071 153.372 336.182 148.247 336.184 148.029C336.185 147.851 336.331 147.707 336.509 147.707H336.511C336.69 147.708 336.835 147.854 336.834 148.034C336.834 148.094 336.727 154.023 330.152 154.023Z" fill="#25292B"/>
<path d="M385.334 173.744C385.282 173.744 385.23 173.731 385.18 173.705C385.022 173.62 384.963 173.423 385.048 173.265C389.675 164.669 391.635 154.59 390.567 144.886C389.498 135.181 385.39 125.772 379.001 118.389C378.884 118.253 378.898 118.048 379.034 117.93C379.169 117.812 379.374 117.826 379.493 117.963C385.967 125.444 390.129 134.98 391.213 144.814C392.296 154.648 390.31 164.862 385.62 173.573C385.562 173.682 385.451 173.744 385.334 173.744Z" fill="#25292B"/>
<path d="M355.74 114.407C355.679 114.407 355.616 114.389 355.561 114.353C355.411 114.254 355.37 114.053 355.469 113.902C360.406 106.413 361.75 96.8309 359.065 88.2729C359.011 88.1019 359.107 87.9189 359.278 87.8659C359.448 87.8139 359.632 87.9079 359.685 88.0789C362.429 96.8219 361.056 106.61 356.012 114.261C355.95 114.355 355.846 114.407 355.74 114.407Z" fill="#25292B"/>
<path d="M359.35 95.2439C364.363 95.2439 368.427 91.1799 368.427 86.1668C368.427 81.1538 364.363 77.0898 359.35 77.0898C354.337 77.0898 350.273 81.1538 350.273 86.1668C350.273 91.1799 354.337 95.2439 359.35 95.2439Z" fill="#C340F1"/>
<path d="M394.092 224.941C401.724 224.941 407.911 217.101 407.911 207.431C407.911 197.76 401.724 189.921 394.092 189.921C386.46 189.921 380.273 197.76 380.273 207.431C380.273 217.101 386.46 224.941 394.092 224.941Z" fill="#C340F1"/>
<path d="M346.983 234.21C335.114 234.21 323.252 231.449 312.634 226.111C308.517 224.042 306.857 219.026 308.926 214.909C310.995 210.792 316.01 209.131 320.128 211.202C331.339 216.836 344.327 218.795 356.699 216.718C369.073 214.64 380.709 208.548 389.463 199.562C392.678 196.261 397.96 196.192 401.262 199.409C404.562 202.624 404.631 207.907 401.416 211.208C390.206 222.714 375.306 230.515 359.462 233.176C355.338 233.868 351.16 234.21 346.983 234.21Z" fill="#25292B"/>
<path d="M226.751 172.944C228.693 172.631 230.714 172.608 232.76 172.914C237.944 173.689 242.516 176.436 245.635 180.65C248.753 184.864 250.043 190.04 249.268 195.224L249.137 196.098C248.779 198.495 246.546 200.15 244.148 199.79C241.751 199.432 240.098 197.198 240.456 194.801L240.587 193.927C241.015 191.062 240.302 188.201 238.579 185.872C236.856 183.543 234.329 182.024 231.463 181.596C225.547 180.712 220.016 184.805 219.132 190.72L219.001 191.595C218.642 193.992 216.408 195.643 214.011 195.286C211.614 194.927 209.961 192.693 210.32 190.296L210.451 189.422C211.744 180.766 218.538 174.267 226.751 172.944Z" fill="#C340F1"/>
<path d="M316.177 210.434C316.113 212.255 315.772 214.095 315.127 215.901C313.494 220.474 310.177 224.136 305.789 226.215C301.401 228.293 296.466 228.538 291.893 226.904L291.122 226.629C289.008 225.874 287.904 223.548 288.661 221.433C289.416 219.319 291.743 218.217 293.857 218.972L294.628 219.247C297.155 220.15 299.883 220.014 302.308 218.866C304.733 217.717 306.567 215.693 307.47 213.166C309.334 207.948 306.606 202.188 301.389 200.324L300.618 200.048C298.504 199.292 297.404 196.966 298.158 194.851C298.914 192.737 301.24 191.635 303.355 192.391L304.126 192.666C311.759 195.394 316.447 202.733 316.177 210.434Z" fill="#C340F1"/>
<path d="M243.109 301.391H185.565V358.935H243.109V301.391Z" fill="#C340F1"/>
<path d="M369.868 293.718H178.016V284.333C178.016 281.817 180.055 279.778 182.571 279.778H365.314C367.83 279.778 369.869 281.817 369.869 284.333L369.868 293.718Z" fill="#C340F1"/>
<path d="M365.313 401.733H182.571C179.759 401.733 177.472 399.446 177.472 396.634V284.334C177.472 281.521 179.76 279.234 182.571 279.234H365.314C368.126 279.234 370.414 281.521 370.414 284.334V396.635C370.413 399.446 368.125 401.733 365.313 401.733ZM182.571 280.322C180.36 280.322 178.561 282.122 178.561 284.334V396.635C178.561 398.846 180.36 400.646 182.571 400.646H365.314C367.525 400.646 369.325 398.846 369.325 396.635V284.334C369.325 282.122 367.526 280.322 365.314 280.322H182.571Z" fill="#25292B"/>
<path d="M362.867 286.694C362.867 287.314 362.617 287.884 362.207 288.294C361.797 288.704 361.227 288.954 360.607 288.954H349.627C348.387 288.954 347.367 287.944 347.367 286.694C347.367 286.074 347.627 285.504 348.027 285.094C348.447 284.684 349.007 284.434 349.627 284.434H360.607C361.857 284.434 362.867 285.444 362.867 286.694Z" fill="#F2E9DA"/>
<path d="M344.607 286.694C344.607 287.314 344.357 287.884 343.937 288.294C343.537 288.704 342.967 288.954 342.347 288.954H331.367C330.117 288.954 329.107 287.944 329.107 286.694C329.107 286.074 329.357 285.504 329.767 285.094C330.177 284.684 330.737 284.434 331.367 284.434H342.347C343.587 284.434 344.607 285.444 344.607 286.694Z" fill="#25292B"/>
<path d="M326.036 286.694C326.036 287.314 325.786 287.884 325.366 288.294C324.966 288.704 324.396 288.954 323.776 288.954H312.796C311.546 288.954 310.536 287.944 310.536 286.694C310.536 286.074 310.786 285.504 311.196 285.094C311.606 284.684 312.166 284.434 312.796 284.434H323.776C325.016 284.434 326.036 285.444 326.036 286.694Z" fill="#C340F1"/>
<path d="M207.369 351.508L188.407 332.546L197.468 323.486L207.369 333.387L231.939 308.816L241 317.877L207.369 351.508Z" fill="#F2E9DA"/>
<path d="M359.716 370.121H186.862C186.148 370.121 185.565 369.537 185.565 368.824V368.094C185.565 367.38 186.149 366.797 186.862 366.797H359.716C360.43 366.797 361.013 367.381 361.013 368.094V368.824C361.013 369.538 360.43 370.121 359.716 370.121Z" fill="#F2E9DA"/>
<path d="M359.904 381.876H187.05C186.336 381.876 185.753 381.292 185.753 380.579V379.849C185.753 379.135 186.337 378.552 187.05 378.552H359.904C360.618 378.552 361.201 379.136 361.201 379.849V380.579C361.201 381.292 360.617 381.876 359.904 381.876Z" fill="#F2E9DA"/>
<path d="M307.549 392.917H186.956C186.242 392.917 185.659 392.333 185.659 391.62V390.89C185.659 390.176 186.243 389.593 186.956 389.593H307.549C308.263 389.593 308.846 390.177 308.846 390.89V391.62C308.846 392.333 308.262 392.917 307.549 392.917Z" fill="#F2E9DA"/>
<path d="M322.272 347.217C316.345 347.217 311.524 342.396 311.524 336.47V313.502C311.524 308.709 307.624 304.809 302.831 304.809C298.038 304.809 294.138 308.709 294.138 313.502V332.302C294.138 337.52 289.893 341.765 284.675 341.765H284.34C279.122 341.765 274.877 337.52 274.877 332.302V311.508C274.877 307.176 271.353 303.653 267.022 303.653C262.691 303.653 259.168 307.177 259.168 311.508V350.448C259.168 350.892 258.809 351.252 258.364 351.252C257.919 351.252 257.56 350.892 257.56 350.448V311.508C257.56 306.29 261.804 302.045 267.022 302.045C272.24 302.045 276.485 306.29 276.485 311.508V332.302C276.485 336.634 280.009 340.157 284.34 340.157H284.675C289.007 340.157 292.53 336.633 292.53 332.302V313.502C292.53 307.822 297.15 303.202 302.83 303.202C308.509 303.202 313.13 307.823 313.13 313.502V336.47C313.13 341.51 317.23 345.61 322.27 345.61C327.31 345.61 331.409 341.51 331.409 336.47V330.943C331.409 325.181 336.097 320.493 341.859 320.493C347.621 320.493 352.309 325.181 352.309 330.943V353.538C352.309 353.982 351.95 354.342 351.505 354.342C351.06 354.342 350.701 353.982 350.701 353.538V330.943C350.701 326.068 346.735 322.101 341.859 322.101C336.983 322.101 333.017 326.067 333.017 330.943V336.47C333.019 342.395 328.198 347.217 322.272 347.217Z" fill="#F2E9DA"/>
<path d="M266.328 307.64C269.05 307.64 271.257 305.433 271.257 302.711C271.257 299.989 269.05 297.782 266.328 297.782C263.606 297.782 261.399 299.989 261.399 302.711C261.399 305.433 263.606 307.64 266.328 307.64Z" fill="#C340F1"/>
<path d="M292.887 327.366C295.609 327.366 297.816 325.159 297.816 322.437C297.816 319.715 295.609 317.508 292.887 317.508C290.165 317.508 287.958 319.715 287.958 322.437C287.958 325.159 290.165 327.366 292.887 327.366Z" fill="#C340F1"/>
<path d="M313.134 316.829C315.856 316.829 318.063 314.622 318.063 311.9C318.063 309.177 315.856 306.971 313.134 306.971C310.412 306.971 308.205 309.177 308.205 311.9C308.205 314.622 310.412 316.829 313.134 316.829Z" fill="#C340F1"/>
<path d="M321.787 350.715C324.509 350.715 326.716 348.509 326.716 345.786C326.716 343.064 324.509 340.857 321.787 340.857C319.065 340.857 316.858 343.064 316.858 345.786C316.858 348.509 319.065 350.715 321.787 350.715Z" fill="#C340F1"/>
<path d="M351.507 356.914C354.229 356.914 356.436 354.707 356.436 351.985C356.436 349.262 354.229 347.056 351.507 347.056C348.785 347.056 346.578 349.262 346.578 351.985C346.578 354.707 348.785 356.914 351.507 356.914Z" fill="#C340F1"/>
<path d="M258.326 355.704C261.048 355.704 263.255 353.497 263.255 350.775C263.255 348.052 261.048 345.846 258.326 345.846C255.604 345.846 253.397 348.052 253.397 350.775C253.397 353.497 255.604 355.704 258.326 355.704Z" fill="#C340F1"/>
<path d="M182.455 130.242C182.179 130.242 181.955 130.018 181.955 129.742V123.742C181.955 123.466 182.179 123.242 182.455 123.242C182.731 123.242 182.955 123.466 182.955 123.742V129.742C182.955 130.018 182.731 130.242 182.455 130.242ZM281.599 124.338C281.331 124.338 281.109 124.126 281.1 123.855C281.09 123.579 281.306 123.348 281.582 123.338C283.535 123.27 285.405 122.79 287.139 121.912C287.386 121.784 287.686 121.886 287.811 122.132C287.936 122.379 287.837 122.679 287.591 122.804C285.726 123.749 283.716 124.265 281.617 124.338C281.61 124.338 281.604 124.338 281.599 124.338ZM275.68 123.617C275.627 123.617 275.573 123.609 275.52 123.591C273.569 122.93 271.744 121.827 270.243 120.4C270.043 120.21 270.035 119.894 270.225 119.693C270.414 119.493 270.731 119.484 270.932 119.675C272.329 121.002 274.027 122.029 275.841 122.643C276.103 122.732 276.243 123.016 276.154 123.277C276.083 123.486 275.889 123.617 275.68 123.617ZM291.972 119.091C291.863 119.091 291.754 119.056 291.662 118.983C291.446 118.811 291.409 118.497 291.58 118.28C292.794 116.749 293.639 115.013 294.093 113.123C294.157 112.854 294.426 112.686 294.696 112.753C294.965 112.817 295.13 113.087 295.066 113.356C294.578 115.389 293.67 117.254 292.365 118.9C292.266 119.026 292.12 119.091 291.972 119.091ZM182.455 118.242C182.179 118.242 181.955 118.018 181.955 117.742V111.742C181.955 111.466 182.179 111.242 182.455 111.242C182.731 111.242 182.955 111.466 182.955 111.742V117.742C182.955 118.018 182.731 118.242 182.455 118.242ZM267.25 115.609C267.051 115.609 266.863 115.49 266.785 115.294C266.115 113.608 265.775 111.825 265.775 109.995V109.233C265.775 108.957 265.999 108.733 266.275 108.733C266.551 108.733 266.775 108.957 266.775 109.233V109.995C266.775 111.698 267.091 113.357 267.715 114.925C267.817 115.181 267.692 115.472 267.435 115.574C267.374 115.598 267.311 115.609 267.25 115.609ZM224.477 114.581H224.011C222.545 114.581 221.098 114.361 219.713 113.926C219.449 113.843 219.303 113.563 219.385 113.3C219.467 113.036 219.746 112.887 220.011 112.972C221.3 113.376 222.646 113.581 224.011 113.581H224.477C224.905 113.581 225.329 113.561 225.747 113.521C226.02 113.497 226.266 113.698 226.291 113.973C226.316 114.248 226.114 114.492 225.839 114.517C225.391 114.56 224.936 114.581 224.477 114.581ZM231.459 112.696C231.287 112.696 231.12 112.608 231.027 112.448C230.888 112.21 230.968 111.904 231.206 111.764C232.864 110.795 234.323 109.45 235.425 107.874C235.583 107.647 235.895 107.592 236.121 107.751C236.347 107.909 236.402 108.221 236.244 108.447C235.06 110.14 233.493 111.585 231.711 112.627C231.632 112.674 231.545 112.696 231.459 112.696ZM214.7 110.986C214.58 110.986 214.46 110.943 214.364 110.856C212.832 109.465 211.596 107.727 210.792 105.829C210.684 105.575 210.803 105.281 211.057 105.173C211.311 105.066 211.604 105.184 211.713 105.438C212.462 107.204 213.61 108.821 215.036 110.115C215.241 110.301 215.256 110.617 215.07 110.821C214.972 110.93 214.836 110.986 214.7 110.986ZM294.962 107.772C294.686 107.772 294.462 107.548 294.462 107.272V101.272C294.462 100.996 294.686 100.772 294.962 100.772C295.238 100.772 295.462 100.996 295.462 101.272V107.272C295.462 107.548 295.238 107.772 294.962 107.772ZM182.455 106.242C182.179 106.242 181.955 106.018 181.955 105.742V99.7421C181.955 99.4661 182.179 99.2421 182.455 99.2421C182.731 99.2421 182.955 99.4661 182.955 99.7421V105.742C182.955 106.018 182.731 106.242 182.455 106.242ZM266.275 103.733C265.999 103.733 265.775 103.509 265.775 103.233V97.2331C265.775 96.9571 265.999 96.7331 266.275 96.7331C266.551 96.7331 266.775 96.9571 266.775 97.2331V103.233C266.775 103.51 266.551 103.733 266.275 103.733ZM238.116 103.163C238.087 103.163 238.058 103.161 238.028 103.155C237.756 103.107 237.575 102.847 237.623 102.575C237.76 101.804 237.829 101.015 237.828 100.229V96.6761C237.828 96.4001 238.052 96.1761 238.328 96.1761C238.604 96.1761 238.828 96.4001 238.828 96.6761V100.228C238.828 101.073 238.754 101.921 238.607 102.749C238.565 102.993 238.354 103.163 238.116 103.163ZM210.159 100.282C209.883 100.282 209.659 100.058 209.659 99.7821V93.7821C209.659 93.5061 209.883 93.2821 210.159 93.2821C210.435 93.2821 210.659 93.5061 210.659 93.7821V99.7821C210.659 100.058 210.435 100.282 210.159 100.282ZM294.962 95.7721C294.686 95.7721 294.462 95.5481 294.462 95.2721V89.2721C294.462 88.9961 294.686 88.7721 294.962 88.7721C295.238 88.7721 295.462 88.9961 295.462 89.2721V95.2721C295.462 95.5481 295.238 95.7721 294.962 95.7721ZM182.455 94.2421C182.179 94.2421 181.955 94.0181 181.955 93.7421V87.7421C181.955 87.4661 182.179 87.2421 182.455 87.2421C182.731 87.2421 182.955 87.4661 182.955 87.7421V93.7421C182.955 94.0181 182.731 94.2421 182.455 94.2421ZM266.275 91.7331C265.999 91.7331 265.775 91.5091 265.775 91.2331V85.2331C265.775 84.9571 265.999 84.7331 266.275 84.7331C266.551 84.7331 266.775 84.9571 266.775 85.2331V91.2331C266.775 91.5101 266.551 91.7331 266.275 91.7331ZM238.328 91.1771C238.052 91.1771 237.828 90.9531 237.828 90.6771V84.6771C237.828 84.4011 238.052 84.1771 238.328 84.1771C238.604 84.1771 238.828 84.4011 238.828 84.6771V90.6771C238.828 90.9531 238.605 91.1771 238.328 91.1771ZM210.159 88.2821C209.883 88.2821 209.659 88.0581 209.659 87.7821V81.7821C209.659 81.5061 209.883 81.2821 210.159 81.2821C210.435 81.2821 210.659 81.5061 210.659 81.7821V87.7821C210.659 88.0581 210.435 88.2821 210.159 88.2821ZM294.962 83.7721C294.686 83.7721 294.462 83.5481 294.462 83.2721V77.2721C294.462 76.9961 294.686 76.7721 294.962 76.7721C295.238 76.7721 295.462 76.9961 295.462 77.2721V83.2721C295.462 83.5481 295.238 83.7721 294.962 83.7721ZM182.455 82.2421C182.179 82.2421 181.955 82.0181 181.955 81.7421V75.7421C181.955 75.4661 182.179 75.2421 182.455 75.2421C182.731 75.2421 182.955 75.4661 182.955 75.7421V81.7421C182.955 82.0181 182.731 82.2421 182.455 82.2421ZM266.275 79.7331C265.999 79.7331 265.775 79.5091 265.775 79.2331V73.8431C265.775 73.6461 265.771 73.4501 265.762 73.2551C265.75 72.9791 265.964 72.7461 266.24 72.7341C266.517 72.7271 266.749 72.9361 266.761 73.2121C266.77 73.4211 266.775 73.6321 266.775 73.8431V79.2331C266.775 79.5101 266.551 79.7331 266.275 79.7331ZM238.328 79.1771C238.052 79.1771 237.828 78.9531 237.828 78.6771V73.8441C237.828 73.4381 237.845 73.0351 237.878 72.6371C237.9 72.3621 238.144 72.1571 238.418 72.1811C238.693 72.2041 238.897 72.4461 238.874 72.7211C238.843 73.0911 238.828 73.4661 238.828 73.8441V78.6771C238.828 78.9531 238.605 79.1771 238.328 79.1771ZM210.159 76.2821C209.883 76.2821 209.659 76.0581 209.659 75.7821V69.7821C209.659 69.5061 209.883 69.2821 210.159 69.2821C210.435 69.2821 210.659 69.5061 210.659 69.7821V75.7821C210.659 76.0581 210.435 76.2821 210.159 76.2821ZM294.962 71.7721C294.686 71.7721 294.462 71.5481 294.462 71.2721V65.2721C294.462 64.9961 294.686 64.7721 294.962 64.7721C295.238 64.7721 295.462 64.9961 295.462 65.2721V71.2721C295.462 71.5481 295.238 71.7721 294.962 71.7721ZM182.455 70.2421C182.179 70.2421 181.955 70.0181 181.955 69.7421V63.7421C181.955 63.4661 182.179 63.2421 182.455 63.2421C182.731 63.2421 182.955 63.4661 182.955 63.7421V69.7421C182.955 70.0181 182.731 70.2421 182.455 70.2421ZM354.578 70.1071C354.412 70.1071 354.25 70.0251 354.155 69.8751C353.146 68.2831 351.515 67.1481 349.679 66.7621C349.409 66.7051 349.236 66.4401 349.293 66.1701C349.35 65.9001 349.615 65.7281 349.885 65.7841C351.983 66.2251 353.847 67.5211 354.999 69.3401C355.147 69.5731 355.078 69.8821 354.844 70.0301C354.762 70.0821 354.669 70.1071 354.578 70.1071ZM264.731 67.9831C264.55 67.9831 264.376 67.8841 264.287 67.7131C263.405 66.0091 262.137 64.4841 260.618 63.3021C260.4 63.1331 260.361 62.8181 260.531 62.6001C260.7 62.3821 261.015 62.3411 261.233 62.5131C262.865 63.7841 264.228 65.4231 265.175 67.2531C265.302 67.4991 265.206 67.8001 264.961 67.9271C264.887 67.9651 264.808 67.9831 264.731 67.9831ZM240.138 67.4931C240.054 67.4931 239.969 67.4721 239.891 67.4281C239.651 67.2911 239.567 66.9861 239.704 66.7461C240.726 64.9541 242.154 63.3701 243.834 62.1671C244.059 62.0051 244.371 62.0581 244.531 62.2821C244.692 62.5061 244.64 62.8191 244.416 62.9791C242.853 64.0991 241.523 65.5731 240.573 67.2411C240.48 67.4031 240.311 67.4931 240.138 67.4931ZM343.794 66.6111H337.794C337.518 66.6111 337.294 66.3871 337.294 66.1111C337.294 65.8351 337.518 65.6111 337.794 65.6111H343.794C344.07 65.6111 344.294 65.8351 344.294 66.1111C344.294 66.3871 344.071 66.6111 343.794 66.6111ZM331.964 65.4341C331.895 65.4341 331.825 65.4201 331.758 65.3901C329.876 64.5361 328.179 63.2421 326.852 61.6471C326.675 61.4351 326.704 61.1201 326.916 60.9431C327.127 60.7661 327.443 60.7961 327.62 61.0071C328.851 62.4861 330.425 63.6871 332.171 64.4781C332.422 64.5921 332.534 64.8891 332.42 65.1401C332.336 65.3251 332.154 65.4341 331.964 65.4341ZM210.159 64.2821C209.883 64.2821 209.659 64.0581 209.659 63.7821V61.5291C209.659 60.3171 209.496 59.1171 209.177 57.9621C209.103 57.6961 209.26 57.4201 209.526 57.3471C209.79 57.2771 210.068 57.4301 210.141 57.6961C210.484 58.9371 210.659 60.2271 210.659 61.5291V63.7821C210.659 64.0581 210.435 64.2821 210.159 64.2821ZM255.553 60.8461C255.516 60.8461 255.478 60.8421 255.44 60.8331C254.458 60.6061 253.443 60.4911 252.423 60.4911H252.181C251.343 60.4911 250.504 60.5691 249.689 60.7231C249.421 60.7741 249.157 60.5961 249.105 60.3251C249.054 60.0541 249.232 59.7921 249.503 59.7411C250.379 59.5751 251.28 59.4911 252.18 59.4911H252.422C253.517 59.4911 254.608 59.6151 255.664 59.8591C255.933 59.9221 256.101 60.1901 256.039 60.4591C255.986 60.6901 255.78 60.8461 255.553 60.8461ZM294.962 59.7721C294.686 59.7721 294.462 59.5481 294.462 59.2721V53.2721C294.462 52.9961 294.686 52.7721 294.962 52.7721C295.238 52.7721 295.462 52.9961 295.462 53.2721V59.2721C295.462 59.5481 295.238 59.7721 294.962 59.7721ZM182.966 58.2891C182.921 58.2891 182.876 58.2831 182.831 58.2701C182.565 58.1961 182.41 57.9201 182.484 57.6541C183.047 55.6411 184.024 53.8111 185.388 52.2141C185.568 52.0041 185.884 51.9801 186.093 52.1581C186.303 52.3381 186.328 52.6531 186.149 52.8631C184.88 54.3491 183.971 56.0511 183.447 57.9241C183.386 58.1451 183.184 58.2891 182.966 58.2891ZM324.552 56.5181C324.327 56.5181 324.123 56.3651 324.067 56.1371C323.804 55.0661 323.671 53.9581 323.671 52.8451C323.671 51.9451 323.577 51.0471 323.391 50.1761C323.334 49.9061 323.506 49.6401 323.776 49.5831C324.045 49.5261 324.311 49.6981 324.369 49.9681C324.569 50.9071 324.67 51.8761 324.67 52.8451C324.67 53.8781 324.794 54.9061 325.037 55.8991C325.103 56.1671 324.939 56.4381 324.671 56.5031C324.631 56.5141 324.591 56.5181 324.552 56.5181ZM206.871 53.0701C206.729 53.0701 206.589 53.0101 206.49 52.8941C205.244 51.4261 203.666 50.2231 201.927 49.4151C201.677 49.2981 201.568 49.0011 201.684 48.7501C201.8 48.5001 202.097 48.3901 202.349 48.5071C204.218 49.3761 205.913 50.6691 207.253 52.2461C207.432 52.4561 207.406 52.7721 207.195 52.9511C207.1 53.0311 206.986 53.0701 206.871 53.0701ZM190.512 49.4441C190.323 49.4441 190.142 49.3371 190.057 49.1531C189.941 48.9021 190.051 48.6051 190.302 48.4891C192.191 47.6181 194.211 47.1761 196.307 47.1761C196.583 47.1761 196.816 47.4001 196.816 47.6761C196.816 47.9521 196.602 48.1761 196.326 48.1761C194.357 48.1761 192.477 48.5871 190.721 49.3971C190.653 49.4301 190.582 49.4441 190.512 49.4441ZM296.111 47.9351C296.043 47.9351 295.974 47.9211 295.907 47.8921C295.655 47.7791 295.542 47.4831 295.655 47.2311C296.499 45.3441 297.784 43.6411 299.373 42.3051C299.584 42.1281 299.898 42.1551 300.078 42.3661C300.256 42.5771 300.228 42.8931 300.017 43.0711C298.543 44.3101 297.351 45.8901 296.569 47.6401C296.485 47.8251 296.302 47.9351 296.111 47.9351ZM321.363 45.1831C321.214 45.1831 321.067 45.1171 320.968 44.9911C319.783 43.4751 318.247 42.2261 316.526 41.3801C316.278 41.2581 316.176 40.9591 316.298 40.7111C316.419 40.4631 316.716 40.3601 316.967 40.4831C318.823 41.3951 320.479 42.7411 321.756 44.3751C321.926 44.5931 321.887 44.9071 321.67 45.0771C321.579 45.1481 321.471 45.1831 321.363 45.1831ZM304.989 40.4771C304.765 40.4771 304.562 40.3261 304.505 40.0991C304.438 39.8311 304.6 39.5601 304.868 39.4931C305.959 39.2191 307.088 39.0801 308.222 39.0801C308.224 39.0801 308.226 39.0801 308.228 39.0801H310.904C311.18 39.0801 311.43 39.3041 311.43 39.5801C311.43 39.8561 311.232 40.0801 310.955 40.0801H308.227C308.225 40.0801 308.223 40.0801 308.221 40.0801C307.168 40.0801 306.122 40.2091 305.11 40.4631C305.07 40.4721 305.029 40.4771 304.989 40.4771Z" fill="#25292B"/>
<path d="M252.336 76.7545C261.593 76.7545 269.098 69.2499 269.098 59.9925C269.098 50.7351 261.593 43.2305 252.336 43.2305C243.079 43.2305 235.574 50.7351 235.574 59.9925C235.574 69.2499 243.079 76.7545 252.336 76.7545Z" fill="#C340F1"/>
<path d="M246.197 67.2778C245.995 67.2778 245.792 67.2118 245.622 67.0758L237.604 60.6718C237.385 60.4968 237.257 60.2308 237.257 59.9508C237.257 59.6708 237.385 59.4048 237.604 59.2298L245.519 52.9078C245.917 52.5898 246.498 52.6548 246.816 53.0528C247.134 53.4508 247.069 54.0318 246.671 54.3498L239.659 59.9508L246.774 65.6338C247.172 65.9518 247.237 66.5328 246.919 66.9308C246.737 67.1588 246.468 67.2778 246.197 67.2778Z" fill="#F2E9DA"/>
<path d="M258.475 67.2778C258.204 67.2778 257.936 67.1588 257.753 66.9308C257.435 66.5328 257.5 65.9518 257.898 65.6338L265.013 59.9508L258.001 54.3498C257.603 54.0318 257.538 53.4508 257.856 53.0528C258.174 52.6548 258.755 52.5898 259.153 52.9078L267.068 59.2298C267.287 59.4048 267.415 59.6708 267.415 59.9508C267.415 60.2308 267.287 60.4968 267.068 60.6718L259.05 67.0758C258.881 67.2118 258.677 67.2778 258.475 67.2778Z" fill="#F2E9DA"/>
<path d="M250.535 68.971C250.406 68.989 250.272 68.979 250.139 68.938C249.652 68.788 249.378 68.272 249.528 67.784L254.49 51.654C254.64 51.167 255.156 50.893 255.644 51.043C256.131 51.193 256.405 51.709 256.255 52.197L251.293 68.327C251.184 68.683 250.88 68.924 250.535 68.971Z" fill="#F2E9DA"/>
<path d="M256.111 143.91H258.702C258.702 141.743 258.208 139.561 257.264 137.601L254.931 138.727C254.148 137.103 253.008 135.684 251.614 134.573L253.23 132.55C252.38 131.872 251.457 131.29 250.476 130.813C249.496 130.344 248.461 129.982 247.399 129.742L246.826 132.265C245.973 132.07 245.083 131.968 244.169 131.968C243.255 131.968 242.364 132.07 241.51 132.267L240.937 129.742C239.875 129.982 238.84 130.344 237.86 130.813C236.882 131.29 235.956 131.873 235.106 132.55L236.722 134.573C235.327 135.684 234.188 137.103 233.405 138.727L231.072 137.601C230.13 139.562 229.636 141.744 229.634 143.91H232.227C232.227 145.766 232.651 147.525 233.406 149.093L231.073 150.219C232.027 152.174 233.404 153.921 235.108 155.27L236.724 153.245C238.104 154.348 239.731 155.151 241.512 155.554L240.939 158.079C243.064 158.565 245.276 158.565 247.402 158.079L246.829 155.556C248.61 155.151 250.237 154.349 251.617 153.245L253.233 155.27C254.936 153.921 256.316 152.174 257.268 150.219L254.935 149.093C255.687 147.525 256.111 145.767 256.111 143.91ZM244.166 152.103C239.743 152.103 236.157 148.517 236.157 144.092C236.157 139.669 239.743 136.083 244.166 136.083C248.591 136.083 252.177 139.669 252.177 144.092C252.176 148.517 248.59 152.103 244.166 152.103Z" fill="#C340F1"/>
<path d="M293.926 166.508H298.956C298.948 165.34 298.86 164.169 298.68 163.007C298.498 161.847 298.217 160.701 297.859 159.583C297.504 158.462 297.041 157.376 296.509 156.33C295.975 155.286 295.366 154.278 294.669 153.333L290.606 156.289C288.471 153.355 285.441 151.115 281.914 149.972L283.465 145.19C278.983 143.73 274.096 143.73 269.613 145.19L271.167 149.972C267.641 151.115 264.608 153.355 262.473 156.292L258.41 153.333C257.716 154.278 257.104 155.286 256.572 156.33C256.038 157.377 255.577 158.462 255.222 159.583C254.861 160.701 254.58 161.848 254.398 163.007C254.222 164.17 254.131 165.34 254.125 166.508H259.153C259.153 170.329 260.384 173.861 262.473 176.729L258.41 179.685C261.157 183.489 265.137 186.377 269.614 187.828L271.168 183.048C272.859 183.596 274.664 183.894 276.54 183.894C278.416 183.894 280.223 183.596 281.915 183.045L283.466 187.827C287.943 186.375 291.923 183.488 294.67 179.684L290.607 176.728C292.695 173.861 293.926 170.329 293.926 166.508ZM276.543 175.896C271.053 175.896 266.606 171.447 266.606 165.959C266.606 160.471 271.052 156.022 276.543 156.022C282.031 156.022 286.477 160.471 286.477 165.959C286.477 171.447 282.031 175.896 276.543 175.896Z" fill="#C340F1"/>
<path d="M265.96 141.638C269.245 141.638 271.908 138.975 271.908 135.69C271.908 132.405 269.245 129.742 265.96 129.742C262.675 129.742 260.012 132.405 260.012 135.69C260.012 138.975 262.675 141.638 265.96 141.638Z" fill="#C340F1"/>
</svg>
