<svg width="500" height="500" viewBox="0 0 500 500" fill="none" xmlns="http://www.w3.org/2000/svg">
<path d="M83.948 399.995L73.321 392.683C73.321 392.683 67.182 401.606 57.799 395.385C52.926 392.154 52.6 387.282 53.248 384.167C54.001 380.55 56.558 377.597 59.927 376.081C63.774 374.349 69.583 374.366 75.876 380.555L92.363 356.594L81.855 349.364L72.197 363.4C72.197 363.4 54.838 357.069 43.663 373.311C32.971 388.851 44.423 402.048 50.388 406.153C54.95 409.291 71.248 418.881 83.948 399.995Z" fill="#EBEBEB"/>
<path d="M85.1146 344.354L95.7787 351.691L102.631 341.732L91.9672 334.394L85.1146 344.354Z" fill="#EBEBEB"/>
<path d="M129.259 429.389L134.902 427.901C134.902 427.901 133.652 423.163 138.554 421.779C141.1 421.06 142.868 422.386 143.745 423.527C144.764 424.852 145.022 426.601 144.549 428.204C144.008 430.035 142.289 432.022 138.309 432.355L141.665 445.079L147.245 443.607L145.279 436.154C145.279 436.154 152.571 432.067 150.296 423.442C148.119 415.19 140.214 415.226 137.046 416.061C134.623 416.699 126.526 419.462 129.259 429.389Z" fill="#EBEBEB"/>
<path d="M148.02 446.19L142.357 447.685L143.752 452.974L149.415 451.479L148.02 446.19Z" fill="#EBEBEB"/>
<path d="M222.996 73.0713C225.887 71.3243 228.965 69.9993 232.139 69.0973L234.022 60.0473L249.313 59.7793L251.514 68.7573C254.718 69.5473 257.841 70.7623 260.792 72.4073L268.52 67.3413L279.522 77.9643L274.732 85.8643C276.48 88.7563 277.804 91.8353 278.705 95.0103L287.754 96.8933L288.023 112.184L279.045 114.385C278.256 117.589 277.04 120.711 275.395 123.662L280.46 131.391L269.838 142.393L261.937 137.603C259.045 139.35 255.967 140.675 252.792 141.576L250.908 150.626L235.618 150.894L233.417 141.915C230.213 141.125 227.091 139.909 224.14 138.265L216.412 143.331L205.41 132.708L210.2 124.808C208.453 121.916 207.127 118.838 206.226 115.663L197.176 113.78L196.908 98.4893L205.886 96.2883C206.676 93.0843 207.892 89.9623 209.536 87.0113L204.471 79.2833L215.093 68.2813L222.996 73.0713ZM231.147 93.4403C224.853 99.9593 225.036 110.345 231.555 116.638C238.074 122.931 248.46 122.749 254.753 116.23C261.046 109.712 260.864 99.3253 254.345 93.0323C247.826 86.7403 237.44 86.9223 231.147 93.4403Z" fill="#F5F5F5"/>
<path d="M158.96 41.1951C160.625 40.1891 162.398 39.4261 164.226 38.9061L165.311 33.6931L174.118 33.5391L175.385 38.7101C177.231 39.1651 179.029 39.8651 180.729 40.8121L185.18 37.8941L191.517 44.0131L188.758 48.5631C189.765 50.2291 190.528 52.0021 191.047 53.8301L196.259 54.9151L196.414 63.7221L191.243 64.9901C190.788 66.8351 190.088 68.6341 189.141 70.3331L192.058 74.7841L185.94 81.1211L181.389 78.3621C179.724 79.3691 177.95 80.1311 176.122 80.6501L175.037 85.8631L166.23 86.0181L164.962 80.8471C163.117 80.3921 161.318 79.6921 159.619 78.7451L155.168 81.6631L148.831 75.5451L151.59 70.9951C150.584 69.3291 149.82 67.5571 149.301 65.7281L144.089 64.6431L143.934 55.8361L149.105 54.5681C149.56 52.7231 150.261 50.9241 151.207 49.2251L148.29 44.7741L154.408 38.4371L158.96 41.1951ZM163.655 52.9271C160.03 56.6821 160.135 62.6631 163.89 66.2881C167.645 69.9131 173.627 69.8081 177.251 66.0531C180.876 62.2991 180.771 56.3161 177.016 52.6921C173.261 49.0681 167.279 49.1731 163.655 52.9271Z" fill="#EBEBEB"/>
<path d="M440.066 204.712C441.731 203.706 443.504 202.943 445.332 202.423L446.417 197.21L455.224 197.055L456.491 202.226C458.337 202.681 460.135 203.381 461.835 204.328L466.286 201.41L472.623 207.529L469.864 212.079C470.871 213.745 471.634 215.518 472.153 217.347L477.365 218.432L477.52 227.239L472.349 228.507C471.894 230.352 471.194 232.15 470.247 233.85L473.164 238.301L467.046 244.638L462.495 241.879C460.83 242.886 459.056 243.648 457.228 244.167L456.143 249.38L447.336 249.534L446.068 244.363C444.223 243.908 442.424 243.208 440.725 242.261L436.274 245.179L429.937 239.061L432.696 234.511C431.689 232.845 430.926 231.073 430.407 229.244L425.195 228.159L425.04 219.352L430.211 218.084C430.666 216.239 431.366 214.44 432.313 212.741L429.396 208.29L435.514 201.953L440.066 204.712ZM444.761 216.444C441.136 220.199 441.241 226.18 444.996 229.805C448.75 233.43 454.733 233.325 458.357 229.57C461.982 225.815 461.877 219.833 458.122 216.209C454.368 212.585 448.386 212.69 444.761 216.444Z" fill="#EBEBEB"/>
<path d="M463.779 465.311C463.779 465.455 368.955 465.571 252.01 465.571C135.024 465.571 40.22 465.454 40.22 465.311C40.22 465.168 135.024 465.051 252.01 465.051C368.955 465.051 463.779 465.168 463.779 465.311Z" fill="#263238"/>
<path d="M417.656 464.585L275.64 464.5C258.56 464.491 244.719 450.639 244.723 433.559L244.793 77.5228C244.796 60.4328 258.656 46.5838 275.746 46.5928L417.762 46.6758C434.842 46.6858 448.682 60.5368 448.679 77.6178L448.609 433.655C448.606 450.746 434.746 464.595 417.656 464.585Z" fill="#455A64"/>
<path d="M417.612 59.2695L390.078 59.2535C386.386 59.2515 383.391 62.3795 383.391 66.2395L383.389 71.2335C383.389 75.0935 380.394 78.2215 376.702 78.2195L323.031 78.1875C319.339 78.1855 316.346 75.0545 316.346 71.1945L316.347 66.2005C316.347 62.3405 313.354 59.2085 309.662 59.2075L299.978 59.2015L275.879 59.1875C263.91 59.1805 254.204 68.8805 254.201 80.8485L254.133 428.366C254.13 440.33 263.823 450.029 275.786 450.036L417.518 450.12C429.486 450.127 439.193 440.428 439.196 428.459L439.264 80.9405C439.266 68.9765 429.574 59.2765 417.612 59.2695Z" fill="white"/>
<path d="M439.254 132.314V80.5385C439.042 68.7615 429.439 59.2765 417.612 59.2695L390.077 59.2535C386.385 59.2515 383.39 62.3795 383.39 66.2385L383.388 71.2335C383.388 75.0935 380.393 78.2215 376.701 78.2195L323.03 78.1875C319.338 78.1855 316.345 75.0545 316.345 71.1945L316.346 66.1995C316.346 62.3395 313.353 59.2085 309.661 59.2065L299.977 59.2005L275.878 59.1865C263.909 59.1795 254.202 68.8795 254.2 80.8475L254.19 132.465H439.253L439.254 132.314Z" fill="#EBEBEB"/>
<path d="M291.937 202.534C304.325 202.534 314.367 192.512 314.367 180.151C314.367 167.789 304.325 157.768 291.937 157.768C279.549 157.768 269.507 167.789 269.507 180.151C269.507 192.512 279.549 202.534 291.937 202.534Z" fill="#E0E0E0"/>
<path d="M281.464 185.752L287.335 185.254L301.679 187.67L303.372 198.461L303.132 199.716C296.197 203.565 288.44 203.47 281.87 200.205L281.464 185.752Z" fill="#455A64"/>
<path d="M298.612 187.497C298.612 187.497 303.13 186.603 306.051 190.767C307.839 193.315 308.716 195.004 308.716 195.004C306.384 197.54 304.485 199.471 301.24 200.597L298.612 187.497Z" fill="#455A64"/>
<path d="M281.464 185.752C281.464 185.752 277.583 186.227 276.076 189.535C274.569 192.844 274.227 193.884 274.227 193.884C276.236 196.298 278.787 199.156 281.916 200.228C281.916 200.228 282.63 191.893 282.725 189.535C282.828 186.952 282.929 185.678 281.464 185.752Z" fill="#455A64"/>
<path d="M285.017 164.552C287.113 161.996 289.928 160.524 293.238 160.469C295.105 160.438 295.878 160.825 297.223 161.187C298.568 161.549 299.781 162.269 300.583 163.405C301.536 164.754 302.336 166.266 302.516 167.907C302.701 169.593 302.886 171.289 302.759 172.98C302.632 174.671 302.171 176.374 301.173 177.746L296.862 178.493C294.481 178.574 292.067 178.652 289.747 178.11C287.427 177.568 285.173 176.322 283.931 174.294C282.204 171.476 282.921 167.108 285.017 164.552Z" fill="#263238"/>
<path d="M280.838 177.041C280.945 176.07 281.455 175.117 282.298 174.62C283.141 174.123 284.318 174.175 285.02 174.855L285.697 175.661C286.759 176.112 287.426 177.317 287.298 178.461C287.17 179.606 286.288 180.615 285.183 180.951C284.079 181.287 282.813 180.962 281.969 180.176C281.125 179.39 280.712 178.186 280.838 177.041Z" fill="#263238"/>
<path d="M281.693 179.943C281.724 179.928 281.425 179.653 281.461 179.087C281.497 178.536 281.898 177.814 282.448 177.153C283.009 176.488 283.67 176.034 284.176 175.771C284.681 175.5 285.028 175.402 285.018 175.366C285.014 175.345 284.648 175.393 284.11 175.637C283.573 175.872 282.87 176.325 282.287 177.017C281.995 177.36 281.761 177.724 281.59 178.075C281.417 178.424 281.309 178.777 281.312 179.083C281.311 179.389 281.41 179.627 281.505 179.765C281.602 179.904 281.685 179.952 281.693 179.943Z" fill="#455A64"/>
<path d="M296.822 186.726C296.822 186.726 296.799 182.728 296.799 182.734C296.799 182.734 300.315 182.348 301.286 177.851C301.769 175.615 301.859 171.91 301.834 168.876C301.812 166.145 299.482 162.427 296.103 162.415L294.602 162.241L288.854 164.521C288.024 164.563 287.364 165.232 287.335 166.061L287.162 185.266L289.795 188.956C291.978 192.019 296.804 190.487 296.822 186.726Z" fill="#FFBE9D"/>
<path d="M294.527 176.8C294.558 176.563 294.69 176.353 294.859 176.21C295.196 175.922 295.688 175.894 296.048 176.142C296.408 176.39 296.615 176.899 296.547 177.372C296.345 177.649 296.035 177.837 295.693 177.866C295.64 177.871 295.586 177.873 295.533 177.871C295.273 177.864 295.009 177.777 294.811 177.586C294.611 177.395 294.488 177.092 294.527 176.8Z" fill="#EB996E"/>
<path d="M299.761 172.011C299.755 172.319 299.489 172.568 299.167 172.567C298.845 172.567 298.589 172.317 298.595 172.01C298.601 171.702 298.867 171.453 299.189 171.453C299.511 171.454 299.767 171.704 299.761 172.011Z" fill="#263238"/>
<path d="M300.715 170.561C300.639 170.633 300.215 170.283 299.587 170.25C298.961 170.208 298.483 170.505 298.419 170.425C298.387 170.389 298.469 170.256 298.677 170.122C298.882 169.988 299.227 169.865 299.617 169.888C300.008 169.912 300.328 170.073 300.509 170.23C300.695 170.389 300.753 170.529 300.715 170.561Z" fill="#263238"/>
<path d="M296.773 175.304C296.772 175.268 297.166 175.222 297.802 175.176C297.963 175.168 298.117 175.145 298.15 175.037C298.194 174.923 298.137 174.748 298.069 174.557C297.94 174.162 297.804 173.748 297.662 173.314C297.1 171.545 296.702 170.094 296.773 170.072C296.845 170.05 297.359 171.466 297.921 173.235C298.056 173.671 298.185 174.087 298.307 174.484C298.358 174.669 298.45 174.881 298.356 175.116C298.306 175.233 298.184 175.313 298.08 175.335C297.976 175.361 297.885 175.357 297.806 175.358C297.168 175.358 296.773 175.339 296.773 175.304Z" fill="#263238"/>
<path d="M296.799 182.734C296.799 182.734 293.73 182.763 290.8 180.78C290.8 180.78 292.249 184.013 296.822 183.837L296.799 182.734Z" fill="#EB996E"/>
<path d="M294.903 175.635C295.005 175.635 294.969 176.314 295.526 176.828C296.081 177.344 296.811 177.307 296.811 177.402C296.818 177.445 296.642 177.525 296.335 177.517C296.034 177.511 295.6 177.39 295.26 177.076C294.92 176.761 294.789 176.358 294.781 176.078C294.771 175.793 294.857 175.629 294.903 175.635Z" fill="#263238"/>
<path d="M300.591 168.202C300.477 168.349 300.002 168.221 299.439 168.237C298.875 168.235 298.402 168.375 298.286 168.23C298.235 168.16 298.304 168.014 298.507 167.871C298.707 167.728 299.046 167.605 299.434 167.6C299.822 167.596 300.162 167.711 300.364 167.849C300.569 167.987 300.641 168.13 300.591 168.202Z" fill="#263238"/>
<path d="M292.882 171.969C292.866 172.276 293.113 172.544 293.435 172.567C293.756 172.59 294.03 172.36 294.046 172.052C294.062 171.745 293.815 171.477 293.494 171.454C293.173 171.431 292.899 171.662 292.882 171.969Z" fill="#263238"/>
<path d="M292.119 170.336C292.19 170.413 292.638 170.094 293.266 170.107C293.894 170.11 294.349 170.441 294.418 170.365C294.452 170.332 294.38 170.193 294.183 170.044C293.988 169.895 293.653 169.748 293.262 169.743C292.871 169.738 292.539 169.876 292.347 170.02C292.152 170.165 292.084 170.301 292.119 170.336Z" fill="#263238"/>
<path d="M291.758 168.99C291.879 169.134 292.366 168.995 292.949 168.998C293.532 168.983 294.023 169.112 294.14 168.966C294.191 168.894 294.116 168.751 293.902 168.612C293.692 168.474 293.338 168.358 292.938 168.362C292.537 168.367 292.188 168.489 291.983 168.632C291.775 168.775 291.705 168.92 291.758 168.99Z" fill="#263238"/>
<path d="M288.115 173.686C288.133 173.348 287.785 172.53 287.454 172.46C286.569 172.272 284.956 172.256 284.817 174.517C284.626 177.608 287.776 177.162 287.787 177.073C287.795 177.004 288.054 174.852 288.115 173.686Z" fill="#FFBE9D"/>
<path d="M287.001 175.891C286.988 175.88 286.945 175.926 286.851 175.962C286.759 175.997 286.605 176.016 286.447 175.946C286.127 175.806 285.883 175.271 285.903 174.712C285.912 174.43 285.988 174.166 286.102 173.95C286.211 173.73 286.367 173.581 286.534 173.562C286.7 173.534 286.811 173.64 286.843 173.729C286.879 173.818 286.856 173.879 286.872 173.885C286.88 173.893 286.942 173.837 286.925 173.708C286.916 173.646 286.884 173.571 286.815 173.507C286.744 173.442 286.637 173.405 286.521 173.41C286.281 173.412 286.053 173.618 285.928 173.855C285.79 174.092 285.698 174.389 285.688 174.705C285.669 175.329 285.953 175.932 286.393 176.088C286.607 176.158 286.793 176.104 286.892 176.036C286.991 175.966 287.012 175.898 287.001 175.891Z" fill="#EB996E"/>
<path d="M287.327 172.467L288.114 173.282C291.513 170.035 298.156 161.906 297.785 162.391C297.785 162.391 295.457 161.435 292.929 161.865C290.402 162.295 285.607 163.557 285.681 166.532C285.755 169.506 287.327 172.467 287.327 172.467Z" fill="#263238"/>
<path d="M282.826 171.786C282.821 171.784 282.837 171.723 282.873 171.607C282.91 171.492 282.977 171.324 283.084 171.12C283.3 170.713 283.712 170.162 284.379 169.666C285.036 169.157 285.948 168.741 286.986 168.415C288.022 168.078 289.191 167.817 290.337 167.325C291.491 166.852 292.52 166.242 293.398 165.614C294.273 164.979 294.995 164.321 295.558 163.729C296.122 163.136 296.531 162.615 296.807 162.25C296.934 162.076 297.037 161.935 297.118 161.824C297.19 161.727 297.23 161.677 297.235 161.68C297.24 161.683 297.209 161.738 297.145 161.841C297.08 161.943 296.989 162.096 296.858 162.285C296.596 162.663 296.198 163.198 295.64 163.805C295.083 164.411 294.362 165.084 293.484 165.731C292.603 166.372 291.565 166.992 290.398 167.47C289.236 167.967 288.06 168.226 287.03 168.553C285.996 168.87 285.099 169.267 284.446 169.755C283.783 170.23 283.367 170.758 283.138 171.149C282.911 171.545 282.842 171.792 282.826 171.786Z" fill="#455A64"/>
<path d="M283.727 172.273C283.727 172.273 283.696 172.02 283.847 171.597C283.991 171.178 284.358 170.608 285.011 170.141C285.658 169.659 286.581 169.361 287.596 169.13C288.615 168.905 289.721 168.619 290.808 168.113C291.894 167.611 292.868 167.003 293.672 166.349C294.481 165.699 295.133 165.025 295.635 164.423C296.144 163.825 296.485 163.286 296.73 162.921C296.837 162.745 296.923 162.602 296.993 162.488C297.055 162.39 297.089 162.339 297.094 162.342C297.099 162.345 297.073 162.4 297.021 162.503C296.958 162.621 296.88 162.77 296.783 162.952C296.554 163.328 296.224 163.88 295.722 164.493C295.226 165.109 294.576 165.798 293.764 166.461C292.956 167.129 291.973 167.748 290.874 168.256C289.776 168.768 288.645 169.056 287.629 169.271C286.616 169.494 285.711 169.775 285.076 170.231C284.432 170.674 284.063 171.215 283.905 171.617C283.74 172.024 283.749 172.276 283.727 172.273Z" fill="#455A64"/>
<path d="M281.916 200.206C281.859 200.206 281.813 198.882 281.813 197.25C281.813 195.617 281.859 194.294 281.916 194.294C281.973 194.294 282.02 195.617 282.02 197.25C282.019 198.882 281.973 200.206 281.916 200.206Z" fill="#263238"/>
<path d="M303.141 199.794C303.11 199.791 303.139 199.389 303.176 198.744C303.206 198.099 303.247 197.204 303.089 196.238C302.926 195.273 302.6 194.435 302.369 193.83C302.13 193.227 301.979 192.853 302.007 192.84C302.031 192.83 302.23 193.182 302.504 193.775C302.771 194.369 303.125 195.213 303.293 196.206C303.455 197.2 303.388 198.111 303.321 198.756C303.247 199.402 303.167 199.796 303.141 199.794Z" fill="#263238"/>
<path d="M411.076 208.568H334.633C330.837 208.568 327.76 205.491 327.76 201.695V169.596L319.333 162.115H327.76H411.076C414.872 162.115 417.949 165.192 417.949 168.988V201.695C417.949 205.491 414.871 208.568 411.076 208.568Z" fill="#EBEBEB"/>
<path d="M405.836 213.769C405.836 213.913 402.185 214.029 397.682 214.029C393.177 214.029 389.527 213.912 389.527 213.769C389.527 213.625 393.177 213.509 397.682 213.509C402.185 213.508 405.836 213.625 405.836 213.769Z" fill="#E0E0E0"/>
<path d="M409.211 214.411C409.124 214.4 409.077 214.383 409.03 214.334L407.453 212.682C407.357 212.582 407.361 212.424 407.461 212.328C407.561 212.234 407.72 212.236 407.814 212.336L409.213 213.801L412.278 210.682C412.377 210.584 412.535 210.583 412.632 210.679C412.731 210.776 412.733 210.934 412.636 211.033L409.389 214.336C409.341 214.384 409.278 214.411 409.211 214.411Z" fill="#C340F1"/>
<path d="M411.464 214.359C411.462 214.359 411.46 214.359 411.458 214.359L411.168 214.352C411.029 214.349 410.921 214.234 410.924 214.096C410.928 213.958 411.06 213.852 411.18 213.852L411.362 213.857L414.533 210.63C414.632 210.532 414.79 210.531 414.886 210.627C414.985 210.724 414.987 210.882 414.89 210.981L411.643 214.285C411.595 214.332 411.532 214.359 411.464 214.359Z" fill="#C340F1"/>
<path d="M405.836 339.44C405.836 339.584 402.185 339.7 397.682 339.7C393.177 339.7 389.527 339.583 389.527 339.44C389.527 339.296 393.177 339.18 397.682 339.18C402.185 339.179 405.836 339.296 405.836 339.44Z" fill="#E0E0E0"/>
<path d="M409.211 340.081H409.209C409.142 340.081 409.077 340.053 409.03 340.004L407.453 338.353C407.357 338.253 407.361 338.095 407.461 337.999C407.561 337.905 407.72 337.908 407.814 338.007L409.213 339.472L412.278 336.353C412.377 336.254 412.535 336.252 412.632 336.349C412.731 336.447 412.733 336.605 412.636 336.703L409.389 340.007C409.341 340.054 409.278 340.081 409.211 340.081Z" fill="#C340F1"/>
<path d="M411.464 340.03C411.462 340.03 411.459 340.03 411.457 340.03L411.167 340.022C411.029 340.018 410.92 339.903 410.924 339.765C410.928 339.627 411.031 339.496 411.181 339.522L411.363 339.527L414.533 336.301C414.632 336.201 414.79 336.201 414.886 336.297C414.985 336.395 414.987 336.553 414.89 336.65L411.643 339.954C411.595 340.002 411.532 340.03 411.464 340.03Z" fill="#C340F1"/>
<path d="M410.098 171.307C410.098 171.451 393.408 171.567 372.825 171.567C352.235 171.567 335.549 171.45 335.549 171.307C335.549 171.164 352.235 171.047 372.825 171.047C393.408 171.047 410.098 171.163 410.098 171.307Z" fill="white"/>
<path d="M410.098 176.783C410.098 176.927 393.408 177.043 372.825 177.043C352.235 177.043 335.549 176.926 335.549 176.783C335.549 176.64 352.235 176.523 372.825 176.523C393.408 176.522 410.098 176.639 410.098 176.783Z" fill="white"/>
<path d="M410.098 182.26C410.098 182.404 393.408 182.52 372.825 182.52C352.235 182.52 335.549 182.403 335.549 182.26C335.549 182.117 352.235 182 372.825 182C393.408 182 410.098 182.116 410.098 182.26Z" fill="white"/>
<path d="M291.937 342.1C304.325 342.1 314.367 332.079 314.367 319.717C314.367 307.355 304.325 297.334 291.937 297.334C279.549 297.334 269.507 307.355 269.507 319.717C269.507 332.079 279.549 342.1 291.937 342.1Z" fill="#E0E0E0"/>
<path d="M281.464 325.318L287.335 324.82L301.679 327.236L303.372 338.027L303.132 339.282C296.197 343.131 288.44 343.036 281.87 339.771L281.464 325.318Z" fill="#455A64"/>
<path d="M298.612 327.064C298.612 327.064 303.13 326.17 306.051 330.334C307.839 332.882 308.716 334.571 308.716 334.571C306.384 337.107 304.485 339.038 301.24 340.165L298.612 327.064Z" fill="#455A64"/>
<path d="M281.464 325.318C281.464 325.318 277.583 325.793 276.076 329.102C274.569 332.411 274.227 333.451 274.227 333.451C276.236 335.865 278.787 338.723 281.916 339.795C281.916 339.795 282.63 331.46 282.725 329.102C282.828 326.519 282.929 325.244 281.464 325.318Z" fill="#455A64"/>
<path d="M285.017 304.118C287.113 301.562 289.928 300.09 293.238 300.035C295.105 300.004 295.878 300.391 297.223 300.754C298.568 301.116 299.781 301.836 300.583 302.972C301.536 304.321 302.336 305.833 302.516 307.473C302.701 309.159 302.886 310.856 302.759 312.546C302.632 314.237 302.171 315.94 301.173 317.312L296.862 318.059C294.481 318.14 292.067 318.218 289.747 317.676C287.427 317.134 285.173 315.888 283.931 313.86C282.204 311.043 282.921 306.675 285.017 304.118Z" fill="#263238"/>
<path d="M280.838 316.608C280.945 315.637 281.455 314.684 282.298 314.187C283.141 313.69 284.318 313.742 285.02 314.422L285.697 315.228C286.759 315.679 287.426 316.884 287.298 318.029C287.17 319.174 286.288 320.183 285.183 320.519C284.079 320.855 282.813 320.529 281.969 319.744C281.125 318.958 280.712 317.753 280.838 316.608Z" fill="#263238"/>
<path d="M281.693 319.509C281.724 319.494 281.425 319.219 281.461 318.653C281.497 318.102 281.898 317.38 282.448 316.719C283.009 316.054 283.67 315.6 284.176 315.337C284.681 315.066 285.028 314.968 285.018 314.932C285.014 314.911 284.648 314.959 284.11 315.203C283.573 315.438 282.87 315.891 282.287 316.583C281.995 316.926 281.761 317.29 281.59 317.641C281.417 317.99 281.309 318.343 281.312 318.649C281.311 318.956 281.41 319.193 281.505 319.331C281.602 319.47 281.685 319.519 281.693 319.509Z" fill="#455A64"/>
<path d="M296.842 326.66C296.842 326.66 296.819 322.661 296.819 322.669C296.819 322.669 300.335 322.282 301.306 317.786C301.789 315.55 301.879 311.845 301.854 308.812C301.832 306.081 299.502 302.363 296.123 302.351L294.622 302.177L288.874 304.457C288.044 304.499 287.384 305.168 287.355 305.997L287.182 325.202L289.815 328.892C291.998 331.953 296.824 330.421 296.842 326.66Z" fill="#FFBE9D"/>
<path d="M294.527 316.367C294.558 316.13 294.69 315.92 294.859 315.777C295.196 315.489 295.688 315.461 296.048 315.709C296.408 315.957 296.615 316.466 296.547 316.939C296.345 317.216 296.035 317.404 295.693 317.433C295.64 317.437 295.586 317.439 295.533 317.438C295.273 317.431 295.009 317.344 294.811 317.153C294.611 316.962 294.488 316.659 294.527 316.367Z" fill="#EB996E"/>
<path d="M299.761 311.958C299.755 312.266 299.489 312.515 299.167 312.514C298.845 312.514 298.589 312.265 298.595 311.957C298.601 311.649 298.867 311.4 299.189 311.401C299.511 311.401 299.767 311.651 299.761 311.958Z" fill="#263238"/>
<path d="M300.715 310.509C300.639 310.581 300.215 310.231 299.587 310.198C298.961 310.156 298.483 310.453 298.419 310.373C298.387 310.337 298.469 310.204 298.677 310.07C298.882 309.936 299.227 309.813 299.617 309.836C300.008 309.86 300.328 310.021 300.509 310.178C300.695 310.336 300.753 310.477 300.715 310.509Z" fill="#263238"/>
<path d="M296.773 315.251C296.772 315.215 297.166 315.17 297.802 315.123C297.963 315.115 298.117 315.092 298.15 314.984C298.194 314.87 298.137 314.694 298.069 314.504C297.94 314.109 297.804 313.695 297.662 313.261C297.1 311.492 296.702 310.041 296.773 310.019C296.845 309.997 297.359 311.413 297.921 313.182C298.056 313.618 298.185 314.034 298.307 314.431C298.358 314.616 298.45 314.828 298.356 315.063C298.306 315.18 298.184 315.26 298.08 315.282C297.976 315.308 297.885 315.304 297.806 315.305C297.168 315.305 296.773 315.286 296.773 315.251Z" fill="#263238"/>
<path d="M296.799 322.682C296.799 322.682 293.73 322.711 290.8 320.728C290.8 320.728 292.249 323.961 296.822 323.786L296.799 322.682Z" fill="#EB996E"/>
<path d="M294.903 315.583C295.005 315.583 294.969 316.262 295.526 316.776C296.081 317.292 296.811 317.255 296.811 317.35C296.818 317.393 296.642 317.473 296.335 317.465C296.034 317.459 295.6 317.338 295.26 317.024C294.92 316.709 294.789 316.306 294.781 316.026C294.771 315.74 294.857 315.576 294.903 315.583Z" fill="#263238"/>
<path d="M300.591 308.149C300.477 308.296 300.002 308.167 299.439 308.183C298.875 308.181 298.402 308.321 298.286 308.176C298.235 308.106 298.304 307.96 298.507 307.817C298.707 307.675 299.046 307.551 299.434 307.546C299.822 307.542 300.162 307.657 300.364 307.795C300.569 307.934 300.641 308.078 300.591 308.149Z" fill="#263238"/>
<path d="M292.882 311.916C292.866 312.224 293.113 312.491 293.435 312.514C293.756 312.537 294.03 312.307 294.046 311.999C294.062 311.692 293.815 311.424 293.494 311.401C293.173 311.379 292.899 311.609 292.882 311.916Z" fill="#263238"/>
<path d="M292.119 310.284C292.19 310.361 292.638 310.042 293.266 310.055C293.894 310.058 294.349 310.389 294.418 310.313C294.452 310.28 294.38 310.141 294.183 309.992C293.988 309.843 293.653 309.696 293.262 309.691C292.871 309.687 292.539 309.825 292.347 309.968C292.152 310.113 292.084 310.25 292.119 310.284Z" fill="#263238"/>
<path d="M291.758 308.939C291.879 309.083 292.366 308.944 292.949 308.947C293.532 308.932 294.023 309.061 294.14 308.914C294.191 308.842 294.116 308.699 293.902 308.56C293.692 308.422 293.338 308.306 292.938 308.31C292.537 308.314 292.188 308.437 291.983 308.58C291.775 308.723 291.705 308.868 291.758 308.939Z" fill="#263238"/>
<path d="M288.115 313.252C288.133 312.914 287.785 312.096 287.454 312.026C286.569 311.838 284.956 311.822 284.817 314.083C284.626 317.174 287.776 316.728 287.787 316.639C287.795 316.57 288.054 314.418 288.115 313.252Z" fill="#FFBE9D"/>
<path d="M287.001 315.458C286.988 315.447 286.945 315.492 286.851 315.529C286.759 315.564 286.605 315.583 286.447 315.513C286.127 315.373 285.883 314.838 285.903 314.279C285.912 313.997 285.988 313.733 286.102 313.517C286.211 313.297 286.367 313.148 286.534 313.129C286.7 313.101 286.811 313.207 286.843 313.296C286.879 313.385 286.856 313.446 286.872 313.452C286.88 313.46 286.942 313.404 286.925 313.275C286.916 313.213 286.884 313.137 286.815 313.074C286.744 313.009 286.637 312.972 286.521 312.977C286.281 312.979 286.053 313.185 285.928 313.422C285.79 313.659 285.698 313.956 285.688 314.272C285.669 314.896 285.953 315.499 286.393 315.655C286.607 315.725 286.793 315.671 286.892 315.603C286.991 315.532 287.012 315.464 287.001 315.458Z" fill="#EB996E"/>
<path d="M287.327 312.035L288.114 312.85C291.513 309.603 298.156 301.474 297.785 301.959C297.785 301.959 295.457 301.003 292.929 301.433C290.402 301.863 285.607 303.125 285.681 306.1C285.755 309.073 287.327 312.035 287.327 312.035Z" fill="#263238"/>
<path d="M282.826 311.352C282.821 311.351 282.837 311.289 282.873 311.173C282.91 311.057 282.977 310.89 283.084 310.686C283.3 310.279 283.712 309.728 284.379 309.232C285.036 308.723 285.948 308.307 286.986 307.981C288.022 307.644 289.191 307.383 290.337 306.891C291.491 306.418 292.52 305.808 293.398 305.18C294.273 304.545 294.995 303.887 295.558 303.295C296.122 302.702 296.531 302.181 296.807 301.816C296.934 301.642 297.037 301.501 297.118 301.39C297.19 301.293 297.23 301.243 297.235 301.246C297.24 301.249 297.209 301.304 297.145 301.407C297.08 301.509 296.989 301.663 296.858 301.852C296.596 302.23 296.198 302.765 295.64 303.372C295.083 303.978 294.362 304.651 293.484 305.298C292.603 305.939 291.565 306.559 290.398 307.037C289.236 307.534 288.06 307.793 287.03 308.12C285.996 308.437 285.099 308.834 284.446 309.322C283.783 309.797 283.367 310.325 283.138 310.716C282.911 311.111 282.842 311.358 282.826 311.352Z" fill="#455A64"/>
<path d="M283.727 311.839C283.727 311.839 283.696 311.586 283.847 311.163C283.991 310.744 284.358 310.174 285.011 309.707C285.658 309.225 286.581 308.927 287.596 308.696C288.615 308.472 289.721 308.185 290.808 307.679C291.894 307.177 292.868 306.569 293.672 305.915C294.481 305.265 295.133 304.591 295.635 303.989C296.144 303.391 296.485 302.852 296.73 302.488C296.837 302.312 296.923 302.169 296.993 302.055C297.055 301.957 297.089 301.906 297.094 301.909C297.099 301.912 297.073 301.967 297.021 302.07C296.958 302.188 296.88 302.337 296.783 302.519C296.554 302.895 296.224 303.447 295.722 304.06C295.226 304.676 294.576 305.365 293.764 306.028C292.956 306.696 291.973 307.315 290.874 307.823C289.776 308.335 288.645 308.623 287.629 308.838C286.616 309.061 285.711 309.342 285.076 309.798C284.432 310.241 284.063 310.782 283.905 311.184C283.74 311.59 283.749 311.842 283.727 311.839Z" fill="#455A64"/>
<path d="M281.916 339.772C281.859 339.772 281.813 338.448 281.813 336.816C281.813 335.183 281.859 333.86 281.916 333.86C281.973 333.86 282.02 335.183 282.02 336.816C282.019 338.448 281.973 339.772 281.916 339.772Z" fill="#263238"/>
<path d="M303.141 339.36C303.11 339.357 303.139 338.955 303.176 338.31C303.206 337.665 303.247 336.77 303.089 335.804C302.926 334.838 302.6 334.001 302.369 333.396C302.13 332.792 301.979 332.419 302.007 332.406C302.031 332.396 302.23 332.748 302.504 333.341C302.771 333.935 303.125 334.779 303.293 335.771C303.455 336.765 303.388 337.676 303.321 338.321C303.247 338.968 303.167 339.363 303.141 339.36Z" fill="#263238"/>
<path d="M411.076 332.877H334.633C330.837 332.877 327.76 329.8 327.76 326.004V309.163L319.333 301.682H327.76H411.076C414.872 301.682 417.949 304.759 417.949 308.555V326.004C417.949 329.799 414.871 332.877 411.076 332.877Z" fill="#EBEBEB"/>
<path d="M410.098 310.874C410.098 311.018 393.408 311.134 372.825 311.134C352.235 311.134 335.549 311.017 335.549 310.874C335.549 310.731 352.235 310.614 372.825 310.614C393.408 310.613 410.098 310.73 410.098 310.874Z" fill="white"/>
<path d="M410.098 316.35C410.098 316.494 393.408 316.61 372.825 316.61C352.235 316.61 335.549 316.493 335.549 316.35C335.549 316.207 352.235 316.09 372.825 316.09C393.408 316.09 410.098 316.206 410.098 316.35Z" fill="white"/>
<path d="M410.098 321.825C410.098 321.969 393.408 322.085 372.825 322.085C352.235 322.085 335.549 321.968 335.549 321.825C335.549 321.681 352.235 321.565 372.825 321.565C393.408 321.565 410.098 321.682 410.098 321.825Z" fill="white"/>
<path d="M410.098 187.736C410.098 187.88 393.408 187.996 372.825 187.996C352.235 187.996 335.549 187.879 335.549 187.736C335.549 187.593 352.235 187.476 372.825 187.476C393.408 187.476 410.098 187.593 410.098 187.736Z" fill="white"/>
<path d="M410.098 193.213C410.098 193.357 393.408 193.473 372.825 193.473C352.235 193.473 335.549 193.356 335.549 193.213C335.549 193.07 352.235 192.953 372.825 192.953C393.408 192.952 410.098 193.069 410.098 193.213Z" fill="white"/>
<path d="M410.098 199.794C410.098 199.938 393.408 200.054 372.825 200.054C352.235 200.054 335.549 199.937 335.549 199.794C335.549 199.651 352.235 199.534 372.825 199.534C393.408 199.533 410.098 199.65 410.098 199.794Z" fill="white"/>
<path d="M335.951 104.63C335.951 102.447 337.627 100.885 339.883 100.885C341.135 100.885 342.18 101.34 342.863 102.168L341.787 103.161C341.301 102.602 340.69 102.312 339.967 102.312C338.612 102.312 337.65 103.264 337.65 104.629C337.65 105.995 338.612 106.946 339.967 106.946C340.691 106.946 341.301 106.656 341.787 106.088L342.863 107.081C342.18 107.919 341.135 108.374 339.873 108.374C337.627 108.375 335.951 106.813 335.951 104.63Z" fill="#263238"/>
<path d="M349.562 105.065V108.252H347.949V105.314C347.949 104.414 347.535 104 346.821 104C346.045 104 345.486 104.476 345.486 105.5V108.252H343.873V100.576H345.486V103.266C345.921 102.831 346.542 102.604 347.256 102.604C348.569 102.603 349.562 103.368 349.562 105.065Z" fill="#263238"/>
<path d="M355.942 105.076V108.252H354.432V107.559C354.131 108.066 353.552 108.335 352.735 108.335C351.432 108.335 350.656 107.61 350.656 106.648C350.656 105.665 351.349 104.982 353.046 104.982H354.329C354.329 104.289 353.915 103.885 353.046 103.885C352.456 103.885 351.846 104.081 351.442 104.402L350.863 103.274C351.473 102.839 352.374 102.602 353.263 102.602C354.96 102.604 355.942 103.39 355.942 105.076ZM354.329 106.494V105.925H353.221C352.466 105.925 352.228 106.204 352.228 106.577C352.228 106.98 352.57 107.249 353.138 107.249C353.676 107.249 354.142 107 354.329 106.494Z" fill="#263238"/>
<path d="M360.989 107.982C360.658 108.22 360.172 108.334 359.675 108.334C358.361 108.334 357.596 107.661 357.596 106.337V104.051H356.738V102.809H357.596V101.454H359.21V102.809H360.596V104.051H359.21V106.317C359.21 106.793 359.468 107.051 359.902 107.051C360.14 107.051 360.379 106.979 360.554 106.844L360.989 107.982Z" fill="#263238"/>
<path d="M389.527 115.784C389.527 115.928 372.484 116.044 351.465 116.044C330.439 116.044 313.399 115.927 313.399 115.784C313.399 115.64 330.438 115.524 351.465 115.524C372.484 115.524 389.527 115.64 389.527 115.784Z" fill="#263238"/>
<path d="M423.257 104.629C424.236 104.629 425.029 103.836 425.029 102.857C425.029 101.878 424.236 101.085 423.257 101.085C422.278 101.085 421.485 101.878 421.485 102.857C421.485 103.836 422.278 104.629 423.257 104.629Z" fill="#263238"/>
<path d="M425.029 108.023C425.029 109.002 424.236 109.795 423.257 109.795C422.278 109.795 421.485 109.002 421.485 108.023C421.485 107.044 422.279 106.251 423.257 106.251C424.236 106.25 425.029 107.044 425.029 108.023Z" fill="#263238"/>
<path d="M425.029 113.188C425.029 114.167 424.236 114.96 423.257 114.96C422.278 114.96 421.485 114.166 421.485 113.188C421.485 112.209 422.279 111.416 423.257 111.416C424.236 111.416 425.029 112.21 425.029 113.188Z" fill="#263238"/>
<path d="M279.315 108.856C279.211 108.856 279.108 108.825 279.019 108.759L274.326 105.317C274.197 105.222 274.121 105.071 274.122 104.911C274.123 104.751 274.2 104.601 274.33 104.508L279.023 101.131C279.245 100.97 279.559 101.02 279.721 101.245C279.882 101.469 279.831 101.782 279.607 101.943L275.472 104.918L279.611 107.953C279.834 108.117 279.882 108.43 279.718 108.652C279.621 108.785 279.468 108.856 279.315 108.856Z" fill="#263238"/>
<path d="M401.709 277.008C414.097 277.008 424.139 266.987 424.139 254.625C424.139 242.263 414.097 232.242 401.709 232.242C389.321 232.242 379.279 242.263 379.279 254.625C379.279 266.987 389.321 277.008 401.709 277.008Z" fill="#E0E0E0"/>
<path d="M407.849 267.849H396.054C395.214 267.849 394.532 267.168 394.532 266.327C394.532 265.486 395.213 264.805 396.054 264.805H407.849C408.69 264.805 409.371 265.486 409.371 266.327C409.371 267.167 408.69 267.849 407.849 267.849Z" fill="#263238"/>
<path d="M402.619 240.069H401.583V245.309H402.619V240.069Z" fill="#263238"/>
<path d="M386.807 261.022C388.489 261.022 389.852 259.658 389.852 257.977C389.852 256.295 388.489 254.932 386.807 254.932C385.125 254.932 383.762 256.295 383.762 257.977C383.762 259.658 385.125 261.022 386.807 261.022Z" fill="#C340F1"/>
<path d="M417.545 260.821C419.227 260.821 420.59 259.458 420.59 257.776C420.59 256.095 419.227 254.731 417.545 254.731C415.863 254.731 414.5 256.095 414.5 257.776C414.5 259.458 415.863 260.821 417.545 260.821Z" fill="#C340F1"/>
<path d="M402.554 244.212C402.554 244.212 414.934 244.063 416.894 254.786C418.854 265.509 408.384 265.709 405.373 265.912C404.008 266.004 401.086 266.014 398.509 265.969C392.802 265.87 388.77 264.765 387.398 259.471C387.238 258.854 387.13 258.22 387.09 257.575C386.725 251.771 390.654 243.927 402.554 244.212Z" fill="#C340F1"/>
<path d="M393.573 260.543L411.559 260.824C413.444 260.853 414.996 259.349 415.026 257.464C415.055 255.579 413.551 254.027 411.666 253.997L393.68 253.716C391.795 253.687 390.243 255.191 390.213 257.076C390.183 258.962 391.688 260.514 393.573 260.543Z" fill="#263238"/>
<path d="M407.826 257.092C407.942 257.686 408.518 258.073 409.112 257.957C409.706 257.841 410.093 257.265 409.977 256.671C409.861 256.077 409.285 255.69 408.691 255.807C408.097 255.923 407.71 256.498 407.826 257.092Z" fill="white"/>
<path d="M395.261 256.891C395.377 257.485 395.953 257.872 396.547 257.756C397.141 257.64 397.528 257.064 397.412 256.47C397.296 255.876 396.72 255.489 396.126 255.605C395.532 255.722 395.145 256.298 395.261 256.891Z" fill="white"/>
<path d="M403.809 239.964C403.809 240.907 403.044 241.672 402.101 241.672C401.158 241.672 400.393 240.907 400.393 239.964C400.393 239.021 401.158 238.256 402.101 238.256C403.044 238.257 403.809 239.021 403.809 239.964Z" fill="#C340F1"/>
<path d="M404.677 256.587C404.707 256.582 404.755 256.672 404.786 256.849C404.818 257.026 404.813 257.295 404.72 257.609C404.629 257.923 404.435 258.277 404.119 258.584C403.807 258.89 403.355 259.142 402.83 259.195C402.304 259.238 401.814 259.072 401.452 258.827C401.086 258.582 400.831 258.27 400.685 257.977C400.537 257.685 400.483 257.421 400.482 257.241C400.48 257.061 400.512 256.964 400.542 256.963C400.62 256.957 400.645 257.342 400.972 257.804C401.131 258.034 401.371 258.273 401.684 258.456C401.995 258.64 402.387 258.754 402.788 258.722C403.188 258.681 403.552 258.498 403.825 258.261C404.1 258.024 404.292 257.745 404.407 257.49C404.644 256.978 404.599 256.595 404.677 256.587Z" fill="white"/>
<path d="M416.865 254.436C416.871 254.434 416.906 254.528 416.963 254.701C416.993 254.787 417.026 254.893 417.056 255.019C417.088 255.144 417.129 255.286 417.158 255.446C417.227 255.764 417.282 256.148 417.316 256.578C417.343 257.008 417.346 257.482 417.304 257.978C417.258 258.473 417.172 258.94 417.069 259.358C416.961 259.775 416.839 260.144 416.715 260.444C416.659 260.597 416.593 260.729 416.54 260.846C416.488 260.964 416.436 261.063 416.392 261.142C416.306 261.302 416.255 261.389 416.249 261.385C416.243 261.382 416.283 261.289 416.359 261.125C416.398 261.043 416.445 260.943 416.492 260.824C416.54 260.705 416.601 260.572 416.653 260.419C416.768 260.117 416.882 259.75 416.985 259.336C417.082 258.921 417.164 258.458 417.21 257.968C417.251 257.478 417.252 257.008 417.229 256.582C417.201 256.157 417.153 255.775 417.093 255.458C417.069 255.298 417.032 255.157 417.006 255.031C416.981 254.905 416.953 254.798 416.928 254.711C416.882 254.536 416.859 254.438 416.865 254.436Z" fill="#263238"/>
<path d="M387.536 254.502C387.53 254.5 387.495 254.594 387.438 254.767C387.408 254.853 387.375 254.959 387.344 255.085C387.312 255.21 387.271 255.352 387.242 255.512C387.173 255.83 387.118 256.214 387.084 256.644C387.057 257.074 387.054 257.548 387.096 258.044C387.142 258.539 387.228 259.006 387.331 259.424C387.439 259.841 387.561 260.21 387.685 260.51C387.741 260.663 387.807 260.795 387.86 260.912C387.912 261.03 387.964 261.129 388.008 261.208C388.094 261.368 388.145 261.454 388.151 261.451C388.157 261.448 388.117 261.355 388.041 261.191C388.002 261.109 387.956 261.009 387.908 260.89C387.86 260.771 387.799 260.638 387.747 260.485C387.632 260.184 387.518 259.816 387.415 259.402C387.318 258.987 387.236 258.524 387.19 258.034C387.149 257.544 387.148 257.074 387.171 256.648C387.199 256.222 387.247 255.841 387.307 255.523C387.331 255.363 387.368 255.222 387.394 255.096C387.419 254.97 387.447 254.863 387.472 254.776C387.52 254.602 387.542 254.504 387.536 254.502Z" fill="#263238"/>
<path d="M390.212 273.844C390.212 273.844 393.886 270.25 401.582 270.25C409.278 270.25 413.21 273.844 413.21 273.844C413.21 273.844 402.49 281.088 390.212 273.844Z" fill="#C340F1"/>
<path d="M278.969 277.445H355.412C359.208 277.445 362.285 274.368 362.285 270.572V248.392L370.712 240.911H362.285H278.969C275.173 240.911 272.096 243.988 272.096 247.784V270.572C272.095 274.367 275.172 277.445 278.969 277.445Z" fill="#EBEBEB"/>
<path d="M352.022 251.754C352.022 251.898 336.278 252.014 316.86 252.014C297.436 252.014 281.695 251.897 281.695 251.754C281.695 251.61 297.436 251.494 316.86 251.494C336.278 251.494 352.022 251.61 352.022 251.754Z" fill="white"/>
<path d="M352.022 257.692C352.022 257.836 336.278 257.952 316.86 257.952C297.436 257.952 281.695 257.836 281.695 257.692C281.695 257.548 297.436 257.432 316.86 257.432C336.278 257.432 352.022 257.548 352.022 257.692Z" fill="white"/>
<path d="M352.022 263.63C352.022 263.774 336.278 263.89 316.86 263.89C297.436 263.89 281.695 263.773 281.695 263.63C281.695 263.486 297.436 263.37 316.86 263.37C336.278 263.37 352.022 263.486 352.022 263.63Z" fill="white"/>
<path d="M352.022 269.568C352.022 269.712 336.278 269.828 316.86 269.828C297.436 269.828 281.695 269.712 281.695 269.568C281.695 269.424 297.436 269.308 316.86 269.308C336.278 269.308 352.022 269.424 352.022 269.568Z" fill="white"/>
<path d="M401.709 401.286C414.097 401.286 424.139 391.264 424.139 378.903C424.139 366.541 414.097 356.52 401.709 356.52C389.321 356.52 379.279 366.541 379.279 378.903C379.279 391.264 389.321 401.286 401.709 401.286Z" fill="#E0E0E0"/>
<path d="M407.849 392.127H396.054C395.214 392.127 394.532 391.446 394.532 390.605C394.532 389.764 395.213 389.083 396.054 389.083H407.849C408.69 389.083 409.371 389.764 409.371 390.605C409.371 391.445 408.69 392.127 407.849 392.127Z" fill="#263238"/>
<path d="M402.619 364.348H401.583V369.588H402.619V364.348Z" fill="#263238"/>
<path d="M386.807 385.3C388.489 385.3 389.852 383.937 389.852 382.255C389.852 380.573 388.489 379.21 386.807 379.21C385.125 379.21 383.762 380.573 383.762 382.255C383.762 383.937 385.125 385.3 386.807 385.3Z" fill="#C340F1"/>
<path d="M417.545 385.1C419.227 385.1 420.59 383.736 420.59 382.055C420.59 380.373 419.227 379.01 417.545 379.01C415.863 379.01 414.5 380.373 414.5 382.055C414.5 383.736 415.863 385.1 417.545 385.1Z" fill="#C340F1"/>
<path d="M402.554 368.49C402.554 368.49 414.934 368.341 416.894 379.064C418.854 389.787 408.384 389.987 405.373 390.19C404.008 390.282 401.086 390.292 398.509 390.247C392.802 390.148 388.77 389.043 387.398 383.749C387.238 383.132 387.13 382.498 387.09 381.853C386.725 376.049 390.654 368.205 402.554 368.49Z" fill="#C340F1"/>
<path d="M393.573 384.823L411.559 385.104C413.444 385.134 414.996 383.629 415.026 381.744C415.055 379.859 413.551 378.307 411.666 378.277L393.68 377.996C391.795 377.966 390.243 379.471 390.213 381.356C390.183 383.241 391.688 384.793 393.573 384.823Z" fill="#263238"/>
<path d="M407.826 381.37C407.942 381.964 408.518 382.351 409.112 382.235C409.706 382.119 410.093 381.543 409.977 380.949C409.861 380.355 409.285 379.968 408.691 380.084C408.097 380.201 407.71 380.776 407.826 381.37Z" fill="white"/>
<path d="M395.261 381.169C395.377 381.763 395.953 382.15 396.547 382.034C397.141 381.918 397.528 381.342 397.412 380.748C397.296 380.154 396.72 379.767 396.126 379.883C395.532 380 395.145 380.576 395.261 381.169Z" fill="white"/>
<path d="M403.809 364.242C403.809 365.185 403.044 365.95 402.101 365.95C401.158 365.95 400.393 365.185 400.393 364.242C400.393 363.299 401.158 362.534 402.101 362.534C403.044 362.535 403.809 363.299 403.809 364.242Z" fill="#C340F1"/>
<path d="M404.677 380.865C404.707 380.86 404.755 380.949 404.786 381.127C404.818 381.304 404.813 381.573 404.72 381.887C404.629 382.201 404.435 382.554 404.119 382.862C403.807 383.168 403.355 383.42 402.83 383.473C402.304 383.516 401.814 383.35 401.452 383.105C401.086 382.86 400.831 382.548 400.685 382.255C400.537 381.963 400.483 381.699 400.482 381.519C400.48 381.339 400.512 381.242 400.542 381.241C400.62 381.235 400.645 381.62 400.972 382.082C401.131 382.312 401.371 382.551 401.684 382.734C401.995 382.918 402.387 383.032 402.788 383C403.188 382.959 403.552 382.776 403.825 382.539C404.1 382.302 404.292 382.023 404.407 381.768C404.644 381.256 404.599 380.873 404.677 380.865Z" fill="white"/>
<path d="M416.865 378.714C416.871 378.712 416.906 378.806 416.963 378.979C416.993 379.065 417.026 379.171 417.056 379.297C417.088 379.422 417.129 379.564 417.158 379.724C417.227 380.042 417.282 380.426 417.316 380.856C417.343 381.286 417.346 381.76 417.304 382.256C417.258 382.751 417.172 383.218 417.069 383.636C416.961 384.053 416.839 384.422 416.715 384.722C416.659 384.875 416.593 385.007 416.54 385.124C416.488 385.242 416.436 385.341 416.392 385.42C416.306 385.58 416.255 385.666 416.249 385.663C416.243 385.66 416.283 385.567 416.359 385.403C416.398 385.321 416.445 385.221 416.492 385.101C416.54 384.982 416.601 384.849 416.653 384.696C416.768 384.395 416.882 384.027 416.985 383.613C417.082 383.198 417.164 382.735 417.21 382.245C417.251 381.755 417.252 381.285 417.229 380.859C417.201 380.433 417.153 380.052 417.093 379.734C417.069 379.574 417.032 379.433 417.006 379.307C416.981 379.181 416.953 379.074 416.928 378.987C416.882 378.814 416.859 378.716 416.865 378.714Z" fill="#263238"/>
<path d="M387.536 378.78C387.53 378.778 387.495 378.872 387.438 379.045C387.408 379.131 387.375 379.237 387.344 379.363C387.312 379.488 387.271 379.63 387.242 379.79C387.173 380.108 387.118 380.492 387.084 380.922C387.057 381.352 387.054 381.826 387.096 382.322C387.142 382.817 387.228 383.284 387.331 383.702C387.439 384.119 387.561 384.488 387.685 384.788C387.741 384.941 387.807 385.073 387.86 385.19C387.912 385.308 387.964 385.407 388.008 385.486C388.094 385.646 388.145 385.733 388.151 385.729C388.157 385.726 388.117 385.633 388.041 385.469C388.002 385.387 387.956 385.287 387.908 385.168C387.86 385.049 387.799 384.916 387.747 384.763C387.632 384.461 387.518 384.094 387.415 383.68C387.318 383.265 387.236 382.802 387.19 382.312C387.149 381.822 387.148 381.352 387.171 380.926C387.199 380.501 387.247 380.119 387.307 379.802C387.331 379.642 387.368 379.501 387.394 379.375C387.419 379.249 387.447 379.142 387.472 379.055C387.52 378.88 387.542 378.782 387.536 378.78Z" fill="#263238"/>
<path d="M390.212 398.122C390.212 398.122 393.886 394.528 401.582 394.528C409.278 394.528 413.21 398.122 413.21 398.122C413.21 398.122 402.49 405.366 390.212 398.122Z" fill="#C340F1"/>
<path d="M278.969 401.722H355.412C359.208 401.722 362.285 398.645 362.285 394.849V372.669L370.712 365.188H362.285H278.969C275.173 365.188 272.096 368.265 272.096 372.061V394.849C272.095 398.645 275.172 401.722 278.969 401.722Z" fill="#EBEBEB"/>
<path d="M278.969 436.406H355.412C359.208 436.406 362.285 433.329 362.285 429.533V422.183L370.712 414.702H362.285H278.969C275.173 414.702 272.096 417.779 272.096 421.575V429.533C272.095 433.328 275.172 436.406 278.969 436.406Z" fill="#EBEBEB"/>
<path d="M352.022 376.031C352.022 376.175 336.278 376.291 316.86 376.291C297.436 376.291 281.695 376.174 281.695 376.031C281.695 375.888 297.436 375.771 316.86 375.771C336.278 375.771 352.022 375.887 352.022 376.031Z" fill="white"/>
<path d="M352.022 381.97C352.022 382.114 336.278 382.23 316.86 382.23C297.436 382.23 281.695 382.113 281.695 381.97C281.695 381.826 297.436 381.71 316.86 381.71C336.278 381.71 352.022 381.826 352.022 381.97Z" fill="white"/>
<path d="M352.022 387.907C352.022 388.051 336.278 388.167 316.86 388.167C297.436 388.167 281.695 388.05 281.695 387.907C281.695 387.764 297.436 387.647 316.86 387.647C336.278 387.647 352.022 387.763 352.022 387.907Z" fill="white"/>
<path d="M352.022 393.846C352.022 393.99 336.278 394.106 316.86 394.106C297.436 394.106 281.695 393.989 281.695 393.846C281.695 393.703 297.436 393.586 316.86 393.586C336.278 393.586 352.022 393.702 352.022 393.846Z" fill="white"/>
<path d="M352.24 425.867C352.24 426.011 336.661 426.127 317.448 426.127C298.228 426.127 282.653 426.01 282.653 425.867C282.653 425.724 298.228 425.607 317.448 425.607C336.661 425.607 352.24 425.724 352.24 425.867Z" fill="white"/>
<path d="M96.44 411.392C99.148 411.944 101.457 413.852 102.911 416.202C104.364 418.553 105.034 421.315 105.298 424.067C105.808 429.39 103.963 435.262 101.66 440.089C96.475 437.194 94.059 430.742 93.039 427.392C91.426 422.096 91.728 411.548 96.44 411.392Z" fill="#455A64"/>
<path d="M108.562 447.593C107.24 444.803 107.781 441.321 109.612 438.835C111.443 436.349 114.414 434.832 117.475 434.426C118.89 434.238 120.481 434.326 121.521 435.304C122.493 436.218 122.726 437.732 122.365 439.017C122.005 440.302 121.141 441.388 120.181 442.316C116.891 445.499 113.123 447.974 108.562 447.593Z" fill="#455A64"/>
<path d="M106.317 464.72C106.289 464.72 106.269 464.328 106.247 463.62C106.226 462.84 106.199 461.832 106.166 460.621C106.14 458.106 106.031 454.519 107.196 450.768C108.338 447.031 110.407 444.019 112.328 442.335C113.278 441.48 114.147 440.907 114.775 440.571C115.082 440.39 115.342 440.291 115.51 440.209C115.681 440.133 115.774 440.1 115.78 440.112C115.829 440.19 114.34 440.796 112.515 442.536C110.676 444.24 108.69 447.208 107.566 450.882C106.422 454.556 106.482 458.103 106.44 460.619C106.431 461.885 106.423 462.911 106.398 463.619C106.374 464.329 106.342 464.721 106.317 464.72Z" fill="#263238"/>
<path d="M96.92 419.444C96.933 419.441 96.985 419.598 97.072 419.899C97.166 420.241 97.286 420.679 97.435 421.222C97.743 422.373 98.168 424.043 98.675 426.112C99.69 430.249 101.013 435.984 102.331 442.35C103.647 448.718 104.708 454.508 105.417 458.708C105.772 460.808 106.045 462.51 106.219 463.688C106.298 464.245 106.361 464.695 106.411 465.046C106.451 465.357 106.465 465.522 106.452 465.524C106.439 465.526 106.399 465.366 106.334 465.059C106.266 464.711 106.179 464.265 106.07 463.713C105.843 462.495 105.53 460.813 105.147 458.755C104.369 454.569 103.266 448.791 101.951 442.427C100.634 436.066 99.355 430.325 98.408 426.174C97.943 424.133 97.563 422.465 97.288 421.257C97.168 420.707 97.071 420.263 96.996 419.917C96.933 419.61 96.907 419.447 96.92 419.444Z" fill="#263238"/>
<path d="M101.656 452.359C99.33 446.279 93.889 441.489 87.564 439.951C85.953 439.56 83.946 439.506 82.974 440.848C82 442.193 82.683 444.092 83.592 445.481C87.375 451.262 94.901 454.316 101.643 452.808" fill="#455A64"/>
<path d="M89.316 444.732C89.322 444.706 89.682 444.781 90.331 444.941C90.656 445.018 91.053 445.115 91.499 445.279C91.944 445.442 92.47 445.581 93.012 445.835C93.561 446.072 94.17 446.318 94.784 446.663C95.418 446.972 96.055 447.372 96.724 447.798C98.037 448.681 99.404 449.779 100.655 451.117C101.894 452.467 102.89 453.91 103.665 455.292C104.031 455.995 104.382 456.662 104.632 457.322C104.922 457.965 105.113 458.593 105.295 459.163C105.498 459.727 105.583 460.265 105.701 460.724C105.82 461.184 105.875 461.589 105.917 461.921C106.007 462.583 106.044 462.948 106.017 462.952C105.931 462.967 105.775 461.493 105.034 459.248C104.837 458.691 104.635 458.077 104.336 457.449C104.078 456.804 103.721 456.154 103.353 455.467C102.574 454.118 101.588 452.708 100.371 451.382C99.141 450.068 97.806 448.982 96.525 448.096C95.872 447.669 95.251 447.265 94.632 446.948C94.033 446.595 93.439 446.339 92.903 446.089C90.738 445.136 89.293 444.814 89.316 444.732Z" fill="#263238"/>
<path d="M121.097 151.696L117.396 140.151C121.158 134.044 123.333 126.855 123.333 119.155C123.333 97.0134 105.384 79.0645 83.242 79.0645C61.1 79.0645 43.152 97.0134 43.152 119.155C43.152 141.296 61.101 159.245 83.242 159.245C92.487 159.245 100.995 156.107 107.777 150.85L107.763 150.868L121.097 151.696Z" fill="#FAFAFA"/>
<path d="M121.096 151.697C121.096 151.697 120.822 151.691 120.257 151.663C119.671 151.632 118.829 151.589 117.724 151.531C115.449 151.406 112.106 151.222 107.756 150.982C107.694 150.979 107.646 150.926 107.65 150.864C107.651 150.841 107.66 150.818 107.674 150.801L107.688 150.783L107.847 150.941C103.754 154.128 97.685 157.576 89.748 158.89C87.775 159.223 85.697 159.41 83.543 159.426C81.394 159.337 79.155 159.33 76.892 158.896C72.358 158.187 67.647 156.648 63.199 154.097C58.754 151.556 54.582 148.008 51.195 143.566C47.807 139.134 45.217 133.802 43.897 127.967C42.547 122.142 42.565 115.818 44.057 109.694C44.253 108.931 44.45 108.165 44.647 107.398C44.873 106.639 45.179 105.903 45.442 105.151C45.739 104.413 45.938 103.63 46.319 102.922C46.666 102.2 47.015 101.476 47.364 100.751C47.685 100.01 48.122 99.3297 48.543 98.6387L49.81 96.5617L51.274 94.6037L52.009 93.6217C52.26 93.2987 52.553 93.0098 52.823 92.7018C57.229 87.6898 62.733 83.7627 68.756 81.5327C74.748 79.2377 81.12 78.4477 87.167 79.0137C93.224 79.5897 98.912 81.5967 103.773 84.4897C108.643 87.3877 112.686 91.1907 115.739 95.3747C118.803 99.5607 120.876 104.12 122.083 108.588C122.743 110.816 123.022 113.049 123.318 115.194C123.411 117.358 123.593 119.446 123.434 121.452C122.959 129.508 120.185 135.885 117.49 140.208L117.501 140.118C118.678 143.883 119.584 146.783 120.202 148.761C120.498 149.72 120.725 150.452 120.883 150.963C121.031 151.456 121.096 151.697 121.096 151.697C121.096 151.697 121 151.433 120.833 150.932C120.662 150.418 120.417 149.681 120.097 148.715C119.455 146.763 118.514 143.901 117.292 140.185C117.282 140.154 117.287 140.121 117.303 140.095C119.946 135.771 122.658 129.423 123.092 121.433C123.241 119.443 123.05 117.374 122.95 115.23C122.647 113.105 122.363 110.894 121.701 108.691C120.49 104.271 118.425 99.7658 115.383 95.6328C112.352 91.5018 108.346 87.7508 103.528 84.8958C98.719 82.0458 93.098 80.0727 87.115 79.5107C81.141 78.9587 74.851 79.7457 68.937 82.0137C62.993 84.2177 57.561 88.0967 53.212 93.0437C52.945 93.3477 52.656 93.6328 52.408 93.9518L51.683 94.9207L50.238 96.8527L48.988 98.9027C48.572 99.5847 48.141 100.256 47.824 100.988C47.479 101.704 47.135 102.418 46.791 103.131C46.414 103.829 46.219 104.602 45.925 105.331C45.665 106.073 45.361 106.799 45.138 107.548C44.943 108.306 44.749 109.061 44.555 109.815C43.078 115.858 43.055 122.106 44.382 127.859C45.679 133.623 48.228 138.893 51.569 143.28C54.908 147.677 59.025 151.194 63.415 153.718C67.808 156.253 72.465 157.79 76.952 158.507C79.191 158.945 81.408 158.959 83.538 159.056C85.672 159.049 87.733 158.871 89.69 158.55C97.565 157.282 103.61 153.899 107.707 150.763C107.756 150.725 107.827 150.733 107.866 150.783C107.898 150.824 107.897 150.882 107.866 150.922L107.852 150.94L107.77 150.758C112.083 151.056 115.396 151.285 117.651 151.441C118.768 151.522 119.62 151.583 120.212 151.625C120.79 151.667 121.096 151.697 121.096 151.697Z" fill="#263238"/>
<path d="M71.943 119.142C71.943 121.391 70.12 123.215 67.871 123.215C65.621 123.215 63.798 121.392 63.798 119.142C63.798 116.893 65.621 115.069 67.871 115.069C70.119 115.07 71.943 116.893 71.943 119.142Z" fill="#263238"/>
<path d="M88.241 119.142C88.241 121.391 86.417 123.215 84.168 123.215C81.919 123.215 80.095 121.392 80.095 119.142C80.095 116.893 81.918 115.069 84.168 115.069C86.418 115.07 88.241 116.893 88.241 119.142Z" fill="#263238"/>
<path d="M104.498 117.107C105.623 119.055 104.955 121.546 103.007 122.67C101.059 123.795 98.5681 123.127 97.4441 121.179C96.3191 119.231 96.9871 116.74 98.9351 115.615C100.883 114.492 103.373 115.159 104.498 117.107Z" fill="#263238"/>
<path d="M106.116 299.04L63.95 294.636L46.157 254.146L32.297 257.762C32.297 257.762 42.541 300.547 53.991 307.176C65.441 313.805 104.61 315.01 104.61 315.01L106.116 299.04Z" fill="#C340F1"/>
<path d="M128.528 319.577C135.382 311.865 134.686 300.057 126.974 293.203C119.262 286.35 107.454 287.046 100.6 294.758C93.7464 302.47 94.4422 314.278 102.154 321.131C109.866 327.985 121.674 327.289 128.528 319.577Z" fill="#263238"/>
<path d="M114.552 325.882C109.555 325.882 104.858 323.936 101.325 320.403C97.7919 316.871 95.8459 312.174 95.8459 307.176C95.8459 302.178 97.7919 297.482 101.325 293.949C104.858 290.416 109.555 288.469 114.552 288.469C119.549 288.469 124.246 290.415 127.779 293.949C131.312 297.481 133.257 302.179 133.257 307.176C133.257 312.172 131.311 316.87 127.779 320.403C124.246 323.936 119.549 325.882 114.552 325.882ZM114.552 288.521C109.569 288.521 104.884 290.461 101.36 293.985C97.8369 297.508 95.896 302.193 95.896 307.176C95.896 312.159 97.8359 316.844 101.36 320.367C104.884 323.891 109.569 325.831 114.552 325.831C119.535 325.831 124.22 323.891 127.743 320.367C131.267 316.844 133.207 312.159 133.207 307.176C133.207 302.193 131.267 297.508 127.743 293.985C124.22 290.461 119.535 288.521 114.552 288.521Z" fill="#263238"/>
<path d="M60.2151 310.395C67.7396 308.589 72.3753 301.025 70.5692 293.501C68.7632 285.976 61.1993 281.341 53.6748 283.147C46.1503 284.953 41.5146 292.517 43.3206 300.041C45.1267 307.566 52.6906 312.201 60.2151 310.395Z" fill="#263238"/>
<path d="M46.3074 257.428C50.7777 252.958 50.7777 245.71 46.3074 241.24C41.8371 236.77 34.5893 236.77 30.119 241.24C25.6487 245.71 25.6487 252.958 30.119 257.428C34.5893 261.898 41.8371 261.898 46.3074 257.428Z" fill="#263238"/>
<path d="M46.652 251.089L56.063 243.141C57.098 242.267 57.229 240.719 56.355 239.684L56.123 239.41C55.249 238.375 53.701 238.244 52.666 239.119L43.255 247.067L46.652 251.089Z" fill="#263238"/>
<path d="M44.087 240.519V228.555C44.087 227.2 42.989 226.102 41.634 226.102H41.275C39.92 226.102 38.822 227.2 38.822 228.555V240.519C38.822 240.714 38.98 240.873 39.176 240.873H43.734C43.929 240.872 44.087 240.714 44.087 240.519Z" fill="#263238"/>
<path d="M38.211 240.276L35.599 228.6C35.303 227.278 33.991 226.446 32.669 226.741L32.319 226.819C30.997 227.115 30.165 228.426 30.46 229.749L33.072 241.425C33.115 241.616 33.304 241.736 33.495 241.693L37.944 240.698C38.134 240.656 38.254 240.467 38.211 240.276Z" fill="#263238"/>
<path d="M32.448 241.886L26.466 231.525C25.789 230.351 24.288 229.949 23.115 230.627L22.804 230.806C21.63 231.484 21.229 232.984 21.906 234.158L27.888 244.519C27.986 244.688 28.202 244.746 28.371 244.649L32.319 242.37C32.488 242.272 32.546 242.056 32.448 241.886Z" fill="#263238"/>
<path d="M289.18 403.907L301.784 398.546L265.404 313.016L252.8 318.377L289.18 403.907Z" fill="#C340F1"/>
<path d="M267.213 321.178C273.882 313.306 272.907 301.518 265.035 294.849C257.163 288.18 245.375 289.156 238.706 297.028C232.037 304.9 233.012 316.688 240.884 323.357C248.756 330.026 260.544 329.05 267.213 321.178Z" fill="#263238"/>
<path d="M252.982 327.84C251.129 327.84 249.267 327.562 247.446 326.999C242.672 325.527 238.756 322.283 236.421 317.866C234.086 313.449 233.611 308.387 235.084 303.611C236.557 298.837 239.8 294.922 244.218 292.587C248.637 290.253 253.698 289.777 258.472 291.251C263.246 292.723 267.162 295.967 269.496 300.384C271.831 304.801 272.306 309.864 270.833 314.639C269.36 319.413 266.117 323.329 261.699 325.663C258.967 327.107 255.988 327.84 252.982 327.84ZM252.935 290.461C249.938 290.461 246.966 291.191 244.241 292.632C239.836 294.96 236.601 298.865 235.132 303.627C233.663 308.389 234.137 313.437 236.465 317.843C238.794 322.248 242.698 325.484 247.46 326.952C252.223 328.42 257.272 327.947 261.676 325.618C266.082 323.29 269.317 319.385 270.786 314.623C272.254 309.861 271.78 304.812 269.452 300.407C267.123 296.002 263.219 292.766 258.456 291.298C256.641 290.739 254.783 290.461 252.935 290.461Z" fill="#263238"/>
<path d="M290.806 364.962C292.878 357.506 288.514 349.782 281.058 347.71C273.602 345.638 265.879 350.002 263.806 357.457C261.734 364.913 266.098 372.637 273.554 374.709C281.009 376.781 288.733 372.417 290.806 364.962Z" fill="#263238"/>
<path d="M309.264 401.174C307.262 395.177 300.778 391.938 294.781 393.94C288.784 395.942 285.545 402.426 287.547 408.423C289.549 414.42 296.033 417.659 302.03 415.657C308.027 413.655 311.265 407.171 309.264 401.174Z" fill="#263238"/>
<path d="M289.847 405.807L283.437 416.326C282.732 417.483 283.098 418.993 284.255 419.698L284.562 419.885C285.719 420.59 287.229 420.224 287.934 419.067L294.344 408.548L289.847 405.807Z" fill="#263238"/>
<path d="M295.627 415.021L299.415 426.37C299.844 427.655 301.234 428.349 302.519 427.92L302.86 427.806C304.145 427.377 304.839 425.987 304.41 424.702L300.622 413.353C300.56 413.168 300.36 413.068 300.174 413.129L295.85 414.572C295.665 414.635 295.565 414.836 295.627 415.021Z" fill="#263238"/>
<path d="M301.277 413.39L307.451 423.638C308.15 424.799 309.658 425.173 310.819 424.473L311.127 424.288C312.288 423.589 312.662 422.081 311.962 420.92L305.788 410.672C305.687 410.505 305.47 410.451 305.302 410.552L301.397 412.904C301.23 413.005 301.176 413.222 301.277 413.39Z" fill="#263238"/>
<path d="M306.234 410.037L315.189 417.971C316.203 418.87 317.754 418.776 318.652 417.762L318.89 417.493C319.788 416.479 319.695 414.928 318.681 414.03L309.726 406.096C309.58 405.967 309.356 405.98 309.227 406.126L306.204 409.538C306.074 409.684 306.088 409.908 306.234 410.037Z" fill="#263238"/>
<path d="M108.964 287.745C108.964 287.745 110.312 418.878 183.903 421.443C257.494 424.008 260.578 288.683 260.578 287.745C260.578 287.745 251.887 268.188 184.771 268.954C117.655 269.719 108.964 287.745 108.964 287.745Z" fill="#C340F1"/>
<path d="M150.311 264.655H212.514C216.573 264.655 219.864 261.365 219.864 257.305V256.229C219.864 252.17 216.574 248.879 212.514 248.879H150.311C146.252 248.879 142.961 252.169 142.961 256.229V257.305C142.962 261.365 146.252 264.655 150.311 264.655Z" fill="#263238"/>
<path d="M178.743 148.047H184.113V120.893H178.743V148.047Z" fill="#263238"/>
<path d="M263.555 228.857C272.033 226.841 277.272 218.334 275.257 209.856C273.241 201.377 264.734 196.138 256.256 198.154C247.777 200.17 242.538 208.677 244.554 217.155C246.57 225.633 255.077 230.872 263.555 228.857Z" fill="#C340F1"/>
<path d="M104.086 227.841C112.584 225.913 117.911 217.461 115.983 208.963C114.056 200.464 105.604 195.138 97.1053 197.065C88.6069 198.993 83.2803 207.445 85.208 215.943C87.1356 224.442 95.5876 229.768 104.086 227.841Z" fill="#C340F1"/>
<path d="M178.295 142.159C178.295 142.159 114.136 141.388 103.979 196.958C93.822 252.529 148.081 253.566 163.686 254.619C170.763 255.096 185.902 255.145 199.261 254.914C228.837 254.4 249.735 248.676 256.847 221.237C257.676 218.037 258.236 214.752 258.445 211.41C260.326 181.335 239.968 140.679 178.295 142.159Z" fill="#C340F1"/>
<path d="M224.839 226.797L131.628 228.252C121.858 228.405 113.814 220.608 113.661 210.838C113.509 201.068 121.305 193.024 131.075 192.872L224.286 191.417C234.056 191.264 242.1 199.061 242.252 208.831C242.406 218.6 234.609 226.644 224.839 226.797Z" fill="#263238"/>
<path d="M150.97 208.909C150.367 211.986 147.384 213.992 144.307 213.389C141.23 212.786 139.224 209.803 139.827 206.726C140.43 203.649 143.414 201.643 146.491 202.246C149.567 202.849 151.573 205.832 150.97 208.909Z" fill="white"/>
<path d="M216.089 207.871C215.486 210.948 212.503 212.954 209.426 212.351C206.349 211.748 204.343 208.765 204.946 205.688C205.549 202.611 208.532 200.605 211.609 201.208C214.686 201.81 216.692 204.793 216.089 207.871Z" fill="white"/>
<path d="M206.719 339.822C205.698 353.798 193.54 364.299 179.564 363.278C165.588 362.256 155.086 350.099 156.108 336.123C157.13 322.147 169.287 311.646 183.263 312.667C197.239 313.689 207.74 325.846 206.719 339.822Z" fill="#263238"/>
<path d="M199.854 339.32C199.11 349.504 190.25 357.157 180.066 356.412C169.882 355.667 162.229 346.808 162.974 336.624C163.719 326.44 172.578 318.788 182.762 319.532C192.945 320.277 200.598 329.136 199.854 339.32Z" fill="white"/>
<path d="M190.937 342.681C190.866 342.638 190.812 341.543 190.766 339.631C190.72 337.718 190.682 334.994 190.679 331.664L190.883 332.03C188.114 330.415 184.89 328.534 181.37 326.482L181.901 326.49C178.916 328.167 175.68 329.986 172.302 331.884C172.042 332.317 172.652 331.296 172.589 331.402V331.405V331.41V331.421V331.444L172.588 331.489L172.587 331.58L172.584 331.761L172.579 332.123L172.568 332.843L172.545 334.27C172.529 335.216 172.514 336.15 172.498 337.071C172.463 338.908 172.429 340.692 172.396 342.412L172.137 341.948C175.614 344.072 178.783 346.008 181.535 347.689L181.116 347.683C184.049 346.105 186.465 344.846 188.171 343.979C189.877 343.111 190.866 342.639 190.937 342.681C191.008 342.723 190.155 343.28 188.535 344.269C186.915 345.257 184.523 346.681 181.525 348.413L181.32 348.531L181.106 348.406C178.321 346.782 175.113 344.911 171.593 342.858L171.331 342.705L171.334 342.393C171.351 340.673 171.369 338.889 171.388 337.052C171.4 336.131 171.411 335.197 171.423 334.252L171.443 332.825L171.453 332.105L171.458 331.743L171.461 331.562L171.462 331.472L171.463 331.426V331.403V331.392V331.386V331.383C171.4 331.487 172.011 330.464 171.753 330.897C175.142 329.019 178.389 327.22 181.384 325.56L181.656 325.409L181.915 325.567C185.392 327.691 188.577 329.637 191.313 331.308L191.524 331.437L191.517 331.674C191.415 335.135 191.296 337.916 191.195 339.811C191.093 341.709 191.008 342.724 190.937 342.681Z" fill="#C340F1"/>
<path d="M187.684 126.61C191.14 123.154 191.14 117.55 187.684 114.093C184.227 110.637 178.623 110.637 175.167 114.093C171.71 117.55 171.71 123.154 175.167 126.61C178.623 130.067 184.227 130.067 187.684 126.61Z" fill="#C340F1"/>
<path d="M167.292 206.29C167.714 206.335 167.504 208.321 168.743 210.961C169.342 212.272 170.339 213.705 171.757 214.923C173.164 216.142 175.038 217.077 177.091 217.29C179.15 217.453 181.162 216.873 182.767 215.929C184.382 214.989 185.623 213.76 186.449 212.579C188.146 210.207 188.299 208.217 188.722 208.248C188.887 208.251 189.06 208.753 189.06 209.692C189.066 210.63 188.794 212.001 188.027 213.527C187.269 215.051 185.946 216.683 184.041 217.962C182.157 219.239 179.6 220.107 176.854 219.883C174.114 219.606 171.758 218.289 170.136 216.692C168.494 215.089 167.489 213.245 167.019 211.609C166.542 209.97 166.522 208.571 166.698 207.65C166.869 206.725 167.129 206.263 167.292 206.29Z" fill="white"/>
<path d="M252.718 232.203C252.624 232.149 253.774 230.403 254.881 227.252C256.017 224.118 257.008 219.581 257.483 214.507C257.99 209.43 257.913 204.796 257.783 201.456C257.705 199.785 257.627 198.432 257.552 197.499C257.485 196.565 257.465 196.045 257.501 196.041C257.537 196.037 257.625 196.548 257.754 197.479C257.891 198.408 258.026 199.761 258.151 201.436C258.376 204.784 258.512 209.444 258.002 214.558C257.524 219.668 256.466 224.243 255.227 227.38C254.625 228.955 254.004 230.176 253.529 230.987C253.035 231.79 252.749 232.222 252.718 232.203Z" fill="#263238"/>
<path d="M104.125 195.144C104.159 195.155 104.044 195.664 103.808 196.571C103.684 197.023 103.54 197.578 103.409 198.231C103.273 198.882 103.083 199.616 102.959 200.444C102.646 202.087 102.403 204.067 102.256 206.271C102.142 208.477 102.144 210.909 102.358 213.45C102.595 215.99 103.021 218.385 103.522 220.537C104.054 222.681 104.643 224.587 105.24 226.15C105.508 226.943 105.824 227.632 106.073 228.249C106.317 228.869 106.557 229.389 106.758 229.812C107.15 230.663 107.353 231.144 107.321 231.161C107.289 231.178 107.026 230.73 106.576 229.902C106.346 229.491 106.078 228.98 105.807 228.368C105.531 227.758 105.189 227.075 104.897 226.283C104.251 224.724 103.62 222.813 103.056 220.652C102.524 218.485 102.078 216.064 101.839 213.497C101.623 210.928 101.635 208.468 101.777 206.241C101.951 204.016 102.236 202.022 102.597 200.375C102.746 199.545 102.962 198.811 103.126 198.163C103.285 197.513 103.459 196.963 103.613 196.517C103.91 195.62 104.09 195.132 104.125 195.144Z" fill="#263238"/>
<path d="M108.658 287.627C108.661 287.619 108.792 287.657 109.044 287.74C109.319 287.833 109.688 287.959 110.158 288.119C111.16 288.472 112.592 288.977 114.423 289.623C115.35 289.954 116.377 290.321 117.499 290.721C118.631 291.099 119.88 291.456 121.211 291.87C123.883 292.664 126.89 293.691 130.308 294.495C132.008 294.931 133.788 295.388 135.642 295.863C137.499 296.33 139.463 296.678 141.478 297.116C145.501 298.04 149.866 298.668 154.443 299.409C163.632 300.657 173.809 301.514 184.516 301.56C195.227 301.516 205.406 300.661 214.597 299.414C219.176 298.673 223.541 298.046 227.564 297.123C229.579 296.686 231.543 296.338 233.4 295.871C235.254 295.396 237.035 294.939 238.734 294.503C242.152 293.699 245.159 292.673 247.831 291.879C249.162 291.465 250.41 291.109 251.543 290.73C252.665 290.33 253.693 289.963 254.619 289.632C256.45 288.987 257.881 288.482 258.883 288.129C259.353 287.969 259.722 287.844 259.997 287.75C260.249 287.667 260.38 287.629 260.383 287.638C260.386 287.646 260.262 287.701 260.016 287.8C259.746 287.905 259.383 288.047 258.92 288.227C257.925 288.602 256.504 289.138 254.686 289.823C253.763 290.167 252.739 290.548 251.621 290.965C250.492 291.358 249.246 291.728 247.918 292.156C245.25 292.977 242.246 294.03 238.828 294.858C237.128 295.305 235.347 295.773 233.492 296.261C231.634 296.739 229.668 297.098 227.651 297.545C223.623 298.489 219.251 299.133 214.664 299.889C205.456 301.165 195.252 302.036 184.515 302.08C173.782 302.034 163.58 301.161 154.374 299.883C149.788 299.127 145.416 298.482 141.388 297.538C139.37 297.091 137.405 296.732 135.547 296.253C133.692 295.765 131.911 295.297 130.211 294.849C126.793 294.021 123.789 292.967 121.121 292.146C119.793 291.718 118.547 291.347 117.418 290.954C116.3 290.537 115.276 290.156 114.353 289.812C112.535 289.127 111.114 288.591 110.119 288.215C109.656 288.035 109.293 287.893 109.023 287.788C108.779 287.69 108.654 287.635 108.658 287.627Z" fill="#263238"/>
<g opacity="0.3">
<path d="M108.964 287.744C108.964 287.744 117.655 269.719 184.771 268.954C251.887 268.189 260.578 287.744 260.578 287.744C260.578 287.744 192.877 321.134 108.964 287.744Z" fill="black"/>
</g>
<path d="M170.174 146.317C170.174 146.326 170.096 146.339 169.943 146.356C169.759 146.373 169.536 146.393 169.265 146.417C168.67 146.479 167.787 146.497 166.66 146.633C164.401 146.838 161.139 147.283 157.191 148.202C153.243 149.115 148.625 150.594 143.764 152.847C138.904 155.091 133.834 158.168 129.053 162.083C124.301 166.036 120.317 170.431 117.191 174.777C114.057 179.123 111.728 183.377 110.083 187.08C108.431 190.782 107.376 193.899 106.746 196.079C106.399 197.16 106.213 198.023 106.04 198.596C105.964 198.858 105.902 199.073 105.851 199.25C105.805 199.397 105.778 199.471 105.769 199.469C105.76 199.467 105.771 199.389 105.799 199.238C105.837 199.057 105.882 198.838 105.938 198.571C106.079 197.99 106.233 197.117 106.551 196.024C107.123 193.821 108.129 190.673 109.747 186.931C111.358 183.189 113.668 178.889 116.802 174.498C119.928 170.106 123.932 165.666 128.723 161.682C133.543 157.736 138.66 154.648 143.565 152.412C148.471 150.168 153.131 148.716 157.11 147.844C161.09 146.966 164.373 146.575 166.644 146.431C167.777 146.326 168.664 146.34 169.262 146.312C169.535 146.308 169.759 146.305 169.943 146.302C170.095 146.303 170.174 146.308 170.174 146.317Z" fill="white"/>
<path d="M107.396 223.296C107.336 223.321 106.949 222.574 106.484 221.299C106.018 220.026 105.502 218.214 105.179 216.165C104.86 214.115 104.797 212.231 104.851 210.877C104.904 209.521 105.044 208.692 105.109 208.697C105.273 208.704 105.046 212.044 105.694 216.084C106.312 220.128 107.549 223.239 107.396 223.296Z" fill="white"/>
<path d="M90.568 218.13C90.543 218.151 90.341 217.968 90.027 217.591C89.712 217.215 89.302 216.628 88.896 215.844C88.08 214.295 87.372 211.832 87.729 209.122C88.091 206.412 89.417 204.22 90.608 202.937C91.204 202.286 91.753 201.826 92.155 201.545C92.557 201.263 92.8 201.139 92.818 201.165C92.876 201.24 91.975 201.85 90.887 203.177C89.802 204.483 88.59 206.607 88.245 209.191C87.905 211.774 88.52 214.141 89.227 215.685C89.932 217.248 90.643 218.073 90.568 218.13Z" fill="white"/>
<path d="M182.014 114.183C181.992 114.281 181.101 113.953 179.661 114.125C178.257 114.272 176.238 115.082 175.04 116.921C173.866 118.776 173.971 120.949 174.421 122.287C174.864 123.669 175.533 124.342 175.453 124.403C175.431 124.424 175.245 124.28 174.97 123.96C174.693 123.641 174.353 123.12 174.074 122.41C173.508 121.029 173.313 118.682 174.602 116.64C175.922 114.619 178.136 113.819 179.628 113.759C180.39 113.718 181.005 113.81 181.41 113.929C181.816 114.045 182.024 114.154 182.014 114.183Z" fill="white"/>
<path d="M269.162 206.001C269.053 206.119 267.497 204.634 265.147 203.509C262.808 202.359 260.679 202.056 260.704 201.898C260.7 201.77 262.938 201.847 265.374 203.041C267.819 204.214 269.266 205.924 269.162 206.001Z" fill="white"/>
<path d="M132.043 381.07C132.035 381.074 131.992 381.009 131.916 380.877C131.827 380.717 131.72 380.523 131.589 380.287C131.291 379.723 130.886 378.958 130.375 377.994C130.114 377.489 129.827 376.933 129.514 376.328C129.224 375.703 128.91 375.028 128.574 374.304C127.893 372.854 127.127 371.199 126.383 369.325C126 368.391 125.599 367.415 125.182 366.398C124.8 365.365 124.403 364.292 123.991 363.181C123.132 360.97 122.404 358.543 121.546 356.019C119.979 350.925 118.441 345.267 117.091 339.266C115.77 333.257 114.758 327.482 113.961 322.213C113.225 316.935 112.642 312.171 112.322 308.153C112.127 306.148 112.01 304.329 111.91 302.732C111.798 301.136 111.723 299.76 111.691 298.633C111.655 297.543 111.626 296.678 111.605 296.041C111.601 295.771 111.598 295.55 111.596 295.366C111.597 295.214 111.602 295.136 111.611 295.136C111.62 295.136 111.633 295.213 111.65 295.364C111.666 295.547 111.686 295.767 111.711 296.036C111.756 296.672 111.817 297.534 111.894 298.622C111.958 299.746 112.062 301.118 112.202 302.711C112.33 304.304 112.472 306.119 112.69 308.119C113.056 312.126 113.676 316.878 114.437 322.142C115.258 327.397 116.283 333.157 117.6 339.152C118.947 345.139 120.467 350.786 122.005 355.875C122.848 358.395 123.558 360.822 124.398 363.033C124.798 364.145 125.185 365.219 125.557 366.252C125.962 367.27 126.352 368.249 126.724 369.184C127.444 371.063 128.185 372.723 128.839 374.181C129.16 374.909 129.46 375.59 129.738 376.219C130.036 376.831 130.309 377.392 130.557 377.902C131.03 378.884 131.406 379.663 131.683 380.237C131.796 380.483 131.888 380.684 131.964 380.851C132.024 380.992 132.051 381.066 132.043 381.07Z" fill="white"/>
<path d="M92.87 299.545C92.86 299.688 89.588 299.572 85.563 299.286C81.537 298.999 78.282 298.65 78.292 298.507C78.302 298.364 81.573 298.48 85.6 298.767C89.625 299.053 92.881 299.402 92.87 299.545Z" fill="white"/>
<path d="M55.2499 278.193C55.1239 278.262 53.4199 275.361 51.4439 271.715C49.4679 268.068 47.9689 265.057 48.0959 264.988C48.2219 264.92 49.9259 267.82 51.9019 271.467C53.8769 275.113 55.3759 278.125 55.2499 278.193Z" fill="white"/>
<path d="M167.501 412.599C167.495 412.634 167.079 412.582 166.329 412.456C165.578 412.342 164.505 412.089 163.202 411.701C161.895 411.321 160.377 410.743 158.742 409.987C157.12 409.207 155.388 408.234 153.68 407.046C151.983 405.841 150.482 404.54 149.198 403.277C147.933 401.994 146.876 400.761 146.076 399.66C145.27 398.565 144.669 397.641 144.307 396.973C143.935 396.31 143.745 395.937 143.776 395.919C143.861 395.868 144.697 397.324 146.367 399.436C147.195 400.497 148.268 401.689 149.534 402.936C150.819 404.163 152.307 405.433 153.979 406.621C155.662 407.792 157.36 408.762 158.949 409.556C160.55 410.325 162.035 410.931 163.314 411.351C165.867 412.208 167.52 412.502 167.501 412.599Z" fill="white"/>
<path d="M182.842 366.336C182.843 366.354 182.602 366.378 182.141 366.408C181.68 366.417 180.998 366.518 180.121 366.466C178.366 366.462 175.808 366.18 172.788 365.276C171.276 364.833 169.676 364.171 168.012 363.355C166.382 362.477 164.666 361.467 163.046 360.148C159.773 357.573 156.735 353.959 154.774 349.538C152.881 345.085 152.315 340.397 152.668 336.247C152.811 334.162 153.245 332.219 153.716 330.428C154.255 328.655 154.864 327.034 155.573 325.627C156.974 322.804 158.515 320.743 159.71 319.458C160.271 318.781 160.811 318.352 161.132 318.022C161.468 317.705 161.65 317.546 161.663 317.559C161.703 317.599 160.998 318.268 159.864 319.591C158.724 320.907 157.247 322.98 155.906 325.787C155.227 327.186 154.647 328.793 154.133 330.546C153.687 332.316 153.275 334.232 153.148 336.285C152.826 340.372 153.4 344.969 155.253 349.332C157.175 353.663 160.142 357.22 163.347 359.775C164.933 361.083 166.615 362.09 168.212 362.973C169.843 363.794 171.413 364.467 172.899 364.927C175.866 365.863 178.388 366.199 180.129 366.265C181.869 366.338 182.84 366.28 182.842 366.336Z" fill="white"/>
<path d="M61.772 287.587C61.73 287.671 60.999 287.298 59.737 287.011C58.481 286.718 56.667 286.607 54.749 287.061C52.833 287.526 51.267 288.449 50.28 289.28C49.286 290.108 48.803 290.772 48.728 290.716C48.685 290.692 49.065 289.939 50.036 289.004C50.995 288.069 52.617 287.041 54.627 286.555C56.638 286.077 58.55 286.258 59.829 286.655C61.118 287.047 61.799 287.546 61.772 287.587Z" fill="white"/>
<path d="M209.436 188.159C209.436 188.303 197.158 188.419 182.016 188.419C166.868 188.419 154.593 188.302 154.593 188.159C154.593 188.015 166.868 187.899 182.016 187.899C197.158 187.898 209.436 188.015 209.436 188.159Z" fill="white"/>
<path d="M162.644 250.686C162.645 250.704 162.486 250.729 162.18 250.761C161.813 250.793 161.372 250.831 160.842 250.876C160.261 250.926 159.549 250.972 158.72 250.985C157.892 251.003 156.948 251.05 155.905 251.018C153.818 251.013 151.334 250.87 148.589 250.579C145.848 250.259 142.847 249.773 139.743 249.053C136.642 248.312 133.74 247.407 131.143 246.47C128.556 245.505 126.269 244.525 124.4 243.598C123.452 243.162 122.629 242.698 121.896 242.313C121.16 241.932 120.544 241.573 120.046 241.269C119.592 240.992 119.215 240.761 118.9 240.569C118.641 240.404 118.51 240.31 118.519 240.295C118.528 240.279 118.677 240.343 118.953 240.479C119.28 240.647 119.673 240.849 120.144 241.092C120.656 241.368 121.284 241.7 122.03 242.055C122.773 242.414 123.604 242.853 124.557 243.266C126.438 244.146 128.726 245.085 131.306 246.019C133.895 246.925 136.782 247.81 139.862 248.546C142.946 249.261 145.923 249.758 148.644 250.102C151.369 250.417 153.836 250.597 155.912 250.65C156.949 250.706 157.889 250.684 158.714 250.694C159.54 250.709 160.25 250.692 160.831 250.674C161.362 250.667 161.804 250.661 162.171 250.657C162.481 250.658 162.643 250.668 162.644 250.686Z" fill="white"/>
<path d="M242.466 295.755C242.469 295.764 242.388 295.8 242.227 295.864C242.037 295.935 241.8 296.024 241.508 296.134C240.834 296.374 239.904 296.705 238.726 297.124C237.519 297.559 236.035 298.067 234.286 298.58C232.541 299.103 230.569 299.754 228.343 300.309C227.233 300.603 226.072 300.91 224.862 301.23C223.65 301.545 222.373 301.805 221.059 302.11C218.436 302.746 215.596 303.245 212.615 303.808C206.633 304.817 200.009 305.662 193.02 306.114C186.026 306.521 179.346 306.494 173.285 306.224C170.257 306.031 167.377 305.882 164.696 305.573C163.355 305.431 162.055 305.329 160.814 305.165C159.574 304.996 158.384 304.833 157.246 304.678C154.969 304.4 152.932 303.994 151.136 303.689C149.338 303.394 147.803 303.071 146.552 302.787C145.332 302.515 144.369 302.301 143.67 302.145C143.367 302.072 143.121 302.013 142.924 301.965C142.756 301.922 142.672 301.895 142.674 301.886C142.676 301.877 142.765 301.886 142.936 301.913C143.137 301.947 143.385 301.99 143.693 302.042C144.396 302.174 145.365 302.357 146.592 302.588C147.848 302.841 149.386 303.134 151.186 303.402C152.984 303.679 155.02 304.059 157.296 304.313C158.432 304.458 159.622 304.609 160.86 304.766C162.1 304.92 163.397 305.01 164.736 305.143C167.413 305.433 170.286 305.565 173.307 305.745C179.353 305.988 186.013 306.001 192.987 305.595C199.956 305.144 206.563 304.316 212.533 303.336C215.508 302.788 218.344 302.306 220.965 301.69C222.278 301.394 223.554 301.145 224.766 300.841C225.976 300.533 227.138 300.237 228.248 299.955C230.476 299.424 232.451 298.798 234.201 298.303C235.955 297.817 237.446 297.338 238.662 296.933C239.852 296.553 240.792 296.254 241.473 296.037C241.772 295.947 242.014 295.875 242.209 295.816C242.377 295.767 242.463 295.747 242.466 295.755Z" fill="white"/>
</svg>
