<svg width="452" height="415" viewBox="0 0 452 415" fill="none" xmlns="http://www.w3.org/2000/svg">
<path d="M228 369.164C329.77 369.164 412.272 286.663 412.272 184.892C412.272 83.1214 329.77 0.619995 228 0.619995C126.229 0.619995 43.7275 83.1214 43.7275 184.892C43.7275 286.663 126.229 369.164 228 369.164Z" fill="#CD40FF" fill-opacity="0.31"/>
<path d="M291.251 201.945H229.57C224.484 201.945 220.347 197.808 220.347 192.722V116.788C220.347 111.702 224.484 107.565 229.57 107.565H291.251C312.597 107.565 329.963 124.931 329.963 146.276V163.232C329.963 184.579 312.596 201.945 291.251 201.945ZM231.174 191.117H291.25C306.626 191.117 319.134 178.608 319.134 163.233V146.277C319.134 130.902 306.625 118.394 291.25 118.394H231.174V191.117Z" fill="#211B1A"/>
<path d="M226.43 201.945H164.749C143.403 201.945 126.037 184.579 126.037 163.233V146.277C126.037 124.931 143.403 107.566 164.749 107.566H226.43C231.516 107.566 235.653 111.703 235.653 116.789V192.723C235.653 197.808 231.516 201.945 226.43 201.945ZM164.749 118.393C149.374 118.393 136.865 130.902 136.865 146.276V163.232C136.865 178.608 149.374 191.116 164.749 191.116H224.825V118.392H164.749V118.393Z" fill="#211B1A"/>
<path d="M241.794 249.98H214.204L210.462 214.04H245.536L241.794 249.98Z" fill="#211B1A"/>
<path d="M247.968 259.564H208.029V252.61C208.029 249.529 210.527 247.032 213.608 247.032H242.39C245.471 247.032 247.969 249.53 247.969 252.61V259.564H247.968Z" fill="#FC8F7B"/>
<path d="M234.261 219.385H221.737C188.516 219.385 161.584 192.454 161.584 159.232V79.3119H294.413V159.232C294.414 192.454 267.482 219.385 234.261 219.385Z" fill="#CB46FB"/>
<path d="M293.445 104.378H162.553C157.336 104.378 153.106 100.149 153.106 94.9309V82.8609C153.106 77.6439 157.335 73.4139 162.553 73.4139H293.445C298.662 73.4139 302.892 77.6429 302.892 82.8609V94.9309C302.892 100.149 298.662 104.378 293.445 104.378Z" fill="#211B1A"/>
<path d="M246.495 254.772H209.505C190.572 254.772 175.224 270.12 175.224 289.053H280.776C280.776 270.12 265.428 254.772 246.495 254.772Z" fill="#211B1A"/>
<path d="M236.711 150.443L225.001 141.778L210.462 140.869L223.409 105.374L249.657 114.948L236.711 150.443Z" fill="#3F5AA1"/>
<path d="M267.041 150.443L278.752 141.778L293.29 140.869L280.344 105.374L254.095 114.948L267.041 150.443Z" fill="#3F5AA1"/>
<path d="M294.243 88.0279C294.243 90.0069 292.247 91.8219 291.975 93.7269C291.697 95.6789 293.099 97.9799 292.556 99.8329C292.003 101.718 289.576 102.897 288.77 104.658C287.955 106.439 288.649 109.045 287.597 110.678C286.539 112.321 283.878 112.768 282.602 114.238C281.324 115.711 281.258 118.409 279.785 119.686C278.314 120.961 275.636 120.645 273.993 121.703C272.36 122.755 271.54 125.326 269.759 126.141C267.997 126.947 265.518 125.888 263.633 126.441C261.78 126.984 260.267 129.218 258.315 129.496C256.411 129.767 254.333 128.052 252.353 128.052C250.373 128.052 248.296 129.768 246.391 129.496C244.439 129.218 242.926 126.984 241.073 126.441C239.188 125.888 236.709 126.947 234.947 126.141C233.166 125.326 232.346 122.755 230.713 121.703C229.07 120.645 226.391 120.961 224.921 119.686C223.447 118.408 223.382 115.711 222.104 114.238C220.829 112.767 218.167 112.321 217.109 110.678C216.057 109.045 216.751 106.439 215.936 104.658C215.13 102.896 212.702 101.718 212.15 99.8329C211.607 97.9799 213.009 95.6789 212.731 93.7269C212.46 91.8229 210.463 90.0079 210.463 88.0279C210.463 86.0489 212.459 84.2339 212.731 82.3289C213.009 80.3769 211.607 78.0759 212.15 76.2229C212.703 74.3379 215.13 73.159 215.936 71.397C216.751 69.616 216.057 67.0099 217.109 65.3769C218.167 63.7339 220.828 63.2869 222.104 61.8169C223.382 60.3439 223.448 57.646 224.921 56.369C226.392 55.093 229.07 55.4099 230.713 54.3519C232.346 53.2999 233.166 50.7289 234.947 49.9139C236.709 49.1079 239.188 50.1669 241.073 49.6139C242.926 49.0709 244.439 46.8369 246.391 46.5589C248.295 46.2879 250.374 48.0029 252.353 48.0029C254.332 48.0029 256.41 46.2879 258.315 46.5589C260.267 46.8369 261.78 49.0709 263.633 49.6139C265.518 50.1669 267.997 49.1079 269.759 49.9139C271.54 50.7289 272.36 53.2999 273.993 54.3519C275.636 55.4099 278.315 55.094 279.785 56.369C281.259 57.647 281.324 60.3439 282.602 61.8169C283.877 63.2879 286.538 63.7339 287.597 65.3769C288.649 67.0099 287.955 69.616 288.77 71.397C289.576 73.159 292.003 74.3369 292.556 76.2219C293.099 78.0749 291.697 80.3759 291.975 82.3279C292.246 84.2339 294.243 86.0489 294.243 88.0279Z" fill="#6C89D4"/>
<path d="M288.489 88.0279C288.489 89.7359 286.767 91.3009 286.533 92.9439C286.293 94.6279 287.503 96.6129 287.034 98.2109C286.557 99.8369 284.463 100.854 283.768 102.374C283.065 103.911 283.663 106.158 282.756 107.567C281.843 108.984 279.548 109.37 278.447 110.638C277.345 111.909 277.288 114.236 276.017 115.338C274.748 116.438 272.438 116.165 271.02 117.078C269.611 117.985 268.904 120.203 267.367 120.906C265.847 121.601 263.709 120.688 262.082 121.165C260.484 121.634 259.178 123.561 257.494 123.801C255.851 124.035 254.058 122.555 252.351 122.555C250.644 122.555 248.851 124.035 247.208 123.801C245.524 123.561 244.219 121.634 242.62 121.165C240.994 120.688 238.855 121.601 237.335 120.906C235.798 120.203 235.091 117.985 233.682 117.078C232.265 116.165 229.954 116.438 228.685 115.338C227.414 114.236 227.357 111.909 226.255 110.638C225.155 109.369 222.859 108.984 221.946 107.567C221.039 106.158 221.637 103.91 220.934 102.374C220.239 100.854 218.144 99.8379 217.668 98.2109C217.199 96.6129 218.409 94.6269 218.169 92.9439C217.935 91.3009 216.213 89.7359 216.213 88.0279C216.213 86.3209 217.935 84.7549 218.169 83.1119C218.409 81.4279 217.199 79.4429 217.668 77.8449C218.145 76.2189 220.239 75.2019 220.934 73.6819C221.637 72.1449 221.039 69.8979 221.946 68.4889C222.859 67.0719 225.154 66.6869 226.255 65.4179C227.357 64.1469 227.414 61.82 228.685 60.718C229.954 59.618 232.264 59.8909 233.682 58.9779C235.091 58.0709 235.798 55.8529 237.335 55.1499C238.855 54.4549 240.993 55.3679 242.62 54.8909C244.218 54.4219 245.524 52.4949 247.208 52.2549C248.851 52.0209 250.644 53.5009 252.351 53.5009C254.058 53.5009 255.851 52.0209 257.494 52.2549C259.178 52.4949 260.483 54.4219 262.082 54.8909C263.708 55.3679 265.847 54.4549 267.367 55.1499C268.904 55.8529 269.611 58.0709 271.02 58.9779C272.437 59.8909 274.748 59.618 276.017 60.718C277.288 61.82 277.345 64.1469 278.447 65.4179C279.547 66.6869 281.843 67.0719 282.756 68.4889C283.663 69.8979 283.065 72.1459 283.768 73.6819C284.463 75.2019 286.557 76.2179 287.034 77.8449C287.503 79.4429 286.293 81.4289 286.533 83.1119C286.767 84.7549 288.489 86.3209 288.489 88.0279Z" fill="#1F3C88"/>
<path d="M272.864 88.0279C272.864 88.9969 271.886 89.8859 271.754 90.8179C271.618 91.7739 272.304 92.9009 272.038 93.8079C271.767 94.7309 270.579 95.3079 270.184 96.1709C269.785 97.0429 270.125 98.3189 269.61 99.1189C269.092 99.9239 267.789 100.142 267.164 100.862C266.538 101.584 266.506 102.904 265.785 103.53C265.065 104.155 263.753 104 262.949 104.518C262.149 105.033 261.748 106.292 260.876 106.691C260.013 107.086 258.799 106.567 257.876 106.838C256.969 107.104 256.228 108.198 255.272 108.334C254.339 108.467 253.322 107.627 252.353 107.627C251.384 107.627 250.366 108.467 249.434 108.334C248.478 108.198 247.737 107.104 246.83 106.838C245.907 106.567 244.693 107.086 243.83 106.691C242.958 106.292 242.556 105.033 241.757 104.518C240.952 104 239.641 104.155 238.921 103.53C238.2 102.904 238.167 101.584 237.542 100.862C236.917 100.142 235.614 99.9229 235.096 99.1189C234.581 98.3189 234.921 97.0429 234.522 96.1709C234.127 95.3079 232.939 94.7309 232.668 93.8079C232.402 92.9009 233.089 91.7739 232.953 90.8179C232.82 89.8859 231.843 88.9969 231.843 88.0279C231.843 87.0589 232.821 86.1699 232.953 85.2379C233.089 84.2819 232.402 83.1549 232.668 82.2479C232.939 81.3249 234.127 80.7479 234.522 79.8849C234.921 79.0129 234.581 77.7369 235.096 76.9369C235.614 76.1319 236.917 75.9139 237.542 75.1939C238.168 74.4719 238.2 73.1519 238.921 72.5259C239.641 71.9009 240.953 72.0559 241.757 71.5379C242.557 71.0229 242.958 69.7639 243.83 69.3649C244.693 68.9699 245.907 69.4889 246.83 69.2179C247.737 68.9519 248.478 67.8579 249.434 67.7219C250.366 67.5889 251.384 68.4289 252.353 68.4289C253.322 68.4289 254.34 67.5889 255.272 67.7219C256.228 67.8579 256.969 68.9519 257.876 69.2179C258.799 69.4889 260.013 68.9699 260.876 69.3649C261.748 69.7639 262.15 71.0229 262.949 71.5379C263.754 72.0559 265.065 71.9009 265.785 72.5259C266.506 73.1519 266.539 74.4719 267.164 75.1939C267.789 75.9139 269.091 76.1329 269.61 76.9369C270.125 77.7369 269.785 79.0129 270.184 79.8849C270.579 80.7479 271.767 81.3249 272.038 82.2479C272.304 83.1549 271.617 84.2819 271.753 85.2379C271.887 86.1699 272.864 87.0589 272.864 88.0279Z" fill="#6C89D4"/>
<path d="M293.508 306.9H162.492V413.964H293.508V306.9Z" stroke="#070D59" stroke-miterlimit="10"/>
<path d="M299.067 289.053H156.933V306.9H299.067V289.053Z" fill="#070D59"/>
<path d="M227.999 388.596C245.864 388.596 260.346 374.114 260.346 356.249C260.346 338.384 245.864 323.902 227.999 323.902C210.135 323.902 195.652 338.384 195.652 356.249C195.652 374.114 210.135 388.596 227.999 388.596Z" stroke="#070D59" stroke-miterlimit="10"/>
<path d="M228 367.177L215.942 372.286L217.074 359.239L208.489 349.35L221.247 346.395L228 335.174L234.753 346.395L247.51 349.35L238.926 359.239L240.058 372.286L228 367.177Z" stroke="#070D59" stroke-miterlimit="10"/>
<path d="M162.492 339.152H61.4565V413.965H162.492V339.152Z" stroke="#070D59" stroke-miterlimit="10"/>
<path d="M162.492 321.305H56.0186V339.152H162.492V321.305Z" fill="#070D59"/>
<path d="M394.542 361.985H293.507V413.964H394.542V361.985Z" stroke="#070D59" stroke-miterlimit="10"/>
<path d="M399.98 344.139H293.507V361.986H399.98V344.139Z" fill="#070D59"/>
<path d="M55.0527 414.598H73.6397C73.3457 390.715 82.1827 366.839 98.4887 349.386C101.232 346.45 104.404 342.988 103.697 339.033C103.153 335.99 100.383 333.814 97.5137 332.662C91.5967 330.287 84.6707 331.142 79.0487 334.15C73.4277 337.158 69.0357 342.142 65.9267 347.709C62.8177 353.275 60.9067 359.429 59.3767 365.618C55.4127 381.648 54.1167 398.113 55.0527 414.598Z" fill="#AF3FD7"/>
<path d="M91.6667 339.387C83.5507 343.546 77.0027 350.258 72.2847 358.001C66.9917 366.688 64.0977 376.604 62.7237 386.63C61.8917 392.7 61.5847 398.826 61.5747 404.95C61.5737 405.699 62.7377 405.701 62.7397 404.95C62.7577 394.335 63.6507 383.622 66.7427 373.421C69.4347 364.539 73.8797 356.12 80.3187 349.379C83.7827 345.753 87.7877 342.682 92.2547 340.393C92.9227 340.05 92.3337 339.045 91.6667 339.387Z" fill="#8C3423"/>
<path d="M60.9008 414.598H40.4248C41.4878 388.068 32.0228 361.207 15.9508 340.073C12.6468 335.729 8.9458 331.452 7.4558 326.202C4.9748 317.465 9.7048 307.575 17.5368 302.975C25.3678 298.375 35.5408 298.733 43.6808 302.76C51.8218 306.788 58.0208 314.109 61.9438 322.301C65.8668 330.493 67.6738 339.544 68.6498 348.574C71.0328 370.643 67.9378 393.547 60.9008 414.598Z" fill="#CD40FF"/>
<path d="M58.1719 368.128C56.2939 354.621 52.3939 341.109 46.1809 328.939C42.9809 322.672 38.8559 316.782 33.1219 312.589C32.5159 312.146 31.9349 313.156 32.5339 313.595C37.5749 317.281 41.3249 322.395 44.2849 327.836C47.4269 333.613 49.8699 339.8 51.9009 346.046C56.1169 359.011 58.2709 372.631 58.2829 386.263C58.2899 393.968 57.6109 401.668 56.2409 409.25C56.1089 409.983 57.2309 410.297 57.3639 409.56C59.8329 395.893 60.0839 381.882 58.1719 368.128Z" fill="#8C3423"/>
<path d="M47.2215 414.598H27.1035C25.8465 404.714 21.5165 394.715 15.6315 386.674C11.7925 381.429 7.08354 376.809 3.79254 371.204C0.501544 365.599 -1.22046 358.504 1.49555 352.6C4.48855 346.092 12.4485 342.765 19.5175 343.925C26.5865 345.085 32.6225 350.028 36.4955 356.055C40.3685 362.082 42.3295 369.128 43.7475 376.15C46.3095 388.836 47.8975 401.674 47.2215 414.598Z" fill="#AF3FD7"/>
<path d="M24.0447 365.178C21.6547 361.331 18.9847 357.662 16.0697 354.197C15.5867 353.623 14.7667 354.45 15.2457 355.021C25.4107 367.108 32.3947 381.783 35.4857 397.264C36.3527 401.607 36.9017 406.005 37.1397 410.427C37.1797 411.173 38.3447 411.177 38.3047 410.427C37.4467 394.455 32.4827 378.764 24.0447 365.178Z" fill="#8C3423"/>
<path d="M422.466 336.791C423.296 333.974 425.899 332.087 427.438 329.586C429.649 325.994 429.476 321.332 428.002 317.38C426.528 313.428 423.881 310.231 421.295 306.899C421.93 312.005 419.02 316.963 415.286 320.502C411.552 324.041 406.983 326.562 402.95 329.757C398.917 332.952 395.265 337.155 394.536 342.248C393.935 346.448 395.389 350.823 394.312 354.927C392.996 359.939 388.34 363.203 384.174 366.286C380.008 369.368 375.675 373.37 375.558 378.551C375.467 382.587 378.03 386.314 378.019 390.352C378.008 394.62 375.179 398.283 372.661 401.729C370.143 405.175 367.776 410.237 368.661 414.412H390.753C389.571 410.983 391.592 408.166 394.38 405.847C397.169 403.528 400.64 402.215 403.717 400.295C406.794 398.375 409.66 395.476 409.935 391.859C410.284 387.264 406.383 383.191 406.562 378.586C406.708 374.821 409.584 371.681 412.791 369.703C415.997 367.724 419.648 366.549 422.847 364.558C426.046 362.567 428.902 359.4 429.007 355.634C429.102 352.221 426.968 349.209 425.104 346.348C423.241 343.486 421.502 340.067 422.466 336.791Z" fill="#B338DF"/>
<path d="M385.876 407.05C385.08 404.632 383.299 402.683 381.526 400.855C379.754 399.027 377.899 397.179 376.893 394.84C375.196 390.895 376.212 386.383 377.015 382.165C377.819 377.947 378.27 373.188 375.732 369.724C372.221 364.932 364.451 364.665 361.376 359.582C358.234 354.388 361.599 346.62 357.489 342.151C355.875 340.396 353.46 339.641 351.128 339.143C348.796 338.646 346.37 338.314 344.291 337.148C342.211 335.982 340.525 333.704 340.904 331.35C336.38 334.545 334.465 342.357 337.682 346.865C339.603 349.556 342.872 351.538 343.391 354.803C344.221 360.024 337.403 364.1 338.084 369.343C338.436 372.05 340.761 374.094 343.217 375.286C345.673 376.477 348.391 377.085 350.782 378.401C353.173 379.717 355.308 382.05 355.24 384.779C355.155 388.225 351.693 390.833 351.432 394.27C351.242 396.783 352.835 399.1 354.699 400.796C356.564 402.492 358.769 403.814 360.446 405.695C362.123 407.576 362.459 412.369 361.502 414.7C361.557 414.7 361.612 414.7 361.667 414.7H384.871C386.945 413.22 386.671 409.468 385.876 407.05Z" fill="#CD40FF"/>
<path d="M371.461 395.499C370.697 394.475 369.819 393.553 368.812 392.766C367.779 391.958 366.624 391.335 365.541 390.6C364.51 389.899 363.45 389.03 363.102 387.779C362.662 386.196 363.534 384.624 364.239 383.262C365.456 380.914 366.197 378.546 365.972 375.871C365.772 373.497 364.956 371.163 363.575 369.217C362.022 367.027 359.932 365.58 357.435 364.643C354.736 363.63 351.291 362.979 349.661 360.317C348.605 358.592 348.941 356.545 349.243 354.656C349.512 352.979 349.693 351.348 349.449 349.656C348.997 346.527 347.378 343.612 344.948 341.59C344.315 341.063 343.398 341.97 344.037 342.501C346.245 344.339 347.723 346.912 348.17 349.755C348.659 352.864 347.201 355.911 347.787 358.995C348.314 361.774 350.74 363.496 353.202 364.503C355.917 365.613 358.839 366.163 361.039 368.241C364.653 371.652 365.788 377.286 363.569 381.754C362.381 384.145 360.764 386.841 362.449 389.423C363.845 391.562 366.423 392.425 368.314 394.012C372.756 397.741 374.423 404.261 372.329 409.659C372.029 410.433 373.275 410.768 373.572 410.002C375.421 405.227 374.505 399.58 371.461 395.499Z" fill="#8C3423"/>
<path d="M390.467 414.535H414.506C415.729 413.638 415.75 410.954 415.295 409.508C414.839 408.062 413.89 406.832 413.178 405.494C412.467 404.155 411.993 402.539 412.568 401.136C413.722 398.323 417.814 398.469 420.211 396.598C422.883 394.513 422.836 390.487 422.193 387.159C421.55 383.831 420.6 380.196 422.201 377.208C423.774 374.274 427.241 373.034 430.338 371.814C433.435 370.594 436.806 368.734 437.516 365.482C438.289 361.94 435.494 358.418 435.992 354.827C436.403 351.866 438.933 349.675 441.493 348.132C444.053 346.589 446.903 345.326 448.781 343.001C451.008 340.244 451.472 336.44 451.161 332.909C449.354 336.422 444.806 337.207 440.856 337.298C436.906 337.389 432.393 337.5 429.845 340.519C427.988 342.719 427.755 345.881 426.207 348.308C424.584 350.853 421.701 352.307 418.827 353.229C415.953 354.151 412.936 354.669 410.198 355.939C407.46 357.209 404.936 359.446 404.348 362.407C403.716 365.592 405.413 368.713 406.83 371.635C408.247 374.557 409.414 378.101 407.832 380.936C406.269 383.736 402.75 384.607 399.693 385.572C396.635 386.537 393.225 388.483 393.07 391.686C392.93 394.568 395.584 396.961 395.686 399.844C395.781 402.501 393.743 404.67 392.195 406.831C390.646 408.991 388.656 412.59 390.467 414.535Z" fill="#CD40FF"/>
<path d="M442.249 341.134C440.46 341.629 438.671 342.125 436.882 342.62C435.516 342.998 434.108 343.34 432.855 344.024C431.711 344.648 430.799 345.589 430.347 346.824C429.849 348.185 429.948 349.675 429.977 351.097C430.007 352.566 429.981 354.088 429.079 355.323C428.245 356.464 426.916 357.175 425.621 357.669C422.997 358.672 420.054 358.974 417.838 360.853C415.617 362.736 414.945 365.83 415.11 368.621C415.314 372.074 416.682 375.356 416.754 378.821C416.786 380.351 416.574 381.934 415.846 383.301C415.135 384.636 413.986 385.601 412.701 386.362C410.239 387.819 407.448 388.631 405.252 390.53C404.172 391.464 403.261 392.672 402.902 394.073C402.457 395.81 402.908 397.558 403.553 399.18C404.474 401.498 406.717 405.784 403.855 407.702C403.169 408.162 403.814 409.279 404.505 408.815C406.596 407.414 406.77 404.735 406.201 402.481C405.463 399.557 402.911 396.492 404.53 393.417C405.872 390.867 408.794 389.724 411.253 388.563C413.809 387.355 416.241 385.848 417.344 383.115C418.512 380.219 418.008 377.008 417.363 374.055C416.668 370.871 415.74 367.437 416.985 364.26C419.29 358.378 427.908 360.794 430.616 355.265C431.309 353.849 431.294 352.26 431.256 350.72C431.217 349.13 431.119 347.318 432.276 346.061C433.383 344.858 435.111 344.449 436.627 344.028C438.614 343.477 440.602 342.927 442.59 342.377C443.39 342.156 443.051 340.912 442.249 341.134Z" fill="#8C3423"/>
<path d="M417.756 323.025C417.398 322.277 416.286 322.93 416.643 323.676C417.393 325.242 416.862 327.029 415.937 328.4C414.901 329.936 413.272 330.956 411.738 331.932C409.066 333.633 405.951 335.71 405.512 339.138C405.076 342.546 407.902 344.884 408.874 347.891C409.98 351.315 408.036 354.874 405.545 357.149C402.774 359.68 399.243 361.087 396.112 363.084C393.679 364.636 391.018 367.099 391.381 370.271C391.703 373.083 394.143 374.814 395.507 377.102C397.644 380.687 394.422 383.582 391.847 385.735C389.052 388.071 387.139 390.894 386.642 394.563C386.191 397.895 386.942 401.371 388.945 404.097C389.431 404.758 390.55 404.116 390.058 403.446C388.23 400.958 387.504 397.84 387.901 394.787C388.099 393.26 388.592 391.761 389.352 390.422C390.212 388.909 391.434 387.752 392.758 386.646C395.238 384.574 398.261 381.885 397.389 378.262C396.726 375.506 394.092 373.907 392.998 371.386C391.539 368.024 394.85 365.326 397.41 363.801C400.512 361.954 403.876 360.455 406.549 357.974C408.864 355.825 410.689 352.664 410.468 349.415C410.358 347.803 409.707 346.371 408.903 344.993C408.099 343.617 407.095 342.238 406.817 340.634C406.06 336.282 411.133 334.007 414.001 331.981C416.801 330.002 419.458 326.578 417.756 323.025Z" fill="#8C3423"/>
<path d="M355.711 142.82C356.482 147.571 355.562 152.413 355 157.195C354.438 161.977 354.285 167.064 356.419 171.352C357.269 173.059 358.459 174.585 359.155 176.364C359.851 178.144 359.95 180.363 358.73 181.814C357.449 183.336 355.211 183.488 353.271 183.222C351.331 182.956 349.346 182.39 347.452 182.898C345.112 183.524 343.14 185.734 340.739 185.443C338.488 185.17 337.044 182.819 334.957 181.91C330.741 180.074 326.035 184.65 321.59 183.526C319.166 182.913 317.374 180.627 316.748 178.14C316.122 175.654 316.501 173.007 317.221 170.548C317.941 168.089 318.993 165.745 319.75 163.298C321.302 158.284 321.579 152.859 320.548 147.706C320.043 145.181 319.225 142.675 319.325 140.099C319.482 136.035 322.024 132.291 325.436 130.237C328.847 128.183 333.007 127.696 336.913 128.319C340.724 128.927 347.136 132.475 347.136 132.475C350.825 132.931 352.452 134.862 354.004 137.746C354.849 139.318 355.424 141.049 355.711 142.82Z" fill="black"/>
<path d="M309.628 256.823C309.628 256.823 276.203 295.252 276.168 309.015C276.14 320.245 305.485 384.986 305.485 384.986C305.485 384.986 312.865 383.861 317.126 382.208C317.126 382.208 307.18 319.387 296.786 311.355C296.786 311.355 342.308 277.115 344.333 256.823H309.628Z" fill="#FEAE93"/>
<path d="M435.139 316.249C427.472 310.838 424.33 307.477 419.127 306.95C419.127 306.95 416.54 302.915 410.448 298.71C410.448 298.71 412.719 291.22 418.786 288.07L423.769 293.053L422.649 296.951L428.071 297.257L446.321 315.507C446.324 315.508 442.806 321.659 435.139 316.249Z" fill="#070D59"/>
<path d="M288.957 393.332C297.674 389.858 302.205 389.058 305.485 384.986C305.485 384.986 310.278 385.019 317.126 382.208C317.126 382.208 322.164 388.198 321.494 395.001L314.599 396.459L311.943 393.394L308.729 397.771L283.477 403.11C283.477 403.11 280.24 396.805 288.957 393.332Z" fill="#070D59"/>
<path d="M327.76 259.194C323.816 282.018 320.46 335.369 333.906 342.996C351.656 353.064 419.128 306.95 419.128 306.95C419.128 306.95 414.946 301.04 410.449 298.71C410.449 298.71 356.92 312.773 349.023 325.528C349.023 325.528 362.619 280.501 360.171 258.744L327.76 259.194Z" fill="#FEAE93"/>
<path d="M358.098 309.038C358.066 309.308 358.034 309.585 358.003 309.847C357.86 311.298 357.718 312.591 357.599 313.693C357.567 313.978 357.535 314.24 357.512 314.494C357.274 316.611 357.123 317.833 357.123 317.833C350.969 318.777 346.798 324.922 337.48 324.312C329.455 323.789 324.752 317.492 317.536 315.914C311.739 314.637 297.045 318.705 289.9 316.517C283.627 314.598 282.509 306.596 273.302 303.734C273.302 303.734 273.921 302.505 275.047 300.395C275.174 300.157 275.309 299.903 275.459 299.634C276.054 298.524 276.768 297.207 277.6 295.732C277.727 295.494 277.862 295.248 278.004 295.002C284.856 282.79 298.289 260.8 311.984 249.158L360.207 258.111C361.587 271.203 359.446 295.874 358.098 309.038Z" fill="#CD40FF"/>
<path d="M357.599 313.693C357.567 313.978 357.535 314.24 357.512 314.494C354.84 314.716 352.262 315.668 349.788 316.627C346.87 317.761 343.936 319.038 340.811 319.49C337.734 319.942 334.808 319.379 332.072 317.912C329.32 316.445 326.957 314.375 324.348 312.694C323.048 311.853 321.676 311.092 320.201 310.6C318.671 310.085 317.069 309.863 315.459 309.847C312.184 309.823 308.956 310.585 305.768 311.259C302.675 311.917 299.511 312.568 296.339 312.361C294.801 312.266 293.278 311.965 291.851 311.386C290.225 310.728 288.766 309.745 287.41 308.642C284.579 306.327 282.184 303.416 278.941 301.64C277.775 300.998 276.419 300.546 275.047 300.395C275.174 300.157 275.309 299.903 275.459 299.634C277.164 299.888 278.837 300.586 280.281 301.513C283.39 303.511 285.745 306.43 288.695 308.642C290.13 309.729 291.708 310.609 293.453 311.093C294.984 311.521 296.57 311.648 298.156 311.601C301.447 311.498 304.674 310.665 307.886 310.007C311.034 309.357 314.293 308.786 317.513 309.19C320.693 309.587 323.429 311.053 326.022 312.87C328.591 314.662 331.05 316.748 333.984 317.953C336.982 319.174 340.114 319.024 343.191 318.167C347.94 316.841 352.626 314.049 357.599 313.693Z" fill="#FC8F7B"/>
<path d="M358.098 309.038C358.066 309.308 358.034 309.585 358.003 309.847C355.775 310.212 353.602 311.021 351.508 311.838C348.59 312.972 345.656 314.241 342.531 314.701C339.446 315.145 336.528 314.582 333.784 313.123C331.04 311.648 328.677 309.586 326.068 307.897C324.76 307.056 323.388 306.295 321.913 305.803C320.39 305.287 318.788 305.066 317.179 305.058C313.896 305.026 310.676 305.796 307.489 306.469C304.396 307.119 301.232 307.77 298.052 307.571C296.521 307.468 294.999 307.167 293.572 306.588C291.946 305.93 290.487 304.954 289.131 303.844C286.3 301.528 283.905 298.618 280.654 296.85C279.726 296.342 278.679 295.946 277.601 295.732C277.728 295.494 277.863 295.248 278.005 295.002C279.416 295.327 280.78 295.946 281.994 296.723C285.11 298.721 287.466 301.632 290.408 303.852C291.851 304.931 293.429 305.811 295.174 306.295C296.704 306.723 298.29 306.85 299.869 306.803C303.168 306.7 306.388 305.875 309.607 305.209C312.755 304.559 316.007 303.988 319.226 304.392C322.406 304.789 325.15 306.263 327.743 308.072C330.312 309.872 332.771 311.958 335.697 313.155C338.694 314.384 341.835 314.234 344.904 313.377C349.272 312.154 353.578 309.704 358.098 309.038Z" fill="#FC8F7B"/>
<path d="M277.499 118.375C277.499 118.375 273.193 118.703 271.089 115.532C269.02 112.415 269.996 109.66 269.996 109.66C269.996 109.66 264.244 109.752 263.635 108.632C263.027 107.512 269.494 106.735 269.494 106.735C269.494 106.735 263.191 104.357 263.505 103.296C263.819 102.235 270.733 104.282 270.733 104.282C270.733 104.282 265.599 98.96 266.678 97.913C267.757 96.865 274.121 103.42 274.121 103.42C274.121 103.42 273.994 96.912 275.367 96.853C277.343 96.769 279.214 108.972 279.356 108.928C279.497 108.884 283.978 105.002 285.204 107.07C286.387 109.065 283.198 109.446 282.065 111.973C281.538 113.146 280.292 117.814 277.499 118.375Z" fill="#FEAE93"/>
<path d="M431.235 170.438C431.235 170.438 435.476 171.252 437.926 168.34C440.335 165.478 439.678 162.63 439.678 162.63C439.678 162.63 445.383 163.373 446.114 162.329C446.845 161.285 440.507 159.78 440.507 159.78C440.507 159.78 447.039 158.131 446.847 157.042C446.655 155.953 439.554 157.202 439.554 157.202C439.554 157.202 445.257 152.496 444.303 151.333C443.35 150.17 436.285 155.961 436.285 155.961C436.285 155.961 437.149 149.509 435.791 149.295C433.837 148.987 430.595 160.9 430.46 160.841C430.325 160.782 426.312 156.417 424.86 158.332C423.459 160.18 426.584 160.92 427.423 163.559C427.815 164.784 428.523 169.563 431.235 170.438Z" fill="#FEAE93"/>
<path d="M335.293 175.517L326.764 175.958C326.764 175.958 296.549 160.122 296.347 159.062C296.145 158.002 280.858 113.727 280.858 113.727L271.949 116.359C271.949 116.359 277.417 159.424 283.591 166.579C287.337 170.92 321.975 195.766 321.975 195.766L335.293 175.517Z" fill="#FEAE93"/>
<path d="M335.292 175.517H327.116C327.116 175.517 297.776 159.651 297.236 158.954C296.696 158.257 293.659 143.612 293.659 143.612C293.659 143.612 278.676 146.217 273.918 153.115C273.918 153.115 278.271 164.467 279.891 166.188C281.511 167.909 320.146 195.768 320.146 195.768L335.292 175.517Z" fill="#CD40FF"/>
<path d="M355.465 207.293C355.962 189.393 355.795 180.317 355.795 180.317L355.803 180.243L345.605 176.162L335.292 175.516L327.228 177.79C312.249 205.966 323.401 212.072 323.401 212.072L309.627 256.822C325.744 264.862 360.291 260.011 360.291 260.011C359.812 245.814 354.945 226.049 355.465 207.293Z" fill="#CD40FF"/>
<path d="M324.925 182.126C322.822 186.392 321.237 190.896 320.218 195.542C320.109 196.039 320.873 196.252 320.983 195.753C321.988 191.174 323.538 186.731 325.611 182.526C325.834 182.07 325.151 181.668 324.925 182.126Z" fill="#FC8F7B"/>
<path d="M355.796 180.317C364.074 183.449 392.297 194.417 392.905 194.417C393.513 194.417 428.359 164.595 428.359 164.595L435.04 170.188C435.04 170.188 401.712 208.894 395.599 209.501C389.04 210.153 355.623 200.457 355.623 200.457L355.796 180.317Z" fill="#FEAE93"/>
<path d="M354.73 179.814C362.46 182.772 392.161 193.216 392.566 193.216C392.971 193.216 406.435 179.549 406.435 179.549C406.435 179.549 416.457 183.092 419.494 191.292C419.494 191.292 399.004 210.527 395.329 210.527C391.654 210.527 355.007 201.011 355.007 201.011L354.73 179.814Z" fill="#CD40FF"/>
<path d="M322.803 157.351C322.816 157.432 322.823 157.506 322.836 157.588C323.43 161.596 324.974 164.089 327.067 165.911C328.54 167.208 329.864 168.038 330.959 168.843C331.171 168.994 331.368 169.151 331.565 169.309C333.601 170.909 334.787 172.696 334.713 177.971C336.443 182.489 343.296 183.211 345.58 178.122C345.595 171.747 346.881 166.26 348 162.726C348.279 161.8 348.555 161.014 348.793 160.383C349.245 159.179 349.564 158.512 349.564 158.512C349.564 158.512 349.464 144.49 347.501 140.744C342.712 131.69 325.421 134.519 323.979 141.657C322.57 148.604 322.294 153.625 322.803 157.351Z" fill="#FEAE93"/>
<path d="M322.107 148.224C326.086 146.694 329.35 143.403 330.848 139.412C331.622 142.364 333.238 145.102 335.602 147.032C337.966 148.962 340.951 150.119 343.998 150.287C344.463 153.138 346.842 155.623 349.68 156.16C350.787 151.796 351.423 147.205 350.008 142.931C348.593 138.657 345.271 134.869 340.933 133.665C338.404 132.963 335.714 133.156 333.119 133.545C330.763 133.899 328.341 134.451 326.459 135.912C324.646 137.32 323.509 139.456 322.9 141.67C322.29 143.885 322.232 145.932 322.107 148.224Z" fill="black"/>
<path d="M329.082 150.113C327.722 149.138 325.938 149.168 324.628 150.269C324.383 150.475 324.335 150.896 324.515 151.171C324.699 151.452 325.056 151.504 325.301 151.297C325.839 150.845 326.518 150.647 327.178 150.705C327.511 150.734 327.841 150.828 328.145 150.985C328.415 151.124 328.676 151.363 328.984 151.192C329.057 151.151 329.121 151.09 329.171 151.017C329.345 150.768 329.34 150.298 329.082 150.113Z" fill="black"/>
<path d="M333.343 150.172C334.93 149.238 336.975 149.321 338.443 150.461C338.718 150.674 338.76 151.097 338.545 151.366C338.326 151.642 337.916 151.682 337.64 151.468C337.038 151.001 336.264 150.791 335.508 150.831C335.125 150.851 334.746 150.934 334.39 151.078C334.076 151.205 333.767 151.432 333.422 151.253C333.339 151.21 333.268 151.147 333.213 151.073C333.022 150.819 333.041 150.349 333.343 150.172Z" fill="black"/>
<path d="M337.009 154.422C336.998 155.047 336.482 155.545 335.857 155.534C335.232 155.523 334.733 155.007 334.745 154.381C334.756 153.756 335.272 153.258 335.898 153.269C336.522 153.281 337.02 153.797 337.009 154.422Z" fill="black"/>
<path d="M335.882 154.092C335.878 154.321 335.689 154.503 335.46 154.499C335.231 154.495 335.049 154.306 335.053 154.077C335.057 153.848 335.246 153.666 335.475 153.67C335.703 153.674 335.886 153.863 335.882 154.092Z" fill="#E1EFF0"/>
<path d="M328.249 154.266C328.238 154.891 327.722 155.389 327.096 155.378C326.471 155.367 325.973 154.851 325.984 154.225C325.995 153.6 326.511 153.102 327.137 153.113C327.762 153.125 328.26 153.641 328.249 154.266Z" fill="black"/>
<path d="M327.122 153.936C327.118 154.165 326.929 154.347 326.7 154.343C326.471 154.339 326.289 154.15 326.293 153.921C326.297 153.692 326.486 153.51 326.715 153.514C326.944 153.518 327.126 153.707 327.122 153.936Z" fill="#E1EFF0"/>
<path d="M333.832 159.541C333.502 158.987 332.556 159.519 331.45 159.564C330.344 159.61 329.358 159.157 329.075 159.736C328.717 160.469 329.744 162.212 331.556 162.138C333.368 162.064 334.249 160.242 333.832 159.541Z" fill="#8E4136"/>
<path d="M333.726 160.733C333.378 160.703 333.007 160.69 332.617 160.706C331.33 160.759 330.239 161.069 329.74 161.469C330.18 161.871 330.793 162.169 331.556 162.138C332.645 162.093 333.39 161.417 333.726 160.733Z" fill="#C16B5B"/>
<path d="M331.476 160.186C332.463 160.145 333.292 159.877 333.577 159.331C333.133 159.173 332.344 159.528 331.45 159.564C330.557 159.601 329.741 159.312 329.312 159.506C329.641 160.027 330.489 160.227 331.476 160.186Z" fill="#E1EFF0"/>
<path d="M329.602 157.362C329.538 157.361 329.48 157.318 329.462 157.253C329.199 156.282 329.533 155.96 329.86 155.861C330.191 155.762 330.584 155.853 331.029 156.138C331.097 156.182 331.117 156.274 331.073 156.343C331.028 156.411 330.936 156.43 330.868 156.387C330.502 156.152 330.191 156.069 329.946 156.144C329.653 156.233 329.586 156.58 329.748 157.176C329.769 157.254 329.723 157.336 329.644 157.357C329.63 157.361 329.615 157.363 329.602 157.362Z" fill="#C16B5B"/>
<path d="M353.34 158.887C351.836 160.63 349.496 161.076 348.112 159.882C346.728 158.689 346.826 156.308 348.329 154.565C349.833 152.822 352.173 152.376 353.557 153.57C354.941 154.764 354.844 157.144 353.34 158.887Z" fill="#FEAE93"/>
<path d="M352.58 154.42C351.956 154.079 351.117 154.082 350.338 154.432C349.949 154.606 349.666 154.82 349.471 155.087C349.213 155.44 349.137 155.887 349.272 156.253C349.392 156.581 349.65 156.797 349.878 156.988C350.043 157.126 350.198 157.256 350.285 157.41C350.418 157.647 350.379 157.975 350.194 158.174C350.009 158.372 349.684 158.433 349.438 158.315C349.293 158.246 349.122 158.307 349.052 158.451C348.983 158.594 349.044 158.768 349.188 158.837C349.346 158.913 349.517 158.95 349.69 158.952C350.033 158.957 350.379 158.822 350.616 158.568C350.972 158.186 351.045 157.58 350.788 157.125C350.65 156.88 350.436 156.701 350.249 156.544C350.06 156.386 349.882 156.237 349.815 156.052C349.747 155.868 349.796 155.622 349.939 155.426C349.996 155.347 350.075 155.276 350.161 155.208C350.448 155.209 350.806 155.303 350.985 155.504C351.186 155.731 351.278 156.056 351.225 156.354C351.197 156.511 351.302 156.661 351.459 156.689C351.475 156.692 351.49 156.693 351.506 156.694C351.645 156.696 351.769 156.597 351.794 156.456C351.88 155.981 351.739 155.482 351.417 155.12C351.297 154.986 351.147 154.894 350.989 154.819C351.469 154.697 351.94 154.729 352.304 154.927C352.753 155.172 353.086 155.794 352.846 156.293C352.777 156.437 352.838 156.61 352.982 156.679C353.126 156.748 353.298 156.687 353.368 156.543C353.714 155.816 353.354 154.844 352.58 154.42Z" fill="#A85D4F"/>
<path d="M108.716 247.991C108.716 247.991 107.39 316.446 105.283 326.35C103.258 335.866 68.1771 395.942 68.1771 395.942C68.1771 395.942 61.6511 396.607 56.5591 393.196C56.5591 393.196 73.4951 331.209 84.6311 324.527C84.6311 324.527 70.4711 272.053 72.9641 247.453L108.716 247.991Z" fill="#FEAE93"/>
<path d="M130.916 247.454C141.546 256.288 170.102 283.629 170.088 295.912C170.076 306.373 138.948 369.614 138.948 369.614C138.948 369.614 130.794 370.32 127.308 367.162C127.308 367.162 142.2 303.297 149.623 298.814C149.623 298.814 103.19 264.111 96.5078 247.245L130.916 247.454Z" fill="#FEAE93"/>
<path d="M90.216 413.964L52.2779 405.973C52.1449 405.102 52.1119 404.26 52.1549 403.443C52.4539 397.598 56.6049 393.205 56.6049 393.205C56.6049 393.205 60.3829 395.16 68.2449 395.657C68.2249 396.714 69.7419 398.979 74.7939 400.464C79.3949 401.822 91.3059 404.064 90.7609 411.575C90.7079 412.317 90.532 413.115 90.216 413.964Z" fill="#6C89D4"/>
<path d="M90.216 413.964L52.2779 405.973C52.1449 405.102 52.1119 404.26 52.1549 403.443L90.7599 411.575C90.7079 412.317 90.532 413.115 90.216 413.964Z" fill="white"/>
<path d="M70.8371 397.073C70.7181 396.906 70.5451 396.765 70.3361 396.73L70.1241 396.714C69.9851 396.723 69.8561 396.766 69.7391 396.841C69.0031 397.226 68.2661 397.612 67.5301 397.997C67.3601 398.086 67.2251 398.318 67.1871 398.498C67.1471 398.688 67.1831 398.933 67.2991 399.094C67.4181 399.261 67.5911 399.403 67.8001 399.437C67.8711 399.442 67.9421 399.447 68.0121 399.453C68.1511 399.444 68.2791 399.401 68.3961 399.326C69.1321 398.941 69.8691 398.556 70.6051 398.17C70.7751 398.081 70.9101 397.849 70.9481 397.669C70.9891 397.48 70.9521 397.235 70.8371 397.073Z" fill="white"/>
<path d="M73.1808 398.498C73.0618 398.331 72.8888 398.189 72.6798 398.155L72.4678 398.139C72.3288 398.148 72.2008 398.191 72.0838 398.266C71.3478 398.651 70.6108 399.037 69.8748 399.422C69.7048 399.511 69.5698 399.743 69.5318 399.923C69.4918 400.113 69.5278 400.358 69.6438 400.519C69.7628 400.686 69.9358 400.828 70.1448 400.862C70.2158 400.867 70.2858 400.872 70.3568 400.878C70.4958 400.869 70.6238 400.826 70.7418 400.75C71.4778 400.365 72.2148 399.98 72.9508 399.594C73.1208 399.505 73.2558 399.273 73.2938 399.093C73.3328 398.905 73.2958 398.659 73.1808 398.498Z" fill="white"/>
<path d="M76.404 399.694C76.285 399.527 76.112 399.385 75.903 399.351L75.691 399.335C75.552 399.344 75.424 399.387 75.307 399.462C74.571 399.847 73.834 400.233 73.098 400.618C72.928 400.707 72.793 400.939 72.755 401.119C72.715 401.309 72.751 401.555 72.867 401.715C72.986 401.882 73.159 402.024 73.368 402.058C73.439 402.063 73.509 402.068 73.58 402.074C73.719 402.065 73.847 402.022 73.964 401.947C74.7 401.562 75.437 401.177 76.173 400.792C76.343 400.703 76.478 400.471 76.516 400.291C76.555 400.101 76.519 399.855 76.404 399.694Z" fill="white"/>
<path d="M79.7608 400.781C79.6418 400.614 79.4688 400.472 79.2598 400.438L79.0478 400.422C78.9088 400.431 78.7808 400.474 78.6638 400.549C77.9278 400.934 77.1908 401.32 76.4548 401.705C76.2848 401.794 76.1498 402.026 76.1118 402.206C76.0718 402.396 76.1088 402.641 76.2238 402.802C76.3428 402.969 76.5158 403.111 76.7248 403.145C76.7958 403.15 76.8658 403.155 76.9368 403.161C77.0758 403.152 77.2038 403.109 77.3218 403.033C78.0578 402.648 78.7948 402.263 79.5308 401.877C79.7008 401.788 79.8358 401.556 79.8738 401.376C79.9128 401.187 79.8758 400.942 79.7608 400.781Z" fill="white"/>
<path d="M83.2238 401.993C83.1048 401.826 82.9318 401.684 82.7228 401.65L82.5108 401.634C82.3718 401.643 82.2438 401.686 82.1258 401.761C81.3898 402.146 80.6528 402.532 79.9168 402.917C79.7468 403.006 79.6118 403.238 79.5738 403.418C79.5338 403.608 79.5698 403.853 79.6858 404.015C79.8048 404.182 79.9778 404.324 80.1868 404.358C80.2578 404.363 80.3288 404.368 80.3988 404.374C80.5378 404.365 80.6658 404.322 80.7828 404.247C81.5188 403.862 82.2558 403.477 82.9918 403.091C83.1618 403.002 83.2968 402.77 83.3348 402.59C83.3758 402.4 83.3388 402.154 83.2238 401.993Z" fill="white"/>
<path d="M160.919 387.922L122.981 379.931C122.848 379.06 122.815 378.218 122.858 377.401C123.157 371.556 127.308 367.163 127.308 367.163C127.308 367.163 131.086 369.118 138.948 369.615C138.928 370.672 140.445 372.937 145.497 374.422C150.098 375.78 162.009 378.022 161.464 385.533C161.412 386.275 161.236 387.073 160.919 387.922Z" fill="#6C89D4"/>
<path d="M160.919 387.922L122.981 379.931C122.848 379.06 122.815 378.218 122.858 377.401L161.463 385.533C161.412 386.275 161.236 387.073 160.919 387.922Z" fill="white"/>
<path d="M141.54 371.031C141.421 370.864 141.248 370.722 141.039 370.688L140.827 370.672C140.688 370.681 140.56 370.724 140.442 370.799C139.706 371.184 138.969 371.57 138.233 371.955C138.063 372.044 137.928 372.276 137.89 372.456C137.85 372.646 137.887 372.891 138.002 373.052C138.121 373.219 138.294 373.361 138.503 373.395C138.574 373.4 138.644 373.405 138.715 373.411C138.854 373.402 138.982 373.359 139.1 373.283C139.836 372.898 140.573 372.513 141.309 372.128C141.479 372.039 141.614 371.807 141.652 371.627C141.692 371.437 141.656 371.192 141.54 371.031Z" fill="white"/>
<path d="M143.884 372.456C143.765 372.289 143.592 372.147 143.383 372.113L143.171 372.097C143.032 372.106 142.904 372.149 142.787 372.224C142.051 372.609 141.314 372.995 140.578 373.38C140.408 373.469 140.273 373.701 140.235 373.881C140.195 374.071 140.231 374.316 140.347 374.477C140.466 374.644 140.639 374.786 140.848 374.82C140.919 374.825 140.989 374.83 141.06 374.836C141.199 374.827 141.327 374.784 141.444 374.709C142.18 374.324 142.917 373.939 143.653 373.554C143.823 373.465 143.958 373.233 143.996 373.053C144.036 372.862 143.999 372.617 143.884 372.456Z" fill="white"/>
<path d="M147.107 373.652C146.988 373.485 146.815 373.343 146.606 373.309L146.394 373.293C146.255 373.302 146.127 373.345 146.01 373.42C145.274 373.805 144.537 374.191 143.801 374.576C143.631 374.665 143.496 374.897 143.458 375.077C143.418 375.267 143.455 375.512 143.57 375.673C143.689 375.84 143.862 375.982 144.071 376.016C144.142 376.021 144.212 376.026 144.283 376.032C144.422 376.023 144.55 375.98 144.668 375.904C145.404 375.519 146.141 375.134 146.877 374.748C147.047 374.659 147.182 374.427 147.22 374.247C147.259 374.058 147.222 373.813 147.107 373.652Z" fill="white"/>
<path d="M150.465 374.738C150.346 374.571 150.173 374.429 149.964 374.395L149.752 374.379C149.613 374.388 149.485 374.431 149.368 374.506C148.632 374.891 147.895 375.277 147.159 375.662C146.989 375.751 146.854 375.983 146.816 376.163C146.776 376.353 146.812 376.599 146.928 376.76C147.047 376.927 147.22 377.069 147.429 377.103C147.5 377.108 147.57 377.113 147.641 377.119C147.78 377.11 147.908 377.067 148.025 376.991C148.761 376.606 149.498 376.221 150.234 375.836C150.404 375.747 150.539 375.515 150.577 375.335C150.616 375.145 150.58 374.9 150.465 374.738Z" fill="white"/>
<path d="M153.928 375.951C153.809 375.784 153.636 375.642 153.427 375.608L153.215 375.592C153.076 375.601 152.948 375.644 152.831 375.719C152.095 376.104 151.358 376.49 150.622 376.875C150.452 376.964 150.317 377.196 150.279 377.376C150.239 377.566 150.276 377.811 150.391 377.972C150.51 378.139 150.683 378.281 150.892 378.315C150.963 378.32 151.033 378.325 151.104 378.331C151.243 378.322 151.371 378.279 151.488 378.203C152.224 377.818 152.961 377.433 153.697 377.047C153.867 376.958 154.002 376.726 154.04 376.546C154.079 376.357 154.043 376.112 153.928 375.951Z" fill="white"/>
<path d="M148.474 362.253C139.259 362.634 132.55 359.588 129.458 357.812C129.196 357.661 128.951 357.511 128.744 357.384C127.959 356.9 127.555 356.583 127.555 356.583C127.555 356.583 142.804 299.621 146.857 298.004C133.225 289.233 109.467 265.475 109.467 265.475C109.467 265.475 108.254 323.515 108.119 327.298C107.984 331.073 76.637 387.702 76.637 387.702C69.643 388.154 63.092 385.688 59.326 383.88C59.064 383.761 58.826 383.642 58.596 383.531C56.963 382.706 56.019 382.096 56.019 382.096C60.603 364.689 81.189 321.724 81.189 321.724C81.189 321.724 70.658 265.611 72.64 247.538L130.918 247.459C130.918 247.459 170.092 278.164 171.964 295.714C173.057 305.957 148.474 362.253 148.474 362.253Z" fill="#070D59"/>
<path d="M78.4912 257.028C78.6182 258.186 78.7452 259.344 78.8722 260.501C79.9032 269.795 80.9342 279.097 81.9652 288.399C82.9882 297.654 84.0192 306.916 85.0422 316.17C85.5182 320.484 85.8432 324.782 84.4242 328.961C83.1232 332.815 80.8552 336.233 78.7702 339.69C74.3772 346.962 70.4832 354.527 67.1132 362.323C64.0762 369.341 61.4832 376.542 59.3262 383.877C59.0642 383.758 58.8262 383.639 58.5962 383.528C58.6202 383.449 58.6442 383.361 58.6682 383.282C61.0712 375.185 64.0132 367.255 67.4782 359.547C70.9282 351.847 74.9402 344.448 79.3332 337.248C81.4422 333.79 83.5682 330.206 84.3532 326.17C85.2252 321.713 84.3452 317.027 83.8542 312.57C82.8232 303.316 81.8002 294.053 80.7772 284.799C79.7542 275.584 78.7312 266.362 77.7082 257.147C76.9712 257.226 76.2252 257.226 75.4802 257.139C74.9802 257.075 74.9732 256.282 75.4802 256.346C79.2152 256.774 83.0292 254.958 84.9962 251.754C85.2662 251.318 85.9482 251.714 85.6862 252.151C84.1062 254.713 81.4172 256.489 78.4912 257.028Z" fill="#1F3C88"/>
<path d="M151.218 297.71C149.315 301.961 147.467 306.243 145.707 310.557C142.487 318.416 139.498 326.362 136.746 334.387C134.09 342.127 131.663 349.938 129.458 357.813C129.196 357.662 128.951 357.512 128.744 357.385C129.949 353.111 131.218 348.852 132.55 344.61C135.111 336.482 137.911 328.433 140.94 320.471C143.914 312.668 147.11 304.944 150.527 297.323C147.347 295.222 144.167 293.128 141.027 290.963C135.515 287.149 130.21 283.033 125.183 278.592C120.187 274.183 115.453 269.472 111.02 264.492C110.679 264.111 111.242 263.548 111.583 263.937C114.065 266.721 116.642 269.433 119.315 272.05C124.049 276.689 129.061 281.058 134.319 285.103C139.735 289.266 145.453 293.009 151.147 296.784C151.187 296.8 151.226 296.824 151.258 296.855C151.313 296.895 151.369 296.926 151.424 296.966C151.781 297.202 151.551 297.717 151.218 297.71Z" fill="#1F3C88"/>
<path d="M103.866 151.585L117.669 153.744C117.669 153.744 154.685 144.667 155.36 143.857C156.035 143.047 172.907 104.708 172.907 104.708L181.411 106.737C181.411 106.737 171.827 146.826 165.348 154.52C161.471 159.124 118.24 176.117 118.24 176.117L103.866 151.585Z" fill="#FEAE93"/>
<path d="M168.023 113.073L169.466 108.492C169.466 108.492 177.413 109.251 181.715 111.833L179.614 116.616L168.023 113.073Z" fill="white"/>
<path d="M181.006 115.983C180.601 115.578 167.98 111.731 167.305 112.271C166.63 112.811 154.279 141.798 153.773 142.507C153.267 143.216 117.246 152.934 117.246 152.934L103.864 151.585H103.593L119.558 177.979C119.558 177.979 164.131 158.705 166.628 155.871C169.128 153.035 181.411 116.388 181.006 115.983Z" fill="#3F5AA1"/>
<path d="M173.985 108.985C173.985 108.985 178.308 110.44 181.287 107.741C184.215 105.088 183.933 102.013 183.933 102.013C183.933 102.013 189.798 103.602 190.712 102.614C191.626 101.626 185.206 99.149 185.206 99.149C185.206 99.149 192.277 98.352 192.231 97.185C192.185 96.017 184.575 96.316 184.575 96.316C184.575 96.316 191.213 92.202 190.38 90.849C189.547 89.496 181.33 94.552 181.33 94.552C181.33 94.552 183.152 87.922 181.761 87.505C179.76 86.905 174.672 98.912 174.539 98.831C174.406 98.75 170.827 93.611 169.035 95.409C167.306 97.144 170.471 98.362 170.974 101.244C171.208 102.581 171.27 107.684 173.985 108.985Z" fill="#FEAE93"/>
<path d="M130.917 247.457C116.611 255.149 73.8917 249.781 72.6387 247.536L76.3817 202.691L78.1817 181.089L80.2907 155.863L92.2497 152.096L103.868 151.581L115.779 154.848L119.926 180.224L123.709 203.38L130.917 247.457Z" fill="#3F5AA1"/>
<path d="M123.708 203.381C107.864 202.461 92.2409 202.096 76.3809 202.691L78.1809 181.089C92.0189 179.392 106.031 179.099 119.925 180.225L123.708 203.381Z" fill="#6C89D4"/>
<path d="M80.2907 155.861C72.4817 158.435 47.5107 169.908 47.5107 169.908L58.0387 124.739L48.4547 123.152C48.4547 123.152 27.6337 173.991 35.0917 182.326C41.7757 189.797 78.3937 178.575 78.3937 178.575L80.2907 155.861Z" fill="#FEAE93"/>
<path d="M43.605 133.421L44.87 127.98C44.87 127.98 51.855 127.778 58.005 130.89L56.056 136.407L43.605 133.421Z" fill="white"/>
<path d="M80.6247 155.729C71.8037 158.168 49.1977 168.119 49.1977 168.119C49.1977 168.119 57.2457 136.296 57.0937 135.984C56.9417 135.672 43.8317 132.737 43.2747 132.939C42.7177 133.141 27.4787 175.913 33.4787 183.337C39.4787 190.761 78.8587 179.659 78.8587 179.659L80.6247 155.729Z" fill="#3F5AA1"/>
<path d="M54.2627 127.57C54.2627 127.57 49.7177 127.183 48.0607 123.521C46.4317 119.921 47.9147 117.214 47.9147 117.214C47.9147 117.214 41.9017 116.336 41.4567 115.065C41.0117 113.794 47.8867 114.079 47.8867 114.079C47.8867 114.079 41.7177 110.533 42.2247 109.48C42.7317 108.427 49.5937 111.731 49.5937 111.731C49.5937 111.731 45.1427 105.314 46.4457 104.404C47.7477 103.494 53.2727 111.405 53.2727 111.405C53.2727 111.405 54.2417 104.598 55.6837 104.769C57.7577 105.016 57.6437 118.056 57.7977 118.034C57.9527 118.012 63.2817 114.723 64.2087 117.087C65.1037 119.367 61.7147 119.224 60.1067 121.667C59.3597 122.802 57.2707 127.457 54.2627 127.57Z" fill="#FEAE93"/>
<path d="M118.445 113.071C119.323 110.071 118.865 106.705 117.216 104.049C115.567 101.393 112.755 99.4881 109.677 98.9441C106.975 98.4661 104.199 98.9971 101.545 99.6971C97.1359 100.86 92.7359 102.567 89.3879 105.664C86.4989 108.336 84.5459 112.32 84.6839 116.225C84.1969 115.938 83.7349 115.609 83.3119 115.234C83.5269 116.112 83.7409 116.99 83.9549 117.868C83.0569 117.748 82.1189 117.96 81.3599 118.455C82.1589 118.365 82.9699 118.447 83.7469 118.656C83.4809 118.942 83.2809 119.303 83.1839 119.68C82.9749 120.495 83.1339 121.356 83.3289 122.174C84.4129 126.722 86.6469 130.992 89.7659 134.476C98.0369 131.208 108.928 132.442 115.738 126.722C117.673 125.096 119.024 122.788 119.493 120.305C119.964 117.821 119.653 115.291 118.445 113.071Z" fill="black"/>
<path d="M116.868 131.146C116.861 131.194 116.854 131.235 116.848 131.283C116.827 131.386 116.814 131.482 116.8 131.584C116.793 131.646 116.78 131.7 116.766 131.762C116.369 133.913 115.718 135.632 114.862 137.049C114.102 138.323 113.177 139.35 112.136 140.213C110.253 141.781 108.629 142.679 107.321 143.658C107.129 143.809 106.938 143.946 106.759 144.096C106.663 144.171 106.581 144.247 106.492 144.329C106.362 144.452 106.245 144.562 106.122 144.685C105.896 144.918 105.684 145.164 105.485 145.432C104.396 146.884 103.78 148.952 103.738 152.754C101.807 157.494 94.5599 158.062 92.2789 152.631C92.3889 147.891 91.8059 143.597 91.0799 140.166C89.9909 135.057 88.5659 131.838 88.5659 131.838C88.5659 131.838 88.6819 128.009 89.0869 123.742C89.4709 119.612 90.1279 115.057 91.1899 113.14C96.4769 103.695 114.655 107.12 115.997 114.681C117.286 121.976 117.471 127.236 116.868 131.146Z" fill="#FEAE93"/>
<path d="M117.07 112.845C115.178 114.931 112.181 115.598 109.369 115.747C104.507 116.006 99.5838 115.033 95.1848 112.946C95.2738 114.32 94.1118 115.654 92.7378 115.754C92.8688 120.282 91.3188 124.84 88.4528 128.349C87.9758 125.231 87.5648 122.096 87.8748 118.957C88.1848 115.818 89.1918 112.683 91.1758 110.232C92.8418 108.175 95.1418 106.674 97.6358 105.787C100.13 104.9 102.813 104.609 105.457 104.738C108.034 104.863 110.644 105.402 112.854 106.733C115.066 108.063 116.672 110.295 117.07 112.845Z" fill="black"/>
<path d="M102.158 127.873C102.151 128.518 102.669 129.046 103.313 129.052C103.958 129.058 104.485 128.541 104.492 127.896C104.499 127.251 103.981 126.724 103.337 126.717C102.693 126.71 102.164 127.229 102.158 127.873Z" fill="black"/>
<path d="M103.328 127.566C103.326 127.802 103.515 127.995 103.751 127.998C103.987 128 104.18 127.811 104.183 127.575C104.186 127.339 103.996 127.146 103.76 127.143C103.524 127.14 103.33 127.33 103.328 127.566Z" fill="#E1EFF0"/>
<path d="M111.185 127.964C111.179 128.609 111.696 129.137 112.341 129.143C112.985 129.15 113.513 128.632 113.52 127.987C113.527 127.342 113.009 126.815 112.365 126.808C111.72 126.802 111.192 127.32 111.185 127.964Z" fill="black"/>
<path d="M112.355 127.656C112.353 127.892 112.542 128.085 112.778 128.088C113.014 128.09 113.207 127.901 113.21 127.665C113.212 127.429 113.023 127.236 112.787 127.233C112.55 127.231 112.357 127.42 112.355 127.656Z" fill="#E1EFF0"/>
<path d="M105.283 133.238C105.639 132.677 106.598 133.252 107.736 133.33C108.874 133.409 109.903 132.971 110.178 133.576C110.526 134.341 109.417 136.107 107.553 135.979C105.688 135.85 104.833 133.948 105.283 133.238Z" fill="#8E4136"/>
<path d="M105.358 134.468C105.717 134.447 106.099 134.445 106.501 134.472C107.825 134.563 108.94 134.914 109.443 135.341C108.978 135.743 108.339 136.032 107.553 135.978C106.432 135.901 105.685 135.183 105.358 134.468Z" fill="#C16B5B"/>
<path d="M107.691 133.97C106.675 133.9 105.829 133.599 105.551 133.029C106.013 132.879 106.816 133.267 107.735 133.33C108.654 133.394 109.503 133.12 109.94 133.332C109.587 133.859 108.707 134.04 107.691 133.97Z" fill="#E1EFF0"/>
<path d="M109.703 131.115C109.769 131.116 109.83 131.073 109.851 131.006C110.15 130.014 109.815 129.672 109.481 129.56C109.143 129.448 108.735 129.531 108.269 129.812C108.197 129.855 108.174 129.949 108.217 130.022C108.262 130.093 108.356 130.116 108.427 130.074C108.811 129.842 109.133 129.766 109.383 129.85C109.682 129.95 109.741 130.309 109.558 130.918C109.534 130.998 109.579 131.083 109.66 131.108C109.675 131.113 109.69 131.114 109.703 131.115Z" fill="#C16B5B"/>
<path d="M114.46 123.376C113.055 122.626 111.356 122.562 109.93 123.309C109.581 123.492 109.39 123.957 109.589 124.319C109.782 124.67 110.225 124.855 110.599 124.66C110.743 124.585 110.889 124.522 111.038 124.46C111.053 124.455 111.05 124.455 111.059 124.452C111.086 124.444 111.112 124.435 111.139 124.427C111.197 124.41 111.255 124.394 111.314 124.38C111.47 124.342 111.629 124.313 111.789 124.293C111.829 124.288 112.087 124.243 111.888 124.281C111.954 124.268 112.032 124.276 112.099 124.276C112.25 124.277 112.401 124.285 112.551 124.303C112.631 124.312 112.71 124.326 112.79 124.338C112.799 124.339 112.801 124.34 112.808 124.34C112.819 124.343 112.835 124.347 112.858 124.353C113.004 124.389 113.149 124.433 113.29 124.485C113.365 124.513 113.44 124.543 113.513 124.576C113.542 124.589 113.571 124.603 113.6 124.616C113.605 124.619 113.603 124.618 113.609 124.621C113.611 124.622 113.613 124.622 113.615 124.623C113.617 124.624 113.62 124.625 113.622 124.626C113.619 124.625 113.62 124.625 113.617 124.624C113.963 124.805 114.427 124.79 114.655 124.422C114.855 124.107 114.831 123.574 114.46 123.376Z" fill="black"/>
<path d="M105.666 122.769C104.261 122.018 102.562 121.955 101.136 122.702C100.787 122.885 100.596 123.35 100.795 123.712C100.988 124.063 101.431 124.248 101.805 124.053C101.948 123.978 102.095 123.916 102.244 123.853C102.259 123.848 102.256 123.848 102.265 123.845C102.292 123.837 102.318 123.828 102.345 123.82C102.403 123.803 102.461 123.787 102.52 123.773C102.676 123.735 102.835 123.706 102.995 123.686C103.035 123.681 103.293 123.636 103.094 123.674C103.16 123.661 103.238 123.669 103.306 123.669C103.457 123.67 103.608 123.678 103.758 123.696C103.838 123.705 103.917 123.719 103.997 123.731C104.006 123.732 104.009 123.733 104.015 123.733C104.026 123.736 104.042 123.74 104.065 123.746C104.211 123.782 104.356 123.826 104.497 123.878C104.572 123.906 104.647 123.936 104.721 123.969C104.75 123.982 104.779 123.996 104.808 124.009C104.813 124.012 104.811 124.011 104.817 124.014C104.819 124.015 104.821 124.015 104.823 124.016C104.825 124.017 104.828 124.018 104.83 124.019C104.827 124.018 104.828 124.018 104.825 124.017C105.171 124.198 105.635 124.183 105.863 123.815C106.061 123.499 106.037 122.967 105.666 122.769Z" fill="black"/>
<path d="M84.5761 132.14C86.1191 134.018 88.5781 134.548 90.0691 133.323C91.5601 132.098 91.5171 129.583 89.9741 127.705C88.4311 125.827 85.9721 125.297 84.4811 126.522C82.9911 127.746 83.0331 130.262 84.5761 132.14Z" fill="#FEAE93"/>
<path d="M85.492 127.443C86.159 127.098 87.045 127.124 87.859 127.513C88.265 127.706 88.558 127.94 88.757 128.226C89.02 128.605 89.089 129.079 88.938 129.462C88.803 129.806 88.525 130.027 88.28 130.223C88.103 130.364 87.935 130.498 87.839 130.658C87.692 130.904 87.725 131.252 87.916 131.467C88.106 131.681 88.448 131.753 88.71 131.635C88.864 131.566 89.044 131.635 89.114 131.788C89.183 131.941 89.115 132.123 88.961 132.192C88.793 132.268 88.61 132.303 88.428 132.301C88.066 132.297 87.704 132.146 87.46 131.872C87.093 131.46 87.033 130.818 87.315 130.345C87.467 130.09 87.697 129.907 87.899 129.745C88.102 129.583 88.294 129.43 88.37 129.237C88.446 129.044 88.401 128.784 88.255 128.573C88.196 128.488 88.115 128.411 88.026 128.337C87.723 128.331 87.342 128.421 87.149 128.628C86.931 128.862 86.825 129.204 86.874 129.519C86.9 129.686 86.785 129.841 86.619 129.867C86.602 129.87 86.586 129.871 86.569 129.871C86.422 129.87 86.294 129.762 86.271 129.612C86.193 129.109 86.354 128.585 86.702 128.211C86.832 128.072 86.993 127.979 87.162 127.904C86.658 127.763 86.16 127.785 85.771 127.985C85.291 128.232 84.924 128.88 85.164 129.413C85.233 129.567 85.164 129.747 85.011 129.817C84.857 129.886 84.677 129.818 84.607 129.664C84.259 128.888 84.664 127.871 85.492 127.443Z" fill="#C16B5B"/>
<path d="M90.0869 152.777L92.2089 150.1L98.0769 156.51L94.0819 161.969L90.0869 152.777Z" fill="white"/>
<path d="M106.067 152.777L103.945 150.1L98.0771 156.51L102.072 161.969L106.067 152.777Z" fill="white"/>
</svg>
