<svg width="1945" height="1952" viewBox="0 0 1945 1952" fill="none" xmlns="http://www.w3.org/2000/svg">
<mask id="mask0_34_11453" style="mask-type:luminance" maskUnits="userSpaceOnUse" x="4" y="23" width="1941" height="1929">
<path d="M1003.96 1951.56C884.492 1951.56 788.572 1934.89 738.873 1925.64C546.481 1889.83 384.072 1864.57 244.537 1738.5C50.1624 1562.89 -19.2588 1270.37 11.9392 984.984C84.2542 1482.41 463.057 1583.4 463.057 1583.4C525.559 1507.04 542.271 1395.15 526.458 1272.99C621.479 1103.48 607.178 813.94 520.457 591.587C474.249 473.099 468.562 307.895 472.57 184.933C573.153 112.318 697.606 50.2135 842.341 31.2915C851.799 30.0509 858.852 29.3539 865.027 28.6987C880.129 27.0958 915.081 23.7714 963.721 23.7714C1107.66 23.7714 1371.68 52.8828 1597.51 242.083C1640.76 278.324 1710.37 343.676 1774.91 443.36C2010.91 807.849 2011.65 1372.35 1711.52 1681.72C1703.51 1689.98 1695.63 1697.7 1687.9 1704.94V637.02C1687.9 618.293 1672.72 603.107 1653.99 603.107H1070.7C1104 583.035 1126.3 546.515 1126.3 504.88C1126.3 441.681 1074.89 390.267 1011.7 390.267C948.5 390.267 897.086 441.681 897.086 504.88C897.086 521.516 900.648 537.329 907.045 551.61C906.829 551.735 906.613 551.882 906.411 552.042C904.181 553.882 901.979 555.736 899.79 557.604C897.985 559.144 897.769 561.848 899.309 563.653C900.16 564.643 901.358 565.151 902.571 565.151C903.554 565.151 904.55 564.817 905.352 564.127C907.199 562.552 909.053 560.991 910.927 559.443C920.713 577.446 935.188 592.548 952.695 603.107H883.175C864.441 603.107 849.262 618.293 849.262 637.02V1940.72H1166.89C1109.52 1948.55 1054.62 1951.56 1003.96 1951.56ZM1049.12 603.107H974.273C934.735 587.997 906.586 549.665 906.586 504.88C906.586 446.922 953.734 399.766 1011.7 399.766C1069.66 399.766 1116.81 446.922 1116.81 504.88C1116.81 549.665 1088.66 587.997 1049.12 603.107ZM935.746 539.866C949.015 568.546 978.071 588.499 1011.7 588.499C1057.81 588.499 1095.32 550.989 1095.32 504.88C1095.32 458.77 1057.81 421.26 1011.7 421.26C965.589 421.26 928.072 458.77 928.072 504.88C928.072 515.104 929.919 524.91 933.292 533.977C932.839 533.817 932.358 533.733 931.871 533.733C931.027 533.733 930.17 533.984 929.424 534.507C927.041 536.158 924.692 537.852 922.357 539.581C920.455 540.981 920.05 543.672 921.458 545.574C922.295 546.71 923.598 547.317 924.908 547.317C925.793 547.317 926.685 547.045 927.452 546.473C929.724 544.801 932.017 543.149 934.324 541.539C934.958 541.1 935.439 540.514 935.746 539.866ZM210.236 590.68C197.783 559.896 186.534 528.625 176.433 497.903C179.308 493.338 182.226 488.794 185.169 484.299C195.8 468.06 235.624 408.722 301.168 337.843C259.301 428.773 229.783 512.957 210.236 590.68ZM1011.7 570.539C984.622 570.539 961.324 554.07 951.295 530.625C953.574 529.28 955.867 527.983 958.194 526.729C960.278 525.607 961.052 523 959.93 520.916C959.156 519.481 957.679 518.665 956.152 518.665C955.462 518.665 954.765 518.833 954.117 519.181C952.194 520.219 950.291 521.286 948.402 522.38C946.862 516.804 946.033 510.936 946.033 504.88C946.033 468.673 975.492 439.22 1011.7 439.22C1047.91 439.22 1077.36 468.673 1077.36 504.88C1077.36 541.086 1047.91 570.539 1011.7 570.539Z" fill="white"/>
</mask>
<g mask="url(#mask0_34_11453)">
<path d="M1003.96 1951.56C884.492 1951.56 788.572 1934.89 738.873 1925.64C546.481 1889.83 384.072 1864.57 244.537 1738.5C50.1624 1562.89 -19.2588 1270.37 11.9392 984.984C84.2542 1482.41 463.057 1583.4 463.057 1583.4C525.559 1507.04 542.271 1395.15 526.458 1272.99C621.479 1103.48 607.178 813.94 520.457 591.587C474.249 473.099 468.562 307.895 472.57 184.933C573.153 112.318 697.606 50.2135 842.341 31.2915C851.799 30.0509 858.852 29.3539 865.027 28.6987C880.129 27.0958 915.081 23.7714 963.721 23.7714C1107.66 23.7714 1371.68 52.8828 1597.51 242.083C1640.76 278.324 1710.37 343.676 1774.91 443.36C2010.91 807.849 2011.65 1372.35 1711.52 1681.72C1703.51 1689.98 1695.63 1697.7 1687.9 1704.94V637.02C1687.9 618.293 1672.72 603.107 1653.99 603.107H1070.7C1104 583.035 1126.3 546.515 1126.3 504.88C1126.3 441.681 1074.89 390.267 1011.7 390.267C948.5 390.267 897.086 441.681 897.086 504.88C897.086 521.516 900.648 537.329 907.045 551.61C906.829 551.735 906.613 551.882 906.411 552.042C904.181 553.882 901.979 555.736 899.79 557.604C897.985 559.144 897.769 561.848 899.309 563.653C900.16 564.643 901.358 565.151 902.571 565.151C903.554 565.151 904.55 564.817 905.352 564.127C907.199 562.552 909.053 560.991 910.927 559.443C920.713 577.446 935.188 592.548 952.695 603.107H883.175C864.441 603.107 849.262 618.293 849.262 637.02V1940.72H1166.89C1109.52 1948.55 1054.62 1951.56 1003.96 1951.56ZM1049.12 603.107H974.273C934.735 587.997 906.586 549.665 906.586 504.88C906.586 446.922 953.734 399.766 1011.7 399.766C1069.66 399.766 1116.81 446.922 1116.81 504.88C1116.81 549.665 1088.66 587.997 1049.12 603.107ZM935.746 539.866C949.015 568.546 978.071 588.499 1011.7 588.499C1057.81 588.499 1095.32 550.989 1095.32 504.88C1095.32 458.77 1057.81 421.26 1011.7 421.26C965.589 421.26 928.072 458.77 928.072 504.88C928.072 515.104 929.919 524.91 933.292 533.977C932.839 533.817 932.358 533.733 931.871 533.733C931.027 533.733 930.17 533.984 929.424 534.507C927.041 536.158 924.692 537.852 922.357 539.581C920.455 540.981 920.05 543.672 921.458 545.574C922.295 546.71 923.598 547.317 924.908 547.317C925.793 547.317 926.685 547.045 927.452 546.473C929.724 544.801 932.017 543.149 934.324 541.539C934.958 541.1 935.439 540.514 935.746 539.866ZM210.236 590.68C197.783 559.896 186.534 528.625 176.433 497.903C179.308 493.338 182.226 488.794 185.169 484.299C195.8 468.06 235.624 408.722 301.168 337.843C259.301 428.773 229.783 512.957 210.236 590.68ZM1011.7 570.539C984.622 570.539 961.324 554.07 951.295 530.625C953.574 529.28 955.867 527.983 958.194 526.729C960.278 525.607 961.052 523 959.93 520.916C959.156 519.481 957.679 518.665 956.152 518.665C955.462 518.665 954.765 518.833 954.117 519.181C952.194 520.219 950.291 521.286 948.402 522.38C946.862 516.804 946.033 510.936 946.033 504.88C946.033 468.673 975.492 439.22 1011.7 439.22C1047.91 439.22 1077.36 468.673 1077.36 504.88C1077.36 541.086 1047.91 570.539 1011.7 570.539Z" fill="url(#paint0_linear_34_11453)"/>
</g>
<mask id="mask1_34_11453" style="mask-type:luminance" maskUnits="userSpaceOnUse" x="849" y="603" width="839" height="1338">
<path d="M1675.57 1940.72H849.262V637.021C849.262 618.294 864.441 603.108 883.175 603.108H952.695C969.945 613.506 990.135 619.493 1011.7 619.493C1033.26 619.493 1053.45 613.506 1070.7 603.108H1653.99C1672.72 603.108 1687.9 618.294 1687.9 637.021V1704.94V1928.39C1687.9 1935.2 1682.38 1940.72 1675.57 1940.72ZM1011.7 609.986C998.519 609.986 985.905 607.554 974.273 603.108H1049.12C1037.49 607.554 1024.87 609.986 1011.7 609.986Z" fill="white"/>
</mask>
<g mask="url(#mask1_34_11453)">
<path d="M1675.57 1940.72H849.262V637.021C849.262 618.294 864.441 603.108 883.175 603.108H952.695C969.945 613.506 990.135 619.493 1011.7 619.493C1033.26 619.493 1053.45 613.506 1070.7 603.108H1653.99C1672.72 603.108 1687.9 618.294 1687.9 637.021V1704.94V1928.39C1687.9 1935.2 1682.38 1940.72 1675.57 1940.72ZM1011.7 609.986C998.519 609.986 985.905 607.554 974.273 603.108H1049.12C1037.49 607.554 1024.87 609.986 1011.7 609.986Z" fill="url(#paint1_linear_34_11453)"/>
</g>
<mask id="mask2_34_11453" style="mask-type:luminance" maskUnits="userSpaceOnUse" x="0" y="245" width="533" height="1339">
<path d="M463.056 1583.4C463.056 1583.4 84.2538 1482.41 11.9388 984.984C-14.8685 800.587 0.437765 561.688 92.776 253.297C94.2821 248.265 98.5572 245.811 102.825 245.811C107.437 245.811 112.041 248.676 113.14 254.237C123.341 305.916 143.914 398.986 176.432 497.903C186.533 528.625 197.783 559.897 210.236 590.681C188.589 676.76 179.141 754.979 178.653 825.6C167.018 775.957 156.512 726.041 146.759 675.98C137.946 630.218 130.054 584.269 122.978 538.201C119.404 515.167 116.041 492.098 112.964 468.994L108.622 434.307L106.63 416.946L105.731 408.269C105.482 405.419 105.167 402.359 105.052 399.857L105.033 399.446C104.989 398.47 104.181 397.704 103.211 397.704C103.183 397.704 103.155 397.704 103.126 397.704C102.15 397.752 101.387 398.561 101.384 399.53C101.38 402.861 101.642 405.614 101.793 408.583L102.429 417.337L103.896 434.802C104.952 446.434 106.187 458.052 107.422 469.663C109.977 492.878 112.819 516.066 115.874 539.225C122.07 585.53 129.519 631.654 137.661 677.667C145.738 723.693 155.102 769.489 165.433 815.069C170.089 835.525 174.874 855.959 179.867 876.338C188.185 1026.34 237.4 1138.97 290.73 1218.62C308.885 1260.93 328.157 1302.78 349.78 1343.45C372.041 1384.61 396.066 1424.83 422.912 1463.13C423.267 1463.64 423.839 1463.91 424.417 1463.91C424.787 1463.91 425.156 1463.81 425.477 1463.58C426.285 1463.01 426.501 1461.9 425.972 1461.07L425.958 1461.05C400.707 1421.89 377.611 1381.43 356.544 1339.94C342.176 1311.82 328.925 1283.17 316.389 1254.19C378.823 1334.67 438.928 1371.51 438.928 1371.51C474.702 1347.26 503.709 1313.56 526.457 1272.99C542.271 1395.15 525.558 1507.04 463.056 1583.4Z" fill="white"/>
</mask>
<g mask="url(#mask2_34_11453)">
<path d="M463.056 1583.4C463.056 1583.4 84.2538 1482.41 11.9388 984.984C-14.8685 800.587 0.437765 561.688 92.776 253.297C94.2821 248.265 98.5572 245.811 102.825 245.811C107.437 245.811 112.041 248.676 113.14 254.237C123.341 305.916 143.914 398.986 176.432 497.903C186.533 528.625 197.783 559.897 210.236 590.681C188.589 676.76 179.141 754.979 178.653 825.6C167.018 775.957 156.512 726.041 146.759 675.98C137.946 630.218 130.054 584.269 122.978 538.201C119.404 515.167 116.041 492.098 112.964 468.994L108.622 434.307L106.63 416.946L105.731 408.269C105.482 405.419 105.167 402.359 105.052 399.857L105.033 399.446C104.989 398.47 104.181 397.704 103.211 397.704C103.183 397.704 103.155 397.704 103.126 397.704C102.15 397.752 101.387 398.561 101.384 399.53C101.38 402.861 101.642 405.614 101.793 408.583L102.429 417.337L103.896 434.802C104.952 446.434 106.187 458.052 107.422 469.663C109.977 492.878 112.819 516.066 115.874 539.225C122.07 585.53 129.519 631.654 137.661 677.667C145.738 723.693 155.102 769.489 165.433 815.069C170.089 835.525 174.874 855.959 179.867 876.338C188.185 1026.34 237.4 1138.97 290.73 1218.62C308.885 1260.93 328.157 1302.78 349.78 1343.45C372.041 1384.61 396.066 1424.83 422.912 1463.13C423.267 1463.64 423.839 1463.91 424.417 1463.91C424.787 1463.91 425.156 1463.81 425.477 1463.58C426.285 1463.01 426.501 1461.9 425.972 1461.07L425.958 1461.05C400.707 1421.89 377.611 1381.43 356.544 1339.94C342.176 1311.82 328.925 1283.17 316.389 1254.19C378.823 1334.67 438.928 1371.51 438.928 1371.51C474.702 1347.26 503.709 1313.56 526.457 1272.99C542.271 1395.15 525.558 1507.04 463.056 1583.4Z" fill="url(#paint2_linear_34_11453)"/>
</g>
<mask id="mask3_34_11453" style="mask-type:luminance" maskUnits="userSpaceOnUse" x="101" y="397" width="326" height="1067">
<path d="M424.418 1463.91C423.84 1463.91 423.268 1463.64 422.913 1463.13C396.067 1424.83 372.041 1384.61 349.781 1343.45C328.158 1302.78 308.886 1260.93 290.731 1218.62C299.238 1231.33 307.821 1243.15 316.39 1254.19C328.926 1283.17 342.177 1311.82 356.545 1339.94C377.611 1381.43 400.708 1421.89 425.958 1461.05L425.972 1461.07C426.502 1461.9 426.286 1463.01 425.478 1463.58C425.157 1463.81 424.788 1463.91 424.418 1463.91ZM179.868 876.338C174.875 855.959 170.09 835.525 165.434 815.069C155.103 769.489 145.738 723.693 137.662 677.667C129.52 631.654 122.071 585.53 115.875 539.225C112.82 516.066 109.977 492.878 107.423 469.663C106.187 458.052 104.953 446.434 103.897 434.802L102.43 417.337L101.794 408.583C101.643 405.614 101.381 402.861 101.385 399.53C101.388 398.561 102.151 397.752 103.127 397.704C103.156 397.704 103.184 397.704 103.212 397.704C104.182 397.704 104.989 398.47 105.034 399.446L105.053 399.857C105.168 402.359 105.483 405.419 105.732 408.269L106.631 416.946L108.623 434.307L112.965 468.994C116.042 492.098 119.405 515.167 122.979 538.201C130.054 584.269 137.947 630.218 146.76 675.98C156.512 726.041 167.019 775.957 178.654 825.6C178.533 842.961 178.956 859.883 179.868 876.338Z" fill="white"/>
</mask>
<g mask="url(#mask3_34_11453)">
<path d="M424.418 1463.91C423.84 1463.91 423.268 1463.64 422.913 1463.13C396.067 1424.83 372.041 1384.61 349.781 1343.45C328.158 1302.78 308.886 1260.93 290.731 1218.62C299.238 1231.33 307.821 1243.15 316.39 1254.19C328.926 1283.17 342.177 1311.82 356.545 1339.94C377.611 1381.43 400.708 1421.89 425.958 1461.05L425.972 1461.07C426.502 1461.9 426.286 1463.01 425.478 1463.58C425.157 1463.81 424.788 1463.91 424.418 1463.91ZM179.868 876.338C174.875 855.959 170.09 835.525 165.434 815.069C155.103 769.489 145.738 723.693 137.662 677.667C129.52 631.654 122.071 585.53 115.875 539.225C112.82 516.066 109.977 492.878 107.423 469.663C106.187 458.052 104.953 446.434 103.897 434.802L102.43 417.337L101.794 408.583C101.643 405.614 101.381 402.861 101.385 399.53C101.388 398.561 102.151 397.752 103.127 397.704C103.156 397.704 103.184 397.704 103.212 397.704C104.182 397.704 104.989 398.47 105.034 399.446L105.053 399.857C105.168 402.359 105.483 405.419 105.732 408.269L106.631 416.946L108.623 434.307L112.965 468.994C116.042 492.098 119.405 515.167 122.979 538.201C130.054 584.269 137.947 630.218 146.76 675.98C156.512 726.041 167.019 775.957 178.654 825.6C178.533 842.961 178.956 859.883 179.868 876.338Z" fill="url(#paint3_linear_34_11453)"/>
</g>
<mask id="mask4_34_11453" style="mask-type:luminance" maskUnits="userSpaceOnUse" x="178" y="46" width="414" height="1326">
<path d="M438.928 1371.51C438.928 1371.51 378.823 1334.67 316.389 1254.19C307.821 1243.15 299.238 1231.33 290.73 1218.62C237.4 1138.97 188.185 1026.34 179.867 876.337C178.955 859.882 178.532 842.961 178.653 825.6C179.142 754.978 188.589 676.76 210.236 590.68C229.783 512.957 259.301 428.773 301.168 337.843C342.219 248.689 395.132 153.11 462.22 50.722C464.29 47.5648 467.405 46.1641 470.485 46.1641C475.922 46.1641 481.267 50.5062 480.633 57.148C477.782 87.3258 474.291 132.251 472.569 184.933C468.562 307.895 474.249 473.099 520.456 591.586C607.177 813.94 621.479 1103.48 526.457 1272.99C503.709 1313.56 474.702 1347.26 438.928 1371.51ZM431.896 185.895C431.122 185.895 430.418 186.403 430.188 187.163C429.275 190.23 428.766 192.822 428.09 195.589L426.285 203.785L422.863 220.198C420.654 231.161 418.612 242.145 416.577 253.136C412.583 275.125 408.855 297.155 405.335 319.227C398.38 363.379 392.623 407.718 387.528 452.135C382.378 496.544 378.468 541.1 375.504 585.718C372.581 630.337 370.287 675.018 369.465 719.748C367.648 809.187 370.703 898.814 380.078 987.862C385.235 1032.33 391.556 1076.69 400.443 1120.58C409.642 1164.39 420.703 1207.83 434.893 1250.28C435.143 1251.03 435.847 1251.5 436.593 1251.5C436.788 1251.5 436.976 1251.47 437.165 1251.41C438.085 1251.1 438.586 1250.13 438.321 1249.21L438.315 1249.18C425.86 1206.38 415.72 1162.98 407.733 1119.17C399.62 1075.39 394.065 1031.17 389.661 986.88C385.284 942.568 382.684 898.089 381.095 853.582C379.52 809.061 379.792 764.498 380.308 719.957C381.716 630.838 387.898 541.831 396.498 453.083C400.889 408.715 406.185 364.424 412.256 320.245C415.26 298.152 418.459 276.079 421.936 254.049L427.414 221.055L430.314 204.587L431.854 196.384C432.404 193.707 432.948 190.808 433.527 188.494L433.624 188.104C433.854 187.149 433.276 186.187 432.321 185.95C432.181 185.915 432.035 185.895 431.896 185.895Z" fill="white"/>
</mask>
<g mask="url(#mask4_34_11453)">
<path d="M438.928 1371.51C438.928 1371.51 378.823 1334.67 316.389 1254.19C307.821 1243.15 299.238 1231.33 290.73 1218.62C237.4 1138.97 188.185 1026.34 179.867 876.337C178.955 859.882 178.532 842.961 178.653 825.6C179.142 754.978 188.589 676.76 210.236 590.68C229.783 512.957 259.301 428.773 301.168 337.843C342.219 248.689 395.132 153.11 462.22 50.722C464.29 47.5648 467.405 46.1641 470.485 46.1641C475.922 46.1641 481.267 50.5062 480.633 57.148C477.782 87.3258 474.291 132.251 472.569 184.933C468.562 307.895 474.249 473.099 520.456 591.586C607.177 813.94 621.479 1103.48 526.457 1272.99C503.709 1313.56 474.702 1347.26 438.928 1371.51ZM431.896 185.895C431.122 185.895 430.418 186.403 430.188 187.163C429.275 190.23 428.766 192.822 428.09 195.589L426.285 203.785L422.863 220.198C420.654 231.161 418.612 242.145 416.577 253.136C412.583 275.125 408.855 297.155 405.335 319.227C398.38 363.379 392.623 407.718 387.528 452.135C382.378 496.544 378.468 541.1 375.504 585.718C372.581 630.337 370.287 675.018 369.465 719.748C367.648 809.187 370.703 898.814 380.078 987.862C385.235 1032.33 391.556 1076.69 400.443 1120.58C409.642 1164.39 420.703 1207.83 434.893 1250.28C435.143 1251.03 435.847 1251.5 436.593 1251.5C436.788 1251.5 436.976 1251.47 437.165 1251.41C438.085 1251.1 438.586 1250.13 438.321 1249.21L438.315 1249.18C425.86 1206.38 415.72 1162.98 407.733 1119.17C399.62 1075.39 394.065 1031.17 389.661 986.88C385.284 942.568 382.684 898.089 381.095 853.582C379.52 809.061 379.792 764.498 380.308 719.957C381.716 630.838 387.898 541.831 396.498 453.083C400.889 408.715 406.185 364.424 412.256 320.245C415.26 298.152 418.459 276.079 421.936 254.049L427.414 221.055L430.314 204.587L431.854 196.384C432.404 193.707 432.948 190.808 433.527 188.494L433.624 188.104C433.854 187.149 433.276 186.187 432.321 185.95C432.181 185.915 432.035 185.895 431.896 185.895Z" fill="url(#paint4_linear_34_11453)"/>
</g>
<mask id="mask5_34_11453" style="mask-type:luminance" maskUnits="userSpaceOnUse" x="368" y="185" width="71" height="1067">
<path d="M436.593 1251.5C435.848 1251.5 435.144 1251.03 434.893 1250.28C420.703 1207.83 409.642 1164.39 400.443 1120.58C391.557 1076.69 385.235 1032.33 380.078 987.862C370.703 898.814 367.648 809.187 369.465 719.748C370.287 675.018 372.581 630.337 375.504 585.718C378.468 541.1 382.378 496.544 387.528 452.135C392.623 407.718 398.38 363.379 405.335 319.227C408.855 297.155 412.584 275.125 416.577 253.136C418.612 242.145 420.654 231.161 422.864 220.198L426.286 203.785L428.091 195.589C428.767 192.822 429.275 190.23 430.188 187.163C430.418 186.404 431.122 185.895 431.896 185.895C432.035 185.895 432.182 185.916 432.321 185.95C433.276 186.187 433.854 187.149 433.624 188.104L433.527 188.494C432.948 190.808 432.405 193.707 431.854 196.384L430.314 204.587L427.415 221.056L421.937 254.049C418.459 276.079 415.26 298.152 412.256 320.245C406.186 364.424 400.889 408.715 396.498 453.083C387.898 541.832 381.716 630.838 380.308 719.957C379.792 764.499 379.521 809.061 381.096 853.582C382.685 898.089 385.284 942.568 389.661 986.88C394.066 1031.17 399.62 1075.39 407.733 1119.17C415.72 1162.98 425.86 1206.38 438.315 1249.18L438.322 1249.21C438.587 1250.13 438.085 1251.1 437.165 1251.41C436.977 1251.47 436.789 1251.5 436.593 1251.5Z" fill="white"/>
</mask>
<g mask="url(#mask5_34_11453)">
<path d="M436.593 1251.5C435.848 1251.5 435.144 1251.03 434.893 1250.28C420.703 1207.83 409.642 1164.39 400.443 1120.58C391.557 1076.69 385.235 1032.33 380.078 987.862C370.703 898.814 367.648 809.187 369.465 719.748C370.287 675.018 372.581 630.337 375.504 585.718C378.468 541.1 382.378 496.544 387.528 452.135C392.623 407.718 398.38 363.379 405.335 319.227C408.855 297.155 412.584 275.125 416.577 253.136C418.612 242.145 420.654 231.161 422.864 220.198L426.286 203.785L428.091 195.589C428.767 192.822 429.275 190.23 430.188 187.163C430.418 186.404 431.122 185.895 431.896 185.895C432.035 185.895 432.182 185.916 432.321 185.95C433.276 186.187 433.854 187.149 433.624 188.104L433.527 188.494C432.948 190.808 432.405 193.707 431.854 196.384L430.314 204.587L427.415 221.056L421.937 254.049C418.459 276.079 415.26 298.152 412.256 320.245C406.186 364.424 400.889 408.715 396.498 453.083C387.898 541.832 381.716 630.838 380.308 719.957C379.792 764.499 379.521 809.061 381.096 853.582C382.685 898.089 385.284 942.568 389.661 986.88C394.066 1031.17 399.62 1075.39 407.733 1119.17C415.72 1162.98 425.86 1206.38 438.315 1249.18L438.322 1249.21C438.587 1250.13 438.085 1251.1 437.165 1251.41C436.977 1251.47 436.789 1251.5 436.593 1251.5Z" fill="url(#paint5_linear_34_11453)"/>
</g>
<mask id="mask6_34_11453" style="mask-type:luminance" maskUnits="userSpaceOnUse" x="439" y="1018" width="732" height="923">
<path d="M1170.8 1940.72H439.89V1052.05C439.89 1033.32 455.069 1018.14 473.796 1018.14H1136.88C1155.62 1018.14 1170.8 1033.32 1170.8 1052.05V1940.72Z" fill="white"/>
</mask>
<g mask="url(#mask6_34_11453)">
<path d="M1170.8 1940.72H439.89V1052.05C439.89 1033.32 455.069 1018.14 473.796 1018.14H1136.88C1155.62 1018.14 1170.8 1033.32 1170.8 1052.05V1940.72Z" fill="url(#paint6_linear_34_11453)"/>
</g>
<mask id="mask7_34_11453" style="mask-type:luminance" maskUnits="userSpaceOnUse" x="27" y="1289" width="631" height="652">
<path d="M657.009 1940.72H39.5258C32.7174 1940.72 27.1982 1935.2 27.1982 1928.39V1323.01C27.1982 1304.28 42.3812 1289.1 61.1109 1289.1H623.095C641.822 1289.1 657.009 1304.28 657.009 1323.01V1940.72Z" fill="white"/>
</mask>
<g mask="url(#mask7_34_11453)">
<path d="M657.009 1940.72H39.5258C32.7174 1940.72 27.1982 1935.2 27.1982 1928.39V1323.01C27.1982 1304.28 42.3812 1289.1 61.1109 1289.1H623.095C641.822 1289.1 657.009 1304.28 657.009 1323.01V1940.72Z" fill="url(#paint7_linear_34_11453)"/>
</g>
<mask id="mask8_34_11453" style="mask-type:luminance" maskUnits="userSpaceOnUse" x="1219" y="370" width="162" height="181">
<path d="M1314.24 550.571H1277.41L1219.52 380.287L1380.43 370.509L1314.24 550.571Z" fill="white"/>
</mask>
<g mask="url(#mask8_34_11453)">
<path d="M1314.24 550.571H1277.41L1219.52 380.287L1380.43 370.509L1314.24 550.571Z" fill="url(#paint8_linear_34_11453)"/>
</g>
<mask id="mask9_34_11453" style="mask-type:luminance" maskUnits="userSpaceOnUse" x="1121" y="43" width="346" height="369">
<path d="M1121.57 63.9081C1121.38 78.2861 1121.38 359.685 1264.24 405.383C1407.09 451.082 1471.61 212.985 1466.5 43.4179L1121.57 63.9081Z" fill="white"/>
</mask>
<g mask="url(#mask9_34_11453)">
<path d="M1121.57 63.9081C1121.38 78.2861 1121.38 359.685 1264.24 405.383C1407.09 451.082 1471.61 212.985 1466.5 43.4179L1121.57 63.9081Z" fill="url(#paint9_linear_34_11453)"/>
</g>
<mask id="mask10_34_11453" style="mask-type:luminance" maskUnits="userSpaceOnUse" x="1181" y="576" width="230" height="29">
<path d="M1410.01 604.132H1181.63V576.4H1410.01V604.132Z" fill="white"/>
</mask>
<g mask="url(#mask10_34_11453)">
<path d="M1410.01 604.132H1181.63V576.4H1410.01V604.132Z" fill="url(#paint10_linear_34_11453)"/>
</g>
<mask id="mask11_34_11453" style="mask-type:luminance" maskUnits="userSpaceOnUse" x="1181" y="545" width="230" height="32">
<path d="M1410.01 576.4H1181.63L1239.43 545.393H1352.21L1410.01 576.4Z" fill="white"/>
</mask>
<g mask="url(#mask11_34_11453)">
<path d="M1410.01 576.4H1181.63L1239.43 545.393H1352.21L1410.01 576.4Z" fill="url(#paint11_linear_34_11453)"/>
</g>
<mask id="mask12_34_11453" style="mask-type:luminance" maskUnits="userSpaceOnUse" x="1082" y="0" width="438" height="85">
<path d="M1105.01 23.9804C1092.47 24.7471 1082.22 34.0304 1082.22 44.61V66.2571C1082.22 76.8367 1092.48 84.9492 1105.03 84.2731L1496.54 63.2046C1509.08 62.5285 1519.35 53.3218 1519.35 42.7352V18.0146C1519.35 7.43498 1509.09 -0.600886 1496.54 0.158784L1105.01 23.9804Z" fill="white"/>
</mask>
<g mask="url(#mask12_34_11453)">
<path d="M1105.01 23.9804C1092.47 24.7471 1082.22 34.0304 1082.22 44.61V66.2571C1082.22 76.8367 1092.48 84.9492 1105.03 84.2731L1496.54 63.2046C1509.08 62.5285 1519.35 53.3218 1519.35 42.7352V18.0146C1519.35 7.43498 1509.09 -0.600886 1496.54 0.158784L1105.01 23.9804Z" fill="url(#paint12_linear_34_11453)"/>
</g>
<mask id="mask13_34_11453" style="mask-type:luminance" maskUnits="userSpaceOnUse" x="1347" y="242" width="200" height="186">
<path d="M1365.4 427.749C1356.28 427.749 1348.41 421.985 1347.35 414.172C1346.2 405.767 1353.37 398.178 1363.35 397.216C1365.24 397.021 1496.63 383.151 1509.08 311.241C1511.19 299.121 1510.95 283.279 1497.92 276.672C1487.15 271.215 1469.54 272.95 1456.94 280.707C1449.78 285.112 1441.94 292.834 1445.28 304.592C1447.6 312.823 1441.57 321.088 1431.8 323.054C1422.02 325.012 1412.21 319.939 1409.87 311.708C1403.83 290.395 1413.39 269.556 1435.46 255.973C1459.96 240.884 1493.36 238.598 1516.69 250.425C1530.32 257.332 1552.14 274.999 1545.1 315.666C1538.13 355.866 1504.56 388.079 1448.01 408.799C1407.4 423.686 1369.1 427.498 1367.49 427.651C1366.79 427.721 1366.09 427.749 1365.4 427.749Z" fill="white"/>
</mask>
<g mask="url(#mask13_34_11453)">
<path d="M1365.4 427.749C1356.28 427.749 1348.41 421.985 1347.35 414.172C1346.2 405.767 1353.37 398.178 1363.35 397.216C1365.24 397.021 1496.63 383.151 1509.08 311.241C1511.19 299.121 1510.95 283.279 1497.92 276.672C1487.15 271.215 1469.54 272.95 1456.94 280.707C1449.78 285.112 1441.94 292.834 1445.28 304.592C1447.6 312.823 1441.57 321.088 1431.8 323.054C1422.02 325.012 1412.21 319.939 1409.87 311.708C1403.83 290.395 1413.39 269.556 1435.46 255.973C1459.96 240.884 1493.36 238.598 1516.69 250.425C1530.32 257.332 1552.14 274.999 1545.1 315.666C1538.13 355.866 1504.56 388.079 1448.01 408.799C1407.4 423.686 1369.1 427.498 1367.49 427.651C1366.79 427.721 1366.09 427.749 1365.4 427.749Z" fill="url(#paint13_linear_34_11453)"/>
</g>
<mask id="mask14_34_11453" style="mask-type:luminance" maskUnits="userSpaceOnUse" x="1048" y="242" width="200" height="186">
<path d="M1229.14 427.749C1238.26 427.749 1246.14 421.985 1247.2 414.172C1248.33 405.767 1241.17 398.178 1231.19 397.216C1229.29 397.021 1097.91 383.151 1085.46 311.241C1083.36 299.121 1083.59 283.279 1096.63 276.672C1107.39 271.215 1125.01 272.95 1137.6 280.707C1144.77 285.112 1152.6 292.834 1149.27 304.592C1146.93 312.823 1152.97 321.088 1162.74 323.054C1172.52 325.012 1182.33 319.939 1184.67 311.708C1190.71 290.395 1181.15 269.556 1159.09 255.973C1134.58 240.884 1101.17 238.598 1077.85 250.425C1064.22 257.332 1042.4 274.999 1049.44 315.666C1056.41 355.866 1089.98 388.079 1146.53 408.799C1187.14 423.686 1225.44 427.498 1227.05 427.651C1227.75 427.721 1228.45 427.749 1229.14 427.749Z" fill="white"/>
</mask>
<g mask="url(#mask14_34_11453)">
<path d="M1229.14 427.749C1238.26 427.749 1246.14 421.985 1247.2 414.172C1248.33 405.767 1241.17 398.178 1231.19 397.216C1229.29 397.021 1097.91 383.151 1085.46 311.241C1083.36 299.121 1083.59 283.279 1096.63 276.672C1107.39 271.215 1125.01 272.95 1137.6 280.707C1144.77 285.112 1152.6 292.834 1149.27 304.592C1146.93 312.823 1152.97 321.088 1162.74 323.054C1172.52 325.012 1182.33 319.939 1184.67 311.708C1190.71 290.395 1181.15 269.556 1159.09 255.973C1134.58 240.884 1101.17 238.598 1077.85 250.425C1064.22 257.332 1042.4 274.999 1049.44 315.666C1056.41 355.866 1089.98 388.079 1146.53 408.799C1187.14 423.686 1225.44 427.498 1227.05 427.651C1227.75 427.721 1228.45 427.749 1229.14 427.749Z" fill="url(#paint14_linear_34_11453)"/>
</g>
<path d="M1389 41.8086C1387.44 41.8086 1386.12 40.575 1386.03 38.9929C1385.95 37.3481 1387.21 35.9473 1388.85 35.8567L1423.81 33.9818C1425.45 33.9191 1426.85 35.1528 1426.94 36.7906C1427.03 38.4284 1425.77 39.8361 1424.13 39.9198L1389.16 41.8015L1389 41.8086Z" fill="white"/>
<path d="M1121.55 56.1934C1119.98 56.1934 1118.67 54.9668 1118.59 53.3778C1118.5 51.74 1119.76 50.3391 1121.4 50.2485L1330.27 39.0137C1331.9 38.9161 1333.32 40.1846 1333.4 41.8224C1333.49 43.4672 1332.23 44.8681 1330.59 44.9517L1121.72 56.1934H1121.55Z" fill="white"/>
<path d="M1283.29 373.484C1283.17 373.484 1283.06 373.477 1282.95 373.47C1245.12 369.114 1214.89 338.316 1193.08 281.92C1175.06 235.357 1166.57 180.856 1162.61 143.339C1162.43 141.701 1163.62 140.238 1165.25 140.07C1166.89 139.91 1168.35 141.081 1168.52 142.712C1175.32 207.117 1200.14 357.949 1283.63 367.553C1285.26 367.741 1286.43 369.219 1286.25 370.85C1286.06 372.369 1284.78 373.484 1283.29 373.484Z" fill="white"/>
<path d="M1163.04 116.577C1161.49 116.577 1160.18 115.364 1160.07 113.796C1159.51 105.203 1159.37 100.269 1159.36 100.06C1159.31 98.4148 1160.6 97.0487 1162.25 96.9999C1164 96.8884 1165.26 98.2405 1165.3 99.8853C1165.3 99.9341 1165.46 104.938 1166.01 113.406C1166.11 115.051 1164.87 116.466 1163.23 116.57C1163.17 116.577 1163.1 116.577 1163.04 116.577Z" fill="white"/>
<path d="M311.492 963.748C309.411 965.762 307.354 967.797 305.327 969.86C303.668 971.554 303.694 974.265 305.383 975.924C306.218 976.746 307.304 977.157 308.387 977.157C309.498 977.157 310.609 976.725 311.447 975.868C313.421 973.861 315.422 971.874 317.449 969.923C319.152 968.278 319.2 965.56 317.555 963.859C315.911 962.152 313.2 962.103 311.492 963.748Z" fill="white"/>
<path d="M218.533 1122.48C219.018 1122.66 219.518 1122.74 220.007 1122.74C221.755 1122.74 223.399 1121.66 224.033 1119.93C225.013 1117.26 226.007 1114.6 227.028 1111.96C227.883 1109.75 226.78 1107.26 224.572 1106.41C222.357 1105.56 219.878 1106.66 219.027 1108.87C217.988 1111.56 216.972 1114.27 215.981 1116.98C215.166 1119.2 216.308 1121.66 218.533 1122.48Z" fill="white"/>
<path d="M228.887 1095.82C229.443 1096.06 230.02 1096.17 230.587 1096.17C232.245 1096.17 233.826 1095.2 234.526 1093.58C235.652 1090.98 236.799 1088.38 237.968 1085.8C238.946 1083.64 237.988 1081.09 235.833 1080.12C233.672 1079.13 231.131 1080.1 230.157 1082.26C228.965 1084.88 227.798 1087.53 226.653 1090.18C225.712 1092.36 226.715 1094.88 228.887 1095.82Z" fill="white"/>
<path d="M195.757 1205.11C196.053 1205.17 196.349 1205.2 196.64 1205.2C198.624 1205.2 200.411 1203.81 200.833 1201.79C201.414 1199.02 202.014 1196.24 202.631 1193.47C203.147 1191.15 201.693 1188.86 199.381 1188.35C197.078 1187.84 194.777 1189.29 194.264 1191.6C193.636 1194.41 193.027 1197.22 192.438 1200.03C191.952 1202.35 193.437 1204.62 195.757 1205.11Z" fill="white"/>
<path d="M202.047 1177.22C202.404 1177.32 202.765 1177.36 203.117 1177.36C205.026 1177.36 206.771 1176.07 207.268 1174.14C207.971 1171.39 208.697 1168.64 209.442 1165.9C210.065 1163.63 208.717 1161.26 206.43 1160.64C204.149 1160.02 201.79 1161.37 201.167 1163.65C200.411 1166.43 199.676 1169.22 198.959 1172.01C198.372 1174.3 199.752 1176.64 202.047 1177.22Z" fill="white"/>
<path d="M240.781 1069.8C241.401 1070.12 242.062 1070.26 242.712 1070.26C244.279 1070.26 245.787 1069.41 246.543 1067.91C247.827 1065.38 249.133 1062.87 250.462 1060.37C251.573 1058.28 250.778 1055.68 248.687 1054.57C246.601 1053.45 244 1054.25 242.891 1056.34C241.534 1058.89 240.2 1061.45 238.894 1064.04C237.821 1066.15 238.667 1068.73 240.781 1069.8Z" fill="white"/>
<path d="M269.528 1020.39C270.276 1020.91 271.133 1021.16 271.982 1021.16C273.335 1021.16 274.668 1020.52 275.499 1019.33C277.122 1017.01 278.769 1014.72 280.441 1012.44C281.842 1010.53 281.432 1007.84 279.522 1006.44C277.616 1005.04 274.93 1005.45 273.528 1007.36C271.817 1009.69 270.131 1012.05 268.47 1014.42C267.113 1016.36 267.588 1019.03 269.528 1020.39Z" fill="white"/>
<path d="M289.271 998.394C290.508 998.394 291.734 997.864 292.579 996.833C294.377 994.658 296.2 992.504 298.051 990.379C299.606 988.588 299.42 985.883 297.633 984.329C295.846 982.775 293.138 982.963 291.58 984.747C289.682 986.936 287.811 989.145 285.966 991.375C284.461 993.201 284.718 995.905 286.546 997.411C287.342 998.073 288.311 998.394 289.271 998.394Z" fill="white"/>
<path d="M254.298 1044.59C254.982 1045 255.739 1045.19 256.484 1045.19C257.947 1045.19 259.374 1044.45 260.172 1043.1C261.624 1040.66 263.095 1038.24 264.594 1035.84C265.848 1033.83 265.236 1031.19 263.226 1029.94C261.222 1028.68 258.575 1029.3 257.319 1031.3C255.789 1033.76 254.281 1036.22 252.802 1038.71C251.59 1040.75 252.26 1043.38 254.298 1044.59Z" fill="white"/>
<path d="M209.61 1149.65C210.031 1149.78 210.462 1149.85 210.88 1149.85C212.709 1149.85 214.407 1148.66 214.973 1146.82C215.814 1144.1 216.67 1141.4 217.547 1138.7C218.279 1136.45 217.047 1134.03 214.794 1133.29C212.544 1132.57 210.121 1133.8 209.39 1136.05C208.502 1138.79 207.631 1141.53 206.782 1144.29C206.081 1146.56 207.349 1148.95 209.61 1149.65Z" fill="white"/>
<path d="M190.671 1233.22C190.908 1233.26 191.142 1233.29 191.377 1233.29C193.434 1233.29 195.252 1231.79 195.601 1229.7C196.067 1226.9 196.545 1224.11 197.044 1221.3C197.46 1218.98 195.91 1216.75 193.577 1216.34C191.251 1215.9 189.021 1217.46 188.602 1219.8C188.096 1222.63 187.608 1225.46 187.139 1228.3C186.754 1230.63 188.334 1232.84 190.671 1233.22Z" fill="white"/>
<path d="M333.228 944.631C330.967 946.443 328.733 948.283 326.528 950.151C324.721 951.677 324.498 954.382 326.031 956.194C326.88 957.19 328.085 957.706 329.303 957.706C330.282 957.706 331.268 957.372 332.075 956.689C334.216 954.876 336.383 953.092 338.583 951.329C340.43 949.851 340.732 947.154 339.253 945.307C337.776 943.46 335.076 943.154 333.228 944.631Z" fill="white"/>
<path d="M382.113 913.436C379.485 914.704 376.886 916.015 374.318 917.367C372.221 918.475 371.417 921.067 372.52 923.158C373.29 924.615 374.779 925.451 376.321 925.451C376.99 925.451 377.68 925.291 378.314 924.956C380.795 923.646 383.305 922.385 385.834 921.165C387.967 920.14 388.866 917.576 387.842 915.443C386.81 913.31 384.252 912.411 382.113 913.436Z" fill="white"/>
<path d="M863.869 590.82C861.834 592.848 859.813 594.897 857.799 596.953C856.147 598.647 856.175 601.365 857.869 603.016C858.705 603.832 859.785 604.243 860.866 604.243C861.981 604.243 863.096 603.811 863.939 602.947C865.925 600.919 867.919 598.898 869.926 596.89C871.606 595.218 871.605 592.507 869.94 590.827C868.26 589.147 865.549 589.147 863.869 590.82Z" fill="white"/>
<path d="M843.951 611.574C842 613.7 840.069 615.826 838.153 617.972C836.57 619.736 836.724 622.447 838.487 624.029C839.302 624.761 840.327 625.123 841.344 625.123C842.522 625.123 843.693 624.642 844.543 623.694C846.432 621.576 848.342 619.471 850.265 617.38C851.868 615.638 851.757 612.92 850.008 611.317C848.265 609.721 845.547 609.832 843.951 611.574Z" fill="white"/>
<path d="M824.952 633.187C823.098 635.389 821.258 637.599 819.439 639.822C817.934 641.655 818.199 644.359 820.032 645.857C820.826 646.512 821.795 646.833 822.75 646.833C823.99 646.833 825.217 646.296 826.067 645.265C827.872 643.063 829.684 640.881 831.517 638.707C833.036 636.895 832.806 634.19 830.994 632.664C829.182 631.138 826.478 631.375 824.952 633.187Z" fill="white"/>
<path d="M906.411 552.042C904.181 553.882 901.978 555.736 899.79 557.603C897.985 559.144 897.769 561.848 899.309 563.653C900.159 564.643 901.358 565.151 902.571 565.151C903.553 565.151 904.55 564.817 905.351 564.127C907.505 562.287 909.672 560.468 911.868 558.663C913.694 557.157 913.959 554.453 912.453 552.627C910.948 550.801 908.244 550.536 906.411 552.042Z" fill="white"/>
<path d="M884.687 570.957C882.562 572.894 880.45 574.846 878.352 576.818C876.624 578.435 876.533 581.153 878.157 582.881C879 583.78 880.136 584.233 881.279 584.233C882.332 584.233 883.391 583.85 884.213 583.076C886.283 581.132 888.374 579.201 890.465 577.292C892.214 575.689 892.34 572.978 890.744 571.228C889.148 569.486 886.437 569.354 884.687 570.957Z" fill="white"/>
<path d="M779.672 701.314C777.678 700.031 775.03 700.603 773.748 702.596C772.186 705.014 770.646 707.447 769.12 709.886C767.865 711.893 768.472 714.535 770.479 715.796C771.19 716.235 771.977 716.444 772.751 716.444C774.18 716.444 775.574 715.734 776.389 714.437C777.894 712.026 779.421 709.628 780.954 707.238C782.243 705.244 781.665 702.596 779.672 701.314Z" fill="white"/>
<path d="M764.555 725.575C762.506 724.376 759.885 725.066 758.686 727.108C757.237 729.589 755.794 732.084 754.372 734.579C753.201 736.642 753.919 739.256 755.982 740.427C756.651 740.81 757.376 740.991 758.094 740.991C759.585 740.991 761.042 740.211 761.83 738.824C763.23 736.357 764.652 733.896 766.088 731.443C767.287 729.394 766.604 726.766 764.555 725.575Z" fill="white"/>
<path d="M795.799 677.708C793.868 676.342 791.185 676.802 789.826 678.74C788.167 681.095 786.523 683.451 784.899 685.828C783.554 687.779 784.055 690.448 786.007 691.786C786.746 692.295 787.589 692.539 788.425 692.539C789.791 692.539 791.136 691.891 791.966 690.678C793.576 688.337 795.2 686.002 796.83 683.681C798.196 681.743 797.736 679.074 795.799 677.708Z" fill="white"/>
<path d="M812.916 654.806C811.041 653.363 808.344 653.712 806.901 655.587C805.145 657.866 803.403 660.159 801.674 662.458C800.252 664.347 800.636 667.037 802.531 668.459C803.305 669.038 804.204 669.316 805.103 669.316C806.406 669.316 807.689 668.724 808.532 667.609C810.24 665.337 811.961 663.072 813.696 660.821C815.139 658.946 814.791 656.256 812.916 654.806Z" fill="white"/>
<path d="M750.469 750.455C748.378 749.339 745.779 750.141 744.67 752.232C743.325 754.769 741.994 757.32 740.677 759.877C739.597 761.989 740.426 764.575 742.531 765.655C743.158 765.976 743.827 766.129 744.489 766.129C746.043 766.129 747.542 765.279 748.308 763.808C749.605 761.278 750.922 758.762 752.253 756.253C753.361 754.162 752.567 751.563 750.469 750.455Z" fill="white"/>
<path d="M980.748 507.193C978.023 508.169 975.27 509.236 972.552 510.365C970.37 511.271 969.332 513.78 970.238 515.968C970.921 517.62 972.517 518.609 974.203 518.609C974.747 518.609 975.305 518.505 975.841 518.282C978.427 517.209 981.054 516.191 983.64 515.264C985.87 514.463 987.034 512.009 986.233 509.779C985.431 507.542 982.971 506.392 980.748 507.193Z" fill="white"/>
<path d="M954.117 519.181C951.553 520.568 949.022 522.003 946.513 523.488C944.471 524.693 943.789 527.321 944.994 529.356C945.796 530.715 947.224 531.468 948.695 531.468C949.434 531.468 950.186 531.273 950.869 530.868C953.288 529.44 955.727 528.06 958.194 526.729C960.278 525.606 961.052 523 959.93 520.916C958.808 518.832 956.201 518.059 954.117 519.181Z" fill="white"/>
<path d="M1009.18 499.854C1007.08 500.168 1005 500.537 1002.92 500.956C1002.11 501.123 1001.29 501.297 1000.47 501.478C998.157 501.987 996.7 504.273 997.209 506.587C997.648 508.594 999.425 509.953 1001.39 509.953C1001.7 509.953 1002.01 509.925 1002.32 509.856C1003.08 509.688 1003.86 509.521 1004.63 509.361C1006.56 508.97 1008.51 508.629 1010.46 508.329C1012.81 507.974 1014.42 505.792 1014.07 503.451C1013.71 501.109 1011.52 499.492 1009.18 499.854Z" fill="white"/>
<path d="M929.424 534.507C927.04 536.158 924.692 537.852 922.357 539.58C920.454 540.981 920.05 543.671 921.458 545.574C922.294 546.71 923.597 547.316 924.908 547.316C925.793 547.316 926.685 547.045 927.452 546.473C929.724 544.8 932.017 543.149 934.324 541.539C936.268 540.187 936.742 537.51 935.39 535.566C934.038 533.628 931.362 533.154 929.424 534.507Z" fill="white"/>
<path d="M494.6 887.92H494.579C491.673 887.934 488.767 887.997 485.86 888.108C483.498 888.192 481.644 890.185 481.735 892.555C481.825 894.862 483.728 896.681 486.021 896.681L486.181 896.674C488.997 896.569 491.805 896.513 494.621 896.499C496.991 896.485 498.9 894.555 498.886 892.185C498.872 889.823 496.956 887.92 494.6 887.92Z" fill="white"/>
<path d="M523.607 889.384C520.715 889.07 517.816 888.813 514.909 888.603C512.568 888.457 510.498 890.213 510.323 892.569C510.156 894.932 511.926 896.988 514.296 897.155C517.098 897.357 519.899 897.608 522.694 897.908C522.855 897.929 523.008 897.936 523.154 897.936C525.322 897.936 527.183 896.298 527.413 894.102C527.663 891.747 525.963 889.635 523.607 889.384Z" fill="white"/>
<path d="M552.307 894.144C549.47 893.496 546.62 892.904 543.755 892.36C541.435 891.921 539.183 893.44 538.737 895.768C538.298 898.096 539.825 900.34 542.152 900.786C544.919 901.309 547.672 901.887 550.404 902.508C550.725 902.577 551.045 902.612 551.359 902.612C553.318 902.612 555.088 901.267 555.534 899.274C556.063 896.967 554.621 894.667 552.307 894.144Z" fill="white"/>
<path d="M631.584 929.869C629.257 928.134 626.845 926.42 624.434 924.782C622.468 923.458 619.799 923.973 618.482 925.939C617.151 927.897 617.666 930.559 619.625 931.891C621.932 933.452 624.225 935.083 626.448 936.741C627.215 937.32 628.121 937.599 629.013 937.599C630.316 937.599 631.605 936.999 632.449 935.877C633.864 933.974 633.48 931.291 631.584 929.869Z" fill="white"/>
<path d="M606.906 914.245C604.362 912.886 601.728 911.555 599.079 910.286C596.947 909.269 594.382 910.168 593.357 912.307C592.333 914.44 593.239 917.005 595.379 918.022C597.908 919.235 600.404 920.496 602.864 921.807C603.512 922.155 604.202 922.315 604.885 922.315C606.418 922.315 607.896 921.493 608.669 920.043C609.784 917.953 608.997 915.36 606.906 914.245Z" fill="white"/>
<path d="M580.255 902.376C577.516 901.372 574.756 900.424 571.975 899.532C569.724 898.807 567.305 900.041 566.581 902.299C565.856 904.55 567.089 906.969 569.347 907.694C572.024 908.558 574.679 909.464 577.307 910.426C577.794 910.607 578.289 910.69 578.777 910.69C580.526 910.69 582.171 909.61 582.805 907.875C583.621 905.651 582.478 903.184 580.255 902.376Z" fill="white"/>
<path d="M356.719 927.647C355.399 928.497 354.092 929.361 352.794 930.233C351.683 930.985 350.577 931.745 349.477 932.505C347.534 933.864 347.051 936.533 348.402 938.477C349.237 939.676 350.571 940.317 351.928 940.317C352.771 940.317 353.626 940.066 354.371 939.551C355.441 938.805 356.513 938.073 357.596 937.341C358.843 936.498 360.103 935.669 361.368 934.853C363.358 933.564 363.93 930.916 362.646 928.922C361.359 926.929 358.701 926.364 356.719 927.647Z" fill="white"/>
<path d="M436.949 894.465C434.119 895.106 431.289 895.789 428.474 896.521C426.181 897.113 424.808 899.455 425.407 901.748C425.909 903.679 427.644 904.961 429.554 904.961C429.909 904.961 430.272 904.912 430.634 904.822C433.359 904.111 436.091 903.449 438.83 902.835C441.144 902.313 442.594 900.02 442.078 897.713C441.555 895.399 439.269 893.956 436.949 894.465Z" fill="white"/>
<path d="M409.001 902.389C406.255 903.337 403.523 904.334 400.805 905.372C398.596 906.223 397.488 908.704 398.338 910.913C398.993 912.621 400.617 913.666 402.346 913.666C402.854 913.666 403.377 913.575 403.879 913.38C406.499 912.377 409.141 911.415 411.803 910.495C414.04 909.728 415.232 907.282 414.458 905.045C413.685 902.808 411.246 901.616 409.001 902.389Z" fill="white"/>
<path d="M465.586 889.642C462.701 889.963 459.815 890.339 456.944 890.764C454.602 891.106 452.978 893.287 453.32 895.629C453.633 897.762 455.466 899.295 457.557 899.295C457.766 899.295 457.975 899.281 458.184 899.246C460.972 898.842 463.76 898.479 466.555 898.159C468.91 897.894 470.597 895.768 470.332 893.413C470.06 891.064 467.942 889.363 465.586 889.642Z" fill="white"/>
<path d="M696.407 882.492C694.128 881.851 691.759 883.168 691.118 885.447C690.33 888.214 689.563 890.988 688.818 893.762C688.204 896.055 689.556 898.403 691.842 899.024C692.219 899.121 692.588 899.17 692.964 899.17C694.853 899.17 696.582 897.908 697.097 895.999C697.836 893.253 698.589 890.514 699.369 887.782C700.011 885.503 698.686 883.133 696.407 882.492Z" fill="white"/>
<path d="M704.966 855.213C702.722 854.474 700.29 855.694 699.544 857.938C698.645 860.67 697.76 863.409 696.896 866.155C696.178 868.413 697.432 870.824 699.69 871.535C700.122 871.668 700.555 871.737 700.987 871.737C702.806 871.737 704.492 870.566 705.071 868.733C705.928 866.029 706.799 863.325 707.691 860.635C708.437 858.384 707.21 855.958 704.966 855.213Z" fill="white"/>
<path d="M714.674 828.325C712.451 827.488 709.984 828.603 709.147 830.82C708.123 833.51 707.126 836.207 706.143 838.911C705.335 841.141 706.485 843.595 708.708 844.41C709.189 844.584 709.684 844.668 710.172 844.668C711.928 844.668 713.573 843.588 714.207 841.845C715.176 839.176 716.166 836.507 717.169 833.851C718.005 831.635 716.883 829.161 714.674 828.325Z" fill="white"/>
<path d="M725.505 801.876C723.324 800.942 720.808 801.953 719.874 804.134C718.752 806.776 717.637 809.431 716.535 812.094C715.636 814.282 716.682 816.791 718.87 817.69C719.407 817.913 719.957 818.018 720.501 818.018C722.188 818.018 723.784 817.014 724.467 815.355C725.547 812.735 726.648 810.114 727.77 807.501C728.697 805.326 727.686 802.803 725.505 801.876Z" fill="white"/>
<path d="M737.451 775.9C735.318 774.883 732.753 775.782 731.729 777.921C730.488 780.521 729.269 783.121 728.063 785.734C727.066 787.881 728.007 790.431 730.154 791.421C730.739 791.693 731.346 791.818 731.952 791.818C733.569 791.818 735.123 790.898 735.848 789.33C737.033 786.752 738.245 784.18 739.472 781.615C740.49 779.483 739.584 776.918 737.451 775.9Z" fill="white"/>
<path d="M682.866 938.017C680.531 937.557 678.294 939.098 677.848 941.425C677.304 944.255 676.789 947.085 676.28 949.914C675.869 952.249 677.423 954.472 679.758 954.89C680.008 954.932 680.259 954.953 680.51 954.953C682.552 954.953 684.357 953.496 684.727 951.413C685.229 948.618 685.737 945.823 686.274 943.035C686.72 940.708 685.194 938.463 682.866 938.017Z" fill="white"/>
<path d="M677.931 966.174C675.589 965.825 673.408 967.456 673.066 969.798C672.885 971.046 672.704 972.293 672.53 973.541C672.425 973.011 672.209 972.488 671.889 972.007C670.265 969.603 668.55 967.191 666.787 964.85C665.365 962.954 662.675 962.578 660.786 963.992C658.891 965.421 658.507 968.104 659.929 970C661.609 972.223 663.233 974.516 664.773 976.802C666.097 978.768 668.759 979.29 670.725 977.959C671.345 977.548 671.819 976.997 672.139 976.37C672.056 977.032 671.965 977.694 671.882 978.349C671.568 980.698 673.22 982.859 675.568 983.165C675.757 983.193 675.945 983.2 676.133 983.2C678.252 983.2 680.092 981.632 680.377 979.479C680.754 976.663 681.144 973.847 681.555 971.039C681.897 968.697 680.273 966.522 677.931 966.174Z" fill="white"/>
<path d="M647.265 943.042C645.544 941.418 642.826 941.502 641.202 943.224C639.578 944.945 639.662 947.656 641.383 949.28C643.404 951.19 645.398 953.169 647.314 955.162C648.151 956.04 649.28 956.479 650.409 956.479C651.475 956.479 652.541 956.082 653.378 955.288C655.085 953.65 655.141 950.932 653.503 949.224C651.489 947.126 649.391 945.05 647.265 943.042Z" fill="white"/>
<path d="M689.041 910.111C686.734 909.561 684.42 910.983 683.876 913.289C683.207 916.091 682.566 918.893 681.939 921.702C681.423 924.015 682.88 926.308 685.193 926.824C685.507 926.894 685.814 926.929 686.127 926.929C688.093 926.929 689.863 925.57 690.309 923.569C690.922 920.802 691.564 918.036 692.219 915.269C692.769 912.969 691.341 910.655 689.041 910.111Z" fill="white"/>
<path d="M1051.52 504.88C1051.52 526.875 1033.69 544.703 1011.7 544.703C989.703 544.703 971.868 526.875 971.868 504.88C971.868 482.884 989.703 465.049 1011.7 465.049C1033.69 465.049 1051.52 482.884 1051.52 504.88Z" fill="white"/>
<mask id="mask15_34_11453" style="mask-type:luminance" maskUnits="userSpaceOnUse" x="928" y="421" width="168" height="168">
<path d="M1011.7 588.499C978.071 588.499 949.015 568.545 935.746 539.866C936.387 538.514 936.303 536.876 935.39 535.566C934.854 534.799 934.115 534.263 933.292 533.977C929.919 524.91 928.072 515.104 928.072 504.879C928.072 458.77 965.589 421.26 1011.7 421.26C1057.81 421.26 1095.32 458.77 1095.32 504.879C1095.32 550.989 1057.81 588.499 1011.7 588.499ZM951.295 530.625C961.324 554.07 984.622 570.539 1011.7 570.539C1047.91 570.539 1077.36 541.086 1077.36 504.879C1077.36 468.673 1047.91 439.22 1011.7 439.22C975.492 439.22 946.033 468.673 946.033 504.879C946.033 510.936 946.862 516.804 948.402 522.38C947.768 522.749 947.141 523.112 946.513 523.488C944.471 524.694 943.788 527.321 944.994 529.356C945.796 530.715 947.224 531.468 948.695 531.468C949.434 531.468 950.186 531.273 950.869 530.869C951.009 530.785 951.155 530.708 951.295 530.625Z" fill="white"/>
</mask>
<g mask="url(#mask15_34_11453)">
<path d="M1011.7 588.499C978.071 588.499 949.015 568.545 935.746 539.866C936.387 538.514 936.303 536.876 935.39 535.566C934.854 534.799 934.115 534.263 933.292 533.977C929.919 524.91 928.072 515.104 928.072 504.879C928.072 458.77 965.589 421.26 1011.7 421.26C1057.81 421.26 1095.32 458.77 1095.32 504.879C1095.32 550.989 1057.81 588.499 1011.7 588.499ZM951.295 530.625C961.324 554.07 984.622 570.539 1011.7 570.539C1047.91 570.539 1077.36 541.086 1077.36 504.879C1077.36 468.673 1047.91 439.22 1011.7 439.22C975.492 439.22 946.033 468.673 946.033 504.879C946.033 510.936 946.862 516.804 948.402 522.38C947.768 522.749 947.141 523.112 946.513 523.488C944.471 524.694 943.788 527.321 944.994 529.356C945.796 530.715 947.224 531.468 948.695 531.468C949.434 531.468 950.186 531.273 950.869 530.869C951.009 530.785 951.155 530.708 951.295 530.625Z" fill="url(#paint15_linear_34_11453)"/>
</g>
<path d="M948.695 531.468C947.224 531.468 945.796 530.715 944.994 529.356C943.789 527.321 944.471 524.693 946.513 523.488C947.141 523.111 947.768 522.749 948.402 522.38C949.183 525.209 950.152 527.962 951.295 530.624C951.155 530.708 951.009 530.785 950.869 530.868C950.186 531.273 949.434 531.468 948.695 531.468Z" fill="white"/>
<path d="M935.745 539.866C934.86 537.936 934.038 535.977 933.292 533.977C934.114 534.263 934.853 534.799 935.39 535.566C936.303 536.876 936.386 538.514 935.745 539.866Z" fill="white"/>
<mask id="mask16_34_11453" style="mask-type:luminance" maskUnits="userSpaceOnUse" x="897" y="390" width="230" height="214">
<path d="M1070.69 603.107H1049.12C1088.66 587.998 1116.8 549.666 1116.8 504.88C1116.8 446.922 1069.66 399.767 1011.7 399.767C953.734 399.767 906.585 446.922 906.585 504.88C906.585 549.666 934.735 587.998 974.273 603.107H952.695C935.188 592.549 920.712 577.446 910.927 559.444C911.241 559.179 911.554 558.921 911.868 558.663C913.694 557.158 913.959 554.454 912.454 552.628C911.603 551.596 910.377 551.067 909.143 551.067C908.425 551.067 907.7 551.248 907.045 551.61C900.647 537.33 897.086 521.516 897.086 504.88C897.086 441.681 948.5 390.267 1011.7 390.267C1074.89 390.267 1126.3 441.681 1126.3 504.88C1126.3 546.515 1104 583.035 1070.69 603.107Z" fill="white"/>
</mask>
<g mask="url(#mask16_34_11453)">
<path d="M1070.69 603.107H1049.12C1088.66 587.998 1116.8 549.666 1116.8 504.88C1116.8 446.922 1069.66 399.767 1011.7 399.767C953.734 399.767 906.585 446.922 906.585 504.88C906.585 549.666 934.735 587.998 974.273 603.107H952.695C935.188 592.549 920.712 577.446 910.927 559.444C911.241 559.179 911.554 558.921 911.868 558.663C913.694 557.158 913.959 554.454 912.454 552.628C911.603 551.596 910.377 551.067 909.143 551.067C908.425 551.067 907.7 551.248 907.045 551.61C900.647 537.33 897.086 521.516 897.086 504.88C897.086 441.681 948.5 390.267 1011.7 390.267C1074.89 390.267 1126.3 441.681 1126.3 504.88C1126.3 546.515 1104 583.035 1070.69 603.107Z" fill="url(#paint16_linear_34_11453)"/>
</g>
<mask id="mask17_34_11453" style="mask-type:luminance" maskUnits="userSpaceOnUse" x="952" y="603" width="119" height="17">
<path d="M1011.7 619.492C990.135 619.492 969.945 613.505 952.695 603.107H974.273C985.905 607.554 998.519 609.986 1011.7 609.986C1024.87 609.986 1037.49 607.554 1049.12 603.107H1070.7C1053.45 613.505 1033.26 619.492 1011.7 619.492Z" fill="white"/>
</mask>
<g mask="url(#mask17_34_11453)">
<path d="M1011.7 619.492C990.135 619.492 969.945 613.505 952.695 603.107H974.273C985.905 607.554 998.519 609.986 1011.7 609.986C1024.87 609.986 1037.49 607.554 1049.12 603.107H1070.7C1053.45 613.505 1033.26 619.492 1011.7 619.492Z" fill="url(#paint17_linear_34_11453)"/>
</g>
<path d="M910.927 559.443C909.54 556.886 908.244 554.279 907.045 551.61C907.7 551.247 908.425 551.066 909.143 551.066C910.376 551.066 911.603 551.596 912.453 552.627C913.959 554.453 913.694 557.157 911.868 558.663C911.554 558.921 911.24 559.179 910.927 559.443Z" fill="white"/>
<mask id="mask18_34_11453" style="mask-type:luminance" maskUnits="userSpaceOnUse" x="538" y="449" width="107" height="157">
<path d="M587.824 449.347L538.759 524.827C561.584 569.292 586.932 593.838 612.294 605.505C616.824 577.801 633 554.809 644.883 541.149C599.637 515.418 587.824 449.347 587.824 449.347Z" fill="white"/>
</mask>
<g mask="url(#mask18_34_11453)">
<path d="M587.824 449.347L538.759 524.827C561.584 569.292 586.932 593.838 612.294 605.505C616.824 577.801 633 554.809 644.883 541.149C599.637 515.418 587.824 449.347 587.824 449.347Z" fill="url(#paint18_linear_34_11453)"/>
</g>
<mask id="mask19_34_11453" style="mask-type:luminance" maskUnits="userSpaceOnUse" x="612" y="527" width="162" height="88">
<path d="M756.379 527.6C706.151 557.332 670.258 555.59 644.882 541.149C632.999 554.809 616.823 577.801 612.293 605.505C692.916 642.596 773.65 549.233 773.65 549.233L756.379 527.6Z" fill="white"/>
</mask>
<g mask="url(#mask19_34_11453)">
<path d="M756.379 527.6C706.151 557.332 670.258 555.59 644.882 541.149C632.999 554.809 616.823 577.801 612.293 605.505C692.916 642.596 773.65 549.233 773.65 549.233L756.379 527.6Z" fill="url(#paint19_linear_34_11453)"/>
</g>
<mask id="mask20_34_11453" style="mask-type:luminance" maskUnits="userSpaceOnUse" x="754" y="488" width="64" height="65">
<path d="M759.119 540.529C759.119 540.529 745.556 516.888 765.057 498.74C765.057 498.74 771.343 491.568 778.25 502.106C778.25 502.106 799.228 483.059 804.964 490.732C810.699 498.398 825.907 517.397 811.055 539.065C796.036 560.977 765.74 551.206 759.119 540.529Z" fill="white"/>
</mask>
<g mask="url(#mask20_34_11453)">
<path d="M759.119 540.529C759.119 540.529 745.556 516.888 765.057 498.74C765.057 498.74 771.343 491.568 778.25 502.106C778.25 502.106 799.228 483.059 804.964 490.732C810.699 498.398 825.907 517.397 811.055 539.065C796.036 560.977 765.74 551.206 759.119 540.529Z" fill="url(#paint20_linear_34_11453)"/>
</g>
<path d="M779.735 527.37C777.734 527.37 775.588 527.001 773.685 525.879C771.838 524.777 769.504 522.491 768.911 517.815C768.737 516.47 769.692 515.236 771.03 515.069C772.368 514.909 773.609 515.85 773.776 517.195C774.062 519.397 774.842 520.854 776.18 521.648C778.041 522.756 780.808 522.533 782.864 522.087L778.111 507.019C777.7 505.723 778.417 504.35 779.714 503.939C781.003 503.528 782.383 504.252 782.787 505.542L788.293 523C788.683 524.227 788.049 525.551 786.85 526.018C786.342 526.22 783.261 527.37 779.735 527.37Z" fill="#F79E6D"/>
<mask id="mask21_34_11453" style="mask-type:luminance" maskUnits="userSpaceOnUse" x="39" y="1034" width="59" height="127">
<path d="M45.476 1034.49C41.1103 1037.12 38.8794 1042.65 39.92 1048.07C44.0145 1069.41 57.4753 1125.78 90.1725 1159.16C92.3324 1161.36 95.4735 1161.17 97.372 1159.18C89.0922 1150.55 78.8262 1135.8 66.8255 1110.77C48.3816 1072.28 44.9658 1048.55 45.476 1034.49Z" fill="white"/>
</mask>
<g mask="url(#mask21_34_11453)">
<path d="M45.476 1034.49C41.1103 1037.12 38.8794 1042.65 39.92 1048.07C44.0145 1069.41 57.4753 1125.78 90.1725 1159.16C92.3324 1161.36 95.4735 1161.17 97.372 1159.18C89.0922 1150.55 78.8262 1135.8 66.8255 1110.77C48.3816 1072.28 44.9658 1048.55 45.476 1034.49Z" fill="url(#paint21_linear_34_11453)"/>
</g>
<mask id="mask22_34_11453" style="mask-type:luminance" maskUnits="userSpaceOnUse" x="45" y="1028" width="62" height="132">
<path d="M87.6967 1033.69C87.6967 1033.69 66.6148 1022.22 45.6221 1034.38L45.4757 1034.49C44.9656 1048.55 48.3813 1072.28 66.8253 1110.77C78.826 1135.8 89.092 1150.55 97.3717 1159.18C97.9724 1158.54 98.4561 1157.75 98.7356 1156.77C104.877 1135.44 117.846 1076.16 87.6967 1033.69Z" fill="white"/>
</mask>
<g mask="url(#mask22_34_11453)">
<path d="M87.6967 1033.69C87.6967 1033.69 66.6148 1022.22 45.6221 1034.38L45.4757 1034.49C44.9656 1048.55 48.3813 1072.28 66.8253 1110.77C78.826 1135.8 89.092 1150.55 97.3717 1159.18C97.9724 1158.54 98.4561 1157.75 98.7356 1156.77C104.877 1135.44 117.846 1076.16 87.6967 1033.69Z" fill="url(#paint22_linear_34_11453)"/>
</g>
<mask id="mask23_34_11453" style="mask-type:luminance" maskUnits="userSpaceOnUse" x="76" y="1007" width="46" height="50">
<path d="M118.147 1035.02L99.0413 1053.35C95.6625 1056.59 90.4808 1057.11 86.5793 1054.52C83.1761 1052.26 79.3868 1048.56 76.8652 1042.55C75.3522 1038.95 76.0784 1034.78 78.7072 1031.89L97.7805 1010.91C102.333 1005.9 110.432 1006.73 113.877 1012.55L119.84 1022.64C122.216 1026.66 121.514 1031.78 118.147 1035.02Z" fill="white"/>
</mask>
<g mask="url(#mask23_34_11453)">
<path d="M118.147 1035.02L99.0413 1053.35C95.6625 1056.59 90.4808 1057.11 86.5793 1054.52C83.1761 1052.26 79.3868 1048.56 76.8652 1042.55C75.3522 1038.95 76.0784 1034.78 78.7072 1031.89L97.7805 1010.91C102.333 1005.9 110.432 1006.73 113.877 1012.55L119.84 1022.64C122.216 1026.66 121.514 1031.78 118.147 1035.02Z" fill="url(#paint23_linear_34_11453)"/>
</g>
<mask id="mask24_34_11453" style="mask-type:luminance" maskUnits="userSpaceOnUse" x="735" y="836" width="88" height="109">
<path d="M735.632 943.07C740.071 945.565 745.988 944.77 750.184 941.188C766.716 927.082 809.069 887.516 821.921 842.598C822.764 839.636 821.042 837.002 818.38 836.332C814.972 847.79 807.229 864.001 791.394 886.812C767.05 921.861 748.107 936.567 735.632 943.07Z" fill="white"/>
</mask>
<g mask="url(#mask24_34_11453)">
<path d="M735.632 943.07C740.071 945.565 745.988 944.77 750.184 941.188C766.716 927.082 809.069 887.516 821.921 842.598C822.764 839.636 821.042 837.002 818.38 836.332C814.972 847.79 807.229 864.001 791.394 886.812C767.05 921.861 748.107 936.567 735.632 943.07Z" fill="url(#paint24_linear_34_11453)"/>
</g>
<mask id="mask25_34_11453" style="mask-type:luminance" maskUnits="userSpaceOnUse" x="714" y="836" width="105" height="108">
<path d="M714.068 906.759C714.068 906.759 714.521 930.755 735.472 942.994L735.632 943.07C748.107 936.568 767.05 921.862 791.394 886.813C807.229 864.002 814.972 847.791 818.38 836.333C817.537 836.117 816.603 836.096 815.62 836.333C794.036 841.539 736.085 859.562 714.068 906.759Z" fill="white"/>
</mask>
<g mask="url(#mask25_34_11453)">
<path d="M714.068 906.759C714.068 906.759 714.521 930.755 735.472 942.994L735.632 943.07C748.107 936.568 767.05 921.862 791.394 886.813C807.229 864.002 814.972 847.791 818.38 836.333C817.537 836.117 816.603 836.096 815.62 836.333C794.036 841.539 736.085 859.562 714.068 906.759Z" fill="url(#paint25_linear_34_11453)"/>
</g>
<mask id="mask26_34_11453" style="mask-type:luminance" maskUnits="userSpaceOnUse" x="686" y="864" width="51" height="45">
<path d="M712.591 867.026L732.558 884.422C736.085 887.496 737.068 892.611 734.837 896.73C732.893 900.319 729.541 904.424 723.791 907.47C720.334 909.303 716.117 908.948 713.002 906.592L690.4 889.468C685.006 885.384 685.11 877.237 690.602 873.292L700.115 866.448C703.907 863.723 709.071 863.967 712.591 867.026Z" fill="white"/>
</mask>
<g mask="url(#mask26_34_11453)">
<path d="M712.591 867.026L732.558 884.422C736.085 887.496 737.068 892.611 734.837 896.73C732.893 900.319 729.541 904.424 723.791 907.47C720.334 909.303 716.117 908.948 713.002 906.592L690.4 889.468C685.006 885.384 685.11 877.237 690.602 873.292L700.115 866.448C703.907 863.723 709.071 863.967 712.591 867.026Z" fill="url(#paint26_linear_34_11453)"/>
</g>
<mask id="mask27_34_11453" style="mask-type:luminance" maskUnits="userSpaceOnUse" x="90" y="691" width="335" height="352">
<path d="M312.061 691.013C312.061 691.013 273.107 823.718 247.923 882.045C247.923 882.045 203.899 888.757 176.651 904.682C149.403 920.6 90.7119 1008.84 90.7119 1008.84C90.7119 1008.84 106.039 1037.94 124.533 1042.41L291.612 926.636L424.954 771.565L418.626 699.641L312.061 691.013Z" fill="white"/>
</mask>
<g mask="url(#mask27_34_11453)">
<path d="M312.061 691.013C312.061 691.013 273.107 823.718 247.923 882.045C247.923 882.045 203.899 888.757 176.651 904.682C149.403 920.6 90.7119 1008.84 90.7119 1008.84C90.7119 1008.84 106.039 1037.94 124.533 1042.41L291.612 926.636L424.954 771.565L418.626 699.641L312.061 691.013Z" fill="url(#paint27_linear_34_11453)"/>
</g>
<mask id="mask28_34_11453" style="mask-type:luminance" maskUnits="userSpaceOnUse" x="303" y="680" width="412" height="215">
<path d="M314.461 680.189L303.062 716.528C303.062 716.528 313.488 811.8 433.596 795.735C553.708 779.671 568.804 760.059 568.804 760.059C568.804 760.059 558.377 820.909 689.716 894.067C689.716 894.067 709.677 878.999 714.068 861.882L622.036 710.192C609.233 690.295 597.357 685.053 573.982 688.705C522.296 696.79 425.512 707.328 410.862 704.826L314.461 680.189Z" fill="white"/>
</mask>
<g mask="url(#mask28_34_11453)">
<path d="M314.461 680.189L303.062 716.528C303.062 716.528 313.488 811.8 433.596 795.735C553.708 779.671 568.804 760.059 568.804 760.059C568.804 760.059 558.377 820.909 689.716 894.067C689.716 894.067 709.677 878.999 714.068 861.882L622.036 710.192C609.233 690.295 597.357 685.053 573.982 688.705C522.296 696.79 425.512 707.328 410.862 704.826L314.461 680.189Z" fill="url(#paint28_linear_34_11453)"/>
</g>
<mask id="mask29_34_11453" style="mask-type:luminance" maskUnits="userSpaceOnUse" x="282" y="409" width="306" height="311">
<path d="M408.27 409.962C373.267 411.739 317.939 428.383 282.198 461.285C293.183 473.412 310.087 493.129 322.687 512.601C333.945 502.029 350.113 493.226 372.876 487.588C353.2 561.13 329.945 631.187 301.604 696.309C299.83 700.386 301.85 705.105 306.048 706.568C327.977 714.207 392.652 732.411 444.518 703.097L559.521 538.43C571.885 520.721 580.018 500.405 583.28 479.057L587.824 449.347C587.824 449.347 484.537 406.08 408.27 409.962Z" fill="white"/>
</mask>
<g mask="url(#mask29_34_11453)">
<path d="M408.27 409.962C373.267 411.739 317.939 428.383 282.198 461.285C293.183 473.412 310.087 493.129 322.687 512.601C333.945 502.029 350.113 493.226 372.876 487.588C353.2 561.13 329.945 631.187 301.604 696.309C299.83 700.386 301.85 705.105 306.048 706.568C327.977 714.207 392.652 732.411 444.518 703.097L559.521 538.43C571.885 520.721 580.018 500.405 583.28 479.057L587.824 449.347C587.824 449.347 484.537 406.08 408.27 409.962Z" fill="url(#paint29_linear_34_11453)"/>
</g>
<mask id="mask30_34_11453" style="mask-type:luminance" maskUnits="userSpaceOnUse" x="247" y="461" width="100" height="230">
<path d="M345.55 659.142C340.552 648.109 323.441 637.794 315.274 633.369C308.17 618.719 279.81 552.858 322.685 512.602C310.085 493.129 293.182 473.413 282.197 461.286C240.96 499.248 225.865 558.886 298.177 642.38C294.229 662.947 307.108 686.894 314.072 690.253C317.281 691.801 352.192 673.812 345.55 659.142Z" fill="white"/>
</mask>
<g mask="url(#mask30_34_11453)">
<path d="M345.55 659.142C340.552 648.109 323.441 637.794 315.274 633.369C308.17 618.719 279.81 552.858 322.685 512.602C310.085 493.129 293.182 473.413 282.197 461.286C240.96 499.248 225.865 558.886 298.177 642.38C294.229 662.947 307.108 686.894 314.072 690.253C317.281 691.801 352.192 673.812 345.55 659.142Z" fill="url(#paint30_linear_34_11453)"/>
</g>
<mask id="mask31_34_11453" style="mask-type:luminance" maskUnits="userSpaceOnUse" x="454" y="366" width="72" height="86">
<path d="M485.944 366.222L455.906 425.031C454.073 428.62 454.617 432.955 457.307 435.952C464.583 444.057 481.763 457.216 511.655 447.786C514.944 446.747 517.321 443.848 517.822 440.426L525.642 387.019L485.944 366.222Z" fill="white"/>
</mask>
<g mask="url(#mask31_34_11453)">
<path d="M485.944 366.222L455.906 425.031C454.073 428.62 454.617 432.955 457.307 435.952C464.583 444.057 481.763 457.216 511.655 447.786C514.944 446.747 517.321 443.848 517.822 440.426L525.642 387.019L485.944 366.222Z" fill="url(#paint31_linear_34_11453)"/>
</g>
<mask id="mask32_34_11453" style="mask-type:luminance" maskUnits="userSpaceOnUse" x="465" y="297" width="91" height="103">
<path d="M536.034 297.936C536.034 297.936 553.659 338.422 554.837 359.665C556.022 380.915 560.601 394.7 536.034 398.979C511.466 403.259 490.774 391.02 479.56 369.854C479.56 369.854 461.997 337.244 465.935 323.884C469.873 310.53 536.034 297.936 536.034 297.936Z" fill="white"/>
</mask>
<g mask="url(#mask32_34_11453)">
<path d="M536.034 297.936C536.034 297.936 553.659 338.422 554.837 359.665C556.022 380.915 560.601 394.7 536.034 398.979C511.466 403.259 490.774 391.02 479.56 369.854C479.56 369.854 461.997 337.244 465.935 323.884C469.873 310.53 536.034 297.936 536.034 297.936Z" fill="url(#paint32_linear_34_11453)"/>
</g>
<mask id="mask33_34_11453" style="mask-type:luminance" maskUnits="userSpaceOnUse" x="433" y="253" width="126" height="125">
<path d="M487.958 354.639L489.352 354.019C491.136 353.232 491.896 351.113 491.004 349.391C487.54 342.694 480.787 327.354 489.505 323.779C500.754 319.165 545.289 310.084 554.9 294.284C564.134 279.091 555.952 259.485 543.651 253.91C542.829 253.54 541.86 253.833 541.435 254.635L540.41 256.572C539.713 257.896 537.748 257.701 537.337 256.259C536.933 254.872 535.093 254.607 534.326 255.826C531.371 260.552 523.398 268.218 502.071 272.156C471.768 277.745 451.731 290.012 451.229 310.955C451.201 312.286 449.786 313.025 448.644 312.335C446.406 310.969 442.831 310.328 438.043 314.356C429.721 321.353 433.123 339.509 451.369 354.444C452.24 355.148 452.233 356.5 451.292 357.114C447.981 359.267 443.054 364.39 455.829 371.22C469.043 378.287 478.919 377.708 482.717 377.081C483.658 376.921 484.271 376.008 484.062 375.074L480.006 356.667C479.776 355.622 480.571 354.639 481.637 354.639H487.958Z" fill="white"/>
</mask>
<g mask="url(#mask33_34_11453)">
<path d="M487.958 354.639L489.352 354.019C491.136 353.232 491.896 351.113 491.004 349.391C487.54 342.694 480.787 327.354 489.505 323.779C500.754 319.165 545.289 310.084 554.9 294.284C564.134 279.091 555.952 259.485 543.651 253.91C542.829 253.54 541.86 253.833 541.435 254.635L540.41 256.572C539.713 257.896 537.748 257.701 537.337 256.259C536.933 254.872 535.093 254.607 534.326 255.826C531.371 260.552 523.398 268.218 502.071 272.156C471.768 277.745 451.731 290.012 451.229 310.955C451.201 312.286 449.786 313.025 448.644 312.335C446.406 310.969 442.831 310.328 438.043 314.356C429.721 321.353 433.123 339.509 451.369 354.444C452.24 355.148 452.233 356.5 451.292 357.114C447.981 359.267 443.054 364.39 455.829 371.22C469.043 378.287 478.919 377.708 482.717 377.081C483.658 376.921 484.271 376.008 484.062 375.074L480.006 356.667C479.776 355.622 480.571 354.639 481.637 354.639H487.958Z" fill="url(#paint33_linear_34_11453)"/>
</g>
<mask id="mask34_34_11453" style="mask-type:luminance" maskUnits="userSpaceOnUse" x="466" y="338" width="23" height="32">
<path d="M488.717 358.521C488.717 358.521 481.999 332.665 470.402 339.913C458.812 347.161 476.416 368.885 485.742 369.854L488.717 358.521Z" fill="white"/>
</mask>
<g mask="url(#mask34_34_11453)">
<path d="M488.717 358.521C488.717 358.521 481.999 332.665 470.402 339.913C458.812 347.161 476.416 368.885 485.742 369.854L488.717 358.521Z" fill="url(#paint34_linear_34_11453)"/>
</g>
<mask id="mask35_34_11453" style="mask-type:luminance" maskUnits="userSpaceOnUse" x="1699" y="1869" width="83" height="69">
<path d="M1699.02 1934.36C1699.01 1933.71 1699.05 1933.05 1699.21 1932.38C1708.46 1893.46 1754.4 1869.21 1754.4 1869.21L1772.6 1870.73C1783.06 1905.04 1781.72 1926.08 1780.04 1935.45C1779.99 1935.72 1779.91 1935.97 1779.85 1936.22C1764.84 1937.64 1733.93 1938.57 1699.02 1934.36Z" fill="white"/>
</mask>
<g mask="url(#mask35_34_11453)">
<path d="M1699.02 1934.36C1699.01 1933.71 1699.05 1933.05 1699.21 1932.38C1708.46 1893.46 1754.4 1869.21 1754.4 1869.21L1772.6 1870.73C1783.06 1905.04 1781.72 1926.08 1780.04 1935.45C1779.99 1935.72 1779.91 1935.97 1779.85 1936.22C1764.84 1937.64 1733.93 1938.57 1699.02 1934.36Z" fill="url(#paint35_linear_34_11453)"/>
</g>
<mask id="mask36_34_11453" style="mask-type:luminance" maskUnits="userSpaceOnUse" x="1699" y="1934" width="81" height="11">
<path d="M1779.85 1936.22C1779.04 1939.35 1776.86 1941.79 1774.07 1942.41C1752.71 1947.17 1718.76 1943.34 1704.51 1941.36C1701.37 1940.92 1699.07 1937.84 1699.02 1934.36C1733.93 1938.57 1764.84 1937.64 1779.85 1936.22Z" fill="white"/>
</mask>
<g mask="url(#mask36_34_11453)">
<path d="M1779.85 1936.22C1779.04 1939.35 1776.86 1941.79 1774.07 1942.41C1752.71 1947.17 1718.76 1943.34 1704.51 1941.36C1701.37 1940.92 1699.07 1937.84 1699.02 1934.36C1733.93 1938.57 1764.84 1937.64 1779.85 1936.22Z" fill="url(#paint36_linear_34_11453)"/>
</g>
<mask id="mask37_34_11453" style="mask-type:luminance" maskUnits="userSpaceOnUse" x="1748" y="1841" width="32" height="46">
<path d="M1779.91 1841.96L1772.2 1881.34C1771.64 1884.23 1769.55 1886.39 1767.02 1886.64C1763.93 1886.94 1759.51 1887.12 1755.08 1886.43C1751.1 1885.81 1748.33 1881.53 1749.04 1876.93L1754.4 1841.96H1779.91Z" fill="white"/>
</mask>
<g mask="url(#mask37_34_11453)">
<path d="M1779.91 1841.96L1772.2 1881.34C1771.64 1884.23 1769.55 1886.39 1767.02 1886.64C1763.93 1886.94 1759.51 1887.12 1755.08 1886.43C1751.1 1885.81 1748.33 1881.53 1749.04 1876.93L1754.4 1841.96H1779.91Z" fill="url(#paint37_linear_34_11453)"/>
</g>
<mask id="mask38_34_11453" style="mask-type:luminance" maskUnits="userSpaceOnUse" x="1537" y="1930" width="120" height="12">
<path d="M1620.19 1935.82C1640.29 1935.23 1650.69 1932.71 1656.06 1930.38C1656.07 1932.5 1656.07 1934.66 1656 1936.9C1655.93 1939.28 1654.26 1941.19 1652.21 1941.18L1541.83 1940.43C1538.31 1940.4 1536.25 1936.06 1537.77 1932.64C1552.25 1933.91 1589.11 1936.75 1620.19 1935.82Z" fill="white"/>
</mask>
<g mask="url(#mask38_34_11453)">
<path d="M1620.19 1935.82C1640.29 1935.23 1650.69 1932.71 1656.06 1930.38C1656.07 1932.5 1656.07 1934.66 1656 1936.9C1655.93 1939.28 1654.26 1941.19 1652.21 1941.18L1541.83 1940.43C1538.31 1940.4 1536.25 1936.06 1537.77 1932.64C1552.25 1933.91 1589.11 1936.75 1620.19 1935.82Z" fill="url(#paint38_linear_34_11453)"/>
</g>
<mask id="mask39_34_11453" style="mask-type:luminance" maskUnits="userSpaceOnUse" x="1537" y="1875" width="120" height="62">
<path d="M1537.77 1932.64C1537.91 1932.34 1538.02 1932.04 1538.21 1931.76C1547.96 1917.31 1572.79 1888.53 1621.85 1876.05L1645.38 1875.26C1645.38 1875.26 1655.86 1894.59 1656.06 1930.38C1650.69 1932.71 1640.29 1935.23 1620.19 1935.82C1589.11 1936.75 1552.25 1933.91 1537.77 1932.64Z" fill="white"/>
</mask>
<g mask="url(#mask39_34_11453)">
<path d="M1537.77 1932.64C1537.91 1932.34 1538.02 1932.04 1538.21 1931.76C1547.96 1917.31 1572.79 1888.53 1621.85 1876.05L1645.38 1875.26C1645.38 1875.26 1655.86 1894.59 1656.06 1930.38C1650.69 1932.71 1640.29 1935.23 1620.19 1935.82C1589.11 1936.75 1552.25 1933.91 1537.77 1932.64Z" fill="url(#paint39_linear_34_11453)"/>
</g>
<mask id="mask40_34_11453" style="mask-type:luminance" maskUnits="userSpaceOnUse" x="1619" y="1831" width="31" height="53">
<path d="M1649.75 1837.43C1649.49 1839.29 1646.26 1867.58 1645.01 1878.54C1644.71 1881.14 1642.94 1883.16 1640.69 1883.44C1636.68 1883.95 1630.2 1884.41 1624.53 1883.18C1621.46 1882.52 1619.25 1879.4 1619.25 1875.77V1831.37L1649.75 1837.43Z" fill="white"/>
</mask>
<g mask="url(#mask40_34_11453)">
<path d="M1649.75 1837.43C1649.49 1839.29 1646.26 1867.58 1645.01 1878.54C1644.71 1881.14 1642.94 1883.16 1640.69 1883.44C1636.68 1883.95 1630.2 1884.41 1624.53 1883.18C1621.46 1882.52 1619.25 1879.4 1619.25 1875.77V1831.37L1649.75 1837.43Z" fill="url(#paint40_linear_34_11453)"/>
</g>
<mask id="mask41_34_11453" style="mask-type:luminance" maskUnits="userSpaceOnUse" x="1612" y="1321" width="207" height="534">
<path d="M1668.63 1321.2C1668.63 1321.2 1611.87 1550.07 1612.89 1838.08C1612.91 1843.33 1616.38 1847.86 1621.23 1848.95C1628.36 1850.53 1638.86 1852.43 1647.54 1852.17C1652.18 1852.03 1656.05 1848.39 1656.83 1843.54C1664.79 1794.02 1710.47 1515.05 1736.49 1469.76C1736.49 1469.76 1753.62 1718.22 1748.15 1847.13C1748.01 1850.33 1750.22 1853.11 1753.23 1853.48C1757.79 1854.03 1765.08 1854.46 1774.35 1853.41C1777.87 1853.02 1780.72 1850.19 1781.22 1846.48C1786.89 1804.56 1819.52 1555.11 1818.13 1375.4C1818.06 1365.27 1792.87 1321.2 1792.87 1321.2H1668.63Z" fill="white"/>
</mask>
<g mask="url(#mask41_34_11453)">
<path d="M1668.63 1321.2C1668.63 1321.2 1611.87 1550.07 1612.89 1838.08C1612.91 1843.33 1616.38 1847.86 1621.23 1848.95C1628.36 1850.53 1638.86 1852.43 1647.54 1852.17C1652.18 1852.03 1656.05 1848.39 1656.83 1843.54C1664.79 1794.02 1710.47 1515.05 1736.49 1469.76C1736.49 1469.76 1753.62 1718.22 1748.15 1847.13C1748.01 1850.33 1750.22 1853.11 1753.23 1853.48C1757.79 1854.03 1765.08 1854.46 1774.35 1853.41C1777.87 1853.02 1780.72 1850.19 1781.22 1846.48C1786.89 1804.56 1819.52 1555.11 1818.13 1375.4C1818.06 1365.27 1792.87 1321.2 1792.87 1321.2H1668.63Z" fill="url(#paint41_linear_34_11453)"/>
</g>
<mask id="mask42_34_11453" style="mask-type:luminance" maskUnits="userSpaceOnUse" x="1574" y="947" width="361" height="407">
<path d="M1581.58 1012.95C1591.52 986.002 1611.18 968.871 1628.03 947.552C1691.23 959.706 1791.92 969.227 1835.12 974.997C1848.6 976.802 1860.93 983.855 1869.82 994.763C1905.06 1038.04 1982.4 1156.5 1891.38 1275.86C1879.72 1269 1863.17 1258 1851.93 1245.27C1862 1215.15 1862.83 1176.67 1841.72 1129.48C1841 1133.21 1840.11 1136.92 1839.03 1140.56C1809.94 1238.32 1808.38 1319.69 1808.45 1338.43C1808.46 1340.98 1807.02 1343.28 1804.79 1344.22C1766.5 1360.5 1692.81 1350.81 1668.07 1346.9C1663.54 1346.18 1660.48 1341.7 1661.11 1336.88C1673.25 1243.57 1610.94 1090.06 1594.48 1051.61C1592.08 1045.98 1587.84 1041.46 1582.53 1038.91C1579.86 1037.64 1577.26 1036.34 1574.68 1035.02C1576.64 1027.57 1578.9 1020.21 1581.58 1012.95Z" fill="white"/>
</mask>
<g mask="url(#mask42_34_11453)">
<path d="M1581.58 1012.95C1591.52 986.002 1611.18 968.871 1628.03 947.552C1691.23 959.706 1791.92 969.227 1835.12 974.997C1848.6 976.802 1860.93 983.855 1869.82 994.763C1905.06 1038.04 1982.4 1156.5 1891.38 1275.86C1879.72 1269 1863.17 1258 1851.93 1245.27C1862 1215.15 1862.83 1176.67 1841.72 1129.48C1841 1133.21 1840.11 1136.92 1839.03 1140.56C1809.94 1238.32 1808.38 1319.69 1808.45 1338.43C1808.46 1340.98 1807.02 1343.28 1804.79 1344.22C1766.5 1360.5 1692.81 1350.81 1668.07 1346.9C1663.54 1346.18 1660.48 1341.7 1661.11 1336.88C1673.25 1243.57 1610.94 1090.06 1594.48 1051.61C1592.08 1045.98 1587.84 1041.46 1582.53 1038.91C1579.86 1037.64 1577.26 1036.34 1574.68 1035.02C1576.64 1027.57 1578.9 1020.21 1581.58 1012.95Z" fill="url(#paint42_linear_34_11453)"/>
</g>
<mask id="mask43_34_11453" style="mask-type:luminance" maskUnits="userSpaceOnUse" x="1704" y="882" width="70" height="96">
<path d="M1768.94 885.224L1773.45 968.648C1773.58 971.108 1772.07 973.331 1769.82 973.931C1759.84 976.6 1732.26 981.918 1708.25 967.421C1705.14 965.547 1703.7 961.588 1704.68 957.936L1724.76 882.972L1768.94 885.224Z" fill="white"/>
</mask>
<g mask="url(#mask43_34_11453)">
<path d="M1768.94 885.224L1773.45 968.648C1773.58 971.108 1772.07 973.331 1769.82 973.931C1759.84 976.6 1732.26 981.918 1708.25 967.421C1705.14 965.547 1703.7 961.588 1704.68 957.936L1724.76 882.972L1768.94 885.224Z" fill="url(#paint43_linear_34_11453)"/>
</g>
<mask id="mask44_34_11453" style="mask-type:luminance" maskUnits="userSpaceOnUse" x="1676" y="790" width="100" height="118">
<path d="M1719.74 794.071C1718.72 795.088 1676.66 882.701 1676.66 882.701L1724.33 907.115L1775.82 830.354C1775.82 830.354 1736.83 777.003 1719.74 794.071Z" fill="white"/>
</mask>
<g mask="url(#mask44_34_11453)">
<path d="M1719.74 794.071C1718.72 795.088 1676.66 882.701 1676.66 882.701L1724.33 907.115L1775.82 830.354C1775.82 830.354 1736.83 777.003 1719.74 794.071Z" fill="url(#paint44_linear_34_11453)"/>
</g>
<mask id="mask45_34_11453" style="mask-type:luminance" maskUnits="userSpaceOnUse" x="1663" y="754" width="141" height="177">
<path d="M1754.73 832.478C1755.58 834.813 1755.37 837.42 1754.15 839.566L1730.38 881.606C1730.02 882.247 1729.59 882.826 1729.08 883.327C1726.25 886.122 1716.57 894.256 1709.08 883.188C1702.7 873.751 1696.71 865.179 1690.3 861.645C1686.56 859.576 1681.94 861.227 1680.04 865.228C1676.12 873.459 1668.54 890.248 1663.77 906.166C1662.58 910.16 1664.52 914.439 1668.18 916.014C1677.83 920.161 1696.91 927.667 1713.84 930.141C1716.62 930.553 1719.36 929.305 1721.02 926.901C1728.3 916.314 1748.83 886.736 1755.83 879.334C1762.34 872.455 1774.36 875.048 1779.77 876.7C1781.82 877.327 1784.01 877.027 1785.84 875.856C1791.34 872.344 1800.92 863.604 1792.15 848.808C1789.97 845.128 1791.09 840.228 1794.51 837.845C1800.63 833.566 1807.29 825.537 1800.95 812.525C1794.54 799.36 1783.08 798.175 1775.27 799.192C1771.81 799.638 1768.31 797.715 1766.99 794.307C1766.4 792.787 1765.24 791.491 1763.06 791.024C1758.97 790.146 1756.29 786.173 1757.09 781.831C1758.47 774.381 1757.43 764.7 1746.22 758.156C1725.65 746.162 1707.63 765.711 1703.05 782.215C1698.48 798.711 1721.47 810.371 1735.94 812.316C1746.56 813.751 1752.38 826.052 1754.73 832.478Z" fill="white"/>
</mask>
<g mask="url(#mask45_34_11453)">
<path d="M1754.73 832.478C1755.58 834.813 1755.37 837.42 1754.15 839.566L1730.38 881.606C1730.02 882.247 1729.59 882.826 1729.08 883.327C1726.25 886.122 1716.57 894.256 1709.08 883.188C1702.7 873.751 1696.71 865.179 1690.3 861.645C1686.56 859.576 1681.94 861.227 1680.04 865.228C1676.12 873.459 1668.54 890.248 1663.77 906.166C1662.58 910.16 1664.52 914.439 1668.18 916.014C1677.83 920.161 1696.91 927.667 1713.84 930.141C1716.62 930.553 1719.36 929.305 1721.02 926.901C1728.3 916.314 1748.83 886.736 1755.83 879.334C1762.34 872.455 1774.36 875.048 1779.77 876.7C1781.82 877.327 1784.01 877.027 1785.84 875.856C1791.34 872.344 1800.92 863.604 1792.15 848.808C1789.97 845.128 1791.09 840.228 1794.51 837.845C1800.63 833.566 1807.29 825.537 1800.95 812.525C1794.54 799.36 1783.08 798.175 1775.27 799.192C1771.81 799.638 1768.31 797.715 1766.99 794.307C1766.4 792.787 1765.24 791.491 1763.06 791.024C1758.97 790.146 1756.29 786.173 1757.09 781.831C1758.47 774.381 1757.43 764.7 1746.22 758.156C1725.65 746.162 1707.63 765.711 1703.05 782.215C1698.48 798.711 1721.47 810.371 1735.94 812.316C1746.56 813.751 1752.38 826.052 1754.73 832.478Z" fill="url(#paint45_linear_34_11453)"/>
</g>
<mask id="mask46_34_11453" style="mask-type:luminance" maskUnits="userSpaceOnUse" x="1746" y="867" width="36" height="36">
<path d="M1746.91 894.772C1746.91 894.772 1756.05 866.385 1767.76 867.431C1779.47 868.469 1788.68 880.84 1774.17 894.751C1756.13 912.049 1746.91 894.772 1746.91 894.772Z" fill="white"/>
</mask>
<g mask="url(#mask46_34_11453)">
<path d="M1746.91 894.772C1746.91 894.772 1756.05 866.385 1767.76 867.431C1779.47 868.469 1788.68 880.84 1774.17 894.751C1756.13 912.049 1746.91 894.772 1746.91 894.772Z" fill="url(#paint46_linear_34_11453)"/>
</g>
<mask id="mask47_34_11453" style="mask-type:luminance" maskUnits="userSpaceOnUse" x="1841" y="1022" width="16" height="101">
<path d="M1845.58 1122.16C1861.01 1077.36 1855.41 1023.26 1855.36 1022.72L1851.11 1023.24C1851.16 1023.77 1856.64 1076.83 1841.56 1120.6L1845.58 1122.16Z" fill="white"/>
</mask>
<g mask="url(#mask47_34_11453)">
<path d="M1845.58 1122.16C1861.01 1077.36 1855.41 1023.26 1855.36 1022.72L1851.11 1023.24C1851.16 1023.77 1856.64 1076.83 1841.56 1120.6L1845.58 1122.16Z" fill="url(#paint47_linear_34_11453)"/>
</g>
<mask id="mask48_34_11453" style="mask-type:luminance" maskUnits="userSpaceOnUse" x="1009" y="505" width="443" height="426">
<path d="M1449.07 928.197C1452.54 924.607 1452.38 918.642 1448.72 915.275L1016.03 506.336C1014.82 505.186 1013.07 504.928 1011.61 505.674C1009.04 506.977 1008.53 510.629 1010.63 512.678L1437.7 928.378C1440.93 931.528 1445.92 931.444 1449.07 928.197Z" fill="white"/>
</mask>
<g mask="url(#mask48_34_11453)">
<path d="M1449.07 928.197C1452.54 924.607 1452.38 918.642 1448.72 915.275L1016.03 506.336C1014.82 505.186 1013.07 504.928 1011.61 505.674C1009.04 506.977 1008.53 510.629 1010.63 512.678L1437.7 928.378C1440.93 931.528 1445.92 931.444 1449.07 928.197Z" fill="url(#paint48_linear_34_11453)"/>
</g>
<mask id="mask49_34_11453" style="mask-type:luminance" maskUnits="userSpaceOnUse" x="1423" y="947" width="214" height="134">
<path d="M1439.93 973.582C1500.03 996.832 1628.04 947.551 1628.04 947.551L1636.94 1058.53C1534.42 1093 1467.7 1083.04 1424.28 1054.21C1421.56 1021.41 1430.83 992.846 1439.93 973.582Z" fill="white"/>
</mask>
<g mask="url(#mask49_34_11453)">
<path d="M1439.93 973.582C1500.03 996.832 1628.04 947.551 1628.04 947.551L1636.94 1058.53C1534.42 1093 1467.7 1083.04 1424.28 1054.21C1421.56 1021.41 1430.83 992.846 1439.93 973.582Z" fill="url(#paint49_linear_34_11453)"/>
</g>
<mask id="mask50_34_11453" style="mask-type:luminance" maskUnits="userSpaceOnUse" x="1343" y="853" width="97" height="202">
<path d="M1344.18 859.109L1369.31 853.805C1369.31 853.805 1376.24 938.686 1432.27 970.021C1434.67 971.366 1437.24 972.537 1439.93 973.582C1430.83 992.846 1421.56 1021.41 1424.28 1054.21C1336.07 995.62 1344.18 859.109 1344.18 859.109Z" fill="white"/>
</mask>
<g mask="url(#mask50_34_11453)">
<path d="M1344.18 859.109L1369.31 853.805C1369.31 853.805 1376.24 938.686 1432.27 970.021C1434.67 971.366 1437.24 972.537 1439.93 973.582C1430.83 992.846 1421.56 1021.41 1424.28 1054.21C1336.07 995.62 1344.18 859.109 1344.18 859.109Z" fill="url(#paint50_linear_34_11453)"/>
</g>
<mask id="mask51_34_11453" style="mask-type:luminance" maskUnits="userSpaceOnUse" x="1286" y="783" width="85" height="86">
<path d="M1368.05 861.206L1369.31 853.805C1369.31 853.805 1374.55 835.733 1360.66 817.954C1340.58 792.25 1325.91 801.715 1325.91 801.715C1325.91 801.715 1326.95 807.221 1326.89 812.092C1326.84 816.03 1322.39 818.023 1319.66 815.368L1286.9 783.483C1286.9 783.483 1277.78 834.165 1348 868.942L1368.05 861.206Z" fill="white"/>
</mask>
<g mask="url(#mask51_34_11453)">
<path d="M1368.05 861.206L1369.31 853.805C1369.31 853.805 1374.55 835.733 1360.66 817.954C1340.58 792.25 1325.91 801.715 1325.91 801.715C1325.91 801.715 1326.95 807.221 1326.89 812.092C1326.84 816.03 1322.39 818.023 1319.66 815.368L1286.9 783.483C1286.9 783.483 1277.78 834.165 1348 868.942L1368.05 861.206Z" fill="url(#paint51_linear_34_11453)"/>
</g>
<mask id="mask52_34_11453" style="mask-type:luminance" maskUnits="userSpaceOnUse" x="1808" y="1245" width="84" height="91">
<path d="M1851.93 1245.27C1863.68 1258.58 1879.69 1268.04 1891.87 1275.21C1873.69 1299.05 1829.1 1335.21 1829.1 1335.21L1808.86 1326.39C1808.86 1326.39 1832.21 1304.25 1851.93 1245.27Z" fill="white"/>
</mask>
<g mask="url(#mask52_34_11453)">
<path d="M1851.93 1245.27C1863.68 1258.58 1879.69 1268.04 1891.87 1275.21C1873.69 1299.05 1829.1 1335.21 1829.1 1335.21L1808.86 1326.39C1808.86 1326.39 1832.21 1304.25 1851.93 1245.27Z" fill="url(#paint52_linear_34_11453)"/>
</g>
<mask id="mask53_34_11453" style="mask-type:luminance" maskUnits="userSpaceOnUse" x="1773" y="1308" width="74" height="67">
<path d="M1822.82 1308.23L1808.86 1326.39C1808.86 1326.39 1778.01 1340.88 1777.1 1350.88C1776.19 1360.89 1772.23 1367.73 1773.79 1370C1775.34 1372.27 1798.22 1378.19 1798.94 1370.9C1799.67 1363.62 1803.03 1351.46 1812.63 1350.97C1822.23 1350.48 1830.02 1341.19 1832.18 1334.29L1846.28 1310.35L1822.82 1308.23Z" fill="white"/>
</mask>
<g mask="url(#mask53_34_11453)">
<path d="M1822.82 1308.23L1808.86 1326.39C1808.86 1326.39 1778.01 1340.88 1777.1 1350.88C1776.19 1360.89 1772.23 1367.73 1773.79 1370C1775.34 1372.27 1798.22 1378.19 1798.94 1370.9C1799.67 1363.62 1803.03 1351.46 1812.63 1350.97C1822.23 1350.48 1830.02 1341.19 1832.18 1334.29L1846.28 1310.35L1822.82 1308.23Z" fill="url(#paint53_linear_34_11453)"/>
</g>
<defs>
<linearGradient id="paint0_linear_34_11453" x1="2211.5" y1="2147.6" x2="711.12" y2="801.667" gradientUnits="userSpaceOnUse">
<stop stop-color="#E8D7FF"/>
<stop offset="1" stop-color="#FDDFF8"/>
</linearGradient>
<linearGradient id="paint1_linear_34_11453" x1="1913.04" y1="295.288" x2="-161.818" y2="3463.95" gradientUnits="userSpaceOnUse">
<stop stop-color="#53D8FF"/>
<stop offset="1" stop-color="#3840F7"/>
</linearGradient>
<linearGradient id="paint2_linear_34_11453" x1="164.184" y1="362.327" x2="384.023" y2="1967.41" gradientUnits="userSpaceOnUse">
<stop stop-color="#CB236D"/>
<stop offset="1" stop-color="#4C246D"/>
</linearGradient>
<linearGradient id="paint3_linear_34_11453" x1="164.184" y1="362.327" x2="384.024" y2="1967.41" gradientUnits="userSpaceOnUse">
<stop stop-color="#E182AC"/>
<stop offset="1" stop-color="#9982AC"/>
</linearGradient>
<linearGradient id="paint4_linear_34_11453" x1="497.896" y1="170.178" x2="261.759" y2="1702.13" gradientUnits="userSpaceOnUse">
<stop stop-color="#A737D5"/>
<stop offset="1" stop-color="#EF497A"/>
</linearGradient>
<linearGradient id="paint5_linear_34_11453" x1="497.897" y1="170.179" x2="261.759" y2="1702.13" gradientUnits="userSpaceOnUse">
<stop stop-color="#CD8DE7"/>
<stop offset="1" stop-color="#F698B3"/>
</linearGradient>
<linearGradient id="paint6_linear_34_11453" x1="1284.52" y1="759.544" x2="-251.912" y2="3105.94" gradientUnits="userSpaceOnUse">
<stop stop-color="#FDF53F"/>
<stop offset="1" stop-color="#D93C65"/>
</linearGradient>
<linearGradient id="paint7_linear_34_11453" x1="704.485" y1="1073.39" x2="-451.803" y2="2839.24" gradientUnits="userSpaceOnUse">
<stop stop-color="#53D8FF"/>
<stop offset="1" stop-color="#3840F7"/>
</linearGradient>
<linearGradient id="paint8_linear_34_11453" x1="1245.82" y1="494.272" x2="1608.69" y2="-2.78204" gradientUnits="userSpaceOnUse">
<stop stop-color="#FDF53F"/>
<stop offset="1" stop-color="#D93C65"/>
</linearGradient>
<linearGradient id="paint9_linear_34_11453" x1="1117.61" y1="400.672" x2="1480.48" y2="-96.3837" gradientUnits="userSpaceOnUse">
<stop stop-color="#FDF53F"/>
<stop offset="1" stop-color="#D93C65"/>
</linearGradient>
<linearGradient id="paint10_linear_34_11453" x1="1298" y1="554.586" x2="1284.45" y2="776.386" gradientUnits="userSpaceOnUse">
<stop stop-color="#FDF53F"/>
<stop offset="1" stop-color="#D93C65"/>
</linearGradient>
<linearGradient id="paint11_linear_34_11453" x1="1397.21" y1="465.67" x2="1118.16" y2="770.436" gradientUnits="userSpaceOnUse">
<stop stop-color="#FDF53F"/>
<stop offset="1" stop-color="#D93C65"/>
</linearGradient>
<linearGradient id="paint12_linear_34_11453" x1="1537.87" y1="-272.026" x2="748.95" y2="778.409" gradientUnits="userSpaceOnUse">
<stop stop-color="#FDF53F"/>
<stop offset="1" stop-color="#D93C65"/>
</linearGradient>
<linearGradient id="paint13_linear_34_11453" x1="1546.07" y1="221.781" x2="1175.11" y2="685.956" gradientUnits="userSpaceOnUse">
<stop stop-color="#FDF53F"/>
<stop offset="1" stop-color="#D93C65"/>
</linearGradient>
<linearGradient id="paint14_linear_34_11453" x1="1048.48" y1="221.781" x2="1419.44" y2="685.956" gradientUnits="userSpaceOnUse">
<stop stop-color="#FDF53F"/>
<stop offset="1" stop-color="#D93C65"/>
</linearGradient>
<linearGradient id="paint15_linear_34_11453" x1="2211.5" y1="2147.6" x2="711.121" y2="801.666" gradientUnits="userSpaceOnUse">
<stop stop-color="#F4EBFF"/>
<stop offset="1" stop-color="#FEEFFC"/>
</linearGradient>
<linearGradient id="paint16_linear_34_11453" x1="2211.5" y1="2147.6" x2="711.12" y2="801.667" gradientUnits="userSpaceOnUse">
<stop stop-color="#F4EBFF"/>
<stop offset="1" stop-color="#FEEFFC"/>
</linearGradient>
<linearGradient id="paint17_linear_34_11453" x1="1913.04" y1="295.288" x2="-161.813" y2="3463.95" gradientUnits="userSpaceOnUse">
<stop stop-color="#A9ECFF"/>
<stop offset="1" stop-color="#9CA0FB"/>
</linearGradient>
<linearGradient id="paint18_linear_34_11453" x1="637.112" y1="548" x2="337.816" y2="383.046" gradientUnits="userSpaceOnUse">
<stop stop-color="#FDF53F"/>
<stop offset="1" stop-color="#D93C65"/>
</linearGradient>
<linearGradient id="paint19_linear_34_11453" x1="793.101" y1="513.947" x2="424.507" y2="692.504" gradientUnits="userSpaceOnUse">
<stop stop-color="#F9B776"/>
<stop offset="1" stop-color="#F47960"/>
</linearGradient>
<linearGradient id="paint20_linear_34_11453" x1="794.858" y1="517.571" x2="426.265" y2="696.129" gradientUnits="userSpaceOnUse">
<stop stop-color="#F9B776"/>
<stop offset="1" stop-color="#F47960"/>
</linearGradient>
<linearGradient id="paint21_linear_34_11453" x1="39.667" y1="1097.61" x2="97.3721" y2="1097.61" gradientUnits="userSpaceOnUse">
<stop stop-color="#2B3582"/>
<stop offset="1" stop-color="#150E42"/>
</linearGradient>
<linearGradient id="paint22_linear_34_11453" x1="45.4284" y1="1093.99" x2="106.834" y2="1093.99" gradientUnits="userSpaceOnUse">
<stop stop-color="#2B3582"/>
<stop offset="1" stop-color="#150E42"/>
</linearGradient>
<linearGradient id="paint23_linear_34_11453" x1="76.0847" y1="1031.89" x2="121.24" y2="1031.89" gradientUnits="userSpaceOnUse">
<stop stop-color="#F9B776"/>
<stop offset="1" stop-color="#F47960"/>
</linearGradient>
<linearGradient id="paint24_linear_34_11453" x1="735.632" y1="890.422" x2="822.136" y2="890.422" gradientUnits="userSpaceOnUse">
<stop stop-color="#2B3582"/>
<stop offset="1" stop-color="#150E42"/>
</linearGradient>
<linearGradient id="paint25_linear_34_11453" x1="714.068" y1="889.615" x2="818.375" y2="889.615" gradientUnits="userSpaceOnUse">
<stop stop-color="#2B3582"/>
<stop offset="1" stop-color="#150E42"/>
</linearGradient>
<linearGradient id="paint26_linear_34_11453" x1="686.421" y1="886.597" x2="736.032" y2="886.597" gradientUnits="userSpaceOnUse">
<stop stop-color="#F9B776"/>
<stop offset="1" stop-color="#F47960"/>
</linearGradient>
<linearGradient id="paint27_linear_34_11453" x1="90.7119" y1="866.705" x2="424.956" y2="866.705" gradientUnits="userSpaceOnUse">
<stop stop-color="#2B3582"/>
<stop offset="1" stop-color="#150E42"/>
</linearGradient>
<linearGradient id="paint28_linear_34_11453" x1="303.062" y1="787.128" x2="714.071" y2="787.128" gradientUnits="userSpaceOnUse">
<stop stop-color="#2B3582"/>
<stop offset="1" stop-color="#150E42"/>
</linearGradient>
<linearGradient id="paint29_linear_34_11453" x1="443.556" y1="463.843" x2="171.468" y2="897.484" gradientUnits="userSpaceOnUse">
<stop stop-color="#FDF53F"/>
<stop offset="1" stop-color="#D93C65"/>
</linearGradient>
<linearGradient id="paint30_linear_34_11453" x1="335.668" y1="634.477" x2="116.298" y2="246.751" gradientUnits="userSpaceOnUse">
<stop stop-color="#F9B776"/>
<stop offset="1" stop-color="#F47960"/>
</linearGradient>
<linearGradient id="paint31_linear_34_11453" x1="474.347" y1="468.548" x2="497.305" y2="403.077" gradientUnits="userSpaceOnUse">
<stop stop-color="#F9B776"/>
<stop offset="1" stop-color="#F47960"/>
</linearGradient>
<linearGradient id="paint32_linear_34_11453" x1="539.727" y1="333.571" x2="438.99" y2="410.651" gradientUnits="userSpaceOnUse">
<stop stop-color="#F9B776"/>
<stop offset="1" stop-color="#F47960"/>
</linearGradient>
<linearGradient id="paint33_linear_34_11453" x1="468.813" y1="272.539" x2="562.635" y2="393.334" gradientUnits="userSpaceOnUse">
<stop stop-color="#2B3582"/>
<stop offset="1" stop-color="#150E42"/>
</linearGradient>
<linearGradient id="paint34_linear_34_11453" x1="527.231" y1="317.241" x2="426.493" y2="394.321" gradientUnits="userSpaceOnUse">
<stop stop-color="#F9B776"/>
<stop offset="1" stop-color="#F47960"/>
</linearGradient>
<linearGradient id="paint35_linear_34_11453" x1="1781.19" y1="1903.31" x2="1699.02" y2="1903.31" gradientUnits="userSpaceOnUse">
<stop stop-color="#2B3582"/>
<stop offset="1" stop-color="#150E42"/>
</linearGradient>
<linearGradient id="paint36_linear_34_11453" x1="1574.97" y1="1807.98" x2="1874.77" y2="2043.39" gradientUnits="userSpaceOnUse">
<stop stop-color="#2B3582"/>
<stop offset="1" stop-color="#150E42"/>
</linearGradient>
<linearGradient id="paint37_linear_34_11453" x1="1757.98" y1="1804.21" x2="1774.6" y2="1949.26" gradientUnits="userSpaceOnUse">
<stop stop-color="#F9B776"/>
<stop offset="1" stop-color="#F47960"/>
</linearGradient>
<linearGradient id="paint38_linear_34_11453" x1="1522.21" y1="1875.69" x2="1821.93" y2="2111.04" gradientUnits="userSpaceOnUse">
<stop stop-color="#2B3582"/>
<stop offset="1" stop-color="#150E42"/>
</linearGradient>
<linearGradient id="paint39_linear_34_11453" x1="1656.06" y1="1905.64" x2="1537.77" y2="1905.64" gradientUnits="userSpaceOnUse">
<stop stop-color="#2B3582"/>
<stop offset="1" stop-color="#150E42"/>
</linearGradient>
<linearGradient id="paint40_linear_34_11453" x1="1630.24" y1="1819.74" x2="1646.85" y2="1964.69" gradientUnits="userSpaceOnUse">
<stop stop-color="#F9B776"/>
<stop offset="1" stop-color="#F47960"/>
</linearGradient>
<linearGradient id="paint41_linear_34_11453" x1="1429.82" y1="1157.62" x2="1958.65" y2="1978.23" gradientUnits="userSpaceOnUse">
<stop stop-color="#2B3582"/>
<stop offset="1" stop-color="#150E42"/>
</linearGradient>
<linearGradient id="paint42_linear_34_11453" x1="1568.49" y1="941.983" x2="2248.82" y2="1723.44" gradientUnits="userSpaceOnUse">
<stop stop-color="#CB236D"/>
<stop offset="1" stop-color="#4C246D"/>
</linearGradient>
<linearGradient id="paint43_linear_34_11453" x1="1722.65" y1="862.719" x2="1790.56" y2="1156.18" gradientUnits="userSpaceOnUse">
<stop stop-color="#F9B776"/>
<stop offset="1" stop-color="#F47960"/>
</linearGradient>
<linearGradient id="paint44_linear_34_11453" x1="1734.03" y1="810.665" x2="1702.71" y2="994.974" gradientUnits="userSpaceOnUse">
<stop stop-color="#F9B776"/>
<stop offset="1" stop-color="#F47960"/>
</linearGradient>
<linearGradient id="paint45_linear_34_11453" x1="1765.01" y1="896.13" x2="1674.82" y2="800.32" gradientUnits="userSpaceOnUse">
<stop stop-color="#2B3582"/>
<stop offset="1" stop-color="#150E42"/>
</linearGradient>
<linearGradient id="paint46_linear_34_11453" x1="1758.92" y1="1011.83" x2="1764.49" y2="882.418" gradientUnits="userSpaceOnUse">
<stop stop-color="#F9B776"/>
<stop offset="1" stop-color="#F47960"/>
</linearGradient>
<linearGradient id="paint47_linear_34_11453" x1="1997.03" y1="918.447" x2="1653.19" y2="1275.16" gradientUnits="userSpaceOnUse">
<stop stop-color="#CB236D"/>
<stop offset="1" stop-color="#4C246D"/>
</linearGradient>
<linearGradient id="paint48_linear_34_11453" x1="1177.59" y1="603.901" x2="1733.57" y2="1774.48" gradientUnits="userSpaceOnUse">
<stop stop-color="#2B3582"/>
<stop offset="1" stop-color="#150E42"/>
</linearGradient>
<linearGradient id="paint49_linear_34_11453" x1="1515.25" y1="988.343" x2="2195.57" y2="1769.79" gradientUnits="userSpaceOnUse">
<stop stop-color="#CB236D"/>
<stop offset="1" stop-color="#4C246D"/>
</linearGradient>
<linearGradient id="paint50_linear_34_11453" x1="1335.49" y1="760.15" x2="1404" y2="983.402" gradientUnits="userSpaceOnUse">
<stop stop-color="#F9B776"/>
<stop offset="1" stop-color="#F47960"/>
</linearGradient>
<linearGradient id="paint51_linear_34_11453" x1="1312.69" y1="767.606" x2="1380.92" y2="989.947" gradientUnits="userSpaceOnUse">
<stop stop-color="#F9B776"/>
<stop offset="1" stop-color="#F47960"/>
</linearGradient>
<linearGradient id="paint52_linear_34_11453" x1="1892.36" y1="1235.23" x2="1753.31" y2="1405.49" gradientUnits="userSpaceOnUse">
<stop stop-color="#F9B776"/>
<stop offset="1" stop-color="#F47960"/>
</linearGradient>
<linearGradient id="paint53_linear_34_11453" x1="1890.92" y1="1237.2" x2="1755.28" y2="1403.29" gradientUnits="userSpaceOnUse">
<stop stop-color="#F9B776"/>
<stop offset="1" stop-color="#F47960"/>
</linearGradient>
</defs>
</svg>
