<svg width="500" height="500" viewBox="0 0 500 500" fill="none" xmlns="http://www.w3.org/2000/svg">
<path d="M457.234 229.291C457.22 229.33 456.814 229.181 456.06 229.029C455.309 228.879 454.188 228.748 452.835 228.944C451.491 229.135 449.905 229.684 448.52 230.833C447.136 231.961 445.953 233.664 445.48 235.677L445.466 235.731L445.281 236.449L445.005 235.768C444.23 233.853 442.853 232.326 441.36 231.352C439.863 230.36 438.251 229.942 436.9 229.838C434.156 229.651 432.551 230.508 432.532 230.394C432.521 230.371 432.897 230.153 433.642 229.912C434.383 229.674 435.513 229.432 436.922 229.498C438.321 229.561 440.019 229.961 441.602 230.979C443.18 231.979 444.637 233.57 445.454 235.588L444.994 235.625L445.008 235.568C445.509 233.437 446.769 231.654 448.239 230.487C449.713 229.297 451.393 228.758 452.791 228.605C454.201 228.447 455.35 228.636 456.104 228.846C456.86 229.059 457.244 229.268 457.234 229.291Z" fill="#E0E0E0"/>
<path d="M84.6129 170.39C84.5979 170.429 84.1929 170.281 83.4389 170.128C82.6879 169.978 81.5669 169.847 80.2139 170.043C78.8699 170.234 77.2839 170.783 75.8989 171.932C74.5149 173.061 73.3319 174.763 72.8589 176.776L72.8449 176.83L72.6599 177.547L72.3849 176.866C71.6099 174.951 70.2329 173.424 68.7399 172.45C67.2429 171.458 65.6309 171.039 64.2799 170.936C61.5359 170.749 59.9309 171.606 59.9109 171.491C59.8999 171.468 60.2759 171.25 61.0209 171.009C61.7619 170.771 62.8919 170.53 64.3019 170.595C65.7009 170.658 67.3989 171.058 68.9819 172.076C70.5599 173.076 72.0169 174.667 72.8339 176.685L72.3739 176.722L72.3889 176.665C72.8899 174.534 74.1499 172.751 75.6199 171.585C77.0939 170.395 78.7739 169.856 80.1719 169.703C81.5819 169.545 82.7309 169.734 83.4849 169.944C84.2389 170.158 84.6229 170.368 84.6129 170.39Z" fill="#E0E0E0"/>
<path d="M343.299 149.739C343.328 149.769 342.922 150.187 342.23 150.973C341.537 151.758 340.592 152.949 339.606 154.535C337.623 157.667 335.639 162.652 335.707 168.369C335.707 168.429 335.706 168.488 335.706 168.543L335.225 168.583C334.397 162.959 331.446 158.479 328.856 155.888C326.251 153.242 324.134 152.215 324.204 152.117C324.212 152.103 324.343 152.163 324.586 152.291C324.824 152.427 325.194 152.6 325.628 152.892C326.519 153.439 327.749 154.34 329.096 155.648C330.445 156.951 331.873 158.704 333.088 160.88C334.306 163.05 335.27 165.661 335.702 168.514L335.221 168.554C335.221 168.498 335.222 168.437 335.222 168.376C335.152 162.541 337.232 157.478 339.315 154.353C340.352 152.769 341.348 151.599 342.089 150.846C342.446 150.457 342.764 150.195 342.965 150.004C343.174 149.818 343.287 149.727 343.299 149.739Z" fill="#E0E0E0"/>
<path d="M378.154 389.366C362.403 393.104 350.381 408.804 350.879 424.984C340.793 413.863 322.336 411.594 309.857 419.94C297.378 428.286 292.427 446.211 298.853 459.779C283.94 448.14 259.689 451.367 248.339 466.5C245.756 456.973 238.429 448.859 229.213 445.319C219.998 441.78 209.123 442.904 200.827 448.253C198.139 431.379 184.521 416.778 167.874 412.923C151.228 409.068 132.577 416.196 122.746 430.171C114.424 422.065 102.243 418.109 90.7469 419.779C79.2499 421.449 68.6979 428.706 63.0249 438.844L73.1369 442.107C91.5799 445.479 107.804 459.095 114.323 476.673C123.603 466.514 137.977 461.261 151.62 463.043C165.263 464.825 177.806 473.593 184.165 485.795L262.014 485.755C281.397 485.594 296.19 486.641 314.108 485.755C321.193 460.829 353.776 438.671 378.271 447.126C383.184 428.242 399.259 412.741 418.284 408.448C411.297 394.068 393.729 385.67 378.154 389.366Z" fill="#EBEBEB"/>
<path d="M418.907 408.306C418.699 408.35 418.492 408.403 418.285 408.45C418.364 408.612 418.448 408.77 418.524 408.933L418.907 408.306Z" fill="#EBEBEB"/>
<path d="M217.699 362.07C218.295 357.737 212.18 354.173 207.586 353.802C205.395 353.625 203.119 353.96 201.043 353.237C196.545 351.669 194.749 345.859 190.36 344.008C187.079 342.624 183.302 343.856 180.121 345.457C176.94 347.058 173.797 349.073 170.243 349.3C167.152 349.498 163.795 348.352 161.091 349.862C159.076 350.987 158.02 353.309 156.163 354.679C154.346 356.019 151.975 356.303 149.721 356.426C147.466 356.549 145.132 356.571 143.079 357.511C141.026 358.451 139.328 360.622 139.754 362.839L217.699 362.07Z" fill="#EBEBEB"/>
<path d="M436.074 118.347C436.783 113.194 429.511 108.955 424.047 108.515C421.441 108.305 418.734 108.703 416.266 107.843C410.917 105.979 408.781 99.069 403.562 96.867C399.66 95.221 395.168 96.686 391.386 98.59C387.603 100.494 383.865 102.89 379.639 103.16C375.963 103.395 371.971 102.032 368.755 103.828C366.358 105.166 365.103 107.928 362.894 109.557C360.733 111.151 357.914 111.488 355.233 111.634C352.552 111.78 349.776 111.807 347.334 112.925C344.892 114.043 342.873 116.625 343.379 119.262L436.074 118.347Z" fill="#EBEBEB"/>
<path d="M151.333 91.4381C152.081 86.0061 144.415 81.5381 138.655 81.0741C135.908 80.8531 133.055 81.2731 130.453 80.3661C124.815 78.4011 122.563 71.1171 117.061 68.7961C112.948 67.0611 108.213 68.6061 104.225 70.6121C100.238 72.6191 96.2968 75.1441 91.8418 75.4291C87.9668 75.6771 83.7588 74.2401 80.3688 76.1331C77.8428 77.5441 76.5188 80.4551 74.1908 82.1721C71.9128 83.8521 68.9408 84.2081 66.1148 84.3621C63.2888 84.5161 60.3618 84.5441 57.7888 85.7231C55.2148 86.9011 53.0858 89.6231 53.6198 92.4031L151.333 91.4381Z" fill="#EBEBEB"/>
<path d="M454.463 298.198C455.471 290.878 445.139 284.855 437.376 284.23C433.674 283.932 429.828 284.497 426.321 283.275C418.722 280.626 415.687 270.809 408.272 267.682C402.728 265.344 396.347 267.425 390.973 270.13C385.599 272.835 380.288 276.239 374.284 276.623C369.062 276.957 363.39 275.021 358.821 277.572C355.416 279.473 353.633 283.396 350.494 285.711C347.424 287.975 343.419 288.455 339.609 288.662C335.8 288.869 331.856 288.908 328.387 290.496C324.918 292.084 322.049 295.752 322.769 299.498L454.463 298.198Z" fill="#F5F5F5"/>
<path d="M163.495 246.182C164.407 239.555 155.054 234.103 148.026 233.536C144.674 233.266 141.193 233.778 138.018 232.671C131.139 230.273 128.391 221.386 121.678 218.554C116.659 216.437 110.882 218.322 106.017 220.77C101.152 223.219 96.3439 226.3 90.9079 226.648C86.1799 226.951 81.0459 225.197 76.9089 227.507C73.8269 229.228 72.2119 232.78 69.3709 234.875C66.5909 236.925 62.9659 237.359 59.5169 237.547C56.0679 237.735 52.4979 237.769 49.3579 239.207C46.2179 240.645 43.6199 243.965 44.2719 247.357L163.495 246.182Z" fill="#EBEBEB"/>
<path d="M472.986 427.269C472.986 427.269 472.492 426.728 471.559 425.659C471.091 425.126 470.532 424.443 469.769 423.724C469.398 423.354 468.997 422.956 468.567 422.529C468.149 422.09 467.67 421.654 467.141 421.215C466.621 420.766 466.07 420.29 465.49 419.789C464.916 419.28 464.242 418.832 463.574 418.315C462.251 417.259 460.67 416.301 458.995 415.22C455.565 413.186 451.39 411.205 446.466 409.712C441.553 408.218 435.869 407.22 429.657 407.376C428.882 407.4 428.099 407.424 427.308 407.449C426.52 407.528 425.725 407.607 424.922 407.687C424.52 407.728 424.117 407.769 423.712 407.811C423.311 407.881 422.907 407.952 422.502 408.022C421.692 408.165 420.874 408.31 420.05 408.456C416.789 409.224 413.45 410.227 410.17 411.698C406.909 413.194 403.641 414.979 400.546 417.223C397.462 419.474 394.5 422.082 391.771 425.057C386.378 431.044 381.945 438.56 379.668 447.152L379.608 447.379L379.387 447.303C373.582 445.298 367.062 445.02 360.674 446.198C354.27 447.368 347.966 449.901 342.1 453.422C336.237 456.952 330.771 461.479 326.113 466.899C321.478 472.314 317.603 478.678 315.538 485.797L315.487 485.971L315.307 485.98C305.447 486.479 295.269 486.373 284.883 486.174C279.689 486.082 274.439 485.988 269.142 485.975C263.844 485.981 258.498 485.987 253.114 485.993C229.651 486.002 206.907 486.011 185.352 486.019H185.2L185.129 485.884C181.659 479.266 176.445 473.787 170.44 469.877C164.432 465.958 157.593 463.591 150.761 463.052C143.924 462.503 137.162 463.702 131.144 466.145C125.117 468.588 119.811 472.288 115.667 476.79L115.431 477.046L115.309 476.72C112.33 468.779 107.544 462.005 102.021 456.667C99.2288 454.019 96.2558 451.721 93.1988 449.752C90.1378 447.78 86.9408 446.248 83.7768 444.967C80.5998 443.696 77.3848 442.876 74.2648 442.234C73.4768 442.117 72.6948 442.001 71.9218 441.886C71.5348 441.83 71.1498 441.774 70.7658 441.719C70.3798 441.688 69.9948 441.658 69.6128 441.627C68.8478 441.566 68.0898 441.506 67.3398 441.447C66.5868 441.437 65.8418 441.428 65.1048 441.418C59.1988 441.365 53.8118 442.342 49.1398 443.737C44.4588 445.135 40.4798 446.968 37.1868 448.83C35.5778 449.824 34.0618 450.703 32.7798 451.668C31.4478 452.563 30.3308 453.496 29.3208 454.318C28.2828 455.108 27.4978 455.956 26.7508 456.608C26.0038 457.264 25.4488 457.888 24.9848 458.373C24.0598 459.347 23.5708 459.838 23.5708 459.838C23.5708 459.838 24.0268 459.318 24.9368 458.328C25.3938 457.835 25.9428 457.203 26.6828 456.538C27.4238 455.877 28.2038 455.019 29.2378 454.22C30.2438 453.388 31.3578 452.445 32.6868 451.539C33.9668 450.563 35.4818 449.673 37.0918 448.667C40.3858 446.783 44.3718 444.925 49.0678 443.503C53.7548 442.085 59.1648 441.085 65.1028 441.121C65.8448 441.128 66.5938 441.136 67.3508 441.143C68.1058 441.201 68.8678 441.259 69.6378 441.318C70.0228 441.348 70.4098 441.377 70.7978 441.407C71.1838 441.462 71.5718 441.517 71.9608 441.572C72.7398 441.686 73.5258 441.801 74.3198 441.916C77.4618 442.554 80.6988 443.372 83.8998 444.644C87.0878 445.926 90.3088 447.462 93.3938 449.44C96.4758 451.416 99.4728 453.724 102.288 456.385C107.858 461.75 112.691 468.566 115.707 476.57L115.349 476.5C119.531 471.944 124.886 468.2 130.972 465.725C137.048 463.251 143.879 462.031 150.796 462.58C157.71 463.119 164.627 465.507 170.704 469.465C176.778 473.414 182.055 478.951 185.572 485.65L185.349 485.515C206.904 485.501 229.647 485.486 253.109 485.471C258.494 485.465 263.841 485.46 269.14 485.454C274.442 485.467 279.694 485.562 284.888 485.655C295.275 485.857 305.437 485.966 315.278 485.473L315.047 485.657C317.142 478.448 321.059 472.031 325.734 466.576C330.433 461.116 335.94 456.563 341.85 453.011C347.762 449.47 354.119 446.921 360.588 445.746C367.04 444.563 373.642 444.85 379.524 446.891L379.243 447.042C381.551 438.377 386.031 430.81 391.473 424.79C394.227 421.798 397.214 419.178 400.323 416.918C403.443 414.665 406.737 412.873 410.023 411.375C413.329 409.901 416.693 408.899 419.977 408.133C420.808 407.988 421.631 407.844 422.447 407.702C422.855 407.632 423.261 407.562 423.665 407.493C424.073 407.452 424.479 407.412 424.883 407.372C425.691 407.294 426.492 407.216 427.285 407.139C428.081 407.117 428.869 407.094 429.649 407.072C435.897 406.932 441.607 407.954 446.536 409.472C451.476 410.99 455.659 412.996 459.091 415.054C460.767 416.147 462.347 417.118 463.668 418.184C464.334 418.707 465.007 419.161 465.58 419.675C466.158 420.182 466.707 420.662 467.225 421.116C467.752 421.561 468.228 422.001 468.643 422.445C469.069 422.877 469.467 423.281 469.836 423.654C470.593 424.382 471.145 425.073 471.605 425.614C472.527 426.7 472.986 427.269 472.986 427.269Z" fill="#263238"/>
<path d="M247.976 50.8327L253.204 61.4247C253.576 62.1787 254.296 62.7017 255.128 62.8227L266.817 64.5217C268.913 64.8267 269.751 67.4027 268.234 68.8817L259.775 77.1267C259.173 77.7137 258.898 78.5597 259.04 79.3887L261.037 91.0307C261.395 93.1187 259.204 94.7107 257.328 93.7247L246.872 88.2277C246.127 87.8367 245.238 87.8367 244.493 88.2277L234.038 93.7247C232.163 94.7107 229.971 93.1187 230.329 91.0307L232.326 79.3887C232.468 78.5597 232.193 77.7137 231.591 77.1267L223.132 68.8817C221.615 67.4027 222.452 64.8267 224.549 64.5217L236.239 62.8227C237.071 62.7017 237.791 62.1787 238.163 61.4247L243.391 50.8327C244.329 48.9327 247.038 48.9327 247.976 50.8327Z" fill="#CD40FF"/>
<path d="M228.045 57.8308C227.946 57.9348 221.311 51.7748 213.228 44.0728C205.142 36.3688 198.67 30.0408 198.769 29.9368C198.868 29.8328 205.501 35.9918 213.587 43.6958C221.67 51.3968 228.144 57.7268 228.045 57.8308Z" fill="#CD40FF"/>
<path d="M214.176 64.3487C214.167 64.4927 208.471 64.2627 201.455 63.8367C194.436 63.4107 188.756 62.9487 188.764 62.8047C188.773 62.6607 194.468 62.8907 201.486 63.3167C208.503 63.7427 214.185 64.2047 214.176 64.3487Z" fill="#CD40FF"/>
<path d="M235.803 45.3687C235.672 45.4267 234.025 42.0157 232.126 37.7497C230.226 33.4827 228.793 29.9767 228.924 29.9187C229.055 29.8597 230.702 33.2707 232.602 37.5377C234.501 41.8047 235.934 45.3107 235.803 45.3687Z" fill="#CD40FF"/>
<path d="M244.65 11.4019C244.794 11.4019 244.91 18.3699 244.91 26.9639C244.91 35.5609 244.793 42.5269 244.65 42.5269C244.507 42.5269 244.39 35.5599 244.39 26.9639C244.39 18.3699 244.507 11.4019 244.65 11.4019Z" fill="#CD40FF"/>
<path d="M262.331 30.2079C262.461 30.2699 260.981 33.6499 259.026 37.7559C257.07 41.8639 255.38 45.1429 255.251 45.0809C255.121 45.0189 256.601 41.6399 258.556 37.5319C260.511 33.4259 262.202 30.1459 262.331 30.2079Z" fill="#CD40FF"/>
<path d="M290.896 35.3008C290.978 35.4188 283.351 40.8818 273.862 47.5018C264.37 54.1238 256.61 59.3948 256.528 59.2768C256.446 59.1588 264.072 53.6968 273.564 47.0748C283.053 40.4548 290.814 35.1828 290.896 35.3008Z" fill="#CD40FF"/>
<path d="M291.648 57.4158C291.7 57.5498 287.926 59.1398 283.218 60.9678C278.509 62.7958 274.651 64.1678 274.599 64.0338C274.547 63.8998 278.321 62.3098 283.029 60.4818C287.737 58.6548 291.596 57.2818 291.648 57.4158Z" fill="#CD40FF"/>
<path d="M225.152 78.7267C225.199 78.8627 215.28 82.3977 203 86.6217C190.716 90.8477 180.723 94.1607 180.676 94.0257C180.629 93.8897 190.546 90.3547 202.831 86.1297C215.11 81.9057 225.106 78.5907 225.152 78.7267Z" fill="#CD40FF"/>
<path d="M303.325 89.629C303.286 89.768 294.557 87.439 283.829 84.429C273.098 81.418 264.433 78.866 264.472 78.727C264.511 78.589 273.239 80.916 283.97 83.928C294.697 86.938 303.364 89.491 303.325 89.629Z" fill="#CD40FF"/>
<path d="M216.98 107.704C216.886 107.595 219.533 105.138 222.892 102.217C226.252 99.2938 229.052 97.0138 229.146 97.1218C229.24 97.2298 226.594 99.6868 223.234 102.61C219.875 105.532 217.075 107.813 216.98 107.704Z" fill="#CD40FF"/>
<path d="M245.481 132.189C245.337 132.188 245.266 123.644 245.322 113.107C245.378 102.567 245.54 94.0249 245.684 94.0259C245.828 94.0269 245.899 102.569 245.843 113.11C245.787 123.646 245.625 132.189 245.481 132.189Z" fill="#CD40FF"/>
<path d="M274.958 109.839C274.859 109.944 272.11 107.509 268.817 104.401C265.524 101.292 262.935 98.6878 263.033 98.5838C263.131 98.4798 265.881 100.914 269.174 104.023C272.467 107.129 275.056 109.734 274.958 109.839Z" fill="#CD40FF"/>
<path d="M296.391 73.8008L296.48 75.5208C296.486 75.6428 296.553 75.7548 296.657 75.8188L298.124 76.7208C298.387 76.8828 298.351 77.2758 298.062 77.3868L296.454 78.0028C296.339 78.0468 296.254 78.1438 296.225 78.2638L295.821 79.9378C295.748 80.2378 295.363 80.3248 295.169 80.0848L294.086 78.7458C294.009 78.6508 293.89 78.5988 293.768 78.6088L292.051 78.7418C291.743 78.7658 291.541 78.4258 291.71 78.1668L292.649 76.7228C292.716 76.6198 292.728 76.4908 292.681 76.3778L292.024 74.7858C291.906 74.4998 292.167 74.2038 292.465 74.2838L294.128 74.7308C294.246 74.7628 294.373 74.7338 294.466 74.6548L295.777 73.5378C296.013 73.3358 296.375 73.4928 296.391 73.8008Z" fill="#CD40FF"/>
<path d="M307.434 55.6668L308.217 56.4868C308.273 56.5448 308.354 56.5728 308.434 56.5598L309.554 56.3798C309.755 56.3478 309.906 56.5598 309.809 56.7388L309.271 57.7378C309.233 57.8088 309.232 57.8948 309.269 57.9658L309.787 58.9758C309.88 59.1568 309.725 59.3658 309.525 59.3298L308.409 59.1268C308.33 59.1128 308.248 59.1378 308.191 59.1948L307.391 59.9988C307.248 60.1428 307.001 60.0598 306.974 59.8588L306.823 58.7348C306.812 58.6548 306.763 58.5848 306.691 58.5488L305.679 58.0358C305.498 57.9438 305.5 57.6838 305.684 57.5958L306.706 57.1048C306.779 57.0698 306.83 57.0008 306.842 56.9218L307.017 55.8008C307.045 55.5978 307.293 55.5198 307.434 55.6668Z" fill="#CD40FF"/>
<path d="M180.605 42.061L181.388 42.881C181.444 42.939 181.525 42.967 181.605 42.954L182.725 42.774C182.926 42.742 183.077 42.954 182.98 43.133L182.442 44.132C182.404 44.203 182.403 44.288 182.44 44.36L182.958 45.369C183.051 45.55 182.896 45.759 182.696 45.722L181.58 45.519C181.501 45.505 181.419 45.53 181.362 45.587L180.562 46.391C180.419 46.535 180.172 46.452 180.145 46.251L179.993 45.127C179.982 45.047 179.933 44.977 179.861 44.941L178.849 44.428C178.667 44.336 178.67 44.076 178.854 43.988L179.876 43.496C179.949 43.461 180 43.392 180.012 43.312L180.187 42.191C180.216 41.992 180.465 41.914 180.605 42.061Z" fill="#CD40FF"/>
<path d="M81.108 283.827C81.094 283.866 80.688 283.718 79.934 283.565C79.183 283.415 78.062 283.284 76.708 283.48C75.364 283.671 73.778 284.22 72.393 285.369C71.009 286.498 69.826 288.2 69.353 290.213L69.339 290.267L69.154 290.984L68.879 290.303C68.103 288.388 66.727 286.862 65.234 285.887C63.737 284.895 62.125 284.476 60.774 284.373C58.03 284.186 56.425 285.043 56.406 284.928C56.395 284.905 56.771 284.687 57.516 284.446C58.257 284.208 59.387 283.966 60.796 284.032C62.195 284.095 63.893 284.495 65.476 285.513C67.054 286.513 68.511 288.104 69.328 290.122L68.868 290.159L68.883 290.102C69.384 287.97 70.644 286.188 72.114 285.021C73.588 283.831 75.268 283.292 76.666 283.139C78.076 282.981 79.225 283.17 79.979 283.38C80.734 283.595 81.118 283.804 81.108 283.827Z" fill="#263238"/>
<path d="M129.512 279.991C129.552 280.033 128.978 280.625 127.998 281.739C127.017 282.851 125.678 284.538 124.281 286.785C121.472 291.222 118.661 298.284 118.758 306.382C118.758 306.467 118.757 306.551 118.756 306.629L118.075 306.685C116.901 298.719 112.721 292.372 109.053 288.701C105.363 284.952 102.364 283.497 102.463 283.358C102.474 283.337 102.66 283.423 103.004 283.605C103.341 283.798 103.866 284.043 104.481 284.456C105.743 285.231 107.485 286.508 109.394 288.36C111.305 290.206 113.328 292.69 115.049 295.772C116.774 298.845 118.14 302.544 118.752 306.586L118.071 306.642C118.072 306.563 118.072 306.477 118.073 306.39C117.974 298.123 120.92 290.952 123.872 286.525C125.34 284.281 126.752 282.623 127.801 281.558C128.307 281.008 128.757 280.635 129.042 280.365C129.335 280.103 129.496 279.974 129.512 279.991Z" fill="#263238"/>
<path d="M376.876 220.562C376.859 220.61 376.04 220.273 374.492 219.93C372.953 219.592 370.642 219.293 367.839 219.674C365.057 220.046 361.76 221.165 358.874 223.541C355.994 225.873 353.53 229.402 352.546 233.588C352.536 233.626 352.526 233.664 352.517 233.699L352.333 234.417L352.057 233.736C350.446 229.758 347.585 226.597 344.481 224.588C341.369 222.542 338.021 221.694 335.229 221.503C332.418 221.307 330.138 221.711 328.618 222.108C327.092 222.511 326.286 222.865 326.268 222.82C326.261 222.805 326.459 222.71 326.843 222.543C327.225 222.374 327.804 222.153 328.568 221.928C330.086 221.471 332.389 221.008 335.25 221.163C338.091 221.313 341.524 222.142 344.722 224.215C347.91 226.25 350.852 229.475 352.505 233.556L352.045 233.593C352.054 233.557 352.064 233.518 352.074 233.478C353.086 229.173 355.627 225.564 358.592 223.194C361.566 220.778 364.956 219.669 367.793 219.335C370.652 218.991 372.991 219.349 374.533 219.747C375.309 219.942 375.898 220.144 376.287 220.302C376.681 220.458 376.882 220.547 376.876 220.562Z" fill="#263238"/>
<path d="M443.393 184.062C443.378 184.102 442.923 183.931 442.072 183.755C441.226 183.582 439.961 183.431 438.432 183.649C436.914 183.862 435.122 184.48 433.554 185.777C431.99 187.051 430.652 188.974 430.117 191.25L430.101 191.311L429.917 192.029L429.641 191.348C428.765 189.184 427.209 187.46 425.52 186.36C423.828 185.241 422.006 184.77 420.481 184.656C418.946 184.539 417.697 184.748 416.861 184.953C416.022 185.161 415.573 185.342 415.557 185.303C415.55 185.288 415.656 185.229 415.865 185.13C416.073 185.03 416.39 184.902 416.81 184.771C417.645 184.506 418.916 184.238 420.502 184.315C422.075 184.388 423.983 184.84 425.761 185.986C427.533 187.111 429.17 188.899 430.088 191.167L429.628 191.204L429.644 191.14C430.207 188.746 431.622 186.743 433.272 185.431C434.927 184.093 436.814 183.485 438.386 183.31C439.972 183.129 441.264 183.339 442.113 183.572C442.54 183.686 442.863 183.804 443.075 183.898C443.291 183.991 443.399 184.046 443.393 184.062Z" fill="#263238"/>
<path d="M399.903 169.123C399.933 169.153 399.448 169.645 398.624 170.573C397.799 171.5 396.675 172.908 395.502 174.787C393.144 178.496 390.785 184.408 390.866 191.191C390.865 191.262 390.865 191.332 390.864 191.398L390.383 191.438C389.882 188.129 388.778 185.092 387.384 182.554C385.994 180.009 384.361 177.941 382.817 176.385C381.276 174.824 379.87 173.723 378.858 173.028C377.848 172.329 377.262 171.977 377.284 171.94C377.292 171.926 377.446 172 377.732 172.154C378.013 172.317 378.449 172.525 378.962 172.872C380.013 173.524 381.466 174.594 383.057 176.144C384.651 177.689 386.337 179.764 387.772 182.339C389.21 184.906 390.349 187.994 390.86 191.368L390.379 191.408C390.379 191.342 390.38 191.27 390.381 191.198C390.298 184.297 392.753 178.308 395.212 174.605C396.435 172.728 397.611 171.34 398.484 170.446C398.905 169.984 399.279 169.671 399.515 169.443C399.759 169.221 399.891 169.111 399.903 169.123Z" fill="#263238"/>
<path d="M204.306 197.328C226.07 197.328 247.835 197.328 269.599 197.328C275.746 197.328 281.893 197.328 288.041 197.328C291.258 197.328 291.264 192.328 288.041 192.328C266.277 192.328 244.512 192.328 222.748 192.328C216.601 192.328 210.454 192.328 204.306 192.328C201.089 192.328 201.083 197.328 204.306 197.328Z" fill="#455A64"/>
<path d="M207.203 101.746H201.203V485.725H207.203V101.746Z" fill="#455A64"/>
<path d="M206.89 485.726C206.746 485.726 206.63 399.819 206.63 293.871C206.63 187.887 206.747 101.998 206.89 101.998C207.034 101.998 207.15 187.887 207.15 293.871C207.15 399.819 207.033 485.726 206.89 485.726Z" fill="#263238"/>
<path d="M204.306 158.476C226.07 158.476 247.835 158.476 269.599 158.476C275.746 158.476 281.893 158.476 288.041 158.476C291.258 158.476 291.264 153.476 288.041 153.476C266.277 153.476 244.512 153.476 222.748 153.476C216.601 153.476 210.454 153.476 204.306 153.476C201.089 153.476 201.083 158.476 204.306 158.476Z" fill="#455A64"/>
<path d="M290.938 102.534H284.938V485.726H290.938V102.534Z" fill="#455A64"/>
<path d="M285.087 437.453C284.943 437.453 284.827 362.62 284.827 270.331C284.827 178.009 284.944 103.192 285.087 103.192C285.231 103.192 285.347 178.009 285.347 270.331C285.348 362.62 285.231 437.453 285.087 437.453Z" fill="#263238"/>
<path d="M204.203 453.259C225.967 453.259 247.732 453.259 269.496 453.259C275.643 453.259 281.79 453.259 287.938 453.259C291.155 453.259 291.161 448.259 287.938 448.259C266.174 448.259 244.409 448.259 222.645 448.259C216.498 448.259 210.351 448.259 204.203 448.259C200.985 448.259 200.98 453.259 204.203 453.259Z" fill="#455A64"/>
<path d="M205.947 375.748C226.362 375.748 246.778 375.748 267.193 375.748C273.002 375.748 278.812 375.748 284.621 375.748C287.838 375.748 287.844 370.748 284.621 370.748C264.206 370.748 243.79 370.748 223.375 370.748C217.566 370.748 211.756 370.748 205.947 370.748C202.73 370.748 202.725 375.748 205.947 375.748Z" fill="#455A64"/>
<path d="M204.203 321.579C225.967 321.579 247.732 321.579 269.496 321.579C275.643 321.579 281.79 321.579 287.938 321.579C291.155 321.579 291.161 316.579 287.938 316.579C266.174 316.579 244.409 316.579 222.645 316.579C216.498 316.579 210.351 316.579 204.203 316.579C200.985 316.579 200.98 321.579 204.203 321.579Z" fill="#455A64"/>
<path d="M204.203 278.847C225.967 278.847 247.732 278.847 269.496 278.847C275.643 278.847 281.79 278.847 287.938 278.847C291.155 278.847 291.161 273.847 287.938 273.847C266.174 273.847 244.409 273.847 222.645 273.847C216.498 273.847 210.351 273.847 204.203 273.847C200.985 273.847 200.98 278.847 204.203 278.847Z" fill="#455A64"/>
<path d="M204.203 237.13C225.967 237.13 247.732 237.13 269.496 237.13C275.643 237.13 281.79 237.13 287.938 237.13C291.155 237.13 291.161 232.13 287.938 232.13C266.174 232.13 244.409 232.13 222.645 232.13C216.498 232.13 210.351 232.13 204.203 232.13C200.985 232.13 200.98 237.13 204.203 237.13Z" fill="#455A64"/>
<path d="M205.032 415.693C225.676 415.693 246.319 415.693 266.963 415.693C272.849 415.693 278.736 415.693 284.622 415.693C287.839 415.693 287.845 410.693 284.622 410.693C263.978 410.693 243.335 410.693 222.691 410.693C216.805 410.693 210.918 410.693 205.032 410.693C201.814 410.693 201.809 415.693 205.032 415.693Z" fill="#455A64"/>
<path d="M273.134 163.697L268.052 152.385C268.052 152.385 268.317 146.342 267.459 145.83C266.279 145.127 265.992 145.71 265.662 147.728L265.187 150.697C265.187 150.697 263.249 146.474 261.437 146.298C260.211 146.179 259.856 148.321 259.856 148.321C259.856 148.321 257.814 146.407 256.356 146.865C254.988 147.294 255.368 149.312 255.368 149.312C255.368 149.312 253.656 148.287 252.91 150.098C252.056 152.172 255.786 155.308 256.356 156.695C257.549 159.6 255.023 159.694 255.023 159.694C255.023 159.694 248.525 158.861 248.858 160.527C249.191 162.193 251.357 162.193 253.023 162.36C254.412 162.499 259.624 163.796 261.318 164.223C261.672 164.312 262.008 164.46 262.314 164.66L266.194 168.643L273.134 163.697Z" fill="#FFBE9D"/>
<path d="M270.497 423.464L270.276 452.499L254.609 452.693L254.77 423.602L270.497 423.464Z" fill="#CD40FF"/>
<path d="M262.545 451.5C262.414 451.498 262.436 445.14 262.594 437.303C262.752 429.463 262.986 423.111 263.117 423.114C263.248 423.117 263.226 429.473 263.068 437.313C262.91 445.15 262.676 451.503 262.545 451.5Z" fill="#263238"/>
<path d="M254.661 443.396C254.637 443.378 254.774 443.148 255.069 442.766C255.364 442.385 255.831 441.861 256.483 441.289C257.135 440.72 257.98 440.104 259.033 439.621C260.075 439.13 261.343 438.79 262.694 438.818C265.403 438.854 267.666 440.207 268.772 441.543C269.347 442.202 269.699 442.82 269.899 443.26C270.095 443.703 270.167 443.961 270.14 443.972C270.054 444.019 269.688 442.988 268.526 441.77C267.401 440.549 265.254 439.328 262.684 439.291C260.122 439.246 257.995 440.516 256.699 441.545C255.374 442.601 254.726 443.452 254.661 443.396Z" fill="#263238"/>
<path opacity="0.3" d="M254.616 434.108L254.599 437.307H270.497V434.108H254.616Z" fill="black"/>
<path d="M254.609 452.693L254.626 449.663L270.298 449.666L270.276 452.499L254.609 452.693Z" fill="#E0E0E0"/>
<path d="M237.634 348.106L237.422 375.97L222.387 376.156L222.542 348.238L237.634 348.106Z" fill="#CD40FF"/>
<path d="M230.003 375.011C229.877 375.009 229.898 368.908 230.05 361.386C230.201 353.862 230.426 347.767 230.551 347.769C230.677 347.772 230.656 353.871 230.504 361.395C230.354 368.917 230.129 375.013 230.003 375.011Z" fill="#263238"/>
<path d="M222.438 367.234C222.415 367.217 222.547 366.996 222.83 366.63C223.113 366.264 223.562 365.762 224.187 365.213C224.813 364.667 225.624 364.076 226.634 363.612C227.634 363.141 228.851 362.814 230.147 362.842C232.747 362.877 234.918 364.175 235.98 365.457C236.531 366.09 236.869 366.683 237.061 367.105C237.249 367.53 237.318 367.778 237.292 367.788C237.209 367.833 236.858 366.844 235.743 365.675C234.664 364.503 232.603 363.332 230.136 363.296C227.677 363.253 225.636 364.472 224.392 365.459C223.122 366.47 222.5 367.287 222.438 367.234Z" fill="#263238"/>
<path opacity="0.3" d="M222.394 358.32L222.377 361.39H237.634V358.32H222.394Z" fill="black"/>
<path d="M222.387 376.156L222.404 373.248L237.443 373.251L237.422 375.97L222.387 376.156Z" fill="#E0E0E0"/>
<path d="M240.499 161.325L240.897 161.224C242.098 159.054 244.536 157.7 247.011 157.573C249.485 157.446 251.947 158.462 253.803 160.105C255.092 161.246 256.109 162.67 257.404 163.805C258.699 164.94 260.422 165.793 262.106 165.439C262.312 166.067 261.14 166.439 261.212 167.096C261.247 167.409 261.569 167.615 261.877 167.677C262.33 167.768 262.798 167.653 263.259 167.667C263.721 167.681 264.244 167.895 264.359 168.343C264.415 168.562 264.361 168.794 264.304 169.012C263.79 170.974 262.977 172.911 261.57 174.37C260.163 175.829 258.082 176.742 256.091 176.368C254.501 176.07 253.169 175.024 251.907 174.012C249.509 172.089 247.111 170.167 244.713 168.244C243.606 167.357 242.486 166.456 241.649 165.311C240.812 164.164 240.276 162.726 240.499 161.325Z" fill="#263238"/>
<path d="M242 161.725C241.016 160.94 239.886 160.304 238.651 160.064C237.416 159.825 236.067 160.016 235.046 160.753C234.097 161.438 233.517 162.508 232.848 163.469C232.179 164.431 231.292 165.369 230.134 165.538C229.931 165.568 229.706 165.58 229.557 165.722C229.293 165.973 229.484 166.46 229.815 166.61C230.146 166.76 230.531 166.681 230.885 166.6C230.313 167.27 229.5 167.73 228.631 167.873C228.821 168.728 229.82 169.304 230.654 169.04C230.319 170.4 229.983 171.778 229.991 173.179C229.999 174.58 230.388 176.03 231.339 177.057C232.387 178.189 234.091 178.822 234.548 180.297" fill="#263238"/>
<path d="M252.095 211.139L233.372 210.898L235.462 194.936C235.462 194.936 234.183 194.662 234.097 187.718C234.011 180.773 233.693 168.975 233.693 168.975C241.721 165.52 250.988 166.687 257.913 172.024L258.941 172.816L252.095 211.139Z" fill="#FFBE9D"/>
<path d="M256.767 181.355C256.885 181.304 261.532 179.944 261.381 184.692C261.23 189.44 256.501 188.308 256.497 188.172C256.493 188.035 256.767 181.355 256.767 181.355Z" fill="#FFBE9D"/>
<path d="M234.499 180.364C234.381 180.313 230.154 179.172 230.305 183.919C230.456 188.667 235.186 187.535 235.19 187.399C235.193 187.263 234.499 180.364 234.499 180.364Z" fill="#FFBE9D"/>
<path d="M258.305 180.826C257.597 184.804 257.736 186.894 257.081 189.551C256.044 193.756 253.959 196.98 250.175 199.08C246.392 201.18 241.275 201.142 238.025 198.283C235.77 196.299 234.172 194.058 233.837 191.071C233.503 188.084 232.623 182.474 232.602 179.468C232.564 174.047 232.745 169.186 232.745 169.186L248.211 166.383L257.012 171.623L258.305 180.826Z" fill="#263238"/>
<path d="M242.352 201.478C242.328 201.588 243.545 201.89 245.062 201.718C246.58 201.555 247.702 200.995 247.655 200.893C247.611 200.774 246.467 201.133 245.015 201.287C243.564 201.452 242.369 201.352 242.352 201.478Z" fill="#263238"/>
<path d="M257.558 187.589C258.011 183.512 258.305 178.849 258.941 174.552C259.18 172.939 259.754 170.614 259.61 168.99C259.466 167.359 259.022 167.856 258.305 166.385C257.405 164.54 253.969 163.311 251.958 162.906C249.948 162.501 249.698 160.761 248.156 162.114C247.032 160.428 244.82 159.55 242.847 160.007C240.874 160.464 239.272 162.225 239.002 164.234C237.902 163.186 236.086 162.99 234.788 163.779C233.49 164.568 232.827 166.272 233.249 167.733C232.139 167.918 231.144 168.691 230.69 169.723C230.236 170.754 230.337 172.012 230.951 172.957C231.667 174.062 232.959 174.67 233.749 175.723C234.659 176.936 234.757 178.702 233.987 180.009" fill="#263238"/>
<path d="M237.632 186.74C237.529 186.716 237.313 188.686 238.166 190.913C238.998 193.149 240.461 194.483 240.522 194.396C240.627 194.31 239.364 192.9 238.571 190.76C237.752 188.629 237.767 186.735 237.632 186.74Z" fill="#455A64"/>
<path d="M235.554 183.277C235.458 183.228 234.856 184.921 235.252 187.036C235.626 189.155 236.786 190.527 236.858 190.447C236.973 190.377 236.029 188.966 235.678 186.958C235.299 184.956 235.686 183.302 235.554 183.277Z" fill="#455A64"/>
<path d="M255.03 166.864C253.852 165.011 252.244 163.354 250.206 162.542C248.168 161.73 245.661 161.898 243.993 163.324" fill="#263238"/>
<path d="M254.641 177.373C254.565 177.354 254.642 176.819 254.793 175.972C254.938 175.126 255.162 173.962 255.151 172.682C255.139 171.405 254.82 170.275 254.442 169.535C254.071 168.787 253.695 168.401 253.757 168.338C253.795 168.288 254.286 168.584 254.78 169.342C255.278 170.088 255.69 171.308 255.701 172.676C255.711 174.04 255.414 175.231 255.172 176.062C254.92 176.895 254.712 177.391 254.641 177.373Z" fill="#455A64"/>
<path d="M251.443 178.944C251.306 178.868 251.689 177.929 252.06 176.75C252.438 175.573 252.666 174.584 252.822 174.602C252.968 174.615 252.98 175.68 252.584 176.917C252.193 178.154 251.57 179.018 251.443 178.944Z" fill="#455A64"/>
<path d="M236.59 177.724C236.543 177.761 236.008 177.185 235.526 176.027C235.043 174.885 234.685 173.11 235.063 171.209C235.444 169.307 236.456 167.806 237.341 166.938C238.231 166.055 238.945 165.729 238.975 165.782C239.027 165.856 238.403 166.292 237.627 167.202C236.851 168.1 235.958 169.54 235.603 171.317C235.249 173.094 235.52 174.766 235.892 175.894C236.259 177.033 236.667 177.676 236.59 177.724Z" fill="#455A64"/>
<path d="M253.496 160.06C253.454 160.13 252.889 159.835 251.97 159.417C251.054 159.013 249.741 158.483 248.24 158.501C246.733 158.492 245.492 159.189 244.859 159.928C244.204 160.66 244.083 161.306 243.993 161.281C243.935 161.286 243.913 160.567 244.557 159.682C244.876 159.251 245.358 158.802 245.997 158.475C246.635 158.145 247.417 157.962 248.232 157.951C249.88 157.935 251.254 158.569 252.144 159.07C253.044 159.589 253.532 160.001 253.496 160.06Z" fill="#455A64"/>
<path d="M232.348 164.46C232.288 164.438 232.4 163.907 232.899 163.204C233.386 162.508 234.324 161.668 235.611 161.292C236.899 160.919 238.141 161.125 238.925 161.452C239.723 161.778 240.101 162.166 240.062 162.217C240.015 162.29 239.571 162.03 238.801 161.821C238.04 161.608 236.916 161.487 235.764 161.821C234.614 162.157 233.729 162.861 233.2 163.45C232.663 164.039 232.426 164.497 232.348 164.46Z" fill="#455A64"/>
<path d="M237.449 181.911C237.431 181.845 238.213 181.637 239.461 181.077C240.702 180.518 242.413 179.557 244.038 177.977L244.935 177.105L244.445 178.261C244.152 178.953 243.917 179.712 243.775 180.517C243.698 180.905 243.637 181.399 243.783 181.465C243.888 181.586 244.313 181.373 244.666 181.123C245.927 180.31 246.997 179.325 247.848 178.306L248.672 177.319L248.296 178.543C247.92 179.768 247.569 180.909 247.251 181.942L246.894 181.725C249.066 179.669 249.819 177.835 249.924 177.905C249.959 177.921 249.806 178.382 249.391 179.142C248.975 179.898 248.282 180.953 247.193 182.038L246.613 182.616L246.837 181.821C247.13 180.78 247.453 179.631 247.8 178.398L248.248 178.636C247.381 179.707 246.276 180.741 244.965 181.587C244.772 181.706 244.596 181.835 244.351 181.942C244.132 182.038 243.77 182.133 243.456 181.904C243.153 181.665 243.14 181.315 243.15 181.085C243.168 180.833 243.208 180.639 243.246 180.421C243.403 179.574 243.661 178.78 243.982 178.059L244.389 178.344C242.677 179.948 240.879 180.873 239.58 181.362C238.271 181.85 237.458 181.955 237.449 181.911Z" fill="#455A64"/>
<path d="M246.497 163.601C246.198 163.026 245.623 162.626 245.001 162.446C244.379 162.265 243.714 162.286 243.077 162.4C241.516 162.679 240.062 163.521 239.043 164.737C238.81 165.015 238.603 165.444 238.85 165.708C238.981 165.848 239.19 165.874 239.38 165.89C241.709 166.084 244.062 166.001 246.372 165.642" fill="#263238"/>
<path d="M215.932 303.052C216.242 303.608 220.032 316.29 228.394 318.44C236.756 320.59 262.797 319.157 263.514 318.44C264.231 317.723 271.885 313.503 275.584 304.743C279.283 295.983 252.706 280.692 252.706 280.692L215.932 303.052Z" fill="#263238"/>
<path d="M279.985 306.479L280.221 313.551C280.221 314.64 280.086 320.119 279.969 321.201L276.724 365.111C276.4 364.983 274.51 392.144 274.345 401.631C274.186 410.787 273.421 435.708 273.421 435.708H252.054L250.615 394.454L249.715 349.789L248.388 318.544L279.985 306.479Z" fill="#263238"/>
<path d="M215.932 296.061C215.932 296.061 216.398 296.762 216.29 306.479C216.208 313.908 220.718 359.708 220.718 359.708L238.974 359.156L242.621 313.295L215.932 296.061Z" fill="#263238"/>
<path d="M250.074 319.088C250.077 319.124 249.531 319.199 248.541 319.304C247.551 319.406 246.117 319.54 244.339 319.653C240.796 319.896 235.805 319.966 230.447 318.844C225.047 317.708 220.759 314.637 218.662 311.719C217.587 310.274 216.967 308.937 216.659 307.985C216.479 307.517 216.422 307.127 216.352 306.874C216.294 306.617 216.272 306.482 216.289 306.477C216.422 306.416 216.761 308.706 218.953 311.494C221.072 314.283 225.28 317.223 230.554 318.334C235.846 319.441 240.779 319.432 244.32 319.284C246.024 319.21 247.439 319.148 248.525 319.101C249.521 319.06 250.072 319.052 250.074 319.088Z" fill="#455A64"/>
<path d="M271.715 318.207C271.729 318.274 270.839 318.53 269.373 318.826C267.908 319.123 265.864 319.443 263.589 319.643C261.314 319.842 259.245 319.883 257.75 319.846C256.255 319.81 255.334 319.713 255.336 319.645C255.338 319.569 256.26 319.537 257.747 319.478C259.234 319.42 261.284 319.321 263.543 319.124C265.801 318.925 267.837 318.665 269.311 318.462C270.785 318.261 271.7 318.133 271.715 318.207Z" fill="#455A64"/>
<path d="M271.088 326.25C271.078 326.317 269.897 326.221 268.003 325.938C266.109 325.656 263.506 325.17 260.668 324.472C257.829 323.771 255.299 322.99 253.491 322.359C251.683 321.729 250.592 321.264 250.615 321.201C250.64 321.129 251.773 321.47 253.603 322.009C255.433 322.548 257.968 323.269 260.792 323.967C263.616 324.662 266.195 325.203 268.066 325.576C269.937 325.95 271.099 326.174 271.088 326.25Z" fill="#455A64"/>
<path d="M266.016 172.419C266.11 172.139 263.38 167.752 263.38 167.752C263.38 167.752 269.283 161.499 272.83 161.685L276.197 166.352L266.016 172.419Z" fill="white"/>
<path d="M293.935 192.068C292.648 188.045 276.476 164.72 276.476 164.72C270.521 164.72 264.703 171.949 264.703 171.949L276.19 196.146L264.112 207.271L277.75 223.382C277.75 223.382 286.356 212.613 288.939 208.706C294.687 200.017 295.223 196.091 293.935 192.068Z" fill="#CD40FF"/>
<path opacity="0.3" d="M215.408 301.76C215.408 301.76 216.762 310.747 224.28 313.41C231.798 316.073 249.174 313.41 249.174 313.41L251.194 306.861L253.351 314.593L280.223 311.148L279.84 305.013L251.36 293.183L215.408 301.76Z" fill="black"/>
<path d="M274.017 271.812C273.448 268.627 272.719 267.017 272.575 265.097C272.146 259.372 272.181 245.628 272.572 243.867C273.084 241.563 277.751 223.381 277.751 223.381L276.157 209.299L256.313 205.956L254.923 202.762C254.923 202.762 241.683 199.334 233.307 203.829L231.858 207.25L226.685 208.549C225.908 208.86 221.854 209.984 218.786 210.821C215.37 211.752 212.503 214.108 211.01 217.319C210.548 218.313 210.078 219.48 209.617 220.85C208.251 224.91 200.371 247.351 200.018 254.184C199.605 262.172 206.692 262.457 210.991 261.439C215.17 260.45 220.061 250.74 220.061 250.74L222.778 269.674C222.778 269.674 222.206 273.675 220.887 277.275C218.248 284.479 214.446 298.407 214.446 298.407C215.931 303.051 221.314 310.411 224.13 311.436C226.947 312.46 245.803 311.633 245.803 311.633L251.357 296.875L256.486 312.388L283.239 308.215L274.017 271.812Z" fill="#CD40FF"/>
<path d="M251.358 266.348C251.434 266.47 247.584 269.015 242.759 272.033C237.933 275.051 233.96 277.398 233.883 277.276C233.807 277.154 237.656 274.609 242.483 271.591C247.308 268.574 251.282 266.226 251.358 266.348Z" fill="#263238"/>
<path d="M244.316 274.128C244.393 274.25 240.299 276.972 235.174 280.209C230.047 283.447 225.83 285.972 225.753 285.85C225.676 285.728 229.769 283.006 234.896 279.768C240.021 276.532 244.239 274.007 244.316 274.128Z" fill="#263238"/>
<path d="M265.473 252.93C265.591 252.982 264.455 255.433 262.26 257.903C260.079 260.386 257.786 261.815 257.72 261.704C257.625 261.577 259.737 259.988 261.87 257.559C264.017 255.143 265.335 252.851 265.473 252.93Z" fill="#263238"/>
<path d="M266.011 255.456C266.071 255.487 265.751 256.265 265.111 257.462C264.472 258.659 263.495 260.265 262.265 261.934C261.033 263.602 259.786 265.01 258.831 265.973C257.876 266.938 257.227 267.472 257.18 267.424C257.068 267.312 259.416 264.933 261.846 261.624C264.29 258.328 265.872 255.383 266.011 255.456Z" fill="#263238"/>
<path d="M266.628 279.989C266.556 279.964 266.854 278.953 267.321 277.32C267.789 275.687 268.41 273.426 268.997 270.904C269.582 268.381 270.02 266.077 270.319 264.405C270.619 262.733 270.798 261.695 270.873 261.704C270.94 261.712 270.891 262.767 270.683 264.461C270.476 266.154 270.092 268.484 269.504 271.023C268.914 273.56 268.232 275.82 267.672 277.432C267.112 279.043 266.692 280.012 266.628 279.989Z" fill="#263238"/>
<path d="M276.477 221.171C276.339 221.25 274.562 218.172 271.87 214.739C269.193 211.292 266.641 208.82 266.751 208.706C266.797 208.657 267.494 209.214 268.53 210.217C269.566 211.219 270.926 212.683 272.282 214.419C273.636 216.156 274.725 217.829 275.445 219.078C276.166 220.326 276.535 221.139 276.477 221.171Z" fill="#263238"/>
<path d="M280.77 214.054C280.628 214.144 279.414 211.686 276.813 209.687C274.24 207.65 271.56 207.07 271.614 206.911C271.626 206.851 272.307 206.911 273.356 207.248C274.402 207.581 275.8 208.24 277.134 209.277C278.463 210.318 279.443 211.513 280.02 212.447C280.601 213.382 280.824 214.028 280.77 214.054Z" fill="#263238"/>
<path d="M222.779 269.675C222.637 269.695 221.034 259.348 219.2 246.566C217.366 233.78 215.994 223.402 216.137 223.381C216.279 223.361 217.881 233.706 219.716 246.492C221.55 259.274 222.921 269.655 222.779 269.675Z" fill="#263238"/>
<path d="M256.594 206.031C256.586 206.11 255.191 206.012 252.937 205.926C250.684 205.839 247.569 205.796 244.135 205.966C240.7 206.139 237.605 206.492 235.371 206.803C233.137 207.113 231.759 207.349 231.743 207.271C231.736 207.236 232.072 207.135 232.687 206.984C233.302 206.829 234.199 206.641 235.313 206.439C237.541 206.033 240.652 205.62 244.109 205.446C247.565 205.276 250.701 205.377 252.958 205.559C254.087 205.649 254.998 205.747 255.625 205.84C256.253 205.929 256.597 205.995 256.594 206.031Z" fill="#263238"/>
<g opacity="0.3">
<path d="M220.165 251.456C219.1 243.455 217.642 235.454 216.577 227.453C213.688 235.333 215.284 244.618 220.165 251.456Z" fill="black"/>
</g>
<g opacity="0.3">
<path d="M275.96 195.842C277.818 194.066 280.254 192.904 282.803 192.576C284.02 192.42 285.376 192.491 286.298 193.302C286.501 193.481 286.688 193.727 286.652 193.996C286.616 194.265 286.357 194.46 286.091 194.514C285.825 194.568 285.55 194.513 285.283 194.464C282.215 193.905 278.883 194.812 275.97 195.927" fill="black"/>
</g>
<g opacity="0.3">
<path d="M232.867 207.371C235.4 208.146 238.115 207.992 240.754 207.766C245.423 207.365 250.074 206.758 254.689 205.947C247.27 204.942 239.66 205.372 232.402 207.204" fill="black"/>
</g>
<g opacity="0.3">
<path d="M231.959 282.28C242.479 279.331 252.11 273.287 259.341 265.097C251.029 270.389 240.149 276.462 231.959 282.28Z" fill="black"/>
</g>
<path d="M282.479 194.652C282.447 194.807 280.821 194.378 278.916 194.935C276.999 195.454 275.836 196.668 275.728 196.553C275.681 196.511 275.903 196.145 276.418 195.689C276.929 195.234 277.758 194.722 278.775 194.434C279.793 194.149 280.766 194.153 281.44 194.275C282.116 194.395 282.497 194.592 282.479 194.652Z" fill="#263238"/>
<path d="M184.493 183.08L175.283 183.5C172.385 186.941 168.561 189.638 164.039 191.127C151.035 195.41 137.208 188.103 133.154 174.807C129.1 161.51 136.356 147.259 149.359 142.975C162.363 138.692 176.19 145.999 180.244 159.296C181.937 164.848 181.652 170.565 179.805 175.654L179.813 175.642L184.493 183.08Z" fill="white"/>
<path d="M184.493 183.08C184.493 183.08 184.373 182.909 184.163 182.587C183.942 182.247 183.635 181.775 183.239 181.165C182.427 179.906 181.247 178.077 179.717 175.704L179.909 175.708L179.901 175.719C179.865 175.772 179.794 175.785 179.741 175.75C179.697 175.72 179.681 175.663 179.698 175.615C180.788 172.525 181.652 168.249 180.945 163.289C180.616 160.817 179.826 158.215 178.571 155.657C177.319 153.101 175.548 150.593 173.221 148.439C170.901 146.285 168.03 144.49 164.776 143.354C161.528 142.217 157.898 141.742 154.235 142.157C150.58 142.602 146.917 143.906 143.674 146.035C142.028 147.068 140.566 148.394 139.173 149.8C137.872 151.29 136.604 152.858 135.653 154.644C134.626 156.365 133.932 158.236 133.319 160.1C132.828 161.999 132.426 163.914 132.357 165.839C132.139 169.679 132.799 173.469 134.158 176.859C136.858 183.706 142.523 188.599 148.429 190.697C154.38 192.866 160.438 192.35 165.057 190.576C169.734 188.808 173.047 185.941 175.192 183.425C175.213 183.399 175.246 183.385 175.277 183.383C178.239 183.28 180.521 183.201 182.092 183.147C182.856 183.123 183.446 183.105 183.871 183.092C184.274 183.079 184.493 183.08 184.493 183.08C184.493 183.08 184.311 183.099 183.925 183.123C183.51 183.148 182.932 183.183 182.184 183.228C180.595 183.318 178.285 183.448 175.288 183.617L175.373 183.575C173.241 186.141 169.916 189.076 165.183 190.903C160.512 192.735 154.35 193.298 148.28 191.112C145.263 190.035 142.314 188.293 139.767 185.909C137.223 183.531 135.069 180.514 133.695 177.046C132.302 173.592 131.623 169.728 131.843 165.809C131.913 163.845 132.32 161.891 132.821 159.954C133.444 158.052 134.153 156.144 135.2 154.388C136.171 152.567 137.464 150.966 138.794 149.446C140.215 148.01 141.71 146.658 143.391 145.604C146.704 143.433 150.445 142.107 154.178 141.66C157.919 141.243 161.625 141.737 164.933 142.906C168.249 144.073 171.168 145.913 173.521 148.116C175.881 150.319 177.671 152.878 178.929 155.482C180.191 158.088 180.975 160.732 181.29 163.24C181.971 168.273 181.054 172.59 179.914 175.692L179.711 175.588L179.719 175.576C179.754 175.524 179.825 175.51 179.878 175.545C179.891 175.554 179.904 175.568 179.912 175.58C181.409 178.019 182.562 179.898 183.356 181.192C183.727 181.801 184.013 182.272 184.219 182.611C184.41 182.927 184.493 183.08 184.493 183.08Z" fill="#263238"/>
<path d="M148.885 163.019L156.221 153.711L163.557 162.904L148.885 163.019Z" fill="#CD40FF"/>
<path d="M159.836 180.041L153.154 180.094L152.941 161.512L159.623 161.46L159.836 180.041Z" fill="#CD40FF"/>
</svg>
