<svg width="737" height="594" viewBox="0 0 737 594" fill="none" xmlns="http://www.w3.org/2000/svg">
<path d="M735.708 293.506C727.875 374.739 679.884 457.617 598.12 481.771C528.577 503.07 454.163 489.947 383.721 506.333C278.464 531.719 141.429 600.913 53.0276 503.64C-11.4995 421.857 26.5807 283.119 75.3031 199.679C233.776 -55.9606 763.643 -107.465 735.708 293.506Z" fill="#E0ADF2"/>
<path d="M189.476 582.798C195.976 560.325 198.261 540.309 197.464 522.526C193.125 424.907 96.212 394.534 96.212 394.534C96.212 394.534 80.4303 438.149 93.3547 485.757C103.04 521.422 128.841 559.328 189.476 582.798Z" fill="white"/>
<path d="M105.991 412.084L188.977 579.602C189.348 580.352 188.121 580.792 187.752 580.047L104.765 412.529C104.393 411.78 105.621 411.338 105.991 412.084Z" fill="#9C0FCD"/>
<path d="M140.025 483.248L150.808 451.905C151.979 448.472 153.149 445.04 154.321 441.606C154.592 440.812 155.777 441.356 155.508 442.144L143.081 478.574C141.911 482.006 142.384 480.352 141.213 483.784C140.941 484.58 139.757 484.034 140.025 483.248Z" fill="#9C0FCD"/>
<path d="M164.367 532.382L175.149 501.04C176.32 497.608 177.491 494.174 178.661 490.741C178.933 489.946 180.117 490.49 179.849 491.278L167.423 527.709C166.252 531.142 166.725 529.486 165.555 532.919C165.283 533.714 164.099 533.169 164.367 532.382Z" fill="#9C0FCD"/>
<path d="M122.501 519.688L153.968 530.101C157.408 531.249 160.849 532.397 164.289 533.547C165.087 533.812 165.371 532.539 164.581 532.276L128.071 520.088C124.629 518.94 126.233 519.567 122.793 518.419C121.996 518.152 121.712 519.425 122.501 519.688Z" fill="#9C0FCD"/>
<path d="M97.56 469.342L129.027 479.755C132.468 480.904 135.908 482.052 139.349 483.2C140.145 483.466 140.429 482.193 139.641 481.93L103.129 469.742C99.6893 468.594 101.293 469.221 97.852 468.073C97.056 467.807 96.7707 469.08 97.56 469.342Z" fill="#9C0FCD"/>
<path d="M190.349 582.925C181.644 561.21 171.129 544.026 159.559 530.498C96.0707 456.219 0.988007 491.911 0.988007 491.911C0.988007 491.911 15.3849 536.002 54.8672 565.576C84.448 587.731 128.111 601.734 190.349 582.925Z" fill="#9C0FCD"/>
<path d="M19.4943 499.727L187.989 580.711C188.743 581.074 188.047 582.176 187.297 581.816L18.8021 500.833C18.0479 500.47 18.7443 499.367 19.4943 499.727Z" fill="white"/>
<path d="M90.112 534.88L79.326 503.539C78.1364 500.112 76.9473 496.686 75.7579 493.259C75.4823 492.466 76.7516 492.166 77.0245 492.952L89.6453 529.315C90.8347 532.742 90.1893 531.145 91.3787 534.573C91.6547 535.366 90.3853 535.666 90.112 534.88Z" fill="white"/>
<path d="M139.535 558.635L128.748 527.293C127.559 523.866 126.369 520.44 125.18 517.013C124.904 516.22 126.173 515.921 126.445 516.707L139.068 553.071C140.257 556.497 139.611 554.9 140.8 558.326C141.076 559.12 139.807 559.42 139.535 558.635Z" fill="white"/>
<path d="M98.7213 574.388L129.933 563.234C133.352 562.022 136.771 560.81 140.189 559.598C140.981 559.318 140.421 558.139 139.637 558.418L103.359 571.276C99.9387 572.488 101.589 571.996 98.1707 573.207C97.3787 573.488 97.9373 574.667 98.7213 574.388Z" fill="white"/>
<path d="M48.0823 550.05L79.2937 538.896C82.7125 537.684 86.1307 536.472 89.5507 535.26C90.3413 534.98 89.7827 533.802 88.9987 534.079L52.7188 546.938C49.3 548.15 50.95 547.657 47.5312 548.869C46.7396 549.15 47.2984 550.329 48.0823 550.05Z" fill="white"/>
<path d="M404.296 592.958H177.317C164.219 592.958 153.485 582.562 153.065 569.471L138.192 105.542C137.752 91.8433 148.737 80.4992 162.443 80.4992H389.423C402.52 80.4992 413.253 90.8952 413.673 103.986L428.548 567.916C428.987 581.614 418.001 592.958 404.296 592.958Z" fill="#C340F1"/>
<path d="M193.747 593.625C180.208 593.625 169.263 583.025 168.829 569.492L153.956 105.564C153.736 98.7556 156.225 92.3129 160.964 87.4209C165.703 82.5276 172.063 79.8329 178.873 79.8329C179.241 79.8329 179.54 80.1316 179.54 80.4996C179.54 80.8689 179.241 81.1662 178.873 81.1662C172.427 81.1662 166.407 83.7169 161.921 88.3476C157.437 92.9782 155.081 99.0782 155.288 105.521L170.163 569.45C170.572 582.257 180.932 592.292 193.747 592.292C194.116 592.292 194.413 592.589 194.413 592.958C194.413 593.326 194.116 593.625 193.747 593.625Z" fill="#181D20"/>
<path d="M427.921 546.206H186.761L172.925 116.399H414.085L427.921 546.206Z" fill="white"/>
<path d="M258.129 557.4C252.232 557.4 247.435 562.196 247.435 568.094C247.435 573.991 252.232 578.79 258.129 578.79H359.412C365.309 578.79 370.107 573.991 370.107 568.094C370.107 562.196 365.309 557.4 359.412 557.4H258.129ZM359.412 580.123H258.129C251.497 580.123 246.101 574.727 246.101 568.094C246.101 561.463 251.497 556.067 258.129 556.067H359.412C366.044 556.067 371.44 561.463 371.44 568.094C371.44 574.727 366.044 580.123 359.412 580.123Z" fill="#181D20"/>
<path d="M229.219 101.532C227.936 101.532 226.893 102.576 226.893 103.857C226.893 105.139 227.936 106.181 229.219 106.181H367.795C369.076 106.181 370.12 105.139 370.12 103.857C370.12 102.576 369.076 101.532 367.795 101.532H229.219ZM367.795 107.515H229.219C227.201 107.515 225.56 105.875 225.56 103.857C225.56 101.84 227.201 100.199 229.219 100.199H367.795C369.812 100.199 371.453 101.84 371.453 103.857C371.453 105.875 369.812 107.515 367.795 107.515Z" fill="#181D20"/>
<path d="M151.78 316.779C151.423 316.779 151.125 316.494 151.115 316.134L145.784 149.859C145.772 149.491 146.061 149.183 146.429 149.171C146.776 149.134 147.105 149.447 147.116 149.817L152.447 316.091C152.459 316.459 152.171 316.767 151.803 316.779C151.795 316.779 151.788 316.779 151.78 316.779Z" fill="#181D20"/>
<path d="M444.204 329.421H216.953C208.153 329.421 200.953 322.221 200.953 313.421V262.87C200.953 254.07 208.153 246.87 216.953 246.87H444.204C453.004 246.87 460.204 254.07 460.204 262.87V313.421C460.204 322.221 453.004 329.421 444.204 329.421Z" fill="#9C0FCD"/>
<path d="M285.272 288.277C285.272 289.51 284.272 290.511 283.039 290.511H277.417C276.925 298.063 274.004 303.559 270.581 307.465C274.28 310.485 277.765 311.638 277.828 311.655C278.999 312.022 279.66 313.282 279.285 314.453C278.991 315.409 278.105 316.017 277.159 316.017C276.935 316.017 276.712 315.981 276.488 315.918C276.175 315.819 271.823 314.417 267.337 310.627C262.779 314.462 258.383 315.882 258.284 315.918C258.061 315.981 257.837 316.017 257.613 316.017C256.667 316.017 255.781 315.409 255.487 314.453C255.112 313.273 255.773 312.022 256.944 311.655C257.248 311.557 260.608 310.439 264.191 307.545C261.975 305.015 259.973 301.807 258.695 297.767C258.32 296.589 258.972 295.337 260.143 294.962C260.367 294.89 260.599 294.854 260.823 294.854C261.769 294.854 262.645 295.462 262.949 296.418C263.985 299.681 265.612 302.307 267.417 304.407C270.152 301.182 272.484 296.678 272.94 290.511H253.637C252.404 290.511 251.403 289.51 251.403 288.277C251.403 287.043 252.404 286.043 253.637 286.043H264.907V281.155C264.907 279.922 265.907 278.921 267.14 278.921C268.373 278.921 269.375 279.922 269.375 281.155V286.043H283.039C284.272 286.043 285.272 287.043 285.272 288.277Z" fill="white"/>
<path d="M220.535 283.832L224.288 274.244L228.015 283.832H220.535ZM237.308 295.423L233.332 285.191L226.379 267.291C226.048 266.433 225.217 265.869 224.305 265.861C224.297 265.861 224.297 265.861 224.297 265.861C223.376 265.861 222.555 266.424 222.215 267.281L215.208 285.2C215.173 285.263 215.155 285.333 215.128 285.405L211.205 295.423C210.759 296.567 211.321 297.863 212.473 298.319C213.617 298.765 214.913 298.203 215.369 297.049L218.792 288.3H229.748L233.144 297.04C233.493 297.925 234.333 298.471 235.227 298.471C235.495 298.471 235.772 298.425 236.04 298.319C237.192 297.872 237.756 296.576 237.308 295.423Z" fill="white"/>
<path d="M250.463 314.32C250.464 314.469 250.449 314.616 250.42 314.757C250.412 314.798 250.404 314.84 250.396 314.881C250.38 314.93 250.367 314.98 250.351 315.033C250.333 315.078 250.321 315.124 250.301 315.165C250.219 315.376 250.103 315.574 249.959 315.756C249.933 315.789 249.904 315.822 249.872 315.854C249.731 316.012 249.561 316.152 249.372 316.268C249.323 316.297 249.273 316.326 249.223 316.35L239.164 321.517C238.833 321.685 238.479 321.764 238.132 321.764C237.305 321.764 236.509 321.314 236.108 320.533C235.535 319.414 235.976 318.048 237.091 317.474L240.741 315.598C232.569 313.361 225.715 307.505 222.3 299.437C221.812 298.285 222.353 296.95 223.509 296.464C224.661 295.972 225.996 296.513 226.487 297.669C229.617 305.073 236.208 310.256 243.917 311.668L241.927 308.389C241.275 307.316 241.617 305.92 242.691 305.268C243.76 304.618 245.16 304.957 245.808 306.032L250.083 313.072L250.132 313.15C250.16 313.196 250.185 313.241 250.211 313.29C250.26 313.385 250.301 313.481 250.333 313.58C250.351 313.629 250.367 313.678 250.38 313.729C250.388 313.749 250.396 313.774 250.4 313.794C250.408 313.824 250.412 313.848 250.416 313.877C250.448 314.022 250.463 314.172 250.463 314.32Z" fill="white"/>
<path d="M272.628 278.777C272.323 278.921 272.001 278.987 271.683 278.987C270.824 278.987 270.003 278.495 269.619 277.661C265.791 269.307 257.379 263.91 248.191 263.91C245.144 263.91 242.179 264.485 239.412 265.599L244.999 267.011C246.213 267.321 246.952 268.555 246.643 269.77C246.383 270.798 245.461 271.487 244.445 271.487C244.26 271.487 244.073 271.463 243.884 271.418L232.768 268.61L232.701 268.593C232.693 268.593 232.689 268.589 232.681 268.585C232.632 268.577 232.585 268.561 232.536 268.543C232.297 268.465 232.083 268.35 231.888 268.201C231.851 268.171 231.813 268.139 231.776 268.11C231.74 268.077 231.707 268.049 231.673 268.015C231.571 267.915 231.479 267.809 231.401 267.693C231.376 267.655 231.347 267.614 231.327 267.577C231.195 267.367 231.099 267.139 231.045 266.895C231.033 266.854 231.025 266.809 231.021 266.767C231.008 266.71 231 266.653 230.996 266.594C230.992 266.525 230.988 266.454 230.988 266.383C230.988 266.318 230.992 266.251 230.996 266.186C231 266.161 231 266.141 231.004 266.115C231.012 266.05 231.025 265.983 231.037 265.917C231.045 265.889 231.049 265.863 231.059 265.835L233.499 254.722C233.771 253.497 234.981 252.723 236.208 252.993C237.429 253.261 238.207 254.47 237.937 255.697L236.579 261.87C240.2 260.223 244.136 259.369 248.191 259.369C259.151 259.369 269.18 265.806 273.748 275.766C274.272 276.906 273.768 278.255 272.628 278.777Z" fill="white"/>
<path d="M387.224 276.02H299.001C297.264 276.02 295.841 274.598 295.841 272.86C295.841 271.121 297.264 269.7 299.001 269.7H387.224C388.963 269.7 390.384 271.121 390.384 272.86C390.384 274.598 388.963 276.02 387.224 276.02Z" fill="white"/>
<path d="M442.125 290.998H299.001C297.264 290.998 295.841 289.577 295.841 287.838C295.841 286.101 297.264 284.678 299.001 284.678H442.125C443.863 284.678 445.285 286.101 445.285 287.838C445.285 289.577 443.863 290.998 442.125 290.998Z" fill="white"/>
<path d="M442.125 306.592H299.001C297.264 306.592 295.841 305.169 295.841 303.432C295.841 301.693 297.264 300.272 299.001 300.272H442.125C443.863 300.272 445.285 301.693 445.285 303.432C445.285 305.169 443.863 306.592 442.125 306.592Z" fill="white"/>
<path d="M208.739 247.537C200.284 247.537 193.405 254.415 193.405 262.87V313.419C193.405 321.874 200.284 328.753 208.739 328.753H435.988C444.443 328.753 451.321 321.874 451.321 313.419V262.87C451.321 254.415 444.443 247.537 435.988 247.537H208.739ZM435.988 330.086H208.739C199.548 330.086 192.072 322.61 192.072 313.419V262.87C192.072 253.681 199.548 246.203 208.739 246.203H435.988C445.179 246.203 452.655 253.681 452.655 262.87V313.419C452.655 322.61 445.179 330.086 435.988 330.086Z" fill="#181D20"/>
<path d="M469.273 428.104H242.023C233.223 428.104 226.023 420.904 226.023 412.104V361.553C226.023 352.753 233.223 345.553 242.023 345.553H469.273C478.073 345.553 485.273 352.753 485.273 361.553V412.104C485.273 420.904 478.073 428.104 469.273 428.104Z" fill="#C340F1"/>
<path d="M412.293 374.702H324.071C322.332 374.702 320.911 373.279 320.911 371.542C320.911 369.803 322.332 368.382 324.071 368.382H412.293C414.031 368.382 415.453 369.803 415.453 371.542C415.453 373.279 414.031 374.702 412.293 374.702Z" fill="white"/>
<path d="M467.193 389.681H324.071C322.332 389.681 320.911 388.259 320.911 386.521C320.911 384.783 322.332 383.361 324.071 383.361H467.193C468.932 383.361 470.353 384.783 470.353 386.521C470.353 388.259 468.932 389.681 467.193 389.681Z" fill="white"/>
<path d="M467.193 405.274H324.071C322.332 405.274 320.911 403.852 320.911 402.114C320.911 400.376 322.332 398.954 324.071 398.954H467.193C468.932 398.954 470.353 400.376 470.353 402.114C470.353 403.852 468.932 405.274 467.193 405.274Z" fill="white"/>
<path d="M262.417 401.849C262.499 402.555 262.293 403.254 261.849 403.813C261.34 404.453 260.576 404.823 259.755 404.823C259.156 404.823 258.564 404.618 258.088 404.239L238.396 388.507C237.764 387.998 237.393 387.234 237.393 386.421C237.393 385.599 237.764 384.835 238.396 384.326L257.833 368.809C258.392 368.357 259.089 368.159 259.804 368.233C260.511 368.315 261.152 368.669 261.595 369.227C262.039 369.786 262.244 370.485 262.163 371.19C262.088 371.906 261.735 372.538 261.176 372.99L244.36 386.421L261.431 400.058C261.989 400.502 262.343 401.134 262.417 401.849Z" fill="white"/>
<path d="M312.265 386.421C312.265 387.234 311.904 387.998 311.263 388.507L291.572 404.239C291.104 404.618 290.512 404.823 289.904 404.823C289.083 404.823 288.327 404.453 287.809 403.813C287.365 403.254 287.16 402.555 287.243 401.849C287.325 401.134 287.677 400.502 288.236 400.058L305.299 386.421L288.483 372.99C287.924 372.538 287.58 371.906 287.497 371.19C287.415 370.485 287.62 369.786 288.064 369.227C288.984 368.069 290.676 367.879 291.827 368.809L311.263 384.326C311.904 384.835 312.265 385.599 312.265 386.421Z" fill="white"/>
<path d="M283.833 365.465C284.171 366.097 284.236 366.821 284.023 367.502L271.84 407.116C271.536 408.101 270.673 408.841 269.645 408.98C269.523 408.997 269.4 409.005 269.284 409.005C269.013 409.005 268.751 408.964 268.496 408.881C267.083 408.446 266.287 406.95 266.721 405.538L278.904 365.933C279.117 365.244 279.577 364.685 280.211 364.348C280.843 364.02 281.575 363.945 282.256 364.158C282.937 364.373 283.496 364.833 283.833 365.465Z" fill="white"/>
<path d="M233.807 346.219C225.352 346.219 218.473 353.098 218.473 361.553V412.102C218.473 420.557 225.352 427.435 233.807 427.435H461.057C469.512 427.435 476.391 420.557 476.391 412.102V361.553C476.391 353.098 469.512 346.219 461.057 346.219H233.807ZM461.057 428.769H233.807C224.617 428.769 217.14 421.293 217.14 412.102V361.553C217.14 352.362 224.617 344.886 233.807 344.886H461.057C470.248 344.886 477.724 352.362 477.724 361.553V412.102C477.724 421.293 470.248 428.769 461.057 428.769Z" fill="#181D20"/>
<path d="M504.011 521.707H276.759C267.959 521.707 260.759 514.507 260.759 505.707V455.158C260.759 446.358 267.959 439.158 276.759 439.158H504.011C512.809 439.158 520.011 446.358 520.011 455.158V505.707C520.011 514.507 512.809 521.707 504.011 521.707Z" fill="#9C0FCD"/>
<path d="M447.031 468.308H358.808C357.069 468.308 355.648 466.885 355.648 465.148C355.648 463.409 357.069 461.988 358.808 461.988H447.031C448.768 461.988 450.191 463.409 450.191 465.148C450.191 466.885 448.768 468.308 447.031 468.308Z" fill="white"/>
<path d="M501.931 483.286H358.808C357.069 483.286 355.648 481.865 355.648 480.126C355.648 478.389 357.069 476.966 358.808 476.966H501.931C503.669 476.966 505.091 478.389 505.091 480.126C505.091 481.865 503.669 483.286 501.931 483.286Z" fill="white"/>
<path d="M501.931 498.88H358.808C357.069 498.88 355.648 497.457 355.648 495.72C355.648 493.981 357.069 492.56 358.808 492.56H501.931C503.669 492.56 505.091 493.981 505.091 495.72C505.091 497.457 503.669 498.88 501.931 498.88Z" fill="white"/>
<path d="M284.331 499.754C285.997 501.419 287.909 502.875 290.036 504.098C292.129 505.306 294.353 506.228 296.673 506.857L297.108 504.399C297.219 503.776 297.572 503.225 298.091 502.863C298.609 502.502 299.249 502.362 299.871 502.473C302.513 502.946 305.256 502.946 307.899 502.473C308.52 502.361 309.16 502.502 309.679 502.862C310.196 503.223 310.549 503.775 310.661 504.397L311.1 506.855C315.744 505.588 320.072 503.095 323.44 499.749L321.515 498.118C320.512 497.269 320.387 495.769 321.236 494.765C322.992 492.69 324.34 490.357 325.245 487.83C325.459 487.234 325.9 486.749 326.472 486.479C327.044 486.21 327.7 486.179 328.295 486.394L330.643 487.243C331.259 484.931 331.577 482.547 331.592 480.126C331.577 477.706 331.257 475.32 330.643 473.01L328.295 473.858C327.699 474.072 327.044 474.043 326.472 473.773C325.9 473.503 325.459 473.018 325.245 472.422C324.341 469.899 322.992 467.563 321.233 465.478C320.387 464.473 320.513 462.972 321.516 462.126L323.439 460.502C320.068 457.15 315.741 454.658 311.1 453.395L310.661 455.855C310.549 456.478 310.196 457.03 309.679 457.39C309.16 457.751 308.52 457.891 307.899 457.781C305.252 457.306 302.508 457.307 299.88 457.779C299.259 457.891 298.617 457.751 298.099 457.391C297.58 457.03 297.227 456.478 297.116 455.857L296.676 453.394C294.357 454.02 292.133 454.943 290.037 456.147C287.909 457.375 285.997 458.834 284.332 460.497L286.26 462.126C286.743 462.532 287.043 463.115 287.096 463.745C287.148 464.374 286.948 464.999 286.54 465.481C284.78 467.561 283.429 469.895 282.524 472.422C282.311 473.018 281.869 473.505 281.297 473.774C280.724 474.042 280.069 474.072 279.473 473.858L277.131 473.01C276.516 475.312 276.196 477.703 276.177 480.144C276.196 482.558 276.516 484.942 277.131 487.243L279.473 486.394C280.069 486.179 280.724 486.21 281.297 486.479C281.869 486.749 282.311 487.234 282.524 487.83C283.431 490.361 284.781 492.693 286.537 494.762C286.947 495.243 287.148 495.867 287.096 496.497C287.044 497.127 286.744 497.71 286.261 498.118L284.331 499.754ZM298.581 512.103C298.44 512.103 298.299 512.091 298.157 512.066C294.451 511.395 290.92 510.102 287.661 508.222C284.333 506.31 281.444 503.897 279.08 501.053C278.244 500.049 278.375 498.559 279.372 497.715L281.447 495.959C280.479 494.598 279.644 493.157 278.948 491.647L276.416 492.563C275.823 492.778 275.168 492.749 274.596 492.481C274.024 492.213 273.583 491.729 273.368 491.135C272.104 487.639 271.447 483.942 271.417 480.144C271.447 476.31 272.104 472.613 273.368 469.118C273.583 468.525 274.024 468.041 274.596 467.773C275.168 467.505 275.823 467.475 276.416 467.69L278.948 468.606C279.644 467.097 280.479 465.655 281.447 464.29L279.373 462.539C278.375 461.695 278.244 460.205 279.08 459.199C281.439 456.362 284.327 453.947 287.661 452.023C290.928 450.146 294.459 448.855 298.157 448.186C298.78 448.074 299.42 448.214 299.94 448.574C300.459 448.935 300.812 449.487 300.924 450.11L301.4 452.776C303.053 452.626 304.719 452.626 306.376 452.776L306.852 450.11C306.963 449.488 307.317 448.936 307.835 448.575C308.352 448.214 308.993 448.074 309.615 448.186C316.992 449.507 323.945 453.519 328.692 459.194C329.532 460.198 329.404 461.693 328.403 462.538L326.328 464.292C327.293 465.658 328.127 467.099 328.823 468.607L331.361 467.689C331.956 467.475 332.611 467.505 333.183 467.774C333.755 468.042 334.196 468.527 334.409 469.122C335.676 472.643 336.329 476.342 336.352 480.113C336.352 480.122 336.352 480.131 336.352 480.141C336.329 483.911 335.676 487.609 334.409 491.131C334.196 491.726 333.755 492.21 333.183 492.479C332.611 492.749 331.955 492.778 331.361 492.563L328.823 491.646C328.127 493.154 327.293 494.594 326.328 495.957L328.405 497.715C329.404 498.561 329.532 500.055 328.692 501.058C323.883 506.807 317.108 510.716 309.617 512.066C308.993 512.178 308.355 512.038 307.836 511.678C307.317 511.316 306.963 510.764 306.852 510.142L306.376 507.475C304.72 507.627 303.053 507.626 301.397 507.476L300.924 510.139C300.813 510.763 300.46 511.315 299.94 511.678C299.539 511.957 299.064 512.103 298.581 512.103Z" fill="white"/>
<path d="M303.884 471.161C298.941 471.161 294.92 475.183 294.92 480.127C294.92 485.069 298.941 489.091 303.884 489.091C308.828 489.091 312.849 485.069 312.849 480.127C312.849 475.183 308.828 471.161 303.884 471.161ZM303.884 493.851C296.317 493.851 290.161 487.693 290.161 480.127C290.161 472.559 296.317 466.401 303.884 466.401C311.452 466.401 317.608 472.559 317.608 480.127C317.608 487.693 311.452 493.851 303.884 493.851Z" fill="white"/>
<path d="M268.544 439.825C260.089 439.825 253.211 446.703 253.211 455.158V505.707C253.211 514.162 260.089 521.041 268.544 521.041H495.795C504.249 521.041 511.128 514.162 511.128 505.707V455.158C511.128 446.703 504.249 439.825 495.795 439.825H268.544ZM495.795 522.374H268.544C259.355 522.374 251.877 514.898 251.877 505.707V455.158C251.877 445.969 259.355 438.491 268.544 438.491H495.795C504.984 438.491 512.461 445.969 512.461 455.158V505.707C512.461 514.898 504.984 522.374 495.795 522.374Z" fill="#181D20"/>
<path d="M389.4 115.635C389.4 171.738 343.92 217.218 287.817 217.218C231.713 217.218 186.233 171.738 186.233 115.635C186.233 59.5325 231.713 14.0512 287.817 14.0512C343.92 14.0512 389.4 59.5325 389.4 115.635Z" fill="#9C0FCD"/>
<path d="M287.817 9.95271C229.543 9.95271 182.135 57.3621 182.135 115.635C182.135 173.909 229.543 221.318 287.817 221.318C346.091 221.318 393.499 173.909 393.499 115.635C393.499 57.3621 346.091 9.95271 287.817 9.95271ZM287.817 222.651C228.808 222.651 180.801 174.643 180.801 115.635C180.801 56.6274 228.808 8.61938 287.817 8.61938C346.825 8.61938 394.832 56.6274 394.832 115.635C394.832 174.643 346.825 222.651 287.817 222.651Z" fill="#181D20"/>
<mask id="mask0_200_940" style="mask-type:luminance" maskUnits="userSpaceOnUse" x="186" y="14" width="234" height="204">
<path d="M419.379 75.8387V126.101H388.864C383.631 177.293 340.385 217.223 287.821 217.223C231.711 217.223 186.232 171.743 186.232 115.632C186.232 59.532 231.711 14.052 287.821 14.052C329.801 14.052 365.828 39.5147 381.301 75.8387H419.379Z" fill="white"/>
</mask>
<g mask="url(#mask0_200_940)">
<path d="M388.188 240.156C382.971 240.156 378.437 236.286 377.744 230.974C368.644 161.203 338.584 152.26 338.281 152.179C338.449 152.224 338.54 152.239 338.54 152.239L342.989 131.623C344.284 131.903 355.997 134.762 368.489 148.908C383.92 166.384 394.071 193.078 398.657 228.246C399.411 234.022 395.34 239.314 389.565 240.067C389.103 240.127 388.643 240.156 388.188 240.156Z" fill="#181D20"/>
<path d="M316.233 234.14H267.209V198.162H316.233V234.14Z" fill="#181D20"/>
<path d="M352.043 77.3056C352.043 80.6896 351.793 84.0257 351.295 87.2657C349.348 100.103 338.363 109.612 325.381 109.612H250.232C237.577 109.612 226.535 100.6 224.473 88.1096C223.888 84.5909 223.591 80.987 223.591 77.3056C223.591 41.403 252.351 21.847 287.821 21.847C292.203 21.847 296.479 22.1443 300.611 22.739C329.945 26.9283 352.043 45.8323 352.043 77.3056Z" fill="white"/>
<path d="M352.043 77.3056C352.043 80.6896 351.793 84.0257 351.295 87.2657C349.348 100.103 338.363 109.612 325.381 109.612H275.819C263.165 109.612 252.121 100.6 250.06 88.1096C249.475 84.5909 249.177 80.987 249.177 77.3056C249.177 45.8416 271.265 26.9283 300.611 22.739C329.945 26.9283 352.043 45.8323 352.043 77.3056Z" fill="#181D20"/>
<path d="M231.473 59.5584C225.081 59.5584 219.88 64.7584 219.88 71.1504V85.5424C219.88 91.9344 225.081 97.1344 231.473 97.1344C237.865 97.1344 243.065 91.9344 243.065 85.5424V71.1504C243.065 64.7584 237.865 59.5584 231.473 59.5584ZM231.473 98.4678C224.345 98.4678 218.547 92.6691 218.547 85.5424V71.1504C218.547 64.0238 224.345 58.2251 231.473 58.2251C238.6 58.2251 244.399 64.0238 244.399 71.1504V85.5424C244.399 92.6691 238.6 98.4678 231.473 98.4678Z" fill="#181D20"/>
<path d="M303.72 71.4184C303.72 77.6984 298.908 82.7891 292.972 82.7891C287.035 82.7891 282.223 77.6984 282.223 71.4184C282.223 65.1384 287.035 60.0477 292.972 60.0477C298.908 60.0477 303.72 65.1384 303.72 71.4184Z" fill="#C340F1"/>
<path d="M346.716 71.4184C346.716 77.6984 341.904 82.7891 335.967 82.7891C330.031 82.7891 325.219 77.6984 325.219 71.4184C325.219 65.1384 330.031 60.0477 335.967 60.0477C341.904 60.0477 346.716 65.1384 346.716 71.4184Z" fill="#C340F1"/>
<path d="M277.204 119.411H304.652V111.861H277.204V119.411ZM305.319 120.744H276.537C276.169 120.744 275.871 120.445 275.871 120.077V111.195C275.871 110.825 276.169 110.528 276.537 110.528H305.319C305.688 110.528 305.985 110.825 305.985 111.195V120.077C305.985 120.445 305.688 120.744 305.319 120.744Z" fill="#181D20"/>
<path d="M225.925 155.257C225.925 151.873 226.175 148.537 226.673 145.297C228.62 132.46 239.605 122.95 252.585 122.95H327.736C340.389 122.95 351.433 131.961 353.495 144.453C354.08 147.972 354.377 151.576 354.377 155.257C354.377 191.158 325.617 210.716 290.147 210.716C285.765 210.716 281.489 210.418 277.357 209.824C248.023 205.634 225.925 186.73 225.925 155.257Z" fill="white"/>
<path d="M347.959 148.208C347.959 153.327 345.868 157.987 342.484 161.362C339.109 164.735 334.46 166.835 329.332 166.835H278.111C267.863 166.835 259.484 158.447 259.484 148.208C259.484 143.088 261.583 138.43 264.957 135.055C268.332 131.68 272.991 129.582 278.111 129.582H329.332C339.58 129.582 347.959 137.96 347.959 148.208Z" fill="#C340F1"/>
<path d="M264.755 203.992C264.615 203.992 264.472 203.947 264.352 203.856C258.213 199.199 255.081 192.407 253.536 187.527C251.508 181.134 250.943 174.43 250.635 168.139C249.949 154.131 250.473 139.97 252.195 126.046C252.24 125.682 252.573 125.422 252.939 125.467C253.304 125.511 253.564 125.844 253.517 126.21C251.807 140.058 251.284 154.142 251.967 168.074C252.271 174.275 252.824 180.875 254.807 187.126C256.293 191.819 259.297 198.348 265.157 202.794C265.451 203.016 265.509 203.435 265.287 203.728C265.155 203.9 264.956 203.992 264.755 203.992Z" fill="#181D20"/>
<path d="M234.281 129.125C227.912 129.125 222.731 134.307 222.731 140.676V159.051C222.731 165.419 227.912 170.601 234.281 170.601C240.651 170.601 245.832 165.419 245.832 159.051V140.676C245.832 134.307 240.651 129.125 234.281 129.125ZM234.281 171.935C227.177 171.935 221.397 166.155 221.397 159.051V140.676C221.397 133.572 227.177 127.792 234.281 127.792C241.385 127.792 247.165 133.572 247.165 140.676V159.051C247.165 166.155 241.385 171.935 234.281 171.935Z" fill="#181D20"/>
<path d="M316.745 80.5243H307.943C307.943 80.5243 307.004 88.875 316.292 88.875C325.581 88.875 324.513 80.5243 324.513 80.5243H316.745Z" fill="white"/>
<path d="M193.681 243.529C198.899 243.529 203.432 239.659 204.125 234.347C210.699 183.949 228.209 165.289 237.54 158.781C241.077 156.313 242.765 151.955 241.803 147.751C240.148 140.528 231.727 137.14 225.615 141.327C221.891 143.877 217.681 147.411 213.38 152.281C197.995 169.705 187.859 196.292 183.252 231.307C182.56 236.572 185.729 241.736 190.849 243.145C191.805 243.408 192.753 243.528 193.681 243.529Z" fill="#181D20"/>
<path d="M231.921 80.9385C231.553 80.9385 231.255 80.6398 231.255 80.2718V42.5905C231.255 42.2225 231.553 41.9238 231.921 41.9238C232.291 41.9238 232.588 42.2225 232.588 42.5905V80.2718C232.588 80.6398 232.291 80.9385 231.921 80.9385Z" fill="#181D20"/>
<path d="M237.631 79.6438C237.631 84.2798 235.077 88.0371 231.929 88.0371C228.78 88.0371 226.227 84.2798 226.227 79.6438C226.227 75.0091 228.78 71.2518 231.929 71.2518C235.077 71.2518 237.631 75.0091 237.631 79.6438Z" fill="#C340F1"/>
<path d="M237.916 42.9442C237.916 46.4762 235.052 49.3389 231.521 49.3389C227.989 49.3389 225.127 46.4762 225.127 42.9442C225.127 39.4122 227.989 36.5495 231.521 36.5495C235.052 36.5495 237.916 39.4122 237.916 42.9442Z" fill="#181D20"/>
<path d="M302.819 165.371C301.588 165.371 300.58 164.363 300.58 163.131V134.183C300.58 132.951 301.588 131.944 302.819 131.944C304.051 131.944 305.059 132.951 305.059 134.183V163.131C305.059 164.363 304.051 165.371 302.819 165.371Z" fill="white"/>
<path d="M295.959 157.351C294.727 157.351 293.719 156.343 293.719 155.112V142.203C293.719 140.971 294.727 139.963 295.959 139.963C297.191 139.963 298.197 140.971 298.197 142.203V155.112C298.197 156.343 297.191 157.351 295.959 157.351Z" fill="white"/>
<path d="M283.135 158.993C281.903 158.993 280.896 157.985 280.896 156.753V140.56C280.896 139.328 281.903 138.321 283.135 138.321C284.367 138.321 285.375 139.328 285.375 140.56V156.753C285.375 157.985 284.367 158.993 283.135 158.993Z" fill="white"/>
<path d="M289.329 154.321C288.097 154.321 287.091 153.313 287.091 152.081V145.232C287.091 144 288.097 142.992 289.329 142.992C290.561 142.992 291.569 144 291.569 145.232V152.081C291.569 153.313 290.561 154.321 289.329 154.321Z" fill="white"/>
<path d="M276.752 154.321C275.52 154.321 274.512 153.313 274.512 152.081V145.232C274.512 144 275.52 142.992 276.752 142.992C277.983 142.992 278.991 144 278.991 145.232V152.081C278.991 153.313 277.983 154.321 276.752 154.321Z" fill="white"/>
<path d="M309.652 139.963C310.884 139.963 311.892 140.971 311.892 142.203V155.112C311.892 156.343 310.884 157.351 309.652 157.351C308.42 157.351 307.413 156.343 307.413 155.112V142.203C307.413 140.971 308.42 139.963 309.652 139.963Z" fill="white"/>
<path d="M322.476 138.321C323.708 138.321 324.715 139.328 324.715 140.56V156.753C324.715 157.985 323.708 158.993 322.476 158.993C321.244 158.993 320.236 157.985 320.236 156.753V140.56C320.236 139.328 321.244 138.321 322.476 138.321Z" fill="white"/>
<path d="M316.281 142.992C317.513 142.992 318.52 144 318.52 145.232V152.081C318.52 153.313 317.513 154.321 316.281 154.321C315.049 154.321 314.041 153.313 314.041 152.081V145.232C314.041 144 315.049 142.992 316.281 142.992Z" fill="white"/>
<path d="M328.859 142.992C330.091 142.992 331.099 144 331.099 145.232V152.081C331.099 153.313 330.091 154.321 328.859 154.321C327.628 154.321 326.62 153.313 326.62 152.081V145.232C326.62 144 327.628 142.992 328.859 142.992Z" fill="white"/>
</g>
<path d="M707.396 485.124L675.771 515.824L674.096 530.809C674.096 530.809 648.715 554.183 665.1 571.06L729.824 508.228L707.396 485.124Z" fill="#C340F1"/>
<path d="M693.024 476.271L671.948 506.246L679.369 512.33L704.42 488.011L693.024 476.271Z" fill="white"/>
<path d="M663.927 568.728C663.752 568.728 663.579 568.659 663.448 568.526C663.192 568.261 663.197 567.84 663.461 567.582L725.893 506.976C726.159 506.719 726.581 506.729 726.836 506.99C727.093 507.254 727.088 507.676 726.823 507.933L664.391 568.538C664.26 568.664 664.093 568.728 663.927 568.728Z" fill="#181D20"/>
<path d="M674.095 531.476C673.901 531.476 673.708 531.392 673.577 531.229C673.345 530.942 673.389 530.524 673.676 530.292C674.192 529.873 686.409 520.078 695.625 521.276C695.989 521.324 696.247 521.658 696.2 522.025C696.151 522.389 695.812 522.641 695.451 522.598C686.809 521.462 674.637 531.229 674.515 531.328C674.391 531.428 674.243 531.476 674.095 531.476Z" fill="#181D20"/>
<path d="M687.621 505.573C687.435 505.573 687.244 505.595 687.052 505.642C686.533 505.77 685.996 506.058 685.364 506.549C683.417 508.062 681.897 510.418 681.083 513.189C680.464 515.293 680.205 517.619 680.284 520.453C682.515 518.841 684.2 517.352 685.548 515.804C687.412 513.661 688.64 511.394 689.199 509.066C689.333 508.504 689.691 506.616 688.628 505.862C688.36 505.673 688.004 505.573 687.621 505.573ZM667.561 514.071C666.836 514.071 665.775 514.214 665.243 514.969C664.841 515.536 664.833 516.425 665.22 517.181C665.564 517.853 666.187 518.459 667.123 519.036C668.735 520.028 670.756 520.658 673.127 520.909C674.877 521.093 676.677 521.064 678.445 520.993C677.137 519.492 675.768 517.994 674.205 516.767C672.196 515.19 670.065 514.265 668.045 514.092C667.919 514.081 667.752 514.071 667.561 514.071ZM676.077 522.38C675.048 522.38 674.015 522.342 672.985 522.234C670.416 521.964 668.207 521.269 666.424 520.171C665.272 519.464 664.491 518.683 664.035 517.789C663.417 516.586 663.464 515.177 664.153 514.198C664.908 513.131 666.372 512.607 668.16 512.764C670.439 512.959 672.815 513.98 675.029 515.718C676.477 516.855 677.743 518.183 678.939 519.534C678.94 516.99 679.225 514.778 679.804 512.813C680.435 510.665 681.771 507.653 684.545 505.497C685.331 504.886 686.027 504.522 686.735 504.349C687.705 504.107 688.68 504.262 689.399 504.776C690.593 505.621 690.993 507.3 690.495 509.377C689.885 511.916 688.56 514.373 686.553 516.678C685.307 518.11 683.795 519.488 681.871 520.94C684.549 520.918 687.188 520.429 689.641 519.361C691.241 518.662 692.465 517.857 693.381 516.895C694.459 515.765 695.093 514.41 695.168 513.078C695.249 511.641 694.62 510.236 693.567 509.494C693.264 509.282 693.193 508.866 693.404 508.566C693.616 508.264 694.035 508.193 694.332 508.404C695.756 509.404 696.605 511.267 696.499 513.152C696.408 514.801 695.643 516.457 694.347 517.816C693.304 518.907 691.94 519.812 690.175 520.582C686.992 521.97 683.489 522.521 680.043 522.173C679.949 522.231 679.837 522.267 679.719 522.273C678.521 522.326 677.303 522.38 676.077 522.38Z" fill="#181D20"/>
<path d="M575.159 560.537H531.084L519.444 570.122C519.444 570.122 484.952 569.214 484.952 592.737H575.159V560.537Z" fill="#C340F1"/>
<path d="M571.012 544.174L535.012 551.002L536.099 560.537H571.012V544.174Z" fill="white"/>
<path d="M573.209 590.434H486.2C485.831 590.434 485.533 590.137 485.533 589.767C485.533 589.399 485.831 589.1 486.2 589.1H573.209C573.579 589.1 573.876 589.399 573.876 589.767C573.876 590.137 573.579 590.434 573.209 590.434Z" fill="#181D20"/>
<path d="M541.009 579.359C540.813 579.359 540.619 579.271 540.487 579.106C535.079 572.278 519.54 570.801 519.383 570.786C519.016 570.752 518.747 570.429 518.779 570.062C518.812 569.694 519.139 569.428 519.503 569.458C520.164 569.518 535.768 571.001 541.532 578.278C541.761 578.567 541.712 578.986 541.424 579.214C541.301 579.312 541.155 579.359 541.009 579.359Z" fill="#181D20"/>
<path d="M524.429 552.562C524.329 552.562 524.228 552.57 524.125 552.589C523.443 552.718 522.817 553.35 522.568 554.163C522.347 554.886 522.371 555.754 522.64 556.817C523.107 558.652 524.117 560.511 525.645 562.343C526.772 563.693 528.084 564.925 529.401 566.107C529.509 564.118 529.571 562.087 529.304 560.125C528.961 557.593 528.077 555.446 526.747 553.914C526.375 553.485 525.455 552.562 524.429 552.562ZM531.097 567.002C533.817 567.399 536.064 567.504 538.113 567.331C540.94 567.094 543.4 566.323 545.425 565.041C545.912 564.731 547.484 563.623 547.248 562.345C547.157 561.865 546.792 561.397 546.269 561.09C545.807 560.818 545.22 560.652 544.427 560.565C541.976 560.286 539.244 560.925 536.729 562.347C534.82 563.423 533.016 564.914 531.097 567.002ZM542.663 574.913C541.257 574.913 539.761 574.607 538.103 573.983C534.811 572.747 531.881 570.663 529.633 567.955C529.592 567.905 529.557 567.85 529.533 567.792C529.532 567.79 529.532 567.787 529.531 567.786L529.419 567.91C527.772 566.446 526.069 564.933 524.621 563.197C522.965 561.211 521.864 559.175 521.348 557.145C521.016 555.84 520.999 554.737 521.292 553.774C521.689 552.478 522.705 551.499 523.88 551.28C525.163 551.031 526.575 551.681 527.755 553.038C529.255 554.769 530.248 557.157 530.624 559.945C530.872 561.763 530.855 563.598 530.772 565.405C532.549 563.569 534.263 562.209 536.073 561.186C538.023 560.083 541.083 558.853 544.572 559.24C545.559 559.349 546.313 559.571 546.943 559.94C547.807 560.445 548.396 561.233 548.557 562.099C548.825 563.54 547.944 565.022 546.139 566.166C543.929 567.566 541.267 568.406 538.225 568.659C536.328 568.817 534.287 568.754 531.897 568.455C533.791 570.331 536.069 571.797 538.572 572.737C540.204 573.349 541.636 573.617 542.975 573.573C544.535 573.513 545.933 572.981 546.915 572.078C547.973 571.102 548.5 569.654 548.261 568.389C548.192 568.028 548.429 567.68 548.792 567.61C549.145 567.545 549.501 567.778 549.571 568.141C549.895 569.849 549.207 571.778 547.817 573.058C546.604 574.177 544.901 574.833 543.025 574.906C542.905 574.91 542.784 574.913 542.663 574.913Z" fill="#181D20"/>
<path d="M697.148 477.077L671.345 510.214C664.584 504.554 604.721 453.727 585.843 411.79C578.811 396.173 573.98 373.738 570.669 351.359C567.408 329.278 565.633 307.245 564.697 291.875C568.353 292.162 572.223 292.318 576.28 292.286C587.856 292.229 600.983 290.733 615.285 286.79C616.928 286.338 618.588 285.853 620.264 285.335C621.093 285.081 621.932 284.81 622.769 284.539C625.677 283.586 628.627 282.534 631.625 281.367C632.964 285.442 634.089 289.739 634.772 294.069C637.893 313.965 636.776 388.862 636.776 388.862C647.061 411.691 675.379 458.847 697.148 477.077Z" fill="#181D20"/>
<path d="M575.159 543.387L528.732 552.192C509.903 452.889 512.261 368.118 517.199 315.994V315.97C518.512 302.777 520.689 291.119 523.129 281.221C523.187 281.253 523.499 281.426 524.057 281.705C525.907 282.617 530.473 284.703 537.317 286.79C544.251 288.901 553.517 291.005 564.697 291.875C565.633 307.245 569.108 339.934 572.369 362.017C570.085 406.025 560.372 465.378 575.159 543.387Z" fill="#181D20"/>
<path d="M572.368 362.684C572.04 362.684 571.753 362.44 571.708 362.105L564.096 305.364L534.337 298.389C533.98 298.305 533.757 297.946 533.841 297.588C533.925 297.23 534.281 297.008 534.643 297.092L565.297 304.276L565.357 304.732L573.029 361.928C573.079 362.293 572.821 362.629 572.457 362.677C572.428 362.682 572.397 362.684 572.368 362.684Z" fill="#F6EBD4"/>
<path d="M681.332 492.42C681.14 492.42 680.947 492.337 680.816 492.176C678.331 489.129 619.912 417.307 614.457 395.036C609.025 372.856 604.168 296.361 604.12 295.592C604.096 295.224 604.376 294.908 604.744 294.885C605.137 294.876 605.429 295.141 605.451 295.508C605.499 296.277 610.348 372.652 615.752 394.719C621.136 416.699 681.243 490.588 681.849 491.332C682.081 491.619 682.039 492.037 681.755 492.271C681.631 492.371 681.481 492.42 681.332 492.42Z" fill="#F6EBD4"/>
<path d="M583.021 264.113C583.341 275.804 583.859 284.947 584.425 292.004C581.633 292.184 578.913 292.275 576.276 292.283C572.219 292.316 568.349 292.16 564.693 291.872C553.719 291.019 544.583 288.972 537.691 286.903C542.685 242.985 559.304 146.425 559.699 144.141C559.699 144.133 559.699 144.133 559.699 144.125L559.707 144.109L592.813 144.1C592.813 144.1 581.985 226.259 583.021 264.113Z" fill="white"/>
<path d="M619.093 254.921C619.093 254.921 626.775 266.701 631.621 281.365C631.621 281.365 636.353 292.292 641.759 310.241C641.759 310.241 630.873 329.981 621.664 331.304C612.447 332.618 587.187 313.141 587.187 313.141C587.187 313.141 585.691 307.801 584.425 292.004C583.859 284.946 583.341 275.804 583.021 264.113C581.985 226.258 592.813 144.1 592.813 144.1H602.885C617.943 144.1 631.161 154.14 635.203 168.656L649.111 220.738C653.9 237.932 641.184 254.445 624.22 255.183C622.552 255.249 620.835 255.167 619.093 254.921Z" fill="#C340F1"/>
<path d="M621.096 309.139C620.933 309.139 620.771 309.08 620.644 308.961C609.117 298.277 600.605 284.684 596.029 269.648C595.923 269.296 596.12 268.924 596.473 268.816C596.829 268.709 597.199 268.909 597.305 269.26C601.813 284.069 610.197 297.46 621.549 307.981C621.819 308.233 621.836 308.655 621.587 308.924C621.455 309.067 621.275 309.139 621.096 309.139Z" fill="#181D20"/>
<path d="M559.707 144.109L559.699 144.125C559.699 144.133 559.699 144.133 559.699 144.141C559.304 146.425 542.685 242.985 537.691 286.902C536.737 295.24 536.212 301.681 536.285 305.221C536.285 305.221 525.787 325.602 515.699 323.032C510.113 321.61 517.153 297.22 524.547 275.729C524.547 275.713 524.555 275.705 524.555 275.697C525.984 270.414 527.471 265.724 528.876 261.657C532.901 250.098 536.368 243.584 536.696 242.985C536.705 242.96 536.713 242.944 536.713 242.944L534.265 224.533H500.181L523.453 165.377C528.497 152.545 540.887 144.109 554.671 144.109H559.707Z" fill="#C340F1"/>
<path d="M662.791 112.956C661.099 121.771 653.804 128.664 645.465 131.367C635.952 134.455 625.297 132.771 616.483 128.335C612.779 126.471 609.344 124.096 606.296 121.303C603.627 119.242 601.163 116.9 598.977 114.304C595.913 110.656 593.399 106.55 591.525 102.171C589.48 97.3724 588.019 92.0911 588.133 86.8417C588.24 82.2324 589.76 77.5084 593.095 74.1991C596.291 71.0271 601.08 69.5151 605.459 70.8964C609.656 72.2191 611.883 76.0551 614.109 79.5551C615.3 81.4271 616.581 83.2511 618.332 84.6564C620.123 86.0938 622.251 87.0804 624.452 87.7284C633.579 90.4311 643.659 87.7698 652.481 91.8031C660.409 95.4258 664.409 104.552 662.791 112.956Z" fill="#181D20"/>
<path d="M602.92 96.7062C602.92 113.018 589.696 126.242 573.384 126.242C557.071 126.242 539.068 102.796 539.068 86.4822C539.068 70.1715 557.071 67.1702 573.384 67.1702C589.696 67.1702 602.92 80.3929 602.92 96.7062Z" fill="#181D20"/>
<path d="M602.601 111.145C600.868 116.599 597.212 119.853 592.119 118.866L592.817 144.103L587.387 148.662C578.712 155.949 565.585 153.789 559.703 144.111L561.345 135.182L557.337 131.97C550.641 126.597 546.748 118.497 546.748 109.913V96.1512C559.875 99.3806 568.756 95.8072 573.972 92.1179C577.924 89.3339 579.772 86.4819 579.772 86.4819L582.072 90.5006L587.527 100.03V100.095L587.552 100.071C589.335 98.3206 591.619 97.2286 594.008 97.0139C595.249 96.8993 596.515 97.0312 597.755 97.4259C603.16 99.1419 604.459 105.303 602.601 111.145Z" fill="white"/>
<path d="M567.141 138.023C565.047 138.023 562.953 137.323 561.204 135.921L560.927 135.695C560.64 135.463 560.596 135.043 560.829 134.757C561.063 134.471 561.484 134.43 561.767 134.662L562.04 134.885C565.044 137.29 569.239 137.29 572.237 134.882L577.561 130.615C577.848 130.387 578.267 130.431 578.499 130.719C578.728 131.006 578.683 131.425 578.395 131.655L573.072 135.921C571.327 137.322 569.235 138.023 567.141 138.023Z" fill="#181D20"/>
<path d="M593.955 116.791C593.623 116.791 593.335 116.543 593.295 116.204C593.251 115.839 593.511 115.507 593.876 115.463C595.849 115.226 597.619 113.575 597.992 111.624C598.183 110.631 598.027 109.616 597.564 108.84C597.077 108.023 596.235 107.466 595.368 107.387C594.475 107.299 593.579 107.756 593.179 108.486C593.027 108.763 592.699 108.892 592.4 108.803C592.097 108.711 591.901 108.419 591.929 108.106C592.12 105.999 592.447 103.792 593.54 101.91C594.087 100.971 594.747 100.263 595.503 99.8044C596.461 99.223 597.561 99.0644 598.52 99.3684C599.637 99.723 600.464 100.734 600.531 101.828C600.552 102.195 600.272 102.511 599.905 102.534C599.541 102.554 599.221 102.276 599.2 101.908C599.165 101.362 598.711 100.827 598.116 100.639C597.536 100.454 596.815 100.567 596.193 100.944C595.631 101.286 595.125 101.835 594.695 102.579C594.021 103.738 593.673 105.082 593.465 106.452C594.073 106.139 594.779 105.992 595.487 106.059C596.772 106.175 598.007 106.979 598.709 108.159C599.337 109.211 599.553 110.566 599.303 111.876C598.816 114.412 596.6 116.478 594.036 116.787C594.008 116.79 593.983 116.791 593.955 116.791Z" fill="#181D20"/>
<path d="M554.931 106.178C554.931 107.882 553.681 109.265 552.141 109.265C550.6 109.265 549.352 107.882 549.352 106.178C549.352 104.474 550.6 103.093 552.141 103.093C553.681 103.093 554.931 104.474 554.931 106.178Z" fill="#181D20"/>
<path d="M571.891 106.178C571.891 107.882 570.641 109.265 569.1 109.265C567.56 109.265 566.311 107.882 566.311 106.178C566.311 104.474 567.56 103.093 569.1 103.093C570.641 103.093 571.891 104.474 571.891 106.178Z" fill="#181D20"/>
<path d="M554.453 98.9659C552.333 98.2925 549.948 98.6686 548.223 100.113C547.88 100.401 547.732 100.93 548.033 101.309C548.305 101.651 548.863 101.805 549.229 101.498C549.399 101.357 549.575 101.223 549.759 101.102C549.849 101.042 549.943 100.986 550.036 100.933C550.045 100.926 550.057 100.921 550.068 100.915C550.117 100.89 550.165 100.866 550.216 100.842C550.415 100.747 550.62 100.663 550.829 100.591C550.933 100.555 551.039 100.525 551.145 100.493C551.164 100.487 551.183 100.482 551.196 100.479C551.255 100.466 551.315 100.453 551.373 100.441C551.591 100.398 551.809 100.367 552.029 100.35C552.14 100.341 552.251 100.335 552.36 100.333C552.416 100.331 552.471 100.33 552.527 100.331C552.529 100.331 552.527 100.33 552.529 100.33C552.536 100.331 552.532 100.331 552.545 100.333C552.765 100.346 552.984 100.366 553.203 100.403C553.312 100.422 553.42 100.443 553.527 100.469C553.581 100.481 553.635 100.495 553.688 100.509C553.703 100.513 553.709 100.514 553.715 100.515C553.725 100.518 553.732 100.521 553.745 100.526C554.171 100.661 554.693 100.563 554.88 100.099C555.035 99.7112 554.911 99.1112 554.453 98.9659Z" fill="#181D20"/>
<path d="M566.375 100.099C566.56 100.563 567.083 100.661 567.508 100.526C567.523 100.521 567.528 100.518 567.539 100.515C567.545 100.514 567.552 100.513 567.567 100.509C567.62 100.495 567.673 100.481 567.727 100.469C567.835 100.443 567.943 100.422 568.052 100.403C568.269 100.366 568.488 100.346 568.709 100.333C568.721 100.331 568.717 100.331 568.724 100.33C568.727 100.33 568.725 100.331 568.728 100.331C568.783 100.33 568.839 100.331 568.893 100.333C569.004 100.335 569.115 100.341 569.224 100.35C569.445 100.367 569.664 100.398 569.881 100.441C569.94 100.453 569.999 100.466 570.057 100.479C570.072 100.482 570.089 100.487 570.109 100.493C570.215 100.525 570.32 100.555 570.425 100.591C570.635 100.663 570.839 100.747 571.039 100.842C571.088 100.866 571.137 100.89 571.187 100.915C571.197 100.921 571.208 100.926 571.219 100.933C571.312 100.986 571.404 101.042 571.495 101.102C571.68 101.223 571.856 101.357 572.025 101.498C572.392 101.805 572.949 101.651 573.221 101.309C573.521 100.93 573.375 100.401 573.032 100.113C571.305 98.6686 568.92 98.2925 566.8 98.9659C566.344 99.1112 566.219 99.7112 566.375 100.099Z" fill="#181D20"/>
<path d="M554.943 119.465C554.769 119.465 554.601 119.398 554.477 119.274C554.317 119.117 554.247 118.89 554.288 118.67L557.027 104.63C557.096 104.268 557.448 104.033 557.809 104.104C558.171 104.173 558.407 104.523 558.336 104.885L555.791 117.934L562.539 116.481C562.903 116.405 563.253 116.632 563.331 116.992C563.408 117.352 563.179 117.706 562.819 117.783L555.084 119.45C555.037 119.459 554.989 119.465 554.943 119.465Z" fill="#181D20"/>
<path d="M564.217 123.442C563.943 123.442 563.687 123.272 563.591 122.998C563.467 122.652 563.648 122.27 563.995 122.146C566.719 121.178 568.728 118.486 568.883 115.6C568.901 115.233 569.232 114.95 569.584 114.97C569.952 114.99 570.233 115.304 570.213 115.672C570.032 119.081 567.657 122.26 564.44 123.404C564.368 123.429 564.292 123.442 564.217 123.442Z" fill="#181D20"/>
<path d="M575.073 153.657C563.776 153.657 559.149 144.499 559.103 144.405C558.941 144.076 559.077 143.677 559.408 143.515C559.74 143.353 560.137 143.488 560.3 143.817C560.472 144.165 564.627 152.324 575.073 152.324C585.609 152.324 592.216 143.784 592.281 143.697C592.505 143.404 592.925 143.348 593.215 143.569C593.508 143.792 593.567 144.209 593.344 144.503C593.061 144.877 586.287 153.657 575.073 153.657Z" fill="#181D20"/>
<path d="M556.451 254.397L558.253 278.117L539.685 265.291C527.133 270.749 512.657 271.987 498.509 267.771C466.639 258.277 448.5 224.745 457.993 192.875C467.488 161.005 501.02 142.867 532.889 152.36C564.76 161.855 582.899 195.387 573.404 227.256C570.188 238.055 564.205 247.285 556.451 254.397Z" fill="#9C0FCD"/>
<path d="M558.253 278.783C558.12 278.783 557.987 278.745 557.873 278.666L539.609 266.049C536.716 267.286 533.709 268.305 530.669 269.079C530.308 269.171 529.949 268.953 529.86 268.598C529.768 268.241 529.984 267.878 530.341 267.787C533.431 266.999 536.485 265.954 539.42 264.679C539.629 264.587 539.873 264.61 540.064 264.742L557.483 276.775L555.785 254.447C555.771 254.243 555.849 254.043 556 253.905C563.895 246.665 569.692 237.383 572.765 227.065C581.108 199.059 567.485 168.591 541.08 156.191C540.747 156.035 540.603 155.638 540.761 155.305C540.917 154.971 541.312 154.827 541.648 154.985C568.645 167.662 582.573 198.814 574.044 227.445C570.932 237.89 565.091 247.297 557.14 254.667L558.919 278.066C558.936 278.323 558.808 278.567 558.585 278.695C558.483 278.754 558.368 278.783 558.253 278.783Z" fill="#181D20"/>
<path d="M454.084 191.497C454.017 191.497 453.951 191.488 453.884 191.466C453.533 191.357 453.337 190.982 453.447 190.63C458.369 174.953 469.36 161.26 483.603 153.064C483.919 152.881 484.328 152.989 484.513 153.309C484.697 153.628 484.587 154.036 484.267 154.22C470.312 162.25 459.541 175.668 454.719 191.03C454.631 191.314 454.368 191.497 454.084 191.497Z" fill="#181D20"/>
<path d="M450.157 190.337C450.113 190.337 450.068 190.332 450.023 190.324C449.661 190.249 449.429 189.897 449.503 189.537C450.504 184.644 452.489 179.856 455.244 175.688C455.445 175.38 455.86 175.296 456.167 175.5C456.475 175.702 456.559 176.116 456.356 176.424C453.695 180.45 451.776 185.077 450.811 189.804C450.745 190.12 450.468 190.337 450.157 190.337Z" fill="#181D20"/>
<path d="M472.589 200.818C468.717 200.818 465.569 203.967 465.569 207.838C465.569 211.709 468.717 214.858 472.589 214.858C476.46 214.858 479.609 211.709 479.609 207.838C479.609 203.967 476.46 200.818 472.589 200.818ZM472.589 216.191C467.984 216.191 464.236 212.443 464.236 207.838C464.236 203.231 467.984 199.485 472.589 199.485C477.196 199.485 480.943 203.231 480.943 207.838C480.943 212.443 477.196 216.191 472.589 216.191Z" fill="#181D20"/>
<path d="M501.285 200.818C497.415 200.818 494.265 203.967 494.265 207.838C494.265 211.709 497.415 214.858 501.285 214.858C505.156 214.858 508.307 211.709 508.307 207.838C508.307 203.967 505.156 200.818 501.285 200.818ZM501.285 216.191C496.68 216.191 492.932 212.443 492.932 207.838C492.932 203.231 496.68 199.485 501.285 199.485C505.892 199.485 509.64 203.231 509.64 207.838C509.64 212.443 505.892 216.191 501.285 216.191Z" fill="#181D20"/>
<path d="M528.6 200.818C524.729 200.818 521.581 203.967 521.581 207.838C521.581 211.709 524.729 214.858 528.6 214.858C532.472 214.858 535.62 211.709 535.62 207.838C535.62 203.967 532.472 200.818 528.6 200.818ZM528.6 216.191C523.995 216.191 520.248 212.443 520.248 207.838C520.248 203.231 523.995 199.485 528.6 199.485C533.207 199.485 536.953 203.231 536.953 207.838C536.953 212.443 533.207 216.191 528.6 216.191Z" fill="#181D20"/>
<path d="M455.041 195.162C455.996 195.284 456.817 195.782 457.363 196.494C457.909 197.206 458.192 198.121 458.071 199.076L457.028 207.253C456.784 209.164 455.023 210.526 453.113 210.282C452.163 210.161 451.343 209.662 450.796 208.95C450.245 208.238 449.968 207.324 450.089 206.369L451.132 198.192C451.376 196.281 453.136 194.918 455.041 195.162Z" fill="white"/>
<path d="M465.713 224.705C465.965 225.481 465.879 226.292 465.529 226.968C465.18 227.645 464.579 228.192 463.801 228.444L457.148 230.595C455.593 231.097 453.911 230.237 453.408 228.683C453.159 227.911 453.245 227.1 453.595 226.424C453.943 225.743 454.544 225.2 455.321 224.948L461.976 222.797C463.531 222.295 465.213 223.155 465.713 224.705Z" fill="white"/>
<path d="M464.735 218.185C465.028 219.095 464.927 220.051 464.515 220.847C464.105 221.65 463.395 222.29 462.479 222.586L454.636 225.122C452.804 225.714 450.821 224.701 450.231 222.874C449.935 221.958 450.039 221.007 450.448 220.205C450.86 219.409 451.569 218.767 452.485 218.471L460.329 215.935C462.161 215.343 464.141 216.353 464.735 218.185Z" fill="white"/>
<path d="M462.583 211.529C462.879 212.445 462.775 213.396 462.364 214.197C461.955 215 461.245 215.64 460.329 215.936L452.485 218.472C450.653 219.064 448.671 218.05 448.079 216.218C447.783 215.302 447.887 214.352 448.297 213.554C448.709 212.758 449.417 212.113 450.333 211.817L458.177 209.281C460.009 208.688 461.992 209.702 462.583 211.529Z" fill="white"/>
<path d="M460.345 204.907C460.641 205.823 460.48 206.792 459.975 207.62C459.468 208.447 458.632 209.133 457.573 209.476L450.851 211.649C448.735 212.333 446.52 211.395 445.928 209.568C445.632 208.652 445.793 207.683 446.297 206.851C446.801 206.019 447.64 205.336 448.699 204.995L455.421 202.82C457.537 202.136 459.752 203.075 460.345 204.907Z" fill="white"/>
<path d="M450.332 205.133C450.044 205.133 449.78 204.945 449.693 204.655C449.589 204.303 449.789 203.931 450.143 203.827L457.292 201.697C457.649 201.59 458.015 201.794 458.121 202.146C458.225 202.498 458.025 202.87 457.672 202.974L450.523 205.105C450.459 205.123 450.395 205.133 450.332 205.133Z" fill="#181D20"/>
<path d="M450.333 212.482C450.052 212.482 449.791 212.304 449.7 212.021C449.587 211.67 449.777 211.296 450.129 211.182L457.973 208.646C458.321 208.532 458.699 208.725 458.812 209.076C458.925 209.425 458.733 209.801 458.381 209.914L450.539 212.45C450.471 212.472 450.401 212.482 450.333 212.482Z" fill="#181D20"/>
<path d="M452.485 219.139C452.205 219.139 451.943 218.959 451.852 218.677C451.739 218.327 451.929 217.951 452.28 217.837L460.123 215.303C460.48 215.189 460.849 215.383 460.963 215.731C461.076 216.081 460.884 216.457 460.535 216.571L452.692 219.107C452.623 219.128 452.553 219.139 452.485 219.139Z" fill="#181D20"/>
<path d="M454.08 225.916C453.799 225.916 453.539 225.737 453.445 225.456C453.332 225.107 453.523 224.729 453.873 224.615L462.931 221.663C463.288 221.548 463.657 221.74 463.772 222.089C463.885 222.44 463.696 222.816 463.345 222.931L454.287 225.884C454.217 225.905 454.148 225.916 454.08 225.916Z" fill="#181D20"/>
<path d="M608.881 216.45L564.66 209.598L557.16 246.073L604.94 252.898L608.881 216.45Z" fill="#C340F1"/>
<path d="M563.609 214.7L558.253 240.767C557.415 240.873 556.56 240.907 555.689 240.849L523.339 238.779C521.384 238.656 519.888 236.955 520.012 235C520.069 234.023 520.529 233.16 521.22 232.56C521.449 232.355 521.704 232.173 521.992 232.043L519.057 231.797C517.101 231.673 515.607 229.973 515.729 228.017C515.796 227.048 516.256 226.185 516.937 225.577C517.62 224.979 518.048 224.657 519.027 224.715C517.079 224.592 515.576 222.899 515.707 220.944C515.765 219.967 516.225 219.104 516.907 218.496C517.588 217.896 518.5 217.55 519.487 217.617C517.531 217.493 516.036 215.793 516.159 213.837C516.216 212.86 516.676 211.997 517.367 211.399C518.04 210.791 518.96 210.445 519.937 210.511L545.305 212.129L538.34 206.576C536.368 205.007 536.048 202.114 537.616 200.152C538.587 198.936 540.048 198.344 541.495 198.443C542.397 198.5 543.285 198.821 544.041 199.42L552.035 205.796L552.092 205.845L563.609 214.7Z" fill="white"/>
<path d="M619.095 255.588C619.063 255.588 619.031 255.585 618.999 255.581L557.067 246.733C556.884 246.708 556.72 246.608 556.615 246.457C556.509 246.307 556.471 246.119 556.508 245.94L564.008 209.464C564.08 209.115 564.429 208.889 564.763 208.94L607.977 215.636L598.643 180.311C598.548 179.955 598.761 179.589 599.116 179.496C599.477 179.403 599.837 179.615 599.931 179.969L609.527 216.28C609.584 216.497 609.528 216.729 609.376 216.896C609.228 217.064 609 217.143 608.78 217.109L565.185 210.355L557.956 245.513L619.187 254.261C619.551 254.313 619.805 254.651 619.753 255.016C619.705 255.348 619.42 255.588 619.095 255.588Z" fill="#181D20"/>
<path d="M535.804 219.272C535.791 219.272 535.776 219.271 535.761 219.271L519.096 218.207C518.729 218.184 518.451 217.867 518.475 217.499C518.497 217.134 518.745 216.863 519.183 216.876L535.847 217.94C536.213 217.963 536.492 218.28 536.469 218.647C536.447 219 536.152 219.272 535.804 219.272Z" fill="#181D20"/>
<path d="M535.343 226.494C535.329 226.494 535.316 226.493 535.3 226.493L518.636 225.429C518.268 225.406 517.989 225.089 518.013 224.721C518.037 224.355 518.293 224.085 518.721 224.098L535.385 225.162C535.753 225.185 536.032 225.502 536.008 225.869C535.985 226.222 535.692 226.494 535.343 226.494Z" fill="#181D20"/>
<path d="M535.68 233.527C535.667 233.527 535.652 233.527 535.637 233.526L521.901 232.65C521.535 232.627 521.256 232.31 521.279 231.943C521.303 231.577 521.551 231.306 521.987 231.319L535.723 232.195C536.091 232.219 536.369 232.537 536.345 232.903C536.323 233.257 536.029 233.527 535.68 233.527Z" fill="#181D20"/>
<path d="M662.124 388.631L667.645 398.186L673.176 388.631L667.645 379.078L662.124 388.631ZM667.644 400.185C667.405 400.185 667.185 400.057 667.067 399.851L660.777 388.965C660.657 388.758 660.657 388.503 660.777 388.298L667.067 377.413C667.185 377.206 667.405 377.079 667.644 377.079C667.881 377.079 668.101 377.205 668.22 377.411L674.524 388.297C674.644 388.503 674.644 388.758 674.524 388.966L668.22 399.853C668.101 400.058 667.881 400.185 667.644 400.185Z" fill="#181D20"/>
<path d="M650.155 380.879C648.796 380.879 647.691 381.985 647.691 383.343C647.691 384.702 648.796 385.807 650.155 385.807C651.513 385.807 652.619 384.702 652.619 383.343C652.619 381.985 651.513 380.879 650.155 380.879ZM650.155 387.141C648.061 387.141 646.357 385.437 646.357 383.343C646.357 381.249 648.061 379.546 650.155 379.546C652.249 379.546 653.952 381.249 653.952 383.343C653.952 385.437 652.249 387.141 650.155 387.141Z" fill="#181D20"/>
<path d="M661.355 367.872C660.26 367.872 659.371 368.761 659.371 369.856C659.371 370.949 660.26 371.84 661.355 371.84C662.448 371.84 663.339 370.949 663.339 369.856C663.339 368.761 662.448 367.872 661.355 367.872ZM661.355 373.173C659.525 373.173 658.037 371.685 658.037 369.856C658.037 368.026 659.525 366.538 661.355 366.538C663.184 366.538 664.672 368.026 664.672 369.856C664.672 371.685 663.184 373.173 661.355 373.173Z" fill="#181D20"/>
<path d="M647.024 371.121C646.405 371.121 645.901 371.625 645.901 372.245C645.901 372.862 646.405 373.366 647.024 373.366C647.643 373.366 648.147 372.862 648.147 372.245C648.147 371.625 647.643 371.121 647.024 371.121ZM647.024 374.699C645.669 374.699 644.568 373.598 644.568 372.245C644.568 370.89 645.669 369.787 647.024 369.787C648.377 369.787 649.48 370.89 649.48 372.245C649.48 373.598 648.377 374.699 647.024 374.699Z" fill="#181D20"/>
<path d="M527.816 58.8399L531.859 65.8386L535.909 58.8399L531.859 51.8426L527.816 58.8399ZM531.857 67.8359C531.619 67.8359 531.399 67.7093 531.28 67.5026L526.469 59.1732C526.349 58.9666 526.349 58.7132 526.469 58.5066L531.28 50.1773C531.399 49.9719 531.619 49.8439 531.857 49.8439C532.096 49.8439 532.316 49.9719 532.433 50.1773L537.257 58.5066C537.376 58.7132 537.376 58.9679 537.257 59.1746L532.433 67.5039C532.316 67.7092 532.096 67.8359 531.857 67.8359Z" fill="#181D20"/>
<path d="M520.473 49.0693C519.113 49.0693 518.008 50.1746 518.008 51.5346C518.008 52.8933 519.113 53.9987 520.473 53.9987C521.831 53.9987 522.936 52.8933 522.936 51.5346C522.936 50.1746 521.831 49.0693 520.473 49.0693ZM520.473 55.332C518.379 55.332 516.675 53.628 516.675 51.5346C516.675 49.44 518.379 47.736 520.473 47.736C522.567 47.736 524.269 49.44 524.269 51.5346C524.269 53.628 522.567 55.332 520.473 55.332Z" fill="#181D20"/>
<path d="M531.672 40.6371C530.579 40.6371 529.688 41.5265 529.688 42.6212C529.688 43.7158 530.579 44.6051 531.672 44.6051C532.765 44.6051 533.656 43.7158 533.656 42.6212C533.656 41.5265 532.765 40.6371 531.672 40.6371ZM531.672 45.9385C529.843 45.9385 528.355 44.4505 528.355 42.6212C528.355 40.7918 529.843 39.3038 531.672 39.3038C533.501 39.3038 534.989 40.7918 534.989 42.6212C534.989 44.4505 533.501 45.9385 531.672 45.9385Z" fill="#181D20"/>
<path d="M520.473 38.8471C519.855 38.8471 519.351 39.3511 519.351 39.9697C519.351 40.5884 519.855 41.0924 520.473 41.0924C521.092 41.0924 521.596 40.5884 521.596 39.9697C521.596 39.3511 521.092 38.8471 520.473 38.8471ZM520.473 42.4258C519.119 42.4258 518.017 41.3244 518.017 39.9697C518.017 38.6151 519.119 37.5137 520.473 37.5137C521.827 37.5137 522.929 38.6151 522.929 39.9697C522.929 41.3244 521.827 42.4258 520.473 42.4258Z" fill="#181D20"/>
<path d="M93.776 358.758L99.296 368.313L104.828 358.758L99.296 349.205L93.776 358.758ZM99.2947 370.312C99.0573 370.312 98.8373 370.185 98.7173 369.978L92.4293 359.092C92.3093 358.886 92.3093 358.632 92.4293 358.425L98.7173 347.54C98.8373 347.334 99.0573 347.206 99.2947 347.206C99.5333 347.206 99.7533 347.333 99.872 347.538L106.175 358.424C106.295 358.632 106.295 358.886 106.175 359.093L99.872 369.98C99.7533 370.186 99.5333 370.312 99.2947 370.312Z" fill="#181D20"/>
<path d="M125.417 357.086C124.059 357.086 122.953 358.193 122.953 359.551C122.953 360.91 124.059 362.015 125.417 362.015C126.776 362.015 127.881 360.91 127.881 359.551C127.881 358.193 126.776 357.086 125.417 357.086ZM125.417 363.349C123.323 363.349 121.62 361.645 121.62 359.551C121.62 357.458 123.323 355.753 125.417 355.753C127.512 355.753 129.215 357.458 129.215 359.551C129.215 361.645 127.512 363.349 125.417 363.349Z" fill="#181D20"/>
<path d="M93.3493 337.999C92.256 337.999 91.3653 338.89 91.3653 339.983C91.3653 341.078 92.256 341.967 93.3493 341.967C94.444 341.967 95.3333 341.078 95.3333 339.983C95.3333 338.89 94.444 337.999 93.3493 337.999ZM93.3493 343.301C91.52 343.301 90.032 341.811 90.032 339.983C90.032 338.154 91.52 336.666 93.3493 336.666C95.1787 336.666 96.6667 338.154 96.6667 339.983C96.6667 341.811 95.1787 343.301 93.3493 343.301Z" fill="#181D20"/>
<path d="M112.264 352.23C111.645 352.23 111.141 352.734 111.141 353.353C111.141 353.97 111.645 354.474 112.264 354.474C112.883 354.474 113.387 353.97 113.387 353.353C113.387 352.734 112.883 352.23 112.264 352.23ZM112.264 355.808C110.909 355.808 109.808 354.706 109.808 353.353C109.808 351.998 110.909 350.897 112.264 350.897C113.619 350.897 114.72 351.998 114.72 353.353C114.72 354.706 113.619 355.808 112.264 355.808Z" fill="#181D20"/>
<path d="M109.84 335.798L113.02 341.302L116.207 335.798L113.02 330.293L109.84 335.798ZM113.019 343.301C112.781 343.301 112.561 343.173 112.441 342.967L108.492 336.131C108.373 335.925 108.373 335.67 108.492 335.465L112.441 328.627C112.561 328.421 112.781 328.294 113.019 328.294C113.257 328.294 113.477 328.419 113.596 328.626L117.555 335.463C117.675 335.67 117.675 335.925 117.555 336.133L113.596 342.969C113.477 343.174 113.257 343.301 113.019 343.301Z" fill="#181D20"/>
<path d="M78.8292 365.32C78.2099 365.32 77.7068 365.824 77.7068 366.442C77.7068 367.061 78.2099 367.565 78.8292 367.565C79.4484 367.565 79.9521 367.061 79.9521 366.442C79.9521 365.824 79.4484 365.32 78.8292 365.32ZM78.8292 368.898C77.4751 368.898 76.3735 367.797 76.3735 366.442C76.3735 365.088 77.4751 363.986 78.8292 363.986C80.1833 363.986 81.2855 365.088 81.2855 366.442C81.2855 367.797 80.1833 368.898 78.8292 368.898Z" fill="#181D20"/>
<path d="M511.059 144.775C510.691 144.775 510.392 144.477 510.392 144.109V73.6487C510.392 65.3767 503.661 58.6461 495.388 58.6461C486.993 58.6461 480.263 65.3767 480.263 73.6487V128.139C480.263 137.311 472.801 144.775 463.628 144.775C454.455 144.775 446.992 137.311 446.992 128.139V19.7541C446.992 11.4807 440.263 4.75004 431.989 4.75004C423.716 4.75004 416.985 11.4807 416.985 19.7541V48.3994C416.985 57.4074 409.656 64.7354 400.649 64.7354H384.76C384.391 64.7354 384.093 64.4381 384.093 64.0687C384.093 63.7007 384.391 63.4021 384.76 63.4021H400.649C408.923 63.4021 415.652 56.6714 415.652 48.3994V19.7541C415.652 10.7461 422.983 3.41671 431.989 3.41671C440.997 3.41671 448.325 10.7461 448.325 19.7541V128.139C448.325 136.577 455.191 143.442 463.628 143.442C472.065 143.442 478.929 136.577 478.929 128.139V73.6487C478.929 64.6407 486.26 57.3127 495.267 57.3127C504.396 57.3127 511.725 64.6407 511.725 73.6487V144.109C511.725 144.477 511.428 144.775 511.059 144.775Z" fill="#181D20"/>
</svg>
