<svg width="500" height="500" viewBox="0 0 500 500" fill="none" xmlns="http://www.w3.org/2000/svg">
<path d="M78.813 209.97C78.813 209.97 63.829 273.996 105.564 329.781C147.299 385.566 220.051 407.244 278.527 426.36C337.003 445.476 391.777 423.405 412.322 374.263C432.867 325.121 391.368 298.646 382.217 234.459C373.066 170.271 380.371 151.786 337.686 102.915C295.001 54.0441 207.408 55.2071 148.187 105.384C88.965 155.561 78.813 209.97 78.813 209.97Z" fill="#C340F1"/>
<path opacity="0.7" d="M78.813 209.97C78.813 209.97 63.829 273.996 105.564 329.781C147.299 385.566 220.051 407.244 278.527 426.36C337.003 445.476 391.777 423.405 412.322 374.263C432.867 325.121 391.368 298.646 382.217 234.459C373.066 170.271 380.371 151.786 337.686 102.915C295.001 54.0441 207.408 55.2071 148.187 105.384C88.965 155.561 78.813 209.97 78.813 209.97Z" fill="white"/>
<path d="M408.899 258.533C408.899 258.533 408.899 254.351 403.044 248.496C397.189 242.641 393.425 239.296 393.425 239.296C393.425 239.296 390.498 248.914 395.934 254.769C401.37 260.624 408.898 266.06 408.898 266.06L408.899 258.533Z" fill="#C340F1"/>
<path d="M400.402 284.65C400.402 284.65 400.402 280.468 394.547 274.613C388.692 268.758 384.929 265.413 384.929 265.413C384.929 265.413 382.002 275.031 387.438 280.886C392.875 286.741 400.402 292.177 400.402 292.177V284.65Z" fill="#C340F1"/>
<path d="M408.531 265.656C408.531 265.656 408.973 261.498 415.414 256.294C421.855 251.091 425.951 248.161 425.951 248.161C425.951 248.161 427.846 258.035 421.821 263.282C415.796 268.529 407.736 273.14 407.736 273.14L408.531 265.656Z" fill="#C340F1"/>
<path d="M398.266 296.5C398.266 296.5 399.142 292.411 406.094 287.913C413.046 283.415 417.427 280.932 417.427 280.932C417.427 280.932 418.274 290.95 411.732 295.536C405.189 300.122 396.69 303.86 396.69 303.86L398.266 296.5Z" fill="#C340F1"/>
<path d="M400.196 330.129C400.196 330.129 400.196 325.947 406.051 320.092C411.906 314.237 415.67 310.892 415.67 310.892C415.67 310.892 418.597 320.51 413.161 326.365C407.725 332.22 400.197 337.656 400.197 337.656L400.196 330.129Z" fill="#C340F1"/>
<path d="M400.098 338.337C400.098 338.337 400.692 334.197 395.729 327.57C390.766 320.943 387.515 317.096 387.515 317.096C387.515 317.096 383.251 326.201 387.8 332.769C392.349 339.337 399.028 345.788 399.028 345.788L400.098 338.337Z" fill="#C340F1"/>
<path d="M394.325 362.664C394.325 362.664 394.325 358.482 400.18 352.628C406.035 346.773 409.798 343.428 409.798 343.428C409.798 343.428 412.725 353.046 407.289 358.901C401.853 364.756 394.325 370.192 394.325 370.192V362.664Z" fill="#C340F1"/>
<path d="M398.235 384.719C398.235 384.719 397.176 380.673 401.357 373.527C405.538 366.38 408.332 362.191 408.332 362.191C408.332 362.191 413.6 370.755 409.823 377.795C406.047 384.836 400.141 392.002 400.141 392.002L398.235 384.719Z" fill="#C340F1"/>
<path d="M409.429 257.461C409.086 261.931 408.578 266.556 407.826 270.446C405.511 282.403 399.726 290.118 397.411 300.918C395.097 311.718 401.741 325.632 399.962 339.505C398.183 353.377 392.783 361.092 394.326 370.349C395.869 379.606 403.969 404.679 403.969 404.679" stroke="#263238" stroke-width="0.5" stroke-miterlimit="10" stroke-linecap="round" stroke-linejoin="round"/>
<path d="M408.473 268.435L414.783 263.593" stroke="#263238" stroke-width="0.5" stroke-miterlimit="10" stroke-linecap="round" stroke-linejoin="round"/>
<path d="M408.767 262.859L406.126 258.164" stroke="#263238" stroke-width="0.5" stroke-miterlimit="10" stroke-linecap="round" stroke-linejoin="round"/>
<path d="M397.762 300.423C397.762 300.423 403.045 296.461 408.473 292.5" stroke="#263238" stroke-width="0.5" stroke-miterlimit="10" stroke-linecap="round" stroke-linejoin="round"/>
<path d="M400.402 292.178C400.402 292.178 396.001 283.549 391.012 277.826" stroke="#263238" stroke-width="0.5" stroke-miterlimit="10" stroke-linecap="round" stroke-linejoin="round"/>
<path d="M400.403 336.078C400.403 336.078 404.512 328.008 411.701 320.965" stroke="#263238" stroke-width="0.5" stroke-miterlimit="10" stroke-linecap="round" stroke-linejoin="round"/>
<path d="M399.376 341.948C399.376 341.948 396.735 335.639 393.654 331.09C390.572 326.541 390.132 325.954 390.132 325.954" stroke="#263238" stroke-width="0.5" stroke-miterlimit="10" stroke-linecap="round" stroke-linejoin="round"/>
<path d="M394.325 370.35C394.325 370.35 396.441 364.985 399.082 360.73C401.723 356.475 405.245 352.66 405.245 352.66" stroke="#263238" stroke-width="0.5" stroke-miterlimit="10" stroke-linecap="round" stroke-linejoin="round"/>
<path d="M400.141 392.002C400.141 392.002 399.523 386.994 401.724 382.739C403.925 378.484 406.419 372.908 407.446 370.707" stroke="#263238" stroke-width="0.5" stroke-miterlimit="10" stroke-linecap="round" stroke-linejoin="round"/>
<path d="M370.56 314.402C370.56 314.402 370.106 311.78 373.142 307.473C376.178 303.166 378.175 300.659 378.175 300.659C378.175 300.659 381.055 306.373 378.281 310.634C375.507 314.896 371.377 319.122 371.377 319.122L370.56 314.402Z" fill="#C340F1"/>
<path d="M378.724 329.857C378.724 329.857 378.27 327.235 381.306 322.927C384.342 318.62 386.339 316.113 386.339 316.113C386.339 316.113 389.219 321.827 386.445 326.088C383.671 330.35 379.541 334.576 379.541 334.576L378.724 329.857Z" fill="#C340F1"/>
<path d="M371.564 318.828C371.564 318.828 370.836 316.268 366.232 313.704C361.628 311.14 358.742 309.748 358.742 309.748C358.742 309.748 358.626 316.145 362.973 318.782C367.321 321.419 372.875 323.435 372.875 323.435L371.564 318.828Z" fill="#C340F1"/>
<path d="M381.349 337.056C381.349 337.056 380.356 334.587 375.508 332.521C370.66 330.455 367.644 329.374 367.644 329.374C367.644 329.374 368.2 335.748 372.801 337.914C377.401 340.079 383.137 341.501 383.137 341.501L381.349 337.056Z" fill="#C340F1"/>
<path d="M383.79 358.353C383.79 358.353 383.336 355.731 379.029 352.695C374.722 349.659 371.999 347.97 371.999 347.97C371.999 347.97 371.207 354.319 375.252 357.4C379.297 360.481 384.607 363.073 384.607 363.073L383.79 358.353Z" fill="#C340F1"/>
<path d="M384.742 363.49C384.742 363.49 383.92 360.959 386.313 356.264C388.706 351.569 390.326 348.805 390.326 348.805C390.326 348.805 393.989 354.051 391.849 358.664C389.709 363.276 386.221 368.047 386.221 368.047L384.742 363.49Z" fill="#C340F1"/>
<path d="M392.091 384.644C392.091 384.644 392.395 382 396.521 378.723C400.648 375.447 403.27 373.604 403.27 373.604C403.27 373.604 404.423 379.898 400.56 383.205C396.698 386.512 391.544 389.403 391.544 389.403L392.091 384.644Z" fill="#C340F1"/>
<path d="M391.003 378.118C391.003 378.118 390.549 375.496 386.242 372.46C381.935 369.424 379.212 367.735 379.212 367.735C379.212 367.735 378.42 374.084 382.465 377.166C386.51 380.247 391.82 382.839 391.82 382.839L391.003 378.118Z" fill="#C340F1"/>
<path d="M390.946 392.373C390.946 392.373 391.171 389.721 387.773 385.693C384.375 381.665 382.169 379.341 382.169 379.341C382.169 379.341 379.795 385.283 382.928 389.288C386.061 393.293 390.541 397.146 390.541 397.146L390.946 392.373Z" fill="#C340F1"/>
<path d="M370.111 313.787C370.811 316.553 371.632 319.398 372.526 321.755C375.275 329.002 379.741 333.212 382.365 339.733C384.989 346.254 382.333 355.701 384.954 364.207C387.576 372.713 391.799 376.964 391.837 382.937C391.874 388.91 389.517 405.511 389.517 405.511" stroke="#263238" stroke-width="0.5" stroke-miterlimit="10" stroke-linecap="round" stroke-linejoin="round"/>
<path d="M371.902 320.565L367.42 318.213" stroke="#263238" stroke-width="0.5" stroke-miterlimit="10" stroke-linecap="round" stroke-linejoin="round"/>
<path d="M371.113 317.1L372.259 313.869" stroke="#263238" stroke-width="0.5" stroke-miterlimit="10" stroke-linecap="round" stroke-linejoin="round"/>
<path d="M382.091 339.461C382.091 339.461 378.348 337.55 374.514 335.655" stroke="#263238" stroke-width="0.5" stroke-miterlimit="10" stroke-linecap="round" stroke-linejoin="round"/>
<path d="M379.541 334.578C379.541 334.578 381.364 328.689 383.871 324.559" stroke="#263238" stroke-width="0.5" stroke-miterlimit="10" stroke-linecap="round" stroke-linejoin="round"/>
<path d="M384.306 362.106C384.306 362.106 380.853 357.491 375.58 353.855" stroke="#263238" stroke-width="0.5" stroke-miterlimit="10" stroke-linecap="round" stroke-linejoin="round"/>
<path d="M385.587 365.676C385.587 365.676 386.558 361.433 387.997 358.246C389.436 355.059 389.648 354.643 389.648 354.643" stroke="#263238" stroke-width="0.5" stroke-miterlimit="10" stroke-linecap="round" stroke-linejoin="round"/>
<path d="M391.634 387.468C391.634 387.468 394.605 383.826 396.454 382.464C398.303 381.101 399.584 379.742 399.584 379.742" stroke="#263238" stroke-width="0.5" stroke-miterlimit="10" stroke-linecap="round" stroke-linejoin="round"/>
<path d="M391.838 382.937C391.838 382.937 389.929 379.802 387.81 377.421C385.692 375.039 383.069 373.029 383.069 373.029" stroke="#263238" stroke-width="0.5" stroke-miterlimit="10" stroke-linecap="round" stroke-linejoin="round"/>
<path d="M390.541 397.146C390.541 397.146 390.385 393.939 388.543 391.509C386.701 389.08 384.531 385.854 383.648 384.585" stroke="#263238" stroke-width="0.5" stroke-miterlimit="10" stroke-linecap="round" stroke-linejoin="round"/>
<path d="M412.814 434.359H380.598C378.918 434.359 377.557 432.997 377.557 431.318V402.616H415.856V431.318C415.855 432.998 414.493 434.359 412.814 434.359Z" fill="#263238"/>
<path d="M415.522 407.612H377.556C375.901 407.612 374.559 406.27 374.559 404.615C374.559 402.96 375.901 401.618 377.556 401.618H415.522C417.177 401.618 418.519 402.96 418.519 404.615C418.519 406.27 417.177 407.612 415.522 407.612Z" fill="#263238"/>
<path d="M342.667 140.667C361.445 140.667 376.667 125.445 376.667 106.667C376.667 87.8893 361.445 72.667 342.667 72.667C323.889 72.667 308.667 87.8893 308.667 106.667C308.667 125.445 323.889 140.667 342.667 140.667Z" fill="#263238"/>
<path d="M353.766 133.997C368.859 127.875 376.131 110.677 370.009 95.5836C363.887 80.4905 346.688 73.2183 331.595 79.3405C316.502 85.4627 309.23 102.661 315.352 117.754C321.474 132.847 338.673 140.119 353.766 133.997Z" fill="white"/>
<path d="M323.539 112.09L342.667 106.667V79.9111" stroke="#263238" stroke-width="2" stroke-miterlimit="10"/>
<path d="M177.701 258.671H140.373L91.503 127.515H128.831L177.701 258.671Z" fill="#263238"/>
<path opacity="0.2" d="M177.701 258.671H140.373L91.503 127.515H128.831L177.701 258.671Z" fill="white"/>
<path d="M118.859 159.546H109.261C108.064 159.546 106.733 158.576 106.287 157.379L102.581 147.433C102.135 146.236 102.744 145.266 103.94 145.266H113.538C114.735 145.266 116.066 146.236 116.512 147.433L120.218 157.379C120.664 158.576 120.055 159.546 118.859 159.546Z" fill="#263238"/>
<path d="M131.301 134.144H93.973L91.503 127.515H128.831L131.301 134.144Z" fill="#263238"/>
<path d="M106.727 135.229L107.799 138.105" stroke="#263238" stroke-miterlimit="10" stroke-linecap="round" stroke-linejoin="round"/>
<path d="M108.166 135.229L109.238 138.105" stroke="#263238" stroke-miterlimit="10" stroke-linecap="round" stroke-linejoin="round"/>
<path d="M109.604 135.229L110.676 138.105" stroke="#263238" stroke-miterlimit="10" stroke-linecap="round" stroke-linejoin="round"/>
<path d="M111.042 135.229L112.114 138.105" stroke="#263238" stroke-miterlimit="10" stroke-linecap="round" stroke-linejoin="round"/>
<path d="M112.481 135.229L113.553 138.105" stroke="#263238" stroke-miterlimit="10" stroke-linecap="round" stroke-linejoin="round"/>
<path d="M113.919 135.229L114.991 138.105" stroke="#263238" stroke-miterlimit="10" stroke-linecap="round" stroke-linejoin="round"/>
<path d="M115.358 135.229L116.43 138.105" stroke="#263238" stroke-miterlimit="10" stroke-linecap="round" stroke-linejoin="round"/>
<path d="M116.796 135.229L117.868 138.105" stroke="#263238" stroke-miterlimit="10" stroke-linecap="round" stroke-linejoin="round"/>
<path d="M118.234 135.229L119.306 138.105" stroke="#263238" stroke-miterlimit="10" stroke-linecap="round" stroke-linejoin="round"/>
<path d="M119.673 135.229L120.745 138.105" stroke="#263238" stroke-miterlimit="10" stroke-linecap="round" stroke-linejoin="round"/>
<path d="M115.754 153.31L106.717 147.579C106.504 147.444 106.267 147.42 106.118 147.519C105.968 147.617 105.933 147.818 106.031 148.029L110.172 156.963C110.273 157.182 110.496 157.365 110.729 157.421C110.778 157.433 110.825 157.438 110.869 157.438C111.037 157.438 111.168 157.357 111.214 157.214L112.168 154.276L115.771 154.235C115.989 154.232 116.132 154.094 116.128 153.887C116.124 153.68 115.975 153.45 115.754 153.31Z" fill="white"/>
<path d="M115.57 153.711L106.533 147.98L110.674 156.914L111.699 153.755L115.57 153.711Z" fill="#263238"/>
<path d="M132.462 153.711L123.425 147.98L127.566 156.914L128.591 153.755L132.462 153.711Z" fill="white"/>
<path d="M137.092 158.793L136.277 156.953L135.214 158.5L137.092 158.793Z" fill="white"/>
<path d="M158.933 217.407L158.118 215.568L157.054 217.115L158.933 217.407Z" fill="white"/>
<path d="M165.636 235.396L164.82 233.557L163.757 235.104L165.636 235.396Z" fill="white"/>
<path d="M172.509 253.844L171.694 252.004L170.631 253.552L172.509 253.844Z" fill="white"/>
<path d="M134.019 196.639L133.204 194.799L132.141 196.346L134.019 196.639Z" fill="white"/>
<path d="M141.758 217.407L140.943 215.568L139.88 217.115L141.758 217.407Z" fill="white"/>
<path d="M148.461 235.396L147.646 233.557L146.582 235.104L148.461 235.396Z" fill="white"/>
<path d="M155.335 253.844L154.52 252.004L153.456 253.552L155.335 253.844Z" fill="white"/>
<path d="M115.749 178.529L117.321 179.545L121.638 170.529L120.066 169.513L115.749 178.529Z" fill="white"/>
<path d="M117.687 169.705C115.402 167.919 115.241 167.563 115.801 165.542C114.618 167.161 114.273 167.19 111.762 165.876C114.047 167.662 114.207 168.017 113.648 170.039C114.831 168.42 115.176 168.391 117.687 169.705Z" fill="white"/>
<path d="M125.227 170.675C123.815 169.571 123.716 169.352 124.062 168.102C123.331 169.103 123.118 169.12 121.566 168.309C122.978 169.413 123.077 169.632 122.731 170.882C123.462 169.881 123.675 169.863 125.227 170.675Z" fill="white"/>
<path d="M124.799 174.912C123.791 174.124 123.72 173.967 123.967 173.076C123.445 173.79 123.293 173.803 122.186 173.224C123.194 174.012 123.265 174.168 123.018 175.06C123.54 174.346 123.692 174.333 124.799 174.912Z" fill="white"/>
<path d="M147.461 214.881L148.433 215.567L152.75 206.55L151.777 205.864L147.461 214.881Z" fill="white"/>
<path d="M143.841 176.204L135.867 171.147L139.521 179.03L140.426 176.243L143.841 176.204Z" fill="white"/>
<path d="M137.843 176.665C134.92 176.665 131.9 174.942 131.11 172.824C130.321 170.706 132.057 168.983 134.98 168.983C137.903 168.983 140.923 170.706 141.712 172.824C142.502 174.942 140.766 176.665 137.843 176.665ZM135.152 169.443C132.483 169.443 130.877 170.959 131.571 172.824C132.266 174.688 135.002 176.204 137.671 176.204C140.34 176.204 141.946 174.688 141.252 172.824C140.557 170.96 137.821 169.443 135.152 169.443Z" fill="white"/>
<path d="M134.33 175.897C133.61 175.897 132.806 175.311 132.537 174.591C132.269 173.871 132.636 173.285 133.356 173.285C134.076 173.285 134.881 173.871 135.149 174.591C135.418 175.311 135.05 175.897 134.33 175.897ZM133.528 173.746C133.062 173.746 132.824 174.125 132.998 174.591C133.172 175.057 133.692 175.436 134.158 175.436C134.624 175.436 134.862 175.057 134.688 174.591C134.515 174.125 133.994 173.746 133.528 173.746Z" fill="white"/>
<path d="M134.456 177.267L134.139 176.833C134.715 176.596 135.029 176.246 135.073 175.793C135.129 175.219 134.734 174.676 134.73 174.671L135.104 174.513C135.126 174.543 135.635 175.244 135.562 175.989C135.509 176.558 135.136 176.988 134.456 177.267Z" fill="white"/>
<path d="M129.457 190.27L123.892 186.216L122.711 188.098L128.276 192.152L129.457 190.27Z" fill="white"/>
<path d="M120.543 195.521L121.454 196.185L123.49 192.939C123.26 192.695 123.175 192.38 123.305 192.172C123.462 191.922 123.866 191.922 124.209 192.172C124.552 192.422 124.702 192.826 124.546 193.076C124.415 193.284 124.112 193.316 123.816 193.177L121.779 196.423L122.625 197.04L127.658 195.627L127.972 192.657L122.477 188.654L119.948 190.01L120.543 195.521Z" fill="white"/>
<path d="M115.278 182.794H147.407" stroke="#263238" stroke-miterlimit="10" stroke-linecap="round" stroke-linejoin="round"/>
<path d="M143.222 186.216L142.041 188.098L147.606 192.152L148.787 190.27L143.222 186.216Z" fill="white"/>
<path d="M139.279 190.009L139.872 195.521L140.783 196.185L142.82 192.939C142.59 192.695 142.505 192.38 142.635 192.172C142.792 191.922 143.196 191.922 143.539 192.172C143.882 192.422 144.032 192.826 143.876 193.076C143.745 193.284 143.442 193.316 143.146 193.177L141.109 196.423L141.955 197.04L146.988 195.627L147.302 192.657L141.807 188.654L139.279 190.009Z" fill="white"/>
<path d="M137.904 191.626C137.956 191.239 138.012 190.817 138.051 190.347C138.129 189.398 137.863 188.555 137.262 187.84C136.31 186.709 134.879 186.345 134.818 186.33C134.666 186.292 134.551 186.374 134.566 186.514C134.58 186.653 134.716 186.797 134.869 186.835C134.881 186.838 136.102 187.148 136.872 188.063C137.352 188.632 137.561 189.328 137.495 190.131C137.457 190.595 137.401 191.01 137.35 191.39C137.082 193.387 136.92 194.592 140.239 196.584C140.3 196.621 140.363 196.639 140.419 196.639C140.497 196.639 140.562 196.604 140.588 196.537C140.634 196.423 140.552 196.259 140.404 196.171C137.526 194.444 137.636 193.619 137.904 191.626Z" fill="white"/>
<path d="M123.681 204.997L123.876 205.519C123.944 205.702 124.551 207.321 124.88 207.873L125.815 207.645C125.664 207.392 125.362 206.661 125.121 206.042H129.09L132.411 214.956H130.923L131.312 216.001H135.333L134.944 214.956H133.456L130.135 206.042H133.997C134.207 206.606 134.533 207.484 134.694 207.918L135.74 207.921C135.491 207.248 134.847 205.519 134.847 205.519L134.652 204.997H123.681Z" fill="white"/>
<path opacity="0.44" d="M144.563 229.725C145.417 232.017 143.537 233.875 140.363 233.875C137.189 233.875 133.924 232.017 133.07 229.725C132.216 227.433 134.097 225.575 137.27 225.575C140.443 225.575 143.709 227.432 144.563 229.725Z" fill="white"/>
<path d="M144.563 229.725C145.417 232.017 143.537 233.875 140.363 233.875C137.189 233.875 133.924 232.017 133.07 229.725C132.216 227.433 134.097 225.575 137.27 225.575C140.443 225.575 143.709 227.432 144.563 229.725Z" stroke="white" stroke-miterlimit="10"/>
<path d="M156.393 229.844L160.16 222.996C160.316 222.712 160.719 222.652 161.123 222.851C161.603 223.087 161.913 223.6 161.81 223.985L159.782 231.552L156.393 229.844Z" fill="white"/>
<path d="M155.771 230.42C157.254 230.223 160.153 231.488 160.234 233.405C160.254 233.885 159.931 234.212 159.561 234.437C158.445 235.118 156.867 235.149 155.344 235.166C155.709 234.908 155.863 234.429 155.747 233.906C155.629 233.369 155.255 232.826 155.061 232.284C154.787 231.515 154.932 230.478 155.771 230.42Z" fill="white"/>
<path d="M147.923 245.45C147.485 244.494 146.932 243.902 146.555 243.578L145.418 245.391C145.859 245.761 146.499 246.433 146.994 247.512C147.436 248.476 147.836 249.163 148.127 249.602L149.242 247.825C148.877 247.313 148.399 246.489 147.923 245.45Z" fill="white"/>
<path d="M146.609 247.546C146.171 246.59 145.618 245.998 145.241 245.674L144.104 247.487C144.545 247.857 145.185 248.529 145.679 249.608C146.121 250.572 146.522 251.259 146.812 251.698L147.927 249.921C147.563 249.408 147.085 248.584 146.609 247.546Z" fill="white"/>
<path d="M148.308 245.416C148.75 246.38 149.15 247.067 149.441 247.506L151.083 244.888L147.411 242.213L146.732 243.296C147.173 243.666 147.814 244.338 148.308 245.416Z" fill="white"/>
<path d="M145.294 249.641C144.856 248.685 144.304 248.093 143.926 247.769L142.974 249.286L143.136 252.744C143.147 252.984 143.461 253.211 143.67 253.129L146.59 251.984C146.228 251.469 145.76 250.657 145.294 249.641ZM144 251.951L143.914 250.112L145.585 251.329L144 251.951Z" fill="white"/>
<path d="M159.701 247.083L158.448 249.08L164.91 253.788L166.163 251.791L166.555 252.076L169.509 247.368L162.264 242.09L159.31 246.798L159.701 247.083ZM164.485 252.647L159.59 249.081L160.485 247.654L165.381 251.22L164.485 252.647Z" fill="white"/>
<path d="M98.711 129.267L98.948 129.902L98.05 131.004L99.769 132.106L100.005 132.74L97.297 131.004L98.711 129.267Z" fill="white"/>
<path d="M96.454 129.267L96.69 129.902L95.792 131.004L97.511 132.106L97.748 132.74L95.039 131.004L96.454 129.267Z" fill="white"/>
<path d="M250 206.171H172.791L149.189 140.333H226.398L250 206.171Z" fill="#263238"/>
<path d="M244.523 202.58H175.693L154.666 143.924H223.496L244.523 202.58Z" fill="#C340F1"/>
<path d="M231.434 166.07L220.051 157.69L211.062 181.033L187.754 174.449L175.693 202.579H244.523L231.434 166.07Z" fill="white"/>
<path d="M184.01 156.493C182.41 152.031 177.496 148.413 173.033 148.413C168.571 148.413 166.25 152.03 167.85 156.493C169.45 160.956 174.364 164.573 178.827 164.573C183.289 164.573 185.61 160.956 184.01 156.493Z" fill="white"/>
<path d="M258 194.837H180.791L157.189 129H234.398L258 194.837Z" fill="#263238"/>
<path d="M252.523 191.246H183.693L162.666 132.591H231.496L252.523 191.246Z" fill="#C340F1"/>
<path d="M239.434 154.736L228.051 146.357L219.062 169.699L195.754 163.116L183.693 191.246H252.523L239.434 154.736Z" fill="white"/>
<path d="M192.01 145.16C190.41 140.698 185.496 137.08 181.033 137.08C176.571 137.08 174.25 140.698 175.85 145.16C177.45 149.623 182.364 153.24 186.827 153.24C191.289 153.24 193.61 149.623 192.01 145.16Z" fill="white"/>
<path d="M258.346 118.67L260.205 123.173H259.667C259.273 122.38 258.924 121.814 258.621 121.474C258.128 120.927 257.591 120.523 257.01 120.263C256.429 120.004 255.742 119.874 254.949 119.874H252.244L257.608 134.544C258.04 135.724 258.436 136.461 258.798 136.753C259.302 137.149 259.927 137.348 260.672 137.348H261.338L261.53 137.872H253.388L253.196 137.348H253.876C254.688 137.348 255.174 137.102 255.334 136.612C255.431 136.31 255.283 135.621 254.889 134.545L249.525 119.875H247.217C246.32 119.875 245.707 119.941 245.378 120.073C244.953 120.252 244.658 120.597 244.496 121.107C244.333 121.617 244.377 122.306 244.629 123.174H244.091L242.671 118.671L258.346 118.67Z" fill="black"/>
<path d="M270.036 127.716H275.914" stroke="#263238" stroke-width="0.5" stroke-miterlimit="10"/>
<path d="M275.721 143.285H246.159L235.21 113.344H264.772L275.721 143.285Z" stroke="#263238" stroke-width="0.5" stroke-miterlimit="10"/>
<path d="M241.949 128.823H239.734L238.924 126.608H241.139L241.949 128.823Z" fill="white" stroke="#263238" stroke-width="0.5" stroke-miterlimit="10"/>
<path d="M271.548 128.823H269.333L268.523 126.608H270.738L271.548 128.823Z" fill="white" stroke="#263238" stroke-width="0.5" stroke-miterlimit="10"/>
<path d="M236.753 114.614H234.538L233.728 112.399H235.943L236.753 114.614Z" fill="white" stroke="#263238" stroke-width="0.5" stroke-miterlimit="10"/>
<path d="M266.353 114.614H264.137L263.327 112.399H265.543L266.353 114.614Z" fill="white" stroke="#263238" stroke-width="0.5" stroke-miterlimit="10"/>
<path d="M251.564 114.614H249.349L248.539 112.399H250.754L251.564 114.614Z" fill="white" stroke="#263238" stroke-width="0.5" stroke-miterlimit="10"/>
<path d="M247.577 144.214H245.362L244.552 141.998H246.767L247.577 144.214Z" fill="white" stroke="#263238" stroke-width="0.5" stroke-miterlimit="10"/>
<path d="M277.176 144.214H274.961L274.151 141.998H276.366L277.176 144.214Z" fill="white" stroke="#263238" stroke-width="0.5" stroke-miterlimit="10"/>
<path d="M261.111 143.812L263.26 149.69" stroke="#263238" stroke-width="0.5" stroke-miterlimit="10"/>
<path d="M262.387 144.214H260.172L259.362 141.998H261.577L262.387 144.214Z" fill="white" stroke="#263238" stroke-width="0.5" stroke-miterlimit="10"/>
<path d="M264.795 150.796H262.58L261.77 148.581H263.985L264.795 150.796Z" fill="#263238"/>
<path d="M244.386 137.667H269.219" stroke="#263238" stroke-width="0.5" stroke-miterlimit="10"/>
<path d="M277.08 127.716C276.844 127.072 276.131 126.549 275.487 126.549C274.843 126.549 274.511 127.071 274.747 127.716C274.983 128.36 275.696 128.883 276.34 128.883C276.985 128.883 277.316 128.361 277.08 127.716Z" fill="#263238"/>
<path opacity="0.2" d="M140.034 286.487L166.824 309.449L141.293 434.36H143.02L171.416 311.745L197.44 333.559L160.7 434.21L162.997 433.827L201.649 335.856L309.189 433.827H374.631L298.09 283.808L140.034 286.487Z" fill="black"/>
<path d="M143.02 434.36H141.293L138.701 284.351H145.612L143.02 434.36Z" fill="#263238" stroke="#263238" stroke-miterlimit="10" stroke-linecap="round" stroke-linejoin="round"/>
<path d="M291.878 434.36H290.15L287.559 284.351H294.469L291.878 434.36Z" fill="#263238" stroke="#263238" stroke-miterlimit="10" stroke-linecap="round" stroke-linejoin="round"/>
<path d="M302.423 282.032H136.063V285.926H302.423V282.032Z" fill="white" stroke="#263238" stroke-miterlimit="10" stroke-linecap="round" stroke-linejoin="round"/>
<path d="M98.496 362.57L95.472 368.955C95.472 368.955 99.168 372.987 100.849 372.987C102.53 372.987 103.201 371.307 105.217 370.635C107.233 369.963 110.594 363.578 110.594 363.578C110.594 363.578 108.578 360.218 106.562 359.882C104.546 359.546 101.522 358.538 99.841 358.202C98.16 357.865 98.496 362.57 98.496 362.57Z" fill="white" stroke="#263238" stroke-miterlimit="10" stroke-linecap="round" stroke-linejoin="round"/>
<path d="M98.496 362.57L100.512 365.93V368.954C100.512 368.954 102.528 369.962 103.2 368.954C103.872 367.946 106.896 364.586 106.896 364.586L105.552 361.562" stroke="#263238" stroke-miterlimit="10" stroke-linecap="round" stroke-linejoin="round"/>
<path d="M100.512 368.954L96.815 368.282" stroke="#263238" stroke-miterlimit="10" stroke-linecap="round" stroke-linejoin="round"/>
<path d="M156.402 423.026L149.61 424.971C149.61 424.971 149.023 430.41 150.132 431.671C151.241 432.933 152.947 432.328 154.783 433.398C156.619 434.468 163.633 432.776 163.633 432.776C163.633 432.776 164.825 429.043 163.746 427.307C162.667 425.571 161.427 422.634 160.57 421.151C159.713 419.667 156.402 423.026 156.402 423.026Z" fill="white" stroke="#263238" stroke-miterlimit="10" stroke-linecap="round" stroke-linejoin="round"/>
<path d="M156.402 423.026L155.21 426.759L152.939 428.756C152.939 428.756 153.513 430.936 154.714 430.775C155.915 430.614 160.435 430.666 160.435 430.666L161.819 427.66" stroke="#263238" stroke-miterlimit="10" stroke-linecap="round" stroke-linejoin="round"/>
<path d="M152.939 428.756L151.003 425.536" stroke="#263238" stroke-miterlimit="10" stroke-linecap="round" stroke-linejoin="round"/>
<path d="M87.743 361.226C87.743 361.226 82.03 364.922 83.039 366.939C84.048 368.956 84.719 370.299 85.727 370.971C86.735 371.643 89.759 372.651 90.767 371.979C91.775 371.307 94.127 369.627 94.463 366.939C94.799 364.251 95.807 363.915 94.799 362.571C93.791 361.226 87.743 361.226 87.743 361.226Z" fill="white" stroke="#263238" stroke-miterlimit="10" stroke-linecap="round" stroke-linejoin="round"/>
<path d="M83.038 366.937L87.07 369.625L90.43 369.289L91.774 365.593C91.774 365.593 91.774 363.577 89.758 363.577C87.742 363.577 86.734 364.585 86.734 364.585L87.406 366.601" stroke="#263238" stroke-miterlimit="10" stroke-linecap="round" stroke-linejoin="round"/>
<path d="M112.609 356.521C112.609 356.521 107.568 361.225 108.24 364.586C108.912 367.946 115.297 370.635 115.297 370.635L123.026 366.267L120.674 360.218L115.634 357.53L112.609 356.521Z" fill="white" stroke="#263238" stroke-miterlimit="10" stroke-linecap="round" stroke-linejoin="round"/>
<path d="M108.24 364.586L113.617 366.602L119.666 364.586L117.313 359.209" stroke="#263238" stroke-miterlimit="10" stroke-linecap="round" stroke-linejoin="round"/>
<path d="M112.609 356.521L112.273 363.578L116.305 364.922" stroke="#263238" stroke-miterlimit="10" stroke-linecap="round" stroke-linejoin="round"/>
<path d="M127.73 419.694C127.73 419.694 122.689 424.398 123.362 427.759C124.034 431.119 130.419 433.808 130.419 433.808L138.148 429.44L135.796 423.391L130.756 420.703L127.73 419.694Z" fill="white" stroke="#263238" stroke-miterlimit="10" stroke-linecap="round" stroke-linejoin="round"/>
<path d="M123.362 427.76L128.738 429.776L134.787 427.76L132.435 422.384" stroke="#263238" stroke-miterlimit="10" stroke-linecap="round" stroke-linejoin="round"/>
<path d="M127.73 419.694L127.394 426.751L131.427 428.095" stroke="#263238" stroke-miterlimit="10" stroke-linecap="round" stroke-linejoin="round"/>
<path d="M94.1269 351.48C94.1269 351.48 89.087 356.184 89.759 359.545C90.431 362.905 96.816 365.594 96.816 365.594L104.545 361.226L102.193 355.177L97.153 352.489L94.1269 351.48Z" fill="white" stroke="#263238" stroke-miterlimit="10" stroke-linecap="round" stroke-linejoin="round"/>
<path d="M89.759 359.544L95.135 361.561L101.184 359.544L98.832 354.168" stroke="#263238" stroke-miterlimit="10" stroke-linecap="round" stroke-linejoin="round"/>
<path d="M94.127 351.48L93.791 358.536L97.824 359.88" stroke="#263238" stroke-miterlimit="10" stroke-linecap="round" stroke-linejoin="round"/>
<path d="M122.322 434.36H82.443L76.462 368.255H128.304L122.322 434.36Z" fill="#263238" stroke="#263238" stroke-miterlimit="10" stroke-linecap="round" stroke-linejoin="round"/>
<path d="M95.807 423.392C95.807 423.392 90.095 427.088 91.103 429.105C92.111 431.121 92.783 432.465 93.791 433.137C94.799 433.809 97.823 434.817 98.831 434.145C99.839 433.473 102.191 431.793 102.527 429.105C102.863 426.417 103.871 426.081 102.863 424.737C101.856 423.392 95.807 423.392 95.807 423.392Z" fill="white" stroke="#263238" stroke-miterlimit="10" stroke-linecap="round" stroke-linejoin="round"/>
<path d="M91.103 429.103L95.135 431.791L98.495 431.455L99.839 427.759C99.839 427.759 99.839 425.743 97.823 425.743C95.807 425.743 94.799 426.751 94.799 426.751L95.471 428.767" stroke="#263238" stroke-miterlimit="10" stroke-linecap="round" stroke-linejoin="round"/>
<path d="M201.544 236.315C201.544 237.359 200.554 238.205 199.332 238.205C198.11 238.205 197.12 237.359 197.12 236.315C197.12 235.271 198.11 234.425 199.332 234.425C200.554 234.425 201.544 235.271 201.544 236.315Z" fill="#808080" stroke="#263238" stroke-miterlimit="10" stroke-linecap="round" stroke-linejoin="round"/>
<path d="M203.668 242.075C203.668 243.119 202.678 243.965 201.456 243.965C200.234 243.965 199.244 243.119 199.244 242.075C199.244 241.031 200.234 240.185 201.456 240.185C202.678 240.185 203.668 241.031 203.668 242.075Z" fill="#808080" stroke="#263238" stroke-miterlimit="10" stroke-linecap="round" stroke-linejoin="round"/>
<path d="M205.792 247.834C205.792 248.878 204.801 249.724 203.58 249.724C202.359 249.724 201.368 248.878 201.368 247.834C201.368 246.79 202.358 245.944 203.58 245.944C204.802 245.944 205.792 246.791 205.792 247.834Z" fill="#808080" stroke="#263238" stroke-miterlimit="10" stroke-linecap="round" stroke-linejoin="round"/>
<path d="M207.916 253.596C207.916 254.64 206.926 255.486 205.704 255.486C204.482 255.486 203.492 254.64 203.492 253.596C203.492 252.552 204.482 251.706 205.704 251.706C206.925 251.706 207.916 252.552 207.916 253.596Z" fill="#808080" stroke="#263238" stroke-miterlimit="10" stroke-linecap="round" stroke-linejoin="round"/>
<path d="M177.964 281.662H162.816L160.544 256.552H180.236L177.964 281.662Z" fill="#263238" stroke="#263238" stroke-miterlimit="10" stroke-linecap="round" stroke-linejoin="round"/>
<path d="M179.489 264.807L162.093 273.669L162.816 281.662H170.924L178.782 272.626L179.489 264.807Z" fill="#C340F1" stroke="#263238" stroke-miterlimit="10" stroke-linecap="round" stroke-linejoin="round"/>
<path d="M181.99 253.55H158.791V259.009H181.99V253.55Z" fill="#C340F1" stroke="#263238" stroke-miterlimit="10" stroke-linecap="round" stroke-linejoin="round"/>
<path d="M222.781 281.947H195.527C193.618 281.947 192.072 280.4 192.072 278.492C192.072 276.584 193.618 275.037 195.527 275.037H222.781C224.69 275.037 226.236 276.584 226.236 278.492C226.236 280.4 224.69 281.947 222.781 281.947Z" fill="#263238" stroke="#263238" stroke-miterlimit="10" stroke-linecap="round" stroke-linejoin="round"/>
<path d="M295.258 282.031H211.371L191.364 227.572H275.252L295.258 282.031Z" fill="#263238" stroke="#263238" stroke-miterlimit="10" stroke-linecap="round" stroke-linejoin="round"/>
<path d="M289.935 276.368H218.304L201.22 229.866H272.852L289.935 276.368Z" fill="#808080" stroke="#263238" stroke-miterlimit="10" stroke-linecap="round" stroke-linejoin="round"/>
<path d="M304.014 301.482C304.014 301.482 300.39 306.799 297.425 309.491C294.46 312.182 285.37 320.602 277.843 333.349C270.316 346.096 265.078 359.132 260.103 370.408C255.128 381.684 246.147 402.512 241.587 408.847C237.028 415.182 234.029 418.581 234.029 418.581C234.029 418.581 226.579 418.752 217.757 417.971C208.936 417.19 205.292 415.596 205.181 417.894C205.07 420.192 211.143 426.51 215.519 427.608C219.896 428.706 225.484 430.394 226.838 431.699C228.192 433.005 229.892 434.505 232.064 433.547C234.237 432.589 240.886 423.343 248.281 416.968C255.677 410.593 264.487 404.286 272.47 389.434C280.453 374.582 280.864 366.097 286.449 360.521C292.034 354.944 297.951 346.194 305.084 341.578C312.218 336.962 333.539 328.426 340.347 319.542C347.156 310.658 343.603 299.855 337.057 295.994C330.513 292.133 309.141 290.745 304.014 301.482Z" fill="#263238" stroke="#263238" stroke-miterlimit="10" stroke-linecap="round" stroke-linejoin="round"/>
<path d="M246.857 399.482C244.843 403.52 243.002 406.882 241.588 408.847C237.029 415.182 234.03 418.581 234.03 418.581C234.03 418.581 226.58 418.752 217.758 417.971C208.937 417.19 205.293 415.596 205.182 417.894C205.071 420.192 211.144 426.51 215.52 427.608C219.896 428.706 225.485 430.394 226.839 431.699C228.193 433.005 229.892 434.505 232.065 433.547C234.238 432.589 240.887 423.343 248.282 416.968C251.723 414.002 255.471 411.039 259.299 407.235C253.26 405.78 249.179 402.174 246.857 399.482Z" fill="white" stroke="#263238" stroke-miterlimit="10" stroke-linecap="round" stroke-linejoin="round"/>
<path d="M232.064 433.547C232.729 433.254 233.817 432.179 235.213 430.653C229.237 429.461 226.145 426.449 223.408 425.686C219.562 424.614 216.297 422.507 216.297 422.507L219.276 418.097C218.775 418.058 218.269 418.016 217.757 417.971C208.936 417.19 205.292 415.596 205.181 417.894C205.07 420.192 211.143 426.51 215.519 427.608C219.895 428.706 225.484 430.394 226.838 431.699C228.193 433.005 229.892 434.505 232.064 433.547Z" fill="#C340F1" stroke="#263238" stroke-miterlimit="10" stroke-linecap="round" stroke-linejoin="round"/>
<path d="M242.426 329.639C242.426 329.639 244.019 337.072 247.558 344.151C251.098 351.23 258.885 358.663 264.548 362.911C270.211 367.158 288.44 383.44 297.466 396.36C298.599 397.982 294.28 403.439 288.971 408.218C283.662 412.996 281.361 414.766 284.192 415.651C287.024 416.536 293.749 416.182 300.474 410.519C307.199 404.856 311.624 401.139 313.747 396.538C314.809 394.237 308.969 391.406 305.429 388.397C301.89 385.388 288.793 365.567 284.723 356.364C280.652 347.161 270.388 334.065 262.778 329.463" fill="#263238"/>
<path d="M242.426 329.639C242.426 329.639 244.019 337.072 247.558 344.151C251.098 351.23 258.885 358.663 264.548 362.911C270.211 367.158 288.44 383.44 297.466 396.36C298.599 397.982 294.28 403.439 288.971 408.218C283.662 412.996 281.361 414.766 284.192 415.651C287.024 416.536 293.749 416.182 300.474 410.519C307.199 404.856 311.624 401.139 313.747 396.538C314.809 394.237 308.969 391.406 305.429 388.397C301.89 385.388 288.793 365.567 284.723 356.364C280.652 347.161 270.388 334.065 262.778 329.463" stroke="#263238" stroke-miterlimit="10" stroke-linecap="round" stroke-linejoin="round"/>
<path d="M313.749 396.537C314.811 394.236 308.971 391.404 305.431 388.396C302.455 385.866 292.724 371.452 287.281 361.456L275.234 372.104C282.721 379.032 291.865 388.342 297.467 396.36C298.6 397.982 294.281 403.439 288.972 408.218C283.663 412.996 281.362 414.766 284.193 415.651C287.025 416.536 293.75 416.182 300.475 410.519C307.201 404.855 311.625 401.139 313.749 396.537Z" fill="white" stroke="#263238" stroke-miterlimit="10" stroke-linecap="round" stroke-linejoin="round"/>
<path d="M310.111 391.842C309.16 393.263 307.924 395.188 306.492 397.599C303.129 403.262 293.927 410.518 292.688 409.28C291.995 408.587 291.303 407.396 290.826 406.481C290.227 407.065 289.607 407.646 288.971 408.218C283.662 412.996 281.361 414.766 284.192 415.651C287.024 416.536 293.749 416.182 300.474 410.519C307.199 404.856 311.624 401.139 313.747 396.538C314.393 395.141 312.493 393.549 310.111 391.842Z" fill="#C340F1" stroke="#263238" stroke-miterlimit="10" stroke-linecap="round" stroke-linejoin="round"/>
<path d="M358.171 408.041H297.998V410.873H358.171V408.041Z" fill="white" stroke="#263238" stroke-miterlimit="10" stroke-linecap="round" stroke-linejoin="round"/>
<path d="M303.484 332.116L292.953 432.779C292.906 433.255 293.28 433.668 293.759 433.668C294.161 433.668 294.501 433.374 294.56 432.976L310.21 332.115H303.484V332.116Z" fill="white" stroke="#263238" stroke-miterlimit="10" stroke-linecap="round" stroke-linejoin="round"/>
<path d="M351.622 332.116L362.153 432.779C362.2 433.255 361.826 433.668 361.348 433.668C360.946 433.668 360.606 433.374 360.547 432.976L344.897 332.115H351.622V332.116Z" fill="white" stroke="#263238" stroke-miterlimit="10" stroke-linecap="round" stroke-linejoin="round"/>
<path d="M332.508 332.116L333.035 432.855C333.037 433.304 332.674 433.669 332.226 433.669H332.214C331.784 433.669 331.428 433.332 331.406 432.902L325.783 332.116H332.508Z" fill="white" stroke="#263238" stroke-miterlimit="10" stroke-linecap="round" stroke-linejoin="round"/>
<path d="M354.971 333.178H299.25C296.506 333.178 294.281 330.955 294.281 328.21V321.865C294.281 319.121 296.505 316.896 299.25 316.896H354.972C357.716 316.896 359.941 319.121 359.941 321.865V328.21C359.94 330.954 357.715 333.178 354.971 333.178Z" fill="#C340F1"/>
<mask id="mask0_188_991" style="mask-type:luminance" maskUnits="userSpaceOnUse" x="294" y="316" width="66" height="18">
<path d="M354.971 333.178H299.25C296.506 333.178 294.281 330.955 294.281 328.21V321.865C294.281 319.121 296.505 316.896 299.25 316.896H354.972C357.716 316.896 359.941 319.121 359.941 321.865V328.21C359.94 330.954 357.715 333.178 354.971 333.178Z" fill="white"/>
</mask>
<g mask="url(#mask0_188_991)">
<path opacity="0.2" d="M354.971 316.896H300.525L298.9 320.303C298.9 320.303 349.179 321.175 349.179 324.081C349.179 326.987 350.051 330.766 340.169 330.766C332.169 330.766 305.319 331.147 295.38 331.292C295.777 331.79 296.263 332.204 296.82 332.52L299.737 333.179H354.971C357.715 333.179 359.94 330.955 359.94 328.21V321.865C359.94 319.12 357.715 316.896 354.971 316.896Z" fill="black"/>
</g>
<path d="M354.971 333.178H299.25C296.506 333.178 294.281 330.955 294.281 328.21V321.865C294.281 319.121 296.505 316.896 299.25 316.896H354.972C357.716 316.896 359.941 319.121 359.941 321.865V328.21C359.94 330.954 357.715 333.178 354.971 333.178Z" stroke="#263238" stroke-miterlimit="10" stroke-linecap="round" stroke-linejoin="round"/>
<path d="M243.842 336.011C242.603 331.94 237.471 323.799 262.071 306.809C275.112 297.802 303.307 290.881 303.307 290.881L305.962 287.872C305.962 287.872 313.572 295.836 328.438 295.305C343.304 294.774 352.507 288.226 354.277 288.757C356.047 289.288 356.224 293.889 355.516 302.561C354.808 311.233 353.923 315.657 347.021 317.781C340.119 319.905 324.899 320.613 313.926 320.436C302.953 320.259 297.644 319.551 297.644 319.551C297.644 319.551 274.106 334.417 259.417 335.479" fill="#263238"/>
<path d="M243.842 336.011C242.603 331.94 237.471 323.799 262.071 306.809C275.112 297.802 303.307 290.881 303.307 290.881L305.962 287.872C305.962 287.872 313.572 295.836 328.438 295.305C343.304 294.774 352.507 288.226 354.277 288.757C356.047 289.288 356.224 293.889 355.516 302.561C354.808 311.233 353.923 315.657 347.021 317.781C340.119 319.905 324.899 320.613 313.926 320.436C302.953 320.259 297.644 319.551 297.644 319.551C297.644 319.551 274.106 334.417 259.417 335.479" stroke="#263238" stroke-miterlimit="10" stroke-linecap="round" stroke-linejoin="round"/>
<path d="M298.352 238.495C297.284 238.831 264.903 245.22 262.072 244.689C259.24 244.158 251.807 237.787 249.152 237.964C246.497 238.141 241.188 239.026 240.657 240.442C240.126 241.858 241.896 246.636 241.896 246.636C241.896 246.636 240.126 249.291 241.011 250.53C241.896 251.769 247.028 248.76 247.028 248.76C247.028 248.76 252.868 253.007 255.523 252.123C258.178 251.238 261.009 250.176 261.009 250.176C261.009 250.176 302.599 252.654 303.13 252.831C303.661 253.008 308.793 254.07 309.324 246.637C309.855 239.203 304.546 236.548 298.352 238.495Z" fill="white" stroke="#263238" stroke-miterlimit="10" stroke-linecap="round" stroke-linejoin="round"/>
<path d="M241.895 246.636L249.152 240.618" stroke="#263238" stroke-miterlimit="10" stroke-linecap="round" stroke-linejoin="round"/>
<path d="M244.55 243.982L248.444 231.77L250.036 232.124L248.09 240.973L244.55 243.982Z" fill="#263238"/>
<path d="M273.044 251.415C273.044 251.415 230.038 263.273 223.136 262.388C216.234 261.503 214.11 258.495 212.517 258.495C210.924 258.495 206.5 260.619 204.553 260.442C202.606 260.265 200.305 259.734 200.305 260.973C200.305 262.212 202.075 264.159 203.137 264.159C204.199 264.159 208.446 263.982 208.446 263.982C208.446 263.982 200.128 266.46 199.774 268.052C199.42 269.645 200.482 271.061 202.075 271.415C203.668 271.769 204.376 272.477 204.376 272.477C204.376 272.477 205.084 275.132 206.146 276.37C207.208 277.609 210.394 278.14 213.933 277.432C217.472 276.724 223.667 273.538 225.083 272.653C226.499 271.768 269.504 267.875 272.69 267.167C275.876 266.459 279.769 266.459 281.008 264.335C282.247 262.211 273.044 251.415 273.044 251.415Z" fill="white"/>
<mask id="mask1_188_991" style="mask-type:luminance" maskUnits="userSpaceOnUse" x="199" y="251" width="83" height="27">
<path d="M273.044 251.415C273.044 251.415 230.038 263.273 223.136 262.388C216.234 261.503 214.11 258.495 212.517 258.495C210.924 258.495 206.5 260.619 204.553 260.442C202.606 260.265 200.305 259.734 200.305 260.973C200.305 262.212 202.075 264.159 203.137 264.159C204.199 264.159 208.446 263.982 208.446 263.982C208.446 263.982 200.128 266.46 199.774 268.052C199.42 269.645 200.482 271.061 202.075 271.415C203.668 271.769 204.376 272.477 204.376 272.477C204.376 272.477 205.084 275.132 206.146 276.37C207.208 277.609 210.394 278.14 213.933 277.432C217.472 276.724 223.667 273.538 225.083 272.653C226.499 271.768 269.504 267.875 272.69 267.167C275.876 266.459 279.769 266.459 281.008 264.335C282.247 262.211 273.044 251.415 273.044 251.415Z" fill="white"/>
</mask>
<g mask="url(#mask1_188_991)">
<path d="M221.036 270.952C213.648 270.952 215.29 263.564 212.827 264.796C210.679 265.87 202.285 266.945 199.905 269.654C200.256 270.521 201.053 271.187 202.075 271.414C203.668 271.768 204.376 272.476 204.376 272.476C204.376 272.476 205.084 275.131 206.146 276.369C207.208 277.608 210.394 278.139 213.933 277.431C217.472 276.723 223.667 273.538 225.083 272.653C226.499 271.768 269.505 267.875 272.69 267.167C275.264 266.595 278.3 266.484 280.024 265.342C280.635 264.725 281.008 264.335 281.008 264.335L276.444 259.871C276.444 259.871 228.424 270.952 221.036 270.952Z" fill="#C340F1"/>
</g>
<mask id="mask2_188_991" style="mask-type:luminance" maskUnits="userSpaceOnUse" x="199" y="251" width="83" height="27">
<path d="M273.044 251.415C273.044 251.415 230.038 263.273 223.136 262.388C216.234 261.503 214.11 258.495 212.517 258.495C210.924 258.495 206.5 260.619 204.553 260.442C202.606 260.265 200.305 259.734 200.305 260.973C200.305 262.212 202.075 264.159 203.137 264.159C204.199 264.159 208.446 263.982 208.446 263.982C208.446 263.982 200.128 266.46 199.774 268.052C199.42 269.645 200.482 271.061 202.075 271.415C203.668 271.769 204.376 272.477 204.376 272.477C204.376 272.477 205.084 275.132 206.146 276.37C207.208 277.609 210.394 278.14 213.933 277.432C217.472 276.724 223.667 273.538 225.083 272.653C226.499 271.768 269.504 267.875 272.69 267.167C275.876 266.459 279.769 266.459 281.008 264.335C282.247 262.211 273.044 251.415 273.044 251.415Z" fill="white"/>
</mask>
<g mask="url(#mask2_188_991)">
<path opacity="0.5" d="M221.036 270.952C213.648 270.952 215.29 263.564 212.827 264.796C210.679 265.87 202.285 266.945 199.905 269.654C200.256 270.521 201.053 271.187 202.075 271.414C203.668 271.768 204.376 272.476 204.376 272.476C204.376 272.476 205.084 275.131 206.146 276.369C207.208 277.608 210.394 278.139 213.933 277.431C217.472 276.723 223.667 273.538 225.083 272.653C226.499 271.768 269.505 267.875 272.69 267.167C275.264 266.595 278.3 266.484 280.024 265.342C280.635 264.725 281.008 264.335 281.008 264.335L276.444 259.871C276.444 259.871 228.424 270.952 221.036 270.952Z" fill="white"/>
</g>
<path d="M273.044 251.415C273.044 251.415 230.038 263.273 223.136 262.388C216.234 261.503 214.11 258.495 212.517 258.495C210.924 258.495 206.5 260.619 204.553 260.442C202.606 260.265 200.305 259.734 200.305 260.973C200.305 262.212 202.075 264.159 203.137 264.159C204.199 264.159 208.446 263.982 208.446 263.982C208.446 263.982 200.128 266.46 199.774 268.052C199.42 269.645 200.482 271.061 202.075 271.415C203.668 271.769 204.376 272.477 204.376 272.477C204.376 272.477 205.084 275.132 206.146 276.37C207.208 277.609 210.394 278.14 213.933 277.432C217.472 276.724 223.667 273.538 225.083 272.653C226.499 271.768 269.504 267.875 272.69 267.167C275.876 266.459 279.769 266.459 281.008 264.335C282.247 262.211 273.044 251.415 273.044 251.415Z" stroke="#263238" stroke-miterlimit="10" stroke-linecap="round" stroke-linejoin="round"/>
<path d="M309.324 208.054C309.324 208.054 305.43 218.673 300.475 225.752C295.52 232.831 293.396 240.264 296.582 248.228C299.768 256.192 306.67 257.962 306.67 257.962C306.67 257.962 304.192 281.323 304.9 287.517C305.608 293.711 315.165 300.967 329.5 301.498C343.835 302.029 356.224 296.897 356.224 291.941C356.224 286.986 346.136 260.616 346.136 255.129C346.136 249.643 347.021 232.476 342.243 217.079C337.464 201.683 320.651 196.728 309.324 208.054Z" fill="#C340F1"/>
<mask id="mask3_188_991" style="mask-type:luminance" maskUnits="userSpaceOnUse" x="295" y="201" width="62" height="101">
<path d="M309.324 208.054C309.324 208.054 305.43 218.673 300.475 225.752C295.52 232.831 293.396 240.264 296.582 248.228C299.768 256.192 306.67 257.962 306.67 257.962C306.67 257.962 304.192 281.323 304.9 287.517C305.608 293.711 315.165 300.967 329.5 301.498C343.835 302.029 356.224 296.897 356.224 291.941C356.224 286.986 346.136 260.616 346.136 255.129C346.136 249.643 347.021 232.476 342.243 217.079C337.464 201.683 320.651 196.728 309.324 208.054Z" fill="white"/>
</mask>
<g mask="url(#mask3_188_991)">
<path opacity="0.2" d="M342.242 217.08C339.668 208.785 333.599 203.528 326.778 202.207C323.487 202.936 314.503 205.044 312.259 205.571C311.25 206.292 310.266 207.111 309.324 208.054C309.324 208.054 305.43 218.673 300.475 225.752C297.153 230.498 295.113 235.405 295.084 240.523C308.143 243.609 328.08 248.633 326.105 249.197C323.232 250.018 310.919 243.451 314.613 247.555C318.307 251.659 338.007 270.539 332.261 268.897C326.515 267.255 313.792 253.711 317.075 260.278C320.358 266.845 329.388 277.516 326.515 277.516C323.642 277.516 308.456 262.33 313.792 271.36C319.128 280.389 343.343 294.754 335.545 296.806C331.044 297.991 321.493 297.674 315.95 298.612C319.706 300.212 324.281 301.304 329.5 301.497C343.835 302.028 356.224 296.895 356.224 291.94C356.224 286.985 346.136 260.615 346.136 255.128C346.136 249.644 347.021 232.477 342.242 217.08Z" fill="black"/>
</g>
<path d="M309.324 208.054C309.324 208.054 305.43 218.673 300.475 225.752C295.52 232.831 293.396 240.264 296.582 248.228C299.768 256.192 306.67 257.962 306.67 257.962C306.67 257.962 304.192 281.323 304.9 287.517C305.608 293.711 315.165 300.967 329.5 301.498C343.835 302.029 356.224 296.897 356.224 291.941C356.224 286.986 346.136 260.616 346.136 255.129C346.136 249.643 347.021 232.476 342.243 217.079C337.464 201.683 320.651 196.728 309.324 208.054Z" stroke="#263238" stroke-miterlimit="10" stroke-linecap="round" stroke-linejoin="round"/>
<path d="M311.5 250.999C311.5 250.999 324.5 271.999 343.5 277.999" stroke="#263238" stroke-miterlimit="10" stroke-linecap="round" stroke-linejoin="round"/>
<path d="M310 254.499C310 254.499 315 270.999 328 278.999" stroke="#263238" stroke-miterlimit="10" stroke-linecap="round" stroke-linejoin="round"/>
<path d="M312.682 241.281C312.682 241.281 324.428 236.161 329.246 232.848" stroke="#263238" stroke-miterlimit="10" stroke-linecap="round" stroke-linejoin="round"/>
<path d="M307.863 242.485C307.863 242.485 312.079 243.389 322.921 242.485" stroke="#263238" stroke-miterlimit="10" stroke-linecap="round" stroke-linejoin="round"/>
<path d="M308.262 210.709C308.262 210.709 304.899 212.656 300.829 216.903C296.759 221.15 277.114 250.883 277.114 250.883C277.114 250.883 282.954 263.095 284.724 263.448C286.494 263.802 317.288 237.432 320.12 234.247C322.952 231.061 324.722 225.221 323.837 222.744" fill="#C340F1"/>
<mask id="mask4_188_991" style="mask-type:luminance" maskUnits="userSpaceOnUse" x="277" y="210" width="48" height="54">
<path d="M308.262 210.709C308.262 210.709 304.899 212.656 300.829 216.903C296.759 221.15 277.114 250.883 277.114 250.883C277.114 250.883 282.954 263.095 284.724 263.448C286.494 263.802 317.288 237.432 320.12 234.247C322.952 231.061 324.722 225.221 323.837 222.744" fill="white"/>
</mask>
<g mask="url(#mask4_188_991)">
<path opacity="0.2" d="M320.12 234.247C322.952 231.061 324.722 225.221 323.837 222.744L316.846 217.342L314.614 219.649C314.614 219.649 314.459 228.711 306.406 233.603C298.353 238.495 294.914 238.528 293.683 244.684C292.452 250.84 296.556 252.482 291.631 253.303C286.706 254.124 283.423 254.534 283.423 257.818C283.423 258.792 283.533 260.636 283.793 262.691C284.163 263.123 284.484 263.401 284.727 263.449C286.494 263.802 317.288 237.433 320.12 234.247Z" fill="black"/>
</g>
<path d="M308.262 210.709C308.262 210.709 304.899 212.656 300.829 216.903C296.759 221.15 277.114 250.883 277.114 250.883C277.114 250.883 282.954 263.095 284.724 263.448C286.494 263.802 317.288 237.432 320.12 234.247C322.952 231.061 324.722 225.221 323.837 222.744" stroke="#263238" stroke-miterlimit="10" stroke-linecap="round" stroke-linejoin="round"/>
<path d="M270.389 252.653C270.389 252.653 275.875 265.749 277.114 267.165C278.353 268.581 284.901 267.696 287.025 266.103C289.149 264.51 288.795 261.325 288.795 261.325C288.795 261.325 280.654 246.99 279.769 246.282C278.884 245.574 278.53 247.167 274.814 248.406C271.097 249.644 269.681 250.175 270.389 252.653Z" fill="white" stroke="#263238" stroke-miterlimit="10" stroke-linecap="round" stroke-linejoin="round"/>
<path d="M279.238 174.607C279.238 174.607 278.884 179.739 279.769 181.332C280.654 182.925 283.132 184.518 283.132 186.641C283.132 188.765 281.362 191.596 281.893 193.189C282.424 194.782 285.256 194.959 285.256 194.959C285.256 194.959 290.565 201.507 292.158 203.808C293.751 206.109 294.459 205.224 296.936 204.516C299.414 203.808 304.723 199.207 307.732 195.667C310.741 192.127 305.785 181.332 299.237 174.076C292.689 166.82 282.955 166.997 280.831 169.121C278.707 171.244 279.238 174.607 279.238 174.607Z" fill="white"/>
<mask id="mask5_188_991" style="mask-type:luminance" maskUnits="userSpaceOnUse" x="279" y="167" width="30" height="39">
<path d="M279.238 174.607C279.238 174.607 278.884 179.739 279.769 181.332C280.654 182.925 283.132 184.518 283.132 186.641C283.132 188.765 281.362 191.596 281.893 193.189C282.424 194.782 285.256 194.959 285.256 194.959C285.256 194.959 290.565 201.507 292.158 203.808C293.751 206.109 294.459 205.224 296.936 204.516C299.414 203.808 304.723 199.207 307.732 195.667C310.741 192.127 305.785 181.332 299.237 174.076C292.689 166.82 282.955 166.997 280.831 169.121C278.707 171.244 279.238 174.607 279.238 174.607Z" fill="white"/>
</mask>
<g mask="url(#mask5_188_991)">
<path d="M293.27 169.646C292.45 173.69 291.631 180.522 294.092 185.172C297.786 192.149 300.659 195.843 298.607 201.589C298.241 202.612 297.863 203.513 297.488 204.312C300.135 203.176 304.93 198.963 307.732 195.666C310.741 192.126 305.785 181.331 299.237 174.075C297.417 172.058 295.35 170.632 293.27 169.646Z" fill="#C340F1"/>
</g>
<mask id="mask6_188_991" style="mask-type:luminance" maskUnits="userSpaceOnUse" x="279" y="167" width="30" height="39">
<path d="M279.238 174.607C279.238 174.607 278.884 179.739 279.769 181.332C280.654 182.925 283.132 184.518 283.132 186.641C283.132 188.765 281.362 191.596 281.893 193.189C282.424 194.782 285.256 194.959 285.256 194.959C285.256 194.959 290.565 201.507 292.158 203.808C293.751 206.109 294.459 205.224 296.936 204.516C299.414 203.808 304.723 199.207 307.732 195.667C310.741 192.127 305.785 181.332 299.237 174.076C292.689 166.82 282.955 166.997 280.831 169.121C278.707 171.244 279.238 174.607 279.238 174.607Z" fill="white"/>
</mask>
<g mask="url(#mask6_188_991)">
<path opacity="0.5" d="M293.27 169.646C292.45 173.69 291.631 180.522 294.092 185.172C297.786 192.149 300.659 195.843 298.607 201.589C298.241 202.612 297.863 203.513 297.488 204.312C300.135 203.176 304.93 198.963 307.732 195.666C310.741 192.126 305.785 181.331 299.237 174.075C297.417 172.058 295.35 170.632 293.27 169.646Z" fill="white"/>
</g>
<mask id="mask7_188_991" style="mask-type:luminance" maskUnits="userSpaceOnUse" x="279" y="167" width="30" height="39">
<path d="M279.238 174.607C279.238 174.607 278.884 179.739 279.769 181.332C280.654 182.925 283.132 184.518 283.132 186.641C283.132 188.765 281.362 191.596 281.893 193.189C282.424 194.782 285.256 194.959 285.256 194.959C285.256 194.959 290.565 201.507 292.158 203.808C293.751 206.109 294.459 205.224 296.936 204.516C299.414 203.808 304.723 199.207 307.732 195.667C310.741 192.127 305.785 181.332 299.237 174.076C292.689 166.82 282.955 166.997 280.831 169.121C278.707 171.244 279.238 174.607 279.238 174.607Z" fill="white"/>
</mask>
<g mask="url(#mask7_188_991)">
<path d="M283.132 182.217C283.132 182.217 283.132 179.562 286.318 181.332" stroke="#263238" stroke-miterlimit="10" stroke-linecap="round" stroke-linejoin="round"/>
</g>
<mask id="mask8_188_991" style="mask-type:luminance" maskUnits="userSpaceOnUse" x="279" y="167" width="30" height="39">
<path d="M279.238 174.607C279.238 174.607 278.884 179.739 279.769 181.332C280.654 182.925 283.132 184.518 283.132 186.641C283.132 188.765 281.362 191.596 281.893 193.189C282.424 194.782 285.256 194.959 285.256 194.959C285.256 194.959 290.565 201.507 292.158 203.808C293.751 206.109 294.459 205.224 296.936 204.516C299.414 203.808 304.723 199.207 307.732 195.667C310.741 192.127 305.785 181.332 299.237 174.076C292.689 166.82 282.955 166.997 280.831 169.121C278.707 171.244 279.238 174.607 279.238 174.607Z" fill="white"/>
</mask>
<g mask="url(#mask8_188_991)">
<path d="M285.401 184.684L285.822 187.127C285.822 187.127 287.76 187.801 289.192 185.273" stroke="#263238" stroke-miterlimit="10" stroke-linecap="round" stroke-linejoin="round"/>
</g>
<path d="M279.238 174.607C279.238 174.607 278.884 179.739 279.769 181.332C280.654 182.925 283.132 184.518 283.132 186.641C283.132 188.765 281.362 191.596 281.893 193.189C282.424 194.782 285.256 194.959 285.256 194.959C285.256 194.959 290.565 201.507 292.158 203.808C293.751 206.109 294.459 205.224 296.936 204.516C299.414 203.808 304.723 199.207 307.732 195.667C310.741 192.127 305.785 181.332 299.237 174.076C292.689 166.82 282.955 166.997 280.831 169.121C278.707 171.244 279.238 174.607 279.238 174.607Z" stroke="#263238" stroke-miterlimit="10" stroke-linecap="round" stroke-linejoin="round"/>
<path d="M273.752 166.819L273.725 167.526L273.398 176.199L282.955 177.438L285.079 173.722V177.792C285.079 177.792 289.149 177.261 293.751 179.031C298.352 180.801 304.193 193.366 303.839 198.499C303.485 203.631 299.061 204.693 299.592 212.48C300.123 220.267 311.98 228.054 321.006 223.099C330.032 218.144 331.448 211.772 335.164 213.011C338.88 214.25 344.544 221.86 348.083 211.064C351.622 200.268 350.03 193.366 341.712 184.517C333.394 175.668 326.846 176.376 325.784 169.297C324.722 162.218 322.421 152.661 314.811 147.352C307.201 142.043 296.228 141.689 286.848 145.759C277.468 149.829 273.752 162.218 273.752 166.819Z" fill="#263238"/>
<mask id="mask9_188_991" style="mask-type:luminance" maskUnits="userSpaceOnUse" x="273" y="143" width="77" height="82">
<path d="M273.752 166.819L273.725 167.526L273.398 176.199L282.955 177.438L285.079 173.722V177.792C285.079 177.792 289.149 177.261 293.751 179.031C298.352 180.801 304.193 193.366 303.839 198.499C303.485 203.631 299.061 204.693 299.592 212.48C300.123 220.267 311.98 228.054 321.006 223.099C330.032 218.144 331.448 211.772 335.164 213.011C338.88 214.25 344.544 221.86 348.083 211.064C351.622 200.268 350.03 193.366 341.712 184.517C333.394 175.668 326.846 176.376 325.784 169.297C324.722 162.218 322.421 152.661 314.811 147.352C307.201 142.043 296.228 141.689 286.848 145.759C277.468 149.829 273.752 162.218 273.752 166.819Z" fill="white"/>
</mask>
<g mask="url(#mask9_188_991)">
<path d="M279.074 170.883C279.01 170.883 278.948 170.876 278.885 170.862C277.861 170.632 277.719 168.858 277.623 164.556C277.598 163.442 277.572 162.29 277.502 161.371C277.494 161.28 277.485 161.204 277.477 161.141C276.635 162.159 274.827 166.391 273.471 170.169L272.53 169.831C276.148 159.751 277.328 159.898 277.714 159.955C278.403 160.048 278.474 160.954 278.499 161.295C278.572 162.241 278.599 163.407 278.624 164.534C278.663 166.31 278.728 169.226 279.106 169.839C279.252 169.725 279.602 169.347 280.221 168.109C281.263 166.025 282.182 165.066 283.14 165.118C284.325 165.172 284.938 166.741 285.385 167.887C285.519 168.229 285.657 168.582 285.75 168.722C286.189 168.839 287.75 167.246 288.585 166.389C288.831 166.136 289.076 165.884 289.314 165.646C289.69 165.27 290.187 164.851 290.735 164.932C291.29 165.016 291.564 165.535 291.855 166.084C292.123 166.591 292.426 167.167 292.98 167.609C293.296 167.862 293.462 167.823 293.526 167.808C294.248 167.634 295.119 165.694 296.129 163.446C296.364 162.923 296.613 162.368 296.88 161.79C297.21 161.074 297.663 160.24 298.399 160.311C299.337 160.381 299.76 161.842 300.403 164.052C300.926 165.854 301.519 167.898 302.396 169.025C302.617 169.309 302.933 169.631 303.22 169.594C304.004 169.473 304.865 167.159 305.379 165.776C305.694 164.928 305.966 164.197 306.239 163.741C306.52 163.273 306.879 163.185 307.093 163.194C307.834 163.219 308.337 164.2 309.032 165.558C309.552 166.574 310.264 167.965 310.854 168.201C310.971 168.247 311.015 168.226 311.04 168.215C311.428 168.019 311.765 166.732 312.035 165.698C312.349 164.497 312.675 163.256 313.253 162.389C313.604 161.863 314.062 161.551 314.616 161.462C315.922 161.252 317.381 162.381 318.353 163.138C318.302 162.63 318.196 161.927 318.104 161.316C317.603 157.993 317.459 156.377 318.291 155.922C318.679 155.71 319.141 155.832 319.664 156.289C320.358 156.897 321.264 157.91 322.222 158.983C324.055 161.037 326.832 164.141 327.954 163.84C328.267 163.757 328.431 163.28 328.513 162.893L329.492 163.103C329.286 164.063 328.855 164.636 328.211 164.807C326.605 165.232 324.41 162.935 321.477 159.649C320.539 158.6 319.655 157.608 319.007 157.042C318.899 156.947 318.819 156.893 318.765 156.862C318.541 157.495 318.912 159.95 319.094 161.166C319.449 163.519 319.523 164.147 319.062 164.44C318.86 164.568 318.61 164.559 318.393 164.415C318.223 164.302 318.007 164.134 317.759 163.94C316.974 163.329 315.655 162.314 314.777 162.447C314.501 162.492 314.281 162.649 314.086 162.942C313.601 163.67 313.297 164.829 313.004 165.95C312.616 167.43 312.282 168.708 311.491 169.107C311.276 169.215 310.926 169.306 310.484 169.13C309.546 168.755 308.833 167.361 308.143 166.014C307.83 165.404 307.375 164.515 307.102 164.25C307.1 164.252 307.099 164.254 307.098 164.256C306.872 164.632 306.603 165.357 306.318 166.124C305.578 168.115 304.738 170.372 303.373 170.582C302.764 170.674 302.168 170.358 301.608 169.639C300.613 168.36 299.992 166.219 299.443 164.33C299.1 163.149 298.633 161.54 298.302 161.309C298.302 161.35 298.106 161.522 297.789 162.208C297.523 162.783 297.276 163.334 297.042 163.855C295.788 166.646 294.96 168.49 293.762 168.779C293.291 168.892 292.822 168.76 292.357 168.388C291.641 167.816 291.255 167.084 290.972 166.55C290.843 166.305 290.666 165.97 290.571 165.915C290.575 165.923 290.417 165.958 290.023 166.351C289.788 166.586 289.546 166.834 289.302 167.085C287.644 168.788 286.585 169.809 285.671 169.734C285.361 169.705 285.1 169.546 284.919 169.275C284.766 169.045 284.628 168.694 284.455 168.249C284.167 167.512 283.631 166.14 283.095 166.116C282.931 166.082 282.261 166.264 281.116 168.555C280.301 170.182 279.693 170.883 279.074 170.883Z" fill="#575757"/>
<path d="M298.963 211.063C298.963 211.063 301.44 201.831 303.917 204.758C306.394 207.685 308.196 208.586 308.421 206.109C308.646 203.632 308.421 200.029 310.898 203.407C313.375 206.785 319.455 210.162 319.905 204.983C320.355 199.804 321.031 192.823 323.958 196.426C326.885 200.029 329.362 202.731 329.588 200.705C329.813 198.678 331.84 197.102 332.74 199.354C333.641 201.606 334.316 203.858 334.992 198.678C335.668 193.499 332.515 187.869 335.893 189.221C339.271 190.572 340.847 195.076 340.847 192.599C340.847 190.122 336.794 187.195 340.397 188.095C344 188.996 344.45 191.247 344.901 189.896C345.351 188.545 342.874 185.392 346.027 185.392" stroke="#575757" stroke-miterlimit="10"/>
</g>
<path d="M273.752 166.819L273.725 167.526L273.398 176.199L282.955 177.438L285.079 173.722V177.792C285.079 177.792 289.149 177.261 293.751 179.031C298.352 180.801 304.193 193.366 303.839 198.499C303.485 203.631 299.061 204.693 299.592 212.48C300.123 220.267 311.98 228.054 321.006 223.099C330.032 218.144 331.448 211.772 335.164 213.011C338.88 214.25 344.544 221.86 348.083 211.064C351.622 200.268 350.03 193.366 341.712 184.517C333.394 175.668 326.846 176.376 325.784 169.297C324.722 162.218 322.421 152.661 314.811 147.352C307.201 142.043 296.228 141.689 286.848 145.759C277.468 149.829 273.752 162.218 273.752 166.819Z" stroke="#263238" stroke-miterlimit="10" stroke-linecap="round" stroke-linejoin="round"/>
<path d="M67.226 434.359H433.168" stroke="#263238" stroke-miterlimit="10"/>
</svg>
