<svg width="163" height="190" viewBox="0 0 163 190" fill="none" xmlns="http://www.w3.org/2000/svg">
<path d="M121.091 27.5391H41.053C18.392 27.5391 0.0219727 45.9081 0.0219727 68.5681V148.611C0.0219727 171.269 18.392 189.636 41.053 189.636H68.56H68.642H93.585V189.628L93.61 189.636H121.092C143.753 189.636 162.123 171.269 162.123 148.611V68.5681C162.122 45.9081 143.752 27.5391 121.091 27.5391Z" fill="#9180D5"/>
<path d="M121.091 4.77246H41.053C18.392 4.77246 0.0219727 23.1415 0.0219727 45.8015V125.844C0.0219727 148.502 18.392 166.869 41.053 166.869H68.56H68.642H81.073H93.585H93.61H121.092C143.753 166.869 162.123 148.502 162.123 125.844V45.8015C162.122 23.1415 143.752 4.77246 121.091 4.77246Z" fill="#074785"/>
<path d="M121.091 0.807617H41.053C18.392 0.807617 0.0219727 19.1766 0.0219727 41.8386V121.88C0.0219727 144.54 18.392 162.907 41.053 162.907H68.56H68.642H81.073H93.585H93.61H121.092C143.753 162.907 162.123 144.54 162.123 121.88V41.8386C162.122 19.1766 143.752 0.807617 121.091 0.807617Z" fill="#7BEFE5"/>
<path d="M81.072 29.2314C50.031 29.2314 24.8669 54.3934 24.8669 85.4344C24.8669 116.475 50.031 141.639 81.072 141.639C112.112 141.639 137.276 116.475 137.276 85.4344C137.276 54.3934 112.113 29.2314 81.072 29.2314Z" fill="#9180D5"/>
<path fill-rule="evenodd" clip-rule="evenodd" d="M36.6879 101.764C35.1439 85.5861 41.1839 68.504 50.0339 55.205C50.2449 54.887 50.5849 54.598 50.9319 54.439C56.4789 51.902 62.2719 50.1521 68.2649 49.0351C68.7509 48.9451 69.0219 49.0621 69.2359 49.5061C69.7899 50.6641 70.4399 51.7791 70.9289 52.9631C71.2119 53.6471 71.5659 53.7541 72.2439 53.6861C78.5409 53.0551 84.7119 53.266 91.0109 53.702C91.6219 53.743 91.9379 53.636 92.1919 53.034C92.6899 51.852 93.3139 50.7271 93.8629 49.5651C94.0799 49.1061 94.3399 48.938 94.8849 49.038C100.85 50.142 106.611 51.8991 112.135 54.4111C112.508 54.5791 112.893 54.88 113.104 55.224C114.689 57.81 116.34 60.3651 117.767 63.0401C123.154 73.1361 125.867 84.493 126.338 95.895C126.467 99.028 126.558 102.118 126.096 105.233C126.037 105.635 125.8 106.128 125.484 106.36C119.317 110.882 112.602 114.352 105.353 116.788C103.311 117.476 103.269 117.491 102.097 115.669C100.84 113.714 99.6679 111.702 98.3989 109.618C99.8229 108.995 101.087 108.485 102.311 107.893C103.55 107.297 104.75 106.622 106.001 105.963C104.687 104.406 104.45 104.354 102.885 105.018C88.6449 111.063 74.4059 110.985 60.1739 104.993C58.7109 104.378 58.2269 104.503 57.0899 106.036C59.5909 107.245 62.0549 108.438 64.7169 109.725C63.1939 112.131 61.7019 114.459 60.2469 116.809C59.9179 117.34 59.5879 117.389 59.0219 117.207C51.3129 114.74 44.1779 111.141 37.6499 106.354C37.3349 106.124 37.1039 105.631 37.0429 105.229C36.8639 104.082 36.7969 102.918 36.6879 101.764ZM104.577 86.356C104.551 86.012 104.551 85.4831 104.46 84.9671C104.354 84.3671 104.212 83.7661 104.011 83.1901C102.045 77.5401 95.4849 75.7211 91.3209 79.6611C87.5249 83.2531 87.4989 89.811 91.2679 93.438C94.3609 96.417 98.9309 96.362 101.937 93.292C103.77 91.42 104.551 89.125 104.577 86.356ZM74.8869 86.5221C74.6569 85.4151 74.5409 84.268 74.1799 83.206C72.2849 77.651 65.9049 75.7631 61.6999 79.4761C57.6669 83.0351 57.5949 89.9061 61.5509 93.5481C64.6729 96.4211 69.1079 96.323 72.0909 93.296C73.9269 91.43 74.7059 89.1331 74.8869 86.5221Z" fill="white"/>
<path fill-rule="evenodd" clip-rule="evenodd" d="M104.577 86.356C104.551 89.126 103.769 91.42 101.937 93.292C98.931 96.362 94.36 96.417 91.268 93.438C87.499 89.811 87.525 83.253 91.321 79.661C95.485 75.721 102.045 77.54 104.011 83.19C104.212 83.766 104.354 84.368 104.46 84.967C104.551 85.483 104.551 86.012 104.577 86.356Z" fill="#9180D5"/>
<path fill-rule="evenodd" clip-rule="evenodd" d="M74.887 86.5219C74.706 89.1329 73.927 91.4299 72.09 93.2949C69.108 96.3219 64.672 96.4198 61.55 93.5468C57.594 89.9038 57.666 83.0329 61.699 79.4749C65.904 75.7619 72.285 77.6508 74.179 83.2048C74.541 84.2678 74.657 85.4149 74.887 86.5219Z" fill="#9180D5"/>
<path d="M19.6109 159.845C19.6109 159.845 19.6369 159.925 19.6809 160.075C19.7229 160.225 19.7919 160.446 19.8609 160.727C20.0049 161.291 20.1879 162.096 20.3579 163.067C20.4429 163.551 20.5269 164.077 20.6039 164.633C20.6859 165.188 20.7309 165.783 20.7809 166.395C20.8069 166.7 20.8259 167.012 20.8439 167.329C20.8639 167.643 20.8819 167.966 20.8929 168.286C20.9249 168.932 20.9349 169.589 20.9489 170.243C20.9499 170.893 20.9559 171.542 20.9379 172.181C20.9339 172.501 20.9249 172.818 20.9089 173.13C20.8969 173.445 20.8879 173.753 20.8669 174.058C20.8389 174.667 20.7799 175.259 20.7479 175.814C20.7099 176.371 20.6629 176.898 20.6129 177.386C20.5099 178.361 20.3849 179.179 20.2799 179.755C20.2309 180.042 20.1759 180.271 20.1459 180.425C20.1129 180.579 20.0909 180.661 20.0909 180.661C20.0909 180.661 20.0639 180.583 20.0199 180.432C19.9799 180.282 19.9099 180.061 19.8389 179.78C19.6939 179.217 19.5119 178.411 19.3399 177.434C19.2549 176.948 19.1719 176.418 19.0929 175.856C19.0129 175.295 18.9679 174.706 18.9179 174.094C18.8899 173.789 18.8749 173.479 18.8549 173.162C18.8329 172.849 18.8169 172.531 18.8059 172.209C18.7749 171.566 18.7649 170.914 18.7529 170.262C18.7519 169.615 18.7479 168.969 18.7659 168.334C18.7699 168.016 18.7819 167.699 18.7939 167.389C18.8069 167.076 18.8179 166.766 18.8379 166.463C18.8659 165.856 18.9259 165.27 18.9569 164.707C18.9949 164.144 19.0419 163.613 19.0919 163.123C19.1939 162.143 19.3179 161.322 19.4229 160.746C19.4719 160.461 19.5259 160.234 19.5559 160.08C19.5889 159.927 19.6109 159.845 19.6109 159.845Z" fill="#074785"/>
<path d="M33.2149 164.136C33.2149 164.136 33.2429 164.226 33.2859 164.392C33.3269 164.558 33.3959 164.802 33.4669 165.115C33.6109 165.738 33.7929 166.631 33.9639 167.703C34.0499 168.24 34.1329 168.82 34.2099 169.437C34.2909 170.05 34.3379 170.708 34.3869 171.384C34.4129 171.724 34.4309 172.07 34.4499 172.417C34.4699 172.767 34.4889 173.12 34.4989 173.478C34.5309 174.193 34.5419 174.917 34.5549 175.644C34.5559 176.361 34.5599 177.08 34.5429 177.787C34.5389 178.14 34.5289 178.49 34.5149 178.838C34.5029 179.184 34.4919 179.527 34.4719 179.863C34.4429 180.537 34.3839 181.191 34.3519 181.806C34.3139 182.421 34.2669 183.005 34.2169 183.544C34.1149 184.624 33.9889 185.528 33.8839 186.165C33.8349 186.483 33.7809 186.737 33.7499 186.905C33.7179 187.077 33.6959 187.171 33.6959 187.171C33.6959 187.171 33.6679 187.081 33.6249 186.917C33.5829 186.749 33.5139 186.507 33.4439 186.196C33.2989 185.573 33.1159 184.68 32.9439 183.6C32.8589 183.061 32.7749 182.473 32.6979 181.854C32.6169 181.231 32.5719 180.581 32.5219 179.905C32.4949 179.565 32.4779 179.221 32.4589 178.874C32.4379 178.526 32.4209 178.173 32.4089 177.817C32.3789 177.108 32.3689 176.385 32.3559 175.663C32.3549 174.948 32.3509 174.233 32.3689 173.53C32.3729 173.178 32.3839 172.829 32.3969 172.483C32.4089 172.137 32.4219 171.797 32.4409 171.462C32.4699 170.79 32.5289 170.142 32.5609 169.519C32.5989 168.898 32.6449 168.31 32.6949 167.767C32.7969 166.681 32.9209 165.773 33.0259 165.138C33.0759 164.82 33.1299 164.568 33.1589 164.398C33.1929 164.228 33.2149 164.136 33.2149 164.136Z" fill="#074785"/>
<path d="M46.82 165.246C46.82 165.246 46.848 165.334 46.891 165.5C46.93 165.666 47.001 165.912 47.07 166.225C47.216 166.848 47.397 167.739 47.569 168.811C47.653 169.348 47.738 169.928 47.815 170.545C47.896 171.158 47.941 171.817 47.991 172.494C48.018 172.832 48.037 173.178 48.055 173.525C48.075 173.877 48.094 174.23 48.104 174.588C48.135 175.301 48.147 176.027 48.159 176.752C48.161 177.471 48.166 178.188 48.148 178.895C48.143 179.249 48.133 179.6 48.12 179.946C48.107 180.292 48.097 180.635 48.077 180.973C48.048 181.645 47.989 182.299 47.958 182.914C47.92 183.531 47.873 184.113 47.823 184.652C47.72 185.732 47.596 186.638 47.49 187.275C47.441 187.593 47.388 187.843 47.356 188.015C47.324 188.187 47.302 188.279 47.302 188.279C47.302 188.279 47.275 188.191 47.23 188.025C47.188 187.859 47.12 187.615 47.05 187.304C46.904 186.681 46.721 185.788 46.55 184.708C46.465 184.169 46.381 183.583 46.304 182.962C46.223 182.339 46.178 181.689 46.127 181.013C46.101 180.675 46.083 180.329 46.064 179.982C46.043 179.634 46.026 179.283 46.015 178.927C45.984 178.216 45.975 177.493 45.962 176.771C45.961 176.056 45.957 175.341 45.976 174.638C45.979 174.286 45.991 173.937 46.005 173.591C46.016 173.247 46.027 172.905 46.048 172.57C46.077 171.896 46.135 171.25 46.167 170.627C46.205 170.006 46.251 169.418 46.302 168.875C46.404 167.789 46.528 166.881 46.632 166.246C46.683 165.928 46.736 165.678 46.765 165.508C46.798 165.336 46.82 165.246 46.82 165.246Z" fill="#074785"/>
<path d="M60.4239 165.246C60.4239 165.246 60.4509 165.334 60.4949 165.5C60.5359 165.666 60.6059 165.912 60.6749 166.225C60.8189 166.848 61.0019 167.739 61.1729 168.811C61.2579 169.348 61.3419 169.928 61.4189 170.545C61.4999 171.158 61.5449 171.817 61.5939 172.494C61.6219 172.832 61.6399 173.178 61.6589 173.525C61.6779 173.877 61.6969 174.23 61.7079 174.588C61.7399 175.301 61.7499 176.027 61.7639 176.752C61.7649 177.471 61.7699 178.188 61.7519 178.895C61.7479 179.249 61.7389 179.6 61.7249 179.946C61.7119 180.292 61.7019 180.635 61.6809 180.973C61.6539 181.645 61.5939 182.299 61.5629 182.914C61.5239 183.531 61.4779 184.113 61.4269 184.652C61.3239 185.732 61.1999 186.638 61.0949 187.275C61.0449 187.593 60.9909 187.843 60.9599 188.015C60.9279 188.187 60.9049 188.279 60.9049 188.279C60.9049 188.279 60.8789 188.191 60.8339 188.025C60.7929 187.859 60.7239 187.615 60.6529 187.304C60.5079 186.681 60.3249 185.788 60.1529 184.708C60.0689 184.169 59.9849 183.583 59.9059 182.962C59.8259 182.339 59.7799 181.689 59.7309 181.013C59.7029 180.675 59.6859 180.329 59.6679 179.982C59.6469 179.634 59.6299 179.283 59.6199 178.927C59.5889 178.216 59.5789 177.493 59.5659 176.771C59.5649 176.056 59.5619 175.341 59.5789 174.638C59.5829 174.286 59.5949 173.937 59.6079 173.591C59.6199 173.247 59.6309 172.905 59.6519 172.57C59.6799 171.896 59.7389 171.25 59.7719 170.627C59.8099 170.006 59.8559 169.418 59.9069 168.875C60.0079 167.789 60.1329 166.881 60.2369 166.246C60.2849 165.928 60.3389 165.678 60.3699 165.508C60.4029 165.336 60.4239 165.246 60.4239 165.246Z" fill="#074785"/>
<path d="M74.028 165.246C74.028 165.246 74.056 165.334 74.099 165.5C74.141 165.666 74.21 165.912 74.281 166.225C74.425 166.848 74.607 167.739 74.778 168.811C74.863 169.348 74.946 169.928 75.024 170.545C75.104 171.158 75.15 171.817 75.2 172.494C75.226 172.832 75.244 173.178 75.263 173.525C75.283 173.877 75.301 174.23 75.311 174.588C75.343 175.301 75.354 176.027 75.367 176.752C75.369 177.471 75.374 178.188 75.356 178.895C75.352 179.249 75.342 179.6 75.328 179.946C75.316 180.292 75.306 180.635 75.285 180.973C75.257 181.645 75.198 182.299 75.166 182.914C75.128 183.531 75.082 184.113 75.03 184.652C74.928 185.732 74.803 186.638 74.698 187.275C74.649 187.593 74.594 187.843 74.564 188.015C74.532 188.187 74.509 188.279 74.509 188.279C74.509 188.279 74.482 188.191 74.438 188.025C74.398 187.859 74.328 187.615 74.258 187.304C74.112 186.681 73.929 185.788 73.758 184.708C73.674 184.169 73.59 183.583 73.512 182.962C73.432 182.339 73.385 181.689 73.336 181.013C73.309 180.675 73.292 180.329 73.273 179.982C73.251 179.634 73.234 179.283 73.223 178.927C73.192 178.216 73.182 177.493 73.17 176.771C73.168 176.056 73.165 175.341 73.183 174.638C73.187 174.286 73.198 173.937 73.211 173.591C73.223 173.247 73.235 172.905 73.255 172.57C73.283 171.896 73.343 171.25 73.375 170.627C73.413 170.006 73.459 169.418 73.51 168.875C73.612 167.789 73.736 166.881 73.84 166.246C73.889 165.928 73.944 165.678 73.973 165.508C74.007 165.336 74.028 165.246 74.028 165.246Z" fill="#074785"/>
<path d="M87.6329 165.246C87.6329 165.246 87.6609 165.334 87.7039 165.5C87.7449 165.666 87.8139 165.912 87.8839 166.225C88.0289 166.848 88.2109 167.739 88.3819 168.811C88.4669 169.348 88.5509 169.928 88.6279 170.545C88.7099 171.158 88.7549 171.817 88.8049 172.494C88.8309 172.832 88.8509 173.178 88.8689 173.525C88.8899 173.877 88.9079 174.23 88.9179 174.588C88.9499 175.301 88.9609 176.027 88.9739 176.752C88.9749 177.471 88.9799 178.188 88.9619 178.895C88.9579 179.249 88.9479 179.6 88.9339 179.946C88.9219 180.292 88.9129 180.635 88.8919 180.973C88.8619 181.645 88.8049 182.299 88.7719 182.914C88.7349 183.531 88.6889 184.113 88.6369 184.652C88.5349 185.732 88.4099 186.638 88.3049 187.275C88.2549 187.593 88.2009 187.843 88.1709 188.015C88.1379 188.187 88.1159 188.279 88.1159 188.279C88.1159 188.279 88.0879 188.191 88.0449 188.025C88.0029 187.859 87.9339 187.615 87.8639 187.304C87.7189 186.681 87.5359 185.788 87.3649 184.708C87.2789 184.169 87.1959 183.583 87.1179 182.962C87.0369 182.339 86.9929 181.689 86.9419 181.013C86.9149 180.675 86.8989 180.329 86.8799 179.982C86.8599 179.634 86.8409 179.283 86.8309 178.927C86.7999 178.216 86.7909 177.493 86.7769 176.771C86.7769 176.056 86.7739 175.341 86.7919 174.638C86.7959 174.286 86.8069 173.937 86.8199 173.591C86.8309 173.247 86.8429 172.905 86.8639 172.57C86.8929 171.896 86.9519 171.25 86.9839 170.627C87.0219 170.006 87.0669 169.418 87.1179 168.875C87.2199 167.789 87.3449 166.881 87.4489 166.246C87.4989 165.928 87.5529 165.678 87.5819 165.508C87.6109 165.336 87.6329 165.246 87.6329 165.246Z" fill="#074785"/>
<path d="M101.237 165.246C101.237 165.246 101.264 165.334 101.308 165.5C101.349 165.666 101.418 165.912 101.487 166.225C101.633 166.848 101.815 167.739 101.986 168.811C102.071 169.348 102.155 169.928 102.232 170.545C102.313 171.158 102.358 171.817 102.407 172.494C102.435 172.832 102.454 173.178 102.472 173.525C102.492 173.877 102.51 174.23 102.521 174.588C102.552 175.301 102.562 176.027 102.576 176.752C102.578 177.471 102.583 178.188 102.565 178.895C102.562 179.249 102.551 179.6 102.538 179.946C102.525 180.292 102.515 180.635 102.495 180.973C102.466 181.645 102.408 182.299 102.376 182.914C102.338 183.531 102.293 184.113 102.241 184.652C102.138 185.732 102.014 186.638 101.908 187.275C101.859 187.593 101.805 187.843 101.774 188.015C101.742 188.187 101.719 188.279 101.719 188.279C101.719 188.279 101.691 188.191 101.649 188.025C101.607 187.859 101.538 187.615 101.467 187.304C101.322 186.681 101.139 185.788 100.968 184.708C100.882 184.169 100.798 183.583 100.721 182.962C100.64 182.339 100.595 181.689 100.545 181.013C100.518 180.675 100.502 180.329 100.481 179.982C100.46 179.634 100.444 179.283 100.434 178.927C100.402 178.216 100.393 177.493 100.38 176.771C100.379 176.056 100.376 175.341 100.393 174.638C100.397 174.286 100.409 173.937 100.422 173.591C100.434 173.247 100.445 172.905 100.466 172.57C100.494 171.896 100.553 171.25 100.586 170.627C100.623 170.006 100.669 169.418 100.72 168.875C100.822 167.789 100.946 166.881 101.05 166.246C101.1 165.928 101.154 165.678 101.183 165.508C101.216 165.336 101.237 165.246 101.237 165.246Z" fill="#074785"/>
<path d="M114.841 165.246C114.841 165.246 114.868 165.334 114.913 165.5C114.953 165.666 115.023 165.912 115.093 166.225C115.239 166.848 115.419 167.739 115.591 168.811C115.676 169.348 115.76 169.928 115.837 170.545C115.918 171.158 115.962 171.817 116.012 172.494C116.04 172.832 116.058 173.178 116.077 173.525C116.097 173.877 116.115 174.23 116.126 174.588C116.157 175.301 116.168 176.027 116.181 176.752C116.183 177.471 116.188 178.188 116.17 178.895C116.165 179.249 116.156 179.6 116.143 179.946C116.128 180.292 116.12 180.635 116.1 180.973C116.071 181.645 116.012 182.299 115.98 182.914C115.941 183.531 115.895 184.113 115.844 184.652C115.742 185.732 115.617 186.638 115.512 187.275C115.462 187.593 115.408 187.843 115.378 188.015C115.346 188.187 115.323 188.279 115.323 188.279C115.323 188.279 115.296 188.191 115.252 188.025C115.212 187.859 115.141 187.615 115.072 187.304C114.926 186.681 114.743 185.788 114.572 184.708C114.487 184.169 114.403 183.583 114.325 182.962C114.244 182.339 114.199 181.689 114.149 181.013C114.122 180.675 114.105 180.329 114.086 179.982C114.065 179.634 114.049 179.283 114.038 178.927C114.006 178.216 113.997 177.493 113.984 176.771C113.984 176.056 113.98 175.341 113.997 174.638C114.001 174.286 114.013 173.937 114.027 173.591C114.039 173.247 114.05 172.905 114.071 172.57C114.098 171.896 114.158 171.25 114.19 170.627C114.228 170.006 114.275 169.418 114.325 168.875C114.425 167.789 114.55 166.881 114.655 166.246C114.704 165.928 114.758 165.678 114.788 165.508C114.82 165.336 114.841 165.246 114.841 165.246Z" fill="#074785"/>
<path d="M128.446 164.136C128.446 164.136 128.473 164.226 128.516 164.392C128.557 164.558 128.626 164.802 128.696 165.115C128.841 165.738 129.022 166.631 129.193 167.703C129.278 168.24 129.362 168.82 129.44 169.437C129.521 170.05 129.566 170.708 129.616 171.384C129.643 171.724 129.662 172.07 129.679 172.417C129.7 172.767 129.718 173.12 129.728 173.478C129.76 174.193 129.771 174.917 129.784 175.644C129.785 176.361 129.791 177.08 129.773 177.787C129.769 178.14 129.759 178.49 129.744 178.838C129.733 179.184 129.723 179.527 129.702 179.863C129.674 180.537 129.615 181.191 129.582 181.806C129.545 182.421 129.499 183.005 129.448 183.544C129.345 184.624 129.22 185.528 129.116 186.165C129.066 186.483 129.012 186.737 128.981 186.905C128.948 187.077 128.926 187.171 128.926 187.171C128.926 187.171 128.9 187.081 128.855 186.917C128.815 186.749 128.744 186.507 128.675 186.196C128.529 185.573 128.347 184.68 128.175 183.6C128.09 183.061 128.006 182.473 127.928 181.854C127.847 181.231 127.802 180.581 127.753 179.905C127.725 179.565 127.709 179.221 127.69 178.874C127.669 178.526 127.651 178.173 127.641 177.817C127.609 177.108 127.601 176.385 127.588 175.663C127.586 174.948 127.583 174.233 127.601 173.53C127.605 173.178 127.616 172.829 127.629 172.483C127.642 172.137 127.653 171.797 127.673 171.462C127.701 170.79 127.761 170.142 127.792 169.519C127.83 168.898 127.877 168.31 127.926 167.767C128.029 166.681 128.152 165.773 128.258 165.138C128.307 164.82 128.362 164.568 128.391 164.398C128.424 164.228 128.446 164.136 128.446 164.136Z" fill="#074785"/>
<path d="M142.05 159.845C142.05 159.845 142.078 159.925 142.121 160.075C142.162 160.225 142.231 160.446 142.302 160.727C142.446 161.291 142.629 162.096 142.799 163.067C142.884 163.551 142.968 164.077 143.045 164.633C143.126 165.188 143.171 165.783 143.221 166.395C143.248 166.7 143.267 167.012 143.286 167.329C143.306 167.643 143.324 167.966 143.334 168.286C143.366 168.932 143.377 169.589 143.39 170.243C143.391 170.893 143.396 171.542 143.378 172.181C143.375 172.501 143.364 172.818 143.35 173.13C143.338 173.445 143.328 173.753 143.308 174.058C143.278 174.667 143.221 175.259 143.188 175.814C143.15 176.371 143.105 176.898 143.053 177.386C142.951 178.361 142.826 179.179 142.72 179.755C142.671 180.042 142.617 180.271 142.585 180.425C142.553 180.579 142.531 180.661 142.531 180.661C142.531 180.661 142.503 180.583 142.46 180.432C142.418 180.282 142.35 180.061 142.279 179.78C142.133 179.217 141.95 178.411 141.779 177.434C141.694 176.948 141.61 176.418 141.532 175.856C141.452 175.295 141.406 174.706 141.357 174.094C141.329 173.789 141.313 173.479 141.293 173.162C141.272 172.849 141.255 172.531 141.245 172.209C141.214 171.566 141.205 170.914 141.192 170.262C141.19 169.615 141.188 168.969 141.205 168.334C141.209 168.016 141.221 167.699 141.234 167.389C141.245 167.076 141.257 166.766 141.278 166.463C141.307 165.856 141.366 165.27 141.398 164.707C141.435 164.144 141.481 163.613 141.532 163.123C141.634 162.143 141.759 161.322 141.862 160.746C141.912 160.461 141.966 160.234 141.996 160.08C142.028 159.927 142.05 159.845 142.05 159.845Z" fill="#074785"/>
<path d="M155.654 146.884C155.654 146.884 155.683 146.962 155.726 147.107C155.766 147.252 155.836 147.462 155.905 147.734C156.051 148.275 156.233 149.048 156.404 149.978C156.489 150.445 156.573 150.949 156.65 151.484C156.731 152.015 156.776 152.588 156.826 153.173C156.853 153.468 156.871 153.767 156.89 154.07C156.91 154.375 156.928 154.681 156.939 154.992C156.97 155.609 156.981 156.24 156.995 156.871C156.995 157.492 157.001 158.115 156.983 158.728C156.979 159.035 156.97 159.339 156.956 159.64C156.943 159.941 156.933 160.238 156.913 160.531C156.884 161.115 156.825 161.683 156.794 162.217C156.755 162.752 156.709 163.258 156.658 163.725C156.556 164.663 156.431 165.448 156.325 166C156.276 166.275 156.223 166.494 156.191 166.643C156.159 166.793 156.137 166.872 156.137 166.872C156.137 166.872 156.109 166.796 156.065 166.653C156.024 166.508 155.955 166.298 155.885 166.028C155.739 165.487 155.556 164.712 155.384 163.774C155.299 163.307 155.215 162.799 155.137 162.26C155.056 161.719 155.011 161.155 154.961 160.567C154.935 160.274 154.917 159.975 154.898 159.674C154.876 159.371 154.86 159.067 154.849 158.758C154.819 158.141 154.808 157.514 154.796 156.887C154.795 156.268 154.791 155.647 154.808 155.035C154.813 154.73 154.824 154.428 154.838 154.129C154.85 153.828 154.861 153.531 154.882 153.24C154.91 152.656 154.969 152.095 155.001 151.554C155.039 151.015 155.085 150.505 155.136 150.034C155.238 149.091 155.361 148.304 155.466 147.753C155.515 147.476 155.57 147.259 155.599 147.112C155.633 146.962 155.654 146.884 155.654 146.884Z" fill="#074785"/>
<path d="M6.00594 146.884C6.00594 146.884 6.03394 146.962 6.07694 147.107C6.11794 147.252 6.18794 147.462 6.25694 147.734C6.40294 148.275 6.58394 149.048 6.75394 149.978C6.83994 150.445 6.92294 150.949 6.99994 151.484C7.08094 152.015 7.12594 152.588 7.17594 153.173C7.20394 153.468 7.22194 153.767 7.23994 154.07C7.25994 154.375 7.27894 154.681 7.28894 154.992C7.32094 155.609 7.33094 156.24 7.34394 156.871C7.34594 157.492 7.35094 158.115 7.33294 158.728C7.32794 159.035 7.31894 159.339 7.30494 159.64C7.29094 159.941 7.28194 160.238 7.26094 160.531C7.23394 161.115 7.17394 161.683 7.14194 162.217C7.10394 162.752 7.05794 163.258 7.00694 163.725C6.90494 164.663 6.78094 165.448 6.67494 166C6.62494 166.275 6.57194 166.494 6.54094 166.643C6.50794 166.793 6.48594 166.872 6.48594 166.872C6.48594 166.872 6.45894 166.796 6.41394 166.653C6.37294 166.508 6.30394 166.298 6.23294 166.028C6.08694 165.487 5.90494 164.712 5.73294 163.774C5.64794 163.307 5.56494 162.799 5.48694 162.26C5.40594 161.719 5.36094 161.155 5.31094 160.567C5.28394 160.274 5.26694 159.975 5.24694 159.674C5.22594 159.371 5.20894 159.067 5.19894 158.758C5.16694 158.141 5.15794 157.514 5.14494 156.887C5.14494 156.268 5.14094 155.647 5.15794 155.035C5.16194 154.73 5.17394 154.428 5.18794 154.129C5.19894 153.828 5.21094 153.531 5.23194 153.24C5.25994 152.656 5.31894 152.095 5.35194 151.554C5.38994 151.015 5.43494 150.505 5.48594 150.034C5.58794 149.091 5.71294 148.304 5.81694 147.753C5.86594 147.476 5.91994 147.259 5.94994 147.112C5.98494 146.962 6.00594 146.884 6.00594 146.884Z" fill="#074785"/>
<path d="M29.7959 136.347C29.2139 135.784 28.0449 127.882 26.9859 127.945C25.9219 128.009 24.9969 135.845 24.5009 136.363C23.5049 137.398 16.2199 138.131 16.2789 139.135C16.3389 140.137 23.4929 140.612 24.5039 141.59C25.0679 142.135 26.2539 150.057 27.3159 149.996C28.3779 149.933 29.2849 142.121 29.8019 141.586C30.7639 140.584 38.1059 139.813 38.0459 138.805C37.9859 137.798 30.7679 137.293 29.7959 136.347Z" fill="#29AEFD"/>
<path d="M137.76 25.5479C137.178 24.9839 136.009 17.0829 134.95 17.1459C133.887 17.2109 132.961 25.0459 132.465 25.5639C131.469 26.5969 124.184 27.3319 124.243 28.3359C124.303 29.3379 131.457 29.8129 132.468 30.7889C133.033 31.3359 134.219 39.2599 135.28 39.1969C136.342 39.1369 137.25 31.3199 137.766 30.7869C138.728 29.7869 146.07 29.0149 146.01 28.0059C145.949 26.9999 138.732 26.4939 137.76 25.5479Z" fill="#29AEFD"/>
<path fill-rule="evenodd" clip-rule="evenodd" d="M155.316 47.0422C155.704 42.2082 148.209 41.6101 147.822 46.4421C147.436 51.2721 154.928 51.8742 155.316 47.0422Z" fill="white"/>
<path fill-rule="evenodd" clip-rule="evenodd" d="M155.228 104.418C155.359 89.9493 155.181 75.4823 155.314 61.0123C155.354 56.2803 148.011 56.2093 147.969 60.9423C147.838 75.4133 148.016 89.8823 147.887 104.346C147.844 109.082 155.186 109.155 155.228 104.418Z" fill="white"/>
<path fill-rule="evenodd" clip-rule="evenodd" d="M155.333 118.978C155.709 114.259 148.389 113.671 148.012 118.392C147.634 123.111 154.953 123.697 155.333 118.978Z" fill="white"/>
<path fill-rule="evenodd" clip-rule="evenodd" d="M14.3049 48.6581C14.6679 44.1191 7.63094 43.5561 7.26694 48.0931C6.90294 52.6301 13.9399 53.1951 14.3049 48.6581Z" fill="white"/>
<path fill-rule="evenodd" clip-rule="evenodd" d="M14.2219 102.535C14.3439 88.9487 14.1779 75.3647 14.3019 61.7767C14.3399 57.3337 7.4449 57.2647 7.4049 61.7107C7.2839 75.2987 7.4499 88.8847 7.3299 102.469C7.2879 106.916 14.1829 106.982 14.2219 102.535Z" fill="white"/>
<path fill-rule="evenodd" clip-rule="evenodd" d="M14.3199 116.205C14.6739 111.775 7.7989 111.223 7.4459 115.656C7.0909 120.086 13.9639 120.636 14.3199 116.205Z" fill="white"/>
<path d="M127.986 146.807C128.218 146.36 128.549 145.799 128.804 145.368C129.632 143.968 130.137 143.081 130.109 142.511C130.093 142.208 129.877 141.874 128.956 140.579C128.511 139.954 127.783 138.929 127.42 138.274C128.084 138.569 129.126 139.17 129.764 139.538C131.114 140.319 131.577 140.572 131.91 140.572H131.941C132.484 140.547 133.257 140.003 134.575 139.048C134.998 138.741 135.553 138.342 135.991 138.062C135.754 138.523 135.405 139.115 135.141 139.566C134.324 140.953 133.825 141.832 133.852 142.384C133.866 142.693 134.087 143.032 135.027 144.355C135.463 144.968 136.177 145.972 136.537 146.617C135.864 146.322 134.806 145.711 134.159 145.336C132.753 144.525 132.362 144.318 132.045 144.318L132.014 144.32C131.453 144.345 130.632 144.922 129.34 145.859C128.936 146.153 128.409 146.536 127.986 146.807Z" fill="white"/>
<path d="M20.35 35.2197C20.583 34.7707 20.913 34.2097 21.168 33.7797C21.996 32.3797 22.501 31.4927 22.473 30.9227C22.457 30.6197 22.24 30.2857 21.32 28.9887C20.875 28.3637 20.147 27.3407 19.785 26.6857C20.449 26.9807 21.489 27.5817 22.128 27.9497C23.478 28.7287 23.942 28.9827 24.274 28.9827H24.305C24.849 28.9577 25.621 28.4147 26.94 27.4597C27.363 27.1527 27.918 26.7507 28.356 26.4717C28.119 26.9347 27.771 27.5267 27.506 27.9757C26.688 29.3647 26.189 30.2417 26.216 30.7937C26.231 31.1047 26.451 31.4437 27.391 32.7647C27.828 33.3797 28.541 34.3837 28.9 35.0287C28.228 34.7337 27.171 34.1227 26.523 33.7477C25.116 32.9367 24.726 32.7297 24.409 32.7297L24.378 32.7317C23.816 32.7567 22.996 33.3337 21.705 34.2707C21.299 34.5657 20.773 34.9467 20.35 35.2197Z" fill="white"/>
<path d="M49.09 138.97C49.09 138.97 49.279 139.103 49.632 139.353C49.982 139.605 50.495 139.99 51.164 140.421C51.501 140.638 51.85 140.898 52.268 141.14C52.679 141.386 53.122 141.652 53.597 141.939C54.08 142.205 54.594 142.486 55.135 142.785C55.694 143.053 56.26 143.365 56.875 143.644C57.496 143.914 58.118 144.238 58.8 144.496C59.134 144.635 59.475 144.775 59.822 144.918C60.173 145.047 60.529 145.18 60.89 145.314C61.609 145.589 62.367 145.822 63.13 146.08C63.516 146.201 63.911 146.305 64.305 146.426C64.699 146.547 65.097 146.662 65.506 146.762C67.121 147.207 68.823 147.539 70.554 147.856C72.288 148.149 74.063 148.366 75.844 148.518C77.626 148.664 79.415 148.725 81.177 148.735C82.938 148.71 84.675 148.665 86.351 148.514C86.77 148.492 87.184 148.442 87.596 148.399C88.005 148.352 88.415 148.321 88.816 148.27C89.618 148.161 90.407 148.069 91.169 147.936C91.55 147.872 91.929 147.819 92.299 147.752C92.668 147.68 93.031 147.611 93.389 147.541C94.109 147.422 94.788 147.238 95.453 147.101C96.116 146.955 96.74 146.775 97.344 146.63C97.94 146.458 98.507 146.298 99.038 146.148C100.092 145.812 101.022 145.527 101.769 145.244C102.528 144.98 103.113 144.746 103.516 144.588C103.92 144.436 104.137 144.354 104.137 144.354C104.137 144.354 103.947 144.485 103.591 144.731C103.229 144.967 102.712 145.348 102.006 145.743C101.313 146.167 100.445 146.638 99.43 147.145C98.916 147.383 98.368 147.639 97.784 147.897C97.195 148.135 96.575 148.397 95.918 148.639C94.601 149.114 93.155 149.594 91.592 149.977C90.815 150.194 90.003 150.346 89.177 150.528C88.763 150.618 88.341 150.68 87.915 150.755C87.49 150.825 87.06 150.905 86.623 150.958C86.187 151.015 85.748 151.071 85.305 151.132C84.861 151.179 84.413 151.214 83.962 151.257C83.061 151.355 82.144 151.378 81.22 151.421C79.372 151.476 77.491 151.417 75.616 151.28C73.745 151.102 71.877 150.866 70.062 150.495C69.608 150.411 69.159 150.3 68.71 150.2C68.263 150.098 67.818 149.995 67.381 149.87C66.943 149.753 66.508 149.634 66.076 149.516C65.649 149.379 65.225 149.245 64.805 149.11C64.385 148.981 63.973 148.831 63.567 148.68C63.16 148.53 62.755 148.387 62.363 148.227C61.582 147.889 60.808 147.596 60.086 147.229C59.724 147.053 59.365 146.879 59.012 146.709C58.666 146.524 58.327 146.34 57.992 146.158C57.657 145.98 57.332 145.799 57.02 145.605C56.708 145.414 56.401 145.226 56.102 145.044C55.508 144.669 54.957 144.276 54.432 143.917C53.919 143.534 53.44 143.163 52.991 142.813C52.554 142.45 52.153 142.1 51.787 141.774C51.415 141.456 51.104 141.118 50.809 140.84C50.212 140.283 49.819 139.789 49.525 139.469C49.242 139.144 49.09 138.97 49.09 138.97Z" fill="#29AEFD"/>
<path d="M46.203 48.5498C46.203 48.5498 46.057 48.7218 45.784 49.0458C45.646 49.2058 45.476 49.4028 45.275 49.6358C45.074 49.8678 44.867 50.1498 44.618 50.4498C44.374 50.7548 44.102 51.0828 43.83 51.4698C43.561 51.8588 43.236 52.2428 42.941 52.6988C42.324 53.5878 41.651 54.5988 40.978 55.7398C40.809 56.0228 40.635 56.3138 40.46 56.6088C40.293 56.9098 40.125 57.2158 39.953 57.5288C39.599 58.1458 39.272 58.8058 38.925 59.4778C38.255 60.8308 37.574 62.2708 36.952 63.7958C36.627 64.5538 36.336 65.3388 36.023 66.1258C35.878 66.5238 35.734 66.9248 35.589 67.3268C35.516 67.5278 35.442 67.7288 35.368 67.9318L35.162 68.5448C34.599 70.1798 34.098 71.8648 33.639 73.5608C33.167 75.2538 32.791 76.9728 32.424 78.6648C32.091 80.3638 31.78 82.0418 31.547 83.6768C31.316 85.3118 31.118 86.8998 30.993 88.4108C30.96 88.7898 30.927 89.1628 30.894 89.5298C30.871 89.8988 30.848 90.2608 30.825 90.6158C30.764 91.3308 30.758 92.0218 30.721 92.6858C30.688 93.3498 30.695 93.9868 30.675 94.5938C30.665 95.2008 30.681 95.7758 30.677 96.3208C30.703 97.4028 30.716 98.3538 30.77 99.1358C30.808 99.9208 30.854 100.536 30.888 100.958C30.916 101.38 30.93 101.606 30.93 101.606C30.93 101.606 30.861 101.389 30.732 100.987C30.612 100.583 30.405 99.9908 30.225 99.2198C30.021 98.4518 29.813 97.5108 29.611 96.4228C29.522 95.8778 29.425 95.2958 29.337 94.6788C29.265 94.0638 29.177 93.4128 29.117 92.7318C29 91.3728 28.906 89.8918 28.91 88.3258C28.897 86.7578 28.967 85.1028 29.107 83.3978C29.148 82.9718 29.188 82.5428 29.229 82.1088C29.27 81.6768 29.334 81.2438 29.387 80.8058C29.486 79.9308 29.64 79.0518 29.785 78.1628C30.104 76.3928 30.491 74.6058 30.968 72.8408C31.46 71.0788 31.99 69.3288 32.636 67.6458C33.261 65.9568 33.96 64.3238 34.723 62.7848C35.464 61.2378 36.295 59.7968 37.117 58.4568C37.55 57.7988 37.947 57.1458 38.388 56.5508C38.602 56.2478 38.813 55.9528 39.021 55.6618C39.24 55.3808 39.455 55.1028 39.666 54.8318C40.509 53.7518 41.351 52.8158 42.125 52.0188C42.221 51.9168 42.315 51.8198 42.408 51.7238C42.506 51.6298 42.6 51.5398 42.696 51.4488C42.885 51.2728 43.067 51.1008 43.24 50.9368C43.586 50.6048 43.928 50.3198 44.233 50.0638C44.83 49.5348 45.339 49.1828 45.678 48.9308C46.019 48.6828 46.203 48.5498 46.203 48.5498Z" fill="#7BEFE5"/>
<path d="M131.87 78.4543C131.87 78.4543 131.807 78.2373 131.688 77.8313C131.631 77.6283 131.56 77.3763 131.477 77.0813C131.395 76.7843 131.275 76.4563 131.161 76.0853C131.043 75.7123 130.918 75.3043 130.746 74.8623C130.571 74.4243 130.431 73.9403 130.214 73.4423C129.815 72.4383 129.344 71.3173 128.765 70.1263C128.621 69.8293 128.476 69.5243 128.327 69.2143C128.168 68.9093 128.006 68.5993 127.84 68.2843C127.521 67.6473 127.151 67.0093 126.784 66.3493C126.025 65.0423 125.201 63.6813 124.275 62.3183C123.823 61.6303 123.329 60.9533 122.847 60.2553C122.594 59.9173 122.34 59.5753 122.084 59.2323L121.701 58.7123L121.305 58.2003C120.254 56.8293 119.126 55.4793 117.966 54.1613C116.817 52.8313 115.592 51.5673 114.385 50.3273C113.154 49.1083 111.926 47.9233 110.694 46.8253C109.459 45.7273 108.245 44.6863 107.055 43.7453C106.758 43.5093 106.466 43.2763 106.176 43.0463C105.882 42.8233 105.593 42.6033 105.309 42.3883C104.747 41.9433 104.176 41.5563 103.642 41.1583C103.107 40.7633 102.572 40.4183 102.076 40.0643C101.576 39.7203 101.087 39.4183 100.638 39.1133C99.72 38.5353 98.92 38.0213 98.238 37.6333C97.565 37.2333 97.026 36.9303 96.657 36.7273C96.289 36.5163 96.093 36.4033 96.093 36.4033C96.093 36.4033 96.309 36.4663 96.717 36.5813C97.122 36.7023 97.729 36.8563 98.469 37.1343C99.221 37.3883 100.12 37.7363 101.141 38.1693C101.645 38.3963 102.184 38.6363 102.745 38.9053C103.299 39.1843 103.89 39.4713 104.489 39.7963C105.687 40.4503 106.973 41.1913 108.278 42.0603C109.592 42.9153 110.932 43.8863 112.275 44.9493C112.609 45.2173 112.944 45.4883 113.283 45.7623C113.62 46.0353 113.945 46.3283 114.281 46.6153C114.957 47.1803 115.603 47.7953 116.264 48.4063C117.562 49.6503 118.839 50.9613 120.046 52.3343C121.241 53.7173 122.408 55.1273 123.454 56.5963C124.517 58.0493 125.491 59.5363 126.352 61.0203C127.232 62.4953 127.974 63.9833 128.636 65.4093C128.945 66.1343 129.271 66.8253 129.524 67.5223C129.656 67.8683 129.786 68.2083 129.914 68.5403C130.027 68.8803 130.14 69.2103 130.249 69.5363C130.683 70.8373 130.998 72.0563 131.234 73.1413C131.264 73.2763 131.295 73.4093 131.323 73.5393C131.347 73.6723 131.37 73.8033 131.393 73.9303C131.437 74.1863 131.478 74.4323 131.518 74.6683C131.605 75.1393 131.652 75.5823 131.697 75.9773C131.808 76.7683 131.82 77.3873 131.843 77.8093C131.861 78.2273 131.87 78.4543 131.87 78.4543Z" fill="#7BEFE5"/>
<path d="M87.661 11.7134C87.661 9.42237 84.109 9.42237 84.109 11.7134C84.109 14.0554 84.838 20.9944 80.719 20.3364C77.475 19.8164 78.028 14.3183 78.03 11.9513C78.031 9.66034 74.48 9.66034 74.478 11.9513C74.473 16.2733 74.514 22.9203 80.037 23.8053C82.905 24.2623 85.508 22.9754 86.658 20.2724C87.807 17.5694 87.661 14.5904 87.661 11.7134Z" fill="#074785"/>
<path d="M61.9089 14.0556C57.0149 12.8216 52.1219 11.5866 47.2289 10.3526C44.6299 9.69655 43.5269 13.7046 46.1239 14.3586C48.8809 15.0556 51.6389 15.7516 54.3969 16.4466C51.6389 17.4756 48.8809 18.5036 46.1239 19.5326C43.6359 20.4606 44.7129 24.4776 47.2289 23.5386C52.1219 21.7146 57.0149 19.8906 61.9089 18.0635C63.7269 17.3856 64.0449 14.5946 61.9089 14.0556Z" fill="#074785"/>
<path d="M100.235 14.272C105.129 13.038 110.022 11.803 114.915 10.567C117.515 9.91298 118.617 13.921 116.02 14.575C113.263 15.27 110.505 15.968 107.747 16.663C110.505 17.69 113.263 18.72 116.02 19.747C118.507 20.677 117.431 24.692 114.915 23.755C110.022 21.929 105.129 20.105 100.235 18.28C98.4179 17.602 98.0979 14.811 100.235 14.272Z" fill="#074785"/>
</svg>
