<svg width="500" height="500" viewBox="0 0 500 500" fill="none" xmlns="http://www.w3.org/2000/svg">
<path d="M449.901 398.494H416.779V398.744H449.901V398.494Z" fill="#EBEBEB"/>
<path d="M331.22 401.208H322.527V401.458H331.22V401.208Z" fill="#EBEBEB"/>
<path d="M415.778 389.208H396.586V389.458H415.778V389.208Z" fill="#EBEBEB"/>
<path d="M95.652 390.889H52.459V391.139H95.652V390.889Z" fill="#EBEBEB"/>
<path d="M110.889 390.889H104.556V391.139H110.889V390.889Z" fill="#EBEBEB"/>
<path d="M225.147 395.111H131.471V395.361H225.147V395.111Z" fill="#EBEBEB"/>
<path d="M500 382.398H0V382.648H500V382.398Z" fill="#EBEBEB"/>
<path d="M350.073 376.592H445.25V249.947H350.073V376.592Z" fill="#F5F5F5"/>
<path d="M331.917 376.592H350.073V249.947H331.917V376.592Z" fill="#E6E6E6"/>
<path d="M356.25 290.1H438.583V259.345H356.25V290.1Z" fill="#FAFAFA"/>
<path d="M408.153 259.345L407.793 263.445C407.674 264.797 406.542 265.835 405.184 265.835H389.648C388.291 265.835 387.158 264.798 387.039 263.445L386.679 259.345H408.153Z" fill="#EBEBEB"/>
<path d="M356.25 324.215H438.583V293.46H356.25V324.215Z" fill="#FAFAFA"/>
<path d="M408.153 293.459L407.793 297.559C407.674 298.911 406.542 299.949 405.184 299.949H389.648C388.291 299.949 387.158 298.911 387.039 297.559L386.679 293.459H408.153Z" fill="#EBEBEB"/>
<path d="M356.25 358.329H438.583V327.574H356.25V358.329Z" fill="#FAFAFA"/>
<path d="M408.153 327.574L407.793 331.674C407.674 333.026 406.542 334.064 405.184 334.064H389.648C388.291 334.064 387.158 333.026 387.039 331.674L386.679 327.574H408.153Z" fill="#EBEBEB"/>
<path d="M356.25 382.915H437.583L438.583 376.582H356.25V382.915Z" fill="#E6E6E6"/>
<path d="M339.25 382.915H356.25V376.582H338.25L339.25 382.915Z" fill="#E0E0E0"/>
<path d="M394.482 250.084H426.982L423.376 208.868H390.876L394.482 250.084Z" fill="#FAFAFA"/>
<path d="M394.482 250.084H392.93L389.324 208.868H390.876L394.482 250.084Z" fill="#EBEBEB"/>
<path d="M397.427 245.882H423.3L420.43 213.07H394.557L397.427 245.882Z" fill="#F0F0F0"/>
<path d="M399.321 243.181H420.934L418.536 215.771H396.923L399.321 243.181Z" fill="#E6E6E6"/>
<path d="M385.35 250.084L387.582 224.573H355.229L352.997 250.084H385.35Z" fill="#F0F0F0"/>
<path d="M385.35 250.084L387.582 224.573H389.324L387.092 250.084H385.35Z" fill="#E0E0E0"/>
<path d="M382.279 247.483L384.056 227.174H358.3L356.523 247.483H382.279Z" fill="#EBEBEB"/>
<path d="M380.305 245.812L381.789 228.847H360.274L358.789 245.812H380.305Z" fill="#F5F5F5"/>
<path d="M310.644 365.771C310.644 372.531 309.583 376.904 307.796 379.709C306.452 381.82 304.04 383.006 301.537 383.006H291.749C289.247 383.006 286.835 381.819 285.49 379.709C283.703 376.903 282.642 372.531 282.642 365.771C282.642 355.966 286.917 348.116 288.313 341.848C288.816 339.591 287.142 332.674 287.142 332.674H306.142C306.142 332.674 304.468 339.592 304.971 341.848C306.369 348.116 310.644 355.966 310.644 365.771Z" fill="#EBEBEB"/>
<path d="M343 326.087C343 317.574 329.654 321.108 326.29 307.901C325.015 302.896 335.87 291.569 335.87 291.569H302.025C302.025 291.569 312.88 302.896 311.605 307.901C308.241 321.108 294.895 317.574 294.895 326.087C294.895 335.463 313.722 354.99 314.629 376.969C314.71 378.934 311.088 383.006 311.088 383.006H326.806C326.806 383.006 323.184 378.934 323.265 376.969C324.173 354.99 343 335.463 343 326.087Z" fill="#F5F5F5"/>
<path d="M332.771 348.21C334.738 344.072 330.671 330.005 330.671 330.005H345.338C345.338 330.005 341.27 344.073 343.237 348.21C344.626 351.131 347.785 352.996 347.785 356.452V377.224C347.785 382.603 343.384 383.005 338.004 383.005C332.624 383.005 328.223 382.604 328.223 377.224V356.452C328.223 352.996 331.382 351.131 332.771 348.21Z" fill="#F0F0F0"/>
<path d="M165.152 225.528C156.726 221.879 151.918 214.179 154.437 208.363C156.955 202.547 165.861 200.784 174.287 204.432C182.715 208.081 187.522 215.782 185.004 221.598C182.485 227.414 173.58 229.177 165.152 225.528ZM171.86 210.037C167.911 208.327 163.739 209.154 162.559 211.879C161.379 214.604 163.631 218.212 167.58 219.922C171.529 221.632 175.702 220.806 176.882 218.081C178.062 215.356 175.808 211.747 171.86 210.037Z" fill="#E6E6E6"/>
<path d="M175.066 210.36L171.062 208.626L195.259 152.691C195.738 151.585 197.022 151.076 198.128 151.555C199.233 152.034 199.742 153.317 199.263 154.423L175.066 210.36Z" fill="#E6E6E6"/>
<path d="M201.117 159.831L193.434 156.474L195.167 152.47L202.851 155.827L201.117 159.831Z" fill="#E6E6E6"/>
<path d="M197.33 164.308L191.828 161.918L193.562 157.914L199.063 160.304L197.33 164.308Z" fill="#E6E6E6"/>
<path d="M191.343 165.564L189.609 169.568L195.779 172.24L197.513 168.236L191.343 165.564Z" fill="#E6E6E6"/>
<path d="M176.623 204.389L174.423 203.437C173.327 202.962 172.823 201.689 173.298 200.593L173.313 200.559C173.788 199.463 175.061 198.959 176.157 199.434L178.357 200.386C179.453 200.861 179.957 202.134 179.482 203.23L179.467 203.264C178.992 204.359 177.719 204.863 176.623 204.389Z" fill="#E6E6E6"/>
<path d="M348.469 185.161C355.145 189.609 356.868 198.796 352.307 205.641C347.747 212.485 338.604 214.435 331.928 209.987C325.251 205.538 323.529 196.35 328.089 189.506C332.65 182.661 341.792 180.713 348.469 185.161ZM336.324 203.39C339.453 205.474 343.736 204.561 345.873 201.354C348.01 198.147 347.203 193.842 344.074 191.758C340.945 189.673 336.661 190.586 334.524 193.793C332.388 197 333.195 201.306 336.324 203.39Z" fill="#E6E6E6"/>
<path d="M334.707 201.614L338.846 204.372L309.232 249.692C308.471 250.835 306.926 251.145 305.783 250.383C304.64 249.622 304.331 248.078 305.092 246.936L334.707 201.614Z" fill="#E6E6E6"/>
<path d="M305.278 237.054L313.988 242.904L309.64 249.43L300.913 243.569C299.66 242.728 299.324 241.031 300.16 239.775L301.47 237.81C302.312 236.547 304.019 236.209 305.278 237.054Z" fill="#E6E6E6"/>
<path d="M227.537 98.5564L222.94 110.464C222.526 111.537 221.32 112.071 220.247 111.657C219.174 111.243 218.64 110.037 219.054 108.963L223.651 97.0554C225.136 93.2104 223.216 88.8714 219.37 87.3864L215.11 85.7414C211.265 84.2564 206.927 86.1794 205.443 90.0254L203.566 94.8874L199.68 93.3874L201.557 88.5254C203.869 82.5354 210.624 79.5444 216.611 81.8554L220.871 83.5004C226.857 85.8124 229.849 92.5664 227.537 98.5564Z" fill="#F0F0F0"/>
<path d="M226.81 100.432C226.504 100.037 226.088 99.7149 225.589 99.5219L202.388 90.5649C201.871 90.3649 201.327 90.3239 200.822 90.4259C199.895 90.6079 199.074 91.2489 198.709 92.1939L189.752 115.395C189.185 116.863 189.913 118.507 191.382 119.074L214.583 128.031C216.051 128.598 217.695 127.87 218.262 126.401L227.219 103.2C227.591 102.238 227.406 101.195 226.81 100.432ZM209.194 118.36L201.836 115.519L205.726 108.728C205.236 107.743 205.146 106.561 205.574 105.451C206.386 103.349 208.748 102.297 210.851 103.109C212.953 103.921 214.002 106.289 213.191 108.391C212.763 109.501 211.902 110.315 210.871 110.714L209.194 118.36Z" fill="#E6E6E6"/>
<path d="M69.1569 369.456H254.286V269.824H69.1569V369.456Z" fill="#E6E6E6"/>
<path d="M239.445 382.384H251.08V373.593H239.445V382.384Z" fill="#E6E6E6"/>
<path d="M55.0254 382.385H66.6604L66.6604 262.413H55.0254L55.0254 382.385Z" fill="#E6E6E6"/>
<path d="M66.521 262.412V382.384H72.726V375.661H251.08V382.384H257.286V262.412H254.183H251.08H72.727H69.624H66.521ZM72.727 273.272H158.801V314.941H72.727V273.272ZM251.08 364.802H165.006V273.272H251.08V364.802ZM72.727 364.802V321.146H158.801V364.802H72.727Z" fill="#F0F0F0"/>
<path d="M165.006 364.802H245.262V277.754H165.006V364.802Z" fill="#F5F5F5"/>
<path d="M168.64 318.669C168.64 320.728 170.309 322.398 172.369 322.398C174.428 322.398 176.098 320.729 176.098 318.669C176.098 316.609 174.429 314.94 172.369 314.94C170.31 314.941 168.64 316.61 168.64 318.669Z" fill="#FAFAFA"/>
<path d="M172.369 322.398C173.873 322.398 175.161 321.503 175.75 320.221C175.968 320.695 176.097 321.217 176.097 321.772C176.097 323.831 174.428 325.501 172.368 325.501C170.309 325.501 168.639 323.832 168.639 321.772C168.639 321.217 168.769 320.694 168.986 320.221C169.577 321.503 170.865 322.398 172.369 322.398Z" fill="#E0E0E0"/>
<path d="M214.137 364.802H194.99L185.841 277.754H204.988L214.137 364.802Z" fill="#FAFAFA"/>
<path d="M190.086 364.802H186.275L177.126 277.754H180.937L190.086 364.802Z" fill="#FAFAFA"/>
<path d="M139.403 314.9H146.987V277.668H139.403V314.9Z" fill="#FAFAFA"/>
<path d="M107.956 314.9H115.54V277.668H107.956V314.9Z" fill="#F5F5F5"/>
<path d="M131.819 314.9H139.403V280.284H131.819V314.9Z" fill="#F5F5F5"/>
<path d="M115.541 314.9H123.125V280.284H115.541V314.9Z" fill="#FAFAFA"/>
<path d="M123.124 314.9H128.025V277.668H123.124V314.9Z" fill="#EBEBEB"/>
<path d="M128.026 314.9H131.818V280.284H128.026V314.9Z" fill="#FAFAFA"/>
<path d="M100.372 314.9H107.956V277.668H100.372V314.9Z" fill="#EBEBEB"/>
<path d="M92.7873 314.9H100.371V280.284H92.7873V314.9Z" fill="#E6E6E6"/>
<path d="M76.5098 314.9H84.0938V280.284H76.5098V314.9Z" fill="#E6E6E6"/>
<path d="M84.0934 314.9H88.9944V277.668H84.0934V314.9Z" fill="#FAFAFA"/>
<path d="M88.9949 314.9H92.7869V280.284H88.9949V314.9Z" fill="#EBEBEB"/>
<path d="M72.7173 314.9H76.5093V278.549H72.7173V314.9Z" fill="#EBEBEB"/>
<path d="M80.301 327.569H72.717V364.801H80.301V327.569Z" fill="#EBEBEB"/>
<path d="M111.748 327.569H104.164V364.801H111.748V327.569Z" fill="#FAFAFA"/>
<path d="M87.885 330.187H80.301V364.803H87.885V330.187Z" fill="#FAFAFA"/>
<path d="M104.163 330.187H96.5791V364.803H104.163V330.187Z" fill="#EBEBEB"/>
<path d="M96.579 327.569H91.678V364.801H96.579V327.569Z" fill="#FAFAFA"/>
<path d="M91.678 330.187H87.886V364.803H91.678V330.187Z" fill="#F5F5F5"/>
<path d="M119.332 327.569H111.748V364.801H119.332V327.569Z" fill="#EBEBEB"/>
<path d="M126.916 330.187H119.332V364.803H126.916V330.187Z" fill="#F5F5F5"/>
<path d="M143.194 330.187H135.61V364.803H143.194V330.187Z" fill="#E6E6E6"/>
<path d="M135.61 327.569H130.709V364.801H135.61V327.569Z" fill="#FAFAFA"/>
<path d="M151.888 327.569H146.987V364.801H151.888V327.569Z" fill="#FAFAFA"/>
<path d="M130.709 330.187H126.917V364.803H130.709V330.187Z" fill="#EBEBEB"/>
<path d="M146.987 328.451H143.195V364.802H146.987V328.451Z" fill="#EBEBEB"/>
<path d="M81.1801 198.288C81.1801 198.288 79.9071 198.874 79.3251 200.058C78.7431 201.242 80.5481 203.428 80.5481 203.428C80.5481 203.428 82.0631 204.483 83.5691 203.799C85.0751 203.115 85.0751 203.115 85.0751 203.115C85.0751 203.115 82.5001 198.647 81.2501 198.602L81.1801 198.288Z" fill="#E6E6E6"/>
<path d="M87.628 198.253C87.812 200.372 86.498 203.046 84.606 203.21C82.714 203.374 80.96 200.967 80.776 198.847C80.592 196.728 82.12 196.521 84.012 196.357C85.903 196.193 87.444 196.134 87.628 198.253Z" fill="#E6E6E6"/>
<path d="M82.085 197.63C82.085 197.63 83.531 198.782 86.51 198.109C86.51 198.109 81.811 201.244 82.085 197.63Z" fill="#E6E6E6"/>
<path d="M83.3601 197.209C83.3601 197.209 85.0281 196.919 85.0521 197.615C85.0521 197.615 86.4671 197.536 86.2711 196.944C86.0761 196.352 83.3601 197.209 83.3601 197.209Z" fill="#E6E6E6"/>
<g opacity="0.2">
<path d="M82.085 197.63C82.085 197.63 83.531 198.782 86.51 198.109C86.51 198.109 81.811 201.244 82.085 197.63Z" fill="#FAFAFA"/>
</g>
<g opacity="0.2">
<path d="M83.3601 197.209C83.3601 197.209 85.0281 196.919 85.0521 197.615C85.0521 197.615 86.4671 197.536 86.2711 196.944C86.0761 196.352 83.3601 197.209 83.3601 197.209Z" fill="#FAFAFA"/>
</g>
<path d="M81.429 203.88C82.031 204.856 83.259 205.358 84.397 205.222C85.536 205.086 86.561 204.375 87.218 203.435C87.875 202.495 88.188 201.346 88.261 200.202C88.28 199.906 88.303 199.165 87.913 199.05C87.555 198.945 87.334 199.446 87.168 199.679C86.691 200.351 86.185 200.98 85.578 201.541C84.989 202.084 84.338 202.56 83.641 202.954C83.445 203.064 81.535 204.052 81.429 203.88Z" fill="#E6E6E6"/>
<path d="M89.547 199.649C89.905 200.508 89.775 201.553 89.216 202.297C88.849 202.786 88.329 203.135 87.805 203.451C87.441 203.671 86.972 203.879 86.615 203.648C86.23 203.399 86.265 202.833 86.353 202.383C86.489 201.69 86.644 201 86.818 200.315C86.961 199.753 87.047 198.813 87.376 198.336C87.686 197.887 88.125 198.153 88.593 198.479C89.01 198.77 89.351 199.177 89.547 199.649Z" fill="#E6E6E6"/>
<g opacity="0.2">
<path d="M81.9132 202.707C81.1822 202.676 80.4912 202.181 80.2252 201.5C80.0292 200.996 80.0322 199.717 80.6852 199.555C80.9742 200.69 81.2242 201.722 81.9132 202.707Z" fill="#FAFAFA"/>
</g>
<g opacity="0.2">
<path d="M86.844 202.656C87.534 202.459 88.108 201.895 88.318 201.209C88.434 200.83 88.287 198.893 87.712 199.707C87.524 199.973 87.559 200.823 87.461 201.167C87.314 201.684 87.107 202.186 86.844 202.656Z" fill="#FAFAFA"/>
</g>
<g opacity="0.2">
<path d="M84.2022 203.852C84.7362 204.306 85.5892 204.328 86.1452 203.902C86.0722 204.277 84.8922 204.59 84.5262 204.697C83.5732 204.977 83.0742 204.558 82.1492 204.172C82.1492 204.172 83.6142 204.395 84.2022 203.852Z" fill="#FAFAFA"/>
</g>
<path d="M82.5471 242.802L82.6371 213.95L84.1171 205.176L84.6791 205.271L83.2061 214.005L83.1021 243.35L82.5471 242.802Z" fill="#E0E0E0"/>
<path d="M83.1481 213.803L82.6961 214.15C82.2431 213.56 81.8351 212.79 81.3631 211.898C80.6331 210.52 79.8051 208.957 78.5481 207.575L78.9701 207.192C80.2751 208.628 81.1211 210.224 81.8671 211.632C82.3261 212.501 82.7241 213.251 83.1481 213.803Z" fill="#E0E0E0"/>
<path d="M83.496 209.933C84.264 209.731 84.952 209.242 85.395 208.583C85.898 207.835 86.073 206.92 86.237 206.034C85.241 206.332 84.171 205.848 83.139 205.967C82.316 206.062 81.549 206.563 81.133 207.28C80.594 208.208 80.375 209.261 80.851 209.686C81.243 210.035 82.469 210.203 83.496 209.933Z" fill="#E6E6E6"/>
<path d="M79.6621 207.942C78.7421 208.525 77.5591 208.673 76.5241 208.335C75.4891 207.998 75.1871 206.442 74.7861 205.429C75.7251 205.236 78.1101 205.371 78.6501 205.425C79.1901 205.479 79.7381 205.723 80.0291 206.181C80.3191 206.639 80.2661 207.327 79.8261 207.644C79.7961 207.626 79.6621 207.942 79.6621 207.942Z" fill="#E6E6E6"/>
<path d="M74.9291 209.627C75.5621 208.861 77.1221 208.306 78.0991 208.484C79.0761 208.662 79.9101 209.335 80.2601 210.134C80.0021 210.754 79.3101 211.105 78.6401 211.153C77.9701 211.201 77.3091 211.003 76.6661 210.807C76.0241 210.611 75.3631 210.412 74.6931 210.46L74.9291 209.627Z" fill="#E6E6E6"/>
<path d="M94.1769 204.667C94.1769 204.667 95.2209 205.602 95.4289 206.904C95.6369 208.207 93.2689 209.766 93.2689 209.766C93.2689 209.766 91.5099 210.329 90.2719 209.233C89.0339 208.136 89.0339 208.136 89.0339 208.136C89.0339 208.136 92.8089 204.622 94.0159 204.947L94.1769 204.667Z" fill="#E6E6E6"/>
<path d="M88.0241 202.738C87.2251 204.71 87.6951 207.651 89.4561 208.364C91.2161 209.077 93.6011 207.292 94.3991 205.32C95.1981 203.349 93.7981 202.702 92.0381 201.989C90.2781 201.276 88.8231 200.766 88.0241 202.738Z" fill="#E6E6E6"/>
<path d="M93.506 203.771C93.506 203.771 91.785 204.447 89.135 202.928C89.135 202.928 92.704 207.305 93.506 203.771Z" fill="#E6E6E6"/>
<path d="M92.41 202.993C92.41 202.993 90.902 202.225 90.673 202.883C90.673 202.883 89.344 202.392 89.705 201.883C90.067 201.376 92.41 202.993 92.41 202.993Z" fill="#E6E6E6"/>
<g opacity="0.2">
<path d="M93.506 203.771C93.506 203.771 91.785 204.447 89.135 202.928C89.135 202.928 92.704 207.305 93.506 203.771Z" fill="#FAFAFA"/>
</g>
<g opacity="0.2">
<path d="M92.41 202.993C92.41 202.993 90.902 202.225 90.673 202.883C90.673 202.883 89.344 202.392 89.705 201.883C90.067 201.376 92.41 202.993 92.41 202.993Z" fill="#FAFAFA"/>
</g>
<path d="M92.2941 209.938C91.4321 210.694 90.1111 210.813 89.0621 210.348C88.0141 209.883 87.2431 208.902 86.8911 207.81C86.5391 206.719 86.5781 205.528 86.8451 204.413C86.9141 204.124 87.1101 203.409 87.5171 203.415C87.8911 203.42 87.9541 203.963 88.0441 204.235C88.3031 205.018 88.6011 205.767 89.0171 206.482C89.4201 207.174 89.9031 207.82 90.4531 208.402C90.6081 208.566 92.1421 210.072 92.2941 209.938Z" fill="#E6E6E6"/>
<path d="M85.78 203.506C85.185 204.222 85.0031 205.259 85.3181 206.135C85.5251 206.71 85.9201 207.197 86.3271 207.653C86.6111 207.97 86.998 208.307 87.407 208.191C87.849 208.066 87.982 207.515 88.029 207.059C88.103 206.356 88.1581 205.652 88.1931 204.946C88.2221 204.367 88.416 203.443 88.241 202.891C88.077 202.371 87.5791 202.496 87.0361 202.67C86.5511 202.824 86.106 203.113 85.78 203.506Z" fill="#E6E6E6"/>
<g opacity="0.2">
<path d="M92.178 208.673C92.886 208.858 93.691 208.589 94.146 208.015C94.482 207.591 94.854 206.368 94.278 206.021C93.667 207.021 93.125 207.934 92.178 208.673Z" fill="#FAFAFA"/>
</g>
<g opacity="0.2">
<path d="M87.4791 207.175C86.8771 206.784 86.4941 206.076 86.4951 205.358C86.4951 204.962 87.2061 203.153 87.5161 204.1C87.6171 204.409 87.3341 205.212 87.3261 205.569C87.3151 206.108 87.3661 206.649 87.4791 207.175Z" fill="#FAFAFA"/>
</g>
<g opacity="0.2">
<path d="M89.652 209.095C89.009 209.372 88.187 209.142 87.78 208.572C87.739 208.951 88.775 209.598 89.094 209.808C89.923 210.356 90.522 210.102 91.52 210.005C91.52 210.005 90.055 209.787 89.652 209.095Z" fill="#FAFAFA"/>
</g>
<path d="M81.7271 238.494L82.0861 237.312L82.5711 235.72L83.1321 233.862L87.618 219.091L88.1791 214.852L88.6771 211.091L88.7801 210.31L89.0591 210.346L89.0631 210.35L89.3461 210.386L89.3381 210.454L89.2381 211.19L88.7091 215.21L88.2751 218.486L88.1791 219.206L88.1441 219.322L83.1291 235.82L82.5631 237.671L82.3041 238.53L81.9461 239.705L81.7271 238.494Z" fill="#E0E0E0"/>
<path d="M87.7341 218.918L88.0641 219.383C88.6701 218.952 89.2871 218.336 90.0001 217.623C91.1031 216.52 92.3541 215.271 93.9621 214.318L93.6721 213.828C92.0021 214.816 90.7251 216.093 89.5981 217.22C88.9021 217.914 88.3021 218.515 87.7341 218.918Z" fill="#E0E0E0"/>
<path d="M88.539 215.116C87.865 214.697 87.351 214.027 87.12 213.268C86.859 212.405 86.961 211.479 87.065 210.584C87.93 211.161 89.094 211.014 90.046 211.431C90.805 211.763 91.39 212.468 91.577 213.275C91.819 214.321 91.719 215.391 91.139 215.658C90.663 215.876 89.441 215.676 88.539 215.116Z" fill="#E6E6E6"/>
<path d="M92.7901 214.34C93.4991 215.167 94.5851 215.657 95.6741 215.639C96.7631 215.621 97.5091 214.222 98.1901 213.372C97.3491 212.912 95.0301 212.339 94.4981 212.232C93.9661 212.125 93.3701 212.197 92.9581 212.549C92.5461 212.902 92.3951 213.575 92.7221 214.007C92.7541 213.998 92.7901 214.34 92.7901 214.34Z" fill="#E6E6E6"/>
<path d="M96.818 217.342C96.438 216.424 95.111 215.434 94.124 215.317C93.138 215.2 92.143 215.598 91.574 216.259C91.639 216.928 92.197 217.466 92.823 217.709C93.449 217.952 94.139 217.957 94.811 217.958C95.483 217.959 96.172 217.964 96.799 218.206L96.818 217.342Z" fill="#E6E6E6"/>
<path d="M73.9231 203.514C73.9231 203.514 72.7761 204.32 72.4161 205.589C72.0561 206.858 74.2251 208.685 74.2251 208.685C74.2251 208.685 75.9051 209.451 77.2631 208.507C78.6211 207.563 78.6211 207.563 78.6211 207.563C78.6211 207.563 75.2851 203.63 74.0481 203.811L73.9231 203.514Z" fill="#E6E6E6"/>
<path d="M80.2601 202.321C80.8211 204.373 80.0091 207.239 78.1771 207.74C76.3451 208.241 74.187 206.188 73.626 204.136C73.064 202.084 74.53 201.607 76.362 201.105C78.194 200.603 79.6981 200.269 80.2601 202.321Z" fill="#E6E6E6"/>
<path d="M74.6951 202.703C74.6951 202.703 76.3251 203.576 79.1351 202.379C79.1351 202.379 75.0751 206.307 74.6951 202.703Z" fill="#E6E6E6"/>
<path d="M75.874 202.058C75.874 202.058 77.462 201.473 77.611 202.153C77.611 202.153 78.989 201.821 78.69 201.274C78.391 200.728 75.874 202.058 75.874 202.058Z" fill="#E6E6E6"/>
<g opacity="0.2">
<path d="M74.6951 202.703C74.6951 202.703 76.3251 203.576 79.1351 202.379C79.1351 202.379 75.0751 206.307 74.6951 202.703Z" fill="#FAFAFA"/>
</g>
<g opacity="0.2">
<path d="M75.874 202.058C75.874 202.058 77.462 201.473 77.611 202.153C77.611 202.153 78.989 201.821 78.69 201.274C78.391 200.728 75.874 202.058 75.874 202.058Z" fill="#FAFAFA"/>
</g>
<path d="M75.1731 208.97C75.9411 209.822 77.2381 210.095 78.3341 209.757C79.4301 209.419 80.3101 208.535 80.7881 207.492C81.2651 206.449 81.3671 205.263 81.2331 204.124C81.1981 203.829 81.0881 203.096 80.6831 203.054C80.3121 203.015 80.1851 203.547 80.0631 203.807C79.7141 204.554 79.3301 205.263 78.8331 205.924C78.3511 206.564 77.7961 207.149 77.1811 207.662C77.0091 207.805 75.3091 209.12 75.1731 208.97Z" fill="#E6E6E6"/>
<path d="M82.3989 203.347C82.9059 204.128 82.9649 205.179 82.5489 206.012C82.2759 206.559 81.8269 206.996 81.3679 207.4C81.0489 207.681 80.6249 207.971 80.2319 207.808C79.8079 207.632 79.7409 207.069 79.7469 206.61C79.7559 205.904 79.7849 205.197 79.8329 204.492C79.8719 203.914 79.7879 202.973 80.0259 202.445C80.2499 201.948 80.7299 202.131 81.2489 202.367C81.7129 202.579 82.1209 202.918 82.3989 203.347Z" fill="#E6E6E6"/>
<g opacity="0.2">
<path d="M75.4381 207.728C74.7131 207.829 73.9451 207.466 73.5611 206.844C73.2771 206.383 73.0511 205.125 73.6641 204.848C74.1521 205.913 74.5831 206.883 75.4381 207.728Z" fill="#FAFAFA"/>
</g>
<g opacity="0.2">
<path d="M80.28 206.791C80.924 206.473 81.387 205.816 81.47 205.102C81.516 204.708 81.023 202.829 80.603 203.733C80.466 204.029 80.653 204.859 80.619 205.215C80.568 205.751 80.454 206.281 80.28 206.791Z" fill="#FAFAFA"/>
</g>
<g opacity="0.2">
<path d="M77.8961 208.443C78.5021 208.793 79.3461 208.662 79.8161 208.143C79.8121 208.524 78.7071 209.045 78.3661 209.216C77.4791 209.663 76.9131 209.34 75.9331 209.126C75.9331 209.126 77.4151 209.083 77.8961 208.443Z" fill="#FAFAFA"/>
</g>
<path d="M83.2651 247.057L78.1711 218.658L78.0491 209.761L78.6191 209.753L78.7401 218.61L83.9101 247.496L83.2651 247.057Z" fill="#E0E0E0"/>
<path d="M78.646 218.423L78.263 218.846C77.711 218.347 77.172 217.663 76.547 216.87C75.581 215.645 74.486 214.257 73.001 213.123L73.347 212.67C74.889 213.848 76.008 215.266 76.995 216.517C77.604 217.289 78.13 217.956 78.646 218.423Z" fill="#E0E0E0"/>
<path d="M78.294 214.553C79.013 214.216 79.602 213.611 79.92 212.884C80.281 212.058 80.288 211.127 80.29 210.225C79.364 210.697 78.224 210.413 77.23 210.715C76.437 210.956 75.773 211.587 75.493 212.367C75.13 213.377 75.103 214.452 75.648 214.785C76.095 215.059 77.332 215.004 78.294 214.553Z" fill="#E6E6E6"/>
<path d="M74.164 213.282C73.363 214.02 72.226 214.378 71.147 214.233C70.068 214.087 69.491 212.611 68.915 211.686C69.804 211.328 72.175 211.032 72.716 210.988C73.257 210.944 73.84 211.085 74.208 211.484C74.576 211.883 74.647 212.569 74.271 212.96C74.24 212.946 74.164 213.282 74.164 213.282Z" fill="#E6E6E6"/>
<path d="M69.811 215.791C70.296 214.924 71.731 214.097 72.724 214.097C73.717 214.096 74.658 214.608 75.146 215.332C75.003 215.988 74.385 216.457 73.735 216.625C73.084 216.793 72.399 216.717 71.732 216.639C71.065 216.561 70.379 216.485 69.728 216.652L69.811 215.791Z" fill="#E6E6E6"/>
<path d="M85.3552 229.633H79.3762C78.9282 229.624 78.5281 229.912 78.3941 230.34C77.9031 231.891 76.8582 235.97 76.8582 242.395C76.8582 249.454 78.6992 258.824 79.2782 261.592C79.3752 262.058 79.7842 262.393 80.2602 262.397H84.4231C84.8991 262.393 85.3082 262.058 85.4052 261.592C85.9842 258.824 87.8251 249.453 87.8251 242.395C87.8251 235.97 86.7792 231.891 86.2892 230.34C86.1582 229.93 85.7842 229.647 85.3552 229.633Z" fill="#F0F0F0"/>
<path d="M250 427.016C357.082 427.016 443.889 421.947 443.889 415.693C443.889 409.44 357.082 404.37 250 404.37C142.918 404.37 56.1111 409.44 56.1111 415.693C56.1111 421.947 142.918 427.016 250 427.016Z" fill="#F5F5F5"/>
<path d="M120.783 376.773C120.443 376.751 120.178 376.463 120.186 376.119C120.926 346.729 122.442 298.517 122.521 298.253C122.622 297.915 122.978 297.731 123.315 297.823C123.652 297.924 123.846 298.279 123.747 298.617C123.728 298.682 122.197 347.061 121.464 376.152C121.456 376.504 121.162 376.783 120.809 376.775C120.8 376.774 120.792 376.773 120.783 376.773Z" fill="#263238"/>
<path d="M116.833 278.631C117.079 280.895 119.789 288.742 122.053 288.496C124.316 288.25 125.276 280.003 125.03 277.739C124.784 275.476 122.749 273.84 120.486 274.086C118.222 274.333 116.587 276.368 116.833 278.631Z" fill="#C340F1"/>
<path d="M127.819 303.385C127.573 301.121 124.863 293.274 122.599 293.52C120.335 293.766 119.375 302.013 119.621 304.277C119.867 306.54 121.902 308.176 124.165 307.93C126.43 307.684 128.066 305.65 127.819 303.385Z" fill="#C340F1"/>
<path d="M109.949 296.502C112.213 296.256 120.06 293.546 119.814 291.282C119.568 289.019 111.321 288.059 109.058 288.305C106.794 288.551 105.159 290.586 105.405 292.849C105.651 295.113 107.685 296.748 109.949 296.502Z" fill="#C340F1"/>
<path d="M134.703 285.515C132.439 285.761 124.592 288.471 124.838 290.735C125.085 292.999 133.331 293.959 135.595 293.712C137.859 293.466 139.494 291.431 139.248 289.168C139.002 286.905 136.966 285.269 134.703 285.515Z" fill="#C340F1"/>
<path d="M109.689 286.141C111.464 287.568 118.929 291.201 120.356 289.426C121.783 287.651 116.63 281.141 114.856 279.714C113.081 278.288 110.486 278.57 109.059 280.345C107.633 282.119 107.915 284.714 109.689 286.141Z" fill="#C340F1"/>
<path d="M134.962 295.876C133.187 294.449 125.722 290.817 124.295 292.592C122.869 294.366 128.021 300.876 129.796 302.303C131.571 303.729 134.166 303.447 135.592 301.673C137.02 299.898 136.737 297.302 134.962 295.876Z" fill="#C340F1"/>
<path d="M117.459 303.645C118.885 301.87 122.518 294.405 120.743 292.978C118.968 291.551 112.459 296.704 111.032 298.479C109.605 300.254 109.888 302.849 111.663 304.275C113.437 305.702 116.032 305.42 117.459 303.645Z" fill="#C340F1"/>
<path d="M127.194 278.372C125.768 280.147 122.135 287.612 123.91 289.039C125.685 290.465 132.195 285.313 133.621 283.538C135.048 281.763 134.765 279.168 132.99 277.742C131.216 276.315 128.62 276.598 127.194 278.372Z" fill="#C340F1"/>
<g opacity="0.6">
<path d="M116.833 278.631C117.079 280.895 119.789 288.742 122.053 288.496C124.316 288.25 125.276 280.003 125.03 277.739C124.784 275.476 122.749 273.84 120.486 274.086C118.222 274.333 116.587 276.368 116.833 278.631Z" fill="white"/>
<path d="M127.819 303.385C127.573 301.121 124.863 293.274 122.599 293.52C120.335 293.766 119.375 302.013 119.621 304.277C119.867 306.54 121.902 308.176 124.165 307.93C126.43 307.684 128.066 305.65 127.819 303.385Z" fill="white"/>
<path d="M109.949 296.502C112.213 296.256 120.06 293.546 119.814 291.282C119.568 289.019 111.321 288.059 109.058 288.305C106.794 288.551 105.159 290.586 105.405 292.849C105.651 295.113 107.685 296.748 109.949 296.502Z" fill="white"/>
<path d="M134.703 285.515C132.439 285.761 124.592 288.471 124.838 290.735C125.085 292.999 133.331 293.959 135.595 293.712C137.859 293.466 139.494 291.431 139.248 289.168C139.002 286.905 136.966 285.269 134.703 285.515Z" fill="white"/>
<path d="M109.689 286.141C111.464 287.568 118.929 291.201 120.356 289.426C121.783 287.651 116.63 281.141 114.856 279.714C113.081 278.288 110.486 278.57 109.059 280.345C107.633 282.119 107.915 284.714 109.689 286.141Z" fill="white"/>
<path d="M134.962 295.876C133.187 294.449 125.722 290.817 124.295 292.592C122.869 294.366 128.021 300.876 129.796 302.303C131.571 303.729 134.166 303.447 135.592 301.673C137.02 299.898 136.737 297.302 134.962 295.876Z" fill="white"/>
<path d="M117.459 303.645C118.885 301.87 122.518 294.405 120.743 292.978C118.968 291.551 112.459 296.704 111.032 298.479C109.605 300.254 109.888 302.849 111.663 304.275C113.437 305.702 116.032 305.42 117.459 303.645Z" fill="white"/>
<path d="M127.194 278.372C125.768 280.147 122.135 287.612 123.91 289.039C125.685 290.465 132.195 285.313 133.621 283.538C135.048 281.763 134.765 279.168 132.99 277.742C131.216 276.315 128.62 276.598 127.194 278.372Z" fill="white"/>
</g>
<path d="M117.472 291.536C117.763 294.217 120.173 296.154 122.854 295.862C125.535 295.571 127.472 293.161 127.18 290.48C126.888 287.799 124.478 285.862 121.798 286.154C119.117 286.446 117.181 288.855 117.472 291.536Z" fill="#C340F1"/>
<path d="M117.952 355.238C112.318 355.362 102.678 350.157 98.885 345.077C95.036 339.922 105.83 343.096 104.711 339.043C103.591 334.99 90.303 338.027 87.832 332.224C85.361 326.421 94.959 327.729 94.569 324.76C94.18 321.791 84.242 322.424 81.033 316.257C77.824 310.09 86.577 313.524 85.197 310.969C83.817 308.413 72.827 297.672 77.407 295.413C81.986 293.154 92.292 304.344 95.737 305.587C99.182 306.829 99.964 299.076 104.453 302.77C108.942 306.465 105.638 322.676 110.916 324.798C114.847 326.379 113.155 318.965 117.681 320.824C125.605 324.078 120.24 355.188 117.952 355.238Z" fill="#C340F1"/>
<g opacity="0.2">
<path d="M117.952 355.238C112.318 355.362 102.678 350.157 98.885 345.077C95.036 339.922 105.83 343.096 104.711 339.043C103.591 334.99 90.303 338.027 87.832 332.224C85.361 326.421 94.959 327.729 94.569 324.76C94.18 321.791 84.242 322.424 81.033 316.257C77.824 310.09 86.577 313.524 85.197 310.969C83.817 308.413 72.827 297.672 77.407 295.413C81.986 293.154 92.292 304.344 95.737 305.587C99.182 306.829 99.964 299.076 104.453 302.77C108.942 306.465 105.638 322.676 110.916 324.798C114.847 326.379 113.155 318.965 117.681 320.824C125.605 324.078 120.24 355.188 117.952 355.238Z" fill="white"/>
</g>
<path d="M126.049 348.089C126.143 348.247 125.3 349.046 128.082 349.161C134.933 349.443 147.046 348.981 151.595 342.752C158.09 333.859 143.11 334.675 144.567 329.771C146.024 324.867 162.116 328.872 165.257 321.871C168.398 314.87 156.694 316.237 157.236 312.635C157.779 309.033 170.059 313.7 174.106 306.274C178.153 298.848 167.426 302.821 169.164 299.744C170.902 296.668 184.52 283.859 179.003 281.004C173.486 278.149 160.689 291.52 156.469 292.951C152.249 294.381 151.273 281.267 145.726 285.656C140.179 290.045 143.819 309.841 137.35 312.299C132.531 314.13 135.16 307.035 129.214 307.307C121.136 307.678 118.48 335.436 126.049 348.089Z" fill="#C340F1"/>
<g opacity="0.3">
<path d="M126.049 348.089C126.143 348.247 125.3 349.046 128.082 349.161C134.933 349.443 147.046 348.981 151.595 342.752C158.09 333.859 143.11 334.675 144.567 329.771C146.024 324.867 162.116 328.872 165.257 321.871C168.398 314.87 156.694 316.237 157.236 312.635C157.779 309.033 170.059 313.7 174.106 306.274C178.153 298.848 167.426 302.821 169.164 299.744C170.902 296.668 184.52 283.859 179.003 281.004C173.486 278.149 160.689 291.52 156.469 292.951C152.249 294.381 151.273 281.267 145.726 285.656C140.179 290.045 143.819 309.841 137.35 312.299C132.531 314.13 135.16 307.035 129.214 307.307C121.136 307.678 118.48 335.436 126.049 348.089Z" fill="white"/>
</g>
<path d="M120.915 372.332C120.903 372.331 120.891 372.33 120.878 372.329C120.634 372.3 120.46 372.078 120.49 371.833C126.113 325.817 152.62 307.113 152.886 306.93C153.089 306.792 153.366 306.842 153.505 307.045C153.644 307.247 153.593 307.525 153.39 307.664C153.126 307.845 126.945 326.347 121.374 371.941C121.346 372.173 121.145 372.341 120.915 372.332Z" fill="#263238"/>
<path d="M146.855 313.323C146.674 313.316 146.508 313.197 146.449 313.016C146.373 312.782 146.501 312.531 146.735 312.455C146.9 312.401 150.847 311.153 157.314 312.526C157.555 312.577 157.709 312.814 157.658 313.054C157.607 313.295 157.37 313.45 157.13 313.398C150.915 312.08 147.049 313.291 147.011 313.303C146.959 313.318 146.906 313.325 146.855 313.323Z" fill="#263238"/>
<path d="M141.955 318.912C141.719 318.902 141.531 318.71 141.528 318.471C141.391 304.554 149.447 293.681 149.529 293.573C149.676 293.377 149.956 293.337 150.153 293.485C150.35 293.633 150.389 293.912 150.242 294.109C150.162 294.215 142.286 304.858 142.42 318.463C142.422 318.709 142.225 318.91 141.979 318.913C141.971 318.913 141.963 318.912 141.955 318.912Z" fill="#263238"/>
<path d="M134.061 330.691C133.949 330.686 133.838 330.64 133.755 330.551C133.586 330.373 133.594 330.091 133.773 329.921C133.833 329.865 139.797 324.351 147.607 327.149C147.838 327.232 147.959 327.487 147.876 327.719C147.793 327.95 147.538 328.072 147.306 327.988C140.005 325.369 134.44 330.516 134.385 330.569C134.295 330.655 134.177 330.695 134.061 330.691Z" fill="#263238"/>
<path d="M129.935 338.908C129.769 338.901 129.613 338.801 129.544 338.638C129.419 338.346 126.498 331.349 128.108 321.38C128.148 321.138 128.367 320.968 128.619 321.012C128.862 321.051 129.027 321.279 128.988 321.522C127.422 331.222 130.334 338.219 130.364 338.288C130.46 338.514 130.355 338.776 130.129 338.872C130.065 338.899 129.999 338.91 129.935 338.908Z" fill="#263238"/>
<path d="M121.094 388.77C120.863 388.761 120.675 388.573 120.668 388.339L120.09 376.151C118.385 335.626 90.5869 308.063 90.3059 307.79C90.1299 307.618 90.1259 307.336 90.2979 307.16C90.4709 306.984 90.7519 306.981 90.9279 307.152C91.2109 307.428 119.259 335.226 120.98 376.119L121.558 388.312C121.566 388.558 121.373 388.763 121.127 388.772C121.116 388.771 121.105 388.77 121.094 388.77Z" fill="#263238"/>
<path d="M101.771 323.012C101.747 323.011 101.722 323.008 101.698 323.003C101.659 322.995 101.611 322.976 101.568 322.953L101.424 322.895C97.7849 321.383 93.7189 320.599 89.9769 320.681C89.7269 320.693 89.5269 320.492 89.5219 320.245C89.5159 319.999 89.7109 319.796 89.9569 319.79C93.8209 319.707 98.0149 320.514 101.766 322.072L101.914 322.133C101.941 322.143 101.966 322.155 101.99 322.169C102.165 322.258 102.266 322.456 102.224 322.657C102.179 322.875 101.984 323.021 101.771 323.012Z" fill="#263238"/>
<path d="M105.702 328.231C105.695 328.231 105.687 328.23 105.68 328.229C105.435 328.208 105.254 327.99 105.276 327.746C106.352 315.785 100.158 305.944 100.095 305.846C99.9629 305.639 100.023 305.363 100.23 305.231C100.439 305.099 100.713 305.159 100.845 305.366C100.909 305.466 107.268 315.553 106.163 327.826C106.142 328.064 105.938 328.241 105.702 328.231Z" fill="#263238"/>
<path d="M109.758 335.16C109.65 335.156 109.542 335.111 109.46 335.029C109.415 334.983 104.901 330.528 98.2949 332.288C98.0559 332.353 97.8129 332.209 97.7499 331.972C97.6869 331.734 97.8279 331.49 98.0659 331.427C105.187 329.527 109.898 334.203 110.094 334.403C110.267 334.578 110.265 334.859 110.09 335.033C109.998 335.122 109.878 335.165 109.758 335.16Z" fill="#263238"/>
<path d="M114.907 346.58C114.843 346.577 114.779 346.561 114.719 346.53C114.501 346.416 114.417 346.147 114.531 345.929C114.562 345.869 117.621 339.89 116.924 331.264C116.904 331.019 117.086 330.804 117.332 330.785C117.579 330.755 117.792 330.947 117.812 331.193C118.532 340.089 115.452 346.091 115.321 346.343C115.238 346.499 115.074 346.586 114.907 346.58Z" fill="#263238"/>
<path d="M146.157 390.688C146.157 404.902 139.764 416.43 120.403 416.43C101.925 416.43 94.6489 404.902 94.6489 390.688C94.6489 385.327 96.2959 380.34 99.0989 376.217H141.707C144.51 380.34 146.157 385.327 146.157 390.688Z" fill="#C340F1"/>
<path opacity="0.7" d="M146.157 390.688C146.157 404.902 139.764 416.43 120.403 416.43C101.925 416.43 94.6489 404.902 94.6489 390.688C94.6489 385.327 96.2959 380.34 99.0989 376.217H141.707C144.51 380.34 146.157 385.327 146.157 390.688Z" fill="white"/>
<path d="M294.101 403.862L304.061 402.408L301.546 379.107L291.585 380.561L294.101 403.862Z" fill="#E8BFBF"/>
<path d="M311.719 402.757C312.584 402.693 313.402 402.338 314.039 401.749C314.311 401.406 314.397 400.951 314.269 400.533C314.212 400.271 314.023 400.057 313.769 399.969C312.438 399.494 308.795 402.178 308.388 402.481C308.309 402.545 308.275 402.648 308.3 402.746C308.334 402.84 308.423 402.903 308.523 402.904C309.59 402.952 310.66 402.903 311.719 402.757ZM313.12 400.421C313.27 400.384 313.427 400.389 313.574 400.433C313.679 400.466 313.757 400.553 313.78 400.661C313.862 400.937 313.807 401.236 313.632 401.465C313.12 402.103 311.494 402.463 309.226 402.462C310.407 401.558 311.734 400.863 313.15 400.406L313.12 400.421Z" fill="#C340F1"/>
<path d="M308.578 402.915L308.66 402.877C309.765 402.149 311.758 399.612 311.384 398.516C311.269 398.271 311.061 397.957 310.393 397.994C309.91 398.002 309.452 398.216 309.135 398.581C308.056 399.819 308.27 402.547 308.273 402.658C308.27 402.742 308.307 402.822 308.373 402.873C308.431 402.919 308.507 402.934 308.578 402.915ZM310.253 398.495L310.386 398.433C310.826 398.415 310.877 398.578 310.891 398.633C311.126 399.296 309.805 401.245 308.705 402.145C308.603 400.998 308.87 399.848 309.465 398.862C309.678 398.64 309.966 398.505 310.273 398.485L310.253 398.495Z" fill="#C340F1"/>
<path d="M303.043 398.284L294.21 400.389C293.812 400.471 293.541 400.841 293.584 401.245L293.869 414.026C293.992 414.922 294.818 415.548 295.713 415.425C295.775 415.416 295.837 415.404 295.897 415.389C299.723 414.436 301.529 413.786 306.394 412.664C309.375 411.978 318.822 411.266 322.692 409.542C326.561 407.819 325.054 403.897 323.289 404.267C317.613 405.488 310.32 403.058 306.177 399.359C305.615 399.084 303.649 398.127 303.043 398.284Z" fill="#263238"/>
<path opacity="0.2" d="M301.546 379.107L302.842 391.117L292.883 392.582L291.576 380.574L301.546 379.107Z" fill="black"/>
<path d="M306.866 386.175L288.437 389.616C288.437 389.616 279.488 376.84 277.799 367.767C276.041 358.32 277.92 326.158 277.799 325.731C272.586 308.134 258.424 262.53 251.585 245.75C247.798 236.45 245.14 230.189 245.14 230.189L247.055 229.759L262.098 223.597L273.06 225.663C273.06 225.663 306.373 293.025 309.865 318.366C312.471 337.287 306.866 386.175 306.866 386.175Z" fill="#C340F1"/>
<path opacity="0.3" d="M306.866 386.175L288.437 389.616C288.437 389.616 279.488 376.84 277.799 367.767C276.041 358.32 277.92 326.158 277.799 325.731C272.586 308.134 258.424 262.53 251.585 245.75C247.798 236.45 245.14 230.189 245.14 230.189L247.055 229.759L262.098 223.597L273.06 225.663C273.06 225.663 306.373 293.025 309.865 318.366C312.471 337.287 306.866 386.175 306.866 386.175Z" fill="white"/>
<path opacity="0.2" d="M273.458 310.491C268.245 292.894 257.731 266.199 250.891 249.418L246.36 233.428L245.489 230.352L247.075 233.258L264.929 272.804C272.807 287.946 273.578 310.918 273.458 310.491Z" fill="black"/>
<path d="M192.572 398.376L201.449 402.116L210.923 381.789L202.046 378.049L192.572 398.376Z" fill="#E8BFBF"/>
<path d="M207.233 406.37C207.937 406.81 208.769 406.998 209.594 406.903C209.998 406.792 210.321 406.489 210.459 406.094C210.564 405.859 210.538 405.587 210.392 405.376C209.633 404.257 205.303 404.271 204.818 404.274C204.721 404.279 204.636 404.339 204.6 404.429C204.573 404.521 204.606 404.62 204.683 404.677C205.479 405.318 206.333 405.885 207.233 406.37ZM209.635 405.358C209.771 405.414 209.89 405.506 209.979 405.624C210.041 405.709 210.053 405.821 210.009 405.916C209.916 406.176 209.705 406.375 209.44 406.453C208.684 406.656 207.225 406.015 205.475 404.733C206.898 404.703 208.316 404.916 209.667 405.363L209.635 405.358Z" fill="#C340F1"/>
<path d="M204.719 404.717L204.804 404.734C206.069 404.797 209.041 403.964 209.372 402.906C209.422 402.652 209.438 402.291 208.902 401.943C208.524 401.676 208.05 401.582 207.599 401.685C206.066 402.031 204.689 404.259 204.628 404.346C204.578 404.409 204.562 404.492 204.584 404.569C204.602 404.637 204.653 404.691 204.719 404.717ZM208.51 402.251L208.648 402.278C208.998 402.513 208.946 402.667 208.925 402.718C208.731 403.363 206.61 404.121 205.252 404.194C205.822 403.251 206.677 402.514 207.694 402.089C207.984 402.038 208.283 402.097 208.531 402.255L208.51 402.251Z" fill="#C340F1"/>
<path d="M203.063 398.012L195.053 394.645C194.7 394.484 194.281 394.616 194.086 394.952L187.083 404.981C186.672 405.742 186.955 406.692 187.716 407.104C187.769 407.133 187.823 407.158 187.879 407.18C191.372 408.606 193.133 409.125 197.524 411.009C200.214 412.164 207.911 416.954 211.872 417.81C215.833 418.667 216.887 414.786 215.314 414.074C210.241 411.808 205.983 405.81 204.875 400.613C204.596 400.084 203.619 398.234 203.063 398.012Z" fill="#263238"/>
<path opacity="0.2" d="M211.311 382.027L206.175 392.383L197.387 388.439L202.514 378.079L211.311 382.027Z" fill="black"/>
<path d="M213.16 393.313L195.48 383.888C195.48 383.888 192.09 371.301 195.48 363.272C202.004 347.82 218.977 325.101 219.092 324.673C223.621 306.887 231.566 258.181 234.279 240.264C235.786 230.336 236.671 228.194 236.671 228.194L238.536 228.805L265.589 228.859C265.589 228.859 270.693 269.826 251.133 333.256C246.266 349.038 238.113 362.16 224.698 379.911C219.603 386.651 213.16 393.313 213.16 393.313Z" fill="#C340F1"/>
<path opacity="0.3" d="M213.16 393.313L195.48 383.888C195.48 383.888 192.09 371.301 195.48 363.272C202.004 347.82 218.977 325.101 219.092 324.673C223.621 306.887 231.566 258.181 234.279 240.264C235.786 230.336 236.671 228.194 236.671 228.194L238.536 228.805L265.589 228.859C265.589 228.859 270.693 269.826 251.133 333.256C246.266 349.038 238.113 362.16 224.698 379.911C219.603 386.651 213.16 393.313 213.16 393.313Z" fill="white"/>
<path d="M289.556 195.386C289.754 192.348 291.769 188.435 293.507 186.626C294.065 186.048 296.174 185.168 297.369 184.39C303.243 180.536 314.999 175.729 314.999 175.729L318.627 178.892C318.627 178.892 311.466 185.814 307.206 189.133C306.369 189.785 305.399 190.577 304.377 191.414C302.525 192.96 293.802 198.713 292.137 200.155L289.556 195.386Z" fill="#E8BFBF"/>
<path d="M325.342 173.94L318.632 178.898L314.867 176.126C314.867 176.126 316.403 174.169 317.982 172.653C318.675 171.987 319.049 171.07 319.058 170.109C319.071 168.631 319.294 166.916 320.097 165.658C320.117 165.629 320.127 165.599 320.146 165.579C321.601 163.387 325.002 164.046 325.69 166.582L326.659 170.159C327.04 171.571 326.518 173.072 325.342 173.94Z" fill="#E8BFBF"/>
<path d="M291.702 196.727L289.933 198.349C289.382 197.907 288.508 197.199 287.407 196.285C278.787 189.129 257.177 171.771 265.792 166.817C273.176 162.571 281.018 175.565 284.93 179.467C285.726 180.273 287.908 182.789 289.668 185.945C291.505 189.256 292.872 193.267 291.702 196.727Z" fill="#263238"/>
<path d="M289.663 184.391C286.604 186.627 283.992 189.473 282.027 192.712C283.444 197.409 287.013 201.496 291.514 203.448C293.98 197.725 295.129 191.572 294.64 185.359C293.079 185.023 291.223 184.727 289.663 184.391Z" fill="#263238"/>
<path d="M242.208 165.805C239.124 166.796 235.594 166.003 233.615 168.567C231.636 171.131 231.041 174.515 231.044 177.754C231.048 182.259 232.078 186.692 233.103 191.078C234.345 196.397 235.587 201.715 236.829 207.034C237.678 210.67 236.785 227.576 237.691 227.859C237.691 227.859 265.96 227.305 273.048 226.312C273.048 226.312 273.664 208.933 274.233 203.014C274.359 201.701 276.353 196.125 276.587 194.724C277.691 188.122 275.527 183.466 273.241 177.174C273.241 177.174 268.235 167.095 265.791 166.82C261.44 166.329 250.801 163.044 242.208 165.805Z" fill="#263238"/>
<path d="M241.018 174.145C240.918 173.558 235.901 163.423 231.093 170.507C224.4 180.367 223.949 192.747 223.949 192.747C223.949 192.747 219.836 204.785 222.702 207.414C225.568 210.043 228.659 211.735 230.662 210.244C232.664 208.753 233.963 205.774 233.963 205.774C233.963 205.774 242.776 184.46 241.018 174.145Z" fill="#263238"/>
<path d="M240.695 162.046C238.584 163.693 238.862 167.51 241.189 168.833C240.604 170.877 241.288 173.229 242.878 174.641C244.468 176.053 246.884 176.454 248.845 175.631C247.997 177.15 248.953 179.155 250.416 180.095C251.879 181.035 253.687 181.206 255.41 181.437C257.134 181.668 258.955 182.039 260.206 183.247C261.988 180.683 263.769 178.12 265.551 175.556C266.245 174.558 266.964 173.487 267.018 172.273C267.072 171.058 266.148 169.719 264.936 169.808C266.169 168.523 266.194 166.27 264.99 164.958C263.786 163.646 261.539 163.478 260.154 164.596C260.402 163.569 259.8 162.478 258.933 161.874C258.065 161.27 256.985 161.064 255.933 160.961L240.695 162.046Z" fill="#263238"/>
<path d="M243.902 148.995C245.293 154.098 246.981 163.507 243.606 167.226C243.606 167.226 253.154 171.049 259.94 178.721C263.098 175.653 262.77 172.206 261.803 169.685C261.053 167.732 259.442 166.282 257.516 165.464C253.8 163.885 253.768 160.226 254.386 156.719L243.902 148.995Z" fill="#E8BFBF"/>
<path opacity="0.2" d="M245.982 157.685L249.493 158.638C250.997 159.046 252.569 159.139 254.11 158.912C254.096 159.668 253.96 161.274 254.436 162.121C252.42 163.094 249.009 162.426 247.502 160.65C246.878 159.957 246.322 158.554 245.982 157.685Z" fill="black"/>
<path d="M237.087 144.651C240.804 152.495 242.21 155.892 247.932 158.389C256.553 162.163 265.348 155.862 264.045 147.066C262.874 139.155 256.989 127.655 247.839 127.614C241.301 127.55 235.948 132.797 235.884 139.336C235.867 141.176 236.278 142.996 237.087 144.651Z" fill="#E8BFBF"/>
<path d="M241.171 129.671C238.463 128.406 235.097 129.438 232.842 131.422C230.547 133.441 229.15 136.265 227.811 139.012C227.083 140.505 226.348 142.018 226.011 143.645C225.674 145.272 225.771 147.051 226.631 148.473C227.473 149.867 229.041 150.782 230.662 150.877C231.594 150.931 232.685 151.605 232.987 152.489C233.267 153.31 233.134 154.199 233.003 155.052C232.876 155.878 232.755 156.74 233.014 157.533C233.446 158.853 234.858 159.654 236.24 159.788C237.622 159.922 238.995 159.522 240.326 159.126C241.17 158.875 242.019 159.02 242.675 159.608C242.839 159.755 242.973 159.931 243.075 160.125C243.489 160.912 244.688 160.788 245.033 159.968C246.243 157.093 244.482 152.496 241.859 148.988C240.467 147.126 240.543 147.601 239.996 145.341C239.541 143.461 240.23 141.499 241.072 139.757C242.196 137.434 243.64 135.168 243.194 132.395C243.005 131.222 242.247 130.173 241.171 129.671Z" fill="#263238"/>
<path d="M237.322 152.674C238.555 153.986 240.258 154.755 242.058 154.812C244.446 154.864 245.052 152.586 243.899 150.643C242.858 148.891 240.362 146.761 238.2 147.607C236.038 148.454 235.818 151.039 237.322 152.674Z" fill="#E8BFBF"/>
<path d="M252.033 143.254C252.309 143.941 252.855 144.304 253.287 144.127C253.719 143.95 253.825 143.298 253.586 142.632C253.346 141.966 252.766 141.589 252.332 141.759C251.899 141.928 251.775 142.601 252.033 143.254Z" fill="#263238"/>
<path d="M259.352 140.104C259.621 140.793 260.174 141.154 260.599 140.979C261.024 140.804 261.137 140.15 260.898 139.484C260.659 138.818 260.078 138.441 259.651 138.609C259.225 138.776 259.086 139.452 259.352 140.104Z" fill="#263238"/>
<path d="M259.463 138.728L260.853 137.64C260.853 137.64 260.552 139.189 259.463 138.728Z" fill="#263238"/>
<path d="M257.452 141.573C259.151 143.25 260.43 143.557 262.27 144.709C262.217 146.343 260.679 146.718 260.679 146.718L257.452 141.573Z" fill="#ED847E"/>
<path d="M259.903 149.921C260.22 149.802 260.527 149.657 260.821 149.487C260.917 149.436 260.953 149.316 260.902 149.221C260.9 149.218 260.898 149.215 260.897 149.211C260.84 149.116 260.72 149.079 260.619 149.126C259.068 150.027 257.179 150.127 255.542 149.394C255.44 149.34 255.313 149.378 255.258 149.481C255.203 149.583 255.242 149.711 255.345 149.765C256.781 150.425 258.423 150.481 259.903 149.921Z" fill="#263238"/>
<path d="M251.76 137.81C251.75 137.997 251.621 138.157 251.44 138.207C249.522 138.776 248.671 141.21 248.667 141.23C248.591 141.456 248.347 141.578 248.121 141.502C247.895 141.426 247.773 141.182 247.848 140.956C247.922 140.864 248.851 138.072 251.188 137.374C251.416 137.31 251.654 137.439 251.724 137.666C251.748 137.71 251.76 137.76 251.76 137.81Z" fill="#263238"/>
<path d="M260.609 136.633C260.449 136.731 260.245 136.716 260.101 136.596C258.54 135.344 256.055 136.032 256.037 136.04C255.808 136.107 255.568 135.975 255.502 135.746C255.435 135.517 255.567 135.277 255.796 135.211C255.914 135.219 258.737 134.391 260.643 135.915C260.826 136.066 260.855 136.335 260.709 136.522C260.684 136.566 260.65 136.604 260.609 136.633Z" fill="#263238"/>
<path d="M252.158 141.875L253.549 140.794C253.549 140.794 253.234 142.34 252.158 141.875Z" fill="#263238"/>
<path d="M241.768 128.361C239.584 128.536 237.511 129.779 236.326 131.622C235.531 132.859 235.251 134.739 236.427 135.622C236.977 136.035 237.702 136.11 238.388 136.17C241.432 136.437 245.184 134.086 245.184 134.086C244.011 129.116 254.438 125.27 259.578 132.969C261.088 135.231 260.68 136.874 263.191 137.919C264.373 138.411 265.931 138.275 266.688 139.308C267.944 141.021 265.53 143.922 267.063 145.393C268.112 146.399 270.49 146.015 270.636 147.461C270.705 148.141 270.26 149.125 270.914 149.324C271.276 149.434 271.609 149.103 271.843 148.806C272.408 148.088 272.99 147.337 273.184 146.445C273.378 145.552 273.06 144.477 272.229 144.099C271.59 143.808 269.901 144.133 270.016 144.825C270.154 145.658 269.439 141.57 269.759 140.025C270.038 138.68 271.323 137.514 270.933 136.196C270.518 134.79 268.847 134.229 267.398 134.014C265.948 133.799 264.303 133.623 263.412 132.459C262.417 131.159 262.869 129.302 262.55 127.696C262.143 125.654 260.44 124.063 258.529 123.235C252.732 120.72 243.764 121.077 241.768 128.361Z" fill="#263238"/>
<path d="M258.235 155.044L238.24 165.089C231.666 168.391 228.692 176.156 231.378 183.006L241.021 207.599C243.707 214.448 251.169 218.129 258.238 216.09L279.74 209.889C287.798 207.566 292.111 198.821 289.05 191.014L277.9 162.577C274.839 154.771 265.728 151.28 258.235 155.044ZM254.931 197.28C250.473 199.025 245.441 196.826 243.693 192.369C241.945 187.912 244.144 182.884 248.602 181.139C253.06 179.394 258.09 181.592 259.838 186.049C261.586 190.506 259.389 195.535 254.931 197.28Z" fill="#C340F1"/>
<path d="M258.235 155.044L238.24 165.089C231.666 168.391 228.692 176.156 231.378 183.006L241.021 207.599C243.707 214.448 251.169 218.129 258.238 216.09L279.74 209.889C287.798 207.566 292.111 198.821 289.05 191.014L277.9 162.577C274.839 154.771 265.728 151.28 258.235 155.044ZM254.931 197.28C250.473 199.025 245.441 196.826 243.693 192.369C241.945 187.912 244.144 182.884 248.602 181.139C253.06 179.394 258.09 181.592 259.838 186.049C261.586 190.506 259.389 195.535 254.931 197.28Z" fill="#C340F1"/>
<path opacity="0.1" d="M289.054 191.018L277.898 162.582C274.841 154.768 265.729 151.278 258.239 155.043L252.43 157.962L248.528 159.918L238.247 165.088C231.671 168.391 228.693 176.156 231.376 183.007L241.019 207.6C243.712 214.451 251.173 218.127 258.24 216.093L279.747 209.891C281.506 209.38 283.089 208.564 284.455 207.512C285.517 206.706 286.441 205.762 287.217 204.711C290.037 200.916 290.922 195.795 289.054 191.018ZM254.926 197.279C250.473 199.029 245.44 196.827 243.691 192.364C241.941 187.911 244.143 182.879 248.606 181.139C253.058 179.389 258.091 181.591 259.841 186.044C261.581 190.507 259.389 195.53 254.926 197.279Z" fill="white"/>
<path d="M258.442 156.915L239.689 166.335C233.524 169.432 230.735 176.715 233.254 183.14L242.298 206.204C244.817 212.628 251.815 216.08 258.446 214.169L278.612 208.353C286.169 206.174 290.215 197.973 287.344 190.651L276.886 163.98C274.015 156.659 265.469 153.384 258.442 156.915ZM243.693 192.369C241.945 187.912 244.144 182.884 248.602 181.139C253.06 179.394 258.09 181.592 259.838 186.049C261.586 190.506 259.389 195.535 254.931 197.28C250.473 199.025 245.441 196.826 243.693 192.369Z" fill="#C340F1"/>
<path opacity="0.1" d="M258.442 156.915L239.689 166.335C233.524 169.432 230.735 176.715 233.254 183.14L242.298 206.204C244.817 212.628 251.815 216.08 258.446 214.169L278.612 208.353C286.169 206.174 290.215 197.973 287.344 190.651L276.886 163.98C274.015 156.659 265.469 153.384 258.442 156.915ZM243.693 192.369C241.945 187.912 244.144 182.884 248.602 181.139C253.06 179.394 258.09 181.592 259.838 186.049C261.586 190.506 259.389 195.535 254.931 197.28C250.473 199.025 245.441 196.826 243.693 192.369Z" fill="#C340F1"/>
<path d="M351.618 148.021L351.045 149.068L350.727 149.649L349.822 151.302L350.201 155.533C350.217 155.714 350.196 155.893 350.143 156.058C350.022 156.424 349.744 156.729 349.37 156.876L341.466 159.97C341.093 160.116 340.683 160.083 340.345 159.894C340.236 159.834 340.135 159.759 340.045 159.666L335.578 155.123L335.566 155.11L329.212 157.597L330.133 159.945L323.779 162.432L325.295 166.299L320.617 168.13C320.234 168.28 319.811 168.254 319.456 168.069C319.339 168.011 319.231 167.933 319.133 167.842L316.437 165.306L310.083 167.793L311.599 171.66L304.918 174.275L306.441 178.158C306.69 178.792 306.377 179.508 305.743 179.756L287.446 186.919L279.506 166.671L345.691 140.763L346.726 141.294L350.082 143.017C351.911 143.956 352.606 146.219 351.618 148.021Z" fill="#C340F1"/>
<g opacity="0.1">
<path d="M351.618 148.021L351.045 149.068L350.727 149.649L349.822 151.302L350.201 155.533C350.217 155.714 350.196 155.893 350.143 156.058C350.022 156.424 349.744 156.729 349.37 156.876L341.466 159.97C341.093 160.116 340.683 160.083 340.345 159.894C340.236 159.834 340.135 159.759 340.045 159.666L335.578 155.123L335.566 155.11L329.212 157.597L330.133 159.945L323.779 162.432L325.295 166.299L320.617 168.13C320.234 168.28 319.811 168.254 319.456 168.069C319.339 168.011 319.231 167.933 319.133 167.842L316.437 165.306L310.083 167.793L311.599 171.66L304.918 174.275L306.441 178.158C306.69 178.792 306.377 179.508 305.743 179.756L287.446 186.919L279.506 166.671L345.691 140.763L346.726 141.294L350.082 143.017C351.911 143.956 352.606 146.219 351.618 148.021Z" fill="white"/>
</g>
<path d="M351.358 145.716L280.597 173.415L278.535 168.218L346.002 141.808L349.358 143.531C350.636 144.187 351.37 144.796 351.358 145.716Z" fill="#C340F1"/>
<path opacity="0.1" d="M351.358 145.716L280.597 173.415L278.535 168.218L346.002 141.808L349.358 143.531C350.636 144.187 351.37 144.796 351.358 145.716Z" fill="black"/>
<path d="M349.961 149.617L349.276 151.155C349.265 151.18 349.26 151.208 349.263 151.235L349.646 155.424C349.66 155.577 349.647 155.729 349.611 155.872C349.599 155.921 349.561 155.96 349.514 155.979L340.921 159.361C340.875 159.379 340.822 159.377 340.779 159.35C340.696 159.298 340.617 159.235 340.547 159.163L335.632 154.225C335.587 154.179 335.519 154.165 335.459 154.189L328.483 156.935C328.4 156.968 328.359 157.061 328.392 157.144L329.222 159.249C329.255 159.332 329.214 159.425 329.131 159.458L323.182 161.8C323.099 161.833 323.059 161.926 323.091 162.009L324.524 165.643C324.557 165.726 324.516 165.819 324.433 165.852L320.068 167.57C320.024 167.588 319.973 167.586 319.931 167.562C319.839 167.509 319.753 167.445 319.674 167.371L316.483 164.43C316.437 164.388 316.372 164.376 316.315 164.399L309.385 167.127C309.302 167.16 309.261 167.253 309.294 167.336L310.762 171.06C310.795 171.143 310.754 171.236 310.671 171.269L284.063 181.74C283.98 181.773 283.887 181.732 283.854 181.65L281.199 174.985C281.166 174.902 281.207 174.808 281.29 174.775L350.626 147.485C350.761 147.432 350.892 147.57 350.832 147.702L349.961 149.617Z" fill="#C340F1"/>
<path opacity="0.1" d="M349.961 149.617L349.276 151.155C349.265 151.18 349.26 151.208 349.263 151.235L349.646 155.424C349.66 155.577 349.647 155.729 349.611 155.872C349.599 155.921 349.561 155.96 349.514 155.979L340.921 159.361C340.875 159.379 340.822 159.377 340.779 159.35C340.696 159.298 340.617 159.235 340.547 159.163L335.632 154.225C335.587 154.179 335.519 154.165 335.459 154.189L328.483 156.935C328.4 156.968 328.359 157.061 328.392 157.144L329.222 159.249C329.255 159.332 329.214 159.425 329.131 159.458L323.182 161.8C323.099 161.833 323.059 161.926 323.091 162.009L324.524 165.643C324.557 165.726 324.516 165.819 324.433 165.852L320.068 167.57C320.024 167.588 319.973 167.586 319.931 167.562C319.839 167.509 319.753 167.445 319.674 167.371L316.483 164.43C316.437 164.388 316.372 164.376 316.315 164.399L309.385 167.127C309.302 167.16 309.261 167.253 309.294 167.336L310.762 171.06C310.795 171.143 310.754 171.236 310.671 171.269L284.063 181.74C283.98 181.773 283.887 181.732 283.854 181.65L281.199 174.985C281.166 174.902 281.207 174.808 281.29 174.775L350.626 147.485C350.761 147.432 350.892 147.57 350.832 147.702L349.961 149.617Z" fill="black"/>
<path opacity="0.3" d="M248.073 178.976C242.481 181.165 239.724 187.472 241.916 193.064C244.109 198.656 250.42 201.413 256.012 199.224C261.605 197.035 264.361 190.728 262.169 185.136C259.976 179.544 253.666 176.787 248.073 178.976ZM254.931 197.28C250.473 199.025 245.441 196.826 243.693 192.369C241.945 187.912 244.144 182.884 248.602 181.139C253.06 179.394 258.09 181.592 259.838 186.049C261.586 190.506 259.389 195.535 254.931 197.28Z" fill="white"/>
<path opacity="0.1" d="M287.213 204.701C286.436 205.753 285.512 206.696 284.451 207.502L248.525 159.908L248.496 159.869C248.496 159.869 251.661 158.277 252.378 157.805C252.378 157.844 252.398 157.894 252.427 157.952C253.999 161.323 282.239 197.987 287.213 204.701Z" fill="white"/>
<path opacity="0.1" d="M282.023 209.006C281.797 209.114 271.329 212.299 271.329 212.299L259.662 196.847C262.679 193.888 263.81 189.308 262.168 185.13C259.976 179.537 253.666 176.775 248.073 178.967C247.581 179.154 247.119 179.38 246.677 179.635L236.356 165.962C236.356 165.962 245.429 161.637 246.431 161.008C246.696 162.926 282.023 208.603 282.023 209.006Z" fill="white"/>
<path d="M239.188 133.941C238.019 135.331 237.542 137.277 237.936 139.05C238.33 140.823 239.584 142.384 241.232 143.15C242.086 143.547 243.026 143.737 243.87 144.153C244.715 144.569 245.498 145.302 245.588 146.239C245.687 147.274 244.924 148.241 244.996 149.278C245.062 150.228 245.805 150.982 246.555 151.569C247.305 152.156 248.143 152.71 248.556 153.568C248.969 154.426 248.701 155.697 247.782 155.947C247.588 156.244 247.514 156.952 247.761 157.207C248.008 157.461 248.436 157.515 248.738 157.329C250.149 156.461 251.118 154.824 251.129 153.167C251.14 151.51 250.1 149.893 248.588 149.215C248.316 148.664 248.527 147.965 248.755 147.394C249.213 146.249 249.67 145.104 250.128 143.959C250.308 143.509 250.148 142.69 249.841 142.316C249.534 141.942 249.071 141.738 248.626 141.547L245.678 140.283C244.565 139.806 241.263 135.38 245.183 134.088C244.671 132.951 243.786 132.594 242.559 132.37C241.332 132.146 239.991 132.986 239.188 133.941Z" fill="#263238"/>
<path d="M244.538 129.18C244.44 130.344 244.342 131.507 244.244 132.671C245.221 131.067 247.031 127.958 246.969 128.079C246.201 128.496 245.307 128.762 244.538 129.18Z" fill="#263238"/>
<path d="M245.861 131.092C247.227 129.829 248.592 128.566 249.958 127.304C248.904 126.909 247.628 127.203 246.853 128.02C246.876 127.934 246.244 129.874 245.861 131.092Z" fill="#263238"/>
<path d="M237.533 225.699C232.199 232.317 233.974 237.393 226.613 249.11C235.897 255.992 246.076 257.132 258.73 256.149C260.225 253.5 260.981 250.735 262.477 248.085C264.622 250.746 266.344 252.983 268.488 255.644C275.118 254.605 282.995 252.742 288.238 249.363C283.608 244.053 280.733 237.42 277.768 231.565C276.378 228.82 276.96 227.664 273.272 224.064C261.524 224.606 249.873 224.893 238.125 225.435C238.436 225.452 237.223 225.683 237.533 225.699Z" fill="#263238"/>
<path d="M238.995 224.593L238.259 227.682C238.152 227.925 238.439 228.155 238.834 228.133L271.217 226.7C271.527 226.705 271.774 226.521 271.787 226.333L271.959 223.263C271.962 223.057 271.693 222.883 271.354 222.906L239.536 224.311C239.318 224.301 239.112 224.409 238.995 224.593Z" fill="#C340F1"/>
<path d="M238.995 224.593L238.259 227.682C238.152 227.925 238.439 228.155 238.834 228.133L271.217 226.7C271.527 226.705 271.774 226.521 271.787 226.333L271.959 223.263C271.962 223.057 271.693 222.883 271.354 222.906L239.536 224.311C239.318 224.301 239.112 224.409 238.995 224.593Z" fill="#C340F1"/>
<path d="M246.127 228.138L245.187 228.179C245.008 228.176 244.859 228.099 244.871 227.986L245.124 223.996C245.126 223.883 245.287 223.782 245.475 223.776L246.416 223.725C246.595 223.728 246.744 223.806 246.732 223.928L246.479 227.908C246.468 228.021 246.306 228.132 246.127 228.138Z" fill="#263238"/>
<path d="M269.508 227.13L268.568 227.171C268.389 227.168 268.24 227.09 268.252 226.978L268.505 222.997C268.507 222.875 268.668 222.774 268.847 222.768L269.787 222.727C269.966 222.73 270.115 222.808 270.103 222.92L269.85 226.9C269.848 227.023 269.696 227.124 269.508 227.13Z" fill="#263238"/>
<path d="M250.309 208.72C250.37 209.015 252.885 213.016 254.856 212.739C254.872 212.737 254.889 212.734 254.905 212.732C255.48 212.651 256.053 212.884 256.407 213.344C257.199 214.375 257.677 214.966 258.212 215.643C259.08 216.742 260.587 217.094 261.857 216.504C262.233 216.329 262.605 216.137 262.975 215.941C264.196 215.293 264.819 213.894 264.487 212.552C264.123 211.081 263.557 209.66 262.805 208.345C262.548 207.895 262.253 207.441 261.806 207.181C261.359 206.92 257.02 205.609 255.335 205.662C253.58 205.717 251.915 208.014 250.309 208.72Z" fill="#E8BFBF"/>
<path d="M255.378 205.53C255.378 205.53 228.796 197.481 223.062 202.84C219.691 205.991 221.283 208.966 223.167 210.884C224.569 212.311 227.623 211.96 229.621 211.867L250.56 209.813L255.378 205.53Z" fill="#E8BFBF"/>
<path d="M240.103 201.852C239.959 200.413 238.845 199.218 237.551 198.573C236.257 197.928 234.791 197.737 233.357 197.555C230.017 197.132 226.677 196.708 223.337 196.285C221.641 198.43 220.421 201.376 220.474 204.11C220.527 206.844 221.556 209.549 223.333 211.627C224.931 208.537 227.039 205.356 230.16 203.821C233.282 202.287 236.68 201.232 240.103 201.852Z" fill="#263238"/>
<path opacity="0.1" d="M233.25 153.299C233.22 153.239 233.22 153.209 233.25 153.199C233.46 153.139 233.43 153.179 233.25 153.299Z" fill="white"/>
<path d="M299.289 110.264L306.695 123.996L336.913 98.3356C337.179 98.1096 336.871 97.7006 336.58 97.8926L308.252 116.591L303.885 108.074L299.289 110.264Z" fill="#C340F1"/>
<path d="M346.965 110.328C346.965 122.566 334.118 132.483 318.273 132.483C312.189 132.483 306.556 131.028 301.917 128.522L285.071 135.845L295.705 124C291.872 120.245 289.581 115.498 289.581 110.327C289.581 98.0889 302.428 88.1719 318.273 88.1719C334.118 88.1729 346.965 98.0909 346.965 110.328Z" stroke="#C340F1" stroke-width="1.3" stroke-miterlimit="10"/>
</svg>
