<svg width="500" height="500" viewBox="0 0 500 500" fill="none" xmlns="http://www.w3.org/2000/svg">
<path d="M500 382.398H0V382.648H500V382.398Z" fill="#E0E0E0"/>
<path d="M135.576 392.989H101.172V393.239H135.576V392.989Z" fill="#E0E0E0"/>
<path d="M93.839 393.114H74.48V393.364H93.839V393.114Z" fill="#E0E0E0"/>
<path d="M214.239 392.528H175V392.778H214.239V392.528Z" fill="#E0E0E0"/>
<path d="M314.556 388.972H198.778V389.222H314.556V388.972Z" fill="#E0E0E0"/>
<path d="M413.666 389.097H360.681V389.347H413.666V389.097Z" fill="#E0E0E0"/>
<path d="M237.014 337.8H43.915C40.768 337.8 38.207 335.239 38.207 332.092V60.6601C38.207 57.5131 40.768 54.9521 43.915 54.9521H237.014C240.16 54.9521 242.721 57.5131 242.721 60.6601V332.092C242.721 335.239 240.16 337.8 237.014 337.8ZM43.915 55.2031C40.905 55.2031 38.457 57.6511 38.457 60.6611V332.093C38.457 335.103 40.905 337.551 43.915 337.551H237.014C240.023 337.551 242.471 335.103 242.471 332.093V60.6601C242.471 57.6511 240.023 55.2021 237.014 55.2021L43.915 55.2031Z" fill="#E0E0E0"/>
<path d="M453.31 337.8H260.212C257.066 337.8 254.505 335.239 254.505 332.092V60.6601C254.505 57.5131 257.066 54.9521 260.212 54.9521H453.31C456.458 54.9521 459.018 57.5131 459.018 60.6601V332.092C459.019 335.239 456.458 337.8 453.31 337.8ZM260.212 55.2031C257.203 55.2031 254.755 57.6511 254.755 60.6611V332.093C254.755 335.103 257.203 337.551 260.212 337.551H453.31C456.32 337.551 458.768 335.103 458.768 332.093V60.6601C458.768 57.6511 456.32 55.2021 453.31 55.2021L260.212 55.2031Z" fill="#E0E0E0"/>
<path d="M213.739 284.609V284.616C213.189 284.616 212.636 284.628 212.078 284.666C200.348 285.466 190.864 295.002 190.116 306.735C189.945 309.415 190.222 312.005 190.877 314.44C193.579 324.473 194.589 334.887 194.589 345.278V375.557C194.589 377.752 196.369 379.532 198.564 379.532H213.739H228.914H294.676V284.609H213.739Z" fill="#E6E6E6"/>
<path d="M318.348 308.282C318.348 294.658 306.84 283.723 293.014 284.666C281.284 285.466 271.8 295.002 271.052 306.735C270.881 309.415 271.158 312.005 271.814 314.44C274.516 324.473 275.526 334.887 275.526 345.278V375.557C275.526 377.752 277.306 379.532 279.501 379.532H309.85C312.045 379.532 313.825 377.752 313.825 375.557V343.5C313.825 333.753 314.887 324.001 317.491 314.608C318.05 312.595 318.348 310.474 318.348 308.282Z" fill="#F0F0F0"/>
<path d="M262.056 321.899H175.788V379.532H262.056V321.899Z" fill="#E6E6E6"/>
<path d="M202.038 228.614H122.404C112.509 228.614 104.488 236.635 104.488 246.53V334.929H219.955V246.53C219.954 236.635 211.932 228.614 202.038 228.614Z" fill="#E0E0E0"/>
<path d="M225.458 228.614H144.097C134.679 228.614 127.044 236.249 127.044 245.667V334.929H242.511V245.667C242.511 236.249 234.876 228.614 225.458 228.614Z" fill="#F0F0F0"/>
<path d="M260.949 316.637H181.433C180.575 316.637 179.88 317.332 179.88 318.19V338.555C179.88 339.413 180.575 340.108 181.433 340.108H260.949C263.821 340.108 266.148 337.78 266.148 334.909V321.837C266.149 318.965 263.821 316.637 260.949 316.637Z" fill="#E0E0E0"/>
<path d="M95.9801 284.609V284.616C95.4301 284.616 94.8771 284.628 94.3191 284.666C82.5891 285.466 73.1051 295.002 72.3571 306.735C72.1861 309.415 72.4631 312.005 73.1181 314.44C75.8201 324.473 76.8301 334.887 76.8301 345.278V375.557C76.8301 377.752 78.6101 379.532 80.8051 379.532H95.9801H111.155H176.917V284.609H95.9801Z" fill="#E6E6E6"/>
<path d="M200.589 308.282C200.589 294.658 189.081 283.723 175.255 284.666C163.525 285.466 154.041 295.002 153.293 306.735C153.122 309.415 153.399 312.005 154.054 314.44C156.756 324.473 157.766 334.887 157.766 345.278V375.557C157.766 377.752 159.546 379.532 161.741 379.532H192.09C194.285 379.532 196.065 377.752 196.065 375.557V343.5C196.065 333.753 197.127 324.001 199.731 314.608C200.29 312.595 200.589 310.474 200.589 308.282Z" fill="#F0F0F0"/>
<path d="M292.987 382.414H97.6691C96.0771 382.414 94.7871 381.124 94.7871 379.532H295.868C295.868 381.124 294.578 382.414 292.987 382.414Z" fill="#E0E0E0"/>
<path d="M143.35 101.458H85.875V161.018H143.35V101.458Z" fill="#E0E0E0"/>
<path d="M146.617 101.458H90.5898V161.018H146.617V101.458Z" fill="#F0F0F0"/>
<path d="M141.923 156.325V106.152L95.2839 106.152V156.325H141.923Z" fill="#FAFAFA"/>
<path d="M118.603 118.555L105.848 140.648H131.359L118.603 118.555Z" fill="#F0F0F0"/>
<path d="M219.954 126.545H162.479V186.105H219.954V126.545Z" fill="#E0E0E0"/>
<path d="M223.221 126.545H167.194V186.105H223.221V126.545Z" fill="#F0F0F0"/>
<path d="M218.527 181.411V131.238H171.888V181.411H218.527Z" fill="#FAFAFA"/>
<path d="M200.915 165.272L206.448 155.689C208.985 151.295 205.814 145.803 200.74 145.803H189.674C184.601 145.803 181.43 151.295 183.966 155.689L189.499 165.272C192.037 169.666 198.378 169.666 200.915 165.272Z" fill="#F0F0F0"/>
<path d="M353.065 240.454H337.358V377.665H353.065V240.454Z" fill="#E6E6E6"/>
<path d="M428.513 377.665H341.503V382.399H428.513V377.665Z" fill="#E6E6E6"/>
<path d="M353.066 377.664H432.657V240.453H353.066V377.664Z" fill="#F0F0F0"/>
<path d="M361.551 336.402H424.17V311.901H361.551V336.402Z" fill="#E6E6E6"/>
<path d="M361.551 368.469H424.17V343.968H361.551V368.469Z" fill="#E6E6E6"/>
<path d="M401.928 325.832H383.794C382.919 325.832 382.204 325.116 382.204 324.242V324.062C382.204 323.187 382.919 322.472 383.794 322.472H401.928C402.802 322.472 403.518 323.187 403.518 324.062V324.242C403.518 325.116 402.803 325.832 401.928 325.832Z" fill="#F0F0F0"/>
<path d="M401.928 357.899H383.794C382.919 357.899 382.204 357.184 382.204 356.309V356.129C382.204 355.254 382.919 354.539 383.794 354.539H401.928C402.802 354.539 403.518 355.254 403.518 356.129V356.309C403.518 357.183 402.803 357.899 401.928 357.899Z" fill="#F0F0F0"/>
<path d="M361.551 272.521H424.17V248.02H361.551V272.521Z" fill="#E6E6E6"/>
<path d="M361.551 304.334H424.17V279.833H361.551V304.334Z" fill="#E6E6E6"/>
<path d="M401.928 261.95H383.794C382.919 261.95 382.204 261.234 382.204 260.36V260.18C382.204 259.305 382.919 258.59 383.794 258.59H401.928C402.802 258.59 403.518 259.306 403.518 260.18V260.36C403.518 261.235 402.803 261.95 401.928 261.95Z" fill="#F0F0F0"/>
<path d="M401.928 293.764H383.794C382.919 293.764 382.204 293.048 382.204 292.174V291.994C382.204 291.119 382.919 290.404 383.794 290.404H401.928C402.802 290.404 403.518 291.12 403.518 291.994V292.174C403.518 293.049 402.803 293.764 401.928 293.764Z" fill="#F0F0F0"/>
<path d="M412.171 200.808H397.421C397.421 200.808 399.982 209.65 399.982 214.853C399.982 220.056 388.763 240.453 404.797 240.453C420.83 240.453 409.611 220.056 409.611 214.853C409.61 209.65 412.171 200.808 412.171 200.808Z" fill="#F0F0F0"/>
<path d="M373.781 212.689C373.781 216.584 370.624 219.741 366.729 219.741C362.834 219.741 359.677 216.584 359.677 212.689C359.677 208.794 362.834 205.637 366.729 205.637C370.624 205.637 373.781 208.794 373.781 212.689Z" fill="#F0F0F0"/>
<path d="M385.852 216.05C385.852 219.945 382.695 223.102 378.8 223.102C374.905 223.102 371.748 219.945 371.748 216.05C371.748 212.155 374.905 208.998 378.8 208.998C382.694 208.998 385.852 212.155 385.852 216.05Z" fill="#F0F0F0"/>
<path d="M396.165 213.335C396.165 217.23 393.008 220.387 389.113 220.387C385.218 220.387 382.061 217.23 382.061 213.335C382.061 209.44 385.218 206.283 389.113 206.283C393.008 206.283 396.165 209.44 396.165 213.335Z" fill="#F0F0F0"/>
<path d="M354.111 216.182V224.234C354.111 233.155 362.739 240.454 373.284 240.454H382.802C393.347 240.454 401.975 233.155 401.975 224.234V216.182H354.111Z" fill="#E6E6E6"/>
<path d="M323.364 175.01C312.302 175.01 303.335 166.043 303.335 154.981C303.335 143.919 312.302 134.952 323.364 134.952H325.821V175.011H323.364V175.01Z" fill="#E0E0E0"/>
<path d="M345.322 159.545C347.842 148.775 341.153 138 330.382 135.48C319.612 132.961 308.837 139.649 306.317 150.42C303.798 161.191 310.486 171.965 321.257 174.485C332.028 177.005 342.802 170.316 345.322 159.545Z" fill="#F0F0F0"/>
<path d="M326.724 157.48C325.343 157.48 324.224 156.361 324.224 154.98C324.224 153.599 325.343 152.48 326.724 152.48C338.648 152.48 348.349 142.779 348.349 130.855V97.6133C348.349 96.2323 349.468 95.1133 350.849 95.1133C352.23 95.1133 353.349 96.2323 353.349 97.6133V130.855C353.349 145.537 341.404 157.48 326.724 157.48Z" fill="#E0E0E0"/>
<path d="M374.491 130.791H327.206L332.49 87.4668H369.208L374.491 130.791Z" fill="#F0F0F0"/>
<path d="M250 427.561C357.082 427.561 443.889 422.492 443.889 416.238C443.889 409.985 357.082 404.915 250 404.915C142.918 404.915 56.1108 409.985 56.1108 416.238C56.1108 422.492 142.918 427.561 250 427.561Z" fill="#F5F5F5"/>
<path d="M401.291 326.692L399.576 313.397C399.048 309.306 395.564 306.242 391.439 306.242H347.14C343.015 306.242 339.531 303.179 339.003 299.087L329.806 227.813C329.173 222.905 332.995 218.558 337.943 218.558H378.008C382.956 218.558 386.778 214.211 386.145 209.303L384.43 196.008C383.902 191.917 380.418 188.853 376.293 188.853H331.994C327.869 188.853 324.385 185.79 323.857 181.698L315.343 115.716C314.815 111.625 311.331 108.561 307.206 108.561H294.047C289.099 108.561 285.277 112.908 285.91 117.816L293.882 179.598C294.515 184.505 290.693 188.853 285.745 188.853H178.504C174.379 188.853 170.895 185.79 170.367 181.698L161.853 115.716C161.325 111.625 157.841 108.561 153.716 108.561H140.557C135.609 108.561 131.787 112.908 132.42 117.816L140.392 179.598C141.025 184.505 137.203 188.853 132.255 188.853H92.1901C87.2421 188.853 83.4201 193.2 84.0531 198.108L85.7681 211.403C86.2961 215.495 89.7801 218.558 93.9051 218.558H138.204C142.329 218.558 145.813 221.621 146.341 225.713L155.537 296.987C156.17 301.894 152.348 306.242 147.4 306.242H107.336C102.388 306.242 98.5651 310.589 99.1991 315.497L100.914 328.792C101.442 332.884 104.926 335.947 109.051 335.947H153.35C157.475 335.947 160.959 339.01 161.487 343.102L170.001 409.084C170.529 413.175 174.013 416.239 178.138 416.239H191.297C196.245 416.239 200.067 411.892 199.434 406.984L191.462 345.201C190.829 340.293 194.651 335.946 199.599 335.946H306.84C310.965 335.946 314.449 339.009 314.977 343.101L323.491 409.083C324.019 413.174 327.503 416.238 331.628 416.238H344.787C349.735 416.238 353.557 411.891 352.924 406.983L344.952 345.2C344.319 340.292 348.141 335.945 353.089 335.945H393.154C398.102 335.946 401.924 331.599 401.291 326.692ZM185.513 299.088L176.316 227.814C175.683 222.906 179.505 218.559 184.453 218.559H291.692C295.817 218.559 299.301 221.622 299.829 225.714L309.025 296.988C309.658 301.895 305.836 306.243 300.888 306.243H193.651C189.525 306.242 186.041 303.179 185.513 299.088Z" fill="#CD40FF"/>
<path opacity="0.4" d="M401.291 326.692L399.576 313.397C399.048 309.306 395.564 306.242 391.439 306.242H347.14C343.015 306.242 339.531 303.179 339.003 299.087L329.806 227.813C329.173 222.905 332.995 218.558 337.943 218.558H378.008C382.956 218.558 386.778 214.211 386.145 209.303L384.43 196.008C383.902 191.917 380.418 188.853 376.293 188.853H331.994C327.869 188.853 324.385 185.79 323.857 181.698L315.343 115.716C314.815 111.625 311.331 108.561 307.206 108.561H294.047C289.099 108.561 285.277 112.908 285.91 117.816L293.882 179.598C294.515 184.505 290.693 188.853 285.745 188.853H178.504C174.379 188.853 170.895 185.79 170.367 181.698L161.853 115.716C161.325 111.625 157.841 108.561 153.716 108.561H140.557C135.609 108.561 131.787 112.908 132.42 117.816L140.392 179.598C141.025 184.505 137.203 188.853 132.255 188.853H92.1901C87.2421 188.853 83.4201 193.2 84.0531 198.108L85.7681 211.403C86.2961 215.495 89.7801 218.558 93.9051 218.558H138.204C142.329 218.558 145.813 221.621 146.341 225.713L155.537 296.987C156.17 301.894 152.348 306.242 147.4 306.242H107.336C102.388 306.242 98.5651 310.589 99.1991 315.497L100.914 328.792C101.442 332.884 104.926 335.947 109.051 335.947H153.35C157.475 335.947 160.959 339.01 161.487 343.102L170.001 409.084C170.529 413.175 174.013 416.239 178.138 416.239H191.297C196.245 416.239 200.067 411.892 199.434 406.984L191.462 345.201C190.829 340.293 194.651 335.946 199.599 335.946H306.84C310.965 335.946 314.449 339.009 314.977 343.101L323.491 409.083C324.019 413.174 327.503 416.238 331.628 416.238H344.787C349.735 416.238 353.557 411.891 352.924 406.983L344.952 345.2C344.319 340.292 348.141 335.945 353.089 335.945H393.154C398.102 335.946 401.924 331.599 401.291 326.692ZM185.513 299.088L176.316 227.814C175.683 222.906 179.505 218.559 184.453 218.559H291.692C295.817 218.559 299.301 221.622 299.829 225.714L309.025 296.988C309.658 301.895 305.836 306.243 300.888 306.243H193.651C189.525 306.242 186.041 303.179 185.513 299.088Z" fill="black"/>
<path d="M212.447 374.707L211.467 367.111L212.459 366.982L213.439 374.578L212.447 374.707ZM352.748 272.508L349.233 245.263L350.225 245.135L353.74 272.38L352.748 272.508ZM186.431 173.072L185.018 162.126L186.01 161.998L187.423 172.944L186.431 173.072ZM184.15 155.399L181.753 136.827L182.745 136.699L185.142 155.271L184.15 155.399Z" fill="#CD40FF"/>
<path opacity="0.3" d="M212.447 374.707L211.467 367.111L212.459 366.982L213.439 374.578L212.447 374.707ZM352.748 272.508L349.233 245.263L350.225 245.135L353.74 272.38L352.748 272.508ZM186.431 173.072L185.018 162.126L186.01 161.998L187.423 172.944L186.431 173.072ZM184.15 155.399L181.753 136.827L182.745 136.699L185.142 155.271L184.15 155.399Z" fill="black"/>
<path d="M415.947 326.692L414.232 313.397C413.704 309.306 410.22 306.242 406.095 306.242H361.796C357.671 306.242 354.187 303.179 353.659 299.087L344.462 227.813C343.829 222.905 347.651 218.558 352.599 218.558H392.664C397.612 218.558 401.434 214.211 400.801 209.303L399.086 196.008C398.558 191.917 395.074 188.853 390.949 188.853H346.65C342.525 188.853 339.041 185.79 338.513 181.698L329.999 115.716C329.471 111.625 325.987 108.561 321.862 108.561H308.703C303.755 108.561 299.933 112.908 300.566 117.816L308.538 179.598C309.171 184.505 305.349 188.853 300.401 188.853H193.16C189.035 188.853 185.551 185.79 185.023 181.698L176.509 115.716C175.981 111.625 172.497 108.561 168.372 108.561H155.213C150.265 108.561 146.443 112.908 147.076 117.816L155.048 179.598C155.681 184.505 151.859 188.853 146.911 188.853H106.846C101.898 188.853 98.0758 193.2 98.7088 198.108L100.424 211.403C100.952 215.495 104.436 218.558 108.561 218.558H152.86C156.985 218.558 160.469 221.621 160.997 225.713L170.193 296.987C170.826 301.894 167.004 306.242 162.056 306.242H121.992C117.044 306.242 113.222 310.589 113.855 315.497L115.57 328.792C116.098 332.884 119.582 335.947 123.707 335.947H168.006C172.131 335.947 175.615 339.01 176.143 343.102L184.657 409.084C185.185 413.175 188.669 416.239 192.794 416.239H205.953C210.901 416.239 214.723 411.892 214.09 406.984L206.118 345.201C205.485 340.293 209.307 335.946 214.255 335.946H321.494C325.619 335.946 329.103 339.009 329.631 343.101L338.145 409.083C338.673 413.174 342.157 416.238 346.282 416.238H359.441C364.389 416.238 368.211 411.891 367.578 406.983L359.606 345.2C358.973 340.292 362.795 335.945 367.743 335.945H407.808C412.758 335.946 416.58 331.599 415.947 326.692ZM200.169 299.088L190.972 227.814C190.339 222.906 194.161 218.559 199.109 218.559H306.348C310.473 218.559 313.957 221.622 314.485 225.714L323.681 296.988C324.314 301.895 320.492 306.243 315.544 306.243H208.306C204.181 306.242 200.697 303.179 200.169 299.088Z" fill="#CD40FF"/>
<path opacity="0.3" d="M415.947 326.692L414.232 313.397C413.704 309.306 410.22 306.242 406.095 306.242H361.796C357.671 306.242 354.187 303.179 353.659 299.087L344.462 227.813C343.829 222.905 347.651 218.558 352.599 218.558H392.664C397.612 218.558 401.434 214.211 400.801 209.303L399.086 196.008C398.558 191.917 395.074 188.853 390.949 188.853H346.65C342.525 188.853 339.041 185.79 338.513 181.698L329.999 115.716C329.471 111.625 325.987 108.561 321.862 108.561H308.703C303.755 108.561 299.933 112.908 300.566 117.816L308.538 179.598C309.171 184.505 305.349 188.853 300.401 188.853H193.16C189.035 188.853 185.551 185.79 185.023 181.698L176.509 115.716C175.981 111.625 172.497 108.561 168.372 108.561H155.213C150.265 108.561 146.443 112.908 147.076 117.816L155.048 179.598C155.681 184.505 151.859 188.853 146.911 188.853H106.846C101.898 188.853 98.0758 193.2 98.7088 198.108L100.424 211.403C100.952 215.495 104.436 218.558 108.561 218.558H152.86C156.985 218.558 160.469 221.621 160.997 225.713L170.193 296.987C170.826 301.894 167.004 306.242 162.056 306.242H121.992C117.044 306.242 113.222 310.589 113.855 315.497L115.57 328.792C116.098 332.884 119.582 335.947 123.707 335.947H168.006C172.131 335.947 175.615 339.01 176.143 343.102L184.657 409.084C185.185 413.175 188.669 416.239 192.794 416.239H205.953C210.901 416.239 214.723 411.892 214.09 406.984L206.118 345.201C205.485 340.293 209.307 335.946 214.255 335.946H321.494C325.619 335.946 329.103 339.009 329.631 343.101L338.145 409.083C338.673 413.174 342.157 416.238 346.282 416.238H359.441C364.389 416.238 368.211 411.891 367.578 406.983L359.606 345.2C358.973 340.292 362.795 335.945 367.743 335.945H407.808C412.758 335.946 416.58 331.599 415.947 326.692ZM200.169 299.088L190.972 227.814C190.339 222.906 194.161 218.559 199.109 218.559H306.348C310.473 218.559 313.957 221.622 314.485 225.714L323.681 296.988C324.314 301.895 320.492 306.243 315.544 306.243H208.306C204.181 306.242 200.697 303.179 200.169 299.088Z" fill="black"/>
<path d="M359.442 413.362H346.284C343.612 413.362 341.34 411.364 340.998 408.714L332.484 342.733C331.774 337.225 327.05 333.071 321.496 333.071H214.257C211.073 333.071 208.04 334.443 205.937 336.835C203.833 339.227 202.86 342.41 203.268 345.569L211.24 407.351C211.439 408.893 210.983 410.385 209.957 411.552C208.931 412.719 207.51 413.363 205.955 413.363H192.797C190.126 413.363 187.853 411.365 187.511 408.715L178.997 342.734C178.286 337.226 173.561 333.072 168.009 333.072H123.709C121.037 333.072 118.765 331.074 118.424 328.425L116.708 315.13C116.509 313.589 116.965 312.096 117.992 310.928C119.018 309.761 120.439 309.118 121.994 309.118H162.058C165.243 309.118 168.276 307.746 170.379 305.353C172.481 302.962 173.454 299.779 173.046 296.62L163.85 225.347C163.139 219.839 158.414 215.685 152.862 215.685H108.562C105.89 215.685 103.618 213.687 103.277 211.037L101.561 197.743C101.362 196.201 101.818 194.709 102.844 193.541C103.871 192.374 105.293 191.731 106.847 191.731H146.911C150.096 191.731 153.129 190.359 155.232 187.967C157.335 185.575 158.307 182.391 157.899 179.234L149.927 117.453C149.728 115.912 150.184 114.419 151.21 113.251C152.237 112.084 153.659 111.441 155.213 111.441H168.371C171.043 111.441 173.315 113.439 173.656 116.088L182.171 182.07C182.881 187.578 187.605 191.732 193.159 191.732H300.398C303.583 191.732 306.616 190.36 308.719 187.968C310.821 185.576 311.793 182.392 311.386 179.235L303.414 117.454C303.215 115.913 303.671 114.42 304.697 113.252C305.724 112.085 307.145 111.442 308.7 111.442H321.858C324.53 111.442 326.802 113.44 327.143 116.089L335.657 182.071C336.369 187.579 341.093 191.733 346.646 191.733H390.945C393.617 191.733 395.889 193.731 396.231 196.38L397.946 209.675C398.145 211.218 397.689 212.71 396.663 213.876C395.638 215.044 394.216 215.687 392.661 215.687H352.597C349.412 215.687 346.379 217.059 344.276 219.45C342.173 221.843 341.201 225.026 341.608 228.183L350.804 299.458C351.516 304.966 356.239 309.119 361.793 309.119H406.092C408.764 309.119 411.036 311.117 411.378 313.767L413.093 327.061C413.292 328.603 412.837 330.095 411.811 331.262C410.784 332.43 409.363 333.073 407.808 333.073H367.743C364.558 333.073 361.525 334.445 359.423 336.837C357.32 339.229 356.347 342.412 356.754 345.571L364.726 407.353C364.925 408.895 364.469 410.387 363.443 411.554C362.419 412.719 360.997 413.362 359.442 413.362ZM214.257 332.82H321.496C327.176 332.82 332.007 337.068 332.732 342.701L341.246 408.683C341.572 411.208 343.738 413.113 346.284 413.113H359.442C360.924 413.113 362.279 412.5 363.256 411.387C364.235 410.275 364.668 408.853 364.479 407.382L356.507 345.6C356.09 342.371 357.085 339.116 359.236 336.668C361.386 334.223 364.487 332.82 367.744 332.82H407.809C409.29 332.82 410.645 332.208 411.624 331.094C412.601 329.982 413.035 328.559 412.846 327.089L411.131 313.795C410.805 311.27 408.639 309.365 406.093 309.365H361.794C356.115 309.365 351.284 305.118 350.557 299.485L341.361 228.211C340.944 224.982 341.939 221.727 344.089 219.28C346.24 216.834 349.342 215.432 352.598 215.432H392.662C394.144 215.432 395.499 214.819 396.476 213.706C397.455 212.594 397.888 211.172 397.699 209.702L395.984 196.407C395.658 193.882 393.492 191.978 390.946 191.978H346.647C340.968 191.978 336.137 187.731 335.41 182.099L326.896 116.117C326.571 113.592 324.406 111.688 321.859 111.688H308.701C307.22 111.688 305.865 112.301 304.886 113.413C303.908 114.527 303.474 115.949 303.663 117.418L311.635 179.199C312.052 182.429 311.058 185.683 308.908 188.13C306.758 190.576 303.656 191.979 300.399 191.979H193.16C187.481 191.979 182.65 187.732 181.924 182.1L173.409 116.118C173.084 113.593 170.919 111.689 168.372 111.689H155.214C153.732 111.689 152.377 112.302 151.398 113.414C150.42 114.528 149.986 115.95 150.175 117.419L158.147 179.2C158.564 182.43 157.569 185.684 155.419 188.131C153.268 190.577 150.167 191.98 146.91 191.98H106.846C105.365 191.98 104.01 192.593 103.031 193.705C102.053 194.819 101.619 196.241 101.808 197.71L103.524 211.004C103.849 213.53 106.014 215.434 108.561 215.434H152.861C158.539 215.434 163.37 219.681 164.097 225.313L173.293 296.587C173.71 299.817 172.715 303.072 170.566 305.518C168.415 307.963 165.314 309.367 162.057 309.367H121.993C120.512 309.367 119.156 309.979 118.179 311.093C117.2 312.205 116.766 313.628 116.955 315.098L118.671 328.393C118.996 330.917 121.162 332.822 123.708 332.822H168.008C173.686 332.822 178.517 337.07 179.244 342.703L187.758 408.685C188.084 411.21 190.25 413.115 192.796 413.115H205.954C207.436 413.115 208.79 412.502 209.768 411.389C210.746 410.277 211.181 408.855 210.991 407.384L203.019 345.602C202.603 342.373 203.597 339.118 205.749 336.67C207.899 334.223 211 332.82 214.257 332.82ZM315.546 309.366H208.307C202.628 309.366 197.798 305.119 197.07 299.486L187.874 228.212C187.457 224.983 188.452 221.728 190.603 219.281C192.754 216.835 195.855 215.433 199.112 215.433H306.35C312.028 215.433 316.859 219.68 317.586 225.312L326.782 296.586C327.199 299.816 326.205 303.071 324.054 305.517C321.904 307.963 318.803 309.366 315.546 309.366ZM199.11 215.684C195.925 215.684 192.893 217.056 190.789 219.447C188.686 221.84 187.714 225.023 188.121 228.18L197.317 299.455C198.028 304.963 202.753 309.116 208.306 309.116H315.545C318.73 309.116 321.763 307.744 323.866 305.351C325.969 302.96 326.94 299.777 326.533 296.618L317.337 225.345C316.625 219.837 311.901 215.683 306.349 215.683L199.11 215.684Z" fill="#CD40FF"/>
<path d="M275.917 374.84L283.774 379.434L295.623 361.946L287.766 357.352L275.917 374.84Z" fill="#E4897B"/>
<path d="M284.052 379.17L277.596 371.241C277.361 370.952 276.97 370.881 276.655 371.07L269.645 375.273C268.918 375.709 268.758 376.771 269.311 377.428C271.609 380.154 272.856 381.354 275.695 384.841C277.442 386.986 280.831 391.604 283.243 394.567C285.602 397.465 288.713 395.304 287.974 393.854C284.66 387.354 284.529 383.841 284.577 380.704C284.588 380.138 284.396 379.592 284.052 379.17Z" fill="#263238"/>
<path d="M287 384.136C286.939 384.136 286.877 384.131 286.814 384.121C285.532 383.92 284.171 381.683 283.475 380.368C283.445 380.311 283.454 380.241 283.497 380.193C283.543 380.145 283.61 380.13 283.67 380.157C284.091 380.339 287.789 381.968 288.015 383.188C288.056 383.409 287.989 383.612 287.82 383.777C287.576 384.016 287.301 384.136 287 384.136ZM283.96 380.62C285.015 382.512 286.086 383.698 286.861 383.819C287.138 383.865 287.382 383.778 287.607 383.558C287.704 383.464 287.738 383.364 287.715 383.244C287.567 382.44 285.241 381.213 283.96 380.62Z" fill="#CD40FF"/>
<path d="M286.56 381.037C285.487 381.037 284.184 380.753 283.542 380.433C283.494 380.409 283.462 380.361 283.458 380.307C283.454 380.253 283.479 380.202 283.524 380.17C283.608 380.112 285.628 378.742 287.055 379.024C287.486 379.108 287.822 379.331 288.057 379.687C288.366 380.155 288.251 380.455 288.102 380.622C287.839 380.921 287.246 381.037 286.56 381.037ZM283.932 380.272C285.161 380.758 287.422 380.932 287.875 380.42C287.917 380.372 288.048 380.226 287.804 379.855C287.613 379.566 287.35 379.392 286.998 379.323C285.95 379.12 284.495 379.927 283.932 380.272Z" fill="#CD40FF"/>
<path d="M263.603 237.126L263.98 238.648L264.407 240.292C264.702 241.393 265.026 242.5 265.363 243.605C266.006 245.826 266.707 248.048 267.473 250.254C268.247 252.456 269.003 254.675 269.845 256.865C270.259 257.963 270.666 259.066 271.102 260.158L271.612 261.468C271.689 261.65 271.817 261.863 272.009 262.096C272.777 263.067 274.524 264.133 276.443 264.896C278.374 265.712 280.537 266.317 282.747 266.853C284.964 267.372 287.249 267.801 289.559 268.154C291.855 268.543 294.238 268.802 296.515 269.052L296.598 273.755C291.579 274.247 286.662 274.303 281.58 273.753C279.043 273.483 276.489 273.025 273.868 272.258C272.562 271.858 271.239 271.363 269.899 270.694C268.566 270.01 267.187 269.172 265.906 267.887C265.27 267.246 264.663 266.493 264.154 265.623C264.024 265.41 263.911 265.176 263.794 264.951L263.564 264.482L263.16 263.649C262.618 262.54 262.079 261.428 261.577 260.298C260.564 258.044 259.57 255.772 258.699 253.447C257.809 251.129 256.969 248.785 256.207 246.399C255.844 245.199 255.494 243.993 255.169 242.767L254.695 240.912C254.55 240.255 254.423 239.699 254.277 238.909L263.603 237.126Z" fill="#E4897B"/>
<path d="M260.631 227.219C264.382 228.174 267.007 243.611 267.007 243.611L256.67 250.641C256.67 250.641 246.759 235.068 249.644 230.943C252.648 226.648 255.156 225.825 260.631 227.219Z" fill="#CD40FF"/>
<path opacity="0.2" d="M260.631 227.219C264.382 228.174 267.007 243.611 267.007 243.611L256.67 250.641C256.67 250.641 246.759 235.068 249.644 230.943C252.648 226.648 255.156 225.825 260.631 227.219Z" fill="black"/>
<path d="M260.97 232.83L252.94 234.69L252.17 242.54C254.27 246.87 256.67 250.64 256.67 250.64L262.94 246.38C262.67 242.77 261.99 235.27 260.97 232.83Z" fill="#CD40FF"/>
<path opacity="0.3" d="M260.97 232.83L252.94 234.69L252.17 242.54C254.27 246.87 256.67 250.64 256.67 250.64L262.94 246.38C262.67 242.77 261.99 235.27 260.97 232.83Z" fill="black"/>
<path d="M295.176 268.991L301.632 262.448L302.481 271.665C302.481 271.665 297.641 274.941 294.292 273.18L295.176 268.991Z" fill="#E4897B"/>
<path d="M309.221 261.47L309.514 269.224L302.481 271.664L301.632 262.448L309.221 261.47Z" fill="#E4897B"/>
<path d="M262.968 392.83H272.069L274.996 371.753H265.894L262.968 392.83Z" fill="#E4897B"/>
<path d="M272.668 390.105L263.643 385.299C263.315 385.124 262.927 385.21 262.71 385.506L257.879 392.1C257.378 392.784 257.642 393.824 258.406 394.215C261.582 395.836 263.196 396.459 267.165 398.573C269.607 399.873 275.734 403.461 279.106 405.256C282.404 407.012 284.433 403.814 283.19 402.764C277.615 398.058 274.92 394.226 273.748 391.315C273.537 390.79 273.149 390.361 272.668 390.105Z" fill="#263238"/>
<path d="M222.448 191.667C222.221 201.672 209.98 197.535 208.611 209.056C207.841 215.535 199.997 216.197 198.583 222.084C197.222 227.751 202.75 231.873 198.583 238.929C193.004 248.377 189.884 264.861 221.189 266.567C244.474 267.836 252.656 244.194 248.713 229.657C244.771 215.12 242.555 212.889 246.889 208.889C251.223 204.889 258.156 202.837 255.941 190.667C254.222 181.222 250.045 182.334 250.045 182.334C249.864 177.092 222.952 169.417 222.448 191.667Z" fill="#263238"/>
<path d="M295.618 361.95L289.512 370.965L281.652 366.368L287.758 357.354L295.618 361.95Z" fill="#CE6F64"/>
<path d="M265.891 371.758H274.996L273.484 382.623H264.378L265.891 371.758Z" fill="#CE6F64"/>
<path d="M260.631 227.219C260.631 227.219 264.967 228.746 256.281 282.152C241.613 282.152 226.453 282.152 219.315 282.152C219.935 267.107 219.953 257.83 212.762 226.955C212.762 226.955 220.507 225.27 228.459 224.887C234.679 224.587 239.776 224.389 245.244 224.888C252.455 225.545 260.631 227.219 260.631 227.219Z" fill="#CD40FF"/>
<path opacity="0.2" d="M260.631 227.219C260.631 227.219 264.967 228.746 256.281 282.152C241.613 282.152 226.453 282.152 219.315 282.152C219.935 267.107 219.953 257.83 212.762 226.955C212.762 226.955 220.507 225.27 228.459 224.887C234.679 224.587 239.776 224.389 245.244 224.888C252.455 225.545 260.631 227.219 260.631 227.219Z" fill="black"/>
<path d="M230.123 205.986C231.182 211.387 232.238 221.283 228.46 224.886C228.46 224.886 229.936 230.365 239.972 230.365C249.625 230.365 245.246 224.887 245.246 224.887C239.223 223.449 239.379 218.98 240.428 214.784L230.123 205.986Z" fill="#E4897B"/>
<path d="M234.324 209.576L240.423 214.78C240.171 215.773 239.976 216.78 239.905 217.759C237.604 217.426 234.444 214.901 234.199 212.492C234.078 211.29 234.128 210.136 234.324 209.576Z" fill="#CE6F64"/>
<path d="M229.488 191.756C228.445 200.729 227.812 204.504 231.48 209.862C236.997 217.921 248.246 217.239 251.948 208.759C255.281 201.126 256.426 187.735 248.37 182.649C240.434 177.637 230.531 182.783 229.488 191.756Z" fill="#E4897B"/>
<path d="M229.444 197.06C230.708 199.416 250.15 188.673 247.937 182.895C245.724 177.117 239.939 179.221 239.939 179.221C239.939 179.221 229.666 181.554 227.944 186.888C226.222 192.222 229.444 197.06 229.444 197.06Z" fill="#263238"/>
<path d="M225.699 198.084C225.872 199.935 226.865 201.562 228.032 202.554C229.787 204.046 231.539 202.722 231.783 200.574C232.003 198.64 231.354 195.534 229.24 194.871C227.157 194.217 225.501 195.968 225.699 198.084Z" fill="#E4897B"/>
<path d="M256.281 282.152C256.281 282.152 313.819 287.688 313.222 315.445C312.602 344.315 291.868 370.31 291.868 370.31L281 364.159C281 364.159 292.956 338.752 292.378 321.438C291.883 306.636 236.705 303.8 236.705 303.8L229.092 282.152H256.281Z" fill="#CD40FF"/>
<path opacity="0.6" d="M256.281 282.152C256.281 282.152 313.819 287.688 313.222 315.445C312.602 344.315 291.868 370.31 291.868 370.31L281 364.159C281 364.159 292.956 338.752 292.378 321.438C291.883 306.636 236.705 303.8 236.705 303.8L229.092 282.152H256.281Z" fill="#FAFAFA"/>
<path d="M276.33 298.419L277.49 310.219C285.54 312.739 291.73 316.189 292.34 320.879C293.7 310.439 286.42 304.269 276.33 298.419Z" fill="#CD40FF"/>
<path opacity="0.4" d="M276.33 298.419L277.49 310.219C285.54 312.739 291.73 316.189 292.34 320.879C293.7 310.439 286.42 304.269 276.33 298.419Z" fill="#FAFAFA"/>
<path d="M246.519 282.152C246.519 282.152 285.96 295.234 286.954 311.419C288.785 341.226 275.682 380.52 275.682 380.52H263.27C263.27 380.52 263.973 354.447 265.457 327.443C267.322 293.512 207.455 326.973 219.316 282.152H246.519Z" fill="#CD40FF"/>
<path opacity="0.6" d="M246.519 282.152C246.519 282.152 285.96 295.234 286.954 311.419C288.785 341.226 275.682 380.52 275.682 380.52H263.27C263.27 380.52 263.973 354.447 265.457 327.443C267.322 293.512 207.455 326.973 219.316 282.152H246.519Z" fill="#FAFAFA"/>
<path d="M242.506 196.645C242.377 197.368 242.655 198.022 243.127 198.107C243.599 198.191 244.087 197.674 244.216 196.951C244.345 196.228 244.067 195.574 243.595 195.489C243.123 195.404 242.636 195.923 242.506 196.645Z" fill="#263238"/>
<path d="M250.675 198.107C250.546 198.83 250.824 199.484 251.296 199.568C251.768 199.653 252.256 199.135 252.385 198.413C252.514 197.69 252.236 197.036 251.764 196.951C251.292 196.867 250.804 197.384 250.675 198.107Z" fill="#263238"/>
<path d="M251.548 196.954L253.373 196.764C253.373 196.764 252.24 197.96 251.548 196.954Z" fill="#263238"/>
<path d="M248.294 198.961C248.294 198.961 248.964 202.291 250.045 204.034C248.932 204.754 247.382 204.057 247.382 204.057L248.294 198.961Z" fill="#DE5753"/>
<path d="M243.216 205.936C243.198 205.936 243.18 205.933 243.163 205.925C240.877 204.964 240.018 202.631 239.982 202.533C239.956 202.462 239.993 202.383 240.065 202.357C240.134 202.333 240.215 202.368 240.241 202.44C240.249 202.463 241.097 204.758 243.269 205.671C243.339 205.701 243.372 205.781 243.343 205.851C243.321 205.904 243.27 205.936 243.216 205.936Z" fill="#263238"/>
<path d="M241.601 193.406C241.525 193.406 241.45 193.375 241.395 193.314C241.294 193.201 241.304 193.027 241.418 192.926C243.139 191.397 244.986 191.88 245.063 191.9C245.21 191.94 245.295 192.09 245.256 192.236C245.217 192.382 245.07 192.471 244.919 192.43C244.852 192.412 243.274 192.012 241.783 193.336C241.731 193.383 241.666 193.406 241.601 193.406Z" fill="#263238"/>
<path d="M255.133 194.855C255.027 194.855 254.926 194.794 254.881 194.69C254.08 192.85 252.434 192.552 252.417 192.549C252.268 192.524 252.167 192.382 252.191 192.232C252.217 192.083 252.354 191.981 252.508 192.007C252.587 192.02 254.466 192.359 255.384 194.47C255.445 194.61 255.381 194.771 255.241 194.832C255.207 194.848 255.17 194.855 255.133 194.855Z" fill="#263238"/>
<path d="M276.084 393.348C275.007 393.348 273.56 392.226 272.745 391.509C272.699 391.469 272.681 391.406 272.701 391.348C272.719 391.289 272.771 391.248 272.832 391.244C273.197 391.21 276.446 390.936 277.135 391.83C277.282 392.02 277.312 392.255 277.22 392.506C277.061 392.942 276.788 393.213 276.41 393.31C276.307 393.335 276.197 393.348 276.084 393.348ZM273.224 391.519C274.541 392.622 275.681 393.183 276.335 393.013C276.613 392.943 276.809 392.742 276.933 392.402C276.99 392.247 276.977 392.124 276.894 392.016C276.45 391.44 274.352 391.449 273.224 391.519Z" fill="#CD40FF"/>
<path d="M272.846 391.547C272.793 391.547 272.744 391.52 272.716 391.475C272.688 391.429 272.686 391.371 272.711 391.324C272.763 391.226 273.992 388.943 275.25 388.641C275.57 388.564 275.872 388.618 276.14 388.806C276.533 389.08 276.538 389.393 276.474 389.607C276.198 390.528 273.95 391.517 272.85 391.547H272.846ZM275.526 388.912C275.46 388.912 275.391 388.92 275.321 388.937C274.424 389.152 273.476 390.618 273.124 391.214C274.172 391.05 275.975 390.208 276.182 389.519C276.215 389.408 276.229 389.239 275.966 389.055C275.828 388.96 275.683 388.912 275.526 388.912Z" fill="#CD40FF"/>
<path d="M243.38 195.492L245.205 195.302C245.205 195.302 244.072 196.499 243.38 195.492Z" fill="#263238"/>
<path d="M218.762 279.983L218.467 283.292C218.338 283.549 218.642 283.81 219.069 283.81H256.463C256.796 283.81 257.072 283.647 257.093 283.437L257.426 280.128C257.449 279.899 257.16 279.705 256.796 279.705H219.363C219.089 279.705 218.845 279.817 218.762 279.983Z" fill="#263238"/>
<path d="M223.789 284.168H222.787C222.587 284.168 222.435 284.065 222.449 283.939L222.919 279.64C222.933 279.514 223.107 279.411 223.307 279.411H224.31C224.51 279.411 224.662 279.514 224.648 279.64L224.178 283.939C224.164 284.065 223.989 284.168 223.789 284.168Z" fill="#CD40FF"/>
<path opacity="0.6" d="M223.789 284.168H222.787C222.587 284.168 222.435 284.065 222.449 283.939L222.919 279.64C222.933 279.514 223.107 279.411 223.307 279.411H224.31C224.51 279.411 224.662 279.514 224.648 279.64L224.178 283.939C224.164 284.065 223.989 284.168 223.789 284.168Z" fill="#FAFAFA"/>
<path d="M253.646 284.168H252.643C252.443 284.168 252.291 284.065 252.305 283.939L252.775 279.64C252.789 279.514 252.963 279.411 253.163 279.411H254.166C254.366 279.411 254.518 279.514 254.504 279.64L254.034 283.939C254.02 284.065 253.846 284.168 253.646 284.168Z" fill="#CD40FF"/>
<path opacity="0.6" d="M253.646 284.168H252.643C252.443 284.168 252.291 284.065 252.305 283.939L252.775 279.64C252.789 279.514 252.963 279.411 253.163 279.411H254.166C254.366 279.411 254.518 279.514 254.504 279.64L254.034 283.939C254.02 284.065 253.846 284.168 253.646 284.168Z" fill="#FAFAFA"/>
<path d="M238.718 284.168H237.715C237.515 284.168 237.363 284.065 237.377 283.939L237.847 279.64C237.861 279.514 238.035 279.411 238.235 279.411H239.238C239.438 279.411 239.59 279.514 239.576 279.64L239.106 283.939C239.092 284.065 238.917 284.168 238.718 284.168Z" fill="#CD40FF"/>
<path opacity="0.6" d="M238.718 284.168H237.715C237.515 284.168 237.363 284.065 237.377 283.939L237.847 279.64C237.861 279.514 238.035 279.411 238.235 279.411H239.238C239.438 279.411 239.59 279.514 239.576 279.64L239.106 283.939C239.092 284.065 238.917 284.168 238.718 284.168Z" fill="#FAFAFA"/>
<path d="M221.46 241.29L216.69 245.35C217.71 250.75 218.39 255.25 218.83 259.25C219.72 255.24 221.99 244.36 221.46 241.29Z" fill="#CD40FF"/>
<path opacity="0.3" d="M221.46 241.29L216.69 245.35C217.71 250.75 218.39 255.25 218.83 259.25C219.72 255.24 221.99 244.36 221.46 241.29Z" fill="black"/>
<path d="M322.513 256.603H257.641L248.239 294.91H313.111L322.513 256.603Z" fill="#FAFAFA"/>
<path d="M289.645 287.776L249.97 297.028L224.508 289.893L224.77 287.776H289.645Z" fill="#FAFAFA"/>
<path d="M218.285 240.123C217.508 242.666 216.668 245.3 215.924 247.905C215.146 250.512 214.382 253.118 213.7 255.726C213.033 258.334 212.373 260.935 211.871 263.489C211.625 264.764 211.404 266.029 211.252 267.234C211.098 268.378 211.057 269.845 211.085 269.767C211.14 270.117 211.523 270.847 212.183 271.583C212.835 272.327 213.726 273.082 214.687 273.795C216.63 275.237 218.912 276.524 221.26 277.728C223.613 278.94 226.074 280.043 228.58 281.064C231.063 282.127 233.651 283.093 236.157 284.017L235.031 288.584C232.161 288.131 229.434 287.494 226.655 286.796C223.903 286.048 221.163 285.205 218.43 284.196C215.701 283.17 212.997 281.972 210.314 280.344C208.979 279.505 207.645 278.578 206.348 277.343C205.075 276.11 203.739 274.556 202.964 272.242C202.784 271.66 202.637 271.05 202.567 270.409L202.521 269.927L202.503 269.575L202.479 268.931C202.46 268.087 202.483 267.288 202.522 266.504C202.605 264.945 202.775 263.46 202.987 262C203.405 259.081 203.961 256.265 204.615 253.485C205.906 247.912 207.422 242.532 209.279 237.116L218.285 240.123Z" fill="#E4897B"/>
<path d="M212.763 226.955C209.06 228.081 203.391 242.616 203.391 242.616L217.759 252.889C217.759 252.889 224.219 240.461 222.663 235.674C221.042 230.688 216.989 225.67 212.763 226.955Z" fill="#CD40FF"/>
<path opacity="0.2" d="M212.763 226.955C209.06 228.081 203.391 242.616 203.391 242.616L217.759 252.889C217.759 252.889 224.219 240.461 222.663 235.674C221.042 230.688 216.989 225.67 212.763 226.955Z" fill="black"/>
<path d="M234.294 284.339L242.928 282.152L238.815 290.443C238.815 290.443 232.976 290.692 231.049 287.436L234.294 284.339Z" fill="#E4897B"/>
<path d="M249.902 285.301L246.083 292.057L238.815 290.443L242.928 282.152L249.902 285.301Z" fill="#E4897B"/>
<path d="M324.509 256.603H259.637L250.235 294.91H315.107L324.509 256.603Z" fill="#263238"/>
<path d="M315.107 294.91L314.845 297.028H249.97L250.232 294.91H315.107Z" fill="#263238"/>
<path d="M246.389 186.417C255.133 189.917 255.851 194.953 255.389 191.393C254.731 186.323 250.525 182.667 247.5 181.444C245.733 180.73 242.566 184.887 246.389 186.417Z" fill="#263238"/>
<path d="M230.095 190.964L229.508 191.648C229.328 191.857 229.348 192.171 229.551 192.357L234.265 196.664C234.461 196.843 234.761 196.842 234.956 196.662L235.77 195.908C235.994 195.701 235.987 195.345 235.755 195.146L230.814 190.909C230.601 190.725 230.279 190.75 230.095 190.964Z" fill="#CD40FF"/>
<path opacity="0.3" d="M230.095 190.964L229.508 191.648C229.328 191.857 229.348 192.171 229.551 192.357L234.265 196.664C234.461 196.843 234.761 196.842 234.956 196.662L235.77 195.908C235.994 195.701 235.987 195.345 235.755 195.146L230.814 190.909C230.601 190.725 230.279 190.75 230.095 190.964Z" fill="black"/>
<path d="M228.888 224.26C228.986 225.022 229.826 228.773 236.973 230.181C236.973 230.181 234.849 232.492 233.655 238.018C233.655 238.018 221.135 233.112 224.926 225.151C224.987 225.022 225.111 224.926 225.25 224.896L228.734 224.159C228.805 224.142 228.878 224.187 228.888 224.26Z" fill="#CD40FF"/>
<path opacity="0.6" d="M228.888 224.26C228.986 225.022 229.826 228.773 236.973 230.181C236.973 230.181 234.849 232.492 233.655 238.018C233.655 238.018 221.135 233.112 224.926 225.151C224.987 225.022 225.111 224.926 225.25 224.896L228.734 224.159C228.805 224.142 228.878 224.187 228.888 224.26Z" fill="#FAFAFA"/>
<path d="M244.843 224.839C245.698 225.749 248.047 228.838 242.112 230.255C242.112 230.255 245.723 232.264 246.917 237.79C246.917 237.79 255.812 231.68 247.724 225.036C247.705 225.021 247.682 225.01 247.658 225.007L244.954 224.632C244.836 224.617 244.762 224.753 244.843 224.839Z" fill="#CD40FF"/>
<path opacity="0.6" d="M244.843 224.839C245.698 225.749 248.047 228.838 242.112 230.255C242.112 230.255 245.723 232.264 246.917 237.79C246.917 237.79 255.812 231.68 247.724 225.036C247.705 225.021 247.682 225.01 247.658 225.007L244.954 224.632C244.836 224.617 244.762 224.753 244.843 224.839Z" fill="#FAFAFA"/>
<path d="M329.711 167.3C328.186 151.59 314.378 138.86 298.87 138.866C283.362 138.873 272.028 151.614 273.553 167.324C274.57 177.799 281.052 186.944 289.853 191.877L289.602 201.855L297.922 195.01C300.026 195.495 302.192 195.759 304.394 195.758C319.902 195.751 331.236 183.01 329.711 167.3Z" fill="#CD40FF"/>
<path opacity="0.6" d="M329.711 167.3C328.186 151.59 314.378 138.86 298.87 138.866C283.362 138.873 272.028 151.614 273.553 167.324C274.57 177.799 281.052 186.944 289.853 191.877L289.602 201.855L297.922 195.01C300.026 195.495 302.192 195.759 304.394 195.758C319.902 195.751 331.236 183.01 329.711 167.3Z" fill="#FAFAFA"/>
<path d="M304.019 162.357C297.149 160.295 292.301 152.943 292.301 152.943C292.301 152.943 290.177 152.823 290.265 154.755C290.419 158.151 292.48 160.601 293.713 161.775L290.489 161.593C289.34 161.528 288.207 161.652 287.133 161.958L286.098 162.254C284.311 162.764 283.394 164.663 284.028 166.536L286.167 172.851C286.851 174.87 288.277 176.611 290.133 177.693C291.771 178.648 293.633 179.025 295.399 178.76C298.619 178.276 303.63 177.518 304.496 177.362L306.801 177.163L306.215 162.995L304.019 162.357Z" fill="#FAFAFA"/>
<path d="M316.076 179.058L307.094 179.062C306.396 179.062 305.768 178.484 305.699 177.776L304.136 161.684C304.067 160.977 304.583 160.397 305.281 160.397L314.263 160.393C314.961 160.393 315.589 160.971 315.658 161.679L317.221 177.771C317.289 178.479 316.774 179.058 316.076 179.058Z" fill="#CD40FF"/>
<path d="M183.889 244.222L174.912 235.687C175.036 233.952 175.025 232.171 174.848 230.352C173.162 212.99 157.902 198.921 140.764 198.929C123.626 198.936 111.099 213.017 112.785 230.379C114.471 247.741 129.731 261.81 146.869 261.802C158.34 261.797 167.738 255.482 172.198 246.102L183.889 244.222Z" fill="#CD40FF"/>
<path d="M158.183 219.117C153.495 214.794 146.574 214.797 142.725 219.124C138.036 214.801 131.116 214.804 127.267 219.131C123.418 223.457 124.099 230.469 128.788 234.791L145.767 250.444L159.705 234.777C163.552 230.451 162.872 223.44 158.183 219.117Z" fill="#CD40FF"/>
<path opacity="0.6" d="M158.183 219.117C153.495 214.794 146.574 214.797 142.725 219.124C138.036 214.801 131.116 214.804 127.267 219.131C123.418 223.457 124.099 230.469 128.788 234.791L145.767 250.444L159.705 234.777C163.552 230.451 162.872 223.44 158.183 219.117Z" fill="#FAFAFA"/>
</svg>
