<svg width="500" height="500" viewBox="0 0 500 500" fill="none" xmlns="http://www.w3.org/2000/svg">
<path d="M250 468.625C314.483 468.625 366.756 461.898 366.756 453.599C366.756 445.3 314.483 438.573 250 438.573C185.518 438.573 133.244 445.3 133.244 453.599C133.244 461.898 185.518 468.625 250 468.625Z" fill="#EBEBEB"/>
<path d="M110.723 37.556V0" stroke="#C7C7C7" stroke-miterlimit="10"/>
<path d="M133.929 59.9249L132.063 64.0289H89.3776L87.5166 59.9249L105.689 47.3469H115.757L133.929 59.9249Z" fill="#EBEBEB"/>
<path d="M117.018 35.228L115.757 47.347H105.689L104.428 35.228H117.018Z" fill="#DBDBDB"/>
<path d="M133.927 59.927L132.061 64.03H89.3756L87.5146 59.927H133.927Z" fill="#DBDBDB"/>
<path d="M203.574 37.556V0" stroke="#C7C7C7" stroke-miterlimit="10"/>
<path d="M226.78 59.9249L224.914 64.0289H182.229L180.368 59.9249L198.54 47.3469H208.608L226.78 59.9249Z" fill="#EBEBEB"/>
<path d="M209.869 35.228L208.608 47.347H198.54L197.279 35.228H209.869Z" fill="#DBDBDB"/>
<path d="M226.778 59.927L224.912 64.03H182.227L180.366 59.927H226.778Z" fill="#DBDBDB"/>
<path d="M296.427 37.556V0" stroke="#C7C7C7" stroke-miterlimit="10"/>
<path d="M319.633 59.9249L317.767 64.0289H275.082L273.221 59.9249L291.393 47.3469H301.461L319.633 59.9249Z" fill="#EBEBEB"/>
<path d="M302.722 35.228L301.461 47.347H291.393L290.132 35.228H302.722Z" fill="#DBDBDB"/>
<path d="M319.631 59.927L317.765 64.03H275.08L273.219 59.927H319.631Z" fill="#DBDBDB"/>
<path d="M389.278 37.556V0" stroke="#C7C7C7" stroke-miterlimit="10"/>
<path d="M412.484 59.9249L410.617 64.0289H367.933L366.072 59.9249L384.244 47.3469H394.312L412.484 59.9249Z" fill="#EBEBEB"/>
<path d="M395.573 35.228L394.312 47.347H384.244L382.983 35.228H395.573Z" fill="#DBDBDB"/>
<path d="M412.482 59.927L410.616 64.03H367.931L366.07 59.927H412.482Z" fill="#DBDBDB"/>
<path d="M87.5934 271.246L74.4684 271.525L67.8074 271.637C65.5814 271.684 63.3444 271.674 61.1124 271.692L60.6684 271.695L60.6664 271.246L60.6124 260.056L60.6104 259.554L61.1124 259.556L74.3523 259.619C78.7653 259.624 83.1794 259.732 87.5924 259.783L87.8683 259.786L87.8653 260.056C87.8463 261.955 87.7794 263.843 87.7344 265.71L87.5934 271.246ZM87.5934 271.246L87.4513 265.592C87.4063 263.729 87.3394 261.887 87.3204 260.056L87.5934 260.329C83.1804 260.38 78.7663 260.488 74.3533 260.493L61.1133 260.556L61.6124 260.057L61.5583 271.247L61.1124 270.801C63.2944 270.819 65.4703 270.809 67.6583 270.856L74.2374 270.968L87.5934 271.246Z" fill="#EBEBEB"/>
<path d="M72.8219 285.356L59.6969 285.635L53.0359 285.747C50.8099 285.794 48.5729 285.784 46.3409 285.802L45.8969 285.805L45.8949 285.356L45.8409 274.166L45.8389 273.664L46.3409 273.666L59.5809 273.729C63.9939 273.734 68.4079 273.842 72.8209 273.893L73.0969 273.896L73.0939 274.166C73.0749 276.065 73.0079 277.953 72.9629 279.82L72.8219 285.356ZM72.8219 285.356L72.6799 279.702C72.6349 277.839 72.5679 275.997 72.5489 274.166L72.8219 274.439C68.4089 274.49 63.9949 274.598 59.5819 274.603L46.3419 274.666L46.8409 274.167L46.7869 285.357L46.3409 284.911C48.5229 284.928 50.6989 284.919 52.8869 284.966L59.4659 285.078L72.8219 285.356Z" fill="#EBEBEB"/>
<path d="M363.582 362.596L350.457 362.875L343.796 362.987C341.57 363.034 339.333 363.024 337.101 363.042L336.657 363.046L336.655 362.597L336.601 351.407L336.599 350.905L337.101 350.907L350.341 350.97C354.754 350.975 359.168 351.082 363.581 351.134L363.857 351.137L363.854 351.407C363.835 353.306 363.768 355.194 363.723 357.061L363.582 362.596ZM363.582 362.596L363.44 356.942C363.395 355.079 363.328 353.237 363.309 351.406L363.582 351.679C359.169 351.73 354.755 351.838 350.342 351.843L337.102 351.906L337.601 351.407L337.547 362.597L337.101 362.151C339.283 362.168 341.459 362.159 343.647 362.206L350.226 362.318L363.582 362.596Z" fill="#EBEBEB"/>
<path d="M348.81 376.706L335.685 376.985L329.024 377.097C326.798 377.144 324.561 377.134 322.329 377.152L321.885 377.155L321.883 376.706L321.829 365.516L321.827 365.014L322.329 365.016L335.569 365.079C339.982 365.084 344.396 365.191 348.809 365.243L349.085 365.246L349.082 365.516C349.063 367.415 348.996 369.303 348.951 371.17L348.81 376.706ZM348.81 376.706L348.668 371.052C348.623 369.189 348.556 367.347 348.537 365.516L348.81 365.789C344.397 365.84 339.983 365.948 335.57 365.953L322.33 366.016L322.829 365.517L322.775 376.707L322.329 376.261C324.511 376.278 326.687 376.269 328.875 376.316L335.454 376.428L348.81 376.706Z" fill="#EBEBEB"/>
<path d="M453.659 285.356L440.534 285.635L433.873 285.747C431.647 285.794 429.41 285.784 427.178 285.802L426.734 285.805L426.732 285.356L426.678 274.166L426.676 273.664L427.178 273.666L440.418 273.729C444.831 273.734 449.245 273.842 453.658 273.893L453.934 273.896L453.931 274.166C453.912 276.065 453.845 277.953 453.8 279.82L453.659 285.356ZM453.659 285.356L453.517 279.702C453.472 277.839 453.405 275.997 453.386 274.166L453.659 274.439C449.246 274.49 444.832 274.598 440.419 274.603L427.179 274.666L427.678 274.167L427.624 285.357L427.178 284.911C429.36 284.928 431.536 284.919 433.724 284.966L440.303 285.078L453.659 285.356Z" fill="#EBEBEB"/>
<path d="M438.887 86.89L425.762 87.169L419.101 87.281C416.875 87.328 414.638 87.318 412.406 87.336L411.962 87.34L411.96 86.891L411.906 75.701L411.904 75.199L412.406 75.201L425.646 75.264C430.059 75.269 434.473 75.376 438.886 75.428L439.162 75.431L439.159 75.701C439.14 77.6 439.073 79.488 439.028 81.355L438.887 86.89ZM438.887 86.89L438.745 81.236C438.7 79.373 438.633 77.531 438.614 75.7L438.887 75.973C434.474 76.024 430.06 76.132 425.647 76.137L412.407 76.2L412.906 75.701L412.852 86.891L412.406 86.445C414.588 86.463 416.764 86.453 418.952 86.5L425.531 86.612L438.887 86.89Z" fill="#EBEBEB"/>
<path d="M453.659 101L440.534 101.279L433.873 101.391C431.647 101.438 429.41 101.428 427.178 101.446L426.734 101.449L426.733 101L426.679 89.8101L426.677 89.3081L427.179 89.3101L440.419 89.3731C444.832 89.3781 449.246 89.4861 453.659 89.5371L453.935 89.5401L453.932 89.8101C453.913 91.7091 453.846 93.5971 453.801 95.4641L453.659 101ZM453.659 101L453.517 95.3461C453.472 93.4831 453.405 91.6411 453.386 89.8101L453.659 90.0831C449.246 90.1341 444.832 90.2421 440.419 90.2471L427.179 90.3101L427.678 89.8111L427.624 101L427.178 100.554C429.36 100.572 431.536 100.562 433.724 100.609L440.303 100.721L453.659 101Z" fill="#EBEBEB"/>
<path d="M87.5933 86.89L74.4683 87.169L67.8073 87.281C65.5813 87.328 63.3443 87.318 61.1123 87.336L60.6683 87.34L60.6663 86.891L60.6133 75.7L60.6113 75.198L61.1133 75.2L74.3533 75.263C78.7663 75.268 83.1803 75.375 87.5933 75.427L87.8693 75.43L87.8663 75.7C87.8473 77.599 87.7803 79.487 87.7353 81.354L87.5933 86.89ZM87.5933 86.89L87.4513 81.236C87.4063 79.373 87.3393 77.531 87.3203 75.7L87.5933 75.973C83.1803 76.024 78.7663 76.132 74.3533 76.137L61.1133 76.2L61.6123 75.701L61.5583 86.891L61.1123 86.445C63.2943 86.463 65.4703 86.453 67.6583 86.5L74.2373 86.612L87.5933 86.89Z" fill="#EBEBEB"/>
<path d="M145.378 209.946L132.253 210.225L125.592 210.337C123.366 210.384 121.129 210.374 118.897 210.392L118.453 210.395L118.451 209.946L118.397 198.756L118.395 198.254L118.897 198.256L132.137 198.319C136.55 198.324 140.964 198.431 145.377 198.483L145.653 198.486L145.65 198.756C145.631 200.655 145.564 202.543 145.519 204.41L145.378 209.946ZM145.378 209.946L145.236 204.292C145.191 202.429 145.124 200.587 145.105 198.756L145.378 199.029C140.965 199.08 136.551 199.188 132.138 199.193L118.898 199.256L119.397 198.757L119.343 209.947L118.897 209.501C121.079 209.519 123.255 209.509 125.443 209.556L132.022 209.668L145.378 209.946Z" fill="#EBEBEB"/>
<path d="M38.3672 391.887L91.2752 391.644L144.183 391.555L250 391.388L355.817 391.554L408.725 391.642L461.633 391.887L408.725 392.132L355.817 392.219L250 392.386L144.183 392.218L91.2752 392.13L38.3672 391.887Z" fill="#263238"/>
<path d="M407.378 121.995H326.453V254.137H407.378V121.995Z" fill="white"/>
<path d="M326.453 254.137L326.272 121.995V121.815H326.453L407.378 121.755H407.619V121.996L407.538 254.138V254.298H407.378L326.453 254.137ZM326.453 254.137L407.378 253.977L407.218 254.137L407.137 121.995L407.378 122.236L326.453 122.176L326.633 121.996L326.453 254.137Z" fill="#C7C7C7"/>
<path d="M331.263 249.326H402.567V126.805L331.263 126.805V249.326Z" fill="#CD40FF"/>
<path opacity="0.7" d="M331.263 249.326H402.567V126.805L331.263 126.805V249.326Z" fill="white"/>
<path opacity="0.9" d="M341.963 163.494C341.099 168.054 345.022 171.977 349.582 171.113C352.13 170.63 354.184 168.576 354.667 166.028C355.531 161.468 351.608 157.545 347.048 158.409C344.501 158.892 342.446 160.947 341.963 163.494Z" fill="white"/>
<path d="M354.787 205.274H402.567L378.677 175.831L354.787 205.274Z" fill="#CD40FF"/>
<g opacity="0.3">
<path d="M354.787 205.274H402.567L378.677 175.831L354.787 205.274Z" fill="white"/>
</g>
<path d="M331.265 205.274H373.637L352.451 186.101L331.265 205.274Z" fill="#CD40FF"/>
<g opacity="0.5">
<path d="M331.265 205.274H373.637L352.451 186.101L331.265 205.274Z" fill="white"/>
</g>
<path d="M402.569 205.274H331.265V249.326H402.569V205.274Z" fill="#CD40FF"/>
<g opacity="0.5">
<path d="M402.569 205.274H331.265V249.326H402.569V205.274Z" fill="white"/>
</g>
<path d="M326.453 121.995L336.516 118.755L346.601 115.59L366.807 109.378L366.916 109.344L367.024 109.378L387.23 115.591L397.315 118.756L407.378 121.995L397.209 119.105L387.063 116.141L366.807 110.095H367.024L346.768 116.141L336.622 119.106L326.453 121.995Z" fill="#C7C7C7"/>
<path d="M366.917 111.349C367.808 111.349 368.53 110.627 368.53 109.736C368.53 108.845 367.808 108.123 366.917 108.123C366.026 108.123 365.304 108.845 365.304 109.736C365.304 110.627 366.026 111.349 366.917 111.349Z" fill="#C7C7C7"/>
<path d="M306.184 154.262V80.0859L195.719 80.0859V154.262H306.184Z" fill="white" stroke="#C7C7C7" stroke-width="0.5" stroke-miterlimit="10"/>
<path d="M200.53 149.451H301.375V84.8967L200.53 84.8967V149.451Z" fill="#CD40FF"/>
<path d="M210.305 101.28C209.44 105.84 213.364 109.763 217.924 108.899C220.472 108.416 222.526 106.362 223.009 103.814C223.873 99.2541 219.95 95.3311 215.39 96.1961C212.842 96.6781 210.788 98.7321 210.305 101.28Z" fill="white"/>
<path d="M233.798 137.664H301.374L267.586 96.022L233.798 137.664Z" fill="#CD40FF"/>
<g opacity="0.2">
<path d="M233.798 137.664H301.374L267.586 96.022L233.798 137.664Z" fill="black"/>
</g>
<path d="M200.529 137.664H260.456L230.493 110.547L200.529 137.664Z" fill="#CD40FF"/>
<g opacity="0.1">
<path d="M200.529 137.664H260.456L230.493 110.547L200.529 137.664Z" fill="black"/>
</g>
<path d="M301.374 137.664H200.529V149.451H301.374V137.664Z" fill="#CD40FF"/>
<g opacity="0.1">
<path d="M301.374 137.664H200.529V149.451H301.374V137.664Z" fill="black"/>
</g>
<path d="M195.719 80.0851L209.487 76.8421L223.273 73.6751L250.87 67.4611L250.952 67.4421L251.033 67.4611L278.63 73.6751L292.416 76.8421L306.184 80.0851L292.337 77.1991L278.506 74.2371L250.87 68.1931H251.033L223.398 74.2371L209.567 77.2001L195.719 80.0851Z" fill="#C7C7C7"/>
<path d="M252.564 67.8271C252.564 68.7181 251.842 69.4401 250.951 69.4401C250.06 69.4401 249.338 68.7181 249.338 67.8271C249.338 66.9361 250.06 66.2141 250.951 66.2141C251.842 66.2141 252.564 66.9361 252.564 67.8271Z" fill="#C7C7C7"/>
<path d="M320.649 341.215V267.039H180.643V341.215H320.649Z" fill="white" stroke="#C7C7C7" stroke-width="0.5" stroke-miterlimit="10"/>
<path d="M185.454 336.404H315.84V271.85H185.454V336.404Z" fill="#CD40FF"/>
<path opacity="0.9" d="M196.744 288.233C195.88 292.793 199.803 296.716 204.363 295.852C206.911 295.369 208.965 293.315 209.448 290.767C210.312 286.207 206.389 282.284 201.829 283.149C199.282 283.631 197.227 285.686 196.744 288.233Z" fill="white"/>
<path d="M228.47 324.617H315.841L272.155 282.976L228.47 324.617Z" fill="#CD40FF"/>
<g opacity="0.2">
<path d="M228.47 324.617H315.841L272.155 282.976L228.47 324.617Z" fill="black"/>
</g>
<path d="M185.454 324.617H262.935L224.195 297.501L185.454 324.617Z" fill="#CD40FF"/>
<g opacity="0.1">
<path d="M185.454 324.617H262.935L224.195 297.501L185.454 324.617Z" fill="black"/>
</g>
<path d="M315.84 324.617H185.454V336.404H315.84V324.617Z" fill="#CD40FF"/>
<g opacity="0.1">
<path d="M315.84 324.617H185.454V336.404H315.84V324.617Z" fill="black"/>
</g>
<path d="M180.644 267.039L198.113 263.794L215.595 260.626L250.582 254.411L250.647 254.4L250.712 254.411L285.698 260.626L303.181 263.794L320.65 267.039L303.118 264.154L285.599 261.193L250.582 255.15H250.711L215.695 261.193L198.176 264.155L180.644 267.039Z" fill="#C7C7C7"/>
<path d="M252.259 254.78C252.259 255.671 251.537 256.393 250.646 256.393C249.755 256.393 249.033 255.671 249.033 254.78C249.033 253.889 249.755 253.167 250.646 253.167C251.537 253.167 252.259 253.89 252.259 254.78Z" fill="#C7C7C7"/>
<path d="M385.181 316.848V273.199H339.871V316.848H385.181Z" fill="white" stroke="#C7C7C7" stroke-width="0.5" stroke-miterlimit="10"/>
<path d="M342.703 314.018H382.352V276.031H342.703V314.018Z" fill="#455A64"/>
<path opacity="0.6" d="M348.455 285.671C347.946 288.354 350.255 290.663 352.938 290.154C354.437 289.87 355.646 288.661 355.93 287.162C356.438 284.479 354.13 282.17 351.447 282.679C349.949 282.963 348.74 284.172 348.455 285.671Z" fill="white"/>
<path d="M355.782 307.081H382.351L369.066 290.709L355.782 307.081Z" fill="#263238"/>
<path d="M342.702 307.081H366.263L354.483 296.42L342.702 307.081Z" fill="#37474F"/>
<path d="M382.351 307.081H342.702V314.017H382.351V307.081Z" fill="#37474F"/>
<path d="M339.871 273.199C343.6 271.849 347.354 270.577 351.111 269.318C352.985 268.674 354.876 268.082 356.759 267.464L362.412 265.628L362.526 265.591L362.64 265.628L368.293 267.464C370.176 268.081 372.066 268.674 373.941 269.318C377.699 270.578 381.452 271.849 385.181 273.199C381.358 272.144 377.56 271.011 373.766 269.866C371.864 269.308 369.979 268.698 368.086 268.113L362.412 266.342H362.639L356.965 268.113C355.072 268.698 353.187 269.308 351.285 269.866C347.492 271.012 343.694 272.145 339.871 273.199Z" fill="#C7C7C7"/>
<path d="M362.526 267.599C363.417 267.599 364.139 266.877 364.139 265.986C364.139 265.095 363.417 264.373 362.526 264.373C361.635 264.373 360.913 265.095 360.913 265.986C360.913 266.877 361.635 267.599 362.526 267.599Z" fill="#C7C7C7"/>
<path d="M168.919 334.48L168.919 241.596H113.762L113.762 334.48H168.919Z" fill="white" stroke="#C7C7C7" stroke-width="0.5" stroke-miterlimit="10"/>
<path d="M116.592 331.649H166.088V244.427H116.592L116.592 331.649Z" fill="#455A64"/>
<path opacity="0.6" d="M122.344 276.007C121.835 278.69 124.144 280.999 126.827 280.49C128.326 280.206 129.535 278.997 129.819 277.498C130.327 274.815 128.019 272.506 125.336 273.015C123.837 273.299 122.628 274.508 122.344 276.007Z" fill="white"/>
<path d="M132.887 303.797H165.986L149.437 283.401L132.887 303.797Z" fill="#263238"/>
<path d="M116.592 303.797H145.944L131.268 290.515L116.592 303.797Z" fill="#37474F"/>
<path d="M166.088 303.797H116.592V331.649H166.088V303.797Z" fill="#37474F"/>
<path d="M113.762 241.596C118.319 240.243 122.897 238.971 127.478 237.711C129.765 237.066 132.065 236.474 134.359 235.856L141.245 234.02L141.34 233.995L141.435 234.02L148.321 235.856C150.615 236.474 152.915 237.066 155.202 237.711C159.783 238.971 164.361 240.244 168.918 241.596C164.282 240.544 159.668 239.411 155.056 238.267C152.746 237.71 150.45 237.1 148.148 236.515L141.245 234.744H141.434L134.531 236.515C132.228 237.099 129.933 237.71 127.623 238.267C123.012 239.411 118.397 240.544 113.762 241.596Z" fill="#C7C7C7"/>
<path d="M141.34 235.995C142.23 235.995 142.953 235.273 142.953 234.382C142.953 233.491 142.23 232.769 141.34 232.769C140.449 232.769 139.727 233.491 139.727 234.382C139.727 235.273 140.449 235.995 141.34 235.995Z" fill="#C7C7C7"/>
<path d="M173.547 126.165H92.6221V219.841H173.547V126.165Z" fill="white"/>
<path d="M92.6222 219.841L92.4502 126.165V125.993H92.6222L173.547 125.915H173.797V126.165L173.708 219.841V220.001H173.548L92.6222 219.841ZM92.6222 219.841L173.547 219.681L173.387 219.841L173.298 126.165L173.547 126.414L92.6222 126.336L92.7942 126.164L92.6222 219.841Z" fill="#C7C7C7"/>
<path d="M97.4333 215.03H168.737V130.975H97.4333L97.4333 215.03Z" fill="#CD40FF"/>
<path opacity="0.7" d="M97.4333 215.03H168.737V130.975H97.4333L97.4333 215.03Z" fill="white"/>
<path opacity="0.9" d="M104.529 155.283C103.665 159.843 107.588 163.766 112.148 162.902C114.696 162.419 116.75 160.364 117.233 157.817C118.097 153.257 114.174 149.334 109.614 150.199C107.067 150.681 105.012 152.735 104.529 155.283Z" fill="white"/>
<path d="M120.957 186.239H168.737L144.847 156.796L120.957 186.239Z" fill="#CD40FF"/>
<g opacity="0.3">
<path d="M120.957 186.239H168.737L144.847 156.796L120.957 186.239Z" fill="white"/>
</g>
<path d="M97.4326 186.266H139.805L118.619 167.092L97.4326 186.266Z" fill="#CD40FF"/>
<g opacity="0.5">
<path d="M97.4326 186.266H139.805L118.619 167.092L97.4326 186.266Z" fill="white"/>
</g>
<path d="M168.737 186.239H97.4326V215.03H168.737V186.239Z" fill="#CD40FF"/>
<g opacity="0.5">
<path d="M168.737 186.239H97.4326V215.03H168.737V186.239Z" fill="white"/>
</g>
<path d="M92.6221 126.165L102.684 122.881L112.768 119.671L132.974 113.369L133.084 113.334L133.195 113.369L153.4 119.671L163.485 122.881L173.547 126.165L163.378 123.23L153.231 120.221L132.974 114.085H133.194L112.938 120.221L102.791 123.231L92.6221 126.165Z" fill="#C7C7C7"/>
<path d="M134.697 113.727C134.697 114.618 133.975 115.34 133.084 115.34C132.193 115.34 131.471 114.618 131.471 113.727C131.471 112.836 132.193 112.114 133.084 112.114C133.975 112.114 134.697 112.836 134.697 113.727Z" fill="#C7C7C7"/>
<path d="M291.159 245.308L294.915 180.09L212.873 175.365L209.116 240.583L291.159 245.308Z" fill="white" stroke="#C7C7C7" stroke-width="0.5" stroke-miterlimit="10"/>
<path d="M214.266 236.007L286.555 240.171L289.749 184.707L217.46 180.543L214.266 236.007Z" fill="#455A64"/>
<path opacity="0.6" d="M223.948 193.072C222.805 197.645 226.554 201.852 231.227 201.241C233.838 200.9 236.041 198.937 236.679 196.383C237.822 191.811 234.073 187.604 229.4 188.214C226.79 188.554 224.587 190.517 223.948 193.072Z" fill="white"/>
<path d="M238.795 225.417L287.238 228.208L264.736 196.961L238.795 225.417Z" fill="#263238"/>
<path d="M214.943 224.069L257.903 226.544L237.543 205.868L214.943 224.069Z" fill="#37474F"/>
<path d="M287.23 228.192L214.941 224.028L214.253 235.978L286.542 240.141L287.23 228.192Z" fill="#37474F"/>
<path d="M212.856 175.369L222.596 172.656L232.356 170.02L242.128 167.434L251.906 164.866L252.016 164.837L252.123 164.875L273.545 172.391L284.236 176.207L294.902 180.096L284.117 176.552L273.357 172.934L251.877 165.583L252.094 165.592L242.299 168.094L232.5 170.578L222.688 173.011L212.856 175.369Z" fill="#C7C7C7"/>
<path d="M253.638 165.229C253.638 166.134 252.905 166.867 252 166.867C251.095 166.867 250.362 166.134 250.362 165.229C250.362 164.325 251.095 163.591 252 163.591C252.905 163.591 253.638 164.325 253.638 165.229Z" fill="#C7C7C7"/>
<path d="M156.477 395.835C156.477 395.835 155.474 435.448 155.473 435.475C155.497 442.797 155.648 449.216 156.036 452.529C156.035 452.547 156.035 452.565 156.043 452.583C156.188 453.833 156.366 454.631 156.591 454.843C156.608 454.861 156.616 454.879 156.634 454.889C158.818 456.358 217.338 457.877 219.396 457.243C221.463 456.618 219.81 450.692 217.585 448.821C215.343 446.949 193.207 436.347 193.207 436.347L193.847 396.754L156.477 395.835Z" fill="#C95F50"/>
<path d="M155.407 427.614C155.407 427.614 155.474 435.448 155.473 435.474C155.497 442.796 155.648 449.215 156.036 452.528C156.035 452.546 156.035 452.564 156.043 452.582C156.26 453.817 156.455 454.633 156.591 454.842C156.608 454.86 156.616 454.878 156.634 454.888C158.818 456.357 217.338 457.876 219.396 457.242C221.463 456.617 219.81 450.691 217.585 448.82C215.343 446.948 193.207 436.346 193.207 436.346L193.249 428.368L155.407 427.614Z" fill="white"/>
<path d="M196.793 436.368C192.896 435.726 188.16 436.423 185.253 439.252C185.14 439.362 185.298 439.52 185.423 439.478C189.227 438.189 192.787 437.338 196.788 436.859C197.07 436.826 197.072 436.414 196.793 436.368Z" fill="#263238"/>
<path d="M199.631 437.998C195.734 437.356 190.998 438.053 188.091 440.882C187.978 440.991 188.136 441.15 188.26 441.108C192.065 439.819 195.624 438.968 199.625 438.489C199.908 438.455 199.91 438.044 199.631 437.998Z" fill="#263238"/>
<path d="M202.468 439.626C198.571 438.984 193.835 439.681 190.928 442.51C190.815 442.62 190.973 442.778 191.098 442.736C194.902 441.447 198.462 440.596 202.463 440.117C202.745 440.084 202.747 439.672 202.468 439.626Z" fill="#263238"/>
<path d="M219.397 457.244C217.335 457.88 158.82 456.361 156.631 454.887C155.789 454.341 155.513 445.802 155.476 435.475C155.477 435.367 155.477 435.259 155.478 435.152L193.24 435.71L193.209 436.35C193.209 436.35 215.347 446.949 217.585 448.824C219.806 450.691 221.46 456.617 219.397 457.244Z" fill="#37474F"/>
<path d="M155.473 435.146V435.48C155.518 445.802 155.785 454.343 156.631 454.889C157.622 455.557 170.305 456.236 184.012 456.726C200.414 457.305 218.275 457.595 219.4 457.249C221.46 456.614 219.801 450.69 217.585 448.82C215.347 446.949 193.21 436.349 193.21 436.349L193.243 435.714L180.649 435.525L155.473 435.146Z" fill="#CD40FF"/>
<path d="M218.793 454.958C208.935 454.46 169.129 453.381 159.347 453.637C159.268 453.639 159.266 453.693 159.346 453.699C169.106 454.406 208.919 455.163 218.79 455.119C218.997 455.119 219.001 454.969 218.793 454.958Z" fill="#263238"/>
<path opacity="0.1" d="M180.649 435.525C181.573 441.85 182.976 451.17 184.012 456.726C200.414 457.305 218.275 457.595 219.4 457.249C221.46 456.614 219.801 450.69 217.585 448.82C215.347 446.949 193.21 436.349 193.21 436.349L193.243 435.714L180.649 435.525Z" fill="black"/>
<path d="M152.069 435.691L194.415 436.093C194.415 436.093 196.817 367.147 197 344.153C197.209 317.891 195.72 239.111 195.72 239.111H164.06C164.06 239.111 155.563 256.472 160.419 276.01L161.762 346.294L152.069 435.691Z" fill="#37474F"/>
<path d="M155.209 428.276C156.301 428.076 157.473 428.086 158.581 428.007C159.832 427.918 161.08 427.825 162.333 427.772C164.742 427.67 167.151 427.628 169.563 427.619C174.425 427.6 179.288 427.639 184.148 427.79C186.914 427.876 189.677 427.986 192.44 428.144C192.549 428.15 192.543 428.314 192.436 428.318C187.616 428.493 182.793 428.569 177.97 428.662C173.157 428.755 168.327 428.85 163.514 428.757C162.132 428.73 160.75 428.718 159.369 428.639C158.006 428.561 156.575 428.637 155.226 428.439C155.145 428.427 155.112 428.293 155.209 428.276Z" fill="#263238"/>
<path d="M191.365 390.218C191.858 378.818 192.223 367.409 192.536 356.003C193.161 333.188 193.317 310.363 193.03 287.541C192.868 274.737 192.526 261.936 192.145 249.136C192.141 248.99 192.363 248.998 192.371 249.142C193.583 272.055 194.045 295.012 194.071 317.955C194.097 340.78 193.62 363.607 192.493 386.405C191.86 399.201 191.082 412.003 189.877 424.758C189.867 424.868 189.698 424.866 189.703 424.753C190.217 413.24 190.868 401.733 191.365 390.218Z" fill="#263238"/>
<path d="M201.776 402.129C201.776 402.129 202.1 440.416 202.099 440.442C202.122 447.764 202.273 454.183 202.662 457.496C202.661 457.514 202.661 457.531 202.669 457.55C202.814 458.8 202.992 459.598 203.217 459.81C203.234 459.828 203.243 459.846 203.26 459.856C205.444 461.325 263.964 462.845 266.022 462.21C268.089 461.585 266.436 455.659 264.212 453.788C261.97 451.917 239.834 441.315 239.834 441.315L239.147 403.048L201.776 402.129Z" fill="#C95F50"/>
<path d="M202.033 432.582C202.033 432.582 202.1 440.416 202.099 440.442C202.122 447.764 202.273 454.183 202.662 457.496C202.661 457.514 202.661 457.531 202.669 457.55C202.886 458.785 203.081 459.601 203.217 459.81C203.234 459.828 203.243 459.846 203.26 459.856C205.444 461.325 263.964 462.845 266.022 462.21C268.089 461.585 266.436 455.659 264.212 453.788C261.97 451.917 239.834 441.315 239.834 441.315L239.876 433.337L202.033 432.582Z" fill="white"/>
<path d="M243.419 441.336C239.522 440.694 234.786 441.391 231.879 444.22C231.766 444.33 231.924 444.488 232.049 444.446C235.853 443.157 239.413 442.306 243.414 441.827C243.696 441.793 243.699 441.382 243.419 441.336Z" fill="#263238"/>
<path d="M246.256 442.965C242.359 442.323 237.623 443.02 234.716 445.849C234.603 445.958 234.761 446.117 234.886 446.075C238.69 444.786 242.25 443.935 246.251 443.456C246.533 443.422 246.535 443.011 246.256 442.965Z" fill="#263238"/>
<path d="M249.094 444.594C245.197 443.952 240.461 444.649 237.554 447.478C237.441 447.587 237.599 447.746 237.724 447.703C241.528 446.414 245.088 445.563 249.089 445.084C249.371 445.051 249.373 444.64 249.094 444.594Z" fill="#263238"/>
<path d="M266.023 462.212C263.962 462.848 205.446 461.329 203.257 459.855C202.415 459.309 202.139 450.77 202.103 440.443C202.104 440.335 202.104 440.227 202.105 440.12L239.867 440.678L239.836 441.318C239.836 441.318 261.974 451.917 264.212 453.792C266.432 455.658 268.086 461.585 266.023 462.212Z" fill="#CD40FF"/>
<path d="M265.419 459.925C255.562 459.427 215.756 458.348 205.973 458.604C205.894 458.606 205.892 458.66 205.972 458.666C215.732 459.373 255.545 460.13 265.416 460.086C265.623 460.086 265.627 459.936 265.419 459.925Z" fill="#263238"/>
<path d="M182.429 279.639C182.438 279.665 199.8 334.393 200.114 344.458C200.382 353.036 199.284 441.075 199.284 441.075L243.261 441.336C243.261 441.336 239.546 351.556 238.86 342.614C237.576 325.896 222.93 279.999 212.455 239.111H165.044C165.044 239.111 165.456 260.524 175.195 276.01C175.195 276.01 179.604 278.051 182.429 279.639Z" fill="#37474F"/>
<path d="M201.621 432.967C206.701 432.82 211.969 432.671 217.051 432.797C222.089 432.922 227.143 432.999 232.175 433.299C235.03 433.469 237.878 433.565 240.727 433.846C240.822 433.855 240.818 433.993 240.724 433.999C235.647 434.295 230.55 434.236 225.466 434.189C220.42 434.143 215.379 434.089 210.338 433.858C207.483 433.727 204.635 433.583 201.784 433.385C201.476 433.364 201.313 432.976 201.621 432.967Z" fill="#263238"/>
<path d="M211.238 264.908C212.805 270.14 228.273 325.252 230.305 335.712C232.35 346.238 235.021 414.562 234.831 425.522C234.807 426.885 234.778 428.247 234.728 429.61C234.723 429.742 234.528 429.736 234.524 429.605C234.233 418.703 231.319 346.909 229.445 336.215C227.606 325.721 212.271 270.952 210.921 264.987C210.875 264.782 211.178 264.708 211.238 264.908Z" fill="#263238"/>
<path d="M193.305 280.696C191.115 280.657 188.931 280.508 186.774 280.104C184.596 279.696 182.563 278.973 180.446 278.349C178.438 277.758 176.302 277.666 174.242 277.335C172.153 276.999 170.068 276.452 168.161 275.524C168.071 275.48 167.996 275.615 168.085 275.661C169.977 276.63 171.882 277.547 173.913 278.188C175.998 278.846 178.178 278.936 180.294 279.454C182.471 279.987 184.567 280.694 186.805 280.953C188.975 281.204 191.168 281.196 193.326 280.842C193.413 280.827 193.384 280.698 193.305 280.696Z" fill="#263238"/>
<path d="M196.079 324.253C195.663 322.631 195.271 321.004 194.83 319.388C193.94 316.12 193.036 312.849 192.049 309.609C190.086 303.169 188.232 296.689 186.155 290.284C184.977 286.652 183.922 282.973 182.54 279.411C182.506 279.323 182.38 279.362 182.4 279.453C183.094 282.774 184.078 286.023 184.959 289.299C185.839 292.571 186.781 295.828 187.724 299.083C189.599 305.55 191.436 312.032 193.484 318.448C194.058 320.247 194.648 322.04 195.269 323.824C195.903 325.646 196.402 327.526 197.163 329.302C197.204 329.399 197.337 329.358 197.319 329.255C197.026 327.563 196.505 325.915 196.079 324.253Z" fill="#263238"/>
<path d="M199.387 186.943C196.18 186.919 191.535 180.468 190.397 176.211C190.321 175.919 191.378 173.302 192.513 170.061C193.194 168.092 193.906 165.883 194.409 163.821L206.576 170.124C206.576 170.124 204.248 174.136 203.392 177.737C203.324 178.039 203.285 178.326 203.274 178.605C203.269 178.645 203.269 178.695 203.259 178.75C203.128 180.421 202.487 186.964 199.387 186.943Z" fill="#C95F50"/>
<path d="M203.275 178.604C203.268 178.641 203.268 178.698 203.258 178.754C202.836 178.709 202.391 178.63 201.908 178.498C194.368 176.333 194.46 167.32 194.764 164.011L206.579 170.128C206.579 170.128 204.25 174.142 203.389 177.737C203.326 178.039 203.285 178.328 203.275 178.604Z" fill="#263238"/>
<path d="M194.127 148.624C192 153.123 192.493 167.091 195.398 170.615C199.61 175.724 207.498 177.309 212.089 172.02C216.54 166.893 215.574 148.7 212.237 145.396C207.321 140.528 197.269 141.979 194.127 148.624Z" fill="#C95F50"/>
<path d="M214.735 153.112C214.735 153.112 215.664 158.371 216.615 163.598L214.853 163.319L215.185 165.686C215.185 165.686 213.333 166.162 211.512 164.822L214.735 153.112Z" fill="#C95F50"/>
<path d="M212.654 158.719C212.644 158.684 212.584 158.769 212.588 158.808C212.687 159.745 212.643 160.834 211.817 161.209C211.791 161.22 211.798 161.268 211.829 161.261C212.854 161.037 212.898 159.59 212.654 158.719Z" fill="#263238"/>
<path d="M211.741 157.801C210.223 157.798 210.329 160.836 211.736 160.838C213.121 160.84 213.014 157.803 211.741 157.801Z" fill="#263238"/>
<path d="M210.488 156.666C210.898 156.548 211.256 156.37 211.65 156.211C212.094 156.031 212.466 155.934 212.746 155.521C212.896 155.299 212.817 154.914 212.616 154.747C212.146 154.36 211.548 154.444 211.005 154.639C210.416 154.85 210.015 155.163 209.692 155.698C209.378 156.216 209.947 156.823 210.488 156.666Z" fill="#263238"/>
<path d="M211.531 167.528C211.764 167.741 212 168.036 212.342 168.053C212.67 168.069 213.049 167.908 213.345 167.781C213.374 167.769 213.406 167.799 213.388 167.828C213.156 168.198 212.65 168.442 212.212 168.381C211.783 168.321 211.56 167.961 211.443 167.575C211.426 167.52 211.497 167.497 211.531 167.528Z" fill="#263238"/>
<path d="M211.227 164.639C212.123 165.624 212.952 166.027 214.463 165.795C214.529 165.785 214.564 165.714 214.542 165.713C213.362 165.619 212.489 165.395 211.266 164.535C211.194 164.483 211.167 164.566 211.227 164.639Z" fill="#263238"/>
<path d="M215.561 142.717C216.922 145.846 215.168 151.764 205.984 150.295C205.984 150.295 206.67 152.444 205.936 154.87C205.535 156.196 204.224 156.401 204.224 156.401C204.426 157.575 204.666 159.856 204.479 160.052C203.927 160.63 203.138 160.391 203.066 160.381C203.066 160.381 196.211 167.581 193.763 166.682C192.752 163.583 187.633 153.889 190.616 147.798C192.151 144.664 196.44 143.651 196.44 143.651C205.007 136.687 213.383 137.708 215.561 142.717Z" fill="#263238"/>
<path d="M205.983 150.295C206.267 151.546 206.543 152.799 206.46 154.013C206.419 154.611 206.26 155.204 205.864 155.632C205.461 156.064 204.85 156.246 204.224 156.401C204.858 156.444 205.566 156.365 206.122 155.903C206.682 155.442 206.893 154.71 206.945 154.051C206.987 153.378 206.901 152.717 206.725 152.088C206.552 151.46 206.313 150.853 205.983 150.295Z" fill="#263238"/>
<path d="M196.439 143.652C194.561 143.816 192.673 144.483 191.197 145.754C190.458 146.385 189.881 147.208 189.504 148.109C189.135 149.021 188.972 149.982 188.904 150.942C188.81 152.87 189.132 154.78 189.658 156.606C190.2 158.43 190.923 160.197 191.862 161.842C191.107 160.109 190.48 158.327 190.021 156.508C189.572 154.692 189.265 152.824 189.387 150.971C189.436 150.05 189.582 149.122 189.912 148.274C190.248 147.425 190.784 146.666 191.446 146.027C192.795 144.764 194.594 144.009 196.439 143.652Z" fill="#263238"/>
<path d="M203.065 160.381C203.065 160.381 200.537 155.581 198.396 156.428C196.256 157.276 197.769 163.962 200.009 165.134C202.248 166.305 203.373 164.253 203.373 164.253L203.065 160.381Z" fill="#C95F50"/>
<path d="M198.878 158.335C198.841 158.327 198.827 158.379 198.858 158.396C200.421 159.271 201.096 160.908 201.504 162.569C201.091 161.897 200.466 161.479 199.575 161.959C199.528 161.985 199.561 162.057 199.609 162.053C200.302 161.993 200.774 162.172 201.162 162.77C201.437 163.193 201.596 163.705 201.772 164.177C201.83 164.334 202.106 164.289 202.072 164.112C202.069 164.099 202.066 164.085 202.063 164.072C202.369 161.976 201.106 158.831 198.878 158.335Z" fill="#263238"/>
<path d="M159.269 247.015C159.269 247.015 215.335 252.956 215.945 252.379C216.796 251.566 213.394 194.462 204.713 180.923C202.518 177.499 192.284 173.745 189.48 176.089C168.047 194.009 158.879 246.359 159.269 247.015Z" fill="#CD40FF"/>
<path d="M215.511 238.86C215.221 238.98 214.931 239.09 214.651 239.21C209.821 241.21 205.281 243.87 200.411 245.88C197.991 246.89 195.461 247.72 192.851 248.13C190.251 248.55 187.551 248.54 184.971 247.98C184.331 247.81 183.681 247.66 183.051 247.47C182.431 247.24 181.801 247.03 181.191 246.78C179.971 246.26 178.821 245.58 177.781 244.75C175.701 243.09 174.141 240.87 173.011 238.49C172.951 238.37 172.901 238.26 172.851 238.14C172.791 238.02 172.741 237.9 172.691 237.78C171.721 235.6 171.061 233.31 170.541 231C169.961 228.44 169.561 225.84 169.231 223.24C168.771 219.73 168.451 216.22 168.021 212.72C168.021 212.69 168.011 212.67 168.011 212.64C168.041 212.54 168.071 212.45 168.111 212.36C168.141 212.25 168.181 212.14 168.221 212.04C168.251 212.24 168.271 212.44 168.291 212.64C168.321 212.86 168.351 213.07 168.371 213.29C168.781 216.59 169.101 219.91 169.531 223.2C169.871 225.79 170.281 228.38 170.861 230.93C171.401 233.28 172.081 235.62 173.081 237.82C173.131 237.94 173.191 238.06 173.251 238.18C173.271 238.23 173.291 238.29 173.321 238.34C174.441 240.68 175.971 242.85 178.011 244.47C180.021 246.1 182.521 247.04 185.051 247.61C187.591 248.15 190.221 248.16 192.791 247.74C195.361 247.33 197.851 246.5 200.261 245.5C205.091 243.51 209.641 240.86 214.501 238.86C214.831 238.73 215.161 238.59 215.491 238.46C215.491 238.6 215.501 238.73 215.511 238.86ZM214.571 227.71C211.741 229.1 208.951 230.54 206.051 231.74C203.641 232.74 201.151 233.57 198.591 234.04C196.031 234.52 193.391 234.56 190.831 234.14C190.641 234.11 190.441 234.07 190.251 234.03C190.041 233.99 189.821 233.95 189.611 233.9C184.941 232.86 180.561 230.42 177.351 226.85C175.591 224.93 174.141 222.74 172.821 220.48C171.491 218.22 170.281 215.9 168.921 213.65C168.711 213.31 168.511 212.98 168.291 212.64C168.231 212.55 168.171 212.45 168.111 212.36C168.071 212.45 168.041 212.54 168.011 212.64C168.001 212.65 167.991 212.66 167.991 212.68C168.001 212.69 168.011 212.71 168.021 212.72C168.141 212.91 168.261 213.1 168.371 213.29C168.481 213.45 168.581 213.62 168.681 213.79C170.031 216.03 171.241 218.36 172.561 220.63C173.881 222.9 175.341 225.11 177.121 227.06C178.011 228.03 178.961 228.95 180.011 229.75L180.401 230.06L180.801 230.35L181.611 230.91L182.461 231.43L182.881 231.68L183.321 231.91C185.151 232.88 187.091 233.64 189.101 234.13C189.301 234.18 189.511 234.23 189.721 234.27C190.071 234.35 190.421 234.42 190.771 234.48C193.381 234.92 196.061 234.88 198.651 234.4C201.251 233.93 203.761 233.09 206.191 232.09C209.071 230.91 211.831 229.5 214.611 228.14C214.591 228 214.581 227.86 214.571 227.71ZM214.411 226.13C212.431 225.9 210.421 225.97 208.451 226.29C205.841 226.7 203.321 227.53 200.891 228.54C197.031 230.14 193.381 232.14 189.611 233.9C189.451 233.98 189.271 234.06 189.101 234.13C188.291 234.51 187.481 234.87 186.651 235.21C184.241 236.21 181.761 237.04 179.191 237.5C177.171 237.89 175.121 237.99 173.081 237.82C172.951 237.8 172.821 237.79 172.691 237.78C172.271 237.73 171.851 237.68 171.431 237.61C168.001 237.02 164.691 235.69 161.831 233.71C161.801 233.83 161.781 233.94 161.751 234.05L162.221 234.38L163.061 234.9L163.491 235.15L163.921 235.38C166.251 236.62 168.771 237.51 171.381 237.95C171.871 238.03 172.361 238.09 172.851 238.14C172.981 238.15 173.111 238.17 173.251 238.18C175.251 238.34 177.281 238.23 179.261 237.86C181.861 237.4 184.371 236.56 186.801 235.56C187.791 235.15 188.761 234.72 189.721 234.27C189.901 234.19 190.081 234.11 190.251 234.03C193.871 232.33 197.381 230.43 201.051 228.92C203.461 227.92 205.951 227.09 208.521 226.68C210.481 226.36 212.481 226.29 214.451 226.52C214.431 226.39 214.421 226.26 214.411 226.13ZM206.181 183.72C204.721 182.21 203.461 180.51 202.331 178.73C202.321 178.72 202.321 178.7 202.311 178.69V178.72C202.211 178.65 202.111 178.58 202.001 178.51C201.931 178.47 201.861 178.43 201.791 178.39C201.871 178.51 201.951 178.64 202.031 178.76C202.141 178.95 202.271 179.14 202.391 179.32C203.501 181.01 204.721 182.62 206.141 184.06C206.241 184.17 206.341 184.27 206.451 184.37C206.361 184.15 206.271 183.93 206.181 183.72ZM210.561 199.21C209.981 198.85 209.441 198.43 208.941 197.97C207.041 196.19 205.781 193.83 204.901 191.38C204.021 188.92 203.471 186.36 203.031 183.78C202.781 182.3 202.571 180.81 202.391 179.32C202.361 179.12 202.341 178.92 202.311 178.72C202.211 178.65 202.111 178.58 202.001 178.51C202.011 178.59 202.021 178.68 202.031 178.76C202.241 180.45 202.471 182.15 202.761 183.83C203.201 186.41 203.761 188.99 204.661 191.47C205.551 193.94 206.841 196.33 208.781 198.15C209.341 198.67 209.961 199.14 210.621 199.54C210.601 199.43 210.581 199.32 210.561 199.21ZM211.301 203.13C210.241 203.51 209.181 203.87 208.111 204.19C206.851 204.54 205.571 204.84 204.281 205.03C202.991 205.2 201.691 205.3 200.381 205.25C199.081 205.18 197.781 205.05 196.511 204.73C195.871 204.61 195.261 204.39 194.631 204.22C194.011 204.01 193.401 203.78 192.791 203.54C191.601 203.04 190.501 202.32 189.541 201.44C187.651 199.65 186.381 197.29 185.511 194.85C184.621 192.39 184.071 189.83 183.631 187.25C183.391 185.81 183.191 184.37 183.021 182.92C182.931 183.03 182.851 183.14 182.761 183.26C182.941 184.6 183.131 185.95 183.361 187.29C183.811 189.88 184.371 192.46 185.261 194.94C186.151 197.4 187.441 199.8 189.381 201.62C190.351 202.51 191.481 203.24 192.701 203.76C193.321 204 193.931 204.23 194.561 204.44C195.191 204.61 195.811 204.83 196.461 204.95C197.741 205.27 199.061 205.4 200.381 205.47C201.691 205.51 203.011 205.41 204.311 205.23C205.611 205.03 206.891 204.72 208.161 204.36C209.231 204.04 210.281 203.67 211.331 203.28C211.311 203.23 211.301 203.18 211.301 203.13Z" fill="white"/>
<path d="M198.001 192.46C205.217 206.785 218.059 227.735 227.09 230.601C231.702 232.065 255.372 224.527 262.641 221.315C265.726 219.952 254.815 197.457 251.469 198.799C247.756 200.288 234.122 205.059 231.469 205.543C229.948 205.82 218.088 193.295 207.484 184.114C195.021 173.323 192.139 180.822 198.001 192.46Z" fill="#C95F50"/>
<path d="M249.894 199.837C249.894 199.837 257.072 193.184 261.971 189.054C264.704 186.75 269.742 183.217 272.524 182.443C276.685 181.285 294.829 179.098 295.454 183.486C296.02 187.458 280.193 187.357 280.193 187.357C280.193 187.357 296.172 186.047 295.973 190.954C295.775 195.862 277.909 193.37 277.909 193.37C277.909 193.37 294.357 192.392 293.352 197.421C292.593 201.221 276.284 199.876 276.284 199.876C276.284 199.876 290.427 199.133 289.814 203.075C289.137 207.43 274.005 207.134 274.005 207.134C270.761 216.891 265.225 220.21 261.006 222.102C259.985 222.559 249.894 199.837 249.894 199.837Z" fill="#C95F50"/>
<path d="M274.636 187.455C276.507 187.233 278.4 186.996 280.285 186.941C282.17 186.886 284.058 186.897 285.939 187.018C290.553 187.315 293.396 188.222 293.214 188.185C288.917 187.312 282.167 187.403 280.281 187.458C278.4 187.513 276.517 187.473 274.635 187.526C274.588 187.528 274.592 187.46 274.636 187.455Z" fill="#263238"/>
<path d="M274.71 194.264C277.112 194.084 279.49 193.818 281.9 193.744C284.298 193.671 287.665 193.681 290.063 193.773C290.248 193.78 290.314 194.049 290.128 194.049C287.729 194.053 284.297 194.199 281.898 194.232C279.507 194.264 277.098 194.203 274.71 194.322C274.673 194.324 274.674 194.267 274.71 194.264Z" fill="#263238"/>
<path d="M273.724 200.12C277.38 199.657 281.118 199.869 284.779 200.166C284.961 200.181 284.864 200.297 284.677 200.292C281.002 200.208 278.12 200.115 273.74 200.247C273.671 200.249 273.647 200.129 273.724 200.12Z" fill="#263238"/>
<path d="M240.957 202.586C239.363 203.299 237.738 203.923 236.1 204.519C235.284 204.826 234.456 205.095 233.624 205.366C233.207 205.499 232.786 205.619 232.358 205.735C232.133 205.787 231.939 205.848 231.68 205.886C231.49 205.973 230.982 205.823 230.846 205.722C229.24 204.764 228.019 203.569 226.734 202.37C225.477 201.16 224.256 199.916 223.114 198.595C224.472 199.692 225.789 200.827 227.119 201.941C227.794 202.486 228.446 203.056 229.125 203.588C229.794 204.114 230.486 204.682 231.175 205.049C231.26 205.098 231.352 205.145 231.381 205.14C231.403 205.147 231.424 205.158 231.447 205.172L231.58 205.152C231.753 205.132 231.977 205.07 232.176 205.026L233.421 204.688L235.922 203.973C237.592 203.493 239.263 203.007 240.957 202.586Z" fill="#263238"/>
<path d="M206.508 213.832L224.536 197.29C224.536 197.29 212.712 184.948 203.766 179.837C194.819 174.727 192.908 180.636 196.124 190.144C199.339 199.652 206.508 213.832 206.508 213.832Z" fill="#CD40FF"/>
<path d="M217.641 190.61C215.861 190.17 214.131 189.53 212.501 188.69L211.621 188.24C211.331 188.08 211.051 187.9 210.771 187.74C210.201 187.41 209.671 187.02 209.121 186.65C208.071 185.86 207.051 185.02 206.141 184.06C204.721 182.62 203.501 181.01 202.391 179.32C202.331 179.23 202.261 179.13 202.201 179.03C202.251 179.05 202.311 179.07 202.361 179.11C202.461 179.15 202.571 179.2 202.681 179.27C203.761 180.91 204.951 182.48 206.331 183.88C207.221 184.83 208.231 185.66 209.271 186.45C209.811 186.81 210.331 187.21 210.901 187.53C211.181 187.69 211.451 187.87 211.741 188.03L212.611 188.48C214.101 189.24 215.671 189.84 217.281 190.28C217.411 190.39 217.521 190.5 217.641 190.61ZM216.281 201.35C216.211 201.34 216.131 201.32 216.061 201.3C216.011 201.29 215.961 201.28 215.911 201.27C215.271 201.15 214.651 200.93 214.021 200.75C213.411 200.55 212.791 200.31 212.191 200.08C210.991 199.57 209.891 198.85 208.941 197.97C207.041 196.19 205.781 193.83 204.901 191.38C204.021 188.92 203.471 186.36 203.031 183.78C202.781 182.3 202.571 180.81 202.391 179.32L202.361 179.11C202.311 179.07 202.251 179.05 202.201 179.03C202.151 179 202.111 178.98 202.061 178.96C202.261 180.59 202.481 182.21 202.761 183.83C203.201 186.41 203.761 188.99 204.661 191.47C205.551 193.94 206.841 196.33 208.781 198.15C209.751 199.05 210.881 199.78 212.101 200.29C212.711 200.53 213.331 200.76 213.951 200.97C214.531 201.12 215.101 201.32 215.691 201.44C215.751 201.46 215.801 201.47 215.861 201.48C215.881 201.48 215.891 201.49 215.911 201.49C217.061 201.78 218.251 201.91 219.431 201.98L219.651 201.77C218.521 201.71 217.381 201.6 216.281 201.35ZM219.191 200.17C218.131 200.52 217.091 200.9 216.061 201.3C215.941 201.34 215.811 201.39 215.691 201.44C214.401 201.94 213.121 202.45 211.831 202.93C210.601 203.39 209.361 203.82 208.111 204.19C206.851 204.54 205.571 204.84 204.281 205.03C203.651 205.11 203.001 205.18 202.361 205.22C202.401 205.29 202.431 205.36 202.461 205.42C203.081 205.38 203.701 205.31 204.311 205.23C205.611 205.03 206.891 204.72 208.161 204.36C209.421 203.98 210.651 203.54 211.881 203.08C213.231 202.56 214.571 202.01 215.911 201.49C216.031 201.44 216.161 201.39 216.281 201.35C217.251 200.97 218.231 200.6 219.221 200.27C220.211 199.93 221.221 199.63 222.231 199.4L222.351 199.29C221.281 199.53 220.221 199.82 219.191 200.17Z" fill="white"/>
<path d="M220.631 194.891C217.687 197.282 209.898 204.011 205.438 209.078C205.411 209.108 205.519 209.23 205.551 209.204C209.922 205.584 218.078 197.721 220.792 195.071C220.843 195.022 220.686 194.846 220.631 194.891Z" fill="#263238"/>
<path d="M208.772 211.755C208.094 212.531 207.372 213.259 206.674 214.013L206.464 214.24L206.291 213.945C204.482 210.86 202.875 207.67 201.408 204.415C200.669 202.79 199.992 201.135 199.354 199.467C198.723 197.795 198.157 196.096 197.681 194.371C198.479 195.974 199.253 197.577 200.018 199.184L202.297 204.008C203.806 207.227 205.296 210.459 206.727 213.721L206.344 213.653C207.153 213.021 207.94 212.364 208.772 211.755Z" fill="#263238"/>
<path d="M200.93 202.179C200.243 201.568 199.677 200.869 199.14 200.149C198.618 199.418 198.125 198.665 197.754 197.824C198.442 198.435 199.007 199.134 199.544 199.855C200.065 200.586 200.558 201.339 200.93 202.179Z" fill="#263238"/>
<path d="M418.837 298.116C419.527 302.842 419.27 307.716 418.117 312.342C417.576 314.508 416.833 316.596 415.937 318.631C414.805 321.234 413.623 323.775 413.908 326.623C414.183 326.807 413.24 326.777 413.209 326.5C405.599 322.168 395.839 321.374 389.982 314.289C387.208 310.935 385.809 306.682 385.145 302.429C384.425 297.798 384.225 292.671 385.419 288.107C386.426 284.247 388.682 280.523 392.309 278.632C396.053 276.685 400.957 276.847 404.899 278.071C413.405 280.712 417.634 289.889 418.837 298.116Z" fill="#CD40FF"/>
<path d="M422.744 354.453C421.705 350.991 420.668 347.529 419.601 344.076C417.512 337.312 415.342 330.573 412.939 323.914C411.5 319.925 409.981 315.975 408.384 312.062C408.656 309.604 408.764 307.155 409.293 304.706C409.93 301.755 410.854 298.905 411.714 296.018C411.767 295.84 411.479 295.747 411.407 295.916C409.698 299.894 407.469 304.984 407.413 309.695C405.555 305.268 403.569 300.901 401.432 296.603C401.311 292.938 401.178 289.387 401.767 285.699C401.793 285.533 401.541 285.483 401.51 285.649C400.938 288.746 400.536 292.066 400.765 295.275C399.129 292.045 397.406 288.854 395.572 285.713C395.407 285.43 395.016 285.719 395.16 285.998C398.02 291.505 400.673 297.128 403.162 302.824C399.714 299.767 395.54 297.452 391.23 295.914C391.04 295.846 390.898 296.121 391.091 296.201C395.996 298.251 400.113 301.149 403.997 304.746C405.786 308.917 407.49 313.126 409.113 317.361C404.351 312.693 397.835 309.622 391.531 307.975C391.316 307.919 391.259 308.248 391.466 308.31C398.76 310.506 404.427 314.642 409.975 319.61C410.619 321.324 411.252 323.04 411.872 324.76C414.222 331.282 416.45 337.848 418.586 344.443C419.61 347.604 420.618 350.771 421.607 353.943C422.672 357.356 423.503 360.96 424.889 364.255C425.022 364.57 425.587 364.498 425.515 364.121C424.89 360.852 423.701 357.639 422.744 354.453Z" fill="#263238"/>
<path d="M410.12 291.454C408.757 293.544 407.846 295.84 407.379 298.286C407.367 298.349 407.465 298.386 407.488 298.322C408.336 296.02 409.334 293.797 410.459 291.618C410.575 291.397 410.249 291.258 410.12 291.454Z" fill="#263238"/>
<path d="M396.544 307.311C394.574 306.191 391.959 305.306 389.714 305.011C389.652 305.003 389.613 305.094 389.678 305.12C390.776 305.575 391.93 305.894 393.041 306.321C394.157 306.75 395.245 307.27 396.373 307.663C396.607 307.746 396.767 307.438 396.544 307.311Z" fill="#263238"/>
<path d="M392.719 288.237C392.027 287.779 391.291 287.191 390.522 286.88C390.401 286.831 390.296 286.981 390.396 287.073C391.005 287.634 391.854 288.05 392.562 288.478C392.701 288.561 392.856 288.328 392.719 288.237Z" fill="#263238"/>
<path d="M444.494 323.965C439.013 325.592 433.503 327.096 428.023 328.704C427.547 328.847 418.281 311.091 421.63 301.945C424.725 293.479 431.811 287.143 440.26 284.267C444.174 282.937 448.985 281.821 453.12 282.733C456.796 283.547 459.392 286.555 460.587 290.012C462.214 294.711 461.672 300.316 460.787 305.113C459.965 309.561 458.336 313.943 455.394 317.438C452.481 320.897 448.767 322.698 444.494 323.965Z" fill="#CD40FF"/>
<path d="M452.44 307.09C448.95 308.85 445.414 310.125 441.693 311.321C439.363 312.07 436.753 312.746 434.519 313.918C436.834 308.757 439.373 303.705 442.07 298.698C445.611 297.673 449.335 296.075 452.005 293.569C452.151 293.432 451.964 293.227 451.806 293.338C448.885 295.402 445.664 296.641 442.433 298.037C443.163 296.69 443.897 295.344 444.648 294.001C444.857 293.628 444.343 293.256 444.091 293.619C441.218 297.765 438.634 302.159 436.303 306.699C435.725 302.693 435.517 298.79 435.74 294.715C435.746 294.611 435.597 294.603 435.581 294.703C434.903 299.013 434.935 303.574 435.716 307.871C433.794 311.708 432.042 315.639 430.47 319.618C429.845 317.227 429.032 314.873 428.49 312.463C427.71 308.994 427.343 305.459 427.702 301.912C427.712 301.808 427.56 301.801 427.543 301.9C426.48 308.19 427.45 315.293 429.843 321.269C428.926 323.665 428.053 326.07 427.253 328.478C423.16 340.811 420.638 353.526 419.978 366.508C419.963 366.808 420.407 366.838 420.441 366.541C421.93 353.807 424.56 341.131 428.609 328.958C430.199 324.179 432.028 319.539 434.036 314.986C437.273 314.03 440.498 312.731 443.678 311.63C446.781 310.556 449.96 309.313 452.565 307.273C452.665 307.197 452.554 307.033 452.44 307.09Z" fill="#263238"/>
<path d="M457.551 301.932C454.199 303.124 451.021 304.793 447.672 306.002C447.515 306.058 447.607 306.307 447.764 306.275C451.307 305.544 454.822 304.448 457.677 302.124C457.788 302.035 457.667 301.891 457.551 301.932Z" fill="#263238"/>
<path d="M430.179 294.7C430.219 294.522 429.96 294.42 429.905 294.603C428.986 297.693 428.351 300.972 429.246 304.13C429.281 304.254 429.476 304.258 429.483 304.115C429.644 300.933 429.466 297.837 430.179 294.7Z" fill="#263238"/>
<path d="M444.031 287.562C442.907 288.996 442.503 291.032 442.576 292.816C442.581 292.934 442.769 293.002 442.801 292.863C443.209 291.095 443.892 289.484 444.434 287.767C444.514 287.515 444.19 287.358 444.031 287.562Z" fill="#263238"/>
<path d="M379.296 331.796C380.903 336.896 384.721 343.946 390.768 344.002C394.688 344.039 398.636 343.575 402.565 343.519C406.773 343.454 410.99 343.463 415.189 343.714C415.533 343.732 414.685 331.113 404.572 324.969C401.739 323.248 398.274 322.702 395.06 322.006C391.382 321.207 387.592 320.668 383.82 320.836C381.498 320.929 379.566 321.421 378.739 323.799C377.875 326.288 378.525 329.372 379.296 331.796Z" fill="#CD40FF"/>
<path d="M383.648 325.414C386.105 326.046 388.585 326.772 391.051 327.555C390.392 326.872 389.749 326.179 389.013 325.567C387.954 324.686 386.788 323.983 385.652 323.212C385.557 323.147 385.614 322.965 385.736 323.013C387.979 323.894 390.311 325.735 391.7 327.756C394.774 328.749 397.818 329.845 400.749 331.048C402.829 331.901 404.747 332.92 406.543 334.099C405.897 332.851 405.309 331.57 404.447 330.452C403.105 328.712 401.289 327.743 399.532 326.508C399.366 326.391 399.507 326.157 399.689 326.239C403.657 328.003 406.071 330.865 407.576 334.792C409.651 336.272 411.55 337.999 413.313 340.001C420.004 347.601 425.274 357.713 425.293 368.032C425.294 368.278 424.899 368.348 424.851 368.092C422.952 357.843 418.904 348.638 412.091 340.683C411.612 340.124 411.121 339.592 410.62 339.077C408.78 338.884 406.957 338.638 405.092 338.667C402.939 338.699 400.803 338.983 398.659 339.158C395.129 339.445 391.225 339.486 388.04 337.71C387.9 337.632 387.994 337.388 388.152 337.445C395.251 340.027 402.697 336.752 409.814 338.291C406.778 335.38 403.329 333.185 399.319 331.523C399.102 331.433 398.884 331.35 398.666 331.262C394.11 331.81 389.299 332.997 384.862 331.516C384.73 331.472 384.783 331.272 384.92 331.306C389.208 332.377 393.319 331.03 397.55 330.816C392.943 329.023 388.248 327.595 383.626 325.815C383.236 325.661 383.227 325.306 383.648 325.414Z" fill="#263238"/>
<path d="M381.638 329.9C383.862 330.266 386.033 330.278 388.27 330.402C388.321 330.405 388.337 330.482 388.283 330.495C386.102 330.985 383.717 330.683 381.593 330.068C381.482 330.036 381.53 329.882 381.638 329.9Z" fill="#263238"/>
<path d="M396.615 325.525C397.825 325.944 398.951 326.969 399.897 327.807C400.013 327.909 399.858 328.117 399.731 328.024C399.175 327.619 398.602 327.237 398.024 326.864C397.497 326.524 396.908 326.253 396.425 325.853C396.275 325.728 396.435 325.463 396.615 325.525Z" fill="#263238"/>
<path d="M432.324 341.946C432.25 342.113 432.491 342.271 432.584 342.095C432.593 342.095 432.593 342.095 432.593 342.086C432.63 342.132 432.676 342.179 432.751 342.188C436.838 343.07 440.944 343.971 445.105 344.343C448.449 344.64 452.304 344.826 455.23 342.885C459.196 340.256 461.807 333.224 459.661 328.757C457.125 323.453 449.48 326.332 445.644 328.218C439.746 331.096 435.009 335.964 432.324 341.946Z" fill="#CD40FF"/>
<path d="M429.359 344.398C431.609 342.197 434.097 340.364 436.736 338.783C438.545 335.713 441.32 333.163 444.217 331.159C444.362 331.059 444.486 331.288 444.352 331.391C441.855 333.314 439.905 335.569 438.049 338.022C441 336.375 444.121 335.019 447.304 333.812C448.412 331.779 450.218 329.877 452.275 328.831C452.316 328.81 452.369 328.867 452.328 328.899C450.533 330.304 449.093 331.763 447.838 333.611C449.718 332.909 451.618 332.256 453.516 331.626C453.687 331.569 453.751 331.829 453.59 331.892C450.211 333.212 446.756 334.605 443.408 336.211C447.634 336.778 451.44 336.909 455.738 336.175C455.851 336.156 455.901 336.317 455.786 336.35C451.639 337.534 446.884 337.753 442.703 336.545C440.568 337.595 438.482 338.74 436.497 340.02C438.159 339.804 439.829 340.096 441.513 340.43C444.449 341.013 447.321 341.531 450.327 341.428C450.439 341.424 450.468 341.608 450.354 341.628C445.241 342.508 440.406 340.184 435.339 340.788C433.462 342.078 431.688 343.502 430.061 345.098C426.876 348.224 424.328 351.961 422.363 355.959C420.23 360.301 419.073 364.903 417.349 369.389C417.273 369.586 416.999 369.51 417.034 369.302C418.51 360.458 422.914 350.703 429.359 344.398Z" fill="#263238"/>
<path d="M444.779 332.268C445.077 331.658 445.599 331.138 446.089 330.679C446.517 330.278 447.04 329.759 447.599 329.549C447.65 329.53 447.679 329.599 447.648 329.634C447.229 330.11 446.645 330.458 446.193 330.914C445.737 331.373 445.36 331.909 444.899 332.36C444.835 332.423 444.742 332.344 444.779 332.268Z" fill="#263238"/>
<path d="M453.213 335.014C453.971 334.824 454.774 334.837 455.544 334.68C456.324 334.521 457.049 334.242 457.804 334.003C457.903 333.972 457.961 334.117 457.874 334.169C456.63 334.908 454.666 335.537 453.213 335.252C453.092 335.228 453.1 335.042 453.213 335.014Z" fill="#263238"/>
<path d="M408.29 358.403L408.961 366.025L411.239 391.759H431.392L434.238 366.025L435.078 358.403H408.29Z" fill="#455A64"/>
<path d="M408.29 358.403L408.961 366.025H434.238L435.078 358.403H408.29Z" fill="#263238"/>
<path d="M406.295 362.508H437.074V356.325H406.295V362.508Z" fill="#455A64"/>
</svg>
