<?xml version="1.0" encoding="utf-8"?>
<!-- Generator: Adobe Illustrator 27.5.0, SVG Export Plug-In . SVG Version: 6.00 Build 0)  -->
<svg version="1.1" xmlns="http://www.w3.org/2000/svg" xmlns:xlink="http://www.w3.org/1999/xlink" x="0px" y="0px"
	 viewBox="0 0 3710 3710" style="enable-background:new 0 0 3710 3710;" xml:space="preserve">
<g id="Background">
	<g>
		<g>
			<rect style="fill:#FFFFFF;" width="3710" height="3710"/>
		</g>
	</g>
</g>
<g id="Illustration">
	<g>
		<path style="fill:#F4F7FA;" d="M2357.75,514.285c-210.065-46.865-428.468-69.327-642.013-55.009
			c-189.268,12.69-403.808,47.327-556.116,171.396c-72.584,59.126-159.143,165.369-182.885,259.095
			c-0.003,0.011-124.973,493.346-374.909,599.062c-249.939,105.717-423.508,1909.951,1471.864,1733.756
			c0,0,1113.239-46.17,1180.268-1376.057c16.192-321.259,7.146-674.434-186.835-943.06
			c-148.648-205.85-356.918-297.378-596.243-361.421C2433.496,532.044,2395.76,522.765,2357.75,514.285z"/>
		<g>
			<g>
				<g>
					<defs>
						<path id="SVGID_1_" d="M1477.319,2913.7c190.309-147.062,210.17-451.652,114.61-531.352
							c-49.703-41.454-110.063-4.914-155.627-54.963c-50.482-55.452-1.34-127.717-12.903-283.617
							c-5.974-80.549-16.808-226.617-103.303-276.394c-85.776-49.363-160.441,45.186-255.666-2.824
							c-90.042-45.396-57.503-147.186-168.318-238.129c-10.308-8.459-127.442-102.238-218.386-61.714
							c-92.395,41.17-125.124,206.42-74.537,308.96c45.96,93.16,147.181,107.178,142.51,162.609
							c-5.148,61.084-129.756,64.069-141.069,126.311c-16.353,89.968,232.065,149.365,240.75,290.811
							c5.107,83.175-78.501,99.922-94.924,205.44c-21.196,136.187,92.05,275.497,189.433,344.219
							C1081.018,3002.649,1312.368,3041.167,1477.319,2913.7z"/>
					</defs>
					
						<linearGradient id="SVGID_00000044884282620026575260000016120003846457250445_" gradientUnits="userSpaceOnUse" x1="579.4451" y1="2224.5505" x2="1647.8481" y2="2224.5505">
						<stop  offset="0.0036" style="stop-color:#E38DDD"/>
						<stop  offset="1" style="stop-color:#9571F6"/>
					</linearGradient>
					
						<use xlink:href="#SVGID_1_"  style="overflow:visible;fill:url(#SVGID_00000044884282620026575260000016120003846457250445_);"/>
					<clipPath id="SVGID_00000053546640594195051220000003208875192400165001_">
						<use xlink:href="#SVGID_1_"  style="overflow:visible;"/>
					</clipPath>
					<g style="opacity:0.7;clip-path:url(#SVGID_00000053546640594195051220000003208875192400165001_);">
						<path style="fill:#FFFFFF;" d="M1381.162,3048.117l7.329-2.096c-81.168-283.8-173.597-546.729-274.724-781.485
							c-80.92-187.846-167.56-358.185-257.514-506.283c-153.291-252.375-264.691-354.045-265.798-355.043l-5.103,5.664
							c1.1,0.993,111.9,102.19,264.671,353.809C991.036,1994.933,1197.65,2406.473,1381.162,3048.117z"/>
						<path style="fill:#FFFFFF;" d="M870.095,1782.967c35.651-233.57-45.706-420.969-46.532-422.835l-6.971,3.086
							c0.819,1.846,81.268,187.319,45.966,418.599L870.095,1782.967z"/>
						<path style="fill:#FFFFFF;" d="M1128.942,2297.896c116.073-229.731,147.314-391.235,153.081-486.267
							c6.281-103.512-14.849-151.865-15.751-153.872l-6.956,3.121c0.215,0.48,21.363,49.185,15.045,151.138
							c-5.841,94.204-36.99,254.373-152.224,482.442L1128.942,2297.896z"/>
						<path style="fill:#FFFFFF;" d="M1313.973,2806.816c288-345.743,291.578-611.04,291.581-613.679l-7.623-0.007
							c-0.001,0.663-1.135,69.428-39.429,181.205c-33.722,98.425-104.535,252.506-250.385,427.603L1313.973,2806.816z"/>
						<path style="fill:#FFFFFF;" d="M1014.311,2227.227c26.131,3.699,52.901,6.04,80.225,6.727l0.192-7.621
							c-178.538-4.489-334.114-80.453-433.18-143.389c-107.392-68.227-173.27-136.18-173.921-136.858l-5.496,5.286
							c0.66,0.685,67.172,69.295,175.327,138.007C742.202,2143.216,868.008,2206.514,1014.311,2227.227z"/>
						<path style="fill:#FFFFFF;" d="M1235.85,2709.321c14.109,1.998,28.477,3.526,43.125,4.54l0.525-7.605
							c-185.751-12.863-328.097-109.801-414.81-188.856c-94.027-85.726-144.644-169.366-145.145-170.2l-6.54,3.919
							c0.507,0.844,51.702,85.444,146.548,171.916C940.334,2596.68,1068.967,2685.695,1235.85,2709.321z"/>
					</g>
				</g>
			</g>
			<g>
				<g>
					<defs>
						<path id="SVGID_00000089552114227936313660000003830598767795360130_" d="M2338.532,2825.938
							c-240.351-118.836-329.094-447.344-242.199-555.478c45.196-56.244,119.204-29.594,157.985-94.32
							c42.966-71.713-26.645-139.874-48.32-312.798c-11.199-89.345-31.507-251.364,52.066-324.8
							c82.878-72.826,185.287,14.071,278.79-59.356c88.413-69.43,30.449-173.512,131.542-297.291
							c9.403-11.513,116.777-139.782,225.086-115.51c110.038,24.659,182.176,198.053,149.459,321.25
							c-29.725,111.927-137.262,149.526-119.958,209.076c19.07,65.624,155.908,41.461,181.97,106.995
							c37.673,94.725-220.744,214.312-199.105,370.807c12.724,92.024,130.523,99.67,113.056,217.432
							c-28.155,189.824-66.026,235.333-157.329,331.87C2729.258,2763.72,2546.858,2928.94,2338.532,2825.938z"/>
					</defs>
					
						<linearGradient id="SVGID_00000030485147702302224080000009149906241665616812_" gradientUnits="userSpaceOnUse" x1="2668.5046" y1="1723.4718" x2="2204.1731" y2="3766.5244">
						<stop  offset="0.0036" style="stop-color:#E38DDD"/>
						<stop  offset="1" style="stop-color:#9571F6"/>
					</linearGradient>
					
						<use xlink:href="#SVGID_00000089552114227936313660000003830598767795360130_"  style="overflow:visible;fill:url(#SVGID_00000030485147702302224080000009149906241665616812_);"/>
					<clipPath id="SVGID_00000031902904773367039230000001025379307937861278_">
						<use xlink:href="#SVGID_00000089552114227936313660000003830598767795360130_"  style="overflow:visible;"/>
					</clipPath>
					<g style="opacity:0.7;clip-path:url(#SVGID_00000031902904773367039230000001025379307937861278_);">
						<path style="fill:#FFFFFF;" d="M2473.204,2951.676l-8.471-0.678c26.246-328.023,69.392-635.714,128.244-914.531
							c47.093-223.103,104.29-428.33,170.004-609.98c111.983-309.552,211.353-445.183,212.343-446.517l6.823,5.067
							c-0.984,1.327-99.802,136.309-211.384,444.921C2667.77,1714.813,2532.541,2210.049,2473.204,2951.676z"/>
						<path style="fill:#FFFFFF;" d="M2753.292,1456.543c-90.369-247.417-42.699-470.127-42.207-472.348l8.297,1.838
							c-0.488,2.198-47.589,222.603,41.893,467.594L2753.292,1456.543z"/>
						<path style="fill:#FFFFFF;" d="M2583.735,2076.266c-177.414-225.522-247.102-395.15-274.32-497.739
							c-29.646-111.743-17.195-169.238-16.652-171.63l8.289,1.88c-0.13,0.572-12.522,58.455,16.821,168.486
							c27.116,101.668,96.41,269.857,272.541,493.747L2583.735,2076.266z"/>
						<path style="fill:#FFFFFF;" d="M2493.526,2673.176c-390.843-314.469-453.142-603.619-453.726-606.502l8.33-1.686
							c0.147,0.724,16.521,75.627,82.971,189.356c58.516,100.145,169.817,252.951,367.75,412.21L2493.526,2673.176z"/>
						<path style="fill:#FFFFFF;" d="M2693.458,1973.805c-27.744,9.794-56.485,18.244-86.196,25.009l-1.887-8.287
							c194.132-44.2,347.439-161.46,441.854-252.044c102.35-98.2,159.391-186.963,159.953-187.847l7.169,4.567
							c-0.571,0.894-58.16,90.514-161.237,189.413C2972.35,1822.102,2848.79,1918.969,2693.458,1973.805z"/>
						<path style="fill:#FFFFFF;" d="M2557.447,2549.432c-14.98,5.288-30.345,10.121-46.132,14.453l-2.248-8.196
							c200.172-54.939,334.404-192.209,411.771-297.692c83.893-114.382,120.802-216.93,121.166-217.953l8.01,2.844
							c-0.368,1.034-37.699,104.758-122.323,220.136C2855.618,2361.29,2734.63,2486.883,2557.447,2549.432z"/>
					</g>
				</g>
			</g>
		</g>
		<g>
			
				<linearGradient id="SVGID_00000017492074576389197030000005693170636885289608_" gradientUnits="userSpaceOnUse" x1="2568.8394" y1="4813.2378" x2="971.241" y2="6263.041" gradientTransform="matrix(0 -1 1 0 -3755.802 3738.6064)">
				<stop  offset="0.0036" style="stop-color:#26264F"/>
				<stop  offset="1" style="stop-color:#444B8C"/>
			</linearGradient>
			<path style="fill:url(#SVGID_00000017492074576389197030000005693170636885289608_);" d="M2608.96,2925.313
				c0,44.309-31.438,82.194-70.205,84.457l-1495.444,87.285c-44.413,2.592-80.672-34.065-80.672-81.721V870.12
				c0-47.658,36.259-84.962,80.672-83.162l1495.444,60.603c38.767,1.571,70.205,38.895,70.205,83.206V2925.313z"/>
			
				<linearGradient id="SVGID_00000128470236076011800920000017338487718184123025_" gradientUnits="userSpaceOnUse" x1="1038.5779" y1="1943.2904" x2="2860.5786" y2="1892.5227">
				<stop  offset="0" style="stop-color:#444B8C"/>
				<stop  offset="0.9964" style="stop-color:#26264F"/>
			</linearGradient>
			<path style="fill:url(#SVGID_00000128470236076011800920000017338487718184123025_);" d="M2652.867,2925.313
				c0,44.309-31.438,82.194-70.204,84.457l-1495.445,87.285c-44.413,2.592-80.671-34.065-80.671-81.721V870.12
				c0-47.658,36.259-84.962,80.671-83.162l1495.445,60.603c38.766,1.571,70.204,38.895,70.204,83.206V2925.313z"/>
			
				<linearGradient id="SVGID_00000151540260376676527630000011936803400202545032_" gradientUnits="userSpaceOnUse" x1="1361.9482" y1="6083.8389" x2="2264.4985" y2="4980.7217" gradientTransform="matrix(0 -1 1 0 -3755.802 3738.6064)">
				<stop  offset="0" style="stop-color:#444B8C"/>
				<stop  offset="0.9964" style="stop-color:#26264F"/>
			</linearGradient>
			<path style="fill:url(#SVGID_00000151540260376676527630000011936803400202545032_);" d="M1044.169,871.505v2141.77
				c0,25.472,19.294,45.029,43.05,43.683l1182.735-67.003l312.708-17.715c20.771-1.177,37.58-21.388,37.58-45.145V929.565
				c0-23.757-16.809-43.669-37.58-44.474l-323.998-12.574l-1171.445-45.462C1063.463,826.132,1044.169,846.033,1044.169,871.505z"/>
			
				<linearGradient id="SVGID_00000042707446995831474270000000004322780402059424_" gradientUnits="userSpaceOnUse" x1="2632.3875" y1="2999.759" x2="1297.6079" y2="1195.8485">
				<stop  offset="0" style="stop-color:#AA80F9"/>
				<stop  offset="0.9964" style="stop-color:#6165D7"/>
			</linearGradient>
			<path style="fill:url(#SVGID_00000042707446995831474270000000004322780402059424_);" d="M2598.587,928.035v1906.676
				c0,8.84-6.621,16.407-15.323,16.854l-153.144,7.843l-1344.243,68.724c-9.941,0.516-17.942-6.776-17.942-16.201V871.556
				c0-9.459,8.117-16.854,18.058-16.476l15.925,0.585l1481.345,55.722C2591.966,911.731,2598.587,919.195,2598.587,928.035z"/>
			
				<linearGradient id="SVGID_00000016765594674628254610000007517974249786088631_" gradientUnits="userSpaceOnUse" x1="2195.0286" y1="3208.5317" x2="906.7873" y2="1467.5162">
				<stop  offset="0" style="stop-color:#AA80F9"/>
				<stop  offset="0.9964" style="stop-color:#6165D7"/>
			</linearGradient>
			<path style="opacity:0.3;fill:url(#SVGID_00000016765594674628254610000007517974249786088631_);" d="M2430.353,2859.408
				l-1344.359,68.724c-9.941,0.516-18.058-6.776-18.058-16.201V871.556c0-9.459,8.117-16.854,18.058-16.476l15.925,0.585
				c45.989,62.671,141.44,134.904,334.061,196.783c454.036,145.807-60.71,782.146,513.13,986.806
				C2416.285,2205.871,2178.054,2643.466,2430.353,2859.408z"/>
			
				<linearGradient id="SVGID_00000093143208038736417580000006740198657204427420_" gradientUnits="userSpaceOnUse" x1="1872.9818" y1="2836.2866" x2="1842.8541" y2="3065.7202">
				<stop  offset="0" style="stop-color:#444B8C"/>
				<stop  offset="0.9964" style="stop-color:#26264F"/>
			</linearGradient>
			<path style="fill:url(#SVGID_00000093143208038736417580000006740198657204427420_);" d="M2010.702,2967.509l-304.12,16.725
				c-16.26,0.894-29.458-10.38-29.458-25.183v-1.111c0-14.803,13.198-27.497,29.458-28.352l304.12-15.995
				c15.805-0.831,28.602,10.305,28.602,24.872v1.094C2039.304,2954.127,2026.507,2966.64,2010.702,2967.509z"/>
			
				<linearGradient id="SVGID_00000000931546330746291040000011939318733480041601_" gradientUnits="userSpaceOnUse" x1="1851.9319" y1="848.5212" x2="1868.9949" y2="867.3235">
				<stop  offset="0" style="stop-color:#FF9085"/>
				<stop  offset="1" style="stop-color:#FB6FBB"/>
			</linearGradient>
			<path style="fill:url(#SVGID_00000000931546330746291040000011939318733480041601_);" d="M1875.231,857.636
				c0,7.875-6.966,13.993-15.565,13.664c-8.606-0.328-15.587-6.987-15.587-14.873c0-7.886,6.981-14.003,15.587-13.664
				C1868.265,843.102,1875.231,849.761,1875.231,857.636z"/>
		</g>
		<g>
			<ellipse style="fill:#D8DEE8;" cx="2335.174" cy="1688.696" rx="117.852" ry="165.617"/>
			<path style="fill:#FFFFFF;" d="M1974.977,1287.379h-221.813c-227.439,0-411.814,184.376-411.814,411.815v0.003
				c0,121.363,98.385,219.747,219.748,219.747h605.949c121.364,0,219.748-98.385,219.748-219.749v-0.001
				C2386.794,1471.756,2202.417,1287.379,1974.977,1287.379z"/>
			<path style="fill:#FFFFFF;" d="M1936.024,2369.254h-143.906c-147.555,0-267.173-119.617-267.173-267.173v-0.002
				c0-78.737,63.829-142.566,142.566-142.566h393.122c78.737,0,142.566,63.829,142.566,142.566v0.001
				C2203.198,2249.635,2083.58,2369.254,1936.024,2369.254z"/>
			<g>
				
					<linearGradient id="SVGID_00000081624892804316066750000015872821358139711415_" gradientUnits="userSpaceOnUse" x1="1650.6613" y1="1692.4996" x2="2268.2524" y2="1692.4996">
					<stop  offset="0" style="stop-color:#444B8C"/>
					<stop  offset="0.9964" style="stop-color:#26264F"/>
				</linearGradient>
				<path style="fill:url(#SVGID_00000081624892804316066750000015872821358139711415_);" d="M2176.317,1830.118H1754.68
					c-57.14,0-104.019-43.798-104.019-97.825v-82.848c0-54.027,46.879-96.33,104.019-94.507l421.637,13.451
					c51.031,1.628,91.936,43.633,91.936,93.838v76.987C2268.252,1789.419,2227.347,1830.118,2176.317,1830.118z"/>
				<g>
					<g>
						<path style="fill:#FFFFFF;" d="M1889.771,1686.472c0,36.081-30.715,64.943-68.912,64.46
							c-38.541-0.487-70.04-30.613-70.04-67.285c0-36.672,31.499-65.518,70.04-64.438
							C1859.056,1620.28,1889.771,1650.391,1889.771,1686.472z"/>
						<path style="fill:#FFFFFF;" d="M2174.711,1692.264c0,34.87-28.684,62.776-64.346,62.325
							c-35.972-0.454-65.363-29.54-65.363-64.962c0-35.421,29.391-63.312,65.363-62.304
							C2146.027,1628.322,2174.711,1657.394,2174.711,1692.264z"/>
					</g>
				</g>
			</g>
			<path style="opacity:0.3;fill:#FFFFFF;" d="M2017.082,1861.182c-62.707-73.678-34.842-132.601-116.822-232.445
				c-112.799-137.381-244.388-121.836-274.529-215.013c-8.352-25.819-9.311-61.257,13.091-110.245
				c-171.806,49.557-297.471,207.953-297.471,395.715v0.003c0,121.363,98.384,219.747,219.747,219.747h528.076
				C2057.542,1901.703,2034.427,1881.563,2017.082,1861.182z"/>
			<ellipse style="fill:#D8DEE8;" cx="1400.612" cy="1687.544" rx="117.852" ry="165.617"/>
			<ellipse style="fill:#BFC8D6;" cx="1307.384" cy="1687.544" rx="51.535" ry="72.422"/>
			<path style="opacity:0.4;fill:#D8DEE8;" d="M1971.464,2222.169c-19.742-92.721-238.13-90.484-244.069-151.09
				c-4.578-46.72,120.807-92.976,136.563-98.789c13.475-4.971,26.849-9.178,40.091-12.778h-236.539
				c-78.736,0-142.566,63.829-142.566,142.566v0.002c0,147.556,119.617,267.173,267.173,267.173h143.907
				c13.827,0,27.408-1.051,40.668-3.076c-12.523-15.522-20.688-32.499-22.663-51.03
				C1949.652,2274.073,1979.115,2258.098,1971.464,2222.169z"/>
			<ellipse style="fill:#D8DEE8;" cx="1867.617" cy="1967.451" rx="227.275" ry="27.517"/>
		</g>
		<g>
			<g>
				
					<linearGradient id="SVGID_00000107548590463736769740000010846254087575361167_" gradientUnits="userSpaceOnUse" x1="1926.2134" y1="1628.7523" x2="4306.6152" y2="-1428.4252">
					<stop  offset="0" style="stop-color:#AB316D"/>
					<stop  offset="1" style="stop-color:#792D3D"/>
				</linearGradient>
				<path style="fill:url(#SVGID_00000107548590463736769740000010846254087575361167_);" d="M2774.615,590.435l-554.981-12.041
					c-39.572-0.475-71.497,31.557-71.265,71.521l2.888,498.118c0.23,39.614,32.358,71.779,71.721,71.868l29.932,0.066l0.608,122.52
					c0.091,18.341,22.152,27.301,40.271,6.986l113.208-129.161l368.04-1.486c35.113,0.075,63.541-30.127,63.536-67.479
					l-0.073-491.892C2838.493,621.778,2809.909,590.867,2774.615,590.435z"/>
				
					<linearGradient id="SVGID_00000119086872490612741580000000542359761183059871_" gradientUnits="userSpaceOnUse" x1="2148.5361" y1="1352.0983" x2="2582.4607" y2="794.804">
					<stop  offset="0" style="stop-color:#FCB148"/>
					<stop  offset="0.0521" style="stop-color:#FDBA46"/>
					<stop  offset="0.1424" style="stop-color:#FFC244"/>
					<stop  offset="0.3183" style="stop-color:#FFC444"/>
					<stop  offset="0.4849" style="stop-color:#FDB946"/>
					<stop  offset="0.7754" style="stop-color:#F99C4D"/>
					<stop  offset="0.8658" style="stop-color:#F8924F"/>
					<stop  offset="1" style="stop-color:#F8924F"/>
				</linearGradient>
				<path style="fill:url(#SVGID_00000119086872490612741580000000542359761183059871_);" d="M2793.032,1205.359l-553.079,1.439
					c-39.434-0.062-71.618-32.241-71.842-71.897l-2.822-498.652c-0.226-40.007,31.763-72.096,71.407-71.648l556.007,11.671
					c35.36,0.409,63.992,31.334,63.992,69.053v492.438C2856.694,1175.157,2828.21,1205.411,2793.032,1205.359z"/>
				
					<linearGradient id="SVGID_00000074437772185130803960000014454212420092464039_" gradientUnits="userSpaceOnUse" x1="2617.1401" y1="1153.7764" x2="2345.085" y2="461.8101">
					<stop  offset="0" style="stop-color:#FCB148"/>
					<stop  offset="0.0521" style="stop-color:#FDBA46"/>
					<stop  offset="0.1424" style="stop-color:#FFC244"/>
					<stop  offset="0.3183" style="stop-color:#FFC444"/>
					<stop  offset="0.4849" style="stop-color:#FDB946"/>
					<stop  offset="0.7754" style="stop-color:#F99C4D"/>
					<stop  offset="0.8658" style="stop-color:#F8924F"/>
					<stop  offset="1" style="stop-color:#F8924F"/>
				</linearGradient>
				<path style="fill:url(#SVGID_00000074437772185130803960000014454212420092464039_);" d="M2188.552,1148.045l-2.882-524.788
					c-0.117-21.315,16.923-38.411,38.048-38.179l580.671,10.81c18.838,0.211,34.102,16.688,34.105,36.796l0.077,517.381
					c0.003,19.933-15.183,36.059-33.931,36.025l-577.807,0.272C2205.813,1186.323,2188.669,1169.171,2188.552,1148.045z"/>
				
					<linearGradient id="SVGID_00000158008881956194538200000015637268121380552377_" gradientUnits="userSpaceOnUse" x1="2184.6064" y1="1404.573" x2="2776.6511" y2="644.2034">
					<stop  offset="0" style="stop-color:#FCB148"/>
					<stop  offset="0.0521" style="stop-color:#FDBA46"/>
					<stop  offset="0.1424" style="stop-color:#FFC244"/>
					<stop  offset="0.3183" style="stop-color:#FFC444"/>
					<stop  offset="0.4849" style="stop-color:#FDB946"/>
					<stop  offset="0.7754" style="stop-color:#F99C4D"/>
					<stop  offset="0.8658" style="stop-color:#F8924F"/>
					<stop  offset="1" style="stop-color:#F8924F"/>
				</linearGradient>
				<path style="fill:url(#SVGID_00000158008881956194538200000015637268121380552377_);" d="M2270.529,1329.497l-0.714-147.912
					l176.562,0.346l-141.048,160.778C2293.273,1356.451,2270.618,1347.857,2270.529,1329.497z"/>
			</g>
			<g>
				<g>
					<path style="fill:#FFFFFF;" d="M2413.59,890.559c0.082,22.52-19.084,40.762-42.84,40.75
						c-23.791-0.011-43.182-18.319-43.28-40.899c-0.098-22.588,19.148-40.849,42.955-40.778
						C2394.196,849.703,2413.508,868.03,2413.59,890.559z"/>
					<path style="fill:#FFFFFF;" d="M2559.783,890.811c0.055,22.419-18.96,40.578-42.501,40.566
						c-23.576-0.011-42.77-18.236-42.841-40.714c-0.071-22.486,19.023-40.664,42.614-40.593
						C2540.612,850.141,2559.728,868.384,2559.783,890.811z"/>
					<path style="fill:#FFFFFF;" d="M2704.66,891.061c0.028,22.317-18.838,40.395-42.168,40.384
						c-23.364-0.011-42.364-18.153-42.407-40.53c-0.043-22.385,18.899-40.48,42.279-40.411
						C2685.709,850.574,2704.633,868.735,2704.66,891.061z"/>
				</g>
			</g>
		</g>
		<g>
			
				<linearGradient id="SVGID_00000078003690170198500680000005925839868582570669_" gradientUnits="userSpaceOnUse" x1="3572.4973" y1="2957.0884" x2="3513.3401" y2="2762.0286" gradientTransform="matrix(0.993 0.1177 -0.1177 0.993 -2178.0205 -89.6996)">
				<stop  offset="0" style="stop-color:#444B8C"/>
				<stop  offset="0.9964" style="stop-color:#26264F"/>
			</linearGradient>
			<path style="fill:url(#SVGID_00000078003690170198500680000005925839868582570669_);" d="M975.299,3166.513
				c-7.305,11.653-6.167,17.108-4.91,19.586c3.682,7.272,14.934,1.945,42.211,8.103c3.199,0.723,9.293,2.204,17.199,1.194
				c6.772-0.867,14.931-3.571,14.784-5.375c-0.054-0.657-1.202-1.038-1.637-1.179c-7.493-2.435-53.934-22.175-53.934-22.175
				L975.299,3166.513z"/>
			
				<linearGradient id="SVGID_00000154419201577841210280000004134201866059620481_" gradientUnits="userSpaceOnUse" x1="3521.499" y1="2919.1064" x2="3521.499" y2="2605.7273" gradientTransform="matrix(0.993 0.1177 -0.1177 0.993 -2178.0205 -89.6996)">
				<stop  offset="0" style="stop-color:#FFC444"/>
				<stop  offset="0.9964" style="stop-color:#F36F56"/>
			</linearGradient>
			<path style="fill:url(#SVGID_00000154419201577841210280000004134201866059620481_);" d="M974.439,3139.129l1.414,27.904
				c0,0,10.922,9.569,15.078-0.227c2.991-7.046,4.979-26.673,4.979-26.673L974.439,3139.129z"/>
			
				<linearGradient id="SVGID_00000132084280079774598400000002318533441295201940_" gradientUnits="userSpaceOnUse" x1="3636.8848" y1="2919.1057" x2="3636.8848" y2="2605.7231" gradientTransform="matrix(0.993 0.1177 -0.1177 0.993 -2178.0205 -89.6996)">
				<stop  offset="0" style="stop-color:#FFC444"/>
				<stop  offset="0.9964" style="stop-color:#F36F56"/>
			</linearGradient>
			<polygon style="fill:url(#SVGID_00000132084280079774598400000002318533441295201940_);" points="1112.27,3167.277 
				1097.389,3197.68 1080.844,3193.241 1087.804,3164.377 			"/>
			
				<linearGradient id="SVGID_00000178912365033024621240000016564674720287999112_" gradientUnits="userSpaceOnUse" x1="3658.6748" y1="2930.9526" x2="3599.5173" y2="2735.8923" gradientTransform="matrix(0.993 0.1177 -0.1177 0.993 -2178.0205 -89.6996)">
				<stop  offset="0" style="stop-color:#444B8C"/>
				<stop  offset="0.9964" style="stop-color:#26264F"/>
			</linearGradient>
			<path style="fill:url(#SVGID_00000178912365033024621240000016564674720287999112_);" d="M1090.329,3214.544
				c-7.135-10.515-14.497-10.398-15.27-17.193c-0.608-5.338,3.257-11.404,8.332-13.331c7.133-2.706,14.782,3.485,16.511,4.883
				c11.74,9.505,6.971,21.952,18.267,28.745c2.274,1.368,5.938,2.95,9.539,7.107c1.53,1.767,5.318,6.141,4.051,8.748
				c-1.466,3.017-8.942,2.125-16.051,1.278c-8.53-1.016-12.795-1.521-16.635-4.516
				C1093.75,3226.117,1095.835,3222.658,1090.329,3214.544z"/>
			
				<linearGradient id="SVGID_00000050626213380238305400000016274568188384517006_" gradientUnits="userSpaceOnUse" x1="3494.4028" y1="2242.8984" x2="3465.6233" y2="2890.4387" gradientTransform="matrix(0.993 0.1177 -0.1177 0.993 -2178.0205 -89.6996)">
				<stop  offset="0" style="stop-color:#311944"/>
				<stop  offset="1" style="stop-color:#893976"/>
			</linearGradient>
			<path style="fill:url(#SVGID_00000050626213380238305400000016274568188384517006_);" d="M953.06,2472.988
				c-3.563,64.187-0.117,119.659,5.638,165.188c6.193,48.977,11.435,57.787,11.852,91.333c0.906,73-23.295,81.433-34.367,162.943
				c-12.226,90.003,5.855,163.841,13.033,192.03c6.275,24.643,13.319,44.708,18.708,58.685c7.689,7.913,20.591,6.188,34.177,4.58
				c11.719-81.583,24.25-158.236,35.97-239.819c26.097-122.029,52.194-244.052,78.291-366.079
				C1061.927,2518.894,1007.494,2495.943,953.06,2472.988z"/>
			
				<linearGradient id="SVGID_00000080890404751189211780000007494762766620344975_" gradientUnits="userSpaceOnUse" x1="3494.4028" y1="2242.8984" x2="3465.6233" y2="2890.4387" gradientTransform="matrix(0.993 0.1177 -0.1177 0.993 -2178.0205 -89.6996)">
				<stop  offset="0" style="stop-color:#311944"/>
				<stop  offset="1" style="stop-color:#893976"/>
			</linearGradient>
			<path style="opacity:0.3;fill:url(#SVGID_00000080890404751189211780000007494762766620344975_);" d="M1002.101,3147.747
				c11.719-81.583,24.25-158.236,35.97-239.819c26.097-122.029,52.194-244.052,78.291-366.079
				c-54.434-22.955-108.868-45.906-163.302-68.862c-0.235,4.25-0.362,8.357-0.539,12.534
				c72.849,74.679,83.737,129.957,79.917,166.728c-4.633,44.599-30.899,64.72-31.495,129.892
				c-0.427,46.598,12.821,55.913,9.351,97.706c-4.471,53.817-30.076,82.162-43.903,112.328
				c-13.364,29.156-20.762,71.408-4.778,133.702c2.24,6.481,4.383,12.292,6.311,17.289
				C975.613,3151.079,988.515,3149.358,1002.101,3147.747z"/>
			
				<linearGradient id="SVGID_00000035524792031884255030000013656710383847111598_" gradientUnits="userSpaceOnUse" x1="3933.1345" y1="2518.3699" x2="3405.5022" y2="2494.3862" gradientTransform="matrix(0.993 0.1177 -0.1177 0.993 -2178.0205 -89.6996)">
				<stop  offset="0" style="stop-color:#311944"/>
				<stop  offset="1" style="stop-color:#893976"/>
			</linearGradient>
			<path style="fill:url(#SVGID_00000035524792031884255030000013656710383847111598_);" d="M1047.009,2542.888
				c35.382,72.869,53.696,129.434,63.302,164.221c5.86,21.222,10.938,43.243,10.204,71.508c-0.9,34.628-10.101,62.381-17.544,80.021
				c-10.576,22.514-20.638,48.962-28.077,79.164c-24.13,97.947-7.766,182.942,6.461,232.221c9.639,4.505,19.278,9.015,28.917,13.521
				c27.743-61.143,62.743-148.241,91.689-256.828c15.81-59.306,27.99-105.837,33.039-165.806
				c5.327-63.252,4.623-164.057-37.226-287.897C1147.519,2496.303,1097.264,2519.597,1047.009,2542.888z"/>
			
				<linearGradient id="SVGID_00000011033212951512241180000010323804210731665331_" gradientUnits="userSpaceOnUse" x1="3152.2183" y1="2656.6189" x2="3526.356" y2="1857.1797" gradientTransform="matrix(0.993 0.1177 -0.1177 0.993 -2178.0205 -89.6996)">
				<stop  offset="0.494" style="stop-color:#EBEFF2"/>
				<stop  offset="1" style="stop-color:#FFFFFF"/>
			</linearGradient>
			<path style="fill:url(#SVGID_00000011033212951512241180000010323804210731665331_);" d="M1115.382,1997.215
				c62.336,16.103,109.542,31.398,128.292,66.299c19.804,36.865-18.475,60.206-34.651,136.146
				c-24.768,116.262,39.155,165.76,9.908,282.469c-9.854,39.323-25.966,69.034-36.815,86.582
				c-21.817,14.974-56.182,35.026-101.523,46.788c-65.982,17.116-96.532,1.454-183.213-0.766
				c-141.782-3.635-166.302,35.542-227.97,5.09c-62.324-30.777-103.263-103.373-87.163-131.61
				c9.643-16.909,34.55-3.788,73.367-22.312c50.026-23.873,45.159-62.523,86.578-91.897c59.491-42.193,109.07,9.506,160.008-27.248
				c51.527-37.181,65.568-136.819,50.057-198.113c-10.132-40.035-6.871-82.389-13.473-123.154c-0.55-3.386-0.76-8.734,1.801-14.565
				c9.788-22.303,52.161-23.228,84.166-23.629C1073.564,1986.681,1110.257,1995.89,1115.382,1997.215z"/>
			
				<linearGradient id="SVGID_00000147920844829715090760000002124178634278220207_" gradientUnits="userSpaceOnUse" x1="585.5187" y1="2481.5344" x2="1226.7618" y2="2481.5344">
				<stop  offset="0" style="stop-color:#AA80F9"/>
				<stop  offset="0.9964" style="stop-color:#6165D7"/>
			</linearGradient>
			<path style="opacity:0.3;fill:url(#SVGID_00000147920844829715090760000002124178634278220207_);" d="M680.508,2575.874
				c20.616-11.4,13.095-49.185,43.655-66.38c28.364-15.959,47.339,9.56,87.926,0.707c52.056-11.356,53.453-60.454,103.398-72.021
				c35.913-8.317,44.617,14.889,94.998,20.036c50.295,5.141,118.055-10.175,164.298-60.109
				c19.649-21.217,31.584-44.601,38.841-66.533c9.864,44.633,21.004,87.914,5.306,150.555
				c-9.854,39.323-25.966,69.034-36.815,86.582c-21.817,14.974-56.182,35.026-101.523,46.787
				c-65.981,17.116-96.532,1.455-183.213-0.765c-141.782-3.635-166.302,35.542-227.97,5.09
				c-39.831-19.669-70.838-56.393-83.892-87.728C637.928,2577.286,665.547,2584.147,680.508,2575.874z"/>
			
				<linearGradient id="SVGID_00000168819036167329316340000016546001720419490703_" gradientUnits="userSpaceOnUse" x1="3564.5007" y1="1619.5049" x2="3497.0088" y2="1728.6831" gradientTransform="matrix(0.993 0.1177 -0.1177 0.993 -2178.0205 -89.6996)">
				<stop  offset="0" style="stop-color:#FFC444"/>
				<stop  offset="0.9964" style="stop-color:#F36F56"/>
			</linearGradient>
			<path style="fill:url(#SVGID_00000168819036167329316340000016546001720419490703_);" d="M1160.98,1890.801
				c0,0,14.714,34.158,13.911,57.205c-0.804,23.044-26.571,19.229-26.571,19.229l-0.228,14.561
				c-0.194,12.43,6.942,23.811,18.215,29.051l9.917,4.609c0,0-67.905,8.754-102.205-20.007l10.585-0.156
				c14.988-0.223,27.742-10.978,30.49-25.715l1.146-6.145C1116.24,1963.432,1110.598,1890.921,1160.98,1890.801z"/>
			<g>
				
					<linearGradient id="SVGID_00000152240910435346038640000015014799670896332732_" gradientUnits="userSpaceOnUse" x1="3815.8674" y1="1788.5389" x2="3679.8259" y2="2008.6064" gradientTransform="matrix(0.993 0.1177 -0.1177 0.993 -2178.0205 -89.6996)">
					<stop  offset="0" style="stop-color:#444B8C"/>
					<stop  offset="0.9964" style="stop-color:#26264F"/>
				</linearGradient>
				<path style="fill:url(#SVGID_00000152240910435346038640000015014799670896332732_);" d="M1229.019,2263.668l101.526-175.127
					c1.254-2.162,3.773-3.25,6.207-2.682l142.046,33.195c3.792,0.885,5.589,5.24,3.524,8.542l-117.811,188.381
					c-1.418,2.268-4.229,3.239-6.745,2.329l-124.844-45.086L1229.019,2263.668z"/>
				
					<linearGradient id="SVGID_00000108988407223519420330000005235704861192435847_" gradientUnits="userSpaceOnUse" x1="3840.1414" y1="1831.1213" x2="3722.6309" y2="2051.7532" gradientTransform="matrix(0.9946 0.104 -0.104 0.9946 -2242.2766 -80.9972)">
					<stop  offset="0" style="stop-color:#FFC444"/>
					<stop  offset="0.9964" style="stop-color:#F36F56"/>
				</linearGradient>
				<path style="fill:url(#SVGID_00000108988407223519420330000005235704861192435847_);" d="M1253.996,2243.791l82.204-141.799
					c1.016-1.751,3.055-2.632,5.026-2.172l115.013,26.878c3.072,0.717,4.526,4.243,2.853,6.916l-95.391,152.531
					c-1.148,1.837-3.423,2.622-5.461,1.886l-101.086-36.505L1253.996,2243.791z"/>
				
					<linearGradient id="SVGID_00000129184892720513114130000006024507100034631559_" gradientUnits="userSpaceOnUse" x1="3801.9731" y1="1774.4227" x2="3834.3508" y2="1707.2692" gradientTransform="matrix(0.993 0.1177 -0.1177 0.993 -2178.0205 -89.6996)">
					<stop  offset="0" style="stop-color:#AA80F9"/>
					<stop  offset="0.9964" style="stop-color:#6165D7"/>
				</linearGradient>
				<path style="fill:url(#SVGID_00000129184892720513114130000006024507100034631559_);" d="M1360.461,2103.619l6.528-11.374
					c0.908-1.58,2.738-2.385,4.516-1.986l59.162,13.305c2.747,0.618,4.097,3.731,2.672,6.158l-7.259,12.367
					c-0.93,1.584-2.789,2.37-4.573,1.934l-58.43-14.299C1360.391,2109.067,1359.083,2106.017,1360.461,2103.619z"/>
				<path style="fill:#FFFFFF;" d="M1437.95,2152.381c-0.093-0.011-0.18-0.031-0.272-0.051l-104.152-24.579
					c-1.29-0.304-2.089-1.596-1.786-2.882c0.31-1.293,1.642-2.069,2.886-1.781l104.152,24.58c1.289,0.303,2.089,1.597,1.786,2.881
					C1440.28,2151.752,1439.141,2152.523,1437.95,2152.381z"/>
				<path style="fill:#FFFFFF;" d="M1431.419,2162.475c-0.098-0.012-0.199-0.033-0.295-0.054l-103.514-25.551
					c-1.289-0.313-2.072-1.615-1.755-2.906c0.313-1.284,1.599-2.065,2.901-1.751l103.513,25.55c1.289,0.313,2.073,1.614,1.754,2.906
					C1433.734,2161.853,1432.6,2162.614,1431.419,2162.475z"/>
				<path style="fill:#FFFFFF;" d="M1376.817,2173.71c-0.12-0.014-0.241-0.038-0.359-0.071l-56.279-15.528
					c-1.28-0.35-2.029-1.674-1.674-2.952c0.349-1.27,1.693-2.026,2.947-1.67l56.28,15.528c1.279,0.35,2.028,1.675,1.674,2.954
					C1379.089,2173.12,1377.97,2173.846,1376.817,2173.71z"/>
			</g>
			
				<linearGradient id="SVGID_00000094583915630187096110000002007588525617824691_" gradientUnits="userSpaceOnUse" x1="3844.6484" y1="1875.5083" x2="3812.0056" y2="1928.3126" gradientTransform="matrix(0.993 0.1177 -0.1177 0.993 -2178.0205 -89.6996)">
				<stop  offset="0" style="stop-color:#FFC444"/>
				<stop  offset="0.9964" style="stop-color:#F36F56"/>
			</linearGradient>
			<path style="fill:url(#SVGID_00000094583915630187096110000002007588525617824691_);" d="M1393.344,2269.872
				c0,0,25.124-13.502,29.035-24.463c3.911-10.96,5.437-32.194,5.437-32.194l-16.789,28.382c0,0-6.408-2.584-8.228-12.706
				c-1.819-10.122-7.571-1.626-6.404,5.999C1397.562,2242.514,1393.344,2269.872,1393.344,2269.872z"/>
			
				<linearGradient id="SVGID_00000112607961522998251060000003820127482479852207_" gradientUnits="userSpaceOnUse" x1="3320.1338" y1="2735.187" x2="3694.2649" y2="1935.7614" gradientTransform="matrix(0.993 0.1177 -0.1177 0.993 -2178.0205 -89.6996)">
				<stop  offset="0.494" style="stop-color:#EBEFF2"/>
				<stop  offset="1" style="stop-color:#FFFFFF"/>
			</linearGradient>
			<path style="fill:url(#SVGID_00000112607961522998251060000003820127482479852207_);" d="M1233.614,2051.253
				c11.601,8.842,28.897,24.041,43.175,47.142c40.619,65.721,15.535,128.594,51.999,155.57c10.427,7.717,29.378,15.076,65.899,6.302
				l12.749,8.591c0,0,7.721,85.585-94.439,78.076c-102.16-7.504-139.665-139.405-139.665-139.405L1233.614,2051.253z"/>
			
				<linearGradient id="SVGID_00000158710157668314091030000007252933600255076279_" gradientUnits="userSpaceOnUse" x1="776.1581" y1="2380.7146" x2="923.648" y2="2014.3688">
				<stop  offset="0" style="stop-color:#444B8C"/>
				<stop  offset="0.9964" style="stop-color:#26264F"/>
			</linearGradient>
			<path style="fill:url(#SVGID_00000158710157668314091030000007252933600255076279_);" d="M1147.859,1922.467
				c-3.424-0.571-5.911-5.181-8.38-4.077c-2.591,1.154-2.843,7.553-1.062,12.207c1.463,3.814,4.172,6.127,5.695,7.227
				c-2.969,3.464-6.835,8.911-8.868,16.293c-4.5,16.324,3.211,30.392,6.228,38.5c13.609,36.554-16.709,90.048-47.254,115.798
				c-24.822,20.934-34.76,10.865-49.995,28.38c-29.655,34.087,3.816,77.032-14.013,124.743
				c-27.112,72.546-146.24,84.921-151.173,85.375c-1.944,0.179-3.248,0.284-5.268,0.436
				c-53.312,3.998-134.114,10.057-186.699-37.787c-39.344-35.793-53.954-93.631-46.665-142.902
				c1.916-12.96,9.964-62.094,53.612-99.121c6.927-5.875,47.944-40.589,99.168-36.805c27.13,2.003,31.806,12.009,53.029,7.822
				c29.055-5.734,48.679-30.092,60.854-45.199c22.392-27.793,14.806-34.753,30.36-48.046c30.478-26.042,61.629-1.025,93.746-23.576
				c31.659-22.227,16.57-57.194,46.925-76.189c31.314-19.589,87.083-7.22,96.932,20.016
				C1183.493,1888.966,1158.359,1924.217,1147.859,1922.467z"/>
		</g>
		<g>
			<g>
				<g>
					
						<linearGradient id="SVGID_00000143594741988607600800000003673137814266553503_" gradientUnits="userSpaceOnUse" x1="954.472" y1="665.6926" x2="1029.9706" y2="1348.1968">
						<stop  offset="0" style="stop-color:#311944"/>
						<stop  offset="1" style="stop-color:#893976"/>
					</linearGradient>
					<path style="fill:url(#SVGID_00000143594741988607600800000003673137814266553503_);" d="M1016.93,986.614l24.54-0.135
						c0,0,58.783-74.365,98.506-78.476l3.68-209.518c-152.139,0.509-286.411,86.228-347.56,212.921L1016.93,986.614z"/>
					
						<linearGradient id="SVGID_00000077316774301952709720000015402302192358572205_" gradientUnits="userSpaceOnUse" x1="1231.8717" y1="1204.3137" x2="1526.4235" y2="1799.2505">
						<stop  offset="0" style="stop-color:#311944"/>
						<stop  offset="1" style="stop-color:#893976"/>
					</linearGradient>
					<path style="fill:url(#SVGID_00000077316774301952709720000015402302192358572205_);" d="M1310.427,1079.467
						c-12.473,68.841-75.185,122.963-152.014,125.352c-18.914,0.588-40.966-10.747-40.966-10.747s-20.228,1.113-23.692-0.237
						l-119.924,185.678c55.741,25.163,118.713,37.491,184.582,33.707c191.553-11.005,342.155-155.202,358.881-328.797
						L1310.427,1079.467z"/>
					
						<linearGradient id="SVGID_00000034056874732288716020000001056821499481713304_" gradientUnits="userSpaceOnUse" x1="768.015" y1="954.7084" x2="1199.8124" y2="1509.8762">
						<stop  offset="0" style="stop-color:#311944"/>
						<stop  offset="1" style="stop-color:#893976"/>
					</linearGradient>
					<path style="fill:url(#SVGID_00000034056874732288716020000001056821499481713304_);" d="M936.295,1359.98l23.992,0.829
						l97.032-187.055c-36.201-26.803-59.467-68.513-59.467-115.821c0-11.431,1.372-22.576,3.952-33.304L804.167,950.04
						l-24.038,0.281c-11.906,34.902-18.335,72.039-18.335,110.509C761.794,1188.219,831.69,1297.897,936.295,1359.98z"/>
				</g>
				<g>
					
						<linearGradient id="SVGID_00000119092029560983412800000016946803090398846851_" gradientUnits="userSpaceOnUse" x1="1612.2225" y1="568.1934" x2="1324.6329" y2="969.2358">
						<stop  offset="0" style="stop-color:#311944"/>
						<stop  offset="1" style="stop-color:#893976"/>
					</linearGradient>
					<path style="fill:url(#SVGID_00000119092029560983412800000016946803090398846851_);" d="M1181.908,908.915
						c69.965,10.411,123.759,64.629,130.15,131.634l338.28,9.802c0-0.071,0.001-0.143,0.002-0.214c0,0,0-0.109,0.001-0.214
						c0.002-0.254,50.997-8.2,50.996-8.233c-0.016-2.319-462.115-488.065-462.115-488.065l-51.254,8.422
						C1187.968,562.048,1183.928,793.293,1181.908,908.915z"/>
				</g>
			</g>
			<g>
				<g>
					
						<linearGradient id="SVGID_00000038385875492650449620000004960133287147645830_" gradientUnits="userSpaceOnUse" x1="978.7293" y1="666.1622" x2="1053.5299" y2="1342.3552">
						<stop  offset="0" style="stop-color:#FFC444"/>
						<stop  offset="0.9964" style="stop-color:#F36F56"/>
					</linearGradient>
					<path style="fill:url(#SVGID_00000038385875492650449620000004960133287147645830_);" d="M1041.135,986.614
						c24.5-42.862,70.082-73.13,123.046-78.61l3.68-209.518c-152.139,0.509-286.411,86.228-347.56,212.921L1041.135,986.614z"/>
					
						<linearGradient id="SVGID_00000023257963481953016900000007770372052471260295_" gradientUnits="userSpaceOnUse" x1="1256.0771" y1="1204.3136" x2="1550.6289" y2="1799.2504">
						<stop  offset="0.0036" style="stop-color:#E38DDD"/>
						<stop  offset="1" style="stop-color:#9571F6"/>
					</linearGradient>
					<path style="fill:url(#SVGID_00000023257963481953016900000007770372052471260295_);" d="M1334.633,1079.467
						c-12.473,68.841-75.184,122.963-152.014,125.352c-22.909,0.712-44.797-3.242-64.657-10.984l-119.924,185.678
						c55.741,25.163,118.713,37.491,184.582,33.707c191.553-11.005,342.155-155.202,358.881-328.797L1334.633,1079.467z"/>
					
						<linearGradient id="SVGID_00000163785688245179575380000008191481025664847503_" gradientUnits="userSpaceOnUse" x1="792.3067" y1="954.8195" x2="1208.8202" y2="1490.3364">
						<stop  offset="0" style="stop-color:#AA80F9"/>
						<stop  offset="0.9964" style="stop-color:#6165D7"/>
					</linearGradient>
					<path style="fill:url(#SVGID_00000163785688245179575380000008191481025664847503_);" d="M960.5,1359.98l121.025-186.226
						c-36.202-26.803-59.467-68.513-59.467-115.821c0-11.431,1.372-22.576,3.952-33.304l-221.676-74.307
						c-11.906,34.902-18.335,72.039-18.335,110.509C785.999,1188.219,855.895,1297.897,960.5,1359.98z"/>
				</g>
				<g>
					
						<linearGradient id="SVGID_00000003817922496645257200000002606790322072349857_" gradientUnits="userSpaceOnUse" x1="1680.0885" y1="504.6106" x2="1364.5414" y2="944.6396">
						<stop  offset="0" style="stop-color:#FF9085"/>
						<stop  offset="1" style="stop-color:#FB6FBB"/>
					</linearGradient>
					<path style="fill:url(#SVGID_00000003817922496645257200000002606790322072349857_);" d="M1232.907,900.081
						c69.964,10.411,123.759,64.629,130.149,131.634l338.28,9.802c0-0.143,0.003-0.286,0.003-0.429
						c0-248.162-197.728-460.537-462.372-487.875L1232.907,900.081z"/>
				</g>
			</g>
			<g style="opacity:0.3;">
				
					<linearGradient id="SVGID_00000165204147891101518380000017209836486089601438_" gradientUnits="userSpaceOnUse" x1="1115.4855" y1="1278.6367" x2="1403.7574" y2="1860.8895">
					<stop  offset="0.0036" style="stop-color:#E38DDD"/>
					<stop  offset="1" style="stop-color:#9571F6"/>
				</linearGradient>
				<path style="fill:url(#SVGID_00000165204147891101518380000017209836486089601438_);" d="M1136.368,1199.751
					c-6.299-1.617-12.446-3.592-18.406-5.916l-119.924,185.678c55.741,25.163,118.712,37.491,184.581,33.707
					c53.219-3.057,103.27-16.409,148.174-37.803c-45.328-6.864-85.797-24.055-118.112-52.703
					C1175.868,1290.077,1151.993,1244.682,1136.368,1199.751z"/>
			</g>
			<g style="opacity:0.3;">
				
					<linearGradient id="SVGID_00000144300104469101507800000009077755718786004100_" gradientUnits="userSpaceOnUse" x1="944.1342" y1="670.6663" x2="1018.78" y2="1345.4604">
					<stop  offset="0" style="stop-color:#FFC444"/>
					<stop  offset="0.9964" style="stop-color:#F36F56"/>
				</linearGradient>
				<path style="fill:url(#SVGID_00000144300104469101507800000009077755718786004100_);" d="M1096.111,781.647
					c-14.241-26.264-34.605-46.17-57.454-61.377c-96.145,33.174-175.342,102.018-218.356,191.137l220.834,75.207
					c15.33-26.82,38.916-48.708,67.399-62.678C1114.29,868.19,1120.819,827.213,1096.111,781.647z"/>
			</g>
		</g>
		<g>
			
				<linearGradient id="SVGID_00000041294648860413856760000014947819554234153655_" gradientUnits="userSpaceOnUse" x1="4991.3389" y1="3695.2239" x2="5032.394" y2="3731.7424" gradientTransform="matrix(0.9902 -0.14 0.14 0.9902 -2711.9221 206.9384)">
				<stop  offset="0" style="stop-color:#444B8C"/>
				<stop  offset="0.9964" style="stop-color:#26264F"/>
			</linearGradient>
			<path style="fill:url(#SVGID_00000041294648860413856760000014947819554234153655_);" d="M2759.377,3185.737
				c1.168-6.436,21.953-12.262,32.244-3.641c5.111,4.281,8.629,12.957,5.673,16.876c-1.076,1.425,3.33,3.933-0.891,3.982
				C2782.402,3203.117,2758.215,3192.133,2759.377,3185.737z"/>
			
				<linearGradient id="SVGID_00000052063790956980478680000003992545268932370326_" gradientUnits="userSpaceOnUse" x1="4806.1094" y1="3491.0806" x2="4806.1094" y2="3419.5591" gradientTransform="matrix(0.9988 0.0498 -0.0498 0.9988 -1835.4758 -528.7908)">
				<stop  offset="0" style="stop-color:#FFC444"/>
				<stop  offset="0.9964" style="stop-color:#F36F56"/>
			</linearGradient>
			<path style="fill:url(#SVGID_00000052063790956980478680000003992545268932370326_);" d="M2782.105,3185.771l21.562,1.075
				c-7.47-13.581,1.511-50.519,1.511-50.519l-23.282,0.683c0,0,0.573,10.724,1.992,26.654
				C2784.374,3169.117,2783.478,3177.332,2782.105,3185.771z"/>
			
				<linearGradient id="SVGID_00000096022258548485507080000017975904598785540020_" gradientUnits="userSpaceOnUse" x1="4995.4668" y1="3690.5852" x2="5036.5215" y2="3727.1033" gradientTransform="matrix(0.9902 -0.14 0.14 0.9902 -2711.9221 206.9384)">
				<stop  offset="0" style="stop-color:#444B8C"/>
				<stop  offset="0.9964" style="stop-color:#26264F"/>
			</linearGradient>
			<path style="fill:url(#SVGID_00000096022258548485507080000017975904598785540020_);" d="M2779.267,3185.446
				c0,0,25.735-5.93,28.519-0.825c2.784,5.105,4.945,18.773-11.382,18.333C2780.075,3202.513,2777.816,3189.775,2779.267,3185.446z"
				/>
			
				<linearGradient id="SVGID_00000003094337040436844330000015140286809964624293_" gradientUnits="userSpaceOnUse" x1="5086.6934" y1="3212.4106" x2="5127.75" y2="3248.9307" gradientTransform="matrix(1 0 0 1 -2609.0793 0)">
				<stop  offset="0" style="stop-color:#444B8C"/>
				<stop  offset="0.9964" style="stop-color:#26264F"/>
			</linearGradient>
			<path style="fill:url(#SVGID_00000003094337040436844330000015140286809964624293_);" d="M2486.443,3232.419
				c2.058-6.208,23.454-9.068,32.438,0.908c4.46,4.953,6.73,14.037,3.254,17.502c-1.265,1.262,2.746,4.362-1.44,3.819
				C2506.809,3252.851,2484.398,3238.589,2486.443,3232.419z"/>
			
				<linearGradient id="SVGID_00000000934177123967905770000014363871670311637128_" gradientUnits="userSpaceOnUse" x1="4886.728" y1="2947.1704" x2="4886.728" y2="2875.647" gradientTransform="matrix(0.9813 0.1926 -0.1926 0.9813 -1708.8574 -582.0115)">
				<stop  offset="0" style="stop-color:#FFC444"/>
				<stop  offset="0.9964" style="stop-color:#F36F56"/>
			</linearGradient>
			<path style="fill:url(#SVGID_00000000934177123967905770000014363871670311637128_);" d="M2511.727,3238.4l21.184,4.157
				c-5.444-14.512,8.744-49.78,8.744-49.78l-23.14-2.664c0,0-0.972,10.696-1.852,26.664
				C2516.361,3222.244,2514.296,3230.245,2511.727,3238.4z"/>
			
				<linearGradient id="SVGID_00000020384894360876192460000016665493943508527759_" gradientUnits="userSpaceOnUse" x1="5090.8208" y1="3207.7715" x2="5131.877" y2="3244.291" gradientTransform="matrix(1 0 0 1 -2609.0793 0)">
				<stop  offset="0" style="stop-color:#444B8C"/>
				<stop  offset="0.9964" style="stop-color:#26264F"/>
			</linearGradient>
			<path style="fill:url(#SVGID_00000020384894360876192460000016665493943508527759_);" d="M2506.177,3234.915
				c0,0,26.313-2.269,28.354,3.176c2.042,5.443,2.269,19.28-13.837,16.558C2504.589,3251.928,2504.135,3238.998,2506.177,3234.915z"
				/>
			
				<linearGradient id="SVGID_00000036214837353577438950000002114889296929439363_" gradientUnits="userSpaceOnUse" x1="2700.8008" y1="2817.218" x2="2870.4478" y2="2817.218">
				<stop  offset="0" style="stop-color:#311944"/>
				<stop  offset="1" style="stop-color:#6B3976"/>
			</linearGradient>
			<path style="fill:url(#SVGID_00000036214837353577438950000002114889296929439363_);" d="M2700.801,2492.757
				c5.771,98.651,13.849,201.236,24.731,307.401c12.607,122.991,27.923,240.509,45.097,352.198c21.17,7.26,40.734,0,40.734,0
				s24.752-40.542,43.643-148.294c12.12-69.138,12.957-68.266,13.093-80.326c0.685-60.847-20.661-78.462-24.731-132.847
				c-3.765-50.317,12.251-65.387,21.821-122.033c7.359-43.559,10.118-107.037-13.093-190.001
				C2801.665,2483.488,2751.233,2488.123,2700.801,2492.757z"/>
			
				<linearGradient id="SVGID_00000003098401054700522600000016172796440201686177_" gradientUnits="userSpaceOnUse" x1="2700.8008" y1="2817.218" x2="2856.6301" y2="2817.218">
				<stop  offset="0" style="stop-color:#311944"/>
				<stop  offset="1" style="stop-color:#6B3976"/>
			</linearGradient>
			<path style="opacity:0.3;fill:url(#SVGID_00000003098401054700522600000016172796440201686177_);" d="M2700.801,2492.757
				c5.77,98.65,13.849,201.236,24.731,307.4c12.607,122.991,27.923,240.509,45.097,352.198c21.17,7.26,40.733,0,40.733,0
				c-0.268-10.339-0.99-25.916-3.149-44.734c-5.727-49.913-14.854-64.115-15.79-94.744c-1.198-39.172,12.985-40.377,15.79-78.953
				c4.35-59.792-28.482-73.971-31.581-126.325c-3.275-55.318,31.362-73.521,57.898-142.115
				c15.665-40.492,29.568-101.286,17.565-186.631C2801.665,2483.488,2751.233,2488.123,2700.801,2492.757z"/>
			
				<linearGradient id="SVGID_00000088849493281379450200000011435233509204914342_" gradientUnits="userSpaceOnUse" x1="3014.6279" y1="2933.3281" x2="2547.9299" y2="2849.1121">
				<stop  offset="0" style="stop-color:#311944"/>
				<stop  offset="0.7407" style="stop-color:#5C3169"/>
				<stop  offset="1" style="stop-color:#6B3976"/>
			</linearGradient>
			<path style="fill:url(#SVGID_00000088849493281379450200000011435233509204914342_);" d="M2594.604,2489.667
				c-28.986,97.643-57.078,218.927-72.738,359.921c-15.198,136.837-14.922,258.358-8.729,358.377
				c9.214,2.574,18.427,5.149,27.64,7.723c53.575-56.054,72.703-107.575,80.012-145.204c10.812-55.663-5.479-74.537,8.728-137.481
				c3.269-14.479,7.867-30.031,61.099-134.39c50.807-99.603,61.224-114.07,69.828-149.838c12.283-51.058,9.042-96.337,4.365-126.668
				C2708.075,2511.294,2651.34,2500.48,2594.604,2489.667z"/>
			<g>
				<path style="fill:#26264F;" d="M2366.147,2278.625l-90.913-212.962c-4.542-10.64,1.557-22.812,12.799-25.543l166.534-40.444
					c9-2.185,18.246,2.539,21.748,11.113l83.621,204.683c4.164,10.193-1.324,21.761-11.853,24.982l-159.24,48.723
					C2379.692,2291.977,2369.904,2287.426,2366.147,2278.625z"/>
				
					<linearGradient id="SVGID_00000120549365005673895760000012278099225284811693_" gradientUnits="userSpaceOnUse" x1="2334.4236" y1="1711.7617" x2="2641.562" y2="3278.1709">
					<stop  offset="0" style="stop-color:#FFC444"/>
					<stop  offset="0.9964" style="stop-color:#F36F56"/>
				</linearGradient>
				<path style="fill:url(#SVGID_00000120549365005673895760000012278099225284811693_);" d="M2370.262,2268.383l-84.92-198.923
					c-4.242-9.938,1.455-21.308,11.956-23.858l155.554-37.777c8.406-2.042,17.042,2.37,20.314,10.379l78.108,191.189
					c3.889,9.521-1.236,20.325-11.072,23.335l-148.742,45.511C2382.914,2280.854,2373.771,2276.603,2370.262,2268.383z"/>
			</g>
			
				<linearGradient id="SVGID_00000013166392231086462740000007171077065380375210_" gradientUnits="userSpaceOnUse" x1="2302.7078" y1="2141.0315" x2="2460.5381" y2="2394.5679">
				<stop  offset="0" style="stop-color:#FFC444"/>
				<stop  offset="0.9964" style="stop-color:#F36F56"/>
			</linearGradient>
			<path style="fill:url(#SVGID_00000013166392231086462740000007171077065380375210_);" d="M2317.836,2209.906l-2.728-25.094
				l-14.459-27.563c-1.97-3.754-2.998-7.929-2.998-12.168v-27.371l17.457,40.37c0,0,11.457-10.366,15.821-12.548
				c4.364-2.182,3.818,6.546,0.545,9.82c-3.273,3.273,1.636,30.004-1.636,32.732l1.091,16.366L2317.836,2209.906z"/>
			
				<linearGradient id="SVGID_00000017510114039670661770000017416501546680839074_" gradientUnits="userSpaceOnUse" x1="2450.1257" y1="2276.3879" x2="2923.4534" y2="2276.3879">
				<stop  offset="0" style="stop-color:#FF9085"/>
				<stop  offset="1" style="stop-color:#FB6FBB"/>
			</linearGradient>
			<path style="fill:url(#SVGID_00000017510114039670661770000017416501546680839074_);" d="M2456.402,2050.064
				c13.576-33.198,42.716-52.29,57.826-62.191c35.753-23.425,58.643-19.149,140.748-31.641
				c109.423-16.649,122.52-32.425,159.296-19.639c48.308,16.794,73.541,60.645,85.103,80.739
				c58.294,101.306-9.861,152.797,7.638,354.597c7.146,82.416,25.469,154.035-18.549,196.392
				c-9.268,8.918-19.635,13.583-40.369,22.912c-82.23,37-155.956,30.621-200.757,26.186c-49.297-4.881-74.214-7.677-87.285-25.095
				c-20.88-27.822,0.614-63.184,4.365-124.381c2.693-43.937-7.297-78.754-27.277-148.385
				C2490.693,2157.679,2430.392,2113.667,2456.402,2050.064z"/>
			<g>
				<g>
					
						<linearGradient id="SVGID_00000100354653156402141060000014729334564940159876_" gradientUnits="userSpaceOnUse" x1="5920.6475" y1="1311.1211" x2="6101.6895" y2="1538.895" gradientTransform="matrix(0.9663 0.2576 -0.2576 0.9663 -2744.3408 -923.8408)">
						<stop  offset="0" style="stop-color:#FFC444"/>
						<stop  offset="0.9964" style="stop-color:#F36F56"/>
					</linearGradient>
					<path style="fill:url(#SVGID_00000100354653156402141060000014729334564940159876_);" d="M2639.558,1896.517
						c-4.982-17.748,3.727-34.184,5.647-37.725c8.037-14.827,10.096-16.852,13.93-19.42l5.331-3.288c0,0,0.309-0.124,0.634-0.24
						c3.421-1.218,15.08-1.572,17.441-1.067c7.545,1.61,15.578,32.349,13.286,75.806c0.313,1.656,0.615,3.327,0.906,5.01
						c1.188,6.864,2.132,13.59,2.862,20.167c0.698,6.291,9.619,6.147,15.936,5.744c25.64-1.637,38.187,0.545,39.279,4.364
						c2.044,7.156-28.368,30.551-65.921,35.813c-50.398,0.375-91.396-4.991-86.99-12.927c1.957-3.523,41.006-13.727,51.988-23.84
						c10.055-9.261,9.236-18.821,10.063-25.666C2660.902,1917.665,2643.224,1909.592,2639.558,1896.517z"/>
					
						<linearGradient id="SVGID_00000110455041731515321100000014008191212785518241_" gradientUnits="userSpaceOnUse" x1="2718.8281" y1="2082.0728" x2="2693.604" y2="1850.4691">
						<stop  offset="0" style="stop-color:#311944"/>
						<stop  offset="1" style="stop-color:#6B3976"/>
					</linearGradient>
					<path style="fill:url(#SVGID_00000110455041731515321100000014008191212785518241_);" d="M2648.827,1823.739
						c0.045,13.463,6.388,27.842,9.621,30.152c0.417,0.298,2.766,2.154,4.876,5.326c0.288,0.432,0.541,0.937,0.767,1.591
						c2.949,8.484-10.54,18.468-7.937,22.267c1.889,2.756,11.057-0.93,12.147,1.451c1.027,2.239-6.593,6.877-5.425,9.559
						c0.88,2.025,5.569,0.173,8.526,3.275c1.474,1.545,1.042,2.769,2.604,7.493c0.883,2.671,2.118,5.594,3.076,7.22
						c4.653,7.905,17.831,10.792,20.367,7.629c0.706-0.882,0.099-1.623,0.821-4.582c0,0,0.668-2.742,2.576-5.912
						c2.726-4.53,9.306-7.769,15.946-12.55c12.295-8.854,15.638-16.403,16.64-18.952c0.357-0.908,0.578-1.594,0.739-2.088
						c3.197-9.923,3.212-24.499-1.25-33.464c-7.473-15.016-24.333-7.886-38.132-22.765c-15.922-17.166-6.439-40.63-15.08-43.221
						C2670.186,1773.312,2648.745,1798.845,2648.827,1823.739z"/>
					
						<linearGradient id="SVGID_00000144321173072609691730000002203383537104769158_" gradientUnits="userSpaceOnUse" x1="5898.1445" y1="1260.4427" x2="6100.2837" y2="1514.7599" gradientTransform="matrix(0.9663 0.2576 -0.2576 0.9663 -2744.3408 -923.8408)">
						<stop  offset="0" style="stop-color:#FFC444"/>
						<stop  offset="0.9964" style="stop-color:#F36F56"/>
					</linearGradient>
					<path style="fill:url(#SVGID_00000144321173072609691730000002203383537104769158_);" d="M2660.994,1879.911
						c3.3-4.534,9.098-0.273,9.132,5.593c0.035,5.865-5.65,11.965-11.164,10.807
						C2653.447,1895.152,2656.553,1886.015,2660.994,1879.911z"/>
				</g>
			</g>
			
				<linearGradient id="SVGID_00000167390490781286198880000013625627854877178547_" gradientUnits="userSpaceOnUse" x1="2440.0029" y1="2235.5806" x2="2730.2273" y2="2512.7117">
				<stop  offset="0" style="stop-color:#FF9085"/>
				<stop  offset="1" style="stop-color:#FB6FBB"/>
			</linearGradient>
			<path style="opacity:0.3;fill:url(#SVGID_00000167390490781286198880000013625627854877178547_);" d="M2689.89,2559.593
				c-14.503-28.878,21.036-67.265-2.182-111.289c-19.719-37.39-55.54-29.013-72.01-63.282
				c-19.893-41.39,23.371-72.324,21.821-135.293c-1.852-75.276-66.623-150.629-104.742-144.02
				c-24.663,4.275-27.832,41.069-45.185,81.35c15.355,33.67,33.295,75.853,49.548,132.499
				c19.98,69.632,29.969,104.448,27.277,148.385c-3.75,61.198-25.244,96.559-4.365,124.381
				c13.072,17.418,37.988,20.213,87.285,25.095c44.801,4.436,118.527,10.814,200.757-26.186c10.408-4.684,18.2-8.191,24.556-11.652
				C2744.183,2598.875,2701.394,2582.499,2689.89,2559.593z"/>
			
				<linearGradient id="SVGID_00000132054568684321929660000014189817109031950749_" gradientUnits="userSpaceOnUse" x1="2312.4551" y1="2164.2844" x2="2571.1792" y2="2164.2844">
				<stop  offset="0" style="stop-color:#FF9085"/>
				<stop  offset="1" style="stop-color:#FB6FBB"/>
			</linearGradient>
			<path style="fill:url(#SVGID_00000132054568684321929660000014189817109031950749_);" d="M2312.927,2204.996
				c8.001-3.455,16.002-6.91,24.003-10.365c13.523,13.83,30.771,27.278,45.28,22.911c21.627-6.508,16.219-46.294,42.551-116.198
				c29.836-79.205,63.687-99.563,80.74-106.924c9.524-4.112,16.1-6.842,24.003-4.91c36.368,8.89,48.391,103.66,38.188,174.571
				c-5.75,39.953-17.023,118.292-81.285,155.478c-9.129,5.282-59.378,34.359-109.107,11.456
				C2334.816,2311.448,2308.564,2261.249,2312.927,2204.996z"/>
		</g>
		<g>
			
				<linearGradient id="SVGID_00000024700993626618127910000015268306892685450680_" gradientUnits="userSpaceOnUse" x1="2109.3853" y1="2257.8562" x2="1658.7719" y2="3664.0845">
				<stop  offset="0" style="stop-color:#311944"/>
				<stop  offset="1" style="stop-color:#893976"/>
			</linearGradient>
			<path style="fill:url(#SVGID_00000024700993626618127910000015268306892685450680_);" d="M2404.696,2536.548l-951.743,8.097
				c-16.706,0.142-30.732,14.509-30.732,32.089v35.39v18.869v510.658c0,17.581,14.103,30.998,30.809,29.974l13.807-0.847
				l16.387-34.146l932.081-57.166c14.1-0.865,14.738,19.199,14.738,3.106v-467.438v-17.272v-32.395
				C2430.044,2549.376,2418.796,2536.428,2404.696,2536.548z"/>
			<g>
				<g>
					<path style="fill:#FFFFFF;" d="M2443.802,2597.856v484.718c0,14.859-9.373,27.689-21.962,30.269
						c-1.066,0.241-1.969,0.378-3.07,0.447l-951.881,58.337c-16.716,1.032-30.91-12.383-30.91-29.959V2612.13L2443.802,2597.856z"/>
					
						<linearGradient id="SVGID_00000034805061867545094490000011414440752288399261_" gradientUnits="userSpaceOnUse" x1="2023.8013" y1="2455.7244" x2="1573.4325" y2="3191.9795">
						<stop  offset="0" style="stop-color:#FF9085"/>
						<stop  offset="1" style="stop-color:#FB6FBB"/>
					</linearGradient>
					<path style="fill:url(#SVGID_00000034805061867545094490000011414440752288399261_);" d="M2418.946,2536.548l-951.296,8.097
						c-16.708,0.142-30.287,14.509-30.287,32.089v54.26l1007.084-15.859v-49.667
						C2444.448,2549.376,2433.045,2536.428,2418.946,2536.548z"/>
					<path style="fill:#FFFFFF;" d="M1506.724,2586.521c0,7.77-5.977,14.149-13.357,14.247c-7.39,0.098-13.388-6.136-13.388-13.924
						c0-7.788,5.998-14.166,13.388-14.247C1500.747,2572.517,1506.724,2578.751,1506.724,2586.521z"/>
				</g>
				<g>
					
						<linearGradient id="SVGID_00000049206078672406587640000013485637309528112551_" gradientUnits="userSpaceOnUse" x1="1569.1936" y1="2899.241" x2="1644.618" y2="2899.241">
						<stop  offset="0" style="stop-color:#FF9085"/>
						<stop  offset="1" style="stop-color:#FB6FBB"/>
					</linearGradient>
					<polygon style="opacity:0.2;fill:url(#SVGID_00000049206078672406587640000013485637309528112551_);" points="
						1644.618,3092.403 1569.194,3096.589 1569.194,2703.559 1644.618,2701.893 					"/>
					
						<linearGradient id="SVGID_00000099650009798914845760000009338326860685626038_" gradientUnits="userSpaceOnUse" x1="1649.8345" y1="2867.228" x2="1547.7196" y2="3185.8975">
						<stop  offset="0" style="stop-color:#FF9085"/>
						<stop  offset="1" style="stop-color:#FB6FBB"/>
					</linearGradient>
					<polygon style="fill:url(#SVGID_00000099650009798914845760000009338326860685626038_);" points="1644.618,3092.403 
						1569.194,3096.589 1569.194,2909.987 1644.618,2906.998 					"/>
					
						<linearGradient id="SVGID_00000061433858062300540570000007569238836615712702_" gradientUnits="userSpaceOnUse" x1="1673.8698" y1="2895.1951" x2="1747.9624" y2="2895.1951">
						<stop  offset="0" style="stop-color:#FF9085"/>
						<stop  offset="1" style="stop-color:#FB6FBB"/>
					</linearGradient>
					<polygon style="opacity:0.2;fill:url(#SVGID_00000061433858062300540570000007569238836615712702_);" points="
						1747.962,3086.668 1673.87,3090.78 1673.87,2701.247 1747.962,2699.61 					"/>
					
						<linearGradient id="SVGID_00000055681629758053183390000009644510141832656036_" gradientUnits="userSpaceOnUse" x1="1734.9744" y1="2967.4102" x2="1677.7751" y2="3145.9119">
						<stop  offset="0" style="stop-color:#FF9085"/>
						<stop  offset="1" style="stop-color:#FB6FBB"/>
					</linearGradient>
					<polygon style="fill:url(#SVGID_00000055681629758053183390000009644510141832656036_);" points="1747.962,3086.668 
						1673.87,3090.78 1673.87,2998.309 1747.962,2994.785 					"/>
					
						<linearGradient id="SVGID_00000133522081714047799010000007829489143990696884_" gradientUnits="userSpaceOnUse" x1="1776.6995" y1="2891.2207" x2="1849.4954" y2="2891.2207">
						<stop  offset="0" style="stop-color:#FF9085"/>
						<stop  offset="1" style="stop-color:#FB6FBB"/>
					</linearGradient>
					<polygon style="opacity:0.2;fill:url(#SVGID_00000133522081714047799010000007829489143990696884_);" points="
						1849.495,3081.034 1776.699,3085.074 1776.699,2698.975 1849.495,2697.367 					"/>
					
						<linearGradient id="SVGID_00000144337077238729388250000017519133771743121553_" gradientUnits="userSpaceOnUse" x1="1828.2133" y1="3011.8228" x2="1792.2979" y2="3123.9041">
						<stop  offset="0" style="stop-color:#FF9085"/>
						<stop  offset="1" style="stop-color:#FB6FBB"/>
					</linearGradient>
					<polygon style="fill:url(#SVGID_00000144337077238729388250000017519133771743121553_);" points="1849.495,3081.034 
						1776.699,3085.074 1776.699,3036.955 1849.495,3033.218 					"/>
					
						<linearGradient id="SVGID_00000023977464811054822340000016235486980431975815_" gradientUnits="userSpaceOnUse" x1="1877.7323" y1="2887.3152" x2="1949.2651" y2="2887.3152">
						<stop  offset="0" style="stop-color:#FF9085"/>
						<stop  offset="1" style="stop-color:#FB6FBB"/>
					</linearGradient>
					<polygon style="opacity:0.2;fill:url(#SVGID_00000023977464811054822340000016235486980431975815_);" points="
						1949.265,3075.498 1877.732,3079.467 1877.732,2696.743 1949.265,2695.163 					"/>
					
						<linearGradient id="SVGID_00000152235720283051963740000013174720604931801245_" gradientUnits="userSpaceOnUse" x1="1978.7271" y1="2724.0149" x2="1823.5487" y2="3208.2795">
						<stop  offset="0" style="stop-color:#FF9085"/>
						<stop  offset="1" style="stop-color:#FB6FBB"/>
					</linearGradient>
					<polygon style="fill:url(#SVGID_00000152235720283051963740000013174720604931801245_);" points="1949.265,3075.498 
						1877.732,3079.467 1877.732,2779.648 1949.265,2777.55 					"/>
					
						<linearGradient id="SVGID_00000160178057211017114910000010833795554595100037_" gradientUnits="userSpaceOnUse" x1="1977.0138" y1="2883.4778" x2="2047.3164" y2="2883.4778">
						<stop  offset="0" style="stop-color:#FF9085"/>
						<stop  offset="1" style="stop-color:#FB6FBB"/>
					</linearGradient>
					<polygon style="opacity:0.2;fill:url(#SVGID_00000160178057211017114910000010833795554595100037_);" points="
						2047.316,3070.057 1977.014,3073.958 1977.014,2694.55 2047.316,2692.997 					"/>
					
						<linearGradient id="SVGID_00000054960835232240039230000015715509059231642756_" gradientUnits="userSpaceOnUse" x1="2070.0498" y1="2759.644" x2="1932.3528" y2="3189.3545">
						<stop  offset="0" style="stop-color:#FF9085"/>
						<stop  offset="1" style="stop-color:#FB6FBB"/>
					</linearGradient>
					<polygon style="fill:url(#SVGID_00000054960835232240039230000015715509059231642756_);" points="2047.316,3070.057 
						1977.014,3073.958 1977.014,2810.512 2047.316,2808.241 					"/>
					
						<linearGradient id="SVGID_00000070822689453939485610000010388284252463584421_" gradientUnits="userSpaceOnUse" x1="2074.5901" y1="2879.7061" x2="2143.6936" y2="2879.7061">
						<stop  offset="0" style="stop-color:#FF9085"/>
						<stop  offset="1" style="stop-color:#FB6FBB"/>
					</linearGradient>
					<polygon style="opacity:0.2;fill:url(#SVGID_00000070822689453939485610000010388284252463584421_);" points="
						2143.694,3064.709 2074.59,3068.543 2074.59,2692.395 2143.694,2690.868 					"/>
					
						<linearGradient id="SVGID_00000070807437031033435740000005945938488635782299_" gradientUnits="userSpaceOnUse" x1="2178.5139" y1="2689.4084" x2="2013.4839" y2="3204.4175">
						<stop  offset="0" style="stop-color:#FF9085"/>
						<stop  offset="1" style="stop-color:#FB6FBB"/>
					</linearGradient>
					<polygon style="fill:url(#SVGID_00000070807437031033435740000005945938488635782299_);" points="2143.694,3064.709 
						2074.59,3068.543 2074.59,2747.087 2143.694,2745.225 					"/>
					
						<linearGradient id="SVGID_00000088840589677687002670000017755456913007177093_" gradientUnits="userSpaceOnUse" x1="2170.5039" y1="2875.9983" x2="2238.4392" y2="2875.9983">
						<stop  offset="0" style="stop-color:#FF9085"/>
						<stop  offset="1" style="stop-color:#FB6FBB"/>
					</linearGradient>
					<polygon style="opacity:0.2;fill:url(#SVGID_00000088840589677687002670000017755456913007177093_);" points="
						2238.439,3059.452 2170.504,3063.221 2170.504,2690.276 2238.439,2688.775 					"/>
					
						<linearGradient id="SVGID_00000092417073304834756310000005404150632691156096_" gradientUnits="userSpaceOnUse" x1="2255.3291" y1="2788.0859" x2="2134.3616" y2="3165.5886">
						<stop  offset="0" style="stop-color:#FF9085"/>
						<stop  offset="1" style="stop-color:#FB6FBB"/>
					</linearGradient>
					<polygon style="fill:url(#SVGID_00000092417073304834756310000005404150632691156096_);" points="2238.439,3059.452 
						2170.504,3063.221 2170.504,2834.142 2238.439,2831.766 					"/>
					
						<linearGradient id="SVGID_00000172425056367698508060000014619329335454345870_" gradientUnits="userSpaceOnUse" x1="2264.7981" y1="2872.353" x2="2331.5938" y2="2872.353">
						<stop  offset="0" style="stop-color:#FF9085"/>
						<stop  offset="1" style="stop-color:#FB6FBB"/>
					</linearGradient>
					<polygon style="opacity:0.2;fill:url(#SVGID_00000172425056367698508060000014619329335454345870_);" points="
						2331.594,3054.282 2264.798,3057.989 2264.798,2688.193 2331.594,2686.718 					"/>
					
						<linearGradient id="SVGID_00000034805057846942815780000000979078791079122327_" gradientUnits="userSpaceOnUse" x1="2328.8782" y1="2896.1924" x2="2255.9216" y2="3123.8677">
						<stop  offset="0" style="stop-color:#FF9085"/>
						<stop  offset="1" style="stop-color:#FB6FBB"/>
					</linearGradient>
					<polygon style="fill:url(#SVGID_00000034805057846942815780000000979078791079122327_);" points="2331.594,3054.282 
						2264.798,3057.989 2264.798,2929.603 2331.594,2926.671 					"/>
				</g>
			</g>
			<path style="opacity:0.4;fill:#D8DEE8;" d="M2422.167,3112.843c-1.066,0.241-2.133,0.378-3.233,0.447l-951.962,58.337
				c-16.716,1.032-30.991-12.383-30.991-29.959v-503.189c10.319,27.518,36.529,78.493,132.531,87.505
				c16.545,1.582,35.463,1.892,56.307,0.619c6.57-0.413,13.242-0.654,19.641-0.757c9.975-0.206,19.795-0.069,29.323,0.413
				c26.382,1.273,51.191,4.988,74.134,10.801c9.939,2.511,19.558,5.435,28.777,8.737c27.38,9.734,51.777,22.702,72.793,38.283
				c10.217,7.567,19.648,15.754,28.247,24.456c37.732,38.146,59.715,86.576,63.155,138.962c0.584,8.84,3.475,16.27,8.394,22.495
				c6.226,7.911,15.686,13.896,27.725,18.505c18.298,7.017,42.514,10.766,70.307,13.037c8.772,0.722,17.887,1.273,27.277,1.754
				c21.84,1.101,45.196,1.72,69.102,2.511c8.875,0.31,17.852,0.619,26.829,1.032c22.737,0.998,45.645,2.408,67.933,4.816
				c8.91,0.963,17.68,2.064,26.348,3.405c23.733,3.612,46.333,8.668,66.798,15.995
				C2374.183,3046.319,2407.479,3071.257,2422.167,3112.843z"/>
		</g>
	</g>
</g>
</svg>
