<svg width="500" height="500" viewBox="0 0 500 500" fill="none" xmlns="http://www.w3.org/2000/svg">
<path d="M128.992 192.486C130.442 191.61 131.985 190.946 133.577 190.493L134.522 185.954L142.191 185.819L143.295 190.321C144.902 190.717 146.468 191.327 147.948 192.151L151.824 189.611L157.342 194.938L154.94 198.9C155.816 200.35 156.481 201.894 156.933 203.487L161.471 204.431L161.606 212.099L157.104 213.203C156.708 214.81 156.098 216.376 155.274 217.855L157.814 221.731L152.487 227.249L148.525 224.847C147.075 225.723 145.531 226.387 143.939 226.84L142.994 231.379L135.326 231.514L134.222 227.011C132.615 226.615 131.049 226.005 129.569 225.181L125.693 227.721L120.175 222.394L122.577 218.432C121.701 216.982 121.036 215.438 120.584 213.846L116.046 212.901L115.911 205.233L120.414 204.129C120.81 202.522 121.42 200.956 122.244 199.477L119.704 195.601L125.031 190.083L128.992 192.486ZM133.08 202.702C129.924 205.971 130.015 211.18 133.285 214.336C136.554 217.492 141.763 217.4 144.919 214.131C148.075 210.862 147.984 205.653 144.715 202.497C141.444 199.341 136.236 199.433 133.08 202.702Z" fill="#E0E0E0"/>
<path d="M61.6411 267.053H46.3181V314.911H61.6411V267.053Z" fill="#F5F5F5"/>
<path d="M84.519 277.985H69.196V314.911H84.519V277.985Z" fill="#F5F5F5"/>
<path d="M105.701 292.982H90.3782V314.911H105.701V292.982Z" fill="#F5F5F5"/>
<path d="M437.279 402.171C437.279 387.596 425.463 375.78 410.888 375.78C396.313 375.78 384.497 387.596 384.497 402.171C384.497 412.724 390.693 421.826 399.643 426.048C399.643 429.175 399.643 432.706 399.643 432.706H422.774C422.774 432.706 422.914 428.969 422.965 425.634C431.464 421.251 437.279 412.393 437.279 402.171Z" fill="#F5F5F5"/>
<path d="M420.994 436.989H401.134C400.311 436.989 399.644 436.322 399.644 435.499C399.644 434.676 400.311 434.009 401.135 434.008H420.995C421.818 434.008 422.486 434.675 422.486 435.498C422.484 436.322 421.817 436.989 420.994 436.989Z" fill="#E0E0E0"/>
<path d="M420.994 438.29H401.134C400.311 438.29 399.643 438.957 399.643 439.78C399.643 440.603 400.31 441.271 401.134 441.27H403.314L406.206 446.775C406.537 447.404 407.189 447.799 407.901 447.799H414.998C415.716 447.799 416.374 447.397 416.702 446.757L419.512 441.27H420.994C421.817 441.27 422.485 440.603 422.485 439.78C422.484 438.958 421.817 438.29 420.994 438.29Z" fill="#E0E0E0"/>
<path d="M416.332 447.229C416.308 447.278 415.809 447.05 414.968 446.809C414.128 446.566 412.931 446.349 411.599 446.384C410.267 446.425 409.084 446.711 408.26 447.003C407.434 447.292 406.949 447.549 406.922 447.501C406.904 447.472 407.352 447.141 408.178 446.789C408.999 446.435 410.215 446.103 411.59 446.06C412.965 446.023 414.197 446.285 415.038 446.59C415.881 446.894 416.348 447.198 416.332 447.229Z" fill="#FAFAFA"/>
<path d="M419.554 441.339C419.554 441.429 415.964 441.501 411.536 441.501C407.107 441.501 403.517 441.428 403.517 441.339C403.517 441.249 407.107 441.177 411.536 441.177C415.964 441.177 419.554 441.249 419.554 441.339Z" fill="#FAFAFA"/>
<path d="M418.311 443.694C418.313 443.738 417.566 443.817 416.355 443.893C415.144 443.969 413.47 444.039 411.619 444.065C409.768 444.091 408.091 444.069 406.879 444.027C405.667 443.985 404.918 443.927 404.919 443.883C404.92 443.838 405.67 443.814 406.882 443.798C408.191 443.782 409.817 443.763 411.615 443.741C413.413 443.712 415.038 443.686 416.347 443.664C417.559 443.647 418.309 443.649 418.311 443.694Z" fill="#FAFAFA"/>
<path d="M433.232 394.228C433.267 394.216 433.476 394.683 433.757 395.565C434.04 396.445 434.358 397.754 434.558 399.402C434.976 402.672 434.711 407.436 432.592 412.094C430.469 416.752 427.049 420.08 424.307 421.91C422.932 422.841 421.737 423.459 420.887 423.824C420.037 424.191 419.548 424.34 419.534 424.306C419.479 424.192 421.409 423.47 424.05 421.547C426.678 419.655 429.953 416.364 432.019 411.833C434.08 407.302 434.414 402.672 434.116 399.447C433.832 396.192 433.11 394.262 433.232 394.228Z" fill="white"/>
<path d="M416.067 381.392C415.539 379.578 413.451 378.35 410.899 378.344C410.887 378.344 410.874 378.345 410.862 378.346C406.632 378.754 402.513 379.951 398.868 382.085C393.852 385.021 390.276 389.984 388.991 395.652C388.753 396.7 388.625 397.796 388.881 398.837C389.148 399.925 389.906 400.947 390.98 401.27C392.01 401.58 393.152 401.198 393.988 400.522C394.824 399.846 395.405 398.91 395.927 397.97C397.121 395.821 398.101 393.544 399.525 391.539C401.158 389.239 403.025 387.753 405.317 387.251C406.901 386.904 408.338 386.869 409.922 386.526C411.897 386.098 413.162 386.143 414.536 385.282C415.537 384.654 416.411 382.575 416.067 381.392Z" fill="white"/>
<path d="M394.266 407.164C394.266 408.843 392.905 410.204 391.226 410.204C389.547 410.204 388.186 408.843 388.186 407.164C388.186 405.485 389.547 404.124 391.226 404.124C392.904 404.124 394.266 405.485 394.266 407.164Z" fill="white"/>
<path d="M419.07 432.794C419.07 432.794 418.999 432.438 418.907 431.756C418.81 431 418.684 430.007 418.525 428.768C418.203 426.088 417.754 422.351 417.204 417.769C416.956 415.434 416.574 412.931 416.371 410.143C416.372 409.441 416.563 408.647 417.121 408.091C417.634 407.504 418.661 407.319 419.335 407.841C419.998 408.328 420.342 409.096 420.467 409.876C420.555 410.669 420.453 411.471 420.169 412.225C419.602 413.73 418.383 414.995 416.855 415.68C415.333 416.395 413.432 416.352 411.891 415.523C410.339 414.723 409.125 413.276 408.538 411.583C408.251 410.731 408.111 409.824 408.221 408.895C408.29 408.436 408.429 407.971 408.718 407.565C408.999 407.157 409.491 406.856 410.013 406.845C410.544 406.817 411.03 407.094 411.363 407.427C411.71 407.763 411.962 408.165 412.15 408.587C412.534 409.447 412.61 410.355 412.642 411.241C412.668 413.01 412.105 414.851 410.805 416.068C409.559 417.28 407.642 417.855 406.017 417.23C404.408 416.624 403.287 415.307 402.501 413.961C402.107 413.277 401.8 412.555 401.582 411.817C401.384 411.095 401.167 410.315 401.339 409.529C401.421 409.15 401.561 408.758 401.882 408.464C402.204 408.153 402.734 408.12 403.102 408.334C403.836 408.816 403.955 409.623 404.151 410.254C404.923 412.908 405.349 415.458 405.553 417.795C405.972 422.481 405.481 426.291 404.987 428.856C404.471 431.428 403.966 432.791 403.966 432.791C403.966 432.791 404.032 432.434 404.199 431.766C404.363 431.098 404.59 430.109 404.816 428.824C405.256 426.26 405.695 422.469 405.238 417.824C405.015 415.506 404.575 412.982 403.795 410.358C403.612 409.713 403.429 408.982 402.917 408.669C402.667 408.535 402.346 408.551 402.141 408.754C401.923 408.95 401.791 409.277 401.726 409.607C401.576 410.274 401.77 410.987 401.969 411.702C402.181 412.408 402.479 413.1 402.858 413.754C403.615 415.047 404.7 416.285 406.162 416.826C407.618 417.384 409.348 416.87 410.503 415.749C411.689 414.638 412.223 412.925 412.196 411.245C412.167 410.406 412.085 409.524 411.741 408.769C411.416 408.029 410.791 407.269 410.028 407.29C409.231 407.3 408.76 408.15 408.662 408.956C408.564 409.779 408.69 410.647 408.958 411.436C409.504 413.02 410.648 414.386 412.092 415.132C413.529 415.903 415.257 415.947 416.679 415.288C418.35 415.641 419.326 413.758 419.78 412.078C420.046 411.387 420.139 410.636 420.065 409.933C419.963 409.24 419.638 408.548 419.107 408.162C418.577 407.761 417.832 407.882 417.391 408.359C416.922 408.82 416.747 409.489 416.74 410.148C416.923 412.841 417.289 415.416 417.516 417.732C418.007 422.321 418.408 426.063 418.695 428.747C418.819 429.99 418.918 430.987 418.993 431.745C419.06 432.431 419.07 432.794 419.07 432.794Z" fill="#E0E0E0"/>
<path d="M423 66.9422L434.668 68.0782C434.668 68.0782 435.622 58.2812 445.82 59.0972C451.116 59.5212 453.521 63.2512 454.376 66.0132C455.369 69.2202 454.636 72.6942 452.625 75.3822C450.328 78.4522 445.671 81.3232 437.943 79.1722L435.414 105.152L446.951 106.275L448.451 90.8652C448.451 90.8652 465.04 88.2572 466.775 70.4252C468.436 53.3632 452.921 47.8532 444.955 47.0772C439.947 46.5902 424.784 46.3362 423 66.9422Z" fill="#F5F5F5"/>
<path d="M434.86 110.57L433.795 121.505L445.504 122.645L446.569 111.71L434.86 110.57Z" fill="#F5F5F5"/>
<path d="M418.347 66.4891L430.015 67.6251C430.015 67.6251 430.969 57.8281 441.167 58.6441C446.463 59.0681 448.868 62.7981 449.723 65.5601C450.716 68.7671 449.983 72.2401 447.972 74.9291C445.675 77.9991 441.05 80.5431 433.321 78.3921L430.76 104.7L442.297 105.823L443.797 90.4131C443.797 90.4131 460.386 87.8051 462.121 69.9731C463.782 52.9111 448.867 47.4591 442.318 46.8211C437.31 46.3341 420.13 45.8831 418.347 66.4891Z" fill="#EBEBEB"/>
<path d="M430.202 110.115L429.138 121.051L440.846 122.191L441.911 111.255L430.202 110.115Z" fill="#EBEBEB"/>
<path d="M248.06 38.8468C249.548 38.0368 251.12 37.4438 252.731 37.0638L253.88 32.5728L261.547 32.7858L262.445 37.3338C264.032 37.8018 265.569 38.4818 267.01 39.3728L270.997 37.0108L276.268 42.5828L273.689 46.4318C274.499 47.9198 275.093 49.4928 275.472 51.1038L279.963 52.2528L279.75 59.9198L275.202 60.8188C274.734 62.4058 274.054 63.9428 273.163 65.3838L275.525 69.3708L269.954 74.6418L266.105 72.0628C264.617 72.8728 263.044 73.4658 261.433 73.8458L260.284 78.3368L252.618 78.1238L251.719 73.5757C250.132 73.1067 248.595 72.4268 247.154 71.5368L243.167 73.8988L237.896 68.3268L240.475 64.4777C239.665 62.9897 239.071 61.4178 238.692 59.8058L234.201 58.6568L234.414 50.9898L238.962 50.0908C239.43 48.5038 240.111 46.9668 241.001 45.5258L238.639 41.5388L244.21 36.2678L248.06 38.8468ZM251.681 49.2368C248.38 52.3598 248.235 57.5668 251.358 60.8678C254.481 64.1688 259.688 64.3128 262.989 61.1908C266.29 58.0678 266.435 52.8608 263.312 49.5598C260.189 46.2588 254.982 46.1148 251.681 49.2368Z" fill="#E0E0E0"/>
<path d="M202.806 33.1709C203.839 32.5469 204.938 32.0739 206.072 31.7509L206.745 28.5179L212.207 28.4219L212.993 31.6289C214.138 31.9109 215.253 32.3449 216.307 32.9329L219.067 31.1229L222.997 34.9179L221.286 37.7399C221.91 38.7729 222.383 39.8729 222.705 41.0069L225.938 41.6799L226.034 47.1419L222.827 47.9279C222.545 49.0719 222.111 50.1879 221.523 51.2419L223.332 54.0029L219.538 57.9329L216.716 56.2219C215.683 56.8459 214.583 57.3189 213.449 57.6409L212.776 60.8739L207.314 60.9699L206.528 57.7629C205.383 57.4809 204.268 57.0469 203.214 56.4589L200.453 58.2689L196.523 54.4739L198.234 51.6519C197.61 50.6189 197.136 49.5199 196.814 48.3849L193.581 47.7119L193.485 42.2499L196.692 41.4639C196.974 40.3199 197.409 39.2039 197.996 38.1499L196.187 35.3889L199.981 31.4589L202.806 33.1709ZM205.717 40.4469C203.469 42.7759 203.534 46.4859 205.863 48.7339C208.191 50.9819 211.902 50.9169 214.149 48.5879C216.397 46.2599 216.332 42.5489 214.003 40.3009C211.675 38.0539 207.965 38.1189 205.717 40.4469Z" fill="#F5F5F5"/>
<path d="M293.948 191.324C294.981 190.7 296.08 190.227 297.214 189.904L297.887 186.671L303.349 186.575L304.135 189.782C305.28 190.064 306.395 190.498 307.449 191.086L310.21 189.276L314.14 193.071L312.429 195.893C313.053 196.926 313.527 198.026 313.848 199.16L317.081 199.833L317.177 205.295L313.97 206.081C313.688 207.225 313.254 208.341 312.666 209.395L314.475 212.156L310.681 216.086L307.859 214.375C306.826 214.999 305.726 215.472 304.592 215.794L303.919 219.027L298.457 219.123L297.671 215.916C296.526 215.634 295.411 215.199 294.357 214.612L291.596 216.422L287.666 212.627L289.377 209.805C288.753 208.772 288.279 207.673 287.958 206.538L284.725 205.865L284.629 200.403L287.836 199.617C288.118 198.473 288.553 197.357 289.14 196.303L287.331 193.542L291.125 189.612L293.948 191.324ZM296.86 198.6C294.612 200.929 294.677 204.638 297.006 206.887C299.334 209.135 303.044 209.07 305.292 206.741C307.54 204.413 307.475 200.702 305.146 198.454C302.818 196.207 299.108 196.272 296.86 198.6Z" fill="#F5F5F5"/>
<path d="M461.816 468.663C461.816 468.807 366.975 468.923 250.01 468.923C133.004 468.923 38.1841 468.806 38.1841 468.663C38.1841 468.519 133.005 468.403 250.01 468.403C366.975 468.402 461.816 468.519 461.816 468.663Z" fill="#263238"/>
<path d="M45.9458 429.866L53.5938 468.511L93.3048 468.484L101.702 430.513L45.9458 429.866Z" fill="#CD40FF"/>
<path d="M41.3889 423.986V429.378C41.3889 431.198 42.8699 432.673 44.6979 432.673H102.195C104.022 432.673 105.504 431.198 105.504 429.378V423.986C105.504 422.342 104.166 421.009 102.515 421.009H44.3789C42.7279 421.009 41.3889 422.342 41.3889 423.986Z" fill="#CD40FF"/>
<g opacity="0.4">
<path d="M46.375 432.674L46.852 435.338L99.906 439.104L101.25 432.674H46.375Z" fill="black"/>
</g>
<path d="M96.395 451.086C96.395 451.23 86.12 451.346 73.448 451.346C60.771 451.346 50.499 451.23 50.499 451.086C50.499 450.942 60.772 450.826 73.448 450.826C86.12 450.825 96.395 450.942 96.395 451.086Z" fill="white"/>
<path d="M96.7022 454.295C96.7022 454.439 86.4271 454.555 73.7551 454.555C61.0781 454.555 50.8062 454.438 50.8062 454.295C50.8062 454.152 61.0792 454.035 73.7551 454.035C86.4271 454.035 96.7022 454.152 96.7022 454.295Z" fill="white"/>
<path d="M50.048 421.051C50.048 421.051 27.694 395.388 30.178 394.461C32.662 393.533 52.532 407.756 52.532 407.756C52.532 407.756 35.456 369.725 38.872 366.942C42.287 364.159 60.294 400.644 60.294 400.644C60.294 400.644 57.5 347.463 60.294 346.845C63.088 346.227 73.334 400.026 73.334 400.026C73.334 400.026 88.547 350.864 92.893 350.864C97.24 350.864 88.236 398.17 88.236 398.17C88.236 398.17 106.243 367.869 109.037 371.889C111.831 375.908 96.308 408.683 96.308 408.683C96.308 408.683 118.972 389.822 119.903 392.296C120.834 394.77 95.376 421.051 95.376 421.051H50.048Z" fill="#455A64"/>
<path d="M46.9289 382.402C47.0839 382.333 51.0489 390.799 55.7849 401.308C60.5219 411.821 64.2359 420.397 64.0809 420.466C63.9269 420.535 59.9619 412.071 55.2249 401.558C50.4889 391.049 46.7749 382.471 46.9289 382.402Z" fill="#263238"/>
<path d="M64.987 387.132C65.156 387.12 65.815 394.582 66.459 403.796C67.103 413.013 67.488 420.492 67.319 420.504C67.15 420.516 66.491 413.056 65.847 403.839C65.203 394.624 64.819 387.144 64.987 387.132Z" fill="#263238"/>
<path d="M89.897 363.315C89.917 363.322 89.871 363.529 89.766 363.917C89.634 364.371 89.472 364.929 89.275 365.608C88.807 367.158 88.175 369.253 87.405 371.803C85.829 377.034 83.71 384.277 81.551 392.327C79.395 400.38 77.609 407.712 76.359 413.03C75.751 415.623 75.251 417.753 74.881 419.329C74.712 420.015 74.573 420.58 74.461 421.038C74.358 421.427 74.294 421.63 74.274 421.626C74.253 421.622 74.277 421.411 74.34 421.013C74.422 420.548 74.524 419.976 74.648 419.28C74.925 417.777 75.364 415.608 75.937 412.936C77.08 407.59 78.802 400.232 80.96 392.17C83.121 384.111 85.309 376.878 86.992 371.676C87.833 369.074 88.537 366.977 89.049 365.535C89.29 364.87 89.488 364.323 89.649 363.879C89.792 363.503 89.877 363.308 89.897 363.315Z" fill="#263238"/>
<path d="M100.668 390.728C100.807 390.824 96.4431 397.304 90.9231 405.198C85.4011 413.095 80.8131 419.416 80.6741 419.32C80.5351 419.224 84.8981 412.746 90.4201 404.849C95.9401 396.954 100.529 390.631 100.668 390.728Z" fill="#263238"/>
<path d="M57.5921 420.507C57.5401 420.569 56.7821 420.052 55.6361 419.117C54.4901 418.182 52.9631 416.818 51.3831 415.205C49.8041 413.59 48.4721 412.037 47.5631 410.872C46.6531 409.707 46.1531 408.94 46.2171 408.89C46.3591 408.779 48.6821 411.582 51.8221 414.779C54.9521 417.984 57.7071 420.368 57.5921 420.507Z" fill="#263238"/>
<path d="M71.169 410.312C71.338 410.297 71.693 412.667 71.962 415.605C72.231 418.544 72.312 420.939 72.144 420.954C71.975 420.969 71.62 418.6 71.351 415.66C71.082 412.722 71 410.327 71.169 410.312Z" fill="#263238"/>
<path d="M45.5611 71.4062C50.4471 47.0712 74.7401 33.0162 97.5771 39.5932C119.94 46.0332 132.784 70.4992 125.354 92.5532C122.864 99.9422 118.487 106.161 112.944 110.862C112.742 111.033 112.54 111.186 112.321 111.336C112.303 111.348 112.284 111.361 112.265 111.374C102.577 117.986 90.8061 121.201 79.1761 119.687C75.2781 119.179 71.5301 118.195 68.2411 116.631C51.3731 108.61 41.8841 89.7172 45.5611 71.4062Z" fill="white"/>
<path d="M45.5611 71.4061C45.5611 71.4061 45.5441 71.6331 45.4841 72.0721C45.4191 72.5271 45.3271 73.1731 45.2071 74.0141C44.9771 75.7201 44.8081 78.2651 44.9421 81.5331C45.1781 84.7891 45.7861 88.7811 47.3681 93.1501C48.9571 97.4921 51.4471 102.267 55.3431 106.627C56.3351 107.698 57.3321 108.811 58.4961 109.804C59.5881 110.876 60.8611 111.784 62.1171 112.761C62.7531 113.239 63.4541 113.639 64.1291 114.089L65.1581 114.751C65.5091 114.962 65.8811 115.14 66.2451 115.337C66.9771 115.721 67.7171 116.108 68.4631 116.499C69.2241 116.855 70.0081 117.181 70.8121 117.474C77.2601 119.789 84.7991 120.436 92.4021 119.185C96.2011 118.531 100.024 117.429 103.721 115.802C105.575 115.005 107.396 114.077 109.168 113.026C110.063 112.515 110.929 111.95 111.797 111.377C112.663 110.824 113.419 110.119 114.194 109.405C120.332 103.719 124.913 95.8211 126.474 87.0561C127.372 82.6981 127.357 78.2371 126.759 73.9611C126.537 71.8031 125.933 69.7311 125.409 67.6671C125.055 66.6611 124.703 65.6601 124.352 64.6621C124.195 64.1561 123.973 63.6771 123.746 63.2021L123.082 61.7731C121.263 58.0071 119.003 54.5021 116.23 51.5671L115.228 50.4391L114.127 49.4191C113.384 48.7551 112.694 48.0351 111.919 47.4261C110.342 46.2401 108.825 45.0071 107.13 44.0791C100.56 40.0031 93.1561 38.3001 86.3261 38.2421C84.6091 38.1301 82.9341 38.3951 81.2851 38.5061C80.4551 38.5381 79.6591 38.7521 78.8591 38.8881C78.0611 39.0391 77.2711 39.1891 76.4891 39.3371C74.9671 39.7971 73.4511 40.1881 72.0171 40.7051C71.3111 40.9941 70.6121 41.2811 69.9211 41.5641C69.2321 41.8501 68.5361 42.1031 67.9051 42.4741C62.6691 45.0671 58.5131 48.4731 55.4031 51.9101C53.9441 53.7101 52.5211 55.3471 51.5171 57.0701C51.2481 57.4881 50.9841 57.8961 50.7261 58.2961C50.4571 58.6891 50.2191 59.0881 50.0291 59.5011C49.6201 60.3101 49.2301 61.0811 48.8611 61.8101C48.6791 62.1761 48.4911 62.5271 48.3281 62.8761C48.1911 63.2371 48.0581 63.5861 47.9301 63.9251C47.6731 64.6021 47.4311 65.2361 47.2071 65.8251C46.7091 66.9871 46.4991 68.0371 46.2651 68.8661C46.0431 69.6861 45.8731 70.3161 45.7531 70.7601C45.6341 71.1901 45.5611 71.4061 45.5611 71.4061C45.5611 71.4061 45.6001 71.1831 45.7011 70.7521C45.8101 70.3051 45.9631 69.6701 46.1641 68.8421C46.3811 68.0061 46.5771 66.9491 47.0611 65.7771C47.2791 65.1831 47.5131 64.5441 47.7641 63.8611C47.8901 63.5191 48.0201 63.1661 48.1531 62.8031C48.3121 62.4501 48.4981 62.0961 48.6771 61.7271C49.0411 60.9901 49.4261 60.2121 49.8301 59.3951C50.0171 58.9781 50.2541 58.5751 50.5211 58.1781C50.7771 57.7741 51.0391 57.3611 51.3071 56.9391C52.3041 55.1971 53.7241 53.5411 55.1841 51.7191C58.2951 48.2391 62.4681 44.7841 67.7401 42.1471C68.3751 41.7701 69.0761 41.5121 69.7701 41.2201C70.4661 40.9321 71.1701 40.6401 71.8821 40.3451C73.3281 39.8171 74.8561 39.4171 76.3921 38.9481C77.1811 38.7961 77.9791 38.6421 78.7841 38.4871C79.5911 38.3471 80.3961 38.1291 81.2341 38.0941C82.9001 37.9761 84.5921 37.7051 86.3271 37.8121C93.2291 37.8511 100.72 39.5571 107.377 43.6691C109.093 44.6061 110.631 45.8511 112.228 47.0491C113.013 47.6641 113.713 48.3901 114.466 49.0621L115.581 50.0931L116.597 51.2321C119.406 54.1991 121.698 57.7431 123.541 61.5531L124.213 63.0001C124.444 63.4811 124.668 63.9651 124.828 64.4771C125.184 65.4861 125.541 66.5001 125.899 67.5181C126.432 69.6061 127.043 71.7041 127.269 73.8891C127.876 78.2181 127.892 82.7371 126.983 87.1521C125.401 96.0301 120.759 104.025 114.539 109.778C113.766 110.49 112.976 111.224 112.078 111.797C111.201 112.375 110.325 112.945 109.421 113.46C107.631 114.519 105.791 115.454 103.917 116.257C100.182 117.895 96.3181 119.003 92.4791 119.657C84.7911 120.907 77.1861 120.241 70.6601 117.878C69.8461 117.579 69.0521 117.245 68.2801 116.882C67.5271 116.485 66.7811 116.091 66.0411 115.702C65.6751 115.501 65.2991 115.32 64.9451 115.106L63.9071 114.434C63.2261 113.978 62.5201 113.571 61.8791 113.086C60.6131 112.095 59.3321 111.173 58.2331 110.088C57.0621 109.081 56.0591 107.954 55.0641 106.87C51.1511 102.455 48.6651 97.6301 47.0911 93.2481C45.5241 88.8391 44.9431 84.8181 44.7371 81.5441C44.6341 78.2581 44.8361 75.7061 45.1001 74.0001C45.2421 73.1611 45.3521 72.5161 45.4291 72.0621C45.5081 71.6261 45.5611 71.4061 45.5611 71.4061Z" fill="#263238"/>
<path d="M117.616 119.646C117.677 119.649 117.653 119.016 117.944 117.945C118.232 116.895 118.949 115.36 120.532 114.181C122.061 112.999 124.578 112.338 127.012 113.246C128.211 113.68 129.354 114.498 130.165 115.628C131 116.742 131.469 118.171 131.483 119.645C131.469 121.119 131.001 122.548 130.166 123.663C129.355 124.793 128.212 125.611 127.013 126.045C124.579 126.953 122.062 126.292 120.532 125.11C118.95 123.931 118.232 122.396 117.945 121.346C117.653 120.277 117.677 119.643 117.616 119.646C117.596 119.646 117.585 119.801 117.582 120.1C117.573 120.398 117.608 120.843 117.73 121.4C117.96 122.498 118.646 124.138 120.288 125.429C121.873 126.722 124.556 127.486 127.189 126.536C128.486 126.082 129.727 125.208 130.612 123.991C131.52 122.791 132.036 121.24 132.049 119.644C132.036 118.049 131.52 116.499 130.612 115.299C129.728 114.083 128.487 113.21 127.19 112.755C124.557 111.805 121.874 112.57 120.289 113.862C118.647 115.153 117.961 116.792 117.73 117.891C117.607 118.448 117.572 118.892 117.582 119.191C117.585 119.491 117.596 119.646 117.616 119.646Z" fill="#263238"/>
<path d="M77.5141 79.0389C77.5141 81.1179 75.8291 82.8039 73.7501 82.8039C71.6711 82.8039 69.9861 81.1189 69.9861 79.0389C69.9861 76.9599 71.6711 75.2749 73.7501 75.2749C75.8291 75.2739 77.5141 76.9599 77.5141 79.0389Z" fill="#263238"/>
<path d="M89.8852 79.0389C89.8852 81.1179 88.2002 82.8039 86.1212 82.8039C84.0422 82.8039 82.3572 81.1189 82.3572 79.0389C82.3572 76.9599 84.0422 75.2749 86.1212 75.2749C88.2002 75.2739 89.8852 76.9599 89.8852 79.0389Z" fill="#263238"/>
<path d="M102.256 79.0389C102.256 81.1179 100.571 82.8039 98.492 82.8039C96.413 82.8039 94.728 81.1189 94.728 79.0389C94.728 76.9599 96.413 75.2749 98.492 75.2749C100.571 75.2739 102.256 76.9599 102.256 79.0389Z" fill="#263238"/>
<path d="M460.727 351.403H366.431C360.961 351.403 356.526 346.968 356.526 341.498V314.364C356.526 308.894 360.961 304.459 366.431 304.459H460.727C466.197 304.459 470.632 308.894 470.632 314.364V341.498C470.632 346.968 466.197 351.403 460.727 351.403Z" fill="white"/>
<path d="M460.727 351.403C460.717 351.34 461.822 351.473 463.76 350.87C464.718 350.557 465.865 350.003 467.001 349.061C468.107 348.102 469.242 346.756 469.893 344.951C470.24 344.062 470.448 343.061 470.493 342.004C470.541 340.946 470.5 339.813 470.507 338.642C470.5 336.293 470.493 333.742 470.485 331.001C470.479 328.259 470.472 325.328 470.465 322.22C470.462 320.665 470.459 319.067 470.456 317.426C470.413 315.788 470.567 314.082 470.252 312.424C469.597 309.104 466.961 306.02 463.368 305.034C461.595 304.499 459.655 304.705 457.696 304.668C455.738 304.67 453.744 304.673 451.716 304.675C443.6 304.683 434.93 304.691 425.806 304.699C407.556 304.705 387.495 304.712 366.437 304.719C363.867 304.708 361.336 305.773 359.566 307.591C357.776 309.392 356.771 311.897 356.783 314.4C356.782 319.529 356.78 324.582 356.779 329.548C356.778 332.031 356.777 334.492 356.776 336.929C356.775 338.148 356.775 339.36 356.774 340.567C356.745 341.786 356.804 342.938 357.129 344.069C357.744 346.317 359.196 348.285 361.093 349.549C362.037 350.189 363.101 350.632 364.195 350.891C365.295 351.159 366.409 351.175 367.56 351.163C385.808 351.184 402.242 351.203 416.048 351.219C429.84 351.254 441.004 351.282 448.737 351.302C452.586 351.323 455.577 351.34 457.624 351.351C458.629 351.362 459.399 351.371 459.935 351.377C460.46 351.385 460.727 351.403 460.727 351.403C460.727 351.403 460.46 351.421 459.94 351.43C459.404 351.436 458.634 351.445 457.629 351.456C455.582 351.467 452.59 351.484 448.742 351.505C441.008 351.525 429.845 351.553 416.053 351.588C402.247 351.604 385.813 351.623 367.565 351.644C366.439 351.658 365.237 351.644 364.088 351.363C362.938 351.092 361.82 350.627 360.827 349.957C358.832 348.633 357.303 346.566 356.654 344.202C356.31 343.032 356.248 341.757 356.277 340.568C356.277 339.361 356.276 338.149 356.275 336.93C356.274 334.493 356.273 332.032 356.272 329.549C356.271 324.583 356.269 319.53 356.268 314.401C356.253 311.769 357.313 309.122 359.198 307.227C361.061 305.311 363.732 304.187 366.439 304.199C387.497 304.206 407.558 304.213 425.808 304.219C434.932 304.228 443.602 304.236 451.718 304.243C453.747 304.246 455.741 304.248 457.698 304.25C458.677 304.251 459.646 304.253 460.607 304.254C461.579 304.282 462.56 304.357 463.479 304.647C467.219 305.685 469.946 308.901 470.614 312.35C470.769 313.211 470.829 314.094 470.812 314.931C470.81 315.773 470.809 316.604 470.807 317.425C470.804 319.066 470.801 320.665 470.798 322.219C470.791 325.327 470.784 328.258 470.778 331C470.77 333.741 470.763 336.292 470.757 338.641C470.742 339.817 470.775 340.933 470.72 342.015C470.666 343.096 470.445 344.116 470.084 345.022C469.404 346.859 468.235 348.219 467.101 349.18C465.936 350.125 464.766 350.67 463.793 350.97C462.813 351.26 462.037 351.362 461.517 351.39C460.993 351.408 460.727 351.403 460.727 351.403Z" fill="#263238"/>
<path d="M450.894 331.001H398.639C396.702 331.001 395.132 329.431 395.132 327.493C395.132 325.556 396.702 323.986 398.639 323.986H450.894C452.831 323.986 454.402 325.556 454.402 327.493C454.401 329.431 452.831 331.001 450.894 331.001Z" fill="#E0E0E0"/>
<path d="M383.603 336.057H377.626C374.788 336.057 372.488 333.757 372.488 330.919V324.942C372.488 322.104 374.788 319.804 377.626 319.804H383.603C386.441 319.804 388.741 322.105 388.741 324.942V330.919C388.741 333.757 386.44 336.057 383.603 336.057Z" fill="#CD40FF"/>
<path d="M375.002 328.164L376.64 326.527L379.797 329.334L385.07 324.041L386.59 325.678L379.563 332.491L375.002 328.164Z" fill="white"/>
<path d="M448.027 271.108H334.424C330.078 271.108 326.555 267.585 326.555 263.239V193.682C326.555 189.336 330.078 185.813 334.424 185.813H448.026C452.372 185.813 455.895 189.336 455.895 193.682V263.239C455.895 267.585 452.372 271.108 448.027 271.108Z" fill="white"/>
<path d="M448.027 271.108C448.027 271.108 448.118 271.094 448.297 271.081C448.475 271.058 448.745 271.072 449.093 271.001C449.788 270.907 450.842 270.668 452.021 269.95C453.193 269.255 454.495 268.017 455.252 266.148C456.079 264.276 455.729 261.875 455.795 259.26C455.775 248.729 455.747 233.512 455.712 214.71C455.707 210.008 455.701 205.081 455.695 199.948C455.694 198.665 455.692 197.369 455.691 196.06C455.66 194.753 455.778 193.414 455.533 192.147C455.015 189.606 453.102 187.304 450.528 186.456C449.258 185.963 447.879 186.035 446.466 186.033C445.06 186.034 443.643 186.035 442.214 186.036C439.357 186.038 436.455 186.04 433.509 186.042C427.618 186.045 421.556 186.049 415.339 186.053C390.47 186.059 363.131 186.066 334.434 186.074C332.698 186.086 330.976 186.678 329.636 187.773C328.301 188.865 327.345 190.404 326.987 192.082C326.806 192.922 326.811 193.775 326.815 194.669V197.313C326.815 199.073 326.815 200.827 326.814 202.574C326.813 209.563 326.811 216.45 326.81 223.217C326.805 236.751 326.8 249.805 326.795 262.241C326.743 263.801 326.895 265.297 327.599 266.639C328.256 267.974 329.318 269.095 330.587 269.832C331.858 270.581 333.32 270.922 334.79 270.877C336.284 270.878 337.768 270.879 339.24 270.88C345.131 270.885 350.85 270.889 356.38 270.893C367.439 270.905 377.74 270.915 387.145 270.925C405.947 270.96 421.163 270.988 431.692 271.008C436.943 271.029 441.023 271.046 443.803 271.057C445.179 271.068 446.231 271.077 446.953 271.083C447.663 271.09 448.027 271.108 448.027 271.108C448.027 271.108 447.664 271.126 446.954 271.135C446.233 271.141 445.181 271.149 443.804 271.161C441.024 271.172 436.944 271.189 431.693 271.21C421.164 271.23 405.947 271.258 387.146 271.293C377.741 271.303 367.439 271.313 356.381 271.325C350.851 271.329 345.132 271.333 339.241 271.338C337.768 271.339 336.285 271.34 334.791 271.341C333.278 271.392 331.692 271.031 330.352 270.238C329.004 269.457 327.876 268.269 327.176 266.851C326.427 265.453 326.262 263.774 326.317 262.241C326.312 249.805 326.307 236.75 326.302 223.217C326.301 216.45 326.299 209.563 326.298 202.574C326.298 200.827 326.298 199.073 326.297 197.313V194.669C326.293 193.8 326.286 192.871 326.48 191.974C326.863 190.18 327.884 188.535 329.31 187.37C330.739 186.201 332.583 185.566 334.436 185.555C363.133 185.562 390.472 185.569 415.341 185.575C421.558 185.579 427.62 185.582 433.511 185.586C436.456 185.588 439.359 185.59 442.216 185.592C443.645 185.593 445.062 185.594 446.468 185.595C447.848 185.599 449.33 185.526 450.671 186.049C453.389 186.952 455.403 189.382 455.944 192.065C456.201 193.43 456.072 194.757 456.103 196.061C456.102 197.37 456.1 198.666 456.099 199.949C456.093 205.082 456.087 210.008 456.082 214.711C456.047 233.513 456.019 248.73 455.999 259.261C455.995 260.576 455.991 261.817 455.987 262.983C455.997 264.157 455.789 265.263 455.397 266.207C454.609 268.107 453.273 269.351 452.076 270.041C450.872 270.754 449.803 270.977 449.101 271.055C448.392 271.134 448.027 271.108 448.027 271.108Z" fill="#263238"/>
<path d="M405.634 235.34C403.682 235.34 402.1 236.922 402.1 238.874V251.558C402.1 253.51 403.682 255.092 405.634 255.092C407.586 255.092 409.168 253.51 409.168 251.558V238.874C409.167 236.922 407.585 235.34 405.634 235.34Z" fill="#CD40FF"/>
<path d="M346.603 232.479C344.651 232.479 343.069 234.061 343.069 236.012V251.557C343.069 253.509 344.651 255.091 346.603 255.091C348.554 255.091 350.137 253.509 350.137 251.557V236.012C350.137 234.061 348.554 232.479 346.603 232.479Z" fill="#CD40FF"/>
<path d="M361.361 227.765C359.409 227.765 357.827 229.347 357.827 231.298V251.557C357.827 253.509 359.409 255.091 361.361 255.091C363.313 255.091 364.895 253.509 364.895 251.557V231.298C364.894 229.347 363.312 227.765 361.361 227.765Z" fill="#CD40FF"/>
<path d="M376.118 229.264C374.166 229.264 372.584 230.846 372.584 232.798V251.558C372.584 253.51 374.166 255.092 376.118 255.092C378.07 255.092 379.652 253.51 379.652 251.558V232.798C379.652 230.846 378.07 229.264 376.118 229.264Z" fill="#CD40FF"/>
<path d="M390.876 220.527C388.924 220.527 387.342 222.109 387.342 224.061V251.558C387.342 253.51 388.924 255.092 390.876 255.092C392.828 255.092 394.41 253.51 394.41 251.558V224.06C394.41 222.109 392.828 220.527 390.876 220.527Z" fill="#CD40FF"/>
<path d="M420.391 220.695C418.439 220.695 416.857 222.277 416.857 224.229V251.558C416.857 253.51 418.439 255.092 420.391 255.092C422.343 255.092 423.925 253.51 423.925 251.558V224.229C423.925 222.277 422.343 220.695 420.391 220.695Z" fill="#CD40FF"/>
<path d="M435.149 231.992C433.197 231.992 431.615 233.574 431.615 235.526V251.558C431.615 253.51 433.197 255.092 435.149 255.092C437.101 255.092 438.683 253.51 438.683 251.558V235.526C438.683 233.574 437.101 231.992 435.149 231.992Z" fill="#CD40FF"/>
<path d="M371.467 206.082H344.186C342.574 206.082 341.267 204.775 341.267 203.163V202.535C341.267 200.923 342.574 199.616 344.186 199.616H371.467C373.079 199.616 374.386 200.923 374.386 202.535V203.163C374.386 204.775 373.079 206.082 371.467 206.082Z" fill="#E0E0E0"/>
<path d="M121.477 245.321H42.6902C40.1752 245.321 38.1362 243.282 38.1362 240.767V172.22C38.1362 169.251 40.5432 166.844 43.5122 166.844H120.654C123.623 166.844 126.03 169.251 126.03 172.22V240.768C126.031 243.282 123.992 245.321 121.477 245.321Z" fill="white"/>
<path d="M126.031 184.734H38.1372V172.22C38.1372 169.251 40.5442 166.844 43.5132 166.844H120.655C123.624 166.844 126.031 169.251 126.031 172.22V184.734Z" fill="#E0E0E0"/>
<path d="M52.5302 176.727C52.5302 178.53 51.0962 179.991 49.3282 179.991C47.5602 179.991 46.1262 178.53 46.1262 176.727C46.1262 174.924 47.5602 173.463 49.3282 173.463C51.0972 173.463 52.5302 174.924 52.5302 176.727Z" fill="white"/>
<path d="M62.3603 176.727C62.3603 178.53 60.9263 179.991 59.1583 179.991C57.3893 179.991 55.9563 178.53 55.9563 176.727C55.9563 174.924 57.3903 173.463 59.1583 173.463C60.9263 173.463 62.3603 174.924 62.3603 176.727Z" fill="white"/>
<path d="M72.1901 176.727C72.1901 178.53 70.7561 179.991 68.9881 179.991C67.2201 179.991 65.7861 178.53 65.7861 176.727C65.7861 174.924 67.2201 173.463 68.9881 173.463C70.7561 173.463 72.1901 174.924 72.1901 176.727Z" fill="white"/>
<path d="M104.302 236.185H59.8651C56.8421 236.185 54.3921 233.734 54.3921 230.712V198.892C54.3921 195.869 56.8421 193.419 59.8651 193.419H104.302C107.325 193.419 109.775 195.869 109.775 198.892V230.712C109.775 233.735 107.325 236.185 104.302 236.185Z" fill="#CD40FF"/>
<path d="M75.875 214.382V207.814C75.875 206.191 77.632 205.176 79.038 205.988L84.726 209.272L90.414 212.556C91.82 213.368 91.82 215.397 90.414 216.208L84.726 219.492L79.038 222.776C77.632 223.588 75.875 222.573 75.875 220.95V214.382Z" fill="white"/>
<path d="M121.477 245.321C121.475 245.296 121.764 245.324 122.304 245.215C122.837 245.11 123.651 244.852 124.453 244.137C125.242 243.442 125.998 242.207 125.953 240.629C125.946 239.048 125.938 237.227 125.929 235.178C125.909 226.96 125.881 215.095 125.846 200.437C125.836 193.102 125.826 185.069 125.814 176.447C125.813 175.369 125.812 174.282 125.81 173.186C125.807 172.636 125.826 172.083 125.762 171.565C125.707 171.037 125.538 170.524 125.318 170.041C124.877 169.066 124.093 168.252 123.153 167.719C122.677 167.46 122.161 167.274 121.626 167.167C121.091 167.057 120.541 167.077 119.959 167.074C115.365 167.078 110.638 167.081 105.79 167.085C96.0931 167.09 85.9151 167.095 75.3641 167.1C70.0881 167.101 64.7191 167.103 59.2701 167.104C56.5461 167.104 53.8011 167.105 51.0391 167.105C49.6581 167.105 48.2721 167.105 46.8821 167.105H44.7931C44.0961 167.115 43.3861 167.072 42.7411 167.17C41.4231 167.363 40.2041 168.103 39.4161 169.167C39.0201 169.697 38.7291 170.303 38.5651 170.941C38.3911 171.582 38.3911 172.233 38.3971 172.937C38.3971 175.7 38.3961 178.446 38.3961 181.171C38.3951 186.621 38.3931 191.992 38.3921 197.269C38.3871 207.823 38.3821 218.003 38.3771 227.701C38.3751 230.125 38.3741 232.52 38.3721 234.882C38.3711 236.063 38.3701 237.237 38.3691 238.402C38.3691 238.985 38.3681 239.565 38.3681 240.144C38.3641 240.733 38.3601 241.276 38.4971 241.807C38.7521 242.868 39.4291 243.808 40.3311 244.395C40.7811 244.689 41.2831 244.9 41.8061 245.008C42.3251 245.122 42.8661 245.096 43.4321 245.101C45.6601 245.103 47.8531 245.106 50.0091 245.108C58.6321 245.119 66.6651 245.13 74.0001 245.14C88.6581 245.175 100.522 245.203 108.739 245.223C112.83 245.244 116.01 245.261 118.184 245.272C119.253 245.283 120.072 245.292 120.64 245.298C121.193 245.303 121.477 245.321 121.477 245.321C121.477 245.321 121.193 245.339 120.64 245.348C120.072 245.354 119.253 245.363 118.184 245.374C116.01 245.385 112.83 245.402 108.739 245.423C100.522 245.443 88.6581 245.471 74.0001 245.506C66.6651 245.516 58.6321 245.526 50.0091 245.538C47.8531 245.54 45.6601 245.543 43.4321 245.545C42.8861 245.541 42.2991 245.571 41.7151 245.446C41.1371 245.327 40.5811 245.096 40.0841 244.772C39.0871 244.126 38.3371 243.09 38.0521 241.915C37.8991 241.33 37.9031 240.707 37.9071 240.143C37.9071 239.565 37.9061 238.984 37.9061 238.401C37.9051 237.236 37.9041 236.063 37.9031 234.881C37.9011 232.519 37.8991 230.124 37.8981 227.7C37.8931 218.002 37.8881 207.822 37.8831 197.268C37.8821 191.991 37.8801 186.62 37.8791 181.17C37.8791 178.445 37.8781 175.7 37.8781 172.936C37.8711 172.261 37.8701 171.512 38.0621 170.81C38.2431 170.106 38.5631 169.438 39.0001 168.855C39.8671 167.684 41.2111 166.868 42.6641 166.654C43.4041 166.546 44.0991 166.595 44.7941 166.584H46.8831C48.2731 166.584 49.6591 166.584 51.0401 166.584C53.8031 166.584 56.5471 166.585 59.2711 166.585C64.7201 166.586 70.0891 166.588 75.3651 166.589C85.9161 166.594 96.0941 166.599 105.791 166.604C110.639 166.608 115.367 166.611 119.96 166.615C120.523 166.619 121.127 166.598 121.713 166.719C122.296 166.836 122.857 167.04 123.374 167.323C124.397 167.904 125.244 168.791 125.723 169.851C125.962 170.377 126.143 170.935 126.202 171.509C126.27 172.089 126.247 172.64 126.25 173.186C126.249 174.282 126.248 175.369 126.246 176.447C126.235 185.07 126.224 193.103 126.214 200.437C126.179 215.095 126.151 226.96 126.131 235.178C126.122 237.227 126.114 239.048 126.107 240.629C126.137 242.253 125.34 243.519 124.522 244.215C123.689 244.933 122.855 245.177 122.313 245.267C122.038 245.312 121.828 245.327 121.687 245.323C121.548 245.326 121.477 245.321 121.477 245.321Z" fill="#263238"/>
<path d="M396.959 153.678H296.298C293.783 153.678 291.744 151.639 291.744 149.124V81.1621C291.744 78.1931 294.151 75.7861 297.12 75.7861H396.136C399.105 75.7861 401.512 78.1931 401.512 81.1621V149.124C401.513 151.639 399.474 153.678 396.959 153.678Z" fill="white"/>
<path d="M401.513 93.5931H291.744V81.1621C291.744 78.1931 294.151 75.7861 297.12 75.7861H396.136C399.105 75.7861 401.512 78.1931 401.512 81.1621V93.5931H401.513Z" fill="#E0E0E0"/>
<path d="M306.348 85.623C306.348 87.417 304.894 88.872 303.099 88.872C301.305 88.872 299.85 87.417 299.85 85.623C299.85 83.829 301.305 82.374 303.099 82.374C304.893 82.374 306.348 83.829 306.348 85.623Z" fill="white"/>
<path d="M316.322 85.623C316.322 87.417 314.867 88.872 313.073 88.872C311.279 88.872 309.824 87.417 309.824 85.623C309.824 83.829 311.278 82.374 313.073 82.374C314.867 82.374 316.322 83.829 316.322 85.623Z" fill="white"/>
<path d="M326.295 85.623C326.295 87.417 324.84 88.872 323.046 88.872C321.252 88.872 319.797 87.417 319.797 85.623C319.797 83.829 321.252 82.374 323.046 82.374C324.84 82.374 326.295 83.829 326.295 85.623Z" fill="white"/>
<path d="M337.23 143.262H305.563C303.359 143.262 301.573 141.476 301.573 139.272V107.605C301.573 105.401 303.359 103.615 305.563 103.615H337.23C339.434 103.615 341.22 105.401 341.22 107.605V139.272C341.22 141.476 339.434 143.262 337.23 143.262Z" fill="#CD40FF"/>
<path d="M389.999 111.786H353.264C352.133 111.786 351.216 110.869 351.216 109.738C351.216 108.607 352.133 107.69 353.264 107.69H389.999C391.13 107.69 392.047 108.607 392.047 109.738C392.047 110.869 391.13 111.786 389.999 111.786Z" fill="#E0E0E0"/>
<path d="M389.999 121.158H353.264C352.133 121.158 351.216 120.241 351.216 119.11C351.216 117.979 352.133 117.062 353.264 117.062H389.999C391.13 117.062 392.047 117.979 392.047 119.11C392.047 120.241 391.13 121.158 389.999 121.158Z" fill="#E0E0E0"/>
<path d="M389.999 130.53H353.264C352.133 130.53 351.216 129.613 351.216 128.482C351.216 127.351 352.133 126.434 353.264 126.434H389.999C391.13 126.434 392.047 127.351 392.047 128.482C392.047 129.613 391.13 130.53 389.999 130.53Z" fill="#E0E0E0"/>
<path d="M371.985 139.902H353.264C352.133 139.902 351.216 138.985 351.216 137.854C351.216 136.723 352.133 135.806 353.264 135.806H371.985C373.116 135.806 374.033 136.723 374.033 137.854C374.033 138.985 373.116 139.902 371.985 139.902Z" fill="#E0E0E0"/>
<path d="M396.959 153.678C396.957 153.656 397.283 153.679 397.894 153.554C398.489 153.414 399.411 153.089 400.242 152.197C400.651 151.754 401.02 151.171 401.245 150.462C401.479 149.749 401.44 148.925 401.435 148.03C401.428 146.242 401.42 144.181 401.411 141.863C401.391 132.57 401.363 119.145 401.328 102.559C401.323 98.41 401.317 94.064 401.311 89.536C401.308 87.272 401.306 84.962 401.303 82.608C401.297 81.422 401.383 80.247 400.904 79.18C400.455 78.121 399.646 77.204 398.619 76.639C398.104 76.36 397.541 76.169 396.959 76.076C396.385 75.976 395.77 76.011 395.145 76.006C393.905 76.007 392.654 76.008 391.394 76.009C388.873 76.011 386.313 76.013 383.714 76.015C378.517 76.019 373.168 76.022 367.684 76.026C356.714 76.031 345.199 76.036 333.262 76.041C327.293 76.042 321.219 76.044 315.055 76.045C311.973 76.045 308.868 76.046 305.743 76.046C304.18 76.046 302.612 76.046 301.04 76.046H298.677C297.893 76.06 297.079 76.006 296.35 76.11C294.855 76.322 293.493 77.247 292.734 78.54C292.349 79.181 292.105 79.906 292.031 80.649C291.979 81.38 292.016 82.201 292.005 82.971C292.005 86.097 292.004 89.203 292.004 92.286C292.003 98.452 292.001 104.528 292 110.498C291.995 122.438 291.99 133.955 291.985 144.927C292.15 147.586 291.312 150.687 293.492 152.402C293.969 152.82 294.544 153.118 295.15 153.284C295.757 153.462 296.386 153.446 297.057 153.445C298.375 153.446 299.684 153.447 300.983 153.448C306.18 153.453 311.226 153.457 316.105 153.461C325.861 153.472 334.949 153.483 343.247 153.493C359.833 153.528 373.256 153.556 382.548 153.576C387.179 153.597 390.777 153.614 393.233 153.625C394.445 153.636 395.373 153.645 396.012 153.651C396.638 153.66 396.959 153.678 396.959 153.678C396.959 153.678 396.638 153.696 396.012 153.705C395.373 153.711 394.446 153.719 393.233 153.731C390.777 153.742 387.179 153.759 382.548 153.78C373.256 153.8 359.833 153.828 343.247 153.863C334.949 153.873 325.861 153.883 316.105 153.895C311.226 153.899 306.181 153.903 300.983 153.908C299.684 153.909 298.375 153.91 297.057 153.911C296.414 153.913 295.702 153.934 295.026 153.737C294.354 153.554 293.716 153.223 293.186 152.761C292.116 151.853 291.465 150.437 291.507 149.018C291.506 147.664 291.505 146.301 291.504 144.929C291.499 133.957 291.494 122.44 291.489 110.5C291.488 104.53 291.486 98.454 291.485 92.288C291.485 89.205 291.484 86.099 291.484 82.973C291.497 82.18 291.455 81.434 291.512 80.599C291.593 79.78 291.862 78.981 292.286 78.274C293.123 76.85 294.622 75.83 296.271 75.596C297.11 75.48 297.886 75.542 298.676 75.526H301.039C302.612 75.526 304.18 75.526 305.742 75.526C308.867 75.526 311.972 75.527 315.054 75.527C321.218 75.528 327.292 75.53 333.261 75.531C345.198 75.536 356.713 75.541 367.683 75.546C373.168 75.55 378.516 75.553 383.713 75.557C386.311 75.559 388.872 75.561 391.393 75.563C392.653 75.564 393.904 75.565 395.144 75.566C395.757 75.573 396.386 75.536 397.027 75.645C397.658 75.747 398.269 75.956 398.826 76.26C399.939 76.875 400.812 77.868 401.295 79.017C401.535 79.593 401.666 80.208 401.704 80.822C401.737 81.44 401.712 82.014 401.719 82.608C401.716 84.962 401.714 87.272 401.711 89.536C401.705 94.064 401.7 98.411 401.694 102.559C401.659 119.145 401.631 132.569 401.611 141.863C401.602 144.181 401.594 146.242 401.587 148.03C401.583 148.915 401.615 149.767 401.366 150.501C401.127 151.229 400.74 151.822 400.316 152.269C399.453 153.169 398.508 153.481 397.902 153.606C397.283 153.715 396.959 153.678 396.959 153.678Z" fill="#263238"/>
<g opacity="0.3">
<path d="M301.572 132.016V139.422C301.572 141.543 303.291 143.262 305.412 143.262H337.308C339.468 143.262 341.219 141.511 341.219 139.351V127.445L331.973 118.85C330.921 117.872 329.268 117.958 328.324 119.041L321.089 127.333L313.96 123.964C312.662 123.35 311.122 123.569 310.047 124.521L301.572 132.016Z" fill="black"/>
</g>
<g opacity="0.3">
<path d="M319.511 117.698C321.488 117.698 323.09 116.096 323.09 114.119C323.09 112.142 321.488 110.54 319.511 110.54C317.534 110.54 315.932 112.142 315.932 114.119C315.932 116.096 317.534 117.698 319.511 117.698Z" fill="black"/>
</g>
<path d="M167.676 204.453C170.352 202.152 174.143 201.515 176.864 199.269C179.581 197.027 180.881 193.419 181.057 189.902C181.233 186.385 180.41 182.899 179.527 179.489L208.617 216.013C206.307 220.038 203.819 224.092 200.196 226.993C196.573 229.893 191.557 231.464 187.194 229.884C182.83 228.304 179.87 222.915 181.877 218.731C177.966 222.363 171.18 222.434 167.37 218.695C163.561 214.956 163.629 207.932 167.676 204.453Z" fill="#263238"/>
<path d="M251.742 97.7822C258.792 102.936 259.956 108.068 260.237 110.82C260.319 111.626 260.183 112.652 259.412 112.904C259.038 113.026 258.632 112.912 258.256 112.797C250.39 110.407 242.525 108.016 234.66 105.626" fill="#263238"/>
<path d="M186.535 189.84C181.225 180.319 175.942 170.713 172.35 160.42C168.758 150.127 166.906 139.025 168.658 128.265C168.923 126.634 171.732 115.489 173.377 115.331C174.553 115.217 173.458 125.314 174.239 126.2C181.687 134.662 185.463 145.858 186.745 157.058C188.027 168.258 187.687 178.626 186.535 189.84Z" fill="#263238"/>
<path d="M197.744 247.699L177.444 149.238C171.294 122.598 181.67 96.8138 208.471 91.4028L210.977 91.0468C236.195 87.4708 259.939 103.85 265.531 128.699C270.734 151.819 276.186 177.431 277.81 189.999C281.172 216.019 255.767 223.742 255.767 223.742C255.709 223.753 260.525 249.998 261.934 257.567L222.677 262.561L213.229 263.407L197.744 247.699Z" fill="#FFBF9D"/>
<path d="M255.766 223.744C255.766 223.744 239.53 227.027 220.528 218.542C220.528 218.542 231.434 236.916 257.02 230.902L255.766 223.744Z" fill="#F5F5F5"/>
<path d="M260.753 154.038C261.101 155.987 259.736 157.888 257.707 158.288C255.682 158.687 253.756 157.435 253.41 155.486C253.062 153.537 254.426 151.634 256.451 151.234C258.48 150.835 260.407 152.09 260.753 154.038Z" fill="#263238"/>
<path d="M261.634 140.954C261.243 141.503 258.138 139.822 254.147 140.398C250.154 140.916 247.515 143.386 247.013 142.958C246.77 142.772 247.114 141.832 248.258 140.723C249.382 139.621 251.396 138.417 253.885 138.075C256.373 137.737 258.595 138.355 259.93 139.122C261.29 139.89 261.83 140.705 261.634 140.954Z" fill="#263238"/>
<path d="M226.349 158.877C226.696 160.826 225.332 162.727 223.303 163.126C221.278 163.525 219.352 162.273 219.005 160.324C218.658 158.375 220.023 156.472 222.048 156.073C224.076 155.673 226.002 156.929 226.349 158.877Z" fill="#263238"/>
<path d="M222.639 147.428C222.247 147.977 219.138 146.298 215.151 146.873C211.159 147.392 208.519 149.861 208.017 149.433C207.775 149.247 208.114 148.309 209.264 147.198C210.388 146.095 212.402 144.892 214.89 144.549C217.379 144.211 219.6 144.83 220.935 145.595C222.291 146.365 222.833 147.18 222.639 147.428Z" fill="#263238"/>
<path d="M241.307 176.069C241.256 175.845 243.677 175.064 247.624 173.98C248.629 173.73 249.565 173.391 249.638 172.671C249.773 171.901 249.191 170.863 248.529 169.747C247.221 167.416 245.851 164.973 244.414 162.413C238.66 151.956 234.342 143.3 234.765 143.072C235.189 142.844 240.195 151.135 245.948 161.591C247.342 164.174 248.674 166.634 249.943 168.989C250.492 170.093 251.342 171.312 251.039 172.914C250.872 173.715 250.202 174.374 249.575 174.642C248.95 174.934 248.378 175.027 247.878 175.129C243.861 175.919 241.355 176.294 241.307 176.069Z" fill="#263238"/>
<path d="M222.16 134.76C221.762 135.856 217.737 135.334 213.007 135.902C208.265 136.374 204.45 137.756 203.823 136.774C203.543 136.303 204.209 135.272 205.752 134.212C207.281 133.153 209.72 132.148 212.56 131.833C215.399 131.525 217.999 131.977 219.721 132.678C221.458 133.377 222.332 134.239 222.16 134.76Z" fill="#263238"/>
<path d="M261.232 134.413C260.546 135.447 257.156 135.018 253.249 135.586C249.327 136.039 246.144 137.325 245.235 136.498C244.83 136.092 245.207 135.104 246.515 134.021C247.802 132.944 250.071 131.874 252.762 131.522C255.453 131.173 257.903 131.628 259.405 132.342C260.929 133.054 261.527 133.914 261.232 134.413Z" fill="#263238"/>
<path d="M182.293 168.171C181.823 168.042 163.697 165.424 166.783 183.1C169.869 200.777 186.979 194.033 186.922 193.521C186.864 193.009 182.293 168.171 182.293 168.171Z" fill="#FFBF9D"/>
<path d="M180.353 187.767C180.266 187.724 180.082 188.036 179.604 188.365C179.137 188.686 178.292 188.998 177.31 188.814C175.323 188.455 173.233 185.764 172.591 182.593C172.265 180.993 172.335 179.401 172.683 178.034C172.998 176.647 173.676 175.597 174.587 175.266C175.485 174.886 176.249 175.333 176.552 175.793C176.875 176.246 176.824 176.618 176.924 176.632C176.981 176.668 177.251 176.269 176.981 175.564C176.846 175.225 176.567 174.845 176.092 174.578C175.608 174.307 174.953 174.239 174.311 174.425C172.964 174.757 171.956 176.225 171.572 177.727C171.115 179.248 170.999 181.043 171.365 182.841C172.1 186.383 174.505 189.399 177.189 189.691C178.489 189.799 179.461 189.242 179.924 188.732C180.396 188.199 180.42 187.788 180.353 187.767Z" fill="#F5F5F5"/>
<path d="M248.743 101.56C251.31 99.459 241.039 91.783 233.434 89.887C221.942 87.023 205.197 87.033 195.925 91.604C184.761 97.107 176.053 104.763 172.109 116.568C168.165 128.372 168.236 141.269 170.826 153.443C171.616 157.157 172.718 160.978 175.293 163.769C178.474 167.219 182.354 168.5 184.437 174.228C185.121 176.109 185.649 178.092 187.26 179.279C191.121 182.122 194.478 178.169 195.7 174.598C198.31 166.973 197.227 158.64 196.113 150.658C195.321 144.984 194.494 139.193 191.914 134.078C190.511 131.295 188.613 128.77 187.366 125.913C186.118 123.056 185.587 119.652 186.998 116.872C187.228 116.42 187.635 115.829 188.165 115.158C192.358 109.859 199.115 107.263 205.787 108.329C216.372 110.02 234.308 112.154 238.122 107.967C243.608 101.943 244.553 98.499 244.553 98.499L248.743 101.56Z" fill="#263238"/>
<path d="M229.316 180.814C229.916 180.664 230.688 184.711 234.697 186.931C238.702 189.161 242.931 187.891 243.07 188.451C243.174 188.694 242.257 189.419 240.445 189.813C238.67 190.212 235.952 190.131 233.499 188.774C231.052 187.41 229.699 185.23 229.247 183.596C228.772 181.931 229.034 180.843 229.316 180.814Z" fill="#263238"/>
<path d="M169.899 169.676C169.51 169.435 168.998 169.465 168.627 169.222C144.143 153.206 157.199 131.074 156.388 125.142C155.264 116.919 147.435 129.019 144.206 118.51C139.931 104.593 153.986 95.7292 171.532 86.1872C178.882 82.1902 197.919 77.8902 215.388 78.3322C230.975 78.7262 242.939 87.5522 250.119 94.7062C250.119 94.7062 253.934 95.7652 255.059 97.1712C258.588 101.58 257.763 103.805 257.763 103.805C257.763 103.805 221.441 92.6562 197.802 120.397C174.163 148.138 182.759 166.743 175.47 168.329L169.899 169.676Z" fill="#455A64"/>
<path d="M179.876 97.1672C179.893 97.1992 179.411 97.5142 178.528 98.0552C178.083 98.3202 177.543 98.6512 176.941 99.0732C176.336 99.4902 175.624 99.9302 174.895 100.502C173.395 101.582 171.701 102.992 169.923 104.664C168.171 106.364 166.35 108.341 164.632 110.575C162.935 112.826 161.513 115.108 160.341 117.25C159.202 119.409 158.293 121.418 157.652 123.151C157.295 124.005 157.06 124.808 156.819 125.503C156.572 126.196 156.396 126.804 156.26 127.304C155.974 128.299 155.798 128.848 155.763 128.84C155.728 128.832 155.837 128.268 156.064 127.253C156.171 126.743 156.319 126.124 156.541 125.418C156.757 124.711 156.969 123.894 157.307 123.025C157.909 121.261 158.791 119.219 159.918 117.025C161.078 114.85 162.503 112.534 164.218 110.26C165.954 108.002 167.806 106.013 169.594 104.316C171.408 102.646 173.142 101.253 174.682 100.203C175.43 99.6472 176.161 99.2242 176.785 98.8282C177.406 98.4262 177.964 98.1192 178.427 97.8802C179.345 97.3902 179.859 97.1352 179.876 97.1672Z" fill="#263238"/>
<path d="M251.102 95.0173C251.1 95.0263 250.988 95.0083 250.772 94.9653C250.53 94.9143 250.214 94.8463 249.816 94.7623C248.981 94.5643 247.739 94.3213 246.139 94.0133C244.533 93.7443 242.567 93.4133 240.264 93.2023C237.965 92.9683 235.331 92.8253 232.424 92.9073C226.621 93.0433 219.684 94.0983 212.479 96.8003C208.88 98.1403 205.225 99.8803 201.647 102.039C198.08 104.215 194.603 106.824 191.357 109.84C188.141 112.888 185.287 116.171 182.933 119.625C180.584 123.081 178.675 126.651 177.152 130.178C174.088 137.24 172.533 144.051 171.49 149.768C170.492 155.507 170.053 160.209 169.765 163.454C169.637 165.053 169.536 166.307 169.465 167.196C169.43 167.601 169.403 167.923 169.382 168.169C169.36 168.388 169.345 168.5 169.336 168.5C169.327 168.5 169.325 168.387 169.329 168.166C169.337 167.918 169.348 167.596 169.361 167.189C169.392 166.331 169.451 165.065 169.563 163.437C169.789 160.183 170.173 155.468 171.127 149.703C172.127 143.96 173.65 137.109 176.711 129.986C178.232 126.429 180.148 122.825 182.512 119.334C184.881 115.846 187.757 112.531 191.001 109.457C194.274 106.416 197.783 103.787 201.383 101.6C204.994 99.4293 208.682 97.6853 212.314 96.3473C219.581 93.6513 226.578 92.6263 232.418 92.5373C235.343 92.4793 237.989 92.6483 240.295 92.9113C242.605 93.1513 244.574 93.5123 246.178 93.8123C247.776 94.1523 249.013 94.4283 249.841 94.6593C250.234 94.7643 250.546 94.8483 250.785 94.9123C250.997 94.9733 251.104 95.0083 251.102 95.0173Z" fill="#263238"/>
<path d="M179.649 158.871C179.706 158.986 177.499 159.705 174.771 159.161C172.037 158.644 170.26 157.151 170.356 157.066C170.44 156.927 172.266 158.162 174.87 158.65C177.467 159.172 179.623 158.711 179.649 158.871Z" fill="#263238"/>
<path d="M186.071 141.52C186.069 141.58 185.342 141.627 184.183 141.45C183.027 141.276 181.446 140.828 179.861 139.983C178.278 139.132 177.028 138.065 176.243 137.2C175.453 136.334 175.089 135.704 175.138 135.668C175.261 135.552 177.008 137.893 180.107 139.524C183.182 141.197 186.1 141.353 186.071 141.52Z" fill="#263238"/>
<path d="M198.522 119.305C198.388 119.4 196.915 117.108 194.349 115.029C191.803 112.923 189.267 111.932 189.333 111.781C189.356 111.658 192.051 112.456 194.679 114.626C197.324 116.774 198.638 119.259 198.522 119.305Z" fill="#263238"/>
<path d="M213.053 108.358C212.899 108.409 212.187 106.03 210.5 103.534C208.838 101.02 206.913 99.4531 207.018 99.3301C207.08 99.2201 209.212 100.648 210.933 103.245C212.673 105.826 213.178 108.343 213.053 108.358Z" fill="#263238"/>
<path d="M236.831 102.386C236.665 102.393 236.995 99.8361 235.655 97.1111C234.366 94.3601 232.165 93.0191 232.274 92.8941C232.303 92.8431 232.891 93.0931 233.686 93.7401C234.48 94.3811 235.441 95.4671 236.125 96.8851C236.804 98.3051 237.051 99.7331 237.055 100.754C237.061 101.781 236.888 102.396 236.831 102.386Z" fill="#263238"/>
<path d="M252.027 103.205C251.869 103.182 252.191 101.266 251.717 98.9744C251.272 96.6764 250.238 95.0324 250.375 94.9494C250.468 94.8594 251.755 96.4524 252.227 98.8724C252.722 101.286 252.147 103.252 252.027 103.205Z" fill="#263238"/>
<path d="M229.314 262.654C229.261 262.651 229.317 261.867 229.259 260.454C229.208 259.042 229.013 257 228.459 254.535C227.906 252.071 226.988 249.198 225.717 246.105C224.456 243.007 222.849 239.691 221.26 236.156C219.744 232.783 218.424 229.485 217.569 226.367L217.517 226.177L217.69 226.087C220.016 224.883 221.85 223.245 223.176 221.581L223.283 221.447L223.431 221.529C225.234 222.52 227.053 222.836 228.531 222.833H228.62L228.662 222.907C229.426 224.257 230.202 225.219 230.752 225.854C231.306 226.488 231.632 226.806 231.611 226.829C231.602 226.839 231.51 226.771 231.341 226.629C231.175 226.485 230.933 226.265 230.636 225.961C230.045 225.353 229.221 224.408 228.407 223.056L228.537 223.129C227.016 223.173 225.13 222.887 223.239 221.885L223.494 221.832C222.162 223.557 220.299 225.261 217.914 226.517L218.035 226.238C218.903 229.315 220.223 232.581 221.735 235.945C223.319 239.47 224.917 242.8 226.162 245.927C227.417 249.048 228.308 251.961 228.82 254.459C229.333 256.958 229.474 259.028 229.463 260.451C229.457 261.163 229.433 261.715 229.392 262.088C229.357 262.461 229.331 262.655 229.314 262.654Z" fill="#F5F5F5"/>
<path d="M149.673 265.171L190.435 240.703C190.435 240.703 222.052 261.53 242.677 253.895C256.614 248.736 256.614 229.863 256.614 229.863L296.659 230.001L332.112 338.545L341.184 468.432L163.792 468.415L156.639 315.98L149.673 265.171Z" fill="#CD40FF"/>
<g opacity="0.3">
<path d="M162.154 436.611C174.537 447.106 190.735 452.263 206.881 453.931C223.027 455.599 239.312 454.025 255.468 452.451C283.372 449.733 311.838 450.493 339.742 447.775C338.953 440.799 338.247 423.393 337.458 416.418L162.154 428.963V436.611Z" fill="black"/>
</g>
<path d="M147.619 384.125C147.619 384.125 143.782 382.283 141.876 384.201C139.97 386.119 138.603 388.946 138.603 388.946C138.603 388.946 132.434 387.096 129.868 392.222C129.868 392.222 125.26 395.134 127.993 400.848C127.993 400.848 123.059 407.726 126.991 413.679C127.883 415.029 128.596 415.589 128.596 415.589C128.596 415.589 130.446 422.763 132.92 423.959C135.394 425.155 144.208 427.848 144.506 423.806C144.804 419.764 143.228 420.136 143.228 420.136C143.228 420.136 153.661 425.792 158.281 429.945C162.901 434.098 175.037 440.269 182.528 440.252C190.019 440.235 186.822 424.125 186.822 424.125L147.619 384.125Z" fill="#FFBF9D"/>
<path d="M314.797 307.8C314.307 310.248 313.915 323.468 313.915 323.468L322.564 378.178C305.494 381.721 221.544 398.738 221.544 398.738L213.731 440.028C213.731 440.028 345.755 437.585 360.446 423.874C375.137 410.162 367.696 354.65 367.696 349.263C367.696 343.876 364.071 308.198 364.071 308.198L314.797 307.8Z" fill="#FFBF9D"/>
<path d="M131.28 401.752C131.295 401.72 131.773 401.91 132.623 402.283C133.557 402.707 134.759 403.253 136.201 403.908C137.733 404.625 139.516 405.459 141.479 406.378C141.975 406.613 142.483 406.853 143.001 407.098C143.261 407.222 143.524 407.347 143.789 407.472C144.057 407.613 144.386 407.765 144.576 408.161C144.662 408.36 144.663 408.595 144.575 408.801C144.482 409.003 144.327 409.145 144.173 409.241C143.866 409.433 143.513 409.517 143.2 409.545C142.571 409.637 141.927 409.643 141.282 409.61C138.691 409.443 136.391 408.611 134.252 408.266C133.189 408.077 132.156 407.995 131.263 408.244C130.366 408.479 129.704 409.102 129.298 409.783C128.476 411.176 128.525 412.588 128.518 413.489C128.539 414.412 128.569 414.926 128.528 414.929C128.497 414.931 128.399 414.428 128.315 413.498C128.264 412.592 128.136 411.135 128.98 409.597C129.392 408.85 130.135 408.114 131.143 407.83C132.138 407.533 133.242 407.614 134.33 407.793C136.523 408.124 138.829 408.935 141.31 409.09C141.928 409.122 142.54 409.117 143.132 409.032C143.697 409.004 144.282 408.678 144.107 408.36C143.951 408.022 143.27 407.808 142.787 407.547C142.272 407.296 141.766 407.052 141.272 406.812C139.327 405.856 137.561 404.987 136.043 404.241C134.63 403.526 133.452 402.931 132.537 402.468C131.712 402.037 131.264 401.784 131.28 401.752Z" fill="#F5F5F5"/>
<path d="M147.824 398.739C147.777 398.807 146.861 398.213 145.327 397.364C143.794 396.513 141.617 395.444 139.101 394.546C136.582 393.654 134.218 393.109 132.493 392.801C130.767 392.491 129.682 392.374 129.689 392.291C129.692 392.23 130.79 392.217 132.55 392.437C134.307 392.654 136.721 393.15 139.277 394.055C141.83 394.966 144.015 396.105 145.515 397.046C147.016 397.986 147.86 398.689 147.824 398.739Z" fill="#F5F5F5"/>
<path d="M146.795 391.628C146.726 391.778 144.945 390.963 142.736 390.096C141.627 389.672 140.602 389.367 139.845 389.217C139.09 389.06 138.605 389.027 138.603 388.947C138.599 388.884 139.095 388.784 139.898 388.853C140.701 388.914 141.787 389.176 142.921 389.61C145.183 390.497 146.847 391.518 146.795 391.628Z" fill="#F5F5F5"/>
<path d="M144.096 420.616C144.093 420.679 143.396 420.714 142.287 420.543C141.178 420.379 139.678 419.969 138.096 419.34C136.514 418.709 135.142 418.017 134.166 417.488C133.191 416.957 132.61 416.59 132.641 416.527C132.715 416.373 135.178 417.593 138.287 418.856C139.846 419.476 141.291 419.93 142.358 420.182C143.424 420.441 144.102 420.535 144.096 420.616Z" fill="#F5F5F5"/>
<path d="M137.229 418.47C137.361 418.505 137.118 419.504 136.222 420.336C135.333 421.176 134.32 421.355 134.294 421.22C134.246 421.076 135.078 420.706 135.866 419.956C136.665 419.219 137.089 418.413 137.229 418.47Z" fill="#F5F5F5"/>
<path d="M295.572 230.014C295.572 230.014 326.75 228.739 342.651 250.643C358.058 271.867 370.161 315.978 370.161 315.978L310.625 323.905L301.807 266.514L295.572 230.014Z" fill="#CD40FF"/>
<path d="M345.724 403.237C345.615 403.265 345.214 401.293 343.979 398.323C343.666 397.582 343.318 396.775 342.867 395.944C342.462 395.09 341.926 394.234 341.388 393.32C340.245 391.533 338.851 389.655 337.186 387.858C335.499 386.08 333.715 384.568 332.005 383.312C331.128 382.716 330.308 382.125 329.482 381.667C328.681 381.164 327.898 380.764 327.179 380.404C324.295 378.98 322.353 378.453 322.388 378.346C322.398 378.312 322.882 378.436 323.753 378.692C324.191 378.813 324.721 378.978 325.318 379.225C325.916 379.464 326.615 379.702 327.339 380.073C328.076 380.416 328.879 380.801 329.7 381.294C330.546 381.743 331.386 382.327 332.284 382.921C334.034 384.173 335.855 385.698 337.567 387.502C339.257 389.326 340.661 391.242 341.797 393.068C342.332 394.002 342.861 394.877 343.254 395.751C343.693 396.601 344.026 397.428 344.321 398.186C344.644 398.932 344.836 399.645 345.037 400.257C345.245 400.868 345.376 401.408 345.468 401.853C345.666 402.738 345.759 403.229 345.724 403.237Z" fill="#F5F5F5"/>
<path d="M301.808 266.514C301.825 266.507 301.943 266.765 302.153 267.264C302.376 267.809 302.674 268.539 303.048 269.456C303.783 271.375 304.753 274.193 305.747 277.733C307.791 284.8 309.838 294.762 311.64 305.826C313.427 316.898 314.699 326.969 315.605 334.256C316.042 337.863 316.397 340.799 316.65 342.89C316.76 343.873 316.848 344.656 316.913 345.24C316.967 345.778 316.987 346.062 316.97 346.064C316.952 346.066 316.897 345.787 316.809 345.254C316.72 344.673 316.6 343.894 316.449 342.916C316.156 340.83 315.745 337.901 315.239 334.303C314.239 327.028 312.909 316.969 311.125 305.908C309.325 294.856 307.34 284.903 305.392 277.83C304.446 274.287 303.532 271.461 302.858 269.525C302.522 268.595 302.255 267.855 302.056 267.302C301.877 266.793 301.791 266.521 301.808 266.514Z" fill="#263238"/>
<path d="M195.932 275.819L189.86 340.212L180.556 323.809L132.642 329.509C133.132 331.958 150.194 391.877 157.54 408.527C164.886 425.177 185.453 454.756 208.469 444.129C231.485 433.502 230.016 349.758 230.016 340.211C230.016 330.664 225.409 273.701 225.409 273.701" fill="#FFBF9D"/>
<path d="M225.409 273.703C225.409 273.703 225.459 274.102 225.531 274.883C225.6 275.675 225.701 276.834 225.834 278.351C226.085 281.411 226.453 285.906 226.927 291.691C227.372 297.489 227.917 304.579 228.549 312.808C228.838 316.926 229.148 321.33 229.476 325.999C229.758 330.672 230.136 335.607 230.203 340.815C230.291 351.206 230.162 362.6 229.466 374.807C228.731 387.001 227.583 400.058 224.76 413.535C223.287 420.242 221.459 427.123 218.227 433.607C216.598 436.817 214.569 439.966 211.701 442.37C210.971 442.948 210.21 443.497 209.382 443.942C208.561 444.412 207.68 444.715 206.819 445.081C205.951 445.427 205.038 445.662 204.141 445.935C203.216 446.101 202.307 446.377 201.361 446.439C199.488 446.728 197.575 446.63 195.683 446.451C193.796 446.186 191.926 445.75 190.122 445.094C186.514 443.785 183.162 441.776 180.102 439.398C173.986 434.597 168.901 428.466 164.544 421.836C162.131 418.164 159.992 414.349 158.13 410.435C156.308 406.498 154.816 402.462 153.405 398.449C150.581 390.418 148.046 382.442 145.606 374.616C143.175 366.787 140.864 359.099 138.659 351.585C136.467 344.06 134.315 336.757 132.415 329.558L132.349 329.309L132.618 329.277C149.937 327.229 166.019 325.328 180.536 323.612L180.669 323.596L180.735 323.712C184.02 329.517 187.107 334.972 190.022 340.124L189.685 340.196C191.603 320.221 193.149 304.128 194.216 293.018C194.76 287.476 195.181 283.179 195.468 280.255C195.616 278.806 195.728 277.7 195.806 276.944C195.885 276.199 195.938 275.819 195.938 275.819C195.938 275.819 195.919 276.202 195.858 276.949C195.792 277.706 195.696 278.814 195.571 280.265C195.306 283.191 194.917 287.491 194.415 293.037C193.386 304.151 191.896 320.248 190.046 340.23L189.993 340.802L189.709 340.302C186.783 335.156 183.685 329.708 180.387 323.909L180.585 324.009C166.071 325.746 149.991 327.671 132.675 329.744L132.878 329.464C134.77 336.592 136.938 343.937 139.133 351.444C141.344 358.954 143.659 366.639 146.093 374.463C148.535 382.284 151.073 390.255 153.895 398.274C155.306 402.283 156.794 406.304 158.603 410.211C160.454 414.1 162.583 417.897 164.983 421.549C169.316 428.144 174.373 434.237 180.424 438.988C183.451 441.341 186.757 443.322 190.301 444.608C192.072 445.253 193.905 445.68 195.751 445.941C197.602 446.116 199.472 446.214 201.303 445.932C202.228 445.873 203.118 445.601 204.022 445.44C204.901 445.173 205.795 444.945 206.646 444.605C207.488 444.248 208.362 443.946 209.145 443.498C209.942 443.07 210.677 442.54 211.386 441.98C214.17 439.651 216.177 436.556 217.789 433.381C220.992 426.969 222.823 420.115 224.296 413.433C227.123 400.001 228.288 386.96 229.04 374.78C229.754 362.586 229.905 351.204 229.84 340.815C229.786 335.631 229.42 330.69 229.151 326.019C228.837 321.349 228.541 316.946 228.264 312.827C227.666 304.596 227.152 297.505 226.731 291.705C226.299 285.916 225.964 281.42 225.735 278.358C225.625 276.839 225.541 275.679 225.484 274.886C225.423 274.104 225.409 273.703 225.409 273.703Z" fill="#F5F5F5"/>
<path d="M189.717 338.544C189.735 338.546 189.718 338.808 189.668 339.308C189.604 339.805 189.57 340.548 189.393 341.485C189.114 343.371 188.493 346.073 187.389 349.302C186.294 352.535 184.631 356.254 182.529 360.238C180.431 364.226 177.884 368.472 175.258 372.944C172.638 377.418 170.291 381.767 168.497 385.879C166.708 389.989 165.448 393.843 164.783 397.165C164.106 400.484 163.902 403.234 163.921 405.129C163.882 406.078 163.973 406.812 163.969 407.313C163.984 407.813 163.983 408.077 163.965 408.079C163.947 408.081 163.913 407.82 163.864 407.321C163.834 406.821 163.71 406.085 163.718 405.131C163.637 403.226 163.786 400.449 164.422 397.092C165.045 393.732 166.28 389.834 168.057 385.687C169.838 381.54 172.184 377.164 174.809 372.68C177.438 368.203 179.992 363.973 182.105 360.012C184.221 356.055 185.909 352.375 187.041 349.178C188.182 345.986 188.854 343.315 189.192 341.449C189.4 340.522 189.465 339.786 189.563 339.294C189.647 338.801 189.7 338.542 189.717 338.544Z" fill="#F5F5F5"/>
<path d="M149.673 265.171C148.356 265.434 125.881 275.819 126.034 310.448C126.148 336.297 133.083 361.099 133.083 361.099L187.244 335.601L149.673 265.171Z" fill="#CD40FF"/>
<path d="M225.409 273.703C225.409 273.703 231.788 267.111 231.788 258.504C231.788 249.898 228.478 241.291 228.478 241.291C228.478 241.291 227.408 232.241 226.733 228.739L229.637 223.25C229.637 223.25 237.581 226.726 238.906 221.595L234.231 215.198C233.185 213.767 231.688 212.728 229.981 212.249L222.944 210.275C220.47 209.581 217.815 210.006 215.682 211.439L207.459 216.96L212.59 206.367L221.196 204.547C221.196 204.547 233.444 209.843 235.761 202.892L225.499 196.934L205.969 197.265C205.969 197.265 201.5 202.727 200.507 204.382C199.514 206.037 196.289 211.729 196.289 211.729L191.404 199.086C191.404 199.086 191.555 191.022 191.362 184.304C191.148 176.879 186.794 174.396 182.326 176.879C181.892 177.12 179.898 196.994 180.892 201.628C181.885 206.262 190.436 240.703 190.436 240.703C190.436 240.703 193.408 248.54 194.58 250.852C197.111 255.848 196.923 260.036 197.025 261.904C197.225 265.562 195.831 276.913 195.831 276.913" fill="#FFBF9D"/>
<path d="M195.829 276.913C195.829 276.913 195.84 276.694 195.883 276.267C195.928 275.827 195.993 275.195 196.078 274.37C196.246 272.699 196.505 270.228 196.745 267.022C196.85 265.42 196.993 263.63 196.905 261.674C196.853 259.709 196.722 257.572 196.138 255.349C195.852 254.24 195.464 253.114 194.964 251.994C194.445 250.89 193.869 249.731 193.373 248.516C192.352 246.091 191.335 243.5 190.282 240.762L190.279 240.753L190.277 240.743C188.871 235.026 187.322 228.73 185.649 221.926C184.813 218.523 183.947 214.993 183.051 211.345C182.603 209.521 182.148 207.667 181.686 205.785C181.455 204.844 181.222 203.896 180.988 202.941C180.875 202.46 180.743 201.992 180.645 201.496C180.547 200.993 180.51 200.493 180.469 199.99C180.266 195.974 180.543 191.872 180.837 187.672C180.997 185.573 181.185 183.45 181.417 181.305C181.535 180.232 181.657 179.156 181.82 178.071C181.862 177.799 181.904 177.529 181.962 177.252C181.978 177.181 181.987 177.117 182.01 177.04L182.042 176.927L182.062 176.864C182.082 176.821 182.109 176.777 182.141 176.739C182.224 176.645 182.238 176.662 182.273 176.639L182.368 176.593L182.558 176.5C183.056 176.239 183.593 176.043 184.144 175.901C185.245 175.62 186.467 175.645 187.548 176.105C188.634 176.555 189.516 177.411 190.115 178.401C191.327 180.406 191.621 182.801 191.616 185.084C191.631 189.671 191.646 194.343 191.662 199.091L191.645 198.995C193.19 202.991 194.851 207.285 196.533 211.636L196.068 211.602C197.455 209.189 198.884 206.701 200.34 204.168C202 201.71 203.895 199.442 205.771 197.102L205.846 197.009L205.968 197.007C207.122 196.987 208.37 196.966 209.622 196.945C214.979 196.855 220.276 196.765 225.498 196.677L225.57 196.676L225.633 196.712C229.094 198.722 232.515 200.71 235.893 202.672L236.072 202.776L236.007 202.975C235.559 204.355 234.505 205.556 233.164 206.109C231.833 206.671 230.396 206.781 229.017 206.714C226.242 206.548 223.604 205.783 221.099 204.78L221.25 204.795C218.337 205.41 215.471 206.015 212.643 206.611L212.814 206.477C211.063 210.086 209.353 213.612 207.677 217.066L207.327 216.762C210.192 214.844 213.003 212.962 215.758 211.118C217.192 210.202 218.876 209.731 220.538 209.723C221.37 209.72 222.197 209.838 222.99 210.054C223.762 210.271 224.53 210.487 225.293 210.702C226.819 211.132 228.328 211.557 229.819 211.976C231.35 212.366 232.764 213.208 233.811 214.352C235.707 216.766 237.359 219.166 239.072 221.475L239.131 221.555L239.105 221.647C238.84 222.582 238.278 223.462 237.434 223.953C236.601 224.447 235.636 224.611 234.728 224.593C232.894 224.557 231.171 224.078 229.562 223.425L229.806 223.34C228.767 225.298 227.817 227.085 226.894 228.824L226.912 228.705C227.69 233.192 228.16 237.386 228.636 241.272L228.627 241.234C230.453 246.392 231.44 251.216 231.782 255.466C231.943 257.586 231.977 259.584 231.654 261.377C231.355 263.169 230.844 264.747 230.286 266.113C229.141 268.842 227.831 270.721 226.92 271.943C226.451 272.547 226.082 272.994 225.818 273.281C225.559 273.571 225.41 273.703 225.41 273.703C225.41 273.703 225.537 273.551 225.785 273.252C226.037 272.957 226.394 272.501 226.85 271.891C227.735 270.656 229.016 268.769 230.129 266.049C230.671 264.688 231.165 263.119 231.448 261.345C231.755 259.573 231.71 257.599 231.537 255.487C231.174 251.268 230.164 246.457 228.332 241.348L228.325 241.328L228.323 241.31C227.832 237.432 227.344 233.229 226.556 228.774L226.545 228.71L226.574 228.655C227.492 226.913 228.436 225.123 229.47 223.162L229.55 223.01L229.715 223.076C231.271 223.704 232.983 224.17 234.729 224.197C235.598 224.214 236.489 224.05 237.227 223.608C237.973 223.169 238.462 222.402 238.709 221.545L238.742 221.717C237.037 219.43 235.334 216.978 233.496 214.644C232.497 213.561 231.174 212.772 229.701 212.4C228.209 211.983 226.699 211.561 225.172 211.134C223.631 210.736 222.123 210.14 220.54 210.18C218.962 210.19 217.365 210.64 216.007 211.511C213.258 213.357 210.453 215.241 207.595 217.16L206.859 217.654L207.245 216.856C208.917 213.4 210.623 209.872 212.369 206.261L212.422 206.152L212.541 206.127C215.369 205.527 218.234 204.92 221.146 204.302L221.221 204.286L221.298 204.317C223.738 205.294 226.364 206.05 229.042 206.204C230.374 206.27 231.742 206.155 232.959 205.639C234.182 205.127 235.101 204.076 235.519 202.811L235.634 203.114C232.255 201.153 228.833 199.167 225.372 197.158L225.506 197.193C220.284 197.282 214.987 197.372 209.63 197.463C208.378 197.484 207.13 197.505 205.976 197.525L206.173 197.43C204.309 199.753 202.39 202.058 200.782 204.439C199.329 206.966 197.901 209.448 196.517 211.856L196.246 212.327L196.051 211.822C194.371 207.47 192.713 203.175 191.17 199.178L191.153 199.134V199.081C191.141 194.341 191.13 189.676 191.118 185.097C191.128 182.832 190.83 180.537 189.697 178.658C189.138 177.733 188.335 176.959 187.36 176.553C186.389 176.139 185.285 176.109 184.26 176.369C183.748 176.5 183.244 176.682 182.773 176.929L182.594 177.016L182.504 177.059L182.459 177.081C182.548 177.254 182.302 176.841 182.374 176.964C182.396 177.008 182.483 177.099 182.479 177.08C182.494 177.072 182.505 177.057 182.507 177.044L182.497 177.079L182.473 177.163C182.456 177.216 182.445 177.289 182.431 177.35C182.377 177.607 182.334 177.876 182.293 178.142C182.131 179.211 182.007 180.287 181.888 181.355C181.654 183.492 181.463 185.611 181.3 187.706C181 191.891 180.718 195.999 180.911 199.959C180.95 200.45 180.987 200.943 181.078 201.413C181.171 201.889 181.305 202.372 181.415 202.848C181.647 203.803 181.878 204.752 182.107 205.693C182.564 207.575 183.015 209.429 183.459 211.254C184.345 214.903 185.203 218.433 186.03 221.837C187.681 228.644 189.209 234.943 190.596 240.663L190.59 240.644C191.631 243.382 192.637 245.978 193.645 248.401C194.137 249.623 194.691 250.75 195.217 251.882C195.717 253.019 196.104 254.161 196.388 255.285C196.967 257.535 197.086 259.706 197.124 261.664C197.2 263.64 197.042 265.431 196.923 267.035C196.656 270.243 196.367 272.711 196.17 274.379C196.066 275.203 195.986 275.832 195.93 276.272C195.871 276.697 195.829 276.913 195.829 276.913Z" fill="#F5F5F5"/>
<path d="M227.809 212.53C227.818 212.617 226.886 212.615 225.642 213.339C224.392 214.026 222.9 215.411 221.179 216.821C219.463 218.24 217.892 219.502 216.736 220.396C215.581 221.29 214.842 221.817 214.795 221.762C214.748 221.708 215.401 221.083 216.497 220.116C217.593 219.148 219.132 217.838 220.852 216.416C222.575 215.007 224.099 213.663 225.47 213.014C226.834 212.335 227.829 212.473 227.809 212.53Z" fill="#F5F5F5"/>
<path d="M171.885 290.982C172.021 290.934 175.643 300.914 179.975 313.268C184.308 325.627 187.71 335.681 187.574 335.729C187.438 335.777 183.817 325.799 179.484 313.44C175.151 301.086 171.749 291.029 171.885 290.982Z" fill="#263238"/>
</svg>
