<svg width="668" height="558" viewBox="0 0 668 558" fill="none" xmlns="http://www.w3.org/2000/svg">
<path d="M421.256 87.2227C421.376 86.8914 424.196 82.066 427.84 76.824C444.785 52.4101 469.911 28.8808 499.378 29.7653L499.399 29.5843C486.077 28.1227 473.022 31.6709 461.565 37.9954C442.66 48.1858 424.241 67.6069 414.163 82.5339L421.256 87.2227Z" fill="#F7CC7F"/>
<path d="M492.839 43.2745L494.833 29.5428L484.653 20.1174C483.492 19.0451 484.069 17.1088 485.626 16.839L499.3 14.493L505.118 1.89841C505.781 0.464111 507.799 0.412886 508.537 1.81304L514.994 14.09L528.77 15.7326C530.337 15.9204 531.01 17.8226 529.907 18.9563L520.226 28.894L522.92 42.5028C523.228 44.0532 521.626 45.2792 520.209 44.5825L507.765 38.4423L495.656 45.2109C494.276 45.9827 492.613 44.8386 492.839 43.2745Z" fill="#F7CC7F"/>
<path d="M224.711 18.1434L222.897 24.8675L228.334 29.4402L225.767 36.8371L233.06 39.9208L230.526 48.4105L236.891 52.0782L235.789 60.6465L232.546 60.2298L233.37 53.8233L226.654 49.9541L229.089 41.7923L221.674 38.6573L224.507 30.4954L219.198 26.0321L220.879 19.7962L216.779 17.5935L218.326 14.7147L224.711 18.1434Z" fill="#9BC1F9"/>
<path d="M71.1901 436.122C79.0508 444.892 78.3149 458.371 69.5461 466.229C60.7777 474.087 47.2972 473.349 39.4365 464.58C31.5761 455.813 32.312 442.334 41.0804 434.473C49.8488 426.615 63.3297 427.353 71.1901 436.122Z" fill="#F7CC7F"/>
<path d="M49.0793 460.475C53.282 465.163 60.4895 465.556 65.1778 461.356C69.8657 457.155 70.2591 449.946 66.0568 445.261L49.0793 460.475Z" fill="#EFEFEF"/>
<path d="M47.9859 382.723L42.4149 379.564C40.8748 382.019 39.001 384.218 37.1816 385.878C35.663 387.261 33.331 387.227 31.8513 385.803L31.673 385.629C30.0428 384.058 30.0803 381.425 31.7745 379.922C33.501 378.392 35.1764 376.477 36.4771 374.182C38.3727 370.842 38.3795 367.823 36.0342 366.491C33.806 365.228 31.3343 366.307 27.4075 369.814C21.7388 374.892 16.3792 377.511 10.691 374.284C5.53077 371.357 3.54638 365.429 5.87294 358.456L0.302246 355.297L3.56141 349.549L8.72129 352.476C10.0261 350.396 11.3053 348.805 12.5275 347.562C14.0212 346.042 16.4662 346.022 18.0005 347.5C19.5874 349.03 19.5946 351.574 18.0098 353.104C16.8217 354.252 15.5316 355.771 14.3579 357.841C12.1966 361.652 13.1401 363.817 14.782 364.746C16.7172 365.846 19.1124 364.49 23.8154 360.569C30.235 354.989 35.0565 354.002 40.3339 356.994C45.5528 359.955 47.9149 366.177 45.2632 373.584L51.2448 376.979L47.9859 382.723Z" fill="#FAE0B2"/>
<path d="M595.866 147.47L592.178 156.663L576.732 152.363L569.684 165.139L557.598 163.811L556.926 169.927L573.088 171.706L579.768 159.596L595.838 164.07L601.388 150.239L595.866 147.47Z" fill="#7808A0"/>
<path d="M569.151 473.053L572.385 465.024C568.823 463.399 565.541 461.281 562.994 459.143C560.866 457.354 560.494 454.226 562.14 451.986L562.338 451.716C564.152 449.25 567.686 448.83 570.005 450.831C572.364 452.87 575.226 454.772 578.535 456.104C583.353 458.047 587.397 457.514 588.759 454.134C590.053 450.924 588.165 447.806 582.763 443.171C574.946 436.485 570.479 429.771 573.785 421.575C576.78 414.134 584.371 410.415 594.127 412.286L597.365 404.254L605.649 407.594L602.651 415.032C605.67 416.408 608.029 417.836 609.914 419.253C612.219 420.981 612.684 424.252 610.976 426.575C609.211 428.972 605.806 429.44 603.47 427.589C601.719 426.202 599.451 424.744 596.47 423.542C590.975 421.329 588.247 422.982 587.294 425.349C586.171 428.135 588.411 431.103 594.506 436.703C603.132 444.305 605.318 450.589 602.251 458.197C599.222 465.721 591.307 469.996 580.908 467.77L577.432 476.393L569.151 473.053Z" fill="#96D9C9"/>
<path d="M118.354 195.324C119.173 196.406 119.111 197.919 118.205 198.93C116.428 200.914 113.526 203.315 109.882 205.087C104.553 207.686 98.4384 208.465 92.6741 206.477C89.0717 205.234 85.6428 202.71 83.0673 199.268L79.9181 200.801C78.8479 201.324 77.5574 200.88 77.036 199.808L76.9964 199.729C76.4749 198.657 76.9199 197.366 77.9901 196.843L80.5741 195.587C80.0605 194.736 79.7047 194.21 79.4684 193.726C79.075 192.92 78.6836 191.912 78.3336 190.782L75.669 192.079C74.5988 192.602 73.3086 192.158 72.7872 191.086C72.2657 190.017 72.7103 188.726 73.7806 188.203L77.011 186.633C76.0894 182.483 76.2529 178.307 77.4949 174.704C79.607 168.581 84.2345 163.926 89.8059 161.211C93.0541 159.63 95.7884 158.995 98.0272 158.759C99.5837 158.595 100.99 159.692 101.211 161.242L101.218 161.29C101.446 162.895 100.314 164.367 98.7065 164.582C96.8781 164.831 94.7445 165.402 92.322 166.583C88.7691 168.311 85.7668 171.173 84.2782 175.298C83.4498 177.699 83.22 180.509 84.0358 183.207L102.205 174.356C103.275 173.837 104.566 174.281 105.087 175.349C105.609 176.422 105.163 177.709 104.093 178.232L85.1166 187.476C85.4687 188.405 85.8207 189.334 86.096 189.897C86.4501 190.625 86.8042 191.352 87.3568 192.281L106.374 183.016C107.466 182.483 108.784 182.938 109.316 184.03C109.849 185.123 109.394 186.441 108.302 186.974L90.0924 195.846C91.7985 197.912 93.9123 199.381 96.0743 200.125C100.358 201.536 104.139 201.092 108.176 199.125C110.637 197.926 112.636 196.41 114.128 194.986C115.356 193.814 117.33 193.971 118.354 195.324Z" fill="#86B1F2"/>
<path d="M59.6136 252.734L50.2114 253.69L47.0049 238.729L33.0851 238.428L28.8551 227.627L23.3872 229.768L29.0443 244.217L42.2353 244.5L45.5713 260.062L59.7198 258.628L59.6136 252.734Z" fill="#C340F1"/>
<path d="M507.82 143.334L513.724 145.284C513.724 145.284 523.084 142.248 524.006 140.342C524.928 138.433 525.188 133.806 526.52 133.679C527.851 133.553 530.423 133.987 531.038 137.153C531.481 139.454 528.114 146.1 528.64 146.807C528.972 147.251 532.332 148.466 534.801 149.313C536.426 149.873 537.598 151.301 537.847 153.025V153.032C538.014 154.197 537.355 155.331 536.266 155.754L534.565 156.41L535.108 158.162C535.511 159.47 534.797 160.873 533.507 161.303L532.192 161.744L532.612 162.813C533.155 164.189 532.393 165.75 530.979 166.16L529.832 166.494L529.88 166.802C530.075 168.079 529.275 169.305 528.036 169.629L526.895 169.93L511.173 164.742C509.701 164.254 508.346 163.469 507.188 162.427L501.967 159.671C501.407 159.374 501.147 158.705 501.359 158.093L506.201 144.153C506.433 143.481 507.154 143.115 507.82 143.334Z" fill="#FAE0B2"/>
<path d="M147.987 162.065C147.856 161.697 144.706 156.308 140.639 150.458C121.721 123.203 93.6698 96.9345 60.7736 97.9181L60.75 97.72C75.6232 96.0876 90.1958 100.049 102.989 107.108C124.093 118.487 144.656 140.165 155.906 156.83L147.987 162.065Z" fill="#F7CC7F"/>
<path d="M68.0721 113.002L65.847 97.6758L77.2121 87.1508C78.5063 85.9521 77.8643 83.7904 76.1258 83.4933L60.8609 80.8706L54.3655 66.811C53.6255 65.2094 51.3703 65.1513 50.5494 66.712L43.3406 80.4232L27.961 82.2537C26.2095 82.462 25.4572 84.5895 26.6886 85.8531L37.498 96.945L34.4888 112.138C34.1456 113.87 35.9361 115.243 37.5182 114.461L51.4079 107.61L64.9274 115.167C66.4671 116.028 68.3255 114.747 68.0721 113.002Z" fill="#F7CC7F"/>
<path d="M582.606 378.911L583.671 375.277C589.313 374.222 594.168 370.417 595.77 364.971C596.282 363.225 596.634 361.75 596.894 359.776L589.336 357.601L590.682 353.021L597.505 354.988C597.778 352.7 598.171 349.74 599.001 346.909C601.517 338.334 609.105 334.447 617.25 336.793C619.572 337.463 621.365 338.327 622.7 339.218C623.909 340.024 624.226 341.653 623.431 342.865C622.628 344.081 620.999 344.429 619.749 343.668C618.711 343.036 617.393 342.428 615.733 341.95C610.01 340.304 606.51 343.552 604.997 348.712C604.078 351.836 603.836 354.288 603.594 356.74L614.163 359.783L612.817 364.359L602.839 361.487C602.248 364.311 601.586 367.115 600.155 369.543C598.43 372.436 595.903 374.543 592.789 375.933L592.748 376.076L612.032 381.629C613.456 382.039 614.279 383.517 613.862 384.928L613.807 385.119C613.391 386.533 611.902 387.346 610.475 386.932L582.606 378.911Z" fill="#F7CC7F"/>
<path d="M3.04274 165.132L6.63177 159.067L3.67244 152.674C3.33539 151.946 3.97944 151.147 4.76281 151.321L11.637 152.862L16.803 148.074C17.3914 147.527 18.3499 147.893 18.4251 148.692L19.0848 155.706L25.2367 159.138C25.9375 159.531 25.8856 160.556 25.1493 160.873L18.6826 163.667L17.3186 170.582C17.1636 171.367 16.1726 171.634 15.6426 171.033L10.9861 165.746L3.99138 166.586C3.19469 166.679 2.63432 165.821 3.04274 165.132Z" fill="#7808A0"/>
<path d="M665.847 262.518L657.238 261.821L656.063 269.785L647.55 269.474L645.487 276.949L639.081 277.759L639.491 281.003L648.059 279.92L650.012 272.838L658.87 273.159L660.025 265.328L667.828 265.956L665.847 262.518Z" fill="#F48C7F"/>
<path d="M204.993 69.1945L204.467 60.5716L196.417 60.5307L195.524 52.0581L187.836 51.0711L186.131 44.8421L182.977 45.7028L185.257 54.0354L192.543 54.9745L193.472 63.7851L201.39 63.8261L201.866 71.6396L204.993 69.1945Z" fill="#F48C7F"/>
<path d="M18.3775 323.681L24.8849 326.163L29.983 321.218L37.0804 324.517L40.8856 317.575L49.0769 320.955L53.3691 314.993L61.7816 316.957L61.0392 320.139L54.7487 318.671L50.2195 324.961L42.3455 321.714L38.4768 328.776L30.6448 325.132L25.6662 329.961L19.6345 327.659L17.0286 331.515L14.3196 329.684L18.3775 323.681Z" fill="#F7CC7F"/>
<path d="M410.964 49.4732L410.543 54.7187L402.027 54.9714L400.466 62.5664L394.125 63.7958L394.75 67.0059L403.229 65.3599L404.711 58.1644L413.566 57.9015L414.201 50.006L410.964 49.4732Z" fill="#C340F1"/>
<path d="M583.695 50.3337C593.52 59.7523 593.844 75.3554 584.422 85.177C575.001 95.0019 559.401 95.3264 549.58 85.9044C539.756 76.4824 539.431 60.8827 548.853 51.0577C558.275 41.2362 573.874 40.9118 583.695 50.3337Z" fill="#FFF3D9"/>
<path d="M583.275 70.9366L572.788 74.1604L569.499 84.6273C569.233 85.4708 568.113 85.645 567.604 84.921L561.297 75.943L550.328 76.0489C549.44 76.0557 548.928 75.0449 549.461 74.338L556.052 65.5648L552.562 55.1628C552.278 54.3227 553.084 53.5236 553.921 53.8138L564.298 57.3688L573.112 50.8359C573.823 50.3066 574.833 50.8257 574.82 51.7101L574.642 62.6792L583.579 69.0447C584.303 69.557 584.122 70.6771 583.275 70.9366Z" fill="#FED333"/>
<path d="M653.522 177.357L659.304 177.009C659.929 176.972 660.257 176.162 659.857 175.643L656.176 170.825L657.764 164.691C657.934 164.029 657.34 163.448 656.76 163.715L651.378 166.153L646.58 162.711C646.061 162.335 645.364 162.789 645.405 163.472L645.76 169.797L641.208 173.802C640.717 174.236 640.881 175.093 641.488 175.25L647.089 176.722L649.073 182.64C649.288 183.279 650.084 183.358 650.422 182.774L653.522 177.357Z" fill="#F47458"/>
<path d="M213.389 284.155C213.389 284.155 223.749 264.221 225.355 256.903C226.962 249.588 232.363 212.764 232.058 210.364C231.484 205.835 225.537 202.902 226.624 200.887C227.709 198.869 233.343 198.244 235.263 198.418C237.182 198.589 241.039 199.709 242.69 201.068C244.342 202.43 240.834 246.59 239.786 256.097C238.739 265.605 225.869 294.885 225.869 294.885L213.389 284.155Z" fill="#F7A491"/>
<path d="M244.546 200.248C244.316 200.395 243.446 200.651 243.242 200.836L241.65 201.338C241.65 201.338 245.741 201.232 248.159 203.827C248.159 203.827 247.012 201.764 244.546 200.248Z" fill="#F47257"/>
<path d="M440.372 208.25C441.977 207.027 442.794 203.957 443.138 201.973L443.951 199.364C443.333 199.077 431.152 196.769 427.461 196.502C427.048 197.657 426.822 198.637 426.908 199.272C427.317 202.322 430.275 222.122 430.275 222.122L440.823 222.818C440.823 222.818 439.061 211.074 440.372 208.25Z" fill="#F7A491"/>
<path d="M440.625 199.937C440.625 199.937 438.446 200.924 436.029 203.841C436.029 203.841 430.237 199.736 430.5 198.534C430.852 196.939 436.817 200.204 436.817 200.204L440.625 199.937Z" fill="#F47458"/>
<path d="M492.077 489.502C492.077 489.502 506.273 499.733 508.506 502.79C511.726 507.185 484.459 515.412 487.436 510.262C488.119 509.077 490.083 505.091 490.168 504.699C490.626 502.605 484.841 496.957 484.841 496.957L492.077 489.502Z" fill="#F7A491"/>
<path d="M480.06 518.868L489.7 505.245C489.7 505.245 495.717 503.848 501.895 496.899C501.895 496.899 507.444 499.016 510.859 503.609C510.859 503.609 504.408 510.566 494.468 518.389C494.468 518.389 488.573 523.611 480.429 526.363C472.281 529.116 480.06 518.868 480.06 518.868Z" fill="#F7CC7F"/>
<path d="M607.978 237.011C607.978 237.011 604.311 243.066 603.901 242.697C603.587 242.414 605.776 239.224 607.336 235.358C607.736 234.368 608.129 233.384 608.48 232.479C609.406 230.102 608.262 228.873 606.909 231.209C606.431 232.035 605.67 233.425 605.263 234.491C604.823 235.642 604.058 236.564 603.546 237.475C602.528 239.289 601.808 240.624 601.756 240.542C601.695 240.436 601.248 240.655 601.64 239.586C602.115 238.302 603.703 235.792 604.256 233.852C604.57 232.752 605.362 230.492 605.362 230.492C605.362 230.492 605.943 226.862 605.748 226.759C604.693 226.209 603.617 228.59 603.378 230.137C602.736 231.052 601.968 233.453 601.968 233.453C601.968 233.453 599.359 237.974 598.738 237.619C598.475 237.469 599.752 234.508 600.568 231.41C601.326 228.535 601.633 225.516 601.108 225.287C600.209 224.901 599.038 228.009 599.038 228.009C599.038 228.009 598.331 230.229 598.044 230.949C597.703 231.793 596.501 234.245 596.501 234.245C596.501 234.245 591.805 242.536 591.245 242.147C590.685 241.761 589.78 240.218 589.89 239.603C589.999 238.992 590.774 237.964 590.887 237.349C590.996 236.734 590.631 235.846 589.907 235.665C589.186 235.484 587.547 238.264 587.547 238.264C587.547 238.264 586.232 240.535 586.198 242.349C586.079 248.629 587.103 248.38 587.066 249.185C587.025 250.138 579.751 260.626 579.751 260.626C579.751 260.626 579.703 260.68 579.614 260.786L588.244 267.066C591.122 262.384 593.359 258.717 594.015 257.569C594.015 257.569 598.345 253.864 600.991 251.45C603.638 249.035 605.123 245.559 605.772 244.763C605.864 244.643 607.869 241.871 609.46 237.803C610.833 234.296 607.978 237.011 607.978 237.011Z" fill="#F8A492"/>
<path d="M513.789 384.32L511.542 395.426L455.101 446.767L495.502 487.655L484.592 498.805C484.592 498.805 424.92 454.987 422.772 449.243C419.46 440.401 465.544 381.844 465.544 381.844L513.789 384.32Z" fill="#263238"/>
<path d="M555.348 520.207C555.348 520.207 569.544 530.442 571.777 533.495C574.997 537.89 547.729 546.117 550.707 540.967C551.39 539.782 553.354 535.797 553.439 535.407C553.897 533.31 548.112 527.662 548.112 527.662L555.348 520.207Z" fill="#F7A491"/>
<path d="M543.317 549.623L552.958 536.001C552.958 536.001 559.36 534.85 565.538 527.901C565.538 527.901 570.705 529.772 574.12 534.365C574.12 534.365 567.665 541.322 557.725 549.145C557.725 549.145 551.834 554.367 543.686 557.119C535.542 559.872 543.317 549.623 543.317 549.623Z" fill="#F7CC7F"/>
<path d="M511.856 389.467L512.737 462.436L557.568 518.681L547.016 530.411C547.016 530.411 491.5 484.247 485.418 471C481.645 462.787 467.903 385.076 467.903 385.076L511.856 389.467Z" fill="#263238"/>
<path d="M466.329 383.716C470.919 373.355 470.389 299.079 488.252 281.679C494.539 282.741 499.023 283.339 500.071 283.612C501.004 291.265 502.031 319.343 502.66 345.075C503.08 362.219 502.646 380.199 504.757 389.675C506.068 395.549 462.135 393.183 466.329 383.716Z" fill="#FAE0B2"/>
<path d="M390.676 324.288C380.233 324.889 375.838 326.545 372.625 325.934C369.415 325.323 360.85 322.263 361.004 319.053C372.475 316.758 392.506 320.313 392.506 320.313C391.13 327.006 390.676 324.288 390.676 324.288Z" fill="#F7A491"/>
<path d="M480.634 284.046C480.634 284.046 476 306.814 470.601 310.727C465.202 314.641 437.832 328.403 436.148 328.304C427.867 327.826 388.275 326.211 388.275 326.211L389.497 313.514L434.12 309.887C434.12 309.887 466.428 288.7 470.782 285.364C473.842 283.441 480.634 284.046 480.634 284.046Z" fill="#7808A0"/>
<path d="M464.533 388.681C460.52 388.681 459.038 388.128 456.364 387.322C456.364 387.322 454.609 357.513 463.16 313.309C466.384 296.644 466.472 286.528 473.06 283.964C479.002 281.652 486.272 281.344 488.252 281.679C470.751 331.197 470.693 369.311 468.214 380.366C466.971 385.908 465.888 388.715 464.533 388.681Z" fill="#7808A0"/>
<path d="M490.1 274.2L488.266 281.679C488.266 281.679 487.846 288.195 490.872 288.779C494.519 289.486 499.935 284.028 499.935 284.028L503.073 262.93L490.1 274.2Z" fill="#F7A491"/>
<path d="M490.1 274.2L488.266 281.679C488.266 281.679 487.846 288.195 490.872 288.779C494.519 289.486 499.935 284.028 499.935 284.028L503.073 262.93L490.1 274.2Z" fill="#F7A491"/>
<path d="M503.042 263.026L490.1 274.2L488.73 279.787C493.675 278.599 500.73 273.155 503.042 263.026Z" fill="#F47458"/>
<path d="M490.056 243.615C486.928 243.605 484.11 245.777 483.011 248.902C482.096 251.49 480.928 255.329 480.187 259.734C478.817 267.845 483.438 275.272 487.457 275.867C491.476 276.457 501.052 273.794 503.172 262.302C504.077 257.374 505.272 250.913 501.222 247.519C498.07 244.879 493.655 243.626 490.056 243.615Z" fill="#F7A491"/>
<path d="M501.864 271.062C501.864 271.062 516.036 258.433 516.654 248.563C517.272 238.698 508.161 233.411 500.368 233.138C496.851 233.012 494.468 233.169 490.834 233.63C483.028 234.613 477.967 238.073 479.749 244.469C482.14 253.058 498.34 245.811 501.652 248.478C504.388 250.677 499.955 255.967 502.612 257.985C505.108 259.881 503.835 259.239 503.008 262.845C502.182 266.455 501.864 271.062 501.864 271.062Z" fill="#13375B"/>
<path d="M507.328 259.618C506.976 261.984 505.532 263.729 504.101 263.518C502.67 263.306 501.792 261.219 502.144 258.853C502.496 256.49 503.94 254.745 505.371 254.956C506.802 255.168 507.68 257.255 507.328 259.618Z" fill="#F7A491"/>
<path d="M442.797 195.956C441.527 193.733 439.628 196.018 440.857 198.91C440.919 199.054 440.861 199.272 440.864 199.252C440.547 200.006 437.6 202.359 437.6 202.359C437.6 202.359 439.963 208.967 441.288 207.229C442.616 205.491 443.623 199.863 443.623 199.863L442.797 195.956Z" fill="#F7A491"/>
<path d="M592.181 263.535L582.53 253.983C582.53 253.983 564.193 280.299 554.89 284.865C545.851 289.301 515.749 287.686 514.687 287.447C511.081 286.624 499.983 283.588 499.983 283.588C499.983 283.588 490.68 363.444 502.8 391.208C506.754 400.265 531.345 394.261 531.345 394.261C531.345 394.261 523.757 361.009 523.351 356.659C522.965 352.496 520.854 319.517 521.192 319.179C522.08 318.294 555.649 310.976 564.852 303.986C574.567 296.602 592.181 263.535 592.181 263.535Z" fill="#7808A0"/>
<path d="M123.595 336.002C140.147 353.251 154.683 337.965 153.963 338.222C154.531 337.983 158.161 338 160.528 337.907C170.387 337.521 179.365 330.456 183.283 321.088C198.038 319.159 207.685 305.523 203.366 293.721C209.886 285.603 207.876 272.64 201.707 264.341C200.271 250.736 182.499 248.434 170.266 253.198C164.064 255.616 158.784 260.838 156.066 267.169C144.275 266.886 134.207 275.56 131.581 287.635C113.242 292.751 106.704 318.397 123.595 336.002Z" fill="#FF3B3B"/>
<path d="M229.929 503.153C228.204 512.469 225.267 520.665 224.866 521.631C224.673 522.092 222.825 523.786 222.613 524.261C223.605 535.619 230.844 542.367 237.639 547.179C236.165 541.448 232.883 534.878 233.307 533.604C233.981 531.576 236.608 522.321 242.203 510.679C236.547 510.041 234.533 506.605 229.929 503.153Z" fill="#F7A491"/>
<path d="M209.236 368L169.965 394.814C169.965 394.814 189.09 407.235 195.649 413.484C202.207 419.733 237.294 448.081 237.865 449.512C238.289 450.574 234.609 464.016 226.171 507.055C229.902 510.87 238.12 514.609 242.986 515.842C253.189 492.879 264.714 445.107 263.42 439.851C261.412 431.696 209.236 368 209.236 368Z" fill="#252F34"/>
<path d="M109.8 421.968C110.954 423.091 118.619 438.022 121.535 446.013C125.803 443.325 128.385 440.122 133.154 438.312C129.391 432.868 122.054 419.765 121.451 416.647C120.02 409.247 118.34 408.157 118.34 408.157C118.34 408.157 93.5386 416.548 91.8865 418.901C90.2344 421.251 105.164 417.446 109.8 421.968Z" fill="#F7A491"/>
<path d="M121.74 418.289C123.664 418.293 121.573 409.598 121.132 407.593C120.636 405.34 119.331 404.663 119.006 404.585C118.126 404.366 90.5626 413.693 85.9057 417.043C85.5912 417.268 85.0254 417.985 84.9383 418.146C82.3874 422.906 105.111 423.811 108.381 421.732C111.289 419.881 113.084 418.265 121.74 418.289Z" fill="#3C8F7C"/>
<path d="M216.371 376.388C216.371 376.388 183.102 363.288 182.669 364.681C179.225 375.776 168.506 372.197 162.144 391.738C159.479 399.924 157.381 421.527 155.584 437.55C154.35 448.56 152.624 457.385 152.624 457.385C152.624 457.385 144.922 445.992 130.425 429.658C129.301 428.395 117.596 439.524 117.596 439.524C140.685 485.309 157.528 491.784 161.209 490.537C177.893 484.899 200.01 408.151 199.973 408.157C202.685 402.874 216.371 376.388 216.371 376.388Z" fill="#263238"/>
<path d="M165.025 298.812C165.025 298.812 125.31 298.761 116.807 298.273C109.11 297.829 78.5862 298.604 77.3931 298.468C76.1996 298.328 68.3098 284.965 66.9982 286.402C65.6872 287.837 71.389 293.027 69.6252 294.373C67.8618 295.722 48.9181 292.703 49.1694 294.103C49.64 296.726 60.6919 296.391 60.6806 297.658C60.6694 298.922 49.1134 296.948 48.33 299.048C47.5463 301.148 59.4461 299.905 59.9208 300.841C60.3958 301.777 48.8843 303.494 50.0621 305.448C50.7013 306.51 60.2616 303.675 60.2152 305.123C60.1687 306.568 53.1938 309.857 54.0493 311.011C54.9047 312.162 59.523 307.476 63.5703 307.418C67.6173 307.36 70.5151 305.246 76.9758 307.019C80.1656 307.893 104.517 310.871 125.095 312.63C146.19 314.433 163.482 315.003 163.482 315.003L165.025 298.812Z" fill="#F7A491"/>
<path d="M223.916 334.12C224.443 327.744 223.188 315.604 222.901 313.486C224.83 306.865 228.934 292.73 230.409 289.953C230.409 289.953 223.494 276.666 216.416 276.758C216.416 276.758 209.187 293.051 203.597 295.967C203.516 295.947 201.62 296.814 200.786 296.807C195.389 296.77 176.532 296.196 173.012 296.135L174.993 322.888C182.425 342.596 181.069 360.036 179.758 366.111C179.029 369.489 211.778 379.635 216.809 376.397C217.008 376.268 222.852 347.011 223.916 334.12Z" fill="#C340F1"/>
<path d="M182.595 297.145C179.116 295.482 153.945 296.315 153.945 296.315C153.945 296.315 150.427 313.845 153.268 318.059C153.268 318.059 175.775 321.405 175.136 323.253L182.595 297.145Z" fill="#C340F1"/>
<path d="M186.981 284.883C186.981 284.883 189.597 294.09 190.072 298.068C190.547 302.046 196.609 314.443 204.862 312.671C213.114 310.898 204.504 299.325 202.888 295.677C201.272 292.034 196.903 277.301 196.903 277.301L186.981 284.883Z" fill="#F7A491"/>
<path d="M198.736 283.342C197.698 279.985 196.903 277.301 196.903 277.301L186.981 284.882C186.981 284.882 187.462 286.576 188.049 288.823C193.294 289.533 196.88 287.027 198.736 283.342Z" fill="#F47257"/>
<path d="M179.788 257.31C179.788 257.31 175.463 259.793 173.945 265.062C172.427 270.328 174.439 283.834 185.752 286.932C197.065 290.033 201.788 279.248 199.346 270.905C196.904 262.562 191.702 252.027 179.788 257.31Z" fill="#F7A491"/>
<path d="M200.707 267.637C200.52 269.891 199.303 271.629 197.991 271.52C196.678 271.41 195.767 269.494 195.955 267.241C196.143 264.99 197.359 263.252 198.671 263.361C199.984 263.47 200.895 265.383 200.707 267.637Z" fill="#F7A491"/>
<path d="M224.78 521.908C224.068 520.118 216.883 525.818 215.188 526.972C213.281 528.273 213.141 529.735 213.187 530.066C213.31 530.94 231.593 553.459 236.939 556.57C237.444 556.864 238.506 556.874 238.819 556.751C241.789 555.607 236.955 537.183 233.056 533.546C230.536 531.193 227.98 529.95 224.78 521.908Z" fill="#3C8F7C"/>
<path d="M181.099 256.606C181.099 256.606 179.277 271.731 174.437 274.528C169.596 277.321 171.737 283.987 171.737 283.987C171.737 283.987 167.084 268.504 170.87 263.453C174.655 258.406 181.099 256.606 181.099 256.606Z" fill="#FF3B3B"/>
<path d="M177.359 276.652C178.711 278.599 178.74 280.918 177.423 281.833C176.107 282.748 173.944 281.908 172.592 279.961C171.24 278.015 171.211 275.696 172.527 274.781C173.843 273.866 176.006 274.706 177.359 276.652Z" fill="#F7A491"/>
<path d="M351.831 168.864C359.973 158.455 378.526 143.259 382.535 140.031C386.113 143.682 391.509 154.463 392.219 159.333C387.093 160.388 364.849 167.29 351.831 168.864ZM382.354 133.895C376.183 135.11 351.517 168.157 351.517 168.157L350.65 170.445C350.65 170.445 395.272 165.483 396.887 163.578C401.252 158.428 387.428 132.897 382.354 133.895Z" fill="#82C7E6"/>
<path d="M300.854 158.183C298.156 155.492 304.87 144.287 307.93 141.904C308.712 141.463 339.821 161.26 344.162 168.021C326.797 166.143 303.364 160.413 300.854 158.183ZM322.58 139.537C310.44 131.618 307.107 131.676 303.569 133.684C300.031 135.692 286.99 154.402 292.819 160.242C298.648 166.078 344.889 170.241 344.889 170.241L345.934 167.41C345.934 167.41 334.716 147.453 322.58 139.537Z" fill="#82C7E6"/>
<path d="M345.261 179.011H347.863C350.442 179.011 352.531 176.921 352.531 174.342V166.686C352.531 164.108 350.442 162.018 347.863 162.018H345.261C342.683 162.018 340.59 164.108 340.59 166.686V174.342C340.59 176.921 342.683 179.011 345.261 179.011Z" fill="#82C7E6"/>
<path d="M443.904 170.589L232.361 169.954C226.732 169.937 222.414 174.947 223.258 180.517L226.532 202.103L237.135 202.082L243.525 310.717C243.867 316.529 248.678 321.071 254.497 321.071H423.343L430.367 201.679L440.355 201.662L443.904 170.589Z" fill="#B806EA"/>
<path d="M233.643 204.647L233.689 202.038C231.664 201.246 229.276 201.502 228.094 201.181L225.257 199.091C224.661 198.832 223.822 199.484 223.828 200.133C223.834 200.761 224.632 202.011 225.034 202.332C225.034 202.332 230.107 206.508 231.89 207.779C232.774 208.407 235.552 210.104 235.552 210.104L237.172 207.075L233.643 204.647Z" fill="#F7A491"/>
<path d="M426.955 321.071H297.354L290.415 172.836H444.395L437.938 310.765C437.668 316.529 432.832 321.071 426.955 321.071Z" fill="#CD40FF"/>
<path d="M450.754 201.734L283.595 202.178L279.778 170.012L443.531 170.64C448.91 170.661 453.117 175.281 452.639 180.636L450.754 201.734Z" fill="#C340F1"/>
<path d="M283.595 202.178L443.029 201.734L288.649 210.162L283.595 202.178Z" fill="#B32323"/>
<path d="M350.756 202.031H346.32V170.265H350.756V202.031Z" fill="#82C7E6"/>
<path d="M364.729 321.293H359.187V201.881H364.729V321.293Z" fill="#82C7E6"/>
<path d="M230.882 107.964C245.646 113.695 257.806 117.55 269.932 120.774C273.931 121.836 280.556 124.862 284.237 122.167C286.15 120.767 286.952 118.66 285.829 116.417C283.766 112.308 277.394 112.015 273.364 110.942C261.081 107.671 247.34 103.385 233.701 98.2487C231.143 97.2857 228.153 99.2186 227.433 101.694C226.614 104.515 228.329 106.974 230.882 107.964Z" fill="#DEF0F8"/>
<path d="M325.393 85.2754C321.039 51.9143 321.323 51.8289 319.475 48.6803C317.58 45.4531 312.389 45.8971 311.365 49.6297C310.354 53.3213 310.586 52.7339 315.302 87.8196C315.678 90.6096 319.11 92.2249 321.62 91.5931C324.611 90.8418 325.762 88.0757 325.393 85.2754Z" fill="#DEF0F8"/>
<path d="M379.034 89.5615C382.337 85.105 385.123 80.3513 387.401 75.2937C389.522 70.598 393.401 63.6827 389.764 59.0314C388.982 58.0308 387.141 57.5562 385.963 57.9626C381.029 59.6632 380.086 66.582 378.116 70.9054C375.964 75.6249 373.308 80.1122 370.388 84.3912C368.855 86.6417 369.889 89.9611 372.13 91.2998C374.653 92.8092 377.409 91.754 379.034 89.5615Z" fill="#DEF0F8"/>
<path d="M453.291 114.918C454.783 112.869 453.53 110.212 451.778 108.9C448.165 106.206 441.793 108.692 437.856 109.778C433.266 111.045 428.837 112.756 424.514 114.74C422.021 115.884 421.331 119.422 422.601 121.662C424.083 124.288 426.983 124.637 429.523 123.578C446.123 116.666 449.606 119.972 453.291 114.918Z" fill="#DEF0F8"/>
</svg>
