<svg width="163" height="190" viewBox="0 0 163 190" fill="none" xmlns="http://www.w3.org/2000/svg">
<path d="M121.947 27.0938H41.9079C19.2479 27.0938 0.87793 45.4637 0.87793 68.1237V148.167C0.87793 170.825 19.2479 189.192 41.9079 189.192H69.4159H69.4959H94.4389V189.185L94.4639 189.192H121.946C144.607 189.192 162.976 170.825 162.976 148.167V68.1237C162.977 45.4637 144.608 27.0938 121.947 27.0938Z" fill="#7BEFE5"/>
<path d="M121.947 4.3291H41.9079C19.2479 4.3291 0.87793 22.6981 0.87793 45.3591V125.401C0.87793 148.059 19.2479 166.427 41.9079 166.427H69.4159H69.4959H81.9279H94.4399H94.4649H121.947C144.608 166.427 162.977 148.059 162.977 125.401V45.3591C162.977 22.6981 144.608 4.3291 121.947 4.3291Z" fill="#074785"/>
<path d="M121.947 0.366211H41.9079C19.2479 0.366211 0.87793 18.7342 0.87793 41.3952V121.438C0.87793 144.096 19.2479 162.464 41.9079 162.464H69.4159H69.4959H81.9279H94.4399H94.4649H121.947C144.608 162.464 162.977 144.096 162.977 121.438V41.3952C162.977 18.7342 144.608 0.366211 121.947 0.366211Z" fill="#29AEFD"/>
<path d="M81.9269 28.7881C50.8859 28.7881 25.7219 53.9521 25.7219 84.9931C25.7219 116.033 50.8859 141.197 81.9269 141.197C112.969 141.197 138.132 116.033 138.132 84.9931C138.132 53.9511 112.969 28.7881 81.9269 28.7881Z" fill="#7BEFE5"/>
<path d="M113.863 58.5342C113.615 57.8112 113.318 57.6132 112.857 57.4382C111.847 57.0552 110.135 57.6302 110.135 57.6302C110.135 57.6302 49.558 79.4042 46.097 81.8162C45.351 82.3362 45.104 82.6372 44.979 82.9912C44.38 84.7082 46.244 85.4652 46.244 85.4652L61.858 90.5522C61.858 90.5522 62.441 90.6362 62.648 90.5062C66.199 88.2622 98.383 67.9392 100.242 67.2552C100.534 67.1682 100.75 67.2682 100.692 67.4692C99.949 70.0762 71.996 94.9252 71.996 94.9252C71.996 94.9252 71.891 95.0562 71.822 95.2142L71.786 95.1912L70.328 110.68C70.328 110.68 69.719 115.424 74.463 110.68C77.811 107.331 81.05 104.53 82.67 103.168C88.039 106.873 93.817 110.975 96.311 113.12C97.563 114.197 98.61 114.371 99.472 114.339C101.84 114.249 102.5 111.651 102.5 111.651C102.5 111.651 113.539 67.2212 113.908 61.2692C113.943 60.6852 113.994 60.3132 113.998 59.9132C114.005 59.3562 113.953 58.7972 113.863 58.5342Z" fill="white"/>
<path d="M20.466 159.401C20.466 159.401 20.493 159.481 20.536 159.631C20.578 159.781 20.647 160.003 20.717 160.284C20.863 160.848 21.0439 161.654 21.2139 162.623C21.2999 163.107 21.3829 163.633 21.4599 164.189C21.5409 164.744 21.5869 165.339 21.6369 165.951C21.6639 166.258 21.6819 166.57 21.7019 166.885C21.7219 167.201 21.74 167.521 21.751 167.844C21.783 168.489 21.793 169.145 21.807 169.8C21.808 170.449 21.813 171.098 21.795 171.738C21.791 172.057 21.781 172.374 21.768 172.686C21.754 173 21.7449 173.311 21.7239 173.615C21.6959 174.223 21.636 174.815 21.605 175.37C21.567 175.927 21.52 176.454 21.471 176.942C21.367 177.917 21.2419 178.735 21.1369 179.311C21.0879 179.598 21.0329 179.827 21.0029 179.981C20.9709 180.135 20.9479 180.218 20.9479 180.218C20.9479 180.218 20.921 180.139 20.877 179.988C20.836 179.839 20.767 179.619 20.696 179.338C20.55 178.775 20.3689 177.967 20.1969 176.992C20.1119 176.504 20.028 175.974 19.95 175.414C19.869 174.851 19.8249 174.264 19.7739 173.65C19.7479 173.345 19.7309 173.035 19.7099 172.72C19.6899 172.406 19.673 172.087 19.661 171.765C19.63 171.124 19.6209 170.47 19.6069 169.818C19.6069 169.172 19.603 168.527 19.621 167.89C19.626 167.572 19.6379 167.255 19.6499 166.945C19.6609 166.631 19.6729 166.324 19.6939 166.02C19.7229 165.412 19.7819 164.827 19.8129 164.264C19.8509 163.702 19.8969 163.171 19.9469 162.681C20.0499 161.699 20.175 160.878 20.278 160.304C20.328 160.017 20.381 159.79 20.411 159.636C20.445 159.483 20.466 159.401 20.466 159.401Z" fill="#074785"/>
<path d="M34.071 163.693C34.071 163.693 34.0979 163.782 34.1419 163.948C34.1819 164.115 34.2509 164.36 34.3219 164.671C34.4669 165.296 34.648 166.187 34.82 167.259C34.905 167.796 34.988 168.378 35.065 168.993C35.146 169.606 35.191 170.264 35.242 170.941C35.268 171.28 35.2869 171.626 35.3049 171.975C35.3259 172.325 35.343 172.678 35.355 173.036C35.386 173.749 35.396 174.475 35.411 175.2C35.412 175.919 35.417 176.636 35.398 177.343C35.394 177.697 35.385 178.048 35.371 178.395C35.359 178.742 35.349 179.083 35.328 179.421C35.299 180.094 35.24 180.749 35.209 181.362C35.172 181.978 35.125 182.562 35.074 183.101C34.971 184.18 34.846 185.086 34.742 185.723C34.691 186.041 34.638 186.293 34.608 186.463C34.574 186.635 34.552 186.727 34.552 186.727C34.552 186.727 34.5249 186.639 34.4809 186.473C34.4399 186.307 34.3709 186.064 34.2999 185.752C34.1529 185.129 33.9719 184.236 33.7999 183.156C33.7139 182.617 33.6319 182.031 33.5539 181.41C33.4739 180.788 33.4289 180.137 33.3779 179.461C33.3509 179.123 33.334 178.778 33.315 178.43C33.293 178.082 33.2769 177.731 33.2659 177.374C33.2349 176.664 33.2249 175.941 33.2109 175.22C33.2109 174.505 33.207 173.791 33.225 173.086C33.229 172.734 33.2409 172.385 33.2539 172.041C33.2659 171.694 33.2769 171.353 33.2969 171.018C33.3259 170.345 33.3849 169.698 33.4169 169.075C33.4549 168.454 33.5009 167.866 33.5509 167.323C33.6529 166.237 33.7779 165.329 33.8819 164.694C33.9319 164.376 33.985 164.126 34.015 163.956C34.048 163.785 34.071 163.693 34.071 163.693Z" fill="#074785"/>
<path d="M47.6749 164.802C47.6749 164.802 47.702 164.891 47.746 165.057C47.786 165.224 47.856 165.468 47.927 165.781C48.071 166.404 48.253 167.296 48.423 168.369C48.509 168.904 48.593 169.486 48.669 170.101C48.751 170.714 48.796 171.372 48.846 172.05C48.873 172.389 48.891 172.734 48.91 173.083C48.93 173.433 48.9489 173.787 48.9599 174.144C48.9919 174.857 49.0019 175.583 49.0159 176.309C49.0159 177.027 49.0219 177.745 49.0039 178.452C48.9999 178.806 48.99 179.156 48.976 179.504C48.963 179.85 48.9539 180.192 48.9339 180.529C48.9049 181.203 48.8449 181.857 48.8139 182.471C48.7759 183.087 48.7299 183.67 48.6789 184.21C48.5759 185.289 48.4509 186.194 48.3469 186.831C48.2969 187.149 48.243 187.401 48.213 187.571C48.18 187.743 48.1579 187.835 48.1579 187.835C48.1579 187.835 48.1309 187.747 48.0859 187.581C48.0449 187.415 47.976 187.173 47.906 186.86C47.759 186.238 47.578 185.344 47.406 184.265C47.32 183.725 47.2369 183.139 47.1589 182.518C47.0779 181.897 47.0329 181.246 46.9819 180.569C46.9569 180.231 46.939 179.887 46.919 179.54C46.897 179.191 46.882 178.839 46.871 178.483C46.839 177.773 46.8309 177.05 46.8169 176.329C46.8149 175.613 46.8129 174.899 46.8309 174.195C46.8339 173.843 46.846 173.494 46.859 173.149C46.872 172.803 46.882 172.462 46.903 172.126C46.93 171.454 46.991 170.806 47.022 170.183C47.06 169.562 47.106 168.974 47.157 168.431C47.259 167.345 47.382 166.439 47.487 165.802C47.537 165.485 47.5899 165.234 47.6199 165.064C47.6539 164.894 47.6749 164.802 47.6749 164.802Z" fill="#074785"/>
<path d="M61.2789 164.802C61.2789 164.802 61.306 164.891 61.351 165.057C61.392 165.224 61.46 165.468 61.531 165.781C61.676 166.404 61.8569 167.296 62.0289 168.369C62.1129 168.904 62.1969 169.486 62.2739 170.101C62.3549 170.714 62.4 171.372 62.45 172.05C62.477 172.389 62.4959 172.734 62.5159 173.083C62.5359 173.433 62.553 173.787 62.565 174.144C62.596 174.857 62.607 175.583 62.621 176.309C62.622 177.027 62.627 177.745 62.609 178.452C62.604 178.806 62.5939 179.156 62.5809 179.504C62.5679 179.85 62.5579 180.192 62.5379 180.529C62.5089 181.203 62.45 181.857 62.419 182.471C62.38 183.087 62.3349 183.67 62.2839 184.21C62.1819 185.289 62.0559 186.194 61.9519 186.831C61.9009 187.149 61.8489 187.401 61.8169 187.571C61.7849 187.743 61.7619 187.835 61.7619 187.835C61.7619 187.835 61.735 187.747 61.691 187.581C61.649 187.415 61.581 187.173 61.51 186.86C61.365 186.238 61.182 185.344 61.01 184.265C60.925 183.725 60.842 183.139 60.763 182.518C60.683 181.897 60.637 181.246 60.588 180.569C60.561 180.231 60.5439 179.887 60.5249 179.54C60.5039 179.191 60.487 178.839 60.476 178.483C60.444 177.773 60.436 177.05 60.423 176.329C60.422 175.613 60.418 174.899 60.436 174.195C60.44 173.843 60.4519 173.494 60.4649 173.149C60.4759 172.803 60.4879 172.462 60.5079 172.126C60.5369 171.454 60.596 170.806 60.627 170.183C60.666 169.562 60.7109 168.974 60.7619 168.431C60.8639 167.345 60.9889 166.439 61.0929 165.802C61.1419 165.485 61.196 165.234 61.226 165.064C61.258 164.894 61.2789 164.802 61.2789 164.802Z" fill="#074785"/>
<path d="M74.8829 164.802C74.8829 164.802 74.9109 164.891 74.9539 165.057C74.9949 165.224 75.0649 165.468 75.1339 165.781C75.2799 166.404 75.4619 167.296 75.6329 168.369C75.7169 168.904 75.8009 169.486 75.8779 170.101C75.9579 170.714 76.0039 171.372 76.0539 172.05C76.0809 172.389 76.1009 172.734 76.1179 173.083C76.1379 173.433 76.1569 173.787 76.1669 174.144C76.1989 174.857 76.2089 175.583 76.2239 176.309C76.2239 177.027 76.2299 177.745 76.2109 178.452C76.2079 178.806 76.1979 179.156 76.1839 179.504C76.1709 179.85 76.1619 180.192 76.1409 180.529C76.1119 181.203 76.0529 181.857 76.0209 182.471C75.9839 183.087 75.9369 183.67 75.8859 184.21C75.7839 185.289 75.6589 186.194 75.5539 186.831C75.5039 187.149 75.4499 187.401 75.4189 187.571C75.3879 187.743 75.3659 187.835 75.3659 187.835C75.3659 187.835 75.3369 187.747 75.2939 187.581C75.2529 187.415 75.1839 187.173 75.1119 186.86C74.9669 186.238 74.7839 185.344 74.6119 184.265C74.5279 183.725 74.4439 183.139 74.3659 182.518C74.2859 181.897 74.2409 181.246 74.1899 180.569C74.1629 180.231 74.1469 179.887 74.1269 179.54C74.1059 179.191 74.0889 178.839 74.0779 178.483C74.0469 177.773 74.0369 177.05 74.0239 176.329C74.0229 175.613 74.0199 174.899 74.0379 174.195C74.0419 173.843 74.0539 173.494 74.0659 173.149C74.0779 172.803 74.0889 172.462 74.1109 172.126C74.1379 171.454 74.1979 170.806 74.2299 170.183C74.2669 169.562 74.3139 168.974 74.3629 168.431C74.4659 167.345 74.5909 166.439 74.6949 165.802C74.7439 165.485 74.7979 165.234 74.8279 165.064C74.8629 164.894 74.8829 164.802 74.8829 164.802Z" fill="#074785"/>
<path d="M88.4879 164.802C88.4879 164.802 88.5159 164.891 88.5599 165.057C88.5999 165.224 88.6689 165.468 88.7399 165.781C88.8849 166.404 89.0659 167.296 89.2369 168.369C89.3219 168.904 89.4059 169.486 89.4819 170.101C89.5639 170.714 89.6089 171.372 89.6599 172.05C89.6869 172.389 89.7049 172.734 89.7229 173.083C89.7439 173.433 89.7609 173.787 89.7729 174.144C89.8039 174.857 89.8139 175.583 89.8279 176.309C89.8299 177.027 89.8359 177.745 89.8159 178.452C89.8119 178.806 89.8019 179.156 89.7889 179.504C89.7749 179.85 89.7659 180.192 89.7449 180.529C89.7169 181.203 89.6579 181.857 89.6269 182.471C89.5889 183.087 89.5429 183.67 89.4919 184.21C89.3889 185.289 89.2639 186.194 89.1589 186.831C89.1089 187.149 89.0549 187.401 89.0249 187.571C88.9929 187.743 88.9699 187.835 88.9699 187.835C88.9699 187.835 88.9429 187.747 88.8999 187.581C88.8569 187.415 88.7889 187.173 88.7179 186.86C88.5709 186.238 88.3899 185.344 88.2179 184.265C88.1319 183.725 88.0489 183.139 87.9719 182.518C87.8919 181.897 87.8459 181.246 87.7959 180.569C87.7689 180.231 87.7529 179.887 87.7329 179.54C87.7119 179.191 87.6939 178.839 87.6839 178.483C87.6519 177.773 87.6429 177.05 87.6289 176.329C87.6289 175.613 87.6249 174.899 87.6429 174.195C87.6469 173.843 87.6589 173.494 87.6719 173.149C87.6839 172.803 87.6949 172.462 87.7149 172.126C87.7429 171.454 87.8039 170.806 87.8339 170.183C87.8729 169.562 87.9179 168.974 87.9689 168.431C88.0709 167.345 88.1959 166.439 88.2989 165.802C88.3499 165.485 88.4019 165.234 88.4319 165.064C88.4659 164.894 88.4879 164.802 88.4879 164.802Z" fill="#074785"/>
<path d="M102.093 164.802C102.093 164.802 102.12 164.891 102.163 165.057C102.204 165.224 102.273 165.468 102.344 165.781C102.487 166.404 102.67 167.296 102.841 168.369C102.927 168.904 103.01 169.486 103.088 170.101C103.169 170.714 103.214 171.372 103.263 172.05C103.29 172.389 103.309 172.734 103.328 173.083C103.348 173.433 103.367 173.787 103.377 174.144C103.409 174.857 103.42 175.583 103.433 176.309C103.434 177.027 103.439 177.745 103.422 178.452C103.418 178.806 103.408 179.156 103.394 179.504C103.381 179.85 103.371 180.192 103.35 180.529C103.322 181.203 103.262 181.857 103.231 182.471C103.194 183.087 103.148 183.67 103.097 184.21C102.994 185.289 102.869 186.194 102.764 186.831C102.714 187.149 102.661 187.401 102.631 187.571C102.598 187.743 102.574 187.835 102.574 187.835C102.574 187.835 102.547 187.747 102.504 187.581C102.463 187.415 102.393 187.173 102.322 186.86C102.177 186.238 101.995 185.344 101.823 184.265C101.738 183.725 101.654 183.139 101.577 182.518C101.496 181.897 101.451 181.246 101.401 180.569C101.374 180.231 101.358 179.887 101.337 179.54C101.316 179.191 101.299 178.839 101.288 178.483C101.257 177.773 101.247 177.05 101.234 176.329C101.233 175.613 101.229 174.899 101.247 174.195C101.251 173.843 101.263 173.494 101.276 173.149C101.288 172.803 101.299 172.462 101.321 172.126C101.348 171.454 101.408 170.806 101.44 170.183C101.477 169.562 101.524 168.974 101.574 168.431C101.677 167.345 101.8 166.439 101.904 165.802C101.954 165.485 102.008 165.234 102.037 165.064C102.071 164.894 102.093 164.802 102.093 164.802Z" fill="#074785"/>
<path d="M115.698 164.802C115.698 164.802 115.725 164.891 115.769 165.057C115.81 165.224 115.878 165.468 115.949 165.781C116.094 166.404 116.275 167.296 116.446 168.369C116.531 168.904 116.615 169.486 116.692 170.101C116.773 170.714 116.818 171.372 116.868 172.05C116.895 172.389 116.914 172.734 116.933 173.083C116.954 173.433 116.972 173.787 116.983 174.144C117.014 174.857 117.025 175.583 117.038 176.309C117.04 177.027 117.045 177.745 117.026 178.452C117.022 178.806 117.012 179.156 116.999 179.504C116.985 179.85 116.977 180.192 116.956 180.529C116.927 181.203 116.868 181.857 116.837 182.471C116.799 183.087 116.753 183.67 116.702 184.21C116.599 185.289 116.474 186.194 116.37 186.831C116.319 187.149 116.267 187.401 116.235 187.571C116.203 187.743 116.18 187.835 116.18 187.835C116.18 187.835 116.152 187.747 116.109 187.581C116.068 187.415 115.999 187.173 115.928 186.86C115.782 186.238 115.6 185.344 115.428 184.265C115.343 183.725 115.26 183.139 115.182 182.518C115.1 181.897 115.056 181.246 115.006 180.569C114.979 180.231 114.961 179.887 114.942 179.54C114.921 179.191 114.904 178.839 114.894 178.483C114.862 177.773 114.853 177.05 114.839 176.329C114.839 175.613 114.835 174.899 114.853 174.195C114.857 173.843 114.869 173.494 114.882 173.149C114.894 172.803 114.905 172.462 114.925 172.126C114.954 171.454 115.013 170.806 115.044 170.183C115.082 169.562 115.128 168.974 115.179 168.431C115.281 167.345 115.406 166.439 115.509 165.802C115.56 165.485 115.613 165.234 115.642 165.064C115.675 164.894 115.698 164.802 115.698 164.802Z" fill="#074785"/>
<path d="M129.3 163.693C129.3 163.693 129.328 163.782 129.372 163.948C129.413 164.115 129.481 164.36 129.552 164.671C129.698 165.296 129.878 166.187 130.05 167.259C130.134 167.796 130.22 168.378 130.296 168.993C130.376 169.606 130.421 170.264 130.472 170.941C130.499 171.28 130.517 171.626 130.535 171.975C130.557 172.325 130.574 172.678 130.585 173.036C130.616 173.749 130.628 174.475 130.641 175.2C130.642 175.919 130.647 176.636 130.628 177.343C130.624 177.697 130.614 178.048 130.601 178.395C130.589 178.742 130.579 179.083 130.558 179.421C130.53 180.094 130.47 180.749 130.439 181.362C130.402 181.978 130.355 182.562 130.304 183.101C130.201 184.18 130.076 185.086 129.972 185.723C129.921 186.041 129.868 186.293 129.837 186.463C129.805 186.635 129.783 186.727 129.783 186.727C129.783 186.727 129.755 186.639 129.711 186.473C129.67 186.307 129.601 186.064 129.53 185.752C129.385 185.129 129.202 184.236 129.03 183.156C128.944 182.617 128.862 182.031 128.784 181.41C128.704 180.788 128.658 180.137 128.608 179.461C128.581 179.123 128.565 178.778 128.544 178.43C128.524 178.082 128.507 177.731 128.496 177.374C128.464 176.664 128.455 175.941 128.441 175.22C128.441 174.505 128.437 173.791 128.455 173.086C128.459 172.734 128.471 172.385 128.484 172.041C128.496 171.694 128.507 171.353 128.528 171.018C128.555 170.345 128.616 169.698 128.646 169.075C128.684 168.454 128.73 167.866 128.781 167.323C128.883 166.237 129.008 165.329 129.112 164.694C129.161 164.376 129.214 164.126 129.245 163.956C129.28 163.785 129.3 163.693 129.3 163.693Z" fill="#074785"/>
<path d="M142.906 159.401C142.906 159.401 142.933 159.481 142.977 159.631C143.017 159.781 143.087 160.003 143.158 160.284C143.303 160.848 143.484 161.654 143.655 162.623C143.739 163.107 143.823 163.633 143.901 164.189C143.981 164.744 144.027 165.339 144.076 165.951C144.104 166.258 144.123 166.57 144.141 166.885C144.161 167.201 144.18 167.521 144.191 167.844C144.223 168.489 144.233 169.145 144.247 169.8C144.248 170.449 144.253 171.098 144.235 171.738C144.231 172.057 144.221 172.374 144.207 172.686C144.194 173 144.184 173.311 144.164 173.615C144.135 174.223 144.076 174.815 144.045 175.37C144.007 175.927 143.96 176.454 143.909 176.942C143.807 177.917 143.682 178.735 143.578 179.311C143.528 179.598 143.474 179.827 143.444 179.981C143.411 180.135 143.388 180.218 143.388 180.218C143.388 180.218 143.361 180.139 143.317 179.988C143.276 179.839 143.207 179.619 143.136 179.338C142.99 178.775 142.808 177.967 142.636 176.992C142.551 176.504 142.467 175.974 142.39 175.414C142.31 174.851 142.264 174.264 142.214 173.65C142.187 173.345 142.17 173.035 142.151 172.72C142.13 172.406 142.113 172.087 142.102 171.765C142.071 171.124 142.062 170.47 142.049 169.818C142.048 169.172 142.044 168.527 142.062 167.89C142.066 167.572 142.077 167.255 142.091 166.945C142.103 166.631 142.113 166.324 142.135 166.02C142.162 165.412 142.224 164.827 142.254 164.264C142.292 163.702 142.338 163.171 142.389 162.681C142.491 161.699 142.615 160.878 142.719 160.304C142.768 160.017 142.822 159.79 142.852 159.636C142.883 159.483 142.906 159.401 142.906 159.401Z" fill="#074785"/>
<path d="M156.51 146.441C156.51 146.441 156.537 146.518 156.581 146.663C156.622 146.808 156.69 147.02 156.761 147.29C156.906 147.832 157.088 148.605 157.259 149.535C157.343 150.001 157.427 150.505 157.505 151.04C157.585 151.572 157.63 152.144 157.681 152.73C157.707 153.024 157.726 153.324 157.745 153.628C157.766 153.931 157.784 154.237 157.795 154.547C157.827 155.167 157.837 155.796 157.852 156.426C157.852 157.049 157.858 157.672 157.839 158.286C157.835 158.592 157.825 158.896 157.811 159.196C157.798 159.498 157.789 159.795 157.768 160.088C157.739 160.671 157.68 161.239 157.649 161.773C157.611 162.308 157.565 162.814 157.514 163.283C157.412 164.22 157.287 165.005 157.182 165.557C157.132 165.833 157.079 166.051 157.047 166.201C157.015 166.349 156.992 166.429 156.992 166.429C156.992 166.429 156.965 166.354 156.921 166.209C156.88 166.064 156.811 165.854 156.74 165.584C156.595 165.043 156.412 164.268 156.24 163.332C156.155 162.863 156.071 162.355 155.994 161.816C155.914 161.276 155.868 160.711 155.818 160.125C155.791 159.831 155.774 159.533 155.755 159.23C155.733 158.928 155.716 158.623 155.706 158.314C155.674 157.697 155.665 157.07 155.651 156.444C155.651 155.824 155.647 155.205 155.665 154.593C155.669 154.288 155.681 153.985 155.693 153.685C155.706 153.385 155.717 153.089 155.738 152.796C155.766 152.214 155.825 151.651 155.857 151.112C155.894 150.573 155.941 150.063 155.991 149.591C156.094 148.649 156.218 147.861 156.321 147.309C156.372 147.034 156.425 146.816 156.456 146.668C156.488 146.52 156.51 146.441 156.51 146.441Z" fill="#074785"/>
<path d="M6.86193 146.441C6.86193 146.441 6.88894 146.518 6.93294 146.663C6.97394 146.808 7.04293 147.02 7.11293 147.29C7.25893 147.832 7.43892 148.605 7.61092 149.535C7.69592 150.001 7.77892 150.505 7.85692 151.04C7.93692 151.572 7.98192 152.144 8.03292 152.73C8.05992 153.024 8.07791 153.324 8.09691 153.628C8.11691 153.931 8.13592 154.237 8.14592 154.547C8.17692 155.167 8.18892 155.796 8.20192 156.426C8.20292 157.049 8.20894 157.672 8.19094 158.286C8.18494 158.592 8.17591 158.896 8.16191 159.196C8.14991 159.498 8.14092 159.795 8.11892 160.088C8.09092 160.671 8.03093 161.239 7.99993 161.773C7.96193 162.308 7.91592 162.814 7.86492 163.283C7.76292 164.22 7.63792 165.005 7.53292 165.557C7.48392 165.833 7.42891 166.051 7.39891 166.201C7.36691 166.349 7.34392 166.429 7.34392 166.429C7.34392 166.429 7.31592 166.354 7.27092 166.209C7.23092 166.064 7.16293 165.854 7.09093 165.584C6.94593 165.043 6.76394 164.268 6.59194 163.332C6.50694 162.863 6.42293 162.355 6.34493 161.816C6.26493 161.276 6.21993 160.711 6.16893 160.125C6.14193 159.831 6.12591 159.533 6.10591 159.23C6.08391 158.928 6.06793 158.623 6.05593 158.314C6.02493 157.697 6.01594 157.07 6.00194 156.444C6.00194 155.824 5.99793 155.205 6.01693 154.593C6.02093 154.288 6.03192 153.985 6.04592 153.685C6.05692 153.385 6.06792 153.089 6.08892 152.796C6.11692 152.214 6.17694 151.651 6.20794 151.112C6.24594 150.573 6.29191 150.063 6.34291 149.591C6.44391 148.649 6.56894 147.861 6.67394 147.309C6.72294 147.034 6.77593 146.816 6.80593 146.668C6.83993 146.52 6.86193 146.441 6.86193 146.441Z" fill="#074785"/>
<path d="M30.6509 135.904C30.0699 135.341 28.9019 127.439 27.8409 127.501C26.7779 127.566 25.8529 135.402 25.3559 135.918C24.3609 136.953 17.0739 137.686 17.1339 138.69C17.1929 139.692 24.3479 140.166 25.3589 141.144C25.9239 141.69 27.1089 149.613 28.1699 149.552C29.2319 149.489 30.1399 141.676 30.6559 141.141C31.6199 140.14 38.9599 139.368 38.9009 138.361C38.8409 137.355 31.6239 136.849 30.6509 135.904Z" fill="#7BEFE5"/>
<path d="M138.615 25.1055C138.034 24.5425 136.865 16.6405 135.805 16.7025C134.742 16.7665 133.816 24.6035 133.32 25.1195C132.324 26.1545 125.039 26.8865 125.097 27.8915C125.158 28.8935 132.312 29.3675 133.323 30.3445C133.887 30.8905 135.074 38.8145 136.134 38.7525C137.197 38.6905 138.104 30.8765 138.62 30.3425C139.583 29.3415 146.925 28.5695 146.865 27.5625C146.805 26.5555 139.587 26.0505 138.615 25.1055Z" fill="#7BEFE5"/>
<path fill-rule="evenodd" clip-rule="evenodd" d="M156.172 46.6007C156.56 41.7657 149.064 41.1677 148.677 45.9997C148.291 50.8297 155.784 51.4307 156.172 46.6007Z" fill="white"/>
<path fill-rule="evenodd" clip-rule="evenodd" d="M156.083 103.975C156.214 89.5083 156.035 75.0413 156.168 60.5703C156.208 55.8383 148.865 55.7663 148.823 60.5003C148.693 74.9703 148.87 89.4383 148.743 103.905C148.699 108.64 156.042 108.711 156.083 103.975Z" fill="white"/>
<path fill-rule="evenodd" clip-rule="evenodd" d="M156.188 118.535C156.565 113.817 149.246 113.229 148.867 117.948C148.49 122.668 155.809 123.254 156.188 118.535Z" fill="white"/>
<path fill-rule="evenodd" clip-rule="evenodd" d="M15.1609 48.2146C15.5239 43.6756 8.4869 43.1126 8.1229 47.6506C7.7589 52.1866 14.7959 52.7516 15.1609 48.2146Z" fill="white"/>
<path fill-rule="evenodd" clip-rule="evenodd" d="M15.0779 102.092C15.1999 88.5066 15.0329 74.9216 15.1579 61.3336C15.1949 56.8906 8.29988 56.8236 8.25888 61.2676C8.13788 74.8546 8.30587 88.4416 8.18487 102.025C8.14387 106.472 15.0389 106.539 15.0779 102.092Z" fill="white"/>
<path fill-rule="evenodd" clip-rule="evenodd" d="M15.1749 115.761C15.5279 111.33 8.65493 110.778 8.30093 115.211C7.94693 119.643 14.8199 120.192 15.1749 115.761Z" fill="white"/>
<path d="M128.841 146.364C129.074 145.917 129.405 145.356 129.659 144.925C130.486 143.525 130.991 142.638 130.964 142.068C130.948 141.765 130.732 141.432 129.811 140.136C129.367 139.51 128.638 138.486 128.275 137.831C128.939 138.125 129.981 138.727 130.619 139.095C131.969 139.875 132.433 140.128 132.766 140.128L132.796 140.127C133.34 140.103 134.113 139.561 135.431 138.605C135.855 138.298 136.41 137.897 136.847 137.617C136.61 138.079 136.262 138.67 135.997 139.121C135.18 140.508 134.68 141.387 134.709 141.938C134.723 142.249 134.943 142.589 135.883 143.909C136.319 144.522 137.032 145.528 137.392 146.172C136.721 145.876 135.663 145.264 135.014 144.891C133.608 144.08 133.217 143.873 132.901 143.873L132.87 143.874C132.309 143.9 131.487 144.477 130.196 145.414C129.791 145.71 129.265 146.092 128.841 146.364Z" fill="white"/>
<path d="M21.2049 34.7763C21.4369 34.3293 21.7699 33.7672 22.0229 33.3382C22.8509 31.9382 23.3559 31.0513 23.3279 30.4803C23.3129 30.1783 23.0959 29.8442 22.1759 28.5482C21.7309 27.9242 21.0019 26.8993 20.6389 26.2443C21.3039 26.5393 22.3459 27.1413 22.9839 27.5093C24.3339 28.2893 24.7979 28.5413 25.1299 28.5413H25.1609C25.7049 28.5163 26.4769 27.9752 27.7949 27.0182C28.2189 26.7122 28.7729 26.3113 29.2109 26.0312C28.9739 26.4942 28.6269 27.0843 28.3619 27.5353C27.5439 28.9223 27.0439 29.8012 27.0719 30.3522C27.0869 30.6632 27.3069 31.0032 28.2469 32.3242C28.6829 32.9372 29.3969 33.9422 29.7569 34.5872C29.0849 34.2912 28.0269 33.6793 27.3779 33.3063C25.9719 32.4953 25.5809 32.2883 25.2649 32.2883L25.2339 32.2903C24.6729 32.3153 23.8519 32.8933 22.5599 33.8303C22.1559 34.1223 21.6279 34.5033 21.2049 34.7763Z" fill="white"/>
<path d="M49.9469 138.527C49.9469 138.527 50.1349 138.66 50.4879 138.91C50.8379 139.162 51.3499 139.546 52.0189 139.979C52.3549 140.195 52.7069 140.456 53.1239 140.695C53.5339 140.943 53.9779 141.21 54.4519 141.495C54.9339 141.761 55.4479 142.043 55.9909 142.341C56.5479 142.61 57.1149 142.922 57.7289 143.202C58.3499 143.471 58.9729 143.793 59.6529 144.052C59.9889 144.191 60.3299 144.331 60.6759 144.475C61.0279 144.605 61.3839 144.736 61.7449 144.87C62.4639 145.147 63.2219 145.379 63.9849 145.636C64.3699 145.757 64.7659 145.862 65.1589 145.983C65.5519 146.103 65.9519 146.22 66.3589 146.317C67.9749 146.764 69.6779 147.096 71.4069 147.412C73.1409 147.706 74.9169 147.922 76.6979 148.075C78.4809 148.221 80.2689 148.281 82.0319 148.291C83.7919 148.266 85.5299 148.221 87.2039 148.072C87.6259 148.049 88.0379 147.998 88.4499 147.955C88.8599 147.908 89.2679 147.878 89.6709 147.826C90.4739 147.718 91.2629 147.625 92.0249 147.493C92.4059 147.431 92.7839 147.376 93.1539 147.31C93.5229 147.239 93.8869 147.168 94.2449 147.099C94.9649 146.978 95.6439 146.796 96.3089 146.659C96.9709 146.512 97.5949 146.333 98.1989 146.188C98.7949 146.018 99.3609 145.857 99.8929 145.706C100.948 145.371 101.876 145.086 102.624 144.803C103.382 144.54 103.968 144.306 104.37 144.148C104.774 143.994 104.991 143.912 104.991 143.912C104.991 143.912 104.801 144.042 104.445 144.289C104.083 144.525 103.567 144.906 102.86 145.302C102.167 145.726 101.299 146.195 100.284 146.703C99.7699 146.943 99.2219 147.198 98.6379 147.455C98.0469 147.693 97.4279 147.955 96.7719 148.197C95.4559 148.671 94.0089 149.152 92.4459 149.536C91.6709 149.751 90.8579 149.904 90.0319 150.085C89.6179 150.175 89.1959 150.237 88.7689 150.312C88.3439 150.383 87.9149 150.462 87.4779 150.515C87.0409 150.572 86.6019 150.63 86.1599 150.689C85.7159 150.738 85.2669 150.772 84.8159 150.815C83.9149 150.913 82.9989 150.935 82.0749 150.98C80.2259 151.033 78.3469 150.976 76.4719 150.837C74.6009 150.661 72.7329 150.423 70.9169 150.052C70.4619 149.97 70.0139 149.857 69.5659 149.759C69.1179 149.655 68.6729 149.553 68.2369 149.428C67.7989 149.309 67.3639 149.19 66.9309 149.073C66.5039 148.936 66.0799 148.801 65.6599 148.666C65.2389 148.537 64.8269 148.388 64.4219 148.237C64.0159 148.088 63.6109 147.944 63.2189 147.784C62.4389 147.446 61.6629 147.153 60.9419 146.786C60.5789 146.61 60.2199 146.437 59.8679 146.266C59.5219 146.079 59.1819 145.897 58.8479 145.717C58.5139 145.537 58.1869 145.357 57.8759 145.162C57.5639 144.972 57.2579 144.785 56.9569 144.602C56.3629 144.227 55.8139 143.835 55.2859 143.475C54.7729 143.092 54.2939 142.721 53.8459 142.372C53.4099 142.007 53.0079 141.658 52.6409 141.332C52.2699 141.014 51.9589 140.676 51.6629 140.398C51.0669 139.842 50.6739 139.347 50.3799 139.028C50.0969 138.701 49.9469 138.527 49.9469 138.527Z" fill="#7BEFE5"/>
<path d="M47.058 48.1064C47.058 48.1064 46.912 48.2794 46.64 48.6024C46.501 48.7624 46.331 48.9604 46.131 49.1924C45.929 49.4234 45.722 49.7074 45.474 50.0064C45.23 50.3104 44.957 50.6404 44.687 51.0274C44.417 51.4144 44.091 51.7994 43.797 52.2554C43.181 53.1434 42.505 54.1554 41.833 55.2954C41.663 55.5794 41.491 55.8684 41.315 56.1644C41.149 56.4654 40.98 56.7714 40.808 57.0844C40.454 57.7014 40.128 58.3634 39.781 59.0324C39.111 60.3874 38.431 61.8274 37.807 63.3524C37.483 64.1084 37.192 64.8944 36.878 65.6814C36.733 66.0794 36.589 66.4804 36.444 66.8834C36.371 67.0854 36.298 67.2864 36.223 67.4884L36.016 68.1014C35.453 69.7364 34.953 71.4214 34.495 73.1174C34.022 74.8104 33.645 76.5284 33.278 78.2214C32.946 79.9204 32.635 81.5984 32.402 83.2334C32.169 84.8674 31.973 86.4554 31.846 87.9674C31.813 88.3454 31.78 88.7184 31.748 89.0864C31.725 89.4544 31.702 89.8174 31.679 90.1734C31.619 90.8864 31.612 91.5774 31.576 92.2414C31.543 92.9064 31.551 93.5424 31.53 94.1494C31.52 94.7574 31.538 95.3324 31.532 95.8764C31.558 96.9594 31.571 97.9114 31.624 98.6924C31.662 99.4754 31.709 100.091 31.743 100.512C31.77 100.935 31.786 101.161 31.786 101.161C31.786 101.161 31.716 100.946 31.587 100.543C31.466 100.138 31.259 99.5474 31.079 98.7764C30.876 98.0094 30.669 97.0674 30.466 95.9784C30.376 95.4334 30.28 94.8514 30.193 94.2354C30.12 93.6184 30.032 92.9684 29.972 92.2894C29.855 90.9294 29.761 89.4484 29.763 87.8814C29.75 86.3134 29.822 84.6604 29.961 82.9534C30.001 82.5274 30.042 82.0984 30.081 81.6654C30.124 81.2324 30.188 80.7994 30.241 80.3624C30.339 79.4864 30.494 78.6084 30.638 77.7194C30.957 75.9494 31.344 74.1614 31.821 72.3964C32.313 70.6354 32.844 68.8834 33.489 67.2014C34.114 65.5124 34.814 63.8794 35.576 62.3414C36.317 60.7934 37.147 59.3524 37.97 58.0124C38.404 57.3534 38.8 56.7014 39.241 56.1034C39.457 55.8034 39.668 55.5074 39.875 55.2174C40.094 54.9344 40.309 54.6584 40.52 54.3874C41.363 53.3064 42.205 52.3714 42.979 51.5744C43.076 51.4744 43.17 51.3754 43.262 51.2794C43.36 51.1864 43.455 51.0954 43.549 51.0054C43.738 50.8284 43.92 50.6564 44.096 50.4924C44.44 50.1604 44.783 49.8774 45.086 49.6194C45.684 49.0894 46.193 48.7394 46.533 48.4854C46.874 48.2384 47.058 48.1064 47.058 48.1064Z" fill="#29AEFD"/>
<path d="M132.726 78.011C132.726 78.011 132.662 77.794 132.543 77.387C132.485 77.184 132.415 76.932 132.332 76.638C132.251 76.341 132.13 76.013 132.017 75.64C131.899 75.269 131.775 74.86 131.601 74.42C131.428 73.982 131.287 73.497 131.07 73C130.672 71.995 130.201 70.874 129.622 69.683C129.479 69.385 129.333 69.081 129.186 68.771C129.026 68.466 128.864 68.155 128.699 67.84C128.38 67.205 128.009 66.567 127.643 65.906C126.883 64.599 126.059 63.236 125.133 61.874C124.682 61.185 124.188 60.508 123.705 59.813C123.453 59.473 123.198 59.13 122.942 58.788L122.56 58.269L122.163 57.758C121.111 56.386 119.983 55.036 118.824 53.717C117.675 52.387 116.45 51.124 115.243 49.882C114.011 48.666 112.785 47.48 111.55 46.382C110.318 45.285 109.103 44.243 107.913 43.303C107.615 43.066 107.323 42.833 107.034 42.602C106.74 42.38 106.451 42.16 106.166 41.945C105.604 41.499 105.034 41.112 104.5 40.715C103.964 40.319 103.43 39.974 102.935 39.622C102.434 39.278 101.946 38.974 101.495 38.669C100.578 38.093 99.7769 37.577 99.0969 37.19C98.4229 36.788 97.884 36.486 97.515 36.282C97.148 36.071 96.9509 35.96 96.9509 35.96C96.9509 35.96 97.1689 36.021 97.5759 36.135C97.9799 36.258 98.5869 36.413 99.3289 36.689C100.08 36.943 100.979 37.291 101.999 37.724C102.503 37.951 103.042 38.191 103.604 38.459C104.157 38.739 104.748 39.025 105.347 39.352C106.545 40.006 107.83 40.746 109.135 41.614C110.449 42.469 111.787 43.442 113.132 44.502C113.465 44.771 113.801 45.042 114.139 45.315C114.476 45.589 114.802 45.882 115.137 46.168C115.814 46.734 116.459 47.349 117.119 47.96C118.418 49.205 119.694 50.515 120.901 51.888C122.097 53.271 123.263 54.682 124.308 56.149C125.372 57.603 126.345 59.089 127.206 60.574C128.086 62.048 128.828 63.536 129.49 64.963C129.8 65.688 130.124 66.379 130.378 67.076C130.51 67.421 130.64 67.761 130.767 68.094C130.881 68.432 130.994 68.764 131.103 69.09C131.537 70.39 131.851 71.609 132.087 72.694C132.118 72.829 132.148 72.963 132.177 73.094C132.2 73.226 132.224 73.357 132.246 73.485C132.29 73.741 132.333 73.987 132.372 74.224C132.459 74.694 132.506 75.137 132.552 75.533C132.663 76.322 132.674 76.941 132.697 77.363C132.716 77.785 132.726 78.011 132.726 78.011Z" fill="#29AEFD"/>
<path d="M88.5159 11.2708C88.5159 8.97876 84.9639 8.97876 84.9639 11.2708C84.9639 13.6128 85.6929 20.5518 81.5729 19.8928C78.3299 19.3728 78.8819 13.8758 78.8839 11.5078C78.8849 9.21676 75.3339 9.21676 75.3309 11.5078C75.3259 15.8298 75.3679 22.4768 80.8919 23.3608C83.7599 23.8198 86.3629 22.5328 87.5119 19.8278C88.6619 17.1268 88.5159 14.1458 88.5159 11.2708Z" fill="#074785"/>
<path d="M62.7639 13.6132C57.8699 12.3792 52.9769 11.1442 48.0829 9.90919C45.4829 9.25319 44.3819 13.2612 46.9779 13.9162C49.7359 14.6112 52.4939 15.3072 55.2509 16.0032C52.4929 17.0312 49.7349 18.0602 46.9779 19.0892C44.4919 20.0172 45.5679 24.0342 48.0829 23.0962C52.9769 21.2712 57.8699 19.4462 62.7639 17.6202C64.5819 16.9432 64.9019 14.1522 62.7639 13.6132Z" fill="#074785"/>
<path d="M101.09 13.83C105.983 12.595 110.877 11.361 115.771 10.126C118.37 9.46999 119.472 13.478 116.875 14.132C114.118 14.828 111.36 15.523 108.603 16.22C111.361 17.248 114.119 18.277 116.875 19.305C119.362 20.232 118.286 24.249 115.771 23.311C110.878 21.485 105.984 19.661 101.09 17.836C99.2739 17.158 98.9539 14.369 101.09 13.83Z" fill="#074785"/>
</svg>
