<svg width="118" height="118" viewBox="0 0 118 118" fill="none" xmlns="http://www.w3.org/2000/svg">
<path d="M117.421 59.03C117.421 75.242 110.855 89.911 100.225 100.532C89.612 111.153 74.935 117.72 58.731 117.72C26.323 117.72 0.0419922 91.447 0.0419922 59.031C0.0419922 42.827 6.60799 28.158 17.238 17.537C27.851 6.91598 42.528 0.349976 58.732 0.349976C74.936 0.349976 89.613 6.91598 100.226 17.537C110.855 28.157 117.421 42.825 117.421 59.03Z" fill="url(#paint0_linear_51_6)"/>
<path d="M93.024 24.72L50.122 94.176C49.257 95.577 47.2441 95.644 46.2871 94.305L24.478 63.778C23.693 62.679 24.964 61.288 26.129 61.971L46.7831 74.083L91.0151 23.24C92.0251 22.081 93.832 23.412 93.024 24.72Z" fill="white"/>
<defs>
<linearGradient id="paint0_linear_51_6" x1="0.0417922" y1="59.0338" x2="117.421" y2="59.0338" gradientUnits="userSpaceOnUse">
<stop stop-color="#CD40FF"/>
<stop offset="1" stop-color="#C26FE0"/>
</linearGradient>
</defs>
</svg>
