<svg width="505" height="346" viewBox="0 0 505 346" fill="none" xmlns="http://www.w3.org/2000/svg">
<path d="M435.368 346C432.24 346 429.095 345.899 425.913 345.65C413.762 344.7 401.443 344.226 389.351 342.87C361.6 339.76 333.836 339.576 305.883 339.576C294.788 339.576 283.692 339.489 272.599 339.489C256.438 339.489 240.285 339.673 224.157 340.577C198.998 341.987 173.796 342.211 148.59 342.211C144.793 342.211 140.995 342.206 137.199 342.199C136.95 342.198 136.703 342.198 136.454 342.198C122.505 342.198 108.609 342.918 94.68 343.427C80.688 343.938 67.0814 344.776 53.1706 344.776C51.9132 344.776 50.6528 344.769 49.3899 344.755C35.487 344.594 14.3184 341.203 4.40039 332.56C-1.4885 327.425 -0.690065 315.069 5.20755 310.118C7.78368 307.955 11.9369 306.261 15.3297 305.23C24.9945 302.294 34.8289 302.287 44.9281 302.226C45.0529 302.225 45.1765 302.225 45.3008 302.225C52.2689 302.225 59.5146 303.401 66.1918 305.035C72.268 306.521 78.4768 307.043 84.6566 307.968C89.7141 308.725 95.1248 309.087 100.476 309.087C103.958 309.087 107.415 308.934 110.731 308.636C119.704 307.829 128.741 307.454 137.74 306.817C148.915 306.027 159.852 304.315 170.987 303.397C176.562 302.938 182.008 301.797 187.57 301.279C202.322 299.906 217.1 299.609 231.879 299.572C233.089 299.569 234.298 299.567 235.509 299.567C242.532 299.567 249.556 299.611 256.575 299.612C262.296 299.612 268.013 299.598 273.73 299.598C293.29 299.598 312.833 299.765 332.339 301.251C338.385 301.711 344.391 301.432 350.352 302.528C356.337 303.628 362.378 304.631 368.51 304.827C373.755 304.995 379.016 305.049 384.283 305.049C393.653 305.049 403.041 304.875 412.381 304.846C413.317 304.844 414.622 304.839 416.238 304.839C437.146 304.839 509.956 305.644 504.733 321.912C502.725 328.165 491.055 336.302 484.509 338.921C476.241 342.23 467.198 344.187 458.096 344.848C450.424 345.403 442.944 346 435.368 346Z" fill="#E0ADF2"/>
<path d="M434.233 224.956L434.35 228.091L427.883 230.105L424.157 227.689L424.154 224.04L427.752 223.868L427.865 223.065L429.043 222.417L434.233 224.956Z" fill="#E1CFB5"/>
<path d="M301.959 249.725L303.349 277.3L299.276 324.188L293.181 324.559L285.775 281.974L275.531 245.939L301.959 249.725Z" fill="#353A85"/>
<path d="M293.507 328.059H302.657L303.036 325.473L299.756 323.534L293.164 323.935L293.507 328.059Z" fill="#292949"/>
<path d="M258.813 241.523L257.476 262.367L261.444 324.344L267.547 324.604L276.694 283.956L284.761 239.38L258.813 241.523Z" fill="#353A85"/>
<path d="M267.299 328.26L258.392 328.579L257.484 326.382L260.949 323.7L267.548 323.982L267.299 328.26Z" fill="#292949"/>
<path d="M294.298 178.564L275.254 176.818C275.254 176.818 264.66 177.787 257.471 199.314C253.472 211.292 252.254 230.161 251.961 244.547C252.411 246.6 255.023 255.589 266.073 254.064C285.047 251.445 295.146 248.827 303.409 250.136C310.447 251.445 309.852 243.154 309.079 236.826L306.274 217.247L294.298 178.564Z" fill="#C340F1"/>
<path d="M290.62 158.28C285.82 157.374 280.879 156.563 276.075 157.377C275.022 157.555 273.892 157.869 273.322 158.646C273.1 158.947 272.983 159.295 272.875 159.638C271.662 163.495 270.124 169.212 273.092 172.765C273.657 173.443 274.418 173.981 275.235 174.418C276.326 175.002 277.535 175.398 278.785 175.609C278.527 176.568 278.166 177.507 277.71 178.411C278.809 179.828 283.935 179.998 284.883 178.639C284.936 177.463 284.989 176.287 285.042 175.111C285.666 174.895 286.269 174.633 286.835 174.314C289.025 173.08 290.47 171.206 291.307 169.11C292.22 166.828 293.505 164.658 294.339 162.332C294.643 161.484 294.883 160.517 294.361 159.751C293.807 158.936 292.61 158.658 291.533 158.453C291.229 158.395 290.925 158.337 290.62 158.28Z" fill="#C17E72"/>
<path d="M292.723 168.988C295.029 166.962 297.728 164.128 297.937 161.556C298.109 159.428 297.765 156.526 296.372 154.688C295.068 152.968 291.733 152.023 289.751 151.027C287.882 150.088 286.013 149.148 284.144 148.209C283.755 148.013 283.355 147.815 282.912 147.749C282.386 147.67 281.851 147.786 281.334 147.9C276.917 148.876 272.5 149.853 268.082 150.83C267.234 151.018 266.267 151.292 265.955 151.993C265.764 152.419 265.876 152.895 265.99 153.341C266.492 155.303 267.454 157.308 267.693 159.297C268.059 160.866 267.989 162.27 269.329 163.417C270.591 164.498 272.269 165.087 273.278 166.409C274.007 167.364 274.287 168.513 274.858 169.544C277.445 174.21 287.919 172.967 291.543 169.989C291.913 169.685 292.312 169.349 292.723 168.988Z" fill="#353A85"/>
<path d="M290.259 179.956L303.349 167.856L300.265 135.061L306.017 132.9L318.119 165.9L313.841 176.053L296.29 196.239L290.259 179.956Z" fill="#C340F1"/>
<path d="M304.786 133.362C304.786 133.362 304.786 130.409 304.786 130.361C304.786 129.266 301.563 126.708 300.744 125.789C300.275 125.265 298.129 128.122 298.103 128.594C298.059 129.4 299.416 131.126 299.789 131.963L298.644 133.362L300.265 135.062L304.786 133.362Z" fill="#C17E72"/>
<path d="M266.84 182.476L252.024 171.932L250.105 139.072L244.073 137.568L237.082 171.634L242.864 181.225L263.331 199.29L266.84 182.476Z" fill="#C340F1"/>
<path d="M245.365 137.89C245.365 137.89 244.916 134.961 244.909 134.914C244.743 133.827 247.55 130.932 248.224 129.931C248.608 129.359 251.17 131.954 251.267 132.419C251.434 133.214 250.349 135.076 250.107 135.947L251.455 137.208L250.105 139.072L245.365 137.89Z" fill="#C17E72"/>
<path d="M34.2174 162.025C31.8226 161.022 29.5684 159.775 27.5165 158.319C26.85 157.846 26.1386 157.178 26.3731 156.464C26.6421 155.646 27.9032 155.471 28.8933 155.545C30.7591 155.685 32.591 156.152 34.2423 156.909C34.6507 156.798 34.1247 156.237 34.3071 155.905C34.3902 155.753 34.6083 155.695 34.804 155.686C37.4812 155.559 38.5253 158.678 39.4416 160.179C37.5673 161.02 35.6276 161.052 33.9635 162.328L34.2174 162.025Z" fill="#EFBFA5"/>
<path d="M149.103 199.14C149.103 199.14 152.519 199.568 152.574 199.574C153.841 199.734 159.377 197.345 160.557 196.784C161.232 196.464 156.128 194.264 155.586 194.173C154.66 194.019 152.467 194.918 151.446 195.113L149.993 193.94L147.793 195.067L149.103 199.14Z" fill="#EFBFA5"/>
<path d="M64.0679 321.448L63.5855 324.66L70.6112 328.698L74.8476 325.899L71.5766 322.274L64.5509 318.236L64.0679 321.448Z" fill="#292949"/>
<path d="M63.8303 320.37L69.249 279.403L62.7299 233.541L64.1957 223.785L93.3135 222.838L94.3643 238.717L89.4759 279.466L71.0857 322.464L63.8303 320.37Z" fill="#292949"/>
<path d="M97.9499 178.401L111.038 184.982L121.419 197.432L149.077 194.001L149.943 200.52L118.529 209.479L102.43 204.323L97.9499 178.401Z" fill="#CD40FF"/>
<path d="M114.679 227.43L114.755 268.771L105.03 321.99L98.0299 321.931L94.1825 272.716L85.1765 223.456L114.679 227.43Z" fill="#292949"/>
<path d="M98.0408 324.455L105.573 327.759L109.396 324.552L105.648 321.282L98.079 321.217L98.0408 324.455Z" fill="#292949"/>
<path d="M59.7164 241.489C59.783 239.698 59.8994 238.203 59.9164 237.669C60.066 232.863 60.5666 228.068 61.2701 223.296C61.8997 219.02 62.6954 208.405 63.5504 204.156C64.2564 200.647 66.7172 191.889 68.4952 188.635C72.9164 180.541 71.5505 179.793 90.9721 177.39C99.4843 176.337 101.496 180.876 108.455 186.095C109.141 186.61 109.103 189.675 109.262 190.487C109.543 191.916 109.843 193.343 110.188 194.763C110.459 195.88 110.757 196.993 111.092 198.098H111.092C111.092 198.098 116.934 220.845 120.797 225.676C124.66 230.507 132.642 237.261 119.291 241.385C116.924 242.039 114.544 242.662 112.081 242.995C112.081 242.995 101.162 241.957 95.5472 241.993C90.3752 242.025 85.1826 242.473 80.0984 243.224C76.6983 243.71 73.2291 244.416 70.1877 245.776C67.2863 247.073 65.192 248.98 62.2482 250.323C61.9688 250.45 61.6634 250.582 61.3465 250.544C59.6552 250.344 59.5758 245.26 59.7164 241.489Z" fill="#CD40FF"/>
<path d="M89.2286 179.486C88.4342 180.128 86.2745 180.851 83.6906 180.685C83.1695 180.651 82.7186 180.35 82.5714 179.922C82.1593 178.718 81.8418 177.49 81.6224 176.251C79.7057 176.185 77.4266 175.931 76.5692 174.462C76.2989 174 76.2189 173.476 76.1426 172.963C75.8262 170.843 75.5093 168.723 75.193 166.603C75.0839 165.87 74.9761 165.113 75.2045 164.401C75.6051 163.15 76.9473 162.296 78.2992 161.708C81.7478 160.209 85.9606 159.841 89.5183 161.14C90.4654 161.485 91.3798 161.96 91.9955 162.666C92.9457 163.754 93.0481 165.203 93.1136 166.559C93.1742 167.812 93.2348 169.065 93.2954 170.317C93.3644 171.758 93.3184 173.429 91.9967 174.324C91.295 174.799 90.3261 174.968 89.7455 175.551C88.7214 176.578 89.4747 178.152 89.2286 179.486Z" fill="#EFBFA5"/>
<path d="M103.046 153.881C103.223 153.285 103.435 152.698 103.702 152.13C104.283 150.899 105.131 149.751 105.489 148.46C105.848 147.169 105.58 145.616 104.317 144.846C103.501 144.349 102.44 144.272 101.439 144.283C98.1396 144.316 94.8558 145.123 92.0392 146.592C89.3553 147.991 87.1277 149.727 83.8609 149.56C80.7916 149.405 78.9319 150.286 76.3698 151.921C73.5969 153.69 69.4974 155.013 67.1608 157.097C66.1846 157.967 65.5598 159.089 65.1756 160.249C63.8431 164.268 65.4889 168.893 69.2126 171.595C70.0477 172.201 70.9706 172.714 71.9171 173.186C73.8756 174.162 76.2377 175.384 78.4405 175.358C77.9326 173.798 74.5343 169.354 75.4675 167.721C76.9485 165.13 82.1818 164.522 85.0935 164.299C88.2688 164.055 91.575 165.163 94.6697 164.771C96.8961 164.49 99.2903 162.884 100.762 161.468C102.576 159.719 102.399 156.06 103.046 153.881Z" fill="#292949"/>
<path d="M73.9853 180.951L58.7056 184.309L40.3051 159.836L32.5395 161.63L45.485 196.859L75.2736 199.928L73.9853 180.951Z" fill="#CD40FF"/>
<path d="M445.823 316.716C446.494 316.084 447.278 315.738 448.163 315.858C449.013 315.972 449.779 316.465 450.129 317.125C450.368 317.574 450.419 318.076 450.466 318.567C450.711 321.106 450.689 327.135 446.737 328.003C445.074 328.368 443.701 327.357 443.256 326.081C442.589 324.157 443.578 318.83 445.823 316.716Z" fill="#292949"/>
<path d="M444.417 278.408L444.623 293.896C444.384 300.776 445.639 307.694 445.399 314.574C445.343 316.156 444.861 317.825 445.326 319.393C445.782 320.927 447.239 321.198 448.734 320.421C450.737 319.381 450.415 316.951 450.748 315.178C451.664 310.306 452.74 305.457 453.697 300.591C454.166 298.206 453.199 294.862 453.41 292.448L456.333 279.467L444.417 278.408Z" fill="#F4C7B3"/>
<path d="M465.099 253.383L457.221 283.327L455.547 311.605L443.055 311.365L439.658 232.267L463.875 232.643L465.099 253.383Z" fill="#292949"/>
<path d="M427.954 316.153C428.655 315.554 429.453 315.248 430.33 315.412C431.172 315.57 431.909 316.101 432.226 316.779C432.442 317.242 432.468 317.746 432.49 318.239C432.607 320.794 432.284 326.826 428.301 327.495C426.627 327.776 425.307 326.696 424.929 325.396C424.359 323.438 425.611 318.157 427.954 316.153Z" fill="#292949"/>
<path d="M434.539 280.583L433.48 296.047C433.392 300.344 432.723 304.608 432.203 308.876C431.72 312.841 432.472 316.97 430.05 320.576C429.29 321.708 427.755 322.46 426.683 321.086C425.857 320.028 426.348 318.261 426.189 317.06C425.542 312.157 424.735 307.271 424.047 302.372C423.71 299.97 424.86 296.669 424.783 294.249L422.577 281.167L434.539 280.583Z" fill="#F4C7B3"/>
<path d="M418.731 251.551L417.714 280.619L423.045 310.013L435.753 310.339L435.191 278.527L441.915 252.145L444.173 234.876L424.01 232.841L418.731 251.551Z" fill="#292949"/>
<path d="M434.681 173.353L456.404 172.909L468.999 192.952L464.522 211.724L463.725 234.189L432.738 234.551L422.542 233.134L425.25 209.131L423.697 177.066L434.681 173.353Z" fill="#9F01D7"/>
<path d="M437.528 156.008C441.805 148.209 453.919 152.397 455.587 159.846C456.674 164.706 451.659 170.419 445.792 171.244C445.744 171.427 445.117 173.009 445.097 173.156C444.998 173.91 444.795 174.645 444.569 175.388C444.486 175.665 439.603 174.385 439.059 174.24C438.868 174.189 438.658 174.124 438.57 173.975C438.403 173.688 439.416 171.519 439.49 171.225C439.577 170.877 439.665 170.53 439.751 170.183C437.089 168.75 435.631 166.086 435.456 163.496C435.281 160.894 436.243 158.352 437.528 156.008Z" fill="#F4C7B3"/>
<path d="M446.603 149.441C447.2 150.085 447.361 150.922 447.456 151.719C447.513 152.195 447.552 152.686 447.377 153.136C446.681 154.932 444.562 154.64 442.839 155.08C440.714 155.623 438.792 156.807 437.458 158.252C435.371 160.514 435.779 163.71 436.165 166.454C436.3 167.421 436.637 168.87 435.676 169.633C434.699 170.407 432.708 170.09 431.722 169.554C430.822 169.064 430.135 168.249 429.11 168.004C428.025 167.743 426.479 168.021 426.075 167.106C425.962 166.852 425.985 166.556 425.833 166.318C425.316 165.515 423.688 166.249 422.894 165.643C422.405 165.271 422.496 164.581 422.744 164.051C422.992 163.522 423.363 162.995 423.308 162.429C423.261 161.941 422.906 161.527 422.712 161.069C422.328 160.165 422.639 159.064 423.462 158.407C424.993 157.185 427.594 157.684 429.211 156.551C430.053 155.96 430.468 155.036 430.865 154.161C431.261 153.286 431.72 152.367 432.609 151.831C433.708 151.169 435.139 151.431 436.242 150.628C436.889 150.155 437.363 149.507 438.073 149.11C439.01 148.586 440.749 148.277 441.857 148.069C443.616 147.737 445.474 148.223 446.603 149.441Z" fill="#292949"/>
<path d="M452.879 163.096C452.602 165.767 450.691 168.506 451.831 170.985C452.981 173.487 456.538 174.247 459.599 174.654C460.103 174.721 466.537 175.8 466.578 175.697C467.298 173.885 468.04 172.038 469.379 170.512C470.719 168.986 472.786 167.81 474.972 167.895C474.357 167.744 474.124 167.058 474.266 166.512C474.408 165.965 474.806 165.497 475.067 164.982C475.707 163.72 475.436 162.153 474.4 161.129C472.334 159.084 468.073 159.461 466.368 157.175C465.312 155.757 465.696 153.878 465.256 152.227C464.407 149.032 460.547 148.024 457.776 146.361C454.851 144.606 452.024 143.531 448.371 143.711C443.841 143.936 440.046 147.507 441.302 151.312C442.913 156.194 451.763 156.601 452.813 161.503C452.925 162.03 452.935 162.561 452.879 163.096Z" fill="#292949"/>
<path d="M449.978 173.247L443.239 181.396L440.071 181.175L434.791 172.909L449.978 173.247Z" fill="#F9F9F9"/>
<path d="M434.791 172.908L422.542 173.478C422.542 173.478 408.794 179.262 407.884 178.828C406.975 178.394 392.119 152.945 392.119 152.945L384.843 154.966L393.938 184.078L402.73 191.856L427.592 188.316L434.791 172.908Z" fill="#9F01D7"/>
<path d="M385.981 154.609L384.028 152.116C383.314 151.207 384.325 147.545 384.409 146.392C384.456 145.734 388.098 147.084 388.427 147.464C388.989 148.112 388.984 150.192 389.22 151.065L391.082 151.682L390.842 153.866L385.981 154.609Z" fill="#F4C7B3"/>
<path d="M128.708 79.2334L90.4309 64.4356V25.0461L128.708 39.844V79.2334Z" fill="#7F219F"/>
<path d="M128.708 79.2334L166.985 64.4356V25.0461L128.708 39.844V79.2334Z" fill="#E59EFE"/>
<path d="M90.4309 25.0459L128.708 39.8438L166.985 25.0459L128.708 11.6107L90.4309 25.0459Z" fill="#C340F1"/>
<path d="M434.371 57.249L402.208 44.815V11.717L434.371 24.1515V57.249Z" fill="#BD44E7"/>
<path d="M434.371 57.249L466.534 44.815V11.717L434.371 24.1515V57.249Z" fill="#8500B3"/>
<path d="M402.208 11.7178L434.371 24.1523L466.534 11.7178L434.371 0.428648L402.208 11.7178Z" fill="#DB8CF7"/>
<path d="M152.718 54.9331L147.449 52.8913L148.244 51.3881L153.513 53.43L152.718 54.9331ZM161.5 58.336L156.23 56.2941L157.026 54.7915L162.295 56.8334L161.5 58.336ZM170.282 61.7394L165.013 59.6975L165.808 58.1944L171.077 60.2362L170.282 61.7394ZM179.064 65.1422L173.795 63.1004L174.59 61.5978L179.86 63.6396L179.064 65.1422ZM187.847 68.5456L182.577 66.5038L183.373 65.0007L188.642 67.0425L187.847 68.5456ZM196.628 71.9485L191.359 69.9067L192.155 68.4041L197.424 70.4459L196.628 71.9485ZM205.411 75.3519L200.142 73.3101L200.937 71.807L206.207 73.8488L205.411 75.3519ZM214.193 78.7548L208.924 76.7129L209.719 75.2104L214.989 77.2522L214.193 78.7548ZM222.975 82.1582L217.706 80.1163L218.501 78.6132L223.771 80.655L222.975 82.1582ZM231.758 85.561L226.488 83.5192L227.284 82.0166L232.553 84.0584L231.758 85.561ZM239.78 88.6699L235.27 86.9226L236.065 85.4195L240.576 87.1673L239.78 88.6699Z" fill="#C340F1"/>
<path d="M103.116 55.8577L101.969 54.5319L106.616 51.5848L107.764 52.9106L103.116 55.8577ZM95.3715 60.7689L94.2231 59.4436L98.8704 56.4965L100.018 57.8223L95.3715 60.7689ZM87.6252 65.6806L86.4775 64.3553L91.1248 61.4082L92.2725 62.7334L87.6252 65.6806ZM79.8796 70.5917L78.7319 69.2665L83.3792 66.3199L84.5275 67.6451L79.8796 70.5917ZM72.134 75.5039L70.9857 74.1782L75.6335 71.231L76.7813 72.5568L72.134 75.5039ZM64.3884 80.4151L63.2407 79.0898L67.8879 76.1427L69.0363 77.4685L64.3884 80.4151ZM56.6428 85.3268L55.4945 84.0015L60.1417 81.0544L61.2901 82.3797L56.6428 85.3268ZM51.1624 88.8018L50.0146 87.476L52.3967 85.9656L53.5445 87.2914L51.1624 88.8018Z" fill="#C340F1"/>
<path d="M37.6461 137.326L5.48334 124.892V91.7941L37.6461 104.228V137.326Z" fill="#BD44E7"/>
<path d="M37.6461 137.326L69.8089 124.892V91.7941L37.6461 104.228V137.326Z" fill="#8500B3"/>
<path d="M5.48334 91.7936L37.6461 104.228L69.8089 91.7936L37.6461 80.5039L5.48334 91.7936Z" fill="#DB8CF7"/>
<path d="M412.236 37.2504L411.524 35.7172L416.899 33.8901L417.611 35.4232L412.236 37.2504ZM403.276 40.2965L402.564 38.7634L407.94 36.9357L408.652 38.4689L403.276 40.2965ZM394.316 43.3422L393.605 41.809L398.981 39.9813L399.693 41.515L394.316 43.3422ZM385.357 46.3883L384.645 44.8552L390.021 43.0275L390.733 44.5606L385.357 46.3883ZM376.397 49.434L375.686 47.9008L381.061 46.0731L381.773 47.6063L376.397 49.434ZM367.438 52.4796L366.726 50.9464L372.101 49.1192L372.813 50.6524L367.438 52.4796ZM358.478 55.5257L357.766 53.9926L363.142 52.1649L363.854 53.6981L358.478 55.5257ZM349.519 58.5714L348.807 57.0382L354.183 55.2105L354.895 56.7437L349.519 58.5714ZM340.559 61.6175L339.847 60.0843L345.223 58.2567L345.935 59.7899L340.559 61.6175ZM331.6 64.6632L330.888 63.13L336.263 61.3023L336.975 62.8355L331.6 64.6632ZM322.64 67.7088L321.928 66.1756L327.304 64.3484L328.016 65.8816L322.64 67.7088ZM313.68 70.755L312.968 69.2218L318.344 67.3941L319.056 68.9273L313.68 70.755ZM304.721 73.8006L304.009 72.2674L309.384 70.4402L310.097 71.9734L304.721 73.8006ZM295.762 76.8462L295.049 75.313L300.425 73.4859L301.137 75.019L295.762 76.8462ZM286.802 79.8924L286.09 78.3592L291.466 76.532L292.177 78.0652L286.802 79.8924ZM277.842 82.938L277.13 81.4048L282.506 79.5776L283.218 81.1108L277.842 82.938ZM268.883 85.9841L268.171 84.451L273.546 82.6233L274.258 84.1564L268.883 85.9841ZM259.923 89.0303L259.211 87.4966L264.587 85.6694L265.298 87.2026L259.923 89.0303ZM250.963 92.0759L250.251 90.5422L255.628 88.715L256.339 90.2482L250.963 92.0759ZM242.004 95.1216L241.292 93.5884L246.668 91.7612L247.38 93.2944L242.004 95.1216ZM238.257 96.3955L237.545 94.8623L237.708 94.8068L238.42 96.34L238.257 96.3955Z" fill="#C340F1"/>
<path d="M270.506 141.787L205.296 116.577V49.4719L270.506 74.6821V141.787Z" fill="#BD44E7"/>
<path d="M270.506 141.787L335.715 116.577V49.4719L270.506 74.6821V141.787Z" fill="#8500B3"/>
<path d="M205.296 49.4714L270.506 74.6816L335.715 49.4714L270.506 26.5825L205.296 49.4714Z" fill="#DB8CF7"/>
<path d="M307.996 98.4056L302.716 96.3825L303.504 94.8767L308.783 96.8994L307.996 98.4056ZM316.794 101.776L311.515 99.7537L312.304 98.248L317.583 100.271L316.794 101.776ZM325.594 105.148L320.315 103.125L321.102 101.619L326.382 103.642L325.594 105.148ZM334.393 108.518L329.113 106.496L329.902 104.99L335.181 107.013L334.393 108.518ZM343.191 111.89L337.913 109.867L338.7 108.361L343.98 110.384L343.191 111.89ZM351.991 115.261L346.711 113.238L347.499 111.732L352.779 113.755L351.991 115.261ZM360.79 118.632L355.511 116.609L356.298 115.103L361.578 117.126L360.79 118.632ZM369.589 122.003L364.31 119.98L365.097 118.474L370.377 120.497L369.589 122.003ZM378.388 125.374L373.109 123.351L373.896 121.846L379.176 123.868L378.388 125.374Z" fill="#C340F1"/>
<path d="M233.573 99.0138L232.523 97.6295L237.376 94.9369L238.426 96.3208L233.573 99.0138ZM225.483 103.502L224.434 102.118L229.288 99.425L230.337 100.809L225.483 103.502ZM217.394 107.99L216.345 106.606L221.198 103.913L222.248 105.297L217.394 107.99ZM209.306 112.479L208.257 111.094L213.11 108.401L214.159 109.786L209.306 112.479ZM201.216 116.967L200.167 115.582L205.021 112.89L206.07 114.274L201.216 116.967ZM193.128 121.455L192.078 120.071L196.932 117.378L197.981 118.762L193.128 121.455ZM185.039 125.943L183.99 124.559L188.844 121.866L189.892 123.25L185.039 125.943Z" fill="#C340F1"/>
<path d="M162.741 196.761L118.145 179.52V133.628L162.741 150.869V196.761Z" fill="#BD44E7"/>
<path d="M162.741 196.761L207.337 179.52V133.628L162.741 150.869V196.761Z" fill="#8500B3"/>
<path d="M118.145 133.628L162.741 150.869L207.337 133.628L162.741 117.974L118.145 133.628Z" fill="#DB8CF7"/>
<path d="M403.31 157.042L358.715 139.802V93.9092L403.31 111.15V157.042Z" fill="#7F219F"/>
<path d="M403.31 157.042L447.907 139.802V93.9092L403.31 111.15V157.042Z" fill="#E59EFE"/>
<path d="M358.715 93.9094L403.31 111.15L447.907 93.9094L403.31 78.2556L358.715 93.9094Z" fill="#C340F1"/>
<path d="M443.002 226.936C441.684 228.082 439.865 229.073 438 228.87C437.256 228.788 436.516 228.676 435.785 228.535C435.208 228.423 434.618 228.284 434.16 227.959C433.701 227.634 433.407 227.075 433.603 226.582C433.878 225.885 434.866 225.699 435.587 225.324C436.489 224.856 437.04 224.015 437.749 223.334C439.364 221.783 441.543 221.637 443.602 220.81C443.697 220.772 444.811 221.873 444.914 221.971C445.66 222.688 445.728 222.844 445.305 223.751C444.784 224.87 444.024 226.049 443.002 226.936Z" fill="#F4C7B3"/>
<path d="M457.124 174.291L474.758 197.273L472.108 210.075L444.797 226.263L439.658 222.418L457.917 202.67L457.208 190.19L457.124 174.291Z" fill="#9F01D7"/>
</svg>
