<svg width="500" height="500" viewBox="0 0 500 500" fill="none" xmlns="http://www.w3.org/2000/svg">
<path d="M41.419 297.721L49.232 293.206C49.232 293.206 53.882 273.884 52.029 256.497C49.424 232.052 33.333 222.854 27.214 224.963C21.096 227.071 19.323 234.184 29.447 248.743C35.421 257.333 42.759 275.225 41.419 297.721Z" fill="#C340F1"/>
<g opacity="0.65">
<path d="M41.419 297.721L49.232 293.206C49.232 293.206 53.882 273.884 52.029 256.497C49.424 232.052 33.333 222.854 27.214 224.963C21.096 227.071 19.323 234.184 29.447 248.743C35.421 257.333 42.759 275.225 41.419 297.721Z" fill="white"/>
</g>
<path d="M44.656 288.228C44.631 288.227 44.606 288.224 44.581 288.219C44.287 288.163 44.094 287.88 44.15 287.586C48.433 265.039 40.557 239.704 30.803 229.161C30.6 228.942 30.613 228.598 30.833 228.395C31.053 228.194 31.396 228.205 31.599 228.425C41.53 239.16 49.56 264.909 45.214 287.787C45.164 288.057 44.922 288.242 44.656 288.228Z" fill="white"/>
<path d="M21.7549 309.074C20.5879 309.668 17.4839 307.011 16.6189 306.365C15.1379 305.259 13.9689 303.74 13.2269 302.051C12.3629 300.085 12.2249 298.018 12.6329 295.913C12.8449 294.821 13.2059 293.764 13.5669 292.712C13.9209 291.679 14.2749 290.646 14.6299 289.613C14.9799 288.594 15.3339 287.539 15.2509 286.464C15.0839 284.299 13.2509 282.696 11.5809 281.309C9.73394 279.775 7.83094 277.777 7.97294 275.188C8.08194 273.191 9.20994 271.387 10.5279 269.882C11.8449 268.376 13.3839 267.065 14.5869 265.467C15.4519 264.316 16.1519 262.948 16.0929 261.509C16.0569 260.615 15.7299 259.758 15.3429 258.951C14.5139 257.219 13.3849 255.614 12.8459 253.771C12.3069 251.928 12.5099 249.68 13.9889 248.455C15.2029 247.45 16.9349 247.388 18.4999 247.571C19.9479 247.74 21.3349 248.467 22.5699 249.239C26.5649 251.732 28.6659 256.719 32.9389 258.698C34.5869 259.461 36.4229 259.703 38.1539 260.255C39.8839 260.807 41.6279 261.793 42.3579 263.456C43.7979 266.735 40.6279 270.527 41.5819 273.978C42.4269 277.033 45.2879 278.33 46.7909 281.12C47.4479 282.341 47.5449 283.718 47.3589 285.092C47.0449 287.418 46.6169 289.114 45.3659 291.655C44.3319 293.754 41.4189 297.723 41.4189 297.723C41.4189 297.723 21.9339 308.983 21.7549 309.074Z" fill="#C340F1"/>
<g opacity="0.3">
<path d="M21.7549 309.074C20.5879 309.668 17.4839 307.011 16.6189 306.365C15.1379 305.259 13.9689 303.74 13.2269 302.051C12.3629 300.085 12.2249 298.018 12.6329 295.913C12.8449 294.821 13.2059 293.764 13.5669 292.712C13.9209 291.679 14.2749 290.646 14.6299 289.613C14.9799 288.594 15.3339 287.539 15.2509 286.464C15.0839 284.299 13.2509 282.696 11.5809 281.309C9.73394 279.775 7.83094 277.777 7.97294 275.188C8.08194 273.191 9.20994 271.387 10.5279 269.882C11.8449 268.376 13.3839 267.065 14.5869 265.467C15.4519 264.316 16.1519 262.948 16.0929 261.509C16.0569 260.615 15.7299 259.758 15.3429 258.951C14.5139 257.219 13.3849 255.614 12.8459 253.771C12.3069 251.928 12.5099 249.68 13.9889 248.455C15.2029 247.45 16.9349 247.388 18.4999 247.571C19.9479 247.74 21.3349 248.467 22.5699 249.239C26.5649 251.732 28.6659 256.719 32.9389 258.698C34.5869 259.461 36.4229 259.703 38.1539 260.255C39.8839 260.807 41.6279 261.793 42.3579 263.456C43.7979 266.735 40.6279 270.527 41.5819 273.978C42.4269 277.033 45.2879 278.33 46.7909 281.12C47.4479 282.341 47.5449 283.718 47.3589 285.092C47.0449 287.418 46.6169 289.114 45.3659 291.655C44.3319 293.754 41.4189 297.723 41.4189 297.723C41.4189 297.723 21.9339 308.983 21.7549 309.074Z" fill="white"/>
</g>
<path d="M33.064 303.18C33.057 303.18 33.05 303.179 33.05 303.179C32.761 303.152 32.554 302.902 32.579 302.621C34.45 282.342 26.006 259.424 19.372 252.554C19.176 252.351 19.181 252.026 19.384 251.829C19.588 251.633 19.912 251.639 20.109 251.841C26.876 258.848 35.496 282.149 33.6 302.714C33.575 302.99 33.337 303.194 33.064 303.18Z" fill="white"/>
<path d="M31.05 278.175C31 278.172 30.949 278.163 30.9 278.144C24.473 275.796 16.353 275.03 16.272 275.023C15.99 274.997 15.783 274.747 15.808 274.465C15.834 274.184 16.059 273.972 16.366 274.001C16.449 274.009 24.697 274.787 31.251 277.181C31.517 277.278 31.654 277.572 31.557 277.838C31.478 278.056 31.269 278.186 31.05 278.175Z" fill="white"/>
<path d="M458.581 297.721L450.768 293.206C450.768 293.206 446.118 273.884 447.971 256.497C450.576 232.052 466.667 222.854 472.786 224.963C478.904 227.071 480.677 234.184 470.553 248.743C464.579 257.333 457.241 275.225 458.581 297.721Z" fill="#C340F1"/>
<g opacity="0.65">
<path d="M458.581 297.721L450.768 293.206C450.768 293.206 446.118 273.884 447.971 256.497C450.576 232.052 466.667 222.854 472.786 224.963C478.904 227.071 480.677 234.184 470.553 248.743C464.579 257.333 457.241 275.225 458.581 297.721Z" fill="white"/>
</g>
<path d="M455.344 288.228C455.369 288.227 455.394 288.224 455.419 288.219C455.713 288.163 455.906 287.88 455.85 287.586C451.567 265.039 459.443 239.704 469.197 229.161C469.4 228.942 469.387 228.598 469.167 228.395C468.947 228.194 468.604 228.205 468.401 228.425C458.47 239.16 450.44 264.909 454.786 287.787C454.836 288.057 455.078 288.242 455.344 288.228Z" fill="white"/>
<path d="M478.245 309.074C479.412 309.668 482.516 307.011 483.381 306.365C484.862 305.259 486.031 303.74 486.773 302.051C487.636 300.085 487.775 298.018 487.367 295.913C487.156 294.821 486.794 293.764 486.433 292.712C486.079 291.679 485.725 290.646 485.37 289.613C485.02 288.594 484.666 287.539 484.749 286.464C484.916 284.299 486.749 282.696 488.419 281.309C490.266 279.775 492.169 277.777 492.027 275.188C491.918 273.191 490.79 271.387 489.472 269.882C488.155 268.376 486.616 267.065 485.413 265.467C484.547 264.316 483.848 262.948 483.907 261.509C483.943 260.615 484.27 259.758 484.657 258.951C485.486 257.219 486.615 255.614 487.154 253.771C487.693 251.928 487.49 249.68 486.011 248.455C484.797 247.45 483.065 247.388 481.5 247.571C480.052 247.74 478.665 248.467 477.43 249.239C473.435 251.732 471.334 256.719 467.061 258.698C465.413 259.461 463.577 259.703 461.846 260.255C460.116 260.807 458.372 261.793 457.642 263.456C456.202 266.735 459.372 270.527 458.418 273.978C457.573 277.033 454.712 278.33 453.209 281.12C452.552 282.341 452.455 283.718 452.641 285.092C452.955 287.418 453.383 289.114 454.634 291.655C455.668 293.754 458.581 297.723 458.581 297.723C458.581 297.723 478.066 308.983 478.245 309.074Z" fill="#C340F1"/>
<g opacity="0.3">
<path d="M478.245 309.074C479.412 309.668 482.516 307.011 483.381 306.365C484.862 305.259 486.031 303.74 486.773 302.051C487.636 300.085 487.775 298.018 487.367 295.913C487.156 294.821 486.794 293.764 486.433 292.712C486.079 291.679 485.725 290.646 485.37 289.613C485.02 288.594 484.666 287.539 484.749 286.464C484.916 284.299 486.749 282.696 488.419 281.309C490.266 279.775 492.169 277.777 492.027 275.188C491.918 273.191 490.79 271.387 489.472 269.882C488.155 268.376 486.616 267.065 485.413 265.467C484.547 264.316 483.848 262.948 483.907 261.509C483.943 260.615 484.27 259.758 484.657 258.951C485.486 257.219 486.615 255.614 487.154 253.771C487.693 251.928 487.49 249.68 486.011 248.455C484.797 247.45 483.065 247.388 481.5 247.571C480.052 247.74 478.665 248.467 477.43 249.239C473.435 251.732 471.334 256.719 467.061 258.698C465.413 259.461 463.577 259.703 461.846 260.255C460.116 260.807 458.372 261.793 457.642 263.456C456.202 266.735 459.372 270.527 458.418 273.978C457.573 277.033 454.712 278.33 453.209 281.12C452.552 282.341 452.455 283.718 452.641 285.092C452.955 287.418 453.383 289.114 454.634 291.655C455.668 293.754 458.581 297.723 458.581 297.723C458.581 297.723 478.066 308.983 478.245 309.074Z" fill="white"/>
</g>
<path d="M466.936 303.18C466.943 303.18 466.95 303.179 466.95 303.179C467.239 303.152 467.446 302.902 467.421 302.621C465.55 282.342 473.994 259.424 480.628 252.554C480.824 252.351 480.819 252.026 480.616 251.829C480.412 251.633 480.088 251.639 479.891 251.841C473.124 258.848 464.504 282.149 466.4 302.714C466.425 302.99 466.663 303.194 466.936 303.18Z" fill="white"/>
<path d="M468.95 278.175C469 278.172 469.051 278.163 469.1 278.144C475.527 275.796 483.647 275.03 483.728 275.023C484.01 274.997 484.217 274.747 484.192 274.465C484.166 274.184 483.941 273.972 483.634 274.001C483.551 274.009 475.303 274.787 468.749 277.181C468.483 277.278 468.346 277.572 468.443 277.838C468.522 278.056 468.731 278.186 468.95 278.175Z" fill="white"/>
<path d="M250 493.454C383.853 493.454 492.363 430.805 492.363 353.524C492.363 276.243 383.853 213.594 250 213.594C116.147 213.594 7.63696 276.243 7.63696 353.524C7.63696 430.805 116.147 493.454 250 493.454Z" fill="#F5F5F5"/>
<path d="M194.197 377.754L263.326 337.842L177.931 288.539L108.802 328.451L194.197 377.754Z" fill="#E0E0E0"/>
<path d="M293.264 464.722L357.59 427.584L293.264 390.444L228.938 427.583L293.264 464.722Z" fill="#E0E0E0"/>
<path d="M391.409 411.029C422.402 411.029 447.527 396.523 447.527 378.629C447.527 360.734 422.402 346.229 391.409 346.229C360.416 346.229 335.291 360.734 335.291 378.629C335.291 396.523 360.416 411.029 391.409 411.029Z" fill="#E0E0E0"/>
<path d="M99.5411 416.781C138.622 416.781 170.303 398.49 170.303 375.927C170.303 353.364 138.622 335.073 99.5411 335.073C60.4603 335.073 28.7791 353.364 28.7791 375.927C28.7791 398.49 60.4603 416.781 99.5411 416.781Z" fill="#E0E0E0"/>
<path d="M20.741 93.2641C20.622 93.2641 20.503 93.2331 20.396 93.1711C20.182 93.0481 20.05 92.8191 20.05 92.5731V69.7151C20.05 69.4691 20.182 69.2401 20.396 69.1171L40.055 57.7671C40.268 57.6441 40.532 57.6441 40.744 57.7671C40.958 57.8901 41.09 58.1191 41.09 58.3651L41.0871 81.2251C41.0871 81.4721 40.9551 81.7001 40.7411 81.8231L21.0861 93.1711C20.9791 93.2331 20.86 93.2641 20.741 93.2641ZM21.432 70.1141V91.3791L39.7071 80.8281L39.71 59.5611L21.432 70.1141Z" fill="#E0E0E0"/>
<path d="M20.741 132.107C20.622 132.107 20.503 132.076 20.396 132.014C20.182 131.891 20.05 131.662 20.05 131.416V108.557C20.05 108.311 20.182 108.082 20.396 107.959L40.055 96.6098C40.268 96.4868 40.532 96.4868 40.744 96.6098C40.958 96.7328 41.09 96.9618 41.09 97.2078L41.0871 120.068C41.0871 120.315 40.9551 120.543 40.7411 120.666L21.085 132.014C20.979 132.076 20.86 132.107 20.741 132.107ZM21.432 108.955V130.221L39.7071 119.67L39.71 98.4028L21.432 108.955Z" fill="#E0E0E0"/>
<path d="M30.3301 121.419L25.7571 117.019L27.2811 113.779L29.8851 116.284L41.1571 92.4346L43.1261 94.3296L30.3301 121.419Z" fill="#C340F1"/>
<path d="M20.741 170.949C20.622 170.949 20.503 170.918 20.396 170.856C20.182 170.733 20.05 170.504 20.05 170.258V147.4C20.05 147.154 20.182 146.925 20.396 146.802L40.055 135.452C40.268 135.329 40.532 135.329 40.744 135.452C40.958 135.575 41.09 135.804 41.09 136.05L41.0871 158.91C41.0871 159.157 40.9551 159.385 40.7411 159.508L21.085 170.856C20.979 170.917 20.86 170.949 20.741 170.949ZM21.432 147.798V169.063L39.7071 158.512L39.71 137.245L21.432 147.798Z" fill="#E0E0E0"/>
<path d="M478.914 93.1711L459.258 81.8231C459.044 81.7001 458.912 81.4721 458.912 81.2251L458.909 58.3651C458.909 58.1191 459.041 57.8901 459.255 57.7671C459.468 57.6441 459.732 57.6441 459.944 57.7671L479.603 69.1171C479.817 69.2401 479.949 69.4691 479.949 69.7151V92.5731C479.949 92.8191 479.817 93.0481 479.603 93.1711C479.497 93.2331 479.378 93.2641 479.258 93.2641C479.14 93.2641 479.021 93.2331 478.914 93.1711ZM460.29 59.5611L460.293 80.8281L478.568 91.3791V70.1141L460.29 59.5611Z" fill="#E0E0E0"/>
<path d="M478.914 132.014L459.258 120.666C459.044 120.543 458.912 120.315 458.912 120.068L458.909 97.2078C458.909 96.9618 459.041 96.7328 459.255 96.6098C459.468 96.4868 459.732 96.4868 459.944 96.6098L479.603 107.959C479.817 108.082 479.949 108.311 479.949 108.557V131.416C479.949 131.662 479.817 131.891 479.603 132.014C479.497 132.075 479.378 132.107 479.258 132.107C479.14 132.107 479.021 132.076 478.914 132.014ZM460.29 98.4038L460.293 119.671L478.568 130.222V108.956L460.29 98.4038Z" fill="#E0E0E0"/>
<path d="M478.914 170.856L459.258 159.508C459.044 159.385 458.912 159.157 458.912 158.91L458.909 136.05C458.909 135.804 459.041 135.575 459.255 135.452C459.468 135.329 459.732 135.329 459.944 135.452L479.603 146.802C479.817 146.925 479.949 147.154 479.949 147.4V170.258C479.949 170.504 479.817 170.733 479.603 170.856C479.497 170.917 479.378 170.949 479.258 170.949C479.14 170.949 479.021 170.917 478.914 170.856ZM460.29 137.245L460.293 158.512L478.568 169.063V147.798L460.29 137.245Z" fill="#E0E0E0"/>
<path d="M468.5 158.871L463.928 149.192L466.041 147.172L469.092 153.667L479.775 143.374L481.297 146.558L468.5 158.871Z" fill="#C340F1"/>
<path d="M198.149 68.0216L178.493 56.6736C178.279 56.5506 178.147 56.3226 178.147 56.0756L178.144 33.2156C178.144 32.9696 178.276 32.7406 178.49 32.6176C178.703 32.4946 178.967 32.4946 179.179 32.6176L198.838 43.9666C199.052 44.0896 199.184 44.3186 199.184 44.5646V67.4236C199.184 67.6696 199.052 67.8986 198.838 68.0216C198.732 68.0836 198.612 68.1146 198.493 68.1146C198.375 68.1146 198.255 68.0836 198.149 68.0216ZM179.525 34.4116L179.528 55.6786L197.803 66.2296V44.9636L179.525 34.4116Z" fill="#E0E0E0"/>
<path d="M188.349 57.329L183.776 47.65L185.889 45.63L188.94 52.125L199.623 41.832L201.145 45.016L188.349 57.329Z" fill="#C340F1"/>
<path d="M228.633 85.6125L208.977 74.2645C208.763 74.1415 208.631 73.9135 208.631 73.6665L208.628 50.8065C208.628 50.5605 208.76 50.3315 208.974 50.2085C209.187 50.0855 209.451 50.0855 209.663 50.2085L229.322 61.5575C229.536 61.6805 229.668 61.9095 229.668 62.1555V85.0145C229.668 85.2605 229.536 85.4895 229.322 85.6125C229.216 85.6745 229.096 85.7055 228.977 85.7055C228.858 85.7045 228.739 85.6735 228.633 85.6125ZM210.008 52.0015L210.011 73.2685L228.286 83.8195V62.5535L210.008 52.0015Z" fill="#E0E0E0"/>
<path d="M259.082 103.203L239.426 91.8553C239.212 91.7323 239.08 91.5043 239.08 91.2573L239.077 68.3973C239.077 68.1513 239.209 67.9223 239.423 67.7993C239.636 67.6763 239.9 67.6763 240.112 67.7993L259.771 79.1483C259.985 79.2713 260.117 79.5003 260.117 79.7463V102.605C260.117 102.851 259.985 103.08 259.771 103.203C259.665 103.265 259.545 103.296 259.426 103.296C259.307 103.295 259.188 103.264 259.082 103.203ZM240.458 69.5923L240.461 90.8593L258.736 101.41V80.1443L240.458 69.5923Z" fill="#E0E0E0"/>
<path d="M181.234 161.391L125.997 324.955L122.052 327.232L177.291 163.668L181.234 161.391Z" fill="#455A64"/>
<path d="M122.052 327.232L120.097 326.109L175.334 162.544L177.291 163.668L122.052 327.232Z" fill="#263238"/>
<path d="M177.289 295.342L175.334 294.22L120.097 194.437L122.054 195.561L177.289 295.342Z" fill="#263238"/>
<path d="M125.997 193.282L181.234 293.063L177.289 295.34L122.054 195.559L125.997 193.282Z" fill="#455A64"/>
<path d="M195.061 233.165L195.062 237.721L254.243 203.55V198.995L195.061 233.165Z" fill="#455A64"/>
<path d="M195.063 233.165L195.062 237.721L120.096 194.439L120.098 189.884L195.063 233.165Z" fill="#37474F"/>
<path d="M254.243 203.55L199.006 367.115L195.061 369.392L250.3 205.827L254.243 203.55Z" fill="#455A64"/>
<path d="M195.061 369.392L193.106 368.269L248.343 204.703L250.3 205.827L195.061 369.392Z" fill="#263238"/>
<path d="M250.298 337.502L248.343 336.379L193.106 236.597L195.063 237.72L250.298 337.502Z" fill="#263238"/>
<path d="M199.006 235.441L254.243 335.222L250.298 337.499L195.063 237.718L199.006 235.441Z" fill="#455A64"/>
<path d="M179.279 73.708L163.483 82.828C136.636 98.328 120.098 126.974 120.098 157.974V189.884L124.043 192.162L183.224 157.992V75.986L179.279 73.708Z" fill="#C340F1"/>
<path opacity="0.6" d="M179.279 73.708L163.483 82.828C136.636 98.328 120.098 126.974 120.098 157.974V189.884L124.043 192.162L183.224 157.992V75.986L179.279 73.708Z" fill="white"/>
<path opacity="0.6" d="M126.513 125.25L183.223 157.992L183.224 75.986L179.28 73.708L163.483 82.828C146.515 92.625 133.672 107.676 126.513 125.25Z" fill="white"/>
<path d="M124.042 192.161V160.251C124.042 129.251 140.58 100.606 167.427 85.1054L183.223 75.9854V157.991L124.042 192.161Z" fill="#C340F1"/>
<path opacity="0.7" d="M124.042 192.161V160.251C124.042 129.251 140.58 100.606 167.427 85.1054L183.223 75.9854V157.991L124.042 192.161Z" fill="white"/>
<path d="M191.115 226.33L124.042 187.605L183.225 153.436L250.299 192.161L191.115 226.33Z" fill="#C340F1"/>
<path opacity="0.8" d="M191.115 226.33L124.042 187.605L183.225 153.436L250.299 192.161L191.115 226.33Z" fill="white"/>
<path d="M191.117 230.887L191.115 226.33L124.042 187.605V192.161L191.117 230.887Z" fill="#C340F1"/>
<path opacity="0.6" d="M191.117 230.887L191.115 226.33L124.042 187.605V192.161L191.117 230.887Z" fill="white"/>
<path opacity="0.3" d="M146.298 189.473L173.917 205.419L209.426 184.917L181.807 168.972L146.298 189.473Z" fill="#C340F1"/>
<path d="M146.298 187.848L173.917 203.794L209.426 183.292L181.807 167.347L146.298 187.848Z" fill="#FAFAFA"/>
<path d="M193.643 188.092C193.601 188.092 193.56 188.082 193.522 188.06L189.577 185.782C189.502 185.738 189.456 185.658 189.456 185.571C189.456 185.484 189.503 185.404 189.577 185.36L193.522 183.082C193.598 183.038 193.689 183.038 193.765 183.082L197.711 185.36C197.786 185.404 197.832 185.484 197.832 185.571C197.832 185.658 197.786 185.738 197.711 185.782L193.765 188.06C193.727 188.081 193.685 188.092 193.643 188.092ZM190.184 185.57L193.643 187.568L197.103 185.57L193.643 183.572L190.184 185.57Z" fill="#C340F1"/>
<path d="M185.752 192.647C185.71 192.647 185.668 192.637 185.63 192.615L181.685 190.336C181.61 190.292 181.564 190.212 181.564 190.126C181.564 190.04 181.61 189.959 181.685 189.915L185.63 187.637C185.706 187.593 185.797 187.593 185.873 187.637L189.819 189.915C189.894 189.959 189.941 190.039 189.941 190.126C189.941 190.212 189.895 190.293 189.819 190.336L185.873 192.615C185.836 192.637 185.794 192.647 185.752 192.647ZM182.293 190.126L185.752 192.124L189.212 190.126L185.752 188.128L182.293 190.126Z" fill="#C340F1"/>
<path d="M177.862 197.203C177.82 197.203 177.779 197.193 177.741 197.171L173.795 194.893C173.72 194.849 173.673 194.769 173.673 194.682C173.673 194.596 173.719 194.515 173.795 194.471L177.741 192.193C177.817 192.149 177.908 192.149 177.984 192.193L181.929 194.471C182.004 194.515 182.05 194.595 182.05 194.682C182.05 194.768 182.004 194.849 181.929 194.893L177.984 197.171C177.946 197.193 177.904 197.203 177.862 197.203ZM174.402 194.682L177.862 196.68L181.321 194.682L177.862 192.684L174.402 194.682Z" fill="#C340F1"/>
<path d="M187.691 182.685C187.608 182.685 187.525 182.664 187.448 182.62L175.612 175.787C175.38 175.653 175.3 175.356 175.435 175.124C175.569 174.892 175.867 174.813 176.098 174.947L187.934 181.78C188.166 181.914 188.246 182.211 188.111 182.443C188.022 182.598 187.858 182.685 187.691 182.685Z" fill="#E0E0E0"/>
<path d="M179.834 187.195C179.751 187.195 179.668 187.174 179.591 187.129L167.755 180.295C167.523 180.161 167.443 179.864 167.578 179.632C167.712 179.4 168.01 179.321 168.241 179.455L180.077 186.289C180.309 186.423 180.389 186.72 180.254 186.952C180.165 187.108 180.001 187.195 179.834 187.195Z" fill="#E0E0E0"/>
<path d="M171.977 191.705C171.894 191.705 171.811 191.684 171.734 191.639L159.898 184.806C159.666 184.672 159.586 184.375 159.721 184.143C159.855 183.911 160.153 183.832 160.384 183.966L172.22 190.799C172.452 190.933 172.532 191.23 172.397 191.462C172.309 191.617 172.144 191.705 171.977 191.705Z" fill="#E0E0E0"/>
<path d="M183.224 75.9863L250.298 114.711L246.354 116.989L179.279 78.2633L183.224 75.9863Z" fill="#C340F1"/>
<path opacity="0.8" d="M183.224 75.9863L250.298 114.711L246.354 116.989L179.279 78.2633L183.224 75.9863Z" fill="white"/>
<path d="M179.279 78.2637V155.716L246.352 194.441L246.354 116.99L179.279 78.2637Z" fill="#C340F1"/>
<path opacity="0.6" d="M179.279 78.2637V155.716L246.352 194.441L246.354 116.99L179.279 78.2637Z" fill="white"/>
<path d="M250.298 114.711L234.501 123.831C207.655 139.331 191.116 167.977 191.116 198.977V230.887L195.06 233.165L254.241 198.995V116.989L250.298 114.711Z" fill="#C340F1"/>
<path opacity="0.6" d="M250.298 114.711L234.501 123.831C207.655 139.331 191.116 167.977 191.116 198.977V230.887L195.06 233.165L254.241 198.995V116.989L250.298 114.711Z" fill="white"/>
<path opacity="0.6" d="M197.532 166.253L254.242 198.995L254.243 116.989L250.298 114.711L234.501 123.831C217.534 133.628 204.691 148.679 197.532 166.253Z" fill="white"/>
<path d="M195.062 233.165V201.255C195.062 170.255 211.6 141.61 238.447 126.109L254.244 116.989V198.995L195.062 233.165Z" fill="#C340F1"/>
<path opacity="0.8" d="M195.062 233.165V201.255C195.062 170.255 211.6 141.61 238.447 126.109L254.244 116.989V198.995L195.062 233.165Z" fill="white"/>
<path d="M220.924 166.804L219.127 171.399V174.025L218.863 174.177V171.551L217.061 169.035L217.398 168.84L218.704 170.712L218.995 171.177L219.275 170.382L220.593 166.996L220.924 166.804Z" fill="#455A64"/>
<path d="M223.238 171.727C221.91 172.493 221.212 171.683 221.212 169.767C221.212 167.851 221.921 166.153 223.238 165.392C224.566 164.626 225.271 165.5 225.271 167.424C225.271 169.34 224.549 170.97 223.238 171.727ZM223.244 165.717C221.973 166.451 221.482 168.094 221.482 169.612C221.482 171.132 221.979 172.126 223.244 171.395C224.504 170.668 225.002 169.092 225.002 167.58C225.001 166.083 224.521 164.981 223.244 165.717Z" fill="#455A64"/>
<path d="M229.719 161.726V165.092C229.719 167.007 229.136 168.321 227.899 169.035C226.663 169.749 226.073 169.121 226.073 167.198V163.831L226.331 163.683V167.079C226.331 168.614 226.766 169.361 227.899 168.708C229.027 168.056 229.462 166.814 229.462 165.271V161.875L229.719 161.726Z" fill="#455A64"/>
<path d="M234.341 165.241L234.038 165.416L233.482 164.118C233.225 163.518 232.847 163.393 232.188 163.774L230.958 164.485L230.981 164.511V167.182L230.723 167.331V161.148L232.612 160.057C233.408 159.598 234.021 159.801 234.021 160.985C234.021 161.763 233.683 162.63 232.979 163.235V163.25C233.34 163.21 233.575 163.502 233.718 163.838L234.341 165.241ZM232.613 160.384L230.953 161.342L230.981 161.371V164.096L230.953 164.159L232.549 163.237C233.391 162.75 233.752 161.863 233.752 161.139C233.752 160.132 233.248 160.018 232.613 160.384Z" fill="#455A64"/>
<path d="M209.09 197.542L205.361 185.782L208.21 184.137L209.82 189.806C210.462 192.04 210.715 192.967 210.731 193.018L210.776 192.991C210.791 192.924 211.044 191.704 211.671 188.798L213.297 181.201L216.012 179.634L212.283 195.7L209.09 197.542Z" fill="#C340F1"/>
<path d="M221.645 176.103C224.836 174.261 227.148 175.907 227.148 180.16C227.148 184.413 224.835 188.73 221.645 190.572C218.453 192.414 216.141 190.768 216.141 186.515C216.141 182.262 218.453 177.945 221.645 176.103ZM221.645 187.413C223.375 186.414 224.628 184.102 224.628 181.616C224.628 179.112 223.375 178.245 221.645 179.244C219.915 180.243 218.662 182.555 218.662 185.06C218.661 187.545 219.914 188.412 221.645 187.413Z" fill="#C340F1"/>
<path d="M233.363 172.716V183.528L230.857 184.975V174.163L227.665 176.005V172.905L236.554 167.772V170.873L233.363 172.716Z" fill="#C340F1"/>
<path d="M237.848 167.028L245.454 162.636V165.737L240.354 168.682V171.067L244.112 168.897V171.679L240.354 173.848V176.392L245.529 173.404V176.506L237.848 180.94V167.028Z" fill="#C340F1"/>
<path d="M215.932 204.147L215.675 204.295V198.892L215.663 198.898L215.343 200.137L213.809 205.449L213.798 205.456L212.258 201.896L211.943 201.039L211.932 201.046V206.457L211.674 206.606V200.423L211.909 200.287L213.563 204.102L213.798 204.707L213.809 204.7L214.043 203.816L215.697 198.098L215.931 197.963V204.147H215.932Z" fill="#455A64"/>
<path d="M220.743 201.369L220.451 201.538L219.924 200.208L219.936 200.171L217.336 201.672L217.348 201.703L216.827 203.629L216.535 203.797L218.527 196.465L218.756 196.333L220.743 201.369ZM219.827 199.905L219.793 199.878L218.773 197.269L218.648 196.8L218.637 196.807L218.505 197.424L217.48 201.222L217.447 201.279L219.827 199.905Z" fill="#455A64"/>
<path d="M224.008 193.63L222.33 194.599L222.347 194.626V200.443L222.089 200.592V194.776L222.107 194.728L220.429 195.696V195.368L224.008 193.302V193.63Z" fill="#455A64"/>
<path d="M227.816 191.431L226.139 192.4L226.156 192.427V198.243L225.898 198.392V192.576L225.915 192.529L224.238 193.496V193.168L227.816 191.102V191.431Z" fill="#455A64"/>
<path d="M231.566 195.12L228.446 196.922V190.739L231.566 188.938V189.266L228.675 190.935L228.704 190.956V193.475L228.675 193.53L231.292 192.019V192.346L228.675 193.857L228.704 193.879V196.406L228.675 196.461L231.566 194.792V195.12Z" fill="#455A64"/>
<path d="M236.101 192.502L235.798 192.677L235.242 191.379C234.985 190.779 234.607 190.654 233.948 191.034L232.718 191.745L232.741 191.77V194.441L232.483 194.591V188.408L234.372 187.317C235.168 186.857 235.78 187.061 235.78 188.245C235.78 189.023 235.443 189.89 234.738 190.495V190.51C235.099 190.469 235.334 190.761 235.477 191.098L236.101 192.502ZM234.373 187.645L232.713 188.603L232.741 188.632V191.358L232.713 191.42L234.309 190.498C235.151 190.011 235.512 189.125 235.512 188.4C235.512 187.392 235.009 187.278 234.373 187.645Z" fill="#455A64"/>
<path d="M238.193 191.369C237.517 191.76 236.894 191.815 236.418 191.509L236.63 191.112C237.077 191.397 237.603 191.382 238.182 191.048C239.149 190.488 239.63 189.647 239.63 188.93C239.63 188.365 239.309 188.076 238.605 188.217C238.503 188.237 237.856 188.359 237.747 188.385C236.911 188.539 236.464 188.399 236.464 187.59C236.464 186.811 236.946 185.756 238.153 185.058C238.777 184.697 239.309 184.68 239.704 184.963L239.504 185.345C239.172 185.087 238.691 185.076 238.159 185.383C237.243 185.911 236.733 186.709 236.733 187.419C236.733 188.075 237.185 188.105 237.918 187.972L238.702 187.823C239.578 187.662 239.898 188.064 239.898 188.751C239.898 189.523 239.492 190.62 238.193 191.369Z" fill="#455A64"/>
<path d="M240.053 155.537L240.802 157.13L242.478 156.487L241.265 158.763L241.551 160.823L240.053 160.638L238.553 162.554L238.84 160.163L237.627 159.287L239.303 157.995L240.053 155.537Z" fill="#C340F1"/>
<path d="M211.196 172.197L210.447 174.655L208.771 175.947L209.984 176.823L209.697 179.214L211.196 177.298L212.695 177.483L212.409 175.423L213.622 173.147L211.946 173.79L211.196 172.197Z" fill="#C340F1"/>
<path d="M335.423 341.291L297.033 458.155L293.25 460.338L331.642 343.474L335.423 341.291Z" fill="#455A64"/>
<path d="M293.25 460.338L291.375 459.261L329.765 342.397L331.642 343.474L293.25 460.338Z" fill="#263238"/>
<path d="M346.224 429.755L344.349 428.678L306.525 356.598L308.401 357.675L346.224 429.755Z" fill="#263238"/>
<path d="M312.183 355.49L350.007 427.569L346.225 429.753L308.401 357.674L312.183 355.49Z" fill="#455A64"/>
<path d="M282.463 310.706L244.074 427.569L240.291 429.753L278.682 312.889L282.463 310.706Z" fill="#455A64"/>
<path d="M240.291 429.753L238.416 428.676L276.805 311.812L278.682 312.889L240.291 429.753Z" fill="#263238"/>
<path d="M293.264 399.17L291.389 398.093L253.565 326.013L255.442 327.09L293.264 399.17Z" fill="#263238"/>
<path d="M259.223 324.905L297.048 396.984L293.265 399.168L255.441 327.089L259.223 324.905Z" fill="#455A64"/>
<path d="M289.48 370.783L228.936 335.829L293.263 298.69L353.805 333.645L289.48 370.783Z" fill="#455A64"/>
<path d="M289.48 375.153V370.784L353.805 333.646L353.806 338.015L289.48 375.153Z" fill="#37474F"/>
<path d="M289.48 375.152V370.783L228.936 335.829L228.963 340.183L289.48 375.152Z" fill="#263238"/>
<path d="M289.508 366.414V313.991L237.946 284.322V336.744L289.508 366.414Z" fill="#C340F1"/>
<path d="M289.508 313.992L344.811 282.045V334.467L289.508 366.415V313.992Z" fill="#C340F1"/>
<path opacity="0.15" d="M289.508 313.992L344.811 282.045V334.467L289.508 366.415V313.992Z" fill="white"/>
<path d="M289.508 313.991L236.505 283.477L293.249 250.689L346.252 281.204L289.508 313.991Z" fill="#C340F1"/>
<path opacity="0.3" d="M289.508 313.991L236.505 283.477L293.249 250.689L346.252 281.204L289.508 313.991Z" fill="white"/>
<path d="M289.508 313.992V323.353L236.505 292.85V283.478L289.508 313.992Z" fill="#C340F1"/>
<path d="M346.252 281.204L289.508 313.991V323.352L346.252 290.572V281.204Z" fill="#C340F1"/>
<path opacity="0.15" d="M346.252 281.204L289.508 313.991V323.352L346.252 290.572V281.204Z" fill="white"/>
<path opacity="0.1" d="M237.946 293.681V295.739L289.507 325.409V323.351L237.946 293.681ZM344.811 291.404L289.507 323.351L289.508 325.41L344.81 293.462L344.811 291.404Z" fill="black"/>
<path d="M274.344 287.768L281.912 292.137L308.399 276.845L300.831 272.476L274.344 287.768Z" fill="#C340F1"/>
<path opacity="0.2" d="M306.507 277.94L308.399 276.845L300.831 272.476L300.839 274.678L306.507 277.94Z" fill="black"/>
<path opacity="0.1" d="M276.236 288.861L300.831 274.66V272.476L274.344 287.768L276.236 288.861Z" fill="black"/>
<path d="M301.299 344.333L297.726 333.052L300.456 331.476L301.999 336.914C302.614 339.055 302.856 339.945 302.871 339.994L302.914 339.969C302.928 339.904 303.172 338.733 303.772 335.947L305.33 328.661L307.931 327.16L304.358 342.566L301.299 344.333Z" fill="#FAFAFA"/>
<path d="M313.338 323.772C316.397 322.006 318.612 323.586 318.612 327.665C318.612 331.744 316.396 335.883 313.338 337.649C310.278 339.414 308.063 337.834 308.063 333.755C308.064 329.676 310.279 325.538 313.338 323.772ZM313.338 334.617C314.997 333.66 316.196 331.442 316.196 329.059C316.196 326.658 314.996 325.826 313.338 326.784C311.68 327.741 310.479 329.959 310.479 332.361C310.479 334.744 311.68 335.575 313.338 334.617Z" fill="#FAFAFA"/>
<path d="M324.576 320.525V330.895L322.174 332.281V321.911L319.115 323.677V320.703L327.635 315.784V318.757L324.576 320.525Z" fill="#FAFAFA"/>
<path d="M328.88 315.065L336.17 310.856V313.829L331.281 316.651V318.939L334.884 316.859V319.527L331.281 321.607V324.047L336.242 321.183V324.157L328.879 328.408V315.065H328.88Z" fill="#FAFAFA"/>
<path d="M307.53 273.723L305.146 278.68L281.911 292.136L277.064 289.34L290.085 261.854L307.53 273.723Z" fill="#FAFAFA"/>
<path d="M161.255 384.155C162.034 384.078 162.048 385.979 161.565 386.891C160.176 389.512 156.319 392.332 150.671 393.58C145.023 394.827 133.969 393.34 130.618 393.212C127.267 393.084 121.489 394.785 118.152 395.324C112.074 396.304 107.911 394.621 105.921 392.668C105.141 391.902 105.065 390.772 105.09 389.798C105.148 387.488 105.35 387.021 105.608 387.039L161.255 384.155Z" fill="#37474F"/>
<path d="M106.267 380.302C105.777 382.561 105.409 386.33 105.733 388.635C106.436 390.355 108.318 391.333 109.824 391.805C113.799 393.05 117.696 392.81 122.07 391.876C124.692 391.316 127.548 390.716 130.696 390.889C134.154 391.078 141.781 391.853 145.252 391.898C148.199 391.936 151.977 391.338 154.691 390.078C156.983 389.014 160.455 386.656 161.228 384.881C161.979 380.727 161.555 378.254 159.161 376.848C156.632 375.361 153.018 375.068 148.024 374.691C146.528 374.578 144.642 374.492 143.843 374.405C140.819 374.072 137.994 373.846 135.701 373.701C133.737 373.577 131.814 373.433 130.05 372.467C129.209 372.007 128.58 371.536 128.188 370.663C127.71 369.599 127.722 368.05 126.793 367.961C126.793 367.961 109.691 370.869 108.307 371.01C106.709 371.174 107.753 373.458 106.267 380.302Z" fill="#455A64"/>
<path d="M145.165 374.247C145.663 374.577 146.17 375.271 146.426 375.743C146.778 376.391 147.026 377.012 147.211 377.728C147.438 378.601 146.363 378.774 145.942 377.773C145.654 377.088 145.361 376.311 144.716 375.399C144.408 374.963 143.727 374.393 143.231 374.339C142.856 374.3 142.366 374.249 142.366 374.249C142.598 373.602 144.503 373.808 145.165 374.247Z" fill="#FAFAFA"/>
<path d="M137.447 373.348C138.058 373.28 138.558 373.443 139.056 373.837C139.644 374.302 140.009 374.956 140.267 375.642C140.476 376.199 140.889 377.628 140.955 378.223C141.017 378.784 139.698 378.765 139.554 378.154C139.412 377.551 139.124 376.434 138.88 375.802C138.73 375.414 138.046 373.941 137.136 373.793L136.725 373.769C136.722 373.574 136.982 373.44 137.164 373.396C137.258 373.375 137.352 373.358 137.447 373.348Z" fill="#FAFAFA"/>
<path d="M132.921 373.214C133.361 373.369 133.636 373.419 133.924 373.794C134.195 374.146 134.507 374.715 134.63 375.148C134.971 376.344 135.003 376.892 135.03 377.913C135.049 378.635 133.734 378.445 133.689 377.962C133.549 376.439 133.547 375.443 132.824 374.331C132.228 373.414 131.689 373.141 131.689 373.141C131.725 373.012 131.919 372.995 132.047 373.016C132.245 373.048 132.73 373.147 132.921 373.214Z" fill="#FAFAFA"/>
<path d="M106.373 352.587C106.373 352.587 107.85 368.321 108.223 371.955C108.342 373.116 110.538 373.581 111.669 374.072C112.8 374.563 114.585 375.343 115.557 376.308C118.432 379.164 120.598 379.833 122.328 374.83C122.682 373.806 123.341 373.363 124.654 373.604C125.636 373.785 126.635 374.221 127.622 374.021C127.774 373.922 127.682 373.687 127.58 373.537C126.784 372.393 126.378 371.668 126.538 369.587C127.033 363.153 127.303 356.697 127.666 350.252L106.373 352.587Z" fill="#FFBDA7"/>
<path d="M51.291 341.049C53.325 337.797 53.963 331.759 55.422 320.545L73.915 330.073L65.989 349.495C65.448 350.424 65.429 351.822 65.24 352.094C63.024 355.281 51.291 341.049 51.291 341.049Z" fill="#FFBDA7"/>
<path d="M45.1449 347.987C45.1709 347.799 45.0709 346.266 45.1189 346.082C45.5499 344.431 46.5709 343.974 47.8809 343.052C49.5049 341.908 51.0789 340.539 51.4959 339.961C51.9349 339.353 52.0199 339.038 52.6999 338.761C53.8599 338.289 55.7249 338.251 58.0229 339.458C61.7879 341.436 62.9369 343.817 62.7199 346.398C62.5549 348.366 62.3909 350.983 64.1259 352.153C64.8479 352.64 65.9879 349.495 65.9879 349.495C67.0579 351.288 65.555 353.77 64.771 357.402C64.233 359.894 64.3639 360.978 64.6659 363.509C65.0459 366.698 65.4879 366.685 67.1799 366.907C68.6379 367.098 72.7749 366.821 75.2909 368.579C78.7589 371.001 77.8319 374.224 77.8319 374.224C77.3829 375.45 73.6119 381.396 59.8339 379.175C55.8379 378.531 47.4419 372.247 47.5699 371.661C47.6889 371.115 47.5569 370.407 47.5379 369.856C47.4899 368.447 47.4289 367.039 47.3679 365.631C47.3119 364.347 47.4419 362.853 47.1339 361.606C46.8589 360.496 46.7279 359.433 46.6209 358.278C46.3569 355.449 46.0939 352.621 45.8299 349.793C45.7549 348.978 45.0349 348.791 45.1449 347.987Z" fill="#455A64"/>
<path d="M43.41 347.428C42.052 348.743 42.878 352.558 44.7 357.137C45.508 359.168 47.014 362.665 46.572 366.382C46.13 370.098 46.052 371.855 47.01 373.597C48.509 376.322 56.519 379.809 61.239 380.901C61.239 380.901 56.914 375.471 56.439 367.267C55.964 359.063 55.338 353.774 51.587 350.136C46.843 345.536 43.41 347.428 43.41 347.428Z" fill="black"/>
<path d="M77.8329 374.223C77.8329 374.223 75.0689 379.4 64.4099 379.231C60.2139 379.165 57.9679 377.12 57.8649 370.742C57.7409 363.055 57.1219 355.292 54.6359 351.476C52.1499 347.66 48.1899 345.81 45.1179 346.082C44.5839 346.167 43.9099 346.677 43.4089 347.428C43.4089 347.428 46.4839 346.418 51.2659 350.387C54.7969 353.318 55.7519 359.438 55.6979 367.039C55.6749 370.31 55.4759 374.019 56.4339 376.501C57.3169 378.789 59.2749 380.356 61.5239 380.987C67.3199 382.614 75.2499 379.932 77.2559 377.483C78.4079 375.851 77.8329 374.223 77.8329 374.223Z" fill="#37474F"/>
<path d="M65.028 365.512C65.028 365.512 65.806 366.061 65.89 366.784C65.975 367.507 65.725 369.177 64.21 370.122C63.568 370.523 63.008 370.382 64.028 369.035C65.048 367.689 65.028 365.512 65.028 365.512Z" fill="#FAFAFA"/>
<path d="M64.454 361.534C64.454 361.534 64.793 361.752 64.878 362.82C64.924 363.393 64.033 365.7 62.911 366.25C61.79 366.8 62.396 365.506 62.882 364.871C63.415 364.175 64.356 362.593 64.454 361.534Z" fill="#FAFAFA"/>
<path d="M64.832 357.138C64.832 357.138 65.196 357.239 64.807 358.71C64.676 359.206 63.207 360.663 62.484 360.749C61.761 360.836 61.41 360.474 62.297 359.831C62.997 359.325 64.697 357.852 64.832 357.138Z" fill="#FAFAFA"/>
<path d="M71.734 337.503C71.734 337.503 75.124 329.55 87.189 302.559C90.839 294.392 91.789 288.333 92.709 284.323C93.668 280.147 97.794 259.604 97.794 259.604L103.055 293.786C102.298 297.446 101.204 303.028 101.185 307.278C101.166 312.926 101.895 321.495 103.49 333.118C105.929 350.892 106.588 360.141 106.588 360.141C107.843 361.037 111.814 362.791 118.63 362.406C122.983 362.16 127.568 359.922 127.568 359.922C127.568 359.922 129.111 341.434 129.751 328.538C130.342 316.638 131.319 303.19 131.824 296.013C132.774 282.528 133.081 276.717 133.216 255.473C133.356 233.44 131.678 201.031 131.678 201.031L69.171 199.591C69.171 199.591 65.062 208.772 66.318 227.749C65.832 246.285 63.075 281.552 63.075 281.552C60.467 287.858 57.615 296.762 56.468 307.656C55.546 316.416 54.158 327.957 54.158 327.957C60.778 327.704 68.064 332.042 71.734 337.503Z" fill="#C340F1"/>
<path opacity="0.2" d="M97.84 259.782L94.388 235.286C94.388 235.286 86.282 234.665 76.536 226.554C76.536 226.554 77.818 233.813 91.643 238.774L95.254 264.257L92.627 284.96C92.628 284.962 97.779 260.247 97.84 259.782Z" fill="black"/>
<path d="M146.6 176.914L148.772 177.276L150.06 179.095C150.06 179.095 149.412 180.353 150.082 181.689C150.752 183.025 151.725 182.603 151.725 182.603L152.698 180.193L153.1 176.843L150.369 174.426L147.693 173.901L146.6 176.914Z" fill="#B16668"/>
<path d="M154.477 175.813C154.755 177.385 154.821 177.967 154.583 178.725C154.346 179.483 154.093 180.372 153.663 181.259C153.378 181.846 152.281 181.846 151.603 180.368C151.043 179.147 151.835 176.434 151.835 176.434L154.477 175.813Z" fill="#F0997A"/>
<path d="M158.567 172.45C158.874 173.993 159.791 176.876 159.957 178.005C160.123 179.134 158.742 178.975 158.742 178.975L155.462 174.252L158.567 172.45Z" fill="#F0997A"/>
<path d="M146.275 161.022C147.74 160.417 147.714 160.399 149.735 161.475C151.755 162.551 156.195 165.461 157.559 166.688C158.923 167.915 158.555 170.277 158.565 172.316C158.575 174.356 158.936 176.562 158.575 177.133C158.215 177.704 157.611 177.348 157.611 177.348L146.275 161.022Z" fill="#FFBDA7"/>
<path d="M159.078 179.455L160.836 185.589C160.887 185.767 160.683 185.909 160.534 185.799L155.377 181.978L159.078 179.455Z" fill="#FFA8A7"/>
<path d="M160.564 185.814C160.554 185.809 160.544 185.806 160.534 185.799L155.377 181.978L157.334 180.644L157.783 181.292L160.648 185.607L160.564 185.814Z" fill="#F28F8F"/>
<path d="M160.534 185.799C160.683 185.909 160.887 185.768 160.836 185.589L160.493 184.391C160.311 184.75 159.943 184.978 159.541 184.98L159.431 184.981L160.534 185.799Z" fill="#263238"/>
<path d="M137.578 156.339L137.915 156.824L138.319 157.411L155.376 181.977C156.073 182.15 156.806 181.974 157.43 181.625C158.382 181.098 159.09 180.171 159.075 179.456L142.026 154.903L141.249 153.784C141.713 154.536 138.053 157.087 137.578 156.339Z" fill="#455A64"/>
<path d="M137.579 156.339L137.916 156.825L138.32 157.412L155.377 181.977C156.297 182.146 157.108 181.912 157.835 181.368L140.071 155.499C140.138 155.45 140.139 155.412 140.087 155.388C139.107 156.143 137.844 156.759 137.579 156.339Z" fill="#37474F"/>
<path d="M138.854 158.191L139.608 159.274C139.816 159.595 140.625 159.331 141.446 158.864C142.537 158.247 143.549 157.128 143.274 156.702L142.72 155.903L142.517 155.621C142.792 156.047 141.781 157.167 140.689 157.784C139.902 158.23 139.122 158.49 138.881 158.223L138.879 158.22C138.868 158.213 138.861 158.203 138.854 158.191Z" fill="#EBEBEB"/>
<path d="M139.045 158.46C139.527 159.207 143.19 156.636 142.709 155.89L141.958 154.804C142.44 155.551 138.776 158.12 138.295 157.374L139.045 158.46Z" fill="#37474F"/>
<path d="M137.578 156.339L138.319 157.411C138.787 158.147 142.343 155.697 142.026 154.903C142.022 154.889 142.013 154.873 142.004 154.858L141.249 153.784C141.713 154.536 138.053 157.087 137.578 156.339Z" fill="#EBEBEB"/>
<path d="M160.747 185.809C160.695 185.839 160.628 185.848 160.567 185.818C160.627 185.849 160.694 185.841 160.747 185.809Z" fill="#FFA8A7"/>
<path d="M136.014 154.123L137.579 156.34C137.782 156.66 138.584 156.404 139.401 155.945C140.495 155.331 141.517 154.216 141.251 153.785C141.251 153.782 141.251 153.782 141.249 153.779L139.672 151.548C139.04 150.643 137.046 151.697 136.213 152.839C135.897 153.264 135.781 153.719 136.014 154.123Z" fill="#F28F8F"/>
<path opacity="0.1" d="M137.521 154.279C138.575 153.912 139.558 152.948 139.715 152.126C139.773 151.824 139.71 151.584 139.557 151.418C138.827 150.756 137 151.757 136.212 152.837C135.903 153.254 135.787 153.7 136.002 154.097C136.243 154.438 136.806 154.528 137.521 154.279Z" fill="black"/>
<path d="M146.663 169.426C148.195 171 149.9 171.403 152.851 172.241C153.8 172.511 155.387 173.456 156.783 174.393C157.95 175.176 158.497 176.644 156.265 177.68C154.764 178.377 152.857 177.511 151.209 177.203C150.378 177.048 149.393 176.962 148.776 176.999C146.46 177.137 146.059 177.881 143.445 178.473C140.831 179.064 138.733 178.408 137.271 178.664C135.81 178.92 101.733 189.124 101.733 189.124L101.374 170.152C101.374 170.152 129.86 168.015 134.447 167.22C138.172 166.574 142.567 163.528 142.567 163.528L146.663 169.426Z" fill="#FFBDA7"/>
<path d="M137.369 166.335C136.408 166.726 135.405 167.053 134.446 167.219C129.859 168.015 101.373 170.151 101.373 170.151L101.732 189.123C101.732 189.123 135.809 178.919 137.27 178.663C137.564 178.612 137.89 178.602 138.234 178.607L137.369 166.335Z" fill="#F0997A"/>
<path d="M154.312 167.21C153.579 167.981 152.82 168.059 152.219 167.741C151.618 167.423 149.631 165.854 149.631 165.854L154.606 173.019C154.606 173.019 154.321 171.981 154.681 171.109C155.023 170.69 155.346 170.36 155.966 170.258C155.043 170.108 154.361 170.602 154.361 170.602C154.361 170.602 153.124 169.972 153.033 168.65C154.334 167.758 154.312 167.21 154.312 167.21Z" fill="#F0997A"/>
<path d="M68.687 121.554C64.552 129.458 64.864 138.419 66.057 149.508C67.157 159.735 67.928 166.069 68.871 178.72C69.948 193.173 68.021 202.288 68.021 202.288C68.021 202.288 76.407 213.94 94.427 218.53C126.094 226.595 132.77 216.164 132.77 216.164C132.77 216.164 132.489 205.166 132.529 196.61C132.565 188.905 132.393 179.771 132.128 172.178C131.521 154.753 131.32 140.277 129.3 134.06C127.814 130.626 126.249 129.258 122.443 127.53C119.3 126.103 113.313 123.2 108.843 121.475C98.444 117.462 83.784 113.835 83.784 113.835C76.475 112.873 70.834 117.45 68.687 121.554Z" fill="#37474F"/>
<path d="M111.118 113.833L108.844 121.473C103.463 121.645 91.2531 119.501 88.7151 117.019L91.0581 107.957L111.118 113.833Z" fill="#FFBDA7"/>
<path d="M129.064 92.0859C129.064 92.0859 131.131 94.3449 131.794 100.958L127.755 102.911C127.397 98.2859 126.963 93.5629 129.064 92.0859Z" fill="#F0997A"/>
<path d="M123.129 72.8255C129.687 74.4915 132.157 81.0925 128.39 94.7375C128.852 109.61 123.527 114.479 121.338 116.011C116.764 117.474 112.464 117.061 106.991 114.501C102.819 112.55 92.3241 107.209 88.9431 99.4625C84.9671 90.3475 85.8111 77.7585 92.4841 74.2465C101.875 69.3025 119.656 71.9425 123.129 72.8255Z" fill="#FFBDA7"/>
<path d="M122.634 106.304C122.704 106.343 122.78 106.378 122.826 106.447C122.86 106.497 122.88 106.561 122.908 106.615C122.969 106.731 123.037 106.844 123.111 106.953C123.271 107.188 123.46 107.397 123.669 107.591C124.058 107.953 124.52 108.177 124.993 108.412C125.03 108.43 125.053 108.46 125.054 108.502C125.056 108.552 125.06 108.607 125.017 108.643C124.919 108.725 124.737 108.67 124.621 108.641C124.485 108.608 124.351 108.546 124.224 108.488C123.943 108.358 123.678 108.195 123.437 108.003C123.205 107.818 122.999 107.597 122.822 107.361C122.734 107.243 122.653 107.121 122.58 106.993C122.545 106.932 122.512 106.871 122.481 106.808C122.421 106.683 122.443 106.598 122.461 106.461C122.47 106.407 122.549 106.257 122.634 106.304Z" fill="#F0997A"/>
<path d="M121.338 116.011C120.126 116.858 113.872 117.64 110.303 116.569L111.118 113.832C111.118 113.832 116.002 115.711 121.338 116.011Z" fill="#F0997A"/>
<path d="M121.727 82.6744C121.727 82.6744 121.536 84.4814 120.289 85.6654C119.042 86.8504 117.724 87.4934 116.133 87.6264C116.74 89.5604 116.88 91.6334 116.537 93.6274C116.429 94.2544 116.258 94.9054 115.808 95.3634C115.015 96.1724 113.983 95.8894 113.658 94.9434C113.267 93.8074 113.06 92.6624 112.413 91.6204C111.664 90.4154 110.527 89.3954 109.144 88.9984C103.912 87.4974 102.361 95.7874 103.979 98.9904C106.628 104.231 110.042 101.811 110.042 101.811C110.042 101.811 110.532 109.232 104.829 111.355C104.829 111.355 95.9541 112.679 90.8341 108.777C86.8471 102.562 83.1071 95.5684 82.3351 89.9564C80.6541 77.7484 84.2851 70.8154 89.7301 69.8184C91.2141 65.5094 95.8621 63.5104 100.124 62.8104C105.932 61.8574 110.902 64.5494 116.477 65.5314C119.326 66.0334 122.292 65.8794 125.069 65.0864C126.304 64.7334 127.816 64.3164 128.733 65.1994C129.096 65.5494 129.275 66.0424 129.378 66.5304C129.741 68.2634 129.225 70.1514 128.026 71.4744C129.683 70.7024 132.182 71.6394 133.445 73.0604C135.259 75.1014 135.232 77.1254 133.979 79.7364C133.203 81.3624 128.753 86.1444 121.727 82.6744Z" fill="#263238"/>
<path d="M89.8161 70.9777L85.2671 67.1587C86.3441 65.9307 88.2361 65.7907 89.4921 66.8457C90.7481 67.8997 90.8931 69.7497 89.8161 70.9777Z" fill="#263238"/>
<path d="M180.419 208.219C179.242 207.042 178.056 205.986 177.08 205.061C176.266 204.29 175.217 203.228 173.424 201.247C172.66 200.403 171.82 200.816 170.239 200.304C168.657 199.792 169.128 198.533 168.138 198.059C166.98 197.505 166.58 197.848 165.459 197.332C164.081 196.699 163.367 195.221 161.682 195.845C158.626 196.977 157.662 198.394 153.447 194.497C143.03 184.868 136.614 178.718 136.614 178.718C136.614 178.718 134.647 152.352 133.793 146.265C132.637 138.024 132.897 132.258 122.114 128.749C122.114 128.749 113.465 132.733 114.144 148.401C114.731 161.932 116.31 175.264 117.107 181.775C117.78 187.274 118.761 187.964 125.654 192.731C142.574 204.432 145.178 206.298 147.309 207.67C150.167 209.509 153.118 211.703 156.27 211.874C159.2 212.033 163.405 210.105 165.446 208.992C168.742 207.195 171.402 206.264 172.501 206.534C173.601 206.804 175.53 208.864 177.53 209.413C179.4 209.927 180.993 208.792 180.419 208.219Z" fill="#FFBDA7"/>
<path d="M122.443 127.527C127.4 129.802 129.438 130.994 132.058 135.261C133.791 138.083 134.093 141.139 134.812 148.623C135.441 155.157 136.308 167.654 136.308 167.654C136.308 167.654 135.193 170.637 127.919 173.02C120.645 175.402 114.988 172.872 114.988 172.872C114.988 172.872 113.56 159.822 113.07 154.422C112.403 147.07 111.854 133.038 122.443 127.527Z" fill="#C340F1"/>
<path d="M427.001 353.414C427.458 355.666 428.309 358.275 429.033 362.89C429.743 367.415 428.654 367.692 431.97 379.246C433.961 386.181 433.599 388.941 428.942 394.793C423.956 401.056 418.75 399.794 415.355 392.849C412.453 386.914 412.626 384.155 412.615 378.006C412.605 371.857 412.536 370.065 412.229 365.189C411.958 360.892 412.351 357.953 412.057 354.66L427.001 353.414Z" fill="#37474F"/>
<path d="M428.537 370.262C427.605 364.303 427.388 358.132 427.049 354.104C426.289 345.082 428.304 327.246 426.89 313.68L401.777 311.393C402.619 316.682 409.558 340.6 412.078 355.04C412.078 355.04 413.067 374.639 414.45 383.267C414.624 384.356 415.908 385.023 416.998 384.547C420.408 383.06 425.146 382.877 428.367 383.864C429.571 384.233 430.815 383.442 430.794 382.285C430.736 379.092 429.236 374.732 428.537 370.262Z" fill="#B16668"/>
<path d="M356.501 306.544C357.428 325.039 357.625 339.147 357.425 347.125C357.302 352.04 356.559 355.256 355.229 358.635C353.899 362.014 351.594 366.886 349.676 369.038C349.676 369.038 343.485 375.668 344.665 376.288C345.846 376.908 358.616 377.697 363.683 376.298C368.75 374.899 370.701 370.644 372.598 362.891C374.496 355.138 376.237 343.789 376.237 343.789C376.237 343.789 376.03 343.486 375.75 342.457C375.136 340.195 377.563 328.828 378.216 323.181L356.501 306.544Z" fill="#B16668"/>
<path d="M380.768 355.202C380.575 357.118 379.122 359.387 378.633 362.389C378.143 365.391 377.825 368.507 377.931 372.742C378.037 376.977 378.052 377.579 378.052 377.579L376.739 377.612C376.739 377.612 376.585 371.491 376.518 368.804C376.451 366.118 375.16 363.75 373.869 363.494C373.869 363.494 374.414 355.361 380.768 355.202Z" fill="#263238"/>
<path d="M376.058 342.735C376.824 344.903 378.783 347.747 379.907 349.826C380.558 351.03 381.101 352.681 381.116 353.741C381.13 354.778 380.768 356.237 379.373 357.608C378.316 358.647 377.56 359.437 376.301 360.593C373.667 363.012 372.574 365.138 370.825 370.752C369.785 374.088 368.108 377.122 365.147 378.742C362.838 380.005 356.502 382.137 348.707 381.811C342.241 381.541 339.75 378.717 342.223 376.293C344.697 373.869 348.924 369.553 349.677 369.038C349.677 369.038 353.465 368.988 356.53 370.394C360.108 372.035 361.212 374.163 365.054 372.358C368.533 370.724 370.372 364.735 370.675 355.202C371.004 344.813 376.058 342.735 376.058 342.735Z" fill="#37474F"/>
<path d="M409.48 180.844C409.928 183.198 410.429 185.402 411.286 186.573C416.527 193.727 421.878 202.394 422.922 215.792C425.44 248.116 425.55 279.337 425.55 279.337C425.811 282.192 429.233 288.322 428.798 305.57C428.47 318.56 427.52 338.437 427.52 338.437C427.52 338.437 416.103 343.078 407.975 340.074C404.634 327.707 399.27 298.298 395.955 284.145C392.46 269.228 390.064 251.229 390.064 251.229L382.889 279.21C382.889 279.21 384.753 289.233 383.728 298.904C382.808 307.588 377.228 333.631 377.228 333.631C377.228 333.631 363.675 336.541 356.66 331.759C356.66 331.759 354.962 288.488 354.831 278.941C354.7 269.393 353.213 216.763 358.897 191.756C359.162 190.591 359.947 182.685 359.947 182.685C366.829 188.274 400.421 187.049 409.48 180.844Z" fill="#37474F"/>
<path d="M427.741 333.645C424.233 336.919 411.006 337.974 406.733 335.745L408.437 342.735C408.437 342.735 412.585 344.687 418.745 344.086C424.955 343.48 427.519 340.714 427.519 340.714L427.741 333.645Z" fill="#455A64"/>
<path d="M378.216 329.331C374.557 330.593 360.376 329.728 356.342 327.294L356.587 333.09C356.587 333.09 362.115 335.597 368.277 336.172C374.464 336.749 377.1 334.995 377.1 334.995L378.216 329.331Z" fill="#455A64"/>
<path d="M390.064 251.228L385.627 219.283C385.627 219.283 376.268 220.098 369.371 211.703C369.371 211.703 369.207 219.706 382.402 223.211L387.601 252.646L382.889 279.21L390.064 251.228Z" fill="#263238"/>
<path d="M330.154 159.804C326.436 157.013 323.624 154.932 319.334 148.081C318.251 146.352 316.191 144.659 315.172 143.728C313.27 141.991 312.078 139.855 311.558 138.785C311.166 137.855 308.801 138.861 309.264 142.081C309.608 144.473 311.066 146.647 311.645 148.008C310.376 148.047 308.363 147.837 305.613 147.977C302.864 148.118 297.444 147.86 298.439 150.986C298.662 151.686 299.227 152.283 299.25 153.017C299.261 153.368 299.143 153.709 299.076 154.053C298.825 155.35 299.353 156.768 300.392 157.584C300.629 157.77 300.899 157.937 301.041 158.203C301.326 158.734 301.113 159.403 301.228 159.97C301.361 160.622 301.735 161.213 302.183 161.696C302.851 162.417 303.074 162.169 303.743 162.888C304.184 163.362 304.269 164.402 305.3 165.084C306.071 165.594 307.922 165.656 309.895 165.624C311.708 165.595 312.978 166.246 315.598 166.171C317.663 166.111 319.624 167.271 323.035 170.784C330.707 178.112 331.688 180.498 338.577 186.089C339.248 186.634 339.906 187.118 340.486 187.501C347.004 191.991 349.587 188.5 354.733 179.428C361.059 168.278 364.346 161.963 364.346 161.963L374.502 131.671C368.243 132.373 360.887 139.459 355.321 147.492C352.714 151.254 341.9 167.862 341.9 167.862C338.253 165.529 333.872 162.594 330.154 159.804Z" fill="#B16668"/>
<path d="M308.276 149.864C308.55 149.938 308.821 150.034 309.078 150.165C309.335 150.298 309.581 150.443 309.795 150.67L309.715 150.637C310.934 150.472 312.272 150.524 313.387 151.212C313.661 151.383 313.92 151.589 314.132 151.853C314.338 152.117 314.499 152.464 314.466 152.843C314.447 153.011 314.419 153.199 314.287 153.381C314.145 153.563 313.941 153.631 313.784 153.675C313.458 153.753 313.165 153.785 312.868 153.849C312.282 153.967 311.699 154.169 311.086 154.307C310.473 154.455 309.83 154.489 309.208 154.445C307.968 154.328 306.745 154.135 305.579 153.719C306.173 153.876 306.787 153.933 307.396 154.002C308.007 154.065 308.615 154.14 309.22 154.147C309.826 154.152 310.421 154.095 311.003 153.951C311.588 153.808 312.167 153.597 312.785 153.459C313.088 153.389 313.407 153.343 313.678 153.273C313.965 153.209 314.032 153.103 314.07 152.802C314.124 152.302 313.672 151.823 313.194 151.519C312.202 150.878 310.942 150.727 309.739 150.806L309.688 150.81L309.659 150.773C309.5 150.57 309.267 150.392 309.033 150.246C308.792 150.101 308.539 149.971 308.276 149.864Z" fill="#9A4A4D"/>
<path d="M312.56 153.717C313.064 153.527 313.697 153.737 314.015 154.215C314.358 154.696 314.256 155.377 313.951 155.839C313.424 156.778 312.659 157.603 311.617 158.088C311.073 158.288 310.514 158.29 309.981 158.292C309.445 158.281 308.917 158.265 308.389 158.228C307.332 158.163 306.276 158.094 305.221 157.975C306.281 157.916 307.34 157.907 308.399 157.902C309.447 157.879 310.548 158.019 311.475 157.702C311.919 157.548 312.334 157.193 312.717 156.865C313.09 156.521 313.393 156.104 313.699 155.676C313.995 155.281 314.1 154.75 313.855 154.313C313.63 153.872 313.085 153.613 312.56 153.717Z" fill="#9A4A4D"/>
<path d="M312.099 157.604C312.537 157.419 313.066 157.348 313.545 157.577C313.78 157.693 313.973 157.932 314.027 158.204C314.067 158.466 314.099 158.697 314.05 158.979C313.914 159.54 313.513 159.867 313.198 160.227C312.858 160.568 312.502 160.943 311.976 161.128C311.447 161.294 310.939 161.187 310.493 161.208C310.031 161.221 309.565 161.31 309.091 161.372C308.147 161.517 307.203 161.682 306.25 161.81C307.166 161.515 308.094 161.272 309.033 161.06C309.501 160.948 309.98 160.865 310.476 160.831C310.981 160.803 311.452 160.873 311.848 160.732C312.243 160.612 312.595 160.286 312.93 159.962C313.254 159.63 313.62 159.287 313.743 158.907C313.797 158.72 313.789 158.463 313.772 158.252C313.749 158.049 313.627 157.868 313.444 157.751C313.075 157.501 312.561 157.503 312.099 157.604Z" fill="#9A4A4D"/>
<path d="M312.295 160.745C312.491 160.799 312.653 160.966 312.743 161.166C312.825 161.37 312.833 161.595 312.806 161.807C312.728 162.236 312.566 162.574 312.401 162.952C312.303 163.129 312.194 163.302 312.073 163.466C311.956 163.635 311.772 163.806 311.605 163.898C311.263 164.114 310.909 164.287 310.528 164.408L311.411 163.644C311.553 163.501 311.67 163.412 311.762 163.25C311.863 163.094 311.951 162.929 312.032 162.761C312.21 162.441 312.376 162.064 312.496 161.739C312.604 161.41 312.6 161.018 312.295 160.745Z" fill="#9A4A4D"/>
<path d="M314.268 152.833C314.02 153.992 314.651 157.146 316.676 158.619C318.701 160.092 320.212 160.123 320.212 160.123C320.212 160.123 318.312 160.246 316.514 159.309C314.716 158.373 314.084 157.38 314.084 157.38L313.891 158.179C313.637 157.761 313.515 157.399 312.377 157.514C312.377 157.514 313.384 156.573 313.724 155.911C314.064 155.249 314.554 154.211 313.145 153.591C313.145 153.591 313.607 153.536 313.998 153.368C314.39 153.202 314.268 152.833 314.268 152.833Z" fill="#9A4A4D"/>
<path d="M375.375 130.755C366.519 132.375 363.418 132.445 354.242 147.252C348.609 156.341 341.768 167.429 341.768 167.429L335.213 163.398C336.427 164.63 338.821 170.956 337.212 174.863C335.603 178.77 332.021 180.395 332.021 180.395C332.021 180.395 335.656 184.228 339.213 186.942C342.77 189.656 344.656 190.062 346.821 189.421C348.986 188.78 351.093 186.435 356.335 180.213C361.725 173.816 368.029 164.408 368.029 164.408L375.375 130.755Z" fill="#C340F1"/>
<path opacity="0.55" d="M375.375 130.755C366.519 132.375 363.418 132.445 354.242 147.252C348.609 156.341 341.768 167.429 341.768 167.429L335.213 163.398C336.427 164.63 338.821 170.956 337.212 174.863C335.603 178.77 332.021 180.395 332.021 180.395C332.021 180.395 335.656 184.228 339.213 186.942C342.77 189.656 344.656 190.062 346.821 189.421C348.986 188.78 351.093 186.435 356.335 180.213C361.725 173.816 368.029 164.408 368.029 164.408L375.375 130.755Z" fill="white"/>
<path opacity="0.35" d="M341.768 167.429C345.256 169.555 348.614 174.078 349.204 176.747C349.403 173.364 347.386 168.313 342.93 165.546L341.768 167.429Z" fill="#C340F1"/>
<path opacity="0.35" d="M335.284 183.477C335.867 183.166 336.417 182.795 336.931 182.381C337.98 181.538 338.862 180.497 339.527 179.327C340.776 177.127 341.294 174.431 340.906 171.929C340.886 171.801 341.031 171.801 341.058 171.915C341.679 174.636 341.326 177.48 339.879 179.89C339.157 181.091 338.21 182.155 337.107 183.02C336.659 183.371 336.18 183.68 335.686 183.962C335.521 183.812 335.36 183.663 335.202 183.516C335.229 183.503 335.258 183.492 335.284 183.477Z" fill="#C340F1"/>
<path d="M394.813 127.149L408.971 131.55C411.402 132.384 420.585 137.987 417.376 151.813C416.315 156.385 414.868 162.806 413.562 169.216C412.563 174.118 416.229 183.552 419.192 198.574C419.192 198.574 407.049 208.23 382.919 205.505C364.51 203.426 357.585 195.551 357.585 195.551C357.413 181.222 360.445 172.145 361.812 166.692C361.812 166.692 359.748 164.116 359.634 158.29C359.514 152.182 363.191 146.832 368.668 139.904C373.881 133.311 378.695 129.671 378.695 129.671L394.813 127.149Z" fill="#FAFAFA"/>
<path d="M363.251 109.893C362.635 107.855 360.336 107.667 359.852 104.932C359.367 102.197 360.818 100.35 363.065 99.1332C365.313 97.9162 365.759 95.7012 365.311 91.1112C364.863 86.5212 368.124 83.7862 371.893 83.2322C373.753 82.9592 375.914 83.1492 377.216 81.7932C377.789 81.1962 378.081 80.3932 378.474 79.6652C380.269 76.3422 383.613 74.8952 388.082 74.9172C389.9 74.9262 392.297 75.2682 393.936 76.0442C396.202 76.9242 397.332 77.7152 399.592 79.8062C402.042 79.4072 406.654 79.9402 409.151 82.1462C410.953 83.6532 412.697 85.3142 413.237 88.7582C413.662 91.4712 413.41 93.0092 414.577 94.4812C416.957 97.4842 419.928 97.4732 421.281 100.006C423.202 103.6 418.468 106.689 420.883 111.05C422.913 114.717 421.45 119.022 417.267 120.615C415.168 121.415 413.376 120.33 410.375 121.451C407.422 122.554 407.251 124.861 403.433 126.397C400.313 127.653 397.643 125.365 395.108 125.07C391.651 124.667 392.758 125.808 389.349 123.618C388.179 122.867 387.481 121.528 386.303 120.789C382.556 118.549 381.339 119.764 376.802 121.395C375.621 121.82 371.704 122.916 369.029 119.956C367.642 118.421 366.61 115.738 366.71 113.041C365.948 115.539 360.216 115.491 359.636 111.522C360.892 113.459 363.867 112.103 363.251 109.893Z" fill="#263238"/>
<path d="M400.216 124.105C400.272 121.816 400.677 116.021 400.677 116.021C401.524 118.155 405.399 118.243 407.296 115.604C409.7 112.261 409.692 108.291 408.056 105.866C406.249 103.186 401.952 103.123 400.038 107.271C397.203 107.796 396.126 103.454 398.464 99.461C398.513 89.929 385.556 93.136 382.949 84.583C378.383 85.227 374.131 88.809 372.413 92.409C371.403 94.526 371.241 95.834 371.48 100.116C371.573 101.789 370.425 103.726 370.091 105.938C368.563 116.066 371.538 120.111 374.86 122.082C376.629 123.132 378.925 123.812 383.158 124.06C383.158 124.06 383.084 125.958 382.996 127.221C382.908 128.484 382.784 129.032 381.261 129.245C380.743 129.317 380.163 129.363 380.163 129.363C380.163 129.363 373.163 135.823 382.38 137.508C396.142 140.025 401.643 131.637 402.249 129.514C400.151 129.063 400.124 127.917 400.216 124.105Z" fill="#B16668"/>
<path d="M387.279 112.974L382.198 114.332C382.545 115.784 383.964 116.657 385.367 116.283C386.77 115.908 387.626 114.427 387.279 112.974Z" fill="#9A4A4D"/>
<path d="M386.906 114.116C385.506 114.015 384.268 114.927 383.909 116.23C384.365 116.384 384.866 116.416 385.367 116.282C386.374 116.013 387.09 115.172 387.291 114.183C387.164 114.157 387.039 114.126 386.906 114.116Z" fill="#F28F8F"/>
<path d="M374.049 97.6468L377.782 96.0978C377.39 95.0428 376.236 94.5348 375.205 94.9618C374.175 95.3898 373.657 96.5918 374.049 97.6468Z" fill="#263238"/>
<path d="M392.196 98.8875L388.585 96.9605C389.083 95.9355 390.296 95.5355 391.294 96.0675C392.29 96.5995 392.695 97.8625 392.196 98.8875Z" fill="#263238"/>
<path d="M383.158 124.061C389.588 123.72 396.833 121.452 399.12 117.96C399.12 117.96 398.18 121.51 395.567 123.013C389.595 126.449 383.061 126.152 383.061 126.152L383.158 124.061Z" fill="#9A4A4D"/>
<path d="M390.058 103.234C390.058 104.176 389.294 104.94 388.352 104.94C387.41 104.94 386.646 104.176 386.646 103.234C386.646 102.292 387.41 101.528 388.352 101.528C389.295 101.528 390.058 102.292 390.058 103.234Z" fill="#263238"/>
<path d="M377.782 102.435C377.782 103.377 377.018 104.141 376.076 104.141C375.134 104.141 374.37 103.377 374.37 102.435C374.37 101.493 375.134 100.729 376.076 100.729C377.019 100.729 377.782 101.493 377.782 102.435Z" fill="#263238"/>
<path d="M375.794 109.117L381.292 111.447L382.738 100.479L375.794 109.117Z" fill="#9A4A4D"/>
<path d="M405.081 114.586C405.025 115.359 404.352 115.941 403.579 115.885C402.806 115.829 402.224 115.157 402.28 114.383C402.336 113.61 403.009 113.028 403.782 113.084C404.556 113.14 405.137 113.812 405.081 114.586Z" fill="#EBEBEB"/>
<path d="M382.889 128.096C382.23 128.339 377.813 129.742 375.375 130.756C368.336 136.147 362.942 144.206 361.12 147.671C358.58 152.502 357.264 156.687 357.132 164.554C357.018 171.399 356.188 191.754 354.83 203.074C355.571 205.72 362.972 208.868 362.972 208.868C363.35 198.694 363.532 166.794 365.729 155.97C368.336 143.126 379.838 131.401 382.519 129.563L382.889 128.096Z" fill="#C340F1"/>
<path d="M400.229 127.314L400.26 129.412C393.901 145.947 395.147 153.535 395.955 164.408C397.885 190.37 400.921 212.875 400.921 212.875C400.921 212.875 419.078 213.057 425.549 204.313C425.549 204.313 419.725 191.167 417.557 177.898C416.272 170.034 419.937 153.897 418.582 142.511C418.016 137.755 416.216 132.998 412.648 131.879C409.7 130.955 407.136 130.205 407.136 130.205L400.229 127.314Z" fill="#C340F1"/>
<path d="M422.813 218.327C425.686 219.145 429.362 215.573 430.371 214.33C431.38 213.087 430.081 210.134 429.471 207.642C428.862 205.15 429.497 200.936 426.392 202.116C423.286 203.297 416.825 211.619 422.813 218.327Z" fill="#9A4A4D"/>
<path d="M413.208 132.508C422.526 134.455 423.444 134.173 427.844 143.019C432.968 153.32 440.226 170.139 442.061 174.058C443.896 177.977 445.661 180.854 440.734 186.897C436.339 192.287 423.366 207.811 421.444 210.036C419.743 212.005 421.65 217.79 427.503 216.952C427.503 216.952 423.049 220.893 420.603 220.455C418.492 220.077 413.157 216.833 410.112 210.43C408.191 206.39 409.799 203.221 412.722 198.723C416.212 193.355 424.854 178.981 424.854 178.981L412.021 153.292C412.022 153.29 406.401 139.612 413.208 132.508Z" fill="#B16668"/>
<path d="M412.648 131.877C410.392 134.133 406.804 142.572 411.795 154.771L424.392 178.979L418.784 187.985C418.784 187.985 422.804 193.192 426.149 195.566C429.495 197.94 432.641 197.077 432.641 197.077C432.641 197.077 439.851 189.073 442.402 185.574C444.953 182.076 445.402 181.048 442.148 173.169C439.01 165.572 429.032 142.429 426.89 138.887C424.746 135.345 421.946 133.043 412.648 131.877Z" fill="#C340F1"/>
<path opacity="0.55" d="M412.648 131.877C410.392 134.133 406.804 142.572 411.795 154.771L424.392 178.979L418.784 187.985C418.784 187.985 422.804 193.192 426.149 195.566C429.495 197.94 432.641 197.077 432.641 197.077C432.641 197.077 439.851 189.073 442.402 185.574C444.953 182.076 445.402 181.048 442.148 173.169C439.01 165.572 429.032 142.429 426.89 138.887C424.746 135.345 421.946 133.043 412.648 131.877Z" fill="white"/>
<path opacity="0.35" d="M426.963 188.831C426.019 188.108 425.133 187.306 424.308 186.449C423.504 185.614 422.764 184.72 422.098 183.771C421.984 183.609 421.863 183.375 421.756 183.21L421.334 183.888C421.4 183.983 421.485 184.132 421.551 184.226C422.217 185.171 422.95 186.068 423.745 186.907C424.56 187.766 425.444 188.549 426.381 189.273C427.352 190.023 428.464 190.797 429.612 191.241C429.925 191.362 429.947 190.916 429.749 190.771C428.835 190.103 427.865 189.521 426.963 188.831Z" fill="#C340F1"/>
<path d="M309.71 64.1739L338.926 81.0749C339.502 81.4069 339.969 82.2159 339.969 83.7789V119.487C339.969 119.254 339.499 120.057 338.92 120.384L334.771 122.743C334.192 123.07 333.255 123.065 332.679 122.733L303.463 105.832C302.887 105.5 302.42 104.691 302.42 104.026V68.3179C302.42 67.6529 302.889 66.8489 303.469 66.5219L307.618 64.1629C308.197 63.8359 309.134 63.8409 309.71 64.1739Z" fill="#C340F1"/>
<path opacity="0.2" d="M332.68 122.732C333.235 123.054 334.249 123.065 334.773 122.744L338.92 120.381C339.498 120.058 339.97 119.253 339.97 119.486V83.7784C339.97 82.5334 339.84 82.1534 339.638 81.8154L333.415 85.3974C333.608 85.7204 333.723 86.0914 333.723 85.5254V121.229C333.722 122.737 333.293 123.088 332.68 122.732Z" fill="black"/>
<path opacity="0.3" d="M302.435 68.1291C302.517 67.6041 302.946 67.4161 303.466 67.7151L332.678 84.6171C332.967 84.7861 333.227 85.0701 333.415 85.3971L339.643 81.8151C339.455 81.5021 339.205 81.2321 338.925 81.0731L309.708 64.1711C309.135 63.8391 308.2 63.8341 307.617 64.1611L303.471 66.5191C302.945 66.8191 302.507 67.5081 302.435 68.1291Z" fill="white"/>
<path d="M342.827 109.36C343.482 108.97 348.476 106.156 348.635 106.064C349.117 105.77 349.29 105.057 348.842 104.575L339.969 94.4023L333.723 97.9843L343.004 107.897C343.438 108.361 343.265 109.042 342.827 109.36Z" fill="#C340F1"/>
<path opacity="0.3" d="M342.827 109.36C343.482 108.97 348.476 106.156 348.635 106.064C349.117 105.77 349.29 105.057 348.842 104.575L339.969 94.4023L333.723 97.9843L343.004 107.897C343.438 108.361 343.265 109.042 342.827 109.36Z" fill="white"/>
<path d="M303.464 67.7164L332.68 84.6174C333.256 84.9494 333.723 85.7584 333.723 86.4234V97.9864L343.006 107.896C343.607 108.541 343.166 109.425 342.41 109.495L333.723 108.86V122.129C333.723 122.794 333.256 123.064 332.68 122.731L303.464 105.83C302.888 105.498 302.421 104.689 302.421 104.024V68.3184C302.421 67.6534 302.887 67.3844 303.464 67.7164Z" fill="#C340F1"/>
<path d="M314.711 105.351C314.612 105.351 314.511 105.344 314.41 105.33C313.656 105.228 313.007 104.752 312.684 104.064L309.083 96.4756C308.557 95.3566 309.037 94.0226 310.157 93.4966C311.276 92.9696 312.609 93.4506 313.136 94.5706L315.265 99.0266L325.555 87.0446C326.362 86.1086 327.777 86.0006 328.714 86.8046C329.652 87.6116 329.759 89.0246 328.954 89.9636L316.41 104.571C315.981 105.07 315.36 105.351 314.711 105.351Z" fill="#FAFAFA"/>
</svg>
